ISO-10303-21;
HEADER;
FILE_DESCRIPTION((''),'2;1');
FILE_NAME('MOV-14D180K','2012-08-23T',('ryans'),('Bourns, Inc.'),
'PRO/ENGINEER BY PARAMETRIC TECHNOLOGY CORPORATION, 2010100',
'PRO/ENGINEER BY PARAMETRIC TECHNOLOGY CORPORATION, 2010100','');
FILE_SCHEMA(('CONFIG_CONTROL_DESIGN'));
ENDSEC;
DATA;
#1=CARTESIAN_POINT('',(0.E0,0.E0,0.E0));
#2=DIRECTION('',(0.E0,0.E0,-1.E0));
#3=DIRECTION('',(1.E0,0.E0,0.E0));
#4=AXIS2_PLACEMENT_3D('',#1,#2,#3);
#6=CARTESIAN_POINT('',(0.E0,0.E0,0.E0));
#7=DIRECTION('',(0.E0,0.E0,-1.E0));
#8=DIRECTION('',(-1.E0,0.E0,0.E0));
#9=AXIS2_PLACEMENT_3D('',#6,#7,#8);
#11=CARTESIAN_POINT('',(7.25E0,0.E0,1.E0));
#12=DIRECTION('',(0.E0,-1.E0,0.E0));
#13=DIRECTION('',(0.E0,0.E0,-1.E0));
#14=AXIS2_PLACEMENT_3D('',#11,#12,#13);
#16=CARTESIAN_POINT('',(-7.25E0,0.E0,1.E0));
#17=DIRECTION('',(0.E0,1.E0,0.E0));
#18=DIRECTION('',(0.E0,0.E0,-1.E0));
#19=AXIS2_PLACEMENT_3D('',#16,#17,#18);
#21=CARTESIAN_POINT('',(3.661242392962E0,7.393091120107E0,2.499999999995E0));
#22=CARTESIAN_POINT('',(3.606725834494E0,7.420088442868E0,2.500002630537E0));
#23=CARTESIAN_POINT('',(3.498924044083E0,7.471992858403E0,2.509172142965E0));
#24=CARTESIAN_POINT('',(3.338288277880E0,7.545074946708E0,2.551209680789E0));
#25=CARTESIAN_POINT('',(3.187454882196E0,7.609911849310E0,2.620247366764E0));
#26=CARTESIAN_POINT('',(3.051113114964E0,7.665471768600E0,2.713419726035E0));
#27=CARTESIAN_POINT('',(2.933589359932E0,7.711091053169E0,2.826583598502E0));
#28=CARTESIAN_POINT('',(2.836562019882E0,7.747206379220E0,2.956484394843E0));
#29=CARTESIAN_POINT('',(2.761318419275E0,7.774259129991E0,3.100842648938E0));
#30=CARTESIAN_POINT('',(2.709899534696E0,7.792269856400E0,3.256133568093E0));
#31=CARTESIAN_POINT('',(2.683856064386E0,7.801245950375E0,3.417770398226E0));
#32=CARTESIAN_POINT('',(2.683806275454E0,7.801263020084E0,3.581598705605E0));
#33=CARTESIAN_POINT('',(2.709746869330E0,7.792322741702E0,3.743233700984E0));
#34=CARTESIAN_POINT('',(2.761059076618E0,7.774350944349E0,3.898543976201E0));
#35=CARTESIAN_POINT('',(2.836227245854E0,7.747328685591E0,4.042985545546E0));
#36=CARTESIAN_POINT('',(2.933181260151E0,7.711245721963E0,4.172948013878E0));
#37=CARTESIAN_POINT('',(3.050550998973E0,7.665694263110E0,4.286111224854E0));
#38=CARTESIAN_POINT('',(3.186722961167E0,7.610217465887E0,4.379335100664E0));
#39=CARTESIAN_POINT('',(3.337558253851E0,7.545398952697E0,4.448540151162E0));
#40=CARTESIAN_POINT('',(3.498454296126E0,7.472215876778E0,4.490768647858E0));
#41=CARTESIAN_POINT('',(3.606547641195E0,7.420176734623E0,4.499997945658E0));
#42=CARTESIAN_POINT('',(3.661242391295E0,7.393091116767E0,4.500000000005E0));
#44=CARTESIAN_POINT('',(3.661242391295E0,7.393091116767E0,4.500000000005E0));
#45=CARTESIAN_POINT('',(3.718843910016E0,7.364564628829E0,4.499996753219E0));
#46=CARTESIAN_POINT('',(3.832362157918E0,7.306697154533E0,4.489792128155E0));
#47=CARTESIAN_POINT('',(4.000922814757E0,7.215736517081E0,4.443180407478E0));
#48=CARTESIAN_POINT('',(4.157649625978E0,7.126456073592E0,4.367126032490E0));
#49=CARTESIAN_POINT('',(4.297602414291E0,7.042779355409E0,4.265006219635E0));
#50=CARTESIAN_POINT('',(4.414719567912E0,6.969780643300E0,4.143260969804E0));
#51=CARTESIAN_POINT('',(4.507042148618E0,6.910286146903E0,4.008166401695E0));
#52=CARTESIAN_POINT('',(4.574402503023E0,6.865767080566E0,3.865083890775E0));
#53=CARTESIAN_POINT('',(4.617627979785E0,6.836699545552E0,3.718896309108E0));
#54=CARTESIAN_POINT('',(4.638462045971E0,6.822549789136E0,3.572709529211E0));
#55=CARTESIAN_POINT('',(4.638435429877E0,6.822567926410E0,3.426900396721E0));
#56=CARTESIAN_POINT('',(4.617536016751E0,6.836761815004E0,3.280684582951E0));
#57=CARTESIAN_POINT('',(4.574254240858E0,6.865866000574E0,3.134537405179E0));
#58=CARTESIAN_POINT('',(4.506854732224E0,6.910408721249E0,2.991505794008E0));
#59=CARTESIAN_POINT('',(4.414454399214E0,6.969949026127E0,2.856411074047E0));
#60=CARTESIAN_POINT('',(4.297293147812E0,7.042968411519E0,2.734723930229E0));
#61=CARTESIAN_POINT('',(4.157283046173E0,7.126670488597E0,2.632650730941E0));
#62=CARTESIAN_POINT('',(4.000506122495E0,7.215967696247E0,2.556663270175E0));
#63=CARTESIAN_POINT('',(3.832009130923E0,7.306880411548E0,2.510154898694E0));
#64=CARTESIAN_POINT('',(3.718702218408E0,7.364634955912E0,2.500002932378E0));
#65=CARTESIAN_POINT('',(3.661242392962E0,7.393091120107E0,2.499999999995E0));
#67=CARTESIAN_POINT('',(-3.661242391240E0,7.393091116655E0,1.499999999995E0));
#68=CARTESIAN_POINT('',(-3.718860952032E0,7.364556188180E0,1.500003250610E0));
#69=CARTESIAN_POINT('',(-3.832403935969E0,7.306675410317E0,1.510214361839E0));
#70=CARTESIAN_POINT('',(-4.000965990232E0,7.215712532471E0,1.556835996076E0));
#71=CARTESIAN_POINT('',(-4.157685567605E0,7.126434977417E0,1.632896430589E0));
#72=CARTESIAN_POINT('',(-4.297621013117E0,7.042767905716E0,1.735010895546E0));
#73=CARTESIAN_POINT('',(-4.414733823567E0,6.969771596376E0,1.856756651581E0));
#74=CARTESIAN_POINT('',(-4.507050631423E0,6.910280578856E0,1.991849138503E0));
#75=CARTESIAN_POINT('',(-4.574406363380E0,6.865764496850E0,2.134926996195E0));
#76=CARTESIAN_POINT('',(-4.617629260156E0,6.836698676632E0,2.281110539619E0));
#77=CARTESIAN_POINT('',(-4.638462015830E0,6.822549809476E0,2.427293059376E0));
#78=CARTESIAN_POINT('',(-4.638435355121E0,6.822567977080E0,2.573097630589E0));
#79=CARTESIAN_POINT('',(-4.617537176549E0,6.836761027882E0,2.719309142799E0));
#80=CARTESIAN_POINT('',(-4.574257877072E0,6.865863566173E0,2.865452310679E0));
#81=CARTESIAN_POINT('',(-4.506862886010E0,6.910403370647E0,3.008479283803E0));
#82=CARTESIAN_POINT('',(-4.414468202702E0,6.969940259918E0,3.143571780077E0));
#83=CARTESIAN_POINT('',(-4.297311799629E0,7.042956944604E0,3.265259074186E0));
#84=CARTESIAN_POINT('',(-4.157315699392E0,7.126651338709E0,3.367329013298E0));
#85=CARTESIAN_POINT('',(-4.000544424910E0,7.215946434324E0,3.443322277173E0));
#86=CARTESIAN_POINT('',(-3.832044693205E0,7.306861915604E0,3.489839661466E0));
#87=CARTESIAN_POINT('',(-3.718716651080E0,7.364627807453E0,3.499997064010E0));
#88=CARTESIAN_POINT('',(-3.661242392871E0,7.393091119923E0,3.500000000005E0));
#90=CARTESIAN_POINT('',(-3.661242392871E0,7.393091119923E0,3.500000000005E0));
#91=CARTESIAN_POINT('',(-3.606725834403E0,7.420088442685E0,3.499997369463E0));
#92=CARTESIAN_POINT('',(-3.498924044125E0,7.471992858488E0,3.490827857035E0));
#93=CARTESIAN_POINT('',(-3.338288277869E0,7.545074946685E0,3.448790319211E0));
#94=CARTESIAN_POINT('',(-3.187454882199E0,7.609911849316E0,3.379752633236E0));
#95=CARTESIAN_POINT('',(-3.051113114963E0,7.665471768598E0,3.286580273965E0));
#96=CARTESIAN_POINT('',(-2.933589359932E0,7.711091053169E0,3.173416401498E0));
#97=CARTESIAN_POINT('',(-2.836562019882E0,7.747206379220E0,3.043515605157E0));
#98=CARTESIAN_POINT('',(-2.761318419275E0,7.774259129991E0,2.899157351062E0));
#99=CARTESIAN_POINT('',(-2.709899534696E0,7.792269856400E0,2.743866431907E0));
#100=CARTESIAN_POINT('',(-2.683856064386E0,7.801245950375E0,2.582229601774E0));
#101=CARTESIAN_POINT('',(-2.683806275454E0,7.801263020084E0,2.418401294395E0));
#102=CARTESIAN_POINT('',(-2.709746869330E0,7.792322741702E0,2.256766299016E0));
#103=CARTESIAN_POINT('',(-2.761059076618E0,7.774350944349E0,2.101456023799E0));
#104=CARTESIAN_POINT('',(-2.836227245854E0,7.747328685591E0,1.957014454454E0));
#105=CARTESIAN_POINT('',(-2.933181260151E0,7.711245721963E0,1.827051986122E0));
#106=CARTESIAN_POINT('',(-3.050550998972E0,7.665694263109E0,1.713888775146E0));
#107=CARTESIAN_POINT('',(-3.186722961169E0,7.610217465891E0,1.620664899336E0));
#108=CARTESIAN_POINT('',(-3.337558253844E0,7.545398952683E0,1.551459848838E0));
#109=CARTESIAN_POINT('',(-3.498454296152E0,7.472215876830E0,1.509231352142E0));
#110=CARTESIAN_POINT('',(-3.606547641139E0,7.420176734511E0,1.500002054342E0));
#111=CARTESIAN_POINT('',(-3.661242391240E0,7.393091116655E0,1.499999999995E0));
#113=CARTESIAN_POINT('',(0.E0,0.E0,5.E0));
#114=DIRECTION('',(0.E0,0.E0,1.E0));
#115=DIRECTION('',(1.E0,0.E0,0.E0));
#116=AXIS2_PLACEMENT_3D('',#113,#114,#115);
#118=CARTESIAN_POINT('',(0.E0,0.E0,1.E0));
#119=DIRECTION('',(0.E0,0.E0,-1.E0));
#120=DIRECTION('',(-1.E0,0.E0,0.E0));
#121=AXIS2_PLACEMENT_3D('',#118,#119,#120);
#123=DIRECTION('',(0.E0,-9.060363136831E-13,1.E0));
#124=VECTOR('',#123,4.E0);
#125=CARTESIAN_POINT('',(8.25E0,2.731527134248E-12,1.E0));
#126=LINE('',#125,#124);
#127=CARTESIAN_POINT('',(3.749999645616E0,7.572317427366E0,2.500001580521E0));
#128=DIRECTION('',(-8.961324340828E-1,4.437867287135E-1,1.627478477912E-6));
#129=DIRECTION('',(-4.437867287117E-1,-8.961324340503E-1,-7.902631851397E-6));
#130=AXIS2_PLACEMENT_3D('',#127,#128,#129);
#132=CARTESIAN_POINT('',(3.749999609247E0,7.572317366360E0,4.499998341331E0));
#133=DIRECTION('',(8.961324436706E-1,-4.437867093532E-1,1.569961343141E-6));
#134=DIRECTION('',(-4.437867093501E-1,-8.961324436351E-1,8.293374634003E-6));
#135=AXIS2_PLACEMENT_3D('',#132,#133,#134);
#137=CARTESIAN_POINT('',(3.749999999978E0,7.572318007074E0,4.299999232626E0));
#138=CARTESIAN_POINT('',(3.796956280920E0,7.543248642223E0,4.299997974373E0));
#139=CARTESIAN_POINT('',(3.890614001058E0,7.483571772626E0,4.291789793342E0));
#140=CARTESIAN_POINT('',(4.028438976905E0,7.390585234182E0,4.254485403211E0));
#141=CARTESIAN_POINT('',(4.156896180049E0,7.299114432518E0,4.193622342128E0));
#142=CARTESIAN_POINT('',(4.271519459735E0,7.213443897566E0,4.111922983801E0));
#143=CARTESIAN_POINT('',(4.367456148200E0,7.138696485838E0,4.014533664670E0));
#144=CARTESIAN_POINT('',(4.443075544094E0,7.077782335601E0,3.906474859537E0));
#145=CARTESIAN_POINT('',(4.498249872999E0,7.032200287026E0,3.792032345408E0));
#146=CARTESIAN_POINT('',(4.533656308722E0,7.002437796596E0,3.675110508500E0));
#147=CARTESIAN_POINT('',(4.550725071552E0,6.987947054367E0,3.558187011890E0));
#148=CARTESIAN_POINT('',(4.550708173891E0,6.987961834168E0,3.441563871947E0));
#149=CARTESIAN_POINT('',(4.533595911606E0,7.002489866396E0,3.324616399408E0));
#150=CARTESIAN_POINT('',(4.498151975674E0,7.032282835671E0,3.207721725550E0));
#151=CARTESIAN_POINT('',(4.442952173269E0,7.077883617168E0,3.093312882011E0));
#152=CARTESIAN_POINT('',(4.367273810877E0,7.138841147742E0,2.985245560560E0));
#153=CARTESIAN_POINT('',(4.271303778503E0,7.213608302471E0,2.887893320078E0));
#154=CARTESIAN_POINT('',(4.156634433774E0,7.299305660687E0,2.806221774528E0));
#155=CARTESIAN_POINT('',(4.028132423865E0,7.390797180729E0,2.745402292895E0));
#156=CARTESIAN_POINT('',(3.890364650948E0,7.483733743256E0,2.708174801259E0));
#157=CARTESIAN_POINT('',(3.796856486013E0,7.543310054183E0,2.700001961561E0));
#158=CARTESIAN_POINT('',(3.750000000016E0,7.572318007051E0,2.700000813538E0));
#160=DIRECTION('',(-8.362997869722E-11,1.E0,1.929199486837E-7));
#161=VECTOR('',#160,3.977681992932E0);
#162=CARTESIAN_POINT('',(3.749999999978E0,7.572318007074E0,4.299999232626E0));
#163=LINE('',#162,#161);
#164=CARTESIAN_POINT('',(3.75E0,1.155E1,3.5E0));
#165=DIRECTION('',(0.E0,1.E0,0.E0));
#166=DIRECTION('',(0.E0,0.E0,1.E0));
#167=AXIS2_PLACEMENT_3D('',#164,#165,#166);
#169=CARTESIAN_POINT('',(3.750000000016E0,7.572318007051E0,2.700000813538E0));
#170=CARTESIAN_POINT('',(3.705542541514E0,7.599837423698E0,2.700001814649E0));
#171=CARTESIAN_POINT('',(3.616636358041E0,7.653348167529E0,2.707373710136E0));
#172=CARTESIAN_POINT('',(3.485265665604E0,7.728040217303E0,2.741020427471E0));
#173=CARTESIAN_POINT('',(3.361638791738E0,7.794469406750E0,2.796270642091E0));
#174=CARTESIAN_POINT('',(3.249969814158E0,7.851346474620E0,2.870814160067E0));
#175=CARTESIAN_POINT('',(3.153699642910E0,7.898057352592E0,2.961340561206E0));
#176=CARTESIAN_POINT('',(3.074224982272E0,7.935033812046E0,3.065247548571E0));
#177=CARTESIAN_POINT('',(3.012592530314E0,7.962732563059E0,3.180712949697E0));
#178=CARTESIAN_POINT('',(2.970475059303E0,7.981173448506E0,3.304915301461E0));
#179=CARTESIAN_POINT('',(2.949139023847E0,7.990365534371E0,3.434192403344E0));
#180=CARTESIAN_POINT('',(2.949091690310E0,7.990385761593E0,3.565225571344E0));
#181=CARTESIAN_POINT('',(2.970331883565E0,7.981235291984E0,3.694508683078E0));
#182=CARTESIAN_POINT('',(3.012354412093E0,7.962837703184E0,3.818739094217E0));
#183=CARTESIAN_POINT('',(3.073920428773E0,7.935172571756E0,3.934282713491E0));
#184=CARTESIAN_POINT('',(3.153332064524E0,7.898231151461E0,4.038248999954E0));
#185=CARTESIAN_POINT('',(3.249474756187E0,7.851591084207E0,4.128784124814E0));
#186=CARTESIAN_POINT('',(3.361005523406E0,7.794799568277E0,4.203377727478E0));
#187=CARTESIAN_POINT('',(3.484639358505E0,7.728387400386E0,4.258770131738E0));
#188=CARTESIAN_POINT('',(3.616219034155E0,7.653594886323E0,4.292574001229E0));
#189=CARTESIAN_POINT('',(3.705386345694E0,7.599934774192E0,4.299998463152E0));
#190=CARTESIAN_POINT('',(3.749999999978E0,7.572318007074E0,4.299999232626E0));
#192=DIRECTION('',(8.505133408426E-11,1.E0,-2.045256515856E-7));
#193=VECTOR('',#192,3.977681992955E0);
#194=CARTESIAN_POINT('',(3.750000000016E0,7.572318007051E0,2.700000813538E0));
#195=LINE('',#194,#193);
#196=CARTESIAN_POINT('',(3.75E0,1.155E1,3.5E0));
#197=DIRECTION('',(0.E0,1.E0,0.E0));
#198=DIRECTION('',(0.E0,0.E0,-1.E0));
#199=AXIS2_PLACEMENT_3D('',#196,#197,#198);
#201=CARTESIAN_POINT('',(3.75E0,1.355681422326E1,3.5E0));
#202=DIRECTION('',(0.E0,1.E0,0.E0));
#203=DIRECTION('',(8.856806686332E-10,0.E0,-1.E0));
#204=AXIS2_PLACEMENT_3D('',#201,#202,#203);
#206=DIRECTION('',(-1.943410322618E-9,-9.994194109758E-1,-3.407111628327E-2));
#207=VECTOR('',#206,2.007980034421E0);
#208=CARTESIAN_POINT('',(3.750000004257E0,1.355681422326E1,2.768414121247E0));
#209=LINE('',#208,#207);
#210=CARTESIAN_POINT('',(3.750000005397E0,1.355E1,2.968298003443E0));
#211=DIRECTION('',(-1.E0,0.E0,-1.015033548879E-8));
#212=DIRECTION('',(0.E0,1.E0,0.E0));
#213=AXIS2_PLACEMENT_3D('',#210,#211,#212);
#215=CARTESIAN_POINT('',(-3.75E0,1.375E1,2.5E0));
#216=DIRECTION('',(0.E0,1.E0,0.E0));
#217=DIRECTION('',(0.E0,0.E0,-1.E0));
#218=AXIS2_PLACEMENT_3D('',#215,#216,#217);
#220=CARTESIAN_POINT('',(-3.75E0,1.375E1,2.5E0));
#221=DIRECTION('',(0.E0,1.E0,0.E0));
#222=DIRECTION('',(0.E0,0.E0,1.E0));
#223=AXIS2_PLACEMENT_3D('',#220,#221,#222);
#225=CARTESIAN_POINT('',(3.75E0,1.375E1,3.5E0));
#226=DIRECTION('',(0.E0,1.E0,0.E0));
#227=DIRECTION('',(0.E0,0.E0,-1.E0));
#228=AXIS2_PLACEMENT_3D('',#225,#226,#227);
#230=CARTESIAN_POINT('',(3.75E0,1.375E1,3.5E0));
#231=DIRECTION('',(0.E0,1.E0,0.E0));
#232=DIRECTION('',(0.E0,0.E0,1.E0));
#233=AXIS2_PLACEMENT_3D('',#230,#231,#232);
#235=CARTESIAN_POINT('',(3.75E0,1.375E1,3.5E0));
#236=DIRECTION('',(0.E0,1.E0,0.E0));
#237=DIRECTION('',(-1.015033280560E-8,0.E0,1.E0));
#238=AXIS2_PLACEMENT_3D('',#235,#236,#237);
#240=CARTESIAN_POINT('',(3.75E0,1.375E1,3.5E0));
#241=DIRECTION('',(0.E0,1.E0,0.E0));
#242=DIRECTION('',(1.015033113516E-8,0.E0,-1.E0));
#243=AXIS2_PLACEMENT_3D('',#240,#241,#242);
#245=CARTESIAN_POINT('',(-3.75E0,1.375E1,2.5E0));
#246=DIRECTION('',(0.E0,1.E0,0.E0));
#247=DIRECTION('',(-1.015033781694E-8,0.E0,1.E0));
#248=AXIS2_PLACEMENT_3D('',#245,#246,#247);
#250=CARTESIAN_POINT('',(-3.75E0,1.375E1,2.5E0));
#251=DIRECTION('',(0.E0,1.E0,0.E0));
#252=DIRECTION('',(1.015033698171E-8,0.E0,-1.E0));
#253=AXIS2_PLACEMENT_3D('',#250,#251,#252);
#255=DIRECTION('',(0.E0,1.E0,0.E0));
#256=VECTOR('',#255,2.E1);
#257=CARTESIAN_POINT('',(-3.75E0,1.375E1,2.1E0));
#258=LINE('',#257,#256);
#259=DIRECTION('',(0.E0,1.E0,0.E0));
#260=VECTOR('',#259,2.E1);
#261=CARTESIAN_POINT('',(-3.75E0,1.375E1,2.9E0));
#262=LINE('',#261,#260);
#263=CARTESIAN_POINT('',(-3.75E0,3.375E1,2.5E0));
#264=DIRECTION('',(0.E0,1.E0,0.E0));
#265=DIRECTION('',(0.E0,0.E0,-1.E0));
#266=AXIS2_PLACEMENT_3D('',#263,#264,#265);
#268=CARTESIAN_POINT('',(-3.75E0,3.375E1,2.5E0));
#269=DIRECTION('',(0.E0,1.E0,0.E0));
#270=DIRECTION('',(0.E0,0.E0,1.E0));
#271=AXIS2_PLACEMENT_3D('',#268,#269,#270);
#273=CARTESIAN_POINT('',(3.75E0,3.375E1,3.5E0));
#274=DIRECTION('',(0.E0,1.E0,0.E0));
#275=DIRECTION('',(0.E0,0.E0,-1.E0));
#276=AXIS2_PLACEMENT_3D('',#273,#274,#275);
#278=CARTESIAN_POINT('',(3.75E0,3.375E1,3.5E0));
#279=DIRECTION('',(0.E0,1.E0,0.E0));
#280=DIRECTION('',(0.E0,0.E0,1.E0));
#281=AXIS2_PLACEMENT_3D('',#278,#279,#280);
#283=DIRECTION('',(0.E0,1.E0,0.E0));
#284=VECTOR('',#283,2.E1);
#285=CARTESIAN_POINT('',(3.75E0,1.375E1,3.1E0));
#286=LINE('',#285,#284);
#287=DIRECTION('',(0.E0,1.E0,0.E0));
#288=VECTOR('',#287,2.E1);
#289=CARTESIAN_POINT('',(3.75E0,1.375E1,3.9E0));
#290=LINE('',#289,#288);
#291=CARTESIAN_POINT('',(3.749999994603E0,1.355E1,4.031701996557E0));
#292=DIRECTION('',(1.E0,0.E0,1.015033382346E-8));
#293=DIRECTION('',(0.E0,1.E0,0.E0));
#294=AXIS2_PLACEMENT_3D('',#291,#292,#293);
#296=CARTESIAN_POINT('',(3.75E0,1.355681422326E1,3.5E0));
#297=DIRECTION('',(0.E0,1.E0,0.E0));
#298=DIRECTION('',(-8.856776335199E-10,0.E0,1.E0));
#299=AXIS2_PLACEMENT_3D('',#296,#297,#298);
#301=DIRECTION('',(1.943410543780E-9,-9.994194109758E-1,3.407111628327E-2));
#302=VECTOR('',#301,2.007980034421E0);
#303=CARTESIAN_POINT('',(3.749999995743E0,1.355681422326E1,4.231585878753E0));
#304=LINE('',#303,#302);
#305=CARTESIAN_POINT('',(-3.750000005397E0,1.355E1,3.031701996557E0));
#306=DIRECTION('',(1.E0,0.E0,1.015033730678E-8));
#307=DIRECTION('',(0.E0,1.E0,0.E0));
#308=AXIS2_PLACEMENT_3D('',#305,#306,#307);
#310=CARTESIAN_POINT('',(-3.749999994603E0,1.355E1,1.968298003443E0));
#311=DIRECTION('',(-1.E0,0.E0,-1.015033647411E-8));
#312=DIRECTION('',(0.E0,1.E0,0.E0));
#313=AXIS2_PLACEMENT_3D('',#310,#311,#312);
#315=CARTESIAN_POINT('',(-3.75E0,1.355681422326E1,2.5E0));
#316=DIRECTION('',(0.E0,1.E0,0.E0));
#317=DIRECTION('',(8.856806686332E-10,0.E0,-1.E0));
#318=AXIS2_PLACEMENT_3D('',#315,#316,#317);
#320=DIRECTION('',(-1.943410543780E-9,-9.994194109758E-1,-3.407111628327E-2));
#321=VECTOR('',#320,2.007980034421E0);
#322=CARTESIAN_POINT('',(-3.749999995743E0,1.355681422326E1,1.768414121247E0));
#323=LINE('',#322,#321);
#324=CARTESIAN_POINT('',(-3.75E0,1.355681422326E1,2.5E0));
#325=DIRECTION('',(0.E0,1.E0,0.E0));
#326=DIRECTION('',(-8.856818826785E-10,0.E0,1.E0));
#327=AXIS2_PLACEMENT_3D('',#324,#325,#326);
#329=DIRECTION('',(1.943410543780E-9,-9.994194109758E-1,3.407111628327E-2));
#330=VECTOR('',#329,2.007980034421E0);
#331=CARTESIAN_POINT('',(-3.750000004257E0,1.355681422326E1,3.231585878753E0));
#332=LINE('',#331,#330);
#333=CARTESIAN_POINT('',(-3.750000000016E0,7.572318007051E0,3.299999186103E0));
#334=CARTESIAN_POINT('',(-3.705542541514E0,7.599837423698E0,3.299998184992E0));
#335=CARTESIAN_POINT('',(-3.616636358041E0,7.653348167529E0,3.292626290030E0));
#336=CARTESIAN_POINT('',(-3.485265665604E0,7.728040217303E0,3.258979572484E0));
#337=CARTESIAN_POINT('',(-3.361638791738E0,7.794469406750E0,3.203729357921E0));
#338=CARTESIAN_POINT('',(-3.249969814158E0,7.851346474620E0,3.129185839930E0));
#339=CARTESIAN_POINT('',(-3.153699642910E0,7.898057352592E0,3.038659438794E0));
#340=CARTESIAN_POINT('',(-3.074224982272E0,7.935033812046E0,2.934752451428E0));
#341=CARTESIAN_POINT('',(-3.012592530314E0,7.962732563059E0,2.819287050303E0));
#342=CARTESIAN_POINT('',(-2.970475059303E0,7.981173448506E0,2.695084698539E0));
#343=CARTESIAN_POINT('',(-2.949139023847E0,7.990365534371E0,2.565807596656E0));
#344=CARTESIAN_POINT('',(-2.949091690310E0,7.990385761593E0,2.434774428656E0));
#345=CARTESIAN_POINT('',(-2.970331883565E0,7.981235291984E0,2.305491316922E0));
#346=CARTESIAN_POINT('',(-3.012354412093E0,7.962837703184E0,2.181260905783E0));
#347=CARTESIAN_POINT('',(-3.073920428773E0,7.935172571756E0,2.065717286509E0));
#348=CARTESIAN_POINT('',(-3.153332064524E0,7.898231151461E0,1.961751000045E0));
#349=CARTESIAN_POINT('',(-3.249474756187E0,7.851591084207E0,1.871215875189E0));
#350=CARTESIAN_POINT('',(-3.361005523406E0,7.794799568277E0,1.796622272514E0));
#351=CARTESIAN_POINT('',(-3.484639358505E0,7.728387400386E0,1.741229868294E0));
#352=CARTESIAN_POINT('',(-3.616219034155E0,7.653594886323E0,1.707425998652E0));
#353=CARTESIAN_POINT('',(-3.705386345694E0,7.599934774192E0,1.700001537105E0));
#354=CARTESIAN_POINT('',(-3.749999999978E0,7.572318007074E0,1.700000767631E0));
#356=DIRECTION('',(-8.505591153858E-11,1.E0,2.046158409447E-7));
#357=VECTOR('',#356,3.977681992955E0);
#358=CARTESIAN_POINT('',(-3.750000000016E0,7.572318007051E0,3.299999186103E0));
#359=LINE('',#358,#357);
#360=CARTESIAN_POINT('',(-3.75E0,1.155E1,2.5E0));
#361=DIRECTION('',(0.E0,1.E0,0.E0));
#362=DIRECTION('',(0.E0,0.E0,1.E0));
#363=AXIS2_PLACEMENT_3D('',#360,#361,#362);
#365=CARTESIAN_POINT('',(-3.749999645616E0,7.572317427366E0,3.499998419479E0));
#366=DIRECTION('',(8.961324340828E-1,4.437867287135E-1,-1.627478550758E-6));
#367=DIRECTION('',(4.437867287117E-1,-8.961324340503E-1,7.902631851397E-6));
#368=AXIS2_PLACEMENT_3D('',#365,#366,#367);
#370=CARTESIAN_POINT('',(-3.749999608994E0,7.572317365940E0,1.500001659951E0));
#371=DIRECTION('',(-8.961324437444E-1,-4.437867092040E-1,-1.570788080982E-6));
#372=DIRECTION('',(4.437867092010E-1,-8.961324437089E-1,-8.299788351528E-6));
#373=AXIS2_PLACEMENT_3D('',#370,#371,#372);
#375=CARTESIAN_POINT('',(-3.749999999978E0,7.572318007074E0,1.700000767631E0));
#376=CARTESIAN_POINT('',(-3.796970237031E0,7.543240001235E0,1.700002027369E0));
#377=CARTESIAN_POINT('',(-3.890648233433E0,7.483549498156E0,1.708215413412E0));
#378=CARTESIAN_POINT('',(-4.028474298758E0,7.390560706034E0,1.745527708281E0));
#379=CARTESIAN_POINT('',(-4.156925570057E0,7.299092867769E0,1.806395600712E0));
#380=CARTESIAN_POINT('',(-4.271534646107E0,7.213432211254E0,1.888090665588E0));
#381=CARTESIAN_POINT('',(-4.367467798873E0,7.138687243456E0,1.985480398017E0));
#382=CARTESIAN_POINT('',(-4.443082474293E0,7.077776649089E0,2.093537539586E0));
#383=CARTESIAN_POINT('',(-4.498253025892E0,7.032197649043E0,2.207976337524E0));
#384=CARTESIAN_POINT('',(-4.533657354758E0,7.002436909206E0,2.324894954111E0));
#385=CARTESIAN_POINT('',(-4.550725046915E0,6.987947075195E0,2.441815052207E0));
#386=CARTESIAN_POINT('',(-4.550708112662E0,6.987961885906E0,2.558434551424E0));
#387=CARTESIAN_POINT('',(-4.533596859445E0,7.002489061897E0,2.675378590450E0));
#388=CARTESIAN_POINT('',(-4.498154947057E0,7.032280348539E0,2.792270064780E0));
#389=CARTESIAN_POINT('',(-4.442958840095E0,7.077878148167E0,2.906675199992E0));
#390=CARTESIAN_POINT('',(-4.367285101719E0,7.138832184555E0,3.014740742818E0));
#391=CARTESIAN_POINT('',(-4.271319022085E0,7.213596587781E0,3.112093112520E0));
#392=CARTESIAN_POINT('',(-4.156661155373E0,7.299286070489E0,3.193762031478E0));
#393=CARTESIAN_POINT('',(-4.028163784648E0,7.390775418378E0,3.254586142988E0));
#394=CARTESIAN_POINT('',(-3.890393841170E0,7.483714763184E0,3.291820823529E0));
#395=CARTESIAN_POINT('',(-3.796868316750E0,7.543302728488E0,3.299998036673E0));
#396=CARTESIAN_POINT('',(-3.750000000016E0,7.572318007051E0,3.299999186103E0));
#398=DIRECTION('',(8.361758607700E-11,1.E0,-1.929844452942E-7));
#399=VECTOR('',#398,3.977681992932E0);
#400=CARTESIAN_POINT('',(-3.749999999978E0,7.572318007074E0,1.700000767631E0));
#401=LINE('',#400,#399);
#402=CARTESIAN_POINT('',(-3.75E0,1.155E1,2.5E0));
#403=DIRECTION('',(0.E0,1.E0,0.E0));
#404=DIRECTION('',(0.E0,0.E0,-1.E0));
#405=AXIS2_PLACEMENT_3D('',#402,#403,#404);
#407=CARTESIAN_POINT('',(7.25E0,0.E0,5.E0));
#408=DIRECTION('',(0.E0,1.E0,0.E0));
#409=DIRECTION('',(0.E0,0.E0,1.E0));
#410=AXIS2_PLACEMENT_3D('',#407,#408,#409);
#412=CARTESIAN_POINT('',(0.E0,0.E0,6.E0));
#413=DIRECTION('',(0.E0,0.E0,1.E0));
#414=DIRECTION('',(-1.E0,0.E0,0.E0));
#415=AXIS2_PLACEMENT_3D('',#412,#413,#414);
#417=CARTESIAN_POINT('',(0.E0,0.E0,6.E0));
#418=DIRECTION('',(0.E0,0.E0,1.E0));
#419=DIRECTION('',(1.E0,0.E0,0.E0));
#420=AXIS2_PLACEMENT_3D('',#417,#418,#419);
#422=CARTESIAN_POINT('',(-7.25E0,0.E0,5.E0));
#423=DIRECTION('',(0.E0,-1.E0,0.E0));
#424=DIRECTION('',(0.E0,0.E0,1.E0));
#425=AXIS2_PLACEMENT_3D('',#422,#423,#424);
#427=CARTESIAN_POINT('',(0.E0,0.E0,5.E0));
#428=DIRECTION('',(0.E0,0.E0,1.E0));
#429=DIRECTION('',(-1.E0,0.E0,0.E0));
#430=AXIS2_PLACEMENT_3D('',#427,#428,#429);
#432=CARTESIAN_POINT('',(0.E0,0.E0,1.E0));
#433=DIRECTION('',(0.E0,0.E0,-1.E0));
#434=DIRECTION('',(1.E0,0.E0,0.E0));
#435=AXIS2_PLACEMENT_3D('',#432,#433,#434);
#437=DIRECTION('',(0.E0,9.062603098520E-13,1.E0));
#438=VECTOR('',#437,4.E0);
#439=CARTESIAN_POINT('',(-8.25E0,-2.731779717650E-12,1.E0));
#440=LINE('',#439,#438);
#441=CARTESIAN_POINT('',(-3.75E0,1.155E1,3.3E0));
#442=CARTESIAN_POINT('',(-3.75E0,1.155E1,1.7E0));
#443=VERTEX_POINT('',#441);
#444=VERTEX_POINT('',#442);
#445=CARTESIAN_POINT('',(3.75E0,1.155E1,4.3E0));
#446=CARTESIAN_POINT('',(3.75E0,1.155E1,2.7E0));
#447=VERTEX_POINT('',#445);
#448=VERTEX_POINT('',#446);
#449=CARTESIAN_POINT('',(-3.75E0,3.375E1,2.1E0));
#450=CARTESIAN_POINT('',(-3.75E0,3.375E1,2.9E0));
#451=VERTEX_POINT('',#449);
#452=VERTEX_POINT('',#450);
#453=CARTESIAN_POINT('',(3.75E0,3.375E1,3.1E0));
#454=CARTESIAN_POINT('',(3.75E0,3.375E1,3.9E0));
#455=VERTEX_POINT('',#453);
#456=VERTEX_POINT('',#454);
#457=CARTESIAN_POINT('',(-3.75E0,1.375E1,2.1E0));
#458=CARTESIAN_POINT('',(-3.75E0,1.375E1,2.9E0));
#459=VERTEX_POINT('',#457);
#460=VERTEX_POINT('',#458);
#461=CARTESIAN_POINT('',(3.75E0,1.375E1,3.1E0));
#462=CARTESIAN_POINT('',(3.75E0,1.375E1,3.9E0));
#463=VERTEX_POINT('',#461);
#464=VERTEX_POINT('',#462);
#465=CARTESIAN_POINT('',(3.749999994603E0,1.375E1,4.031701996557E0));
#466=CARTESIAN_POINT('',(3.750000005397E0,1.375E1,2.968298003443E0));
#467=VERTEX_POINT('',#465);
#468=VERTEX_POINT('',#466);
#469=CARTESIAN_POINT('',(3.749999999352E0,1.355681422326E1,4.231585878753E0));
#470=CARTESIAN_POINT('',(3.750000000648E0,1.355681422326E1,2.768414121247E0));
#471=VERTEX_POINT('',#469);
#472=VERTEX_POINT('',#470);
#473=CARTESIAN_POINT('',(-3.750000005397E0,1.375E1,3.031701996557E0));
#474=CARTESIAN_POINT('',(-3.749999994603E0,1.375E1,1.968298003443E0));
#475=VERTEX_POINT('',#473);
#476=VERTEX_POINT('',#474);
#477=CARTESIAN_POINT('',(-3.750000000648E0,1.355681422326E1,3.231585878753E0));
#478=CARTESIAN_POINT('',(-3.749999999352E0,1.355681422326E1,1.768414121247E0));
#479=VERTEX_POINT('',#477);
#480=VERTEX_POINT('',#478);
#481=VERTEX_POINT('',#21);
#482=VERTEX_POINT('',#42);
#483=VERTEX_POINT('',#169);
#484=VERTEX_POINT('',#190);
#485=VERTEX_POINT('',#67);
#486=VERTEX_POINT('',#88);
#487=VERTEX_POINT('',#375);
#488=VERTEX_POINT('',#396);
#489=CARTESIAN_POINT('',(-7.25E0,0.E0,6.E0));
#490=CARTESIAN_POINT('',(7.25E0,0.E0,6.E0));
#491=VERTEX_POINT('',#489);
#492=VERTEX_POINT('',#490);
#493=CARTESIAN_POINT('',(-8.25E0,0.E0,5.E0));
#494=CARTESIAN_POINT('',(8.25E0,0.E0,5.E0));
#495=VERTEX_POINT('',#493);
#496=VERTEX_POINT('',#494);
#497=CARTESIAN_POINT('',(7.25E0,0.E0,0.E0));
#498=CARTESIAN_POINT('',(-7.25E0,0.E0,0.E0));
#499=VERTEX_POINT('',#497);
#500=VERTEX_POINT('',#498);
#501=CARTESIAN_POINT('',(8.25E0,0.E0,1.E0));
#502=CARTESIAN_POINT('',(-8.25E0,0.E0,1.E0));
#503=VERTEX_POINT('',#501);
#504=VERTEX_POINT('',#502);
#505=CARTESIAN_POINT('',(0.E0,0.E0,0.E0));
#506=DIRECTION('',(0.E0,0.E0,1.E0));
#507=DIRECTION('',(1.E0,0.E0,0.E0));
#508=AXIS2_PLACEMENT_3D('',#505,#506,#507);
#509=PLANE('',#508);
#511=ORIENTED_EDGE('',*,*,#510,.F.);
#513=ORIENTED_EDGE('',*,*,#512,.F.);
#514=EDGE_LOOP('',(#511,#513));
#515=FACE_OUTER_BOUND('',#514,.F.);
#517=CARTESIAN_POINT('',(0.E0,0.E0,1.E0));
#518=DIRECTION('',(0.E0,0.E0,1.E0));
#519=DIRECTION('',(9.999873891740E-1,5.022100445494E-3,0.E0));
#520=AXIS2_PLACEMENT_3D('',#517,#518,#519);
#521=TOROIDAL_SURFACE('',#520,7.25E0,1.E0);
#522=ORIENTED_EDGE('',*,*,#510,.T.);
#524=ORIENTED_EDGE('',*,*,#523,.T.);
#526=ORIENTED_EDGE('',*,*,#525,.F.);
#528=ORIENTED_EDGE('',*,*,#527,.F.);
#529=EDGE_LOOP('',(#522,#524,#526,#528));
#530=FACE_OUTER_BOUND('',#529,.F.);
#532=CARTESIAN_POINT('',(0.E0,0.E0,1.E0));
#533=DIRECTION('',(0.E0,0.E0,1.E0));
#534=DIRECTION('',(-9.999873891740E-1,-5.022100445494E-3,0.E0));
#535=AXIS2_PLACEMENT_3D('',#532,#533,#534);
#536=TOROIDAL_SURFACE('',#535,7.25E0,1.E0);
#537=ORIENTED_EDGE('',*,*,#512,.T.);
#538=ORIENTED_EDGE('',*,*,#527,.T.);
#540=ORIENTED_EDGE('',*,*,#539,.F.);
#541=ORIENTED_EDGE('',*,*,#523,.F.);
#542=EDGE_LOOP('',(#537,#538,#540,#541));
#543=FACE_OUTER_BOUND('',#542,.F.);
#545=CARTESIAN_POINT('',(0.E0,0.E0,0.E0));
#546=DIRECTION('',(0.E0,0.E0,1.E0));
#547=DIRECTION('',(1.E0,0.E0,0.E0));
#548=AXIS2_PLACEMENT_3D('',#545,#546,#547);
#549=CYLINDRICAL_SURFACE('',#548,8.25E0);
#551=ORIENTED_EDGE('',*,*,#550,.T.);
#553=ORIENTED_EDGE('',*,*,#552,.F.);
#554=ORIENTED_EDGE('',*,*,#539,.T.);
#556=ORIENTED_EDGE('',*,*,#555,.T.);
#557=EDGE_LOOP('',(#551,#553,#554,#556));
#558=FACE_OUTER_BOUND('',#557,.F.);
#560=ORIENTED_EDGE('',*,*,#559,.T.);
#562=ORIENTED_EDGE('',*,*,#561,.T.);
#563=EDGE_LOOP('',(#560,#562));
#564=FACE_BOUND('',#563,.F.);
#566=ORIENTED_EDGE('',*,*,#565,.T.);
#568=ORIENTED_EDGE('',*,*,#567,.T.);
#569=EDGE_LOOP('',(#566,#568));
#570=FACE_BOUND('',#569,.F.);
#572=CARTESIAN_POINT('',(3.701275025340E0,7.396254267649E0,2.411911872529E0));
#573=CARTESIAN_POINT('',(3.643112952390E0,7.422929894247E0,2.414597187072E0));
#574=CARTESIAN_POINT('',(3.524934459617E0,7.475970378255E0,2.429618593865E0));
#575=CARTESIAN_POINT('',(3.352698258440E0,7.549810764718E0,2.481167185165E0));
#576=CARTESIAN_POINT('',(3.190191243345E0,7.616258524667E0,2.561249207057E0));
#577=CARTESIAN_POINT('',(3.044972144757E0,7.672963698132E0,2.665614876111E0));
#578=CARTESIAN_POINT('',(2.920479942595E0,7.719539778815E0,2.790156230737E0));
#579=CARTESIAN_POINT('',(2.818618906302E0,7.756233993393E0,2.931201775858E0));
#580=CARTESIAN_POINT('',(2.740711029354E0,7.783428108138E0,3.085661102069E0));
#581=CARTESIAN_POINT('',(2.688151408908E0,7.801342582725E0,3.250224686519E0));
#582=CARTESIAN_POINT('',(2.662139046783E0,7.810079188528E0,3.420950025976E0));
#583=CARTESIAN_POINT('',(2.663289615957E0,7.809694571297E0,3.593595106568E0));
#584=CARTESIAN_POINT('',(2.691575521608E0,7.800186149379E0,3.763961977494E0));
#585=CARTESIAN_POINT('',(2.746331340678E0,7.781491843462E0,3.927831020770E0));
#586=CARTESIAN_POINT('',(2.826323261699E0,7.753503561800E0,4.081286907745E0));
#587=CARTESIAN_POINT('',(2.930134684316E0,7.715995236477E0,4.221036209814E0));
#588=CARTESIAN_POINT('',(3.056420841607E0,7.668585340352E0,4.343988968751E0));
#589=CARTESIAN_POINT('',(3.203248095082E0,7.611036097388E0,4.446477634654E0));
#590=CARTESIAN_POINT('',(3.367146584510E0,7.543753354560E0,4.524411420905E0));
#591=CARTESIAN_POINT('',(3.535203250064E0,7.471412696358E0,4.572091690171E0));
#592=CARTESIAN_POINT('',(3.648347315709E0,7.420528266205E0,4.585642702895E0));
#593=CARTESIAN_POINT('',(3.701262139385E0,7.396259944423E0,4.588086804787E0));
#594=CARTESIAN_POINT('',(3.662331226226E0,7.327747795288E0,2.571215696280E0));
#595=CARTESIAN_POINT('',(3.613288420624E0,7.354199021031E0,2.576033426761E0));
#596=CARTESIAN_POINT('',(3.514417285901E0,7.406663652850E0,2.593840227253E0));
#597=CARTESIAN_POINT('',(3.372513228076E0,7.479375354702E0,2.644132638605E0));
#598=CARTESIAN_POINT('',(3.240550355861E0,7.544545634369E0,2.716945474151E0));
#599=CARTESIAN_POINT('',(3.124113067550E0,7.599978336362E0,2.808199595655E0));
#600=CARTESIAN_POINT('',(3.025325537184E0,7.645397466692E0,2.914364581255E0));
#601=CARTESIAN_POINT('',(2.945133548328E0,7.681120914169E0,3.032533997376E0));
#602=CARTESIAN_POINT('',(2.884141748822E0,7.707569442928E0,3.160429097984E0));
#603=CARTESIAN_POINT('',(2.843141976826E0,7.724984045594E0,3.295666896749E0));
#604=CARTESIAN_POINT('',(2.822890008367E0,7.733475161554E0,3.435387903005E0));
#605=CARTESIAN_POINT('',(2.823785271052E0,7.733101369318E0,3.576503580226E0));
#606=CARTESIAN_POINT('',(2.845809686394E0,7.723860036115E0,3.715963735609E0));
#607=CARTESIAN_POINT('',(2.888532642037E0,7.705686850636E0,3.850697580646E0));
#608=CARTESIAN_POINT('',(2.951180457167E0,7.678464244728E0,3.977865608520E0));
#609=CARTESIAN_POINT('',(3.032955077351E0,7.641944129971E0,4.095092613023E0));
#610=CARTESIAN_POINT('',(3.133244343220E0,7.595703792252E0,4.200090105948E0));
#611=CARTESIAN_POINT('',(3.251086548617E0,7.539432216938E0,4.289939102041E0));
#612=CARTESIAN_POINT('',(3.384333458873E0,7.473422483809E0,4.361103204630E0));
#613=CARTESIAN_POINT('',(3.522974650165E0,7.402161110532E0,4.408046250979E0));
#614=CARTESIAN_POINT('',(3.617702174111E0,7.351817574820E0,4.424398641121E0));
#615=CARTESIAN_POINT('',(3.662320388320E0,7.327753446593E0,4.428782614088E0));
#616=CARTESIAN_POINT('',(3.704199561741E0,7.420058765738E0,2.717206079686E0));
#617=CARTESIAN_POINT('',(3.662497373720E0,7.446812366717E0,2.719726989851E0));
#618=CARTESIAN_POINT('',(3.577944902892E0,7.500052946743E0,2.731696277695E0));
#619=CARTESIAN_POINT('',(3.455227585409E0,7.574285526378E0,2.770248665144E0));
#620=CARTESIAN_POINT('',(3.339891315356E0,7.641177182733E0,2.828900518361E0));
#621=CARTESIAN_POINT('',(3.237171636391E0,7.698324512153E0,2.904489136329E0));
#622=CARTESIAN_POINT('',(3.149353401490E0,7.745302607734E0,2.994053590403E0));
#623=CARTESIAN_POINT('',(3.077648059488E0,7.782334142608E0,3.095005594802E0));
#624=CARTESIAN_POINT('',(3.022884515833E0,7.809787332148E0,3.205205620232E0));
#625=CARTESIAN_POINT('',(2.985973372982E0,7.827875501274E0,3.322375812384E0));
#626=CARTESIAN_POINT('',(2.967714786760E0,7.836697409418E0,3.443797818116E0));
#627=CARTESIAN_POINT('',(2.968522273701E0,7.836309030739E0,3.566544017165E0));
#628=CARTESIAN_POINT('',(2.988377258724E0,7.826707801345E0,3.687718659860E0));
#629=CARTESIAN_POINT('',(3.026833065223E0,7.807832417494E0,3.804409918738E0));
#630=CARTESIAN_POINT('',(3.083067248655E0,7.779578080284E0,3.913918241458E0));
#631=CARTESIAN_POINT('',(3.156156567810E0,7.741726373442E0,4.013975962716E0));
#632=CARTESIAN_POINT('',(3.245258515438E0,7.693910081398E0,4.102441515818E0));
#633=CARTESIAN_POINT('',(3.349142647247E0,7.635916876921E0,4.176725740378E0));
#634=CARTESIAN_POINT('',(3.465502430401E0,7.568191791115E0,4.233875251040E0));
#635=CARTESIAN_POINT('',(3.585283978455E0,7.495476105049E0,4.269633631295E0));
#636=CARTESIAN_POINT('',(3.666250431384E0,7.444403725930E0,4.280498605179E0));
#637=CARTESIAN_POINT('',(3.704190328964E0,7.420064451363E0,4.282792837999E0));
#638=CARTESIAN_POINT('',(3.783709243501E0,7.578004570907E0,2.699351126252E0));
#639=CARTESIAN_POINT('',(3.740000051556E0,7.605275541595E0,2.697514250344E0));
#640=CARTESIAN_POINT('',(3.650013457238E0,7.659843783587E0,2.701042226955E0));
#641=CARTESIAN_POINT('',(3.515553869813E0,7.736678613688E0,2.729475982669E0));
#642=CARTESIAN_POINT('',(3.385782833662E0,7.806515577904E0,2.781676564033E0));
#643=CARTESIAN_POINT('',(3.267572222217E0,7.866596667075E0,2.855198553247E0));
#644=CARTESIAN_POINT('',(3.164677374817E0,7.916242181496E0,2.947055259188E0));
#645=CARTESIAN_POINT('',(3.079525627049E0,7.955511878488E0,3.054201585325E0));
#646=CARTESIAN_POINT('',(3.013880511334E0,7.984684061502E0,3.173821224942E0));
#647=CARTESIAN_POINT('',(2.969370958863E0,8.003924715502E0,3.302811648746E0));
#648=CARTESIAN_POINT('',(2.947283350473E0,8.013312615287E0,3.437508238012E0));
#649=CARTESIAN_POINT('',(2.948261098714E0,8.012899278930E0,3.573985805552E0));
#650=CARTESIAN_POINT('',(2.972275631023E0,8.002682260390E0,3.708350482373E0));
#651=CARTESIAN_POINT('',(3.018629895575E0,7.982605401930E0,3.836695627569E0));
#652=CARTESIAN_POINT('',(3.085994070396E0,7.952585753073E0,3.955381467696E0));
#653=CARTESIAN_POINT('',(3.172705075933E0,7.912455667150E0,4.061326310541E0));
#654=CARTESIAN_POINT('',(3.276964615230E0,7.861942887639E0,4.151729470426E0));
#655=CARTESIAN_POINT('',(3.396309933511E0,7.801003943311E0,4.223572786891E0));
#656=CARTESIAN_POINT('',(3.526959498601E0,7.730343856839E0,4.273913359461E0));
#657=CARTESIAN_POINT('',(3.657883569176E0,7.655139814263E0,4.299572232523E0));
#658=CARTESIAN_POINT('',(3.743933576355E0,7.602820370377E0,4.302319116937E0));
#659=CARTESIAN_POINT('',(3.783699517871E0,7.578010315252E0,4.300648746804E0));
#660=(BOUNDED_SURFACE()B_SPLINE_SURFACE(3,3,((#572,#573,#574,#575,#576,#577,
#578,#579,#580,#581,#582,#583,#584,#585,#586,#587,#588,#589,#590,#591,#592,
#593),(#594,#595,#596,#597,#598,#599,#600,#601,#602,#603,#604,#605,#606,#607,
#608,#609,#610,#611,#612,#613,#614,#615),(#616,#617,#618,#619,#620,#621,#622,
#623,#624,#625,#626,#627,#628,#629,#630,#631,#632,#633,#634,#635,#636,#637),(
#638,#639,#640,#641,#642,#643,#644,#645,#646,#647,#648,#649,#650,#651,#652,#653,
#654,#655,#656,#657,#658,#659)),.UNSPECIFIED.,.F.,.F.,.F.)B_SPLINE_SURFACE_WITH_KNOTS((4,4),(4,1,1,1,1,1,1,1,1,1,1,1,1,1,1,1,1,1,1,4),(0.E0,1.E0),(
2.343977074722E-3,5.658379431322E-2,1.127915844979E-1,1.680397182512E-1,
2.218502478329E-1,2.740187506482E-1,3.249234626748E-1,3.751808198867E-1,
4.250937719419E-1,4.747557207633E-1,5.243373084494E-1,5.740111725731E-1,
6.239517748641E-1,6.742604224426E-1,7.252410087733E-1,7.775085924475E-1,
8.314412651463E-1,8.868369364093E-1,9.432184369199E-1,9.925542413281E-1),
.UNSPECIFIED.)GEOMETRIC_REPRESENTATION_ITEM()RATIONAL_B_SPLINE_SURFACE(((
1.347304114902E0,1.347304114902E0,1.347304114902E0,1.347304114902E0,
1.347304114902E0,1.347304114902E0,1.347304114902E0,1.347304114902E0,
1.347304114902E0,1.347304114902E0,1.347304114902E0,1.347304114902E0,
1.347304114902E0,1.347304114902E0,1.347304114902E0,1.347304114902E0,
1.347304114902E0,1.347304114902E0,1.347304114902E0,1.347304114902E0,
1.347304114902E0,1.347304114902E0),(8.842319616994E-1,8.842319616994E-1,
8.842319616994E-1,8.842319616994E-1,8.842319616994E-1,8.842319616994E-1,
8.842319616994E-1,8.842319616994E-1,8.842319616994E-1,8.842319616994E-1,
8.842319616994E-1,8.842319616994E-1,8.842319616994E-1,8.842319616994E-1,
8.842319616994E-1,8.842319616994E-1,8.842319616994E-1,8.842319616994E-1,
8.842319616994E-1,8.842319616994E-1,8.842319616994E-1,8.842319616994E-1),(
8.842319616994E-1,8.842319616994E-1,8.842319616994E-1,8.842319616994E-1,
8.842319616994E-1,8.842319616994E-1,8.842319616994E-1,8.842319616994E-1,
8.842319616994E-1,8.842319616994E-1,8.842319616994E-1,8.842319616994E-1,
8.842319616994E-1,8.842319616994E-1,8.842319616994E-1,8.842319616994E-1,
8.842319616994E-1,8.842319616994E-1,8.842319616994E-1,8.842319616994E-1,
8.842319616994E-1,8.842319616994E-1),(1.347304114902E0,1.347304114902E0,
1.347304114902E0,1.347304114902E0,1.347304114902E0,1.347304114902E0,
1.347304114902E0,1.347304114902E0,1.347304114902E0,1.347304114902E0,
1.347304114902E0,1.347304114902E0,1.347304114902E0,1.347304114902E0,
1.347304114902E0,1.347304114902E0,1.347304114902E0,1.347304114902E0,
1.347304114902E0,1.347304114902E0,1.347304114902E0,1.347304114902E0)))REPRESENTATION_ITEM('')SURFACE());
#661=ORIENTED_EDGE('',*,*,#565,.F.);
#663=ORIENTED_EDGE('',*,*,#662,.T.);
#665=ORIENTED_EDGE('',*,*,#664,.T.);
#667=ORIENTED_EDGE('',*,*,#666,.F.);
#668=EDGE_LOOP('',(#661,#663,#665,#667));
#669=FACE_OUTER_BOUND('',#668,.F.);
#671=CARTESIAN_POINT('',(3.631953190885E0,7.408651211683E0,4.519636682668E0));
#672=CARTESIAN_POINT('',(3.689948435423E0,7.380789348922E0,4.526476958403E0));
#673=CARTESIAN_POINT('',(3.810265350227E0,7.321739554483E0,4.530301216577E0));
#674=CARTESIAN_POINT('',(3.991378463457E0,7.229057760106E0,4.503916242101E0));
#675=CARTESIAN_POINT('',(4.169192146705E0,7.134474243462E0,4.443551691075E0));
#676=CARTESIAN_POINT('',(4.333751339494E0,7.043946729677E0,4.351079925497E0));
#677=CARTESIAN_POINT('',(4.478070075525E0,6.962327903496E0,4.230316885209E0));
#678=CARTESIAN_POINT('',(4.596771033857E0,6.893742139001E0,4.086796435332E0));
#679=CARTESIAN_POINT('',(4.686535114E0,6.841059614165E0,3.926684399354E0));
#680=CARTESIAN_POINT('',(4.745816860707E0,6.805902461963E0,3.756174366216E0));
#681=CARTESIAN_POINT('',(4.774545140710E0,6.788764985039E0,3.580626082728E0));
#682=CARTESIAN_POINT('',(4.773223322839E0,6.789554901300E0,3.403775477075E0));
#683=CARTESIAN_POINT('',(4.741822893840E0,6.808279899151E0,3.228522128973E0));
#684=CARTESIAN_POINT('',(4.679847405023E0,6.845007856228E0,3.058725018790E0));
#685=CARTESIAN_POINT('',(4.587466275116E0,6.899163719295E0,2.899838483835E0));
#686=CARTESIAN_POINT('',(4.466361276648E0,6.969023790106E0,2.758081488050E0));
#687=CARTESIAN_POINT('',(4.320009419453E0,7.051612393008E0,2.639589297731E0));
#688=CARTESIAN_POINT('',(4.153981025371E0,7.142699613744E0,2.549813793497E0));
#689=CARTESIAN_POINT('',(3.975405012507E0,7.237383334560E0,2.492394391790E0));
#690=CARTESIAN_POINT('',(3.799445502030E0,7.327104913275E0,2.469604105836E0));
#691=CARTESIAN_POINT('',(3.684673569688E0,7.383322454641E0,2.474147640081E0));
#692=CARTESIAN_POINT('',(3.631971030359E0,7.408642367658E0,2.480361929861E0));
#693=CARTESIAN_POINT('',(3.629135413373E0,7.394422102826E0,4.380876498464E0));
#694=CARTESIAN_POINT('',(3.678915831796E0,7.366618654510E0,4.387877897506E0));
#695=CARTESIAN_POINT('',(3.782554930070E0,7.307663349323E0,4.393531899046E0));
#696=CARTESIAN_POINT('',(3.939744029432E0,7.215023473327E0,4.374250538275E0));
#697=CARTESIAN_POINT('',(4.095294858675E0,7.120359812816E0,4.325189497977E0));
#698=CARTESIAN_POINT('',(4.240409776273E0,7.029624860504E0,4.247445671844E0));
#699=CARTESIAN_POINT('',(4.368688693875E0,6.947689813608E0,4.143925793089E0));
#700=CARTESIAN_POINT('',(4.474992865978E0,6.878724146450E0,4.019196183410E0));
#701=CARTESIAN_POINT('',(4.555918869337E0,6.825664594959E0,3.878600333469E0));
#702=CARTESIAN_POINT('',(4.609644140046E0,6.790207711001E0,3.727754084700E0));
#703=CARTESIAN_POINT('',(4.635765602400E0,6.772908615771E0,3.571752047170E0));
#704=CARTESIAN_POINT('',(4.634562456312E0,6.773706216451E0,3.414370263794E0));
#705=CARTESIAN_POINT('',(4.606017125998E0,6.792606738706E0,3.258672925977E0));
#706=CARTESIAN_POINT('',(4.549872483745E0,6.829643966290E0,3.108538427043E0));
#707=CARTESIAN_POINT('',(4.466631753510E0,6.884180063182E0,2.969129138177E0));
#708=CARTESIAN_POINT('',(4.358243227983E0,6.954416844479E0,2.846062001116E0));
#709=CARTESIAN_POINT('',(4.228246239328E0,7.037313569868E0,2.744632875960E0));
#710=CARTESIAN_POINT('',(4.081938872775E0,7.128597410730E0,2.669319093873E0));
#711=CARTESIAN_POINT('',(3.925830821880E0,7.223350003731E0,2.622862628241E0));
#712=CARTESIAN_POINT('',(3.773219034370E0,7.313021352198E0,2.606601356240E0));
#713=CARTESIAN_POINT('',(3.674388195297E0,7.369146451427E0,2.612761017508E0));
#714=CARTESIAN_POINT('',(3.629150734942E0,7.394413279717E0,2.619121968267E0));
#715=CARTESIAN_POINT('',(3.675486692633E0,7.483007922625E0,4.283568173508E0));
#716=CARTESIAN_POINT('',(3.720331382499E0,7.454840804909E0,4.287887729215E0));
#717=CARTESIAN_POINT('',(3.813053247928E0,7.395297240264E0,4.288809903623E0));
#718=CARTESIAN_POINT('',(3.951614009686E0,7.302396394012E0,4.265519190764E0));
#719=CARTESIAN_POINT('',(4.086599091536E0,7.208231683241E0,4.216480027556E0));
#720=CARTESIAN_POINT('',(4.210527590803E0,7.118788175962E0,4.143578062086E0));
#721=CARTESIAN_POINT('',(4.318344004899E0,7.038821816748E0,4.050080334844E0));
#722=CARTESIAN_POINT('',(4.406339206733E0,6.972221300438E0,3.940423518807E0));
#723=CARTESIAN_POINT('',(4.472422492019E0,6.921508994692E0,3.819331530013E0));
#724=CARTESIAN_POINT('',(4.515824472208E0,6.887918143502E0,3.691336501142E0));
#725=CARTESIAN_POINT('',(4.536783628769E0,6.871625231458E0,3.560158898397E0));
#726=CARTESIAN_POINT('',(4.535820366594E0,6.872374991443E0,3.428199007950E0));
#727=CARTESIAN_POINT('',(4.512906718146E0,6.890182755648E0,3.297205236174E0));
#728=CARTESIAN_POINT('',(4.467513786443E0,6.925294565292E0,3.169675826634E0));
#729=CARTESIAN_POINT('',(4.399465544302E0,6.977463449634E0,3.049415912501E0));
#730=CARTESIAN_POINT('',(4.309629304362E0,7.045354953548E0,2.940994993436E0));
#731=CARTESIAN_POINT('',(4.200217559125E0,7.126333408201E0,2.849131721945E0));
#732=CARTESIAN_POINT('',(4.075094099156E0,7.216393155887E0,2.778215353474E0));
#733=CARTESIAN_POINT('',(3.939436203545E0,7.310716972984E0,2.731387793723E0));
#734=CARTESIAN_POINT('',(3.804728564401E0,7.400701038698E0,2.710932806177E0));
#735=CARTESIAN_POINT('',(3.716252550843E0,7.457401652705E0,2.712507037323E0));
#736=CARTESIAN_POINT('',(3.675500479247E0,7.482998969299E0,2.716431047383E0));
#737=CARTESIAN_POINT('',(3.735986004901E0,7.607477053445E0,4.301233673430E0));
#738=CARTESIAN_POINT('',(3.782903286994E0,7.578798955368E0,4.302054704103E0));
#739=CARTESIAN_POINT('',(3.878717092663E0,7.518428845984E0,4.295258644999E0));
#740=CARTESIAN_POINT('',(4.018019960043E0,7.425161318687E0,4.259874907452E0));
#741=CARTESIAN_POINT('',(4.149674991193E0,7.331697666398E0,4.199559458312E0));
#742=CARTESIAN_POINT('',(4.266682471212E0,7.244068727648E0,4.117954974022E0));
#743=CARTESIAN_POINT('',(4.365074280188E0,7.166868509168E0,4.019686083650E0));
#744=CARTESIAN_POINT('',(4.442681794514E0,7.103591191437E0,3.909995663119E0));
#745=CARTESIAN_POINT('',(4.499132236858E0,7.056176926375E0,3.793658935864E0));
#746=CARTESIAN_POINT('',(4.535243944251E0,7.025207978750E0,3.674437168069E0));
#747=CARTESIAN_POINT('',(4.552385722066E0,7.010328822843E0,3.554605918679E0));
#748=CARTESIAN_POINT('',(4.551602310017E0,7.011011363384E0,3.434813308E0));
#749=CARTESIAN_POINT('',(4.532841871142E0,7.027283727849E0,3.315005710965E0));
#750=CARTESIAN_POINT('',(4.494997986069E0,7.059690193704E0,3.195944440188E0));
#751=CARTESIAN_POINT('',(4.436715532909E0,7.108532982636E0,3.080037589331E0));
#752=CARTESIAN_POINT('',(4.357250085859E0,7.173129211548E0,2.971153198082E0));
#753=CARTESIAN_POINT('',(4.257100638484E0,7.251412364723E0,2.874131023069E0));
#754=CARTESIAN_POINT('',(4.138618319696E0,7.339752177842E0,2.794225263968E0));
#755=CARTESIAN_POINT('',(4.005941519008E0,7.433473535490E0,2.735972962586E0));
#756=CARTESIAN_POINT('',(3.870166852763E0,7.523896990307E0,2.703770120251E0));
#757=CARTESIAN_POINT('',(3.778635738241E0,7.581406241908E0,2.698021916992E0));
#758=CARTESIAN_POINT('',(3.736000399256E0,7.607467917155E0,2.698766631768E0));
#759=(BOUNDED_SURFACE()B_SPLINE_SURFACE(3,3,((#671,#672,#673,#674,#675,#676,
#677,#678,#679,#680,#681,#682,#683,#684,#685,#686,#687,#688,#689,#690,#691,
#692),(#693,#694,#695,#696,#697,#698,#699,#700,#701,#702,#703,#704,#705,#706,
#707,#708,#709,#710,#711,#712,#713,#714),(#715,#716,#717,#718,#719,#720,#721,
#722,#723,#724,#725,#726,#727,#728,#729,#730,#731,#732,#733,#734,#735,#736),(
#737,#738,#739,#740,#741,#742,#743,#744,#745,#746,#747,#748,#749,#750,#751,#752,
#753,#754,#755,#756,#757,#758)),.UNSPECIFIED.,.F.,.F.,.F.)B_SPLINE_SURFACE_WITH_KNOTS((4,4),(4,1,1,1,1,1,1,1,1,1,1,1,1,1,1,1,1,1,1,4),(0.E0,1.E0),(
2.077282291890E-3,5.806942640310E-2,1.169972995524E-1,1.757945029067E-1,
2.333658500369E-1,2.883848934323E-1,3.401963361501E-1,3.887721242646E-1,
4.344413914099E-1,4.780218188986E-1,5.208798126604E-1,5.645925183225E-1,
6.104796299526E-1,6.593239997436E-1,7.114277464205E-1,7.667048340163E-1,
8.244540956652E-1,8.832990098627E-1,9.421459639944E-1,9.930180499816E-1),
.UNSPECIFIED.)GEOMETRIC_REPRESENTATION_ITEM()RATIONAL_B_SPLINE_SURFACE(((
1.232877181362E0,1.232877181362E0,1.232877181362E0,1.232877181362E0,
1.232877181362E0,1.232877181362E0,1.232877181362E0,1.232877181362E0,
1.232877181362E0,1.232877181362E0,1.232877181362E0,1.232877181362E0,
1.232877181362E0,1.232877181362E0,1.232877181362E0,1.232877181362E0,
1.232877181362E0,1.232877181362E0,1.232877181362E0,1.232877181362E0,
1.232877181362E0,1.232877181362E0),(9.223742728794E-1,9.223742728794E-1,
9.223742728794E-1,9.223742728794E-1,9.223742728794E-1,9.223742728794E-1,
9.223742728794E-1,9.223742728794E-1,9.223742728794E-1,9.223742728794E-1,
9.223742728794E-1,9.223742728794E-1,9.223742728794E-1,9.223742728794E-1,
9.223742728794E-1,9.223742728794E-1,9.223742728794E-1,9.223742728794E-1,
9.223742728794E-1,9.223742728794E-1,9.223742728794E-1,9.223742728794E-1),(
9.223742728794E-1,9.223742728794E-1,9.223742728794E-1,9.223742728794E-1,
9.223742728794E-1,9.223742728794E-1,9.223742728794E-1,9.223742728794E-1,
9.223742728794E-1,9.223742728794E-1,9.223742728794E-1,9.223742728794E-1,
9.223742728794E-1,9.223742728794E-1,9.223742728794E-1,9.223742728794E-1,
9.223742728794E-1,9.223742728794E-1,9.223742728794E-1,9.223742728794E-1,
9.223742728794E-1,9.223742728794E-1),(1.232877181362E0,1.232877181362E0,
1.232877181362E0,1.232877181362E0,1.232877181362E0,1.232877181362E0,
1.232877181362E0,1.232877181362E0,1.232877181362E0,1.232877181362E0,
1.232877181362E0,1.232877181362E0,1.232877181362E0,1.232877181362E0,
1.232877181362E0,1.232877181362E0,1.232877181362E0,1.232877181362E0,
1.232877181362E0,1.232877181362E0,1.232877181362E0,1.232877181362E0)))REPRESENTATION_ITEM('')SURFACE());
#760=ORIENTED_EDGE('',*,*,#567,.F.);
#761=ORIENTED_EDGE('',*,*,#666,.T.);
#763=ORIENTED_EDGE('',*,*,#762,.T.);
#764=ORIENTED_EDGE('',*,*,#662,.F.);
#765=EDGE_LOOP('',(#760,#761,#763,#764));
#766=FACE_OUTER_BOUND('',#765,.F.);
#768=CARTESIAN_POINT('',(3.75E0,0.E0,3.5E0));
#769=DIRECTION('',(0.E0,1.E0,0.E0));
#770=DIRECTION('',(0.E0,0.E0,-1.E0));
#771=AXIS2_PLACEMENT_3D('',#768,#769,#770);
#772=CYLINDRICAL_SURFACE('',#771,8.E-1);
#773=ORIENTED_EDGE('',*,*,#762,.F.);
#775=ORIENTED_EDGE('',*,*,#774,.T.);
#777=ORIENTED_EDGE('',*,*,#776,.T.);
#779=ORIENTED_EDGE('',*,*,#778,.F.);
#780=EDGE_LOOP('',(#773,#775,#777,#779));
#781=FACE_OUTER_BOUND('',#780,.F.);
#783=CARTESIAN_POINT('',(3.75E0,0.E0,3.5E0));
#784=DIRECTION('',(0.E0,1.E0,0.E0));
#785=DIRECTION('',(0.E0,0.E0,-1.E0));
#786=AXIS2_PLACEMENT_3D('',#783,#784,#785);
#787=CYLINDRICAL_SURFACE('',#786,8.E-1);
#788=ORIENTED_EDGE('',*,*,#664,.F.);
#789=ORIENTED_EDGE('',*,*,#778,.T.);
#791=ORIENTED_EDGE('',*,*,#790,.T.);
#792=ORIENTED_EDGE('',*,*,#774,.F.);
#793=EDGE_LOOP('',(#788,#789,#791,#792));
#794=FACE_OUTER_BOUND('',#793,.F.);
#796=CARTESIAN_POINT('',(3.75E0,1.255340711163E1,3.5E0));
#797=DIRECTION('',(0.E0,-1.E0,0.E0));
#798=DIRECTION('',(0.E0,0.E0,-1.E0));
#799=AXIS2_PLACEMENT_3D('',#796,#797,#798);
#800=CONICAL_SURFACE('',#799,7.657929393763E-1,1.952509049400E0);
#802=ORIENTED_EDGE('',*,*,#801,.T.);
#804=ORIENTED_EDGE('',*,*,#803,.T.);
#805=ORIENTED_EDGE('',*,*,#790,.F.);
#807=ORIENTED_EDGE('',*,*,#806,.F.);
#808=EDGE_LOOP('',(#802,#804,#805,#807));
#809=FACE_OUTER_BOUND('',#808,.F.);
#811=CARTESIAN_POINT('',(3.75E0,1.355E1,3.5E0));
#812=DIRECTION('',(0.E0,-1.E0,0.E0));
#813=DIRECTION('',(5.431098326232E-2,0.E0,-9.985240693629E-1));
#814=AXIS2_PLACEMENT_3D('',#811,#812,#813);
#815=TOROIDAL_SURFACE('',#814,5.317019965574E-1,2.E-1);
#817=ORIENTED_EDGE('',*,*,#816,.T.);
#819=ORIENTED_EDGE('',*,*,#818,.T.);
#820=ORIENTED_EDGE('',*,*,#801,.F.);
#822=ORIENTED_EDGE('',*,*,#821,.F.);
#823=EDGE_LOOP('',(#817,#819,#820,#822));
#824=FACE_OUTER_BOUND('',#823,.F.);
#826=CARTESIAN_POINT('',(0.E0,1.375E1,0.E0));
#827=DIRECTION('',(0.E0,1.E0,0.E0));
#828=DIRECTION('',(0.E0,0.E0,-1.E0));
#829=AXIS2_PLACEMENT_3D('',#826,#827,#828);
#830=PLANE('',#829);
#832=ORIENTED_EDGE('',*,*,#831,.F.);
#833=ORIENTED_EDGE('',*,*,#816,.F.);
#834=EDGE_LOOP('',(#832,#833));
#835=FACE_OUTER_BOUND('',#834,.F.);
#837=ORIENTED_EDGE('',*,*,#836,.T.);
#839=ORIENTED_EDGE('',*,*,#838,.T.);
#840=EDGE_LOOP('',(#837,#839));
#841=FACE_BOUND('',#840,.F.);
#843=CARTESIAN_POINT('',(0.E0,1.375E1,0.E0));
#844=DIRECTION('',(0.E0,1.E0,0.E0));
#845=DIRECTION('',(0.E0,0.E0,-1.E0));
#846=AXIS2_PLACEMENT_3D('',#843,#844,#845);
#847=PLANE('',#846);
#849=ORIENTED_EDGE('',*,*,#848,.F.);
#851=ORIENTED_EDGE('',*,*,#850,.F.);
#852=EDGE_LOOP('',(#849,#851));
#853=FACE_OUTER_BOUND('',#852,.F.);
#855=ORIENTED_EDGE('',*,*,#854,.T.);
#857=ORIENTED_EDGE('',*,*,#856,.T.);
#858=EDGE_LOOP('',(#855,#857));
#859=FACE_BOUND('',#858,.F.);
#861=CARTESIAN_POINT('',(-3.75E0,1.375E1,2.5E0));
#862=DIRECTION('',(0.E0,1.E0,0.E0));
#863=DIRECTION('',(0.E0,0.E0,-1.E0));
#864=AXIS2_PLACEMENT_3D('',#861,#862,#863);
#865=CYLINDRICAL_SURFACE('',#864,4.E-1);
#866=ORIENTED_EDGE('',*,*,#854,.F.);
#868=ORIENTED_EDGE('',*,*,#867,.T.);
#870=ORIENTED_EDGE('',*,*,#869,.T.);
#872=ORIENTED_EDGE('',*,*,#871,.F.);
#873=EDGE_LOOP('',(#866,#868,#870,#872));
#874=FACE_OUTER_BOUND('',#873,.F.);
#876=CARTESIAN_POINT('',(-3.75E0,1.375E1,2.5E0));
#877=DIRECTION('',(0.E0,1.E0,0.E0));
#878=DIRECTION('',(0.E0,0.E0,-1.E0));
#879=AXIS2_PLACEMENT_3D('',#876,#877,#878);
#880=CYLINDRICAL_SURFACE('',#879,4.E-1);
#881=ORIENTED_EDGE('',*,*,#856,.F.);
#882=ORIENTED_EDGE('',*,*,#871,.T.);
#884=ORIENTED_EDGE('',*,*,#883,.T.);
#885=ORIENTED_EDGE('',*,*,#867,.F.);
#886=EDGE_LOOP('',(#881,#882,#884,#885));
#887=FACE_OUTER_BOUND('',#886,.F.);
#889=CARTESIAN_POINT('',(0.E0,3.375E1,0.E0));
#890=DIRECTION('',(0.E0,1.E0,0.E0));
#891=DIRECTION('',(0.E0,0.E0,-1.E0));
#892=AXIS2_PLACEMENT_3D('',#889,#890,#891);
#893=PLANE('',#892);
#894=ORIENTED_EDGE('',*,*,#869,.F.);
#895=ORIENTED_EDGE('',*,*,#883,.F.);
#896=EDGE_LOOP('',(#894,#895));
#897=FACE_OUTER_BOUND('',#896,.F.);
#899=CARTESIAN_POINT('',(0.E0,3.375E1,0.E0));
#900=DIRECTION('',(0.E0,1.E0,0.E0));
#901=DIRECTION('',(0.E0,0.E0,-1.E0));
#902=AXIS2_PLACEMENT_3D('',#899,#900,#901);
#903=PLANE('',#902);
#905=ORIENTED_EDGE('',*,*,#904,.F.);
#907=ORIENTED_EDGE('',*,*,#906,.F.);
#908=EDGE_LOOP('',(#905,#907));
#909=FACE_OUTER_BOUND('',#908,.F.);
#911=CARTESIAN_POINT('',(3.75E0,1.375E1,3.5E0));
#912=DIRECTION('',(0.E0,1.E0,0.E0));
#913=DIRECTION('',(0.E0,0.E0,-1.E0));
#914=AXIS2_PLACEMENT_3D('',#911,#912,#913);
#915=CYLINDRICAL_SURFACE('',#914,4.E-1);
#916=ORIENTED_EDGE('',*,*,#836,.F.);
#918=ORIENTED_EDGE('',*,*,#917,.T.);
#919=ORIENTED_EDGE('',*,*,#904,.T.);
#921=ORIENTED_EDGE('',*,*,#920,.F.);
#922=EDGE_LOOP('',(#916,#918,#919,#921));
#923=FACE_OUTER_BOUND('',#922,.F.);
#925=CARTESIAN_POINT('',(3.75E0,1.375E1,3.5E0));
#926=DIRECTION('',(0.E0,1.E0,0.E0));
#927=DIRECTION('',(0.E0,0.E0,-1.E0));
#928=AXIS2_PLACEMENT_3D('',#925,#926,#927);
#929=CYLINDRICAL_SURFACE('',#928,4.E-1);
#930=ORIENTED_EDGE('',*,*,#838,.F.);
#931=ORIENTED_EDGE('',*,*,#920,.T.);
#932=ORIENTED_EDGE('',*,*,#906,.T.);
#933=ORIENTED_EDGE('',*,*,#917,.F.);
#934=EDGE_LOOP('',(#930,#931,#932,#933));
#935=FACE_OUTER_BOUND('',#934,.F.);
#937=CARTESIAN_POINT('',(3.75E0,1.355E1,3.5E0));
#938=DIRECTION('',(0.E0,-1.E0,0.E0));
#939=DIRECTION('',(-5.431098326232E-2,0.E0,9.985240693629E-1));
#940=AXIS2_PLACEMENT_3D('',#937,#938,#939);
#941=TOROIDAL_SURFACE('',#940,5.317019965574E-1,2.E-1);
#942=ORIENTED_EDGE('',*,*,#831,.T.);
#943=ORIENTED_EDGE('',*,*,#821,.T.);
#945=ORIENTED_EDGE('',*,*,#944,.F.);
#946=ORIENTED_EDGE('',*,*,#818,.F.);
#947=EDGE_LOOP('',(#942,#943,#945,#946));
#948=FACE_OUTER_BOUND('',#947,.F.);
#950=CARTESIAN_POINT('',(3.75E0,1.255340711163E1,3.5E0));
#951=DIRECTION('',(0.E0,-1.E0,0.E0));
#952=DIRECTION('',(0.E0,0.E0,-1.E0));
#953=AXIS2_PLACEMENT_3D('',#950,#951,#952);
#954=CONICAL_SURFACE('',#953,7.657929393763E-1,1.952509049400E0);
#955=ORIENTED_EDGE('',*,*,#944,.T.);
#956=ORIENTED_EDGE('',*,*,#806,.T.);
#957=ORIENTED_EDGE('',*,*,#776,.F.);
#958=ORIENTED_EDGE('',*,*,#803,.F.);
#959=EDGE_LOOP('',(#955,#956,#957,#958));
#960=FACE_OUTER_BOUND('',#959,.F.);
#962=CARTESIAN_POINT('',(-3.75E0,1.355E1,2.5E0));
#963=DIRECTION('',(0.E0,-1.E0,0.E0));
#964=DIRECTION('',(-5.431098326232E-2,0.E0,9.985240693629E-1));
#965=AXIS2_PLACEMENT_3D('',#962,#963,#964);
#966=TOROIDAL_SURFACE('',#965,5.317019965574E-1,2.E-1);
#967=ORIENTED_EDGE('',*,*,#848,.T.);
#969=ORIENTED_EDGE('',*,*,#968,.T.);
#971=ORIENTED_EDGE('',*,*,#970,.F.);
#973=ORIENTED_EDGE('',*,*,#972,.F.);
#974=EDGE_LOOP('',(#967,#969,#971,#973));
#975=FACE_OUTER_BOUND('',#974,.F.);
#977=CARTESIAN_POINT('',(-3.75E0,1.355E1,2.5E0));
#978=DIRECTION('',(0.E0,-1.E0,0.E0));
#979=DIRECTION('',(5.431098326232E-2,0.E0,-9.985240693629E-1));
#980=AXIS2_PLACEMENT_3D('',#977,#978,#979);
#981=TOROIDAL_SURFACE('',#980,5.317019965574E-1,2.E-1);
#982=ORIENTED_EDGE('',*,*,#850,.T.);
#983=ORIENTED_EDGE('',*,*,#972,.T.);
#985=ORIENTED_EDGE('',*,*,#984,.F.);
#986=ORIENTED_EDGE('',*,*,#968,.F.);
#987=EDGE_LOOP('',(#982,#983,#985,#986));
#988=FACE_OUTER_BOUND('',#987,.F.);
#990=CARTESIAN_POINT('',(-3.75E0,1.255340711163E1,2.5E0));
#991=DIRECTION('',(0.E0,-1.E0,0.E0));
#992=DIRECTION('',(0.E0,0.E0,-1.E0));
#993=AXIS2_PLACEMENT_3D('',#990,#991,#992);
#994=CONICAL_SURFACE('',#993,7.657929393763E-1,1.952509049400E0);
#995=ORIENTED_EDGE('',*,*,#984,.T.);
#997=ORIENTED_EDGE('',*,*,#996,.T.);
#999=ORIENTED_EDGE('',*,*,#998,.F.);
#1001=ORIENTED_EDGE('',*,*,#1000,.F.);
#1002=EDGE_LOOP('',(#995,#997,#999,#1001));
#1003=FACE_OUTER_BOUND('',#1002,.F.);
#1005=CARTESIAN_POINT('',(-3.75E0,1.255340711163E1,2.5E0));
#1006=DIRECTION('',(0.E0,-1.E0,0.E0));
#1007=DIRECTION('',(0.E0,0.E0,-1.E0));
#1008=AXIS2_PLACEMENT_3D('',#1005,#1006,#1007);
#1009=CONICAL_SURFACE('',#1008,7.657929393763E-1,1.952509049400E0);
#1010=ORIENTED_EDGE('',*,*,#970,.T.);
#1011=ORIENTED_EDGE('',*,*,#1000,.T.);
#1013=ORIENTED_EDGE('',*,*,#1012,.F.);
#1014=ORIENTED_EDGE('',*,*,#996,.F.);
#1015=EDGE_LOOP('',(#1010,#1011,#1013,#1014));
#1016=FACE_OUTER_BOUND('',#1015,.F.);
#1018=CARTESIAN_POINT('',(-3.75E0,0.E0,2.5E0));
#1019=DIRECTION('',(0.E0,1.E0,0.E0));
#1020=DIRECTION('',(0.E0,0.E0,-1.E0));
#1021=AXIS2_PLACEMENT_3D('',#1018,#1019,#1020);
#1022=CYLINDRICAL_SURFACE('',#1021,8.E-1);
#1024=ORIENTED_EDGE('',*,*,#1023,.F.);
#1026=ORIENTED_EDGE('',*,*,#1025,.T.);
#1027=ORIENTED_EDGE('',*,*,#1012,.T.);
#1029=ORIENTED_EDGE('',*,*,#1028,.F.);
#1030=EDGE_LOOP('',(#1024,#1026,#1027,#1029));
#1031=FACE_OUTER_BOUND('',#1030,.F.);
#1033=CARTESIAN_POINT('',(-3.701275025340E0,7.396254267649E0,3.588088127471E0));
#1034=CARTESIAN_POINT('',(-3.643112952390E0,7.422929894247E0,3.585402812928E0));
#1035=CARTESIAN_POINT('',(-3.524934459617E0,7.475970378255E0,3.570381406135E0));
#1036=CARTESIAN_POINT('',(-3.352698258440E0,7.549810764718E0,3.518832814835E0));
#1037=CARTESIAN_POINT('',(-3.190191243345E0,7.616258524667E0,3.438750792943E0));
#1038=CARTESIAN_POINT('',(-3.044972144757E0,7.672963698132E0,3.334385123889E0));
#1039=CARTESIAN_POINT('',(-2.920479942595E0,7.719539778815E0,3.209843769263E0));
#1040=CARTESIAN_POINT('',(-2.818618906302E0,7.756233993393E0,3.068798224142E0));
#1041=CARTESIAN_POINT('',(-2.740711029354E0,7.783428108138E0,2.914338897931E0));
#1042=CARTESIAN_POINT('',(-2.688151408908E0,7.801342582725E0,2.749775313481E0));
#1043=CARTESIAN_POINT('',(-2.662139046783E0,7.810079188528E0,2.579049974024E0));
#1044=CARTESIAN_POINT('',(-2.663289615957E0,7.809694571297E0,2.406404893432E0));
#1045=CARTESIAN_POINT('',(-2.691575521608E0,7.800186149379E0,2.236038022506E0));
#1046=CARTESIAN_POINT('',(-2.746331340678E0,7.781491843462E0,2.072168979230E0));
#1047=CARTESIAN_POINT('',(-2.826323261699E0,7.753503561800E0,1.918713092255E0));
#1048=CARTESIAN_POINT('',(-2.930134684316E0,7.715995236477E0,1.778963790186E0));
#1049=CARTESIAN_POINT('',(-3.056420841607E0,7.668585340352E0,1.656011031249E0));
#1050=CARTESIAN_POINT('',(-3.203248095082E0,7.611036097388E0,1.553522365346E0));
#1051=CARTESIAN_POINT('',(-3.367146584510E0,7.543753354560E0,1.475588579095E0));
#1052=CARTESIAN_POINT('',(-3.535203250064E0,7.471412696358E0,1.427908309829E0));
#1053=CARTESIAN_POINT('',(-3.648347315709E0,7.420528266205E0,1.414357297105E0));
#1054=CARTESIAN_POINT('',(-3.701262139385E0,7.396259944423E0,1.411913195213E0));
#1055=CARTESIAN_POINT('',(-3.662331226226E0,7.327747795288E0,3.428784303720E0));
#1056=CARTESIAN_POINT('',(-3.613288420624E0,7.354199021031E0,3.423966573239E0));
#1057=CARTESIAN_POINT('',(-3.514417285901E0,7.406663652850E0,3.406159772747E0));
#1058=CARTESIAN_POINT('',(-3.372513228076E0,7.479375354702E0,3.355867361395E0));
#1059=CARTESIAN_POINT('',(-3.240550355861E0,7.544545634369E0,3.283054525849E0));
#1060=CARTESIAN_POINT('',(-3.124113067550E0,7.599978336362E0,3.191800404345E0));
#1061=CARTESIAN_POINT('',(-3.025325537184E0,7.645397466692E0,3.085635418745E0));
#1062=CARTESIAN_POINT('',(-2.945133548328E0,7.681120914169E0,2.967466002624E0));
#1063=CARTESIAN_POINT('',(-2.884141748822E0,7.707569442928E0,2.839570902016E0));
#1064=CARTESIAN_POINT('',(-2.843141976826E0,7.724984045594E0,2.704333103251E0));
#1065=CARTESIAN_POINT('',(-2.822890008367E0,7.733475161554E0,2.564612096995E0));
#1066=CARTESIAN_POINT('',(-2.823785271052E0,7.733101369318E0,2.423496419774E0));
#1067=CARTESIAN_POINT('',(-2.845809686394E0,7.723860036115E0,2.284036264391E0));
#1068=CARTESIAN_POINT('',(-2.888532642037E0,7.705686850636E0,2.149302419354E0));
#1069=CARTESIAN_POINT('',(-2.951180457167E0,7.678464244728E0,2.022134391480E0));
#1070=CARTESIAN_POINT('',(-3.032955077351E0,7.641944129971E0,1.904907386977E0));
#1071=CARTESIAN_POINT('',(-3.133244343220E0,7.595703792252E0,1.799909894052E0));
#1072=CARTESIAN_POINT('',(-3.251086548617E0,7.539432216938E0,1.710060897959E0));
#1073=CARTESIAN_POINT('',(-3.384333458873E0,7.473422483809E0,1.638896795370E0));
#1074=CARTESIAN_POINT('',(-3.522974650165E0,7.402161110532E0,1.591953749021E0));
#1075=CARTESIAN_POINT('',(-3.617702174111E0,7.351817574820E0,1.575601358879E0));
#1076=CARTESIAN_POINT('',(-3.662320388320E0,7.327753446593E0,1.571217385912E0));
#1077=CARTESIAN_POINT('',(-3.704199561741E0,7.420058765738E0,3.282793920314E0));
#1078=CARTESIAN_POINT('',(-3.662497373720E0,7.446812366717E0,3.280273010149E0));
#1079=CARTESIAN_POINT('',(-3.577944902892E0,7.500052946743E0,3.268303722305E0));
#1080=CARTESIAN_POINT('',(-3.455227585409E0,7.574285526378E0,3.229751334856E0));
#1081=CARTESIAN_POINT('',(-3.339891315356E0,7.641177182733E0,3.171099481639E0));
#1082=CARTESIAN_POINT('',(-3.237171636391E0,7.698324512153E0,3.095510863671E0));
#1083=CARTESIAN_POINT('',(-3.149353401490E0,7.745302607734E0,3.005946409597E0));
#1084=CARTESIAN_POINT('',(-3.077648059488E0,7.782334142608E0,2.904994405198E0));
#1085=CARTESIAN_POINT('',(-3.022884515833E0,7.809787332148E0,2.794794379768E0));
#1086=CARTESIAN_POINT('',(-2.985973372982E0,7.827875501274E0,2.677624187616E0));
#1087=CARTESIAN_POINT('',(-2.967714786760E0,7.836697409418E0,2.556202181884E0));
#1088=CARTESIAN_POINT('',(-2.968522273701E0,7.836309030739E0,2.433455982835E0));
#1089=CARTESIAN_POINT('',(-2.988377258724E0,7.826707801345E0,2.312281340140E0));
#1090=CARTESIAN_POINT('',(-3.026833065223E0,7.807832417494E0,2.195590081262E0));
#1091=CARTESIAN_POINT('',(-3.083067248655E0,7.779578080284E0,2.086081758542E0));
#1092=CARTESIAN_POINT('',(-3.156156567810E0,7.741726373442E0,1.986024037284E0));
#1093=CARTESIAN_POINT('',(-3.245258515438E0,7.693910081398E0,1.897558484182E0));
#1094=CARTESIAN_POINT('',(-3.349142647247E0,7.635916876921E0,1.823274259622E0));
#1095=CARTESIAN_POINT('',(-3.465502430401E0,7.568191791115E0,1.766124748960E0));
#1096=CARTESIAN_POINT('',(-3.585283978455E0,7.495476105049E0,1.730366368705E0));
#1097=CARTESIAN_POINT('',(-3.666250431384E0,7.444403725930E0,1.719501394821E0));
#1098=CARTESIAN_POINT('',(-3.704190328964E0,7.420064451363E0,1.717207162001E0));
#1099=CARTESIAN_POINT('',(-3.783709243501E0,7.578004570907E0,3.300648873748E0));
#1100=CARTESIAN_POINT('',(-3.740000051556E0,7.605275541595E0,3.302485749656E0));
#1101=CARTESIAN_POINT('',(-3.650013457238E0,7.659843783587E0,3.298957773045E0));
#1102=CARTESIAN_POINT('',(-3.515553869813E0,7.736678613688E0,3.270524017331E0));
#1103=CARTESIAN_POINT('',(-3.385782833662E0,7.806515577904E0,3.218323435967E0));
#1104=CARTESIAN_POINT('',(-3.267572222217E0,7.866596667075E0,3.144801446753E0));
#1105=CARTESIAN_POINT('',(-3.164677374817E0,7.916242181496E0,3.052944740812E0));
#1106=CARTESIAN_POINT('',(-3.079525627049E0,7.955511878488E0,2.945798414675E0));
#1107=CARTESIAN_POINT('',(-3.013880511334E0,7.984684061502E0,2.826178775058E0));
#1108=CARTESIAN_POINT('',(-2.969370958863E0,8.003924715502E0,2.697188351254E0));
#1109=CARTESIAN_POINT('',(-2.947283350473E0,8.013312615287E0,2.562491761988E0));
#1110=CARTESIAN_POINT('',(-2.948261098714E0,8.012899278930E0,2.426014194448E0));
#1111=CARTESIAN_POINT('',(-2.972275631023E0,8.002682260390E0,2.291649517627E0));
#1112=CARTESIAN_POINT('',(-3.018629895575E0,7.982605401930E0,2.163304372431E0));
#1113=CARTESIAN_POINT('',(-3.085994070396E0,7.952585753073E0,2.044618532304E0));
#1114=CARTESIAN_POINT('',(-3.172705075933E0,7.912455667150E0,1.938673689459E0));
#1115=CARTESIAN_POINT('',(-3.276964615230E0,7.861942887639E0,1.848270529574E0));
#1116=CARTESIAN_POINT('',(-3.396309933511E0,7.801003943311E0,1.776427213109E0));
#1117=CARTESIAN_POINT('',(-3.526959498601E0,7.730343856839E0,1.726086640539E0));
#1118=CARTESIAN_POINT('',(-3.657883569176E0,7.655139814263E0,1.700427767477E0));
#1119=CARTESIAN_POINT('',(-3.743933576354E0,7.602820370377E0,1.697680883063E0));
#1120=CARTESIAN_POINT('',(-3.783699517871E0,7.578010315252E0,1.699351253196E0));
#1121=(BOUNDED_SURFACE()B_SPLINE_SURFACE(3,3,((#1033,#1034,#1035,#1036,#1037,
#1038,#1039,#1040,#1041,#1042,#1043,#1044,#1045,#1046,#1047,#1048,#1049,#1050,
#1051,#1052,#1053,#1054),(#1055,#1056,#1057,#1058,#1059,#1060,#1061,#1062,#1063,
#1064,#1065,#1066,#1067,#1068,#1069,#1070,#1071,#1072,#1073,#1074,#1075,#1076),(
#1077,#1078,#1079,#1080,#1081,#1082,#1083,#1084,#1085,#1086,#1087,#1088,#1089,
#1090,#1091,#1092,#1093,#1094,#1095,#1096,#1097,#1098),(#1099,#1100,#1101,#1102,
#1103,#1104,#1105,#1106,#1107,#1108,#1109,#1110,#1111,#1112,#1113,#1114,#1115,
#1116,#1117,#1118,#1119,#1120)),.UNSPECIFIED.,.F.,.F.,.F.)B_SPLINE_SURFACE_WITH_KNOTS((4,4),(4,1,1,1,1,1,1,1,1,1,1,1,1,1,1,1,1,1,1,4),(0.E0,1.E0),(
2.343977074722E-3,5.658379431321E-2,1.127915844979E-1,1.680397182512E-1,
2.218502478329E-1,2.740187506482E-1,3.249234626748E-1,3.751808198867E-1,
4.250937719419E-1,4.747557207633E-1,5.243373084494E-1,5.740111725731E-1,
6.239517748641E-1,6.742604224426E-1,7.252410087733E-1,7.775085924475E-1,
8.314412651463E-1,8.868369364093E-1,9.432184369199E-1,9.925542413281E-1),
.UNSPECIFIED.)GEOMETRIC_REPRESENTATION_ITEM()RATIONAL_B_SPLINE_SURFACE(((
1.347304114902E0,1.347304114902E0,1.347304114902E0,1.347304114902E0,
1.347304114902E0,1.347304114902E0,1.347304114902E0,1.347304114902E0,
1.347304114902E0,1.347304114902E0,1.347304114902E0,1.347304114902E0,
1.347304114902E0,1.347304114902E0,1.347304114902E0,1.347304114902E0,
1.347304114902E0,1.347304114902E0,1.347304114902E0,1.347304114902E0,
1.347304114902E0,1.347304114902E0),(8.842319616994E-1,8.842319616994E-1,
8.842319616994E-1,8.842319616994E-1,8.842319616994E-1,8.842319616994E-1,
8.842319616994E-1,8.842319616994E-1,8.842319616994E-1,8.842319616994E-1,
8.842319616994E-1,8.842319616994E-1,8.842319616994E-1,8.842319616994E-1,
8.842319616994E-1,8.842319616994E-1,8.842319616994E-1,8.842319616994E-1,
8.842319616994E-1,8.842319616994E-1,8.842319616994E-1,8.842319616994E-1),(
8.842319616994E-1,8.842319616994E-1,8.842319616994E-1,8.842319616994E-1,
8.842319616994E-1,8.842319616994E-1,8.842319616994E-1,8.842319616994E-1,
8.842319616994E-1,8.842319616994E-1,8.842319616994E-1,8.842319616994E-1,
8.842319616994E-1,8.842319616994E-1,8.842319616994E-1,8.842319616994E-1,
8.842319616994E-1,8.842319616994E-1,8.842319616994E-1,8.842319616994E-1,
8.842319616994E-1,8.842319616994E-1),(1.347304114902E0,1.347304114902E0,
1.347304114902E0,1.347304114902E0,1.347304114902E0,1.347304114902E0,
1.347304114902E0,1.347304114902E0,1.347304114902E0,1.347304114902E0,
1.347304114902E0,1.347304114902E0,1.347304114902E0,1.347304114902E0,
1.347304114902E0,1.347304114902E0,1.347304114902E0,1.347304114902E0,
1.347304114902E0,1.347304114902E0,1.347304114902E0,1.347304114902E0)))REPRESENTATION_ITEM('')SURFACE());
#1122=ORIENTED_EDGE('',*,*,#1023,.T.);
#1124=ORIENTED_EDGE('',*,*,#1123,.F.);
#1125=ORIENTED_EDGE('',*,*,#561,.F.);
#1127=ORIENTED_EDGE('',*,*,#1126,.T.);
#1128=EDGE_LOOP('',(#1122,#1124,#1125,#1127));
#1129=FACE_OUTER_BOUND('',#1128,.F.);
#1131=CARTESIAN_POINT('',(-3.631953185067E0,7.408651214684E0,1.480363316308E0));
#1132=CARTESIAN_POINT('',(-3.689962959374E0,7.380782371476E0,1.473521328056E0));
#1133=CARTESIAN_POINT('',(-3.810298616854E0,7.321723062453E0,1.469699050942E0));
#1134=CARTESIAN_POINT('',(-3.991427604706E0,7.229032119677E0,1.496095338665E0));
#1135=CARTESIAN_POINT('',(-4.169236178204E0,7.134450343988E0,1.556468567409E0));
#1136=CARTESIAN_POINT('',(-4.333783797705E0,7.043928557895E0,1.648943318915E0));
#1137=CARTESIAN_POINT('',(-4.478091188574E0,6.962315800475E0,1.769704942515E0));
#1138=CARTESIAN_POINT('',(-4.596783809067E0,6.893734679434E0,1.913222940689E0));
#1139=CARTESIAN_POINT('',(-4.686541336938E0,6.841055933975E0,2.073330479940E0));
#1140=CARTESIAN_POINT('',(-4.745818672922E0,6.805901382349E0,2.243834363573E0));
#1141=CARTESIAN_POINT('',(-4.774544916411E0,6.788765120224E0,2.419375935305E0));
#1142=CARTESIAN_POINT('',(-4.773223390354E0,6.789554862009E0,2.596219658461E0));
#1143=CARTESIAN_POINT('',(-4.741825589609E0,6.808278294054E0,2.771466373391E0));
#1144=CARTESIAN_POINT('',(-4.679855104883E0,6.845003307470E0,2.941257533214E0));
#1145=CARTESIAN_POINT('',(-4.587481094060E0,6.899155079393E0,3.100139883657E0));
#1146=CARTESIAN_POINT('',(-4.466384885643E0,6.969010283433E0,3.241894937533E0));
#1147=CARTESIAN_POINT('',(-4.320043911877E0,7.051593137379E0,3.360387001573E0));
#1148=CARTESIAN_POINT('',(-4.154025396213E0,7.142675617283E0,3.450166846108E0));
#1149=CARTESIAN_POINT('',(-3.975452209962E0,7.237358806191E0,3.507595400971E0));
#1150=CARTESIAN_POINT('',(-3.799476612432E0,7.327089524703E0,3.530395911818E0));
#1151=CARTESIAN_POINT('',(-3.684686891923E0,7.383316053697E0,3.525853930384E0));
#1152=CARTESIAN_POINT('',(-3.631971027258E0,7.408642369228E0,3.519638071097E0));
#1153=CARTESIAN_POINT('',(-3.629135407782E0,7.394422104517E0,1.619123501757E0));
#1154=CARTESIAN_POINT('',(-3.678928297818E0,7.366611690406E0,1.612120349640E0));
#1155=CARTESIAN_POINT('',(-3.782583632655E0,7.307646878644E0,1.606467671979E0));
#1156=CARTESIAN_POINT('',(-3.939786840239E0,7.214997827907E0,1.625758543660E0));
#1157=CARTESIAN_POINT('',(-4.095333553502E0,7.120335872758E0,1.674827328288E0));
#1158=CARTESIAN_POINT('',(-4.240438535928E0,7.029606628866E0,1.752574113264E0));
#1159=CARTESIAN_POINT('',(-4.368707544428E0,6.947677650569E0,1.856093074395E0));
#1160=CARTESIAN_POINT('',(-4.475004355720E0,6.878716636478E0,1.980820766676E0));
#1161=CARTESIAN_POINT('',(-4.555924500347E0,6.825660883318E0,2.121412801001E0));
#1162=CARTESIAN_POINT('',(-4.609645786585E0,6.790206619794E0,2.272253668186E0));
#1163=CARTESIAN_POINT('',(-4.635765397347E0,6.772908750783E0,2.428249751231E0));
#1164=CARTESIAN_POINT('',(-4.634562516953E0,6.773706175274E0,2.585625405261E0));
#1165=CARTESIAN_POINT('',(-4.606019574495E0,6.792605117323E0,2.741316869468E0));
#1166=CARTESIAN_POINT('',(-4.549879447363E0,6.829639379702E0,2.891446183427E0));
#1167=CARTESIAN_POINT('',(-4.466645072659E0,6.884171366530E0,3.030851956869E0));
#1168=CARTESIAN_POINT('',(-4.358264292022E0,6.954403273149E0,3.153917647941E0));
#1169=CARTESIAN_POINT('',(-4.228276776048E0,7.037294254120E0,3.255346990753E0));
#1170=CARTESIAN_POINT('',(-4.081977832089E0,7.128573377260E0,3.330664881452E0));
#1171=CARTESIAN_POINT('',(-3.925871906241E0,7.223325473738E0,3.377129448643E0));
#1172=CARTESIAN_POINT('',(-3.773245866631E0,7.313005984219E0,3.393399273948E0));
#1173=CARTESIAN_POINT('',(-3.674399629866E0,7.369140062615E0,3.387240589111E0));
#1174=CARTESIAN_POINT('',(-3.629150731689E0,7.394413279982E0,3.380878031505E0));
#1175=CARTESIAN_POINT('',(-3.675486687890E0,7.483007924987E0,1.716431827664E0));
#1176=CARTESIAN_POINT('',(-3.720342612739E0,7.454833750286E0,1.712111190667E0));
#1177=CARTESIAN_POINT('',(-3.813078842920E0,7.395280629255E0,1.711190871119E0));
#1178=CARTESIAN_POINT('',(-3.951651465457E0,7.302370772282E0,1.734490503135E0));
#1179=CARTESIAN_POINT('',(-4.086632364130E0,7.208207988425E0,1.783536122211E0));
#1180=CARTESIAN_POINT('',(-4.210551915111E0,7.118770309436E0,1.856440056467E0));
#1181=CARTESIAN_POINT('',(-4.318359703067E0,7.038810019655E0,1.949936431816E0));
#1182=CARTESIAN_POINT('',(-4.406348632616E0,6.972214096366E0,2.059591191222E0));
#1183=CARTESIAN_POINT('',(-4.472427052592E0,6.921505470760E0,2.180679664708E0));
#1184=CARTESIAN_POINT('',(-4.515825792518E0,6.887917116207E0,2.308670026708E0));
#1185=CARTESIAN_POINT('',(-4.536783463193E0,6.871625359210E0,2.439842605332E0));
#1186=CARTESIAN_POINT('',(-4.535820413609E0,6.872374953666E0,2.571797363933E0));
#1187=CARTESIAN_POINT('',(-4.512908684288E0,6.890181227407E0,2.702786160833E0));
#1188=CARTESIAN_POINT('',(-4.467519433368E0,6.925290206145E0,2.830311035456E0));
#1189=CARTESIAN_POINT('',(-4.399476486010E0,6.977455098403E0,2.950567648065E0));
#1190=CARTESIAN_POINT('',(-4.309646871534E0,7.045341777067E0,3.058986875669E0));
#1191=CARTESIAN_POINT('',(-4.200243429810E0,7.126314459205E0,3.150849769342E0));
#1192=CARTESIAN_POINT('',(-4.075127657164E0,7.216369345399E0,3.221769164817E0));
#1193=CARTESIAN_POINT('',(-3.939472206076E0,7.310692445718E0,3.268603591718E0));
#1194=CARTESIAN_POINT('',(-3.804752508880E0,7.400685535104E0,3.289066676962E0));
#1195=CARTESIAN_POINT('',(-3.716262851840E0,7.457395180903E0,3.287493952258E0));
#1196=CARTESIAN_POINT('',(-3.675500476601E0,7.482998970204E0,3.283568951350E0));
#1197=CARTESIAN_POINT('',(-3.735986000502E0,7.607477057028E0,1.698766326666E0));
#1198=CARTESIAN_POINT('',(-3.782915036868E0,7.578791773837E0,1.697945091231E0));
#1199=CARTESIAN_POINT('',(-3.878743384157E0,7.518412038076E0,1.704744323102E0));
#1200=CARTESIAN_POINT('',(-4.018057082093E0,7.425135730517E0,1.740138045699E0));
#1201=CARTESIAN_POINT('',(-4.149706852890E0,7.331674316441E0,1.800459280676E0));
#1202=CARTESIAN_POINT('',(-4.266704974851E0,7.244051374410E0,1.882064528817E0));
#1203=CARTESIAN_POINT('',(-4.365088318412E0,7.166857226542E0,1.980331027917E0));
#1204=CARTESIAN_POINT('',(-4.442689938226E0,7.103584417470E0,2.090018684398E0));
#1205=CARTESIAN_POINT('',(-4.499136058132E0,7.056173666489E0,2.206351589156E0));
#1206=CARTESIAN_POINT('',(-4.535245025242E0,7.025207041562E0,2.325568811815E0));
#1207=CARTESIAN_POINT('',(-4.552385587405E0,7.010328940708E0,2.445395437859E0));
#1208=CARTESIAN_POINT('',(-4.551602347978E0,7.011011330694E0,2.565183405139E0));
#1209=CARTESIAN_POINT('',(-4.532843485265E0,7.027282330786E0,2.684986386415E0));
#1210=CARTESIAN_POINT('',(-4.495002731543E0,7.059686154428E0,2.804043166088E0));
#1211=CARTESIAN_POINT('',(-4.436725016520E0,7.108525117040E0,2.919946312720E0));
#1212=CARTESIAN_POINT('',(-4.357265846842E0,7.173116590145E0,3.028828211266E0));
#1213=CARTESIAN_POINT('',(-4.257124658547E0,7.251393931318E0,3.125848923588E0));
#1214=CARTESIAN_POINT('',(-4.138650567687E0,7.339728680934E0,3.205756595427E0));
#1215=CARTESIAN_POINT('',(-4.005977310442E0,7.433449012331E0,3.264015279403E0));
#1216=CARTESIAN_POINT('',(-3.870191481371E0,7.523881296441E0,3.296227324005E0));
#1217=CARTESIAN_POINT('',(-3.778646515802E0,7.581399653778E0,3.301978269606E0));
#1218=CARTESIAN_POINT('',(-3.736000397033E0,7.607467919238E0,3.301233367873E0));
#1219=(BOUNDED_SURFACE()B_SPLINE_SURFACE(3,3,((#1131,#1132,#1133,#1134,#1135,
#1136,#1137,#1138,#1139,#1140,#1141,#1142,#1143,#1144,#1145,#1146,#1147,#1148,
#1149,#1150,#1151,#1152),(#1153,#1154,#1155,#1156,#1157,#1158,#1159,#1160,#1161,
#1162,#1163,#1164,#1165,#1166,#1167,#1168,#1169,#1170,#1171,#1172,#1173,#1174),(
#1175,#1176,#1177,#1178,#1179,#1180,#1181,#1182,#1183,#1184,#1185,#1186,#1187,
#1188,#1189,#1190,#1191,#1192,#1193,#1194,#1195,#1196),(#1197,#1198,#1199,#1200,
#1201,#1202,#1203,#1204,#1205,#1206,#1207,#1208,#1209,#1210,#1211,#1212,#1213,
#1214,#1215,#1216,#1217,#1218)),.UNSPECIFIED.,.F.,.F.,.F.)B_SPLINE_SURFACE_WITH_KNOTS((4,4),(4,1,1,1,1,1,1,1,1,1,1,1,1,1,1,1,1,1,1,4),(0.E0,1.E0),(
2.077280145214E-3,5.808344413965E-2,1.170148184086E-1,1.758103938744E-1,
2.333768783810E-1,2.883933431304E-1,3.402026192725E-1,3.887761259374E-1,
4.344435260974E-1,4.780222979142E-1,5.208786469291E-1,5.645896610103E-1,
6.104748520610E-1,6.593168801475E-1,7.114183747763E-1,7.666928967630E-1,
8.244381807001E-1,8.832823407559E-1,9.421331120461E-1,9.930180517916E-1),
.UNSPECIFIED.)GEOMETRIC_REPRESENTATION_ITEM()RATIONAL_B_SPLINE_SURFACE(((
1.232877185325E0,1.232877185325E0,1.232877185325E0,1.232877185325E0,
1.232877185325E0,1.232877185325E0,1.232877185325E0,1.232877185325E0,
1.232877185325E0,1.232877185325E0,1.232877185325E0,1.232877185325E0,
1.232877185325E0,1.232877185325E0,1.232877185325E0,1.232877185325E0,
1.232877185325E0,1.232877185325E0,1.232877185325E0,1.232877185325E0,
1.232877185325E0,1.232877185325E0),(9.223742715583E-1,9.223742715583E-1,
9.223742715583E-1,9.223742715583E-1,9.223742715583E-1,9.223742715583E-1,
9.223742715583E-1,9.223742715583E-1,9.223742715583E-1,9.223742715583E-1,
9.223742715583E-1,9.223742715583E-1,9.223742715583E-1,9.223742715583E-1,
9.223742715583E-1,9.223742715583E-1,9.223742715583E-1,9.223742715583E-1,
9.223742715583E-1,9.223742715583E-1,9.223742715583E-1,9.223742715583E-1),(
9.223742715583E-1,9.223742715583E-1,9.223742715583E-1,9.223742715583E-1,
9.223742715583E-1,9.223742715583E-1,9.223742715583E-1,9.223742715583E-1,
9.223742715583E-1,9.223742715583E-1,9.223742715583E-1,9.223742715583E-1,
9.223742715583E-1,9.223742715583E-1,9.223742715583E-1,9.223742715583E-1,
9.223742715583E-1,9.223742715583E-1,9.223742715583E-1,9.223742715583E-1,
9.223742715583E-1,9.223742715583E-1),(1.232877185325E0,1.232877185325E0,
1.232877185325E0,1.232877185325E0,1.232877185325E0,1.232877185325E0,
1.232877185325E0,1.232877185325E0,1.232877185325E0,1.232877185325E0,
1.232877185325E0,1.232877185325E0,1.232877185325E0,1.232877185325E0,
1.232877185325E0,1.232877185325E0,1.232877185325E0,1.232877185325E0,
1.232877185325E0,1.232877185325E0,1.232877185325E0,1.232877185325E0)))REPRESENTATION_ITEM('')SURFACE());
#1220=ORIENTED_EDGE('',*,*,#559,.F.);
#1221=ORIENTED_EDGE('',*,*,#1123,.T.);
#1223=ORIENTED_EDGE('',*,*,#1222,.T.);
#1224=ORIENTED_EDGE('',*,*,#1126,.F.);
#1225=EDGE_LOOP('',(#1220,#1221,#1223,#1224));
#1226=FACE_OUTER_BOUND('',#1225,.F.);
#1228=CARTESIAN_POINT('',(-3.75E0,0.E0,2.5E0));
#1229=DIRECTION('',(0.E0,1.E0,0.E0));
#1230=DIRECTION('',(0.E0,0.E0,-1.E0));
#1231=AXIS2_PLACEMENT_3D('',#1228,#1229,#1230);
#1232=CYLINDRICAL_SURFACE('',#1231,8.E-1);
#1233=ORIENTED_EDGE('',*,*,#1222,.F.);
#1234=ORIENTED_EDGE('',*,*,#1028,.T.);
#1235=ORIENTED_EDGE('',*,*,#998,.T.);
#1236=ORIENTED_EDGE('',*,*,#1025,.F.);
#1237=EDGE_LOOP('',(#1233,#1234,#1235,#1236));
#1238=FACE_OUTER_BOUND('',#1237,.F.);
#1240=CARTESIAN_POINT('',(0.E0,0.E0,5.E0));
#1241=DIRECTION('',(0.E0,0.E0,1.E0));
#1242=DIRECTION('',(9.999937507558E-1,-3.535314594957E-3,0.E0));
#1243=AXIS2_PLACEMENT_3D('',#1240,#1241,#1242);
#1244=TOROIDAL_SURFACE('',#1243,7.25E0,1.E0);
#1246=ORIENTED_EDGE('',*,*,#1245,.T.);
#1248=ORIENTED_EDGE('',*,*,#1247,.T.);
#1249=ORIENTED_EDGE('',*,*,#550,.F.);
#1251=ORIENTED_EDGE('',*,*,#1250,.F.);
#1252=EDGE_LOOP('',(#1246,#1248,#1249,#1251));
#1253=FACE_OUTER_BOUND('',#1252,.F.);
#1255=CARTESIAN_POINT('',(0.E0,0.E0,6.E0));
#1256=DIRECTION('',(0.E0,0.E0,1.E0));
#1257=DIRECTION('',(1.E0,0.E0,0.E0));
#1258=AXIS2_PLACEMENT_3D('',#1255,#1256,#1257);
#1259=PLANE('',#1258);
#1261=ORIENTED_EDGE('',*,*,#1260,.F.);
#1262=ORIENTED_EDGE('',*,*,#1245,.F.);
#1263=EDGE_LOOP('',(#1261,#1262));
#1264=FACE_OUTER_BOUND('',#1263,.F.);
#1266=CARTESIAN_POINT('',(0.E0,0.E0,5.E0));
#1267=DIRECTION('',(0.E0,0.E0,1.E0));
#1268=DIRECTION('',(-9.999937507558E-1,3.535314594957E-3,0.E0));
#1269=AXIS2_PLACEMENT_3D('',#1266,#1267,#1268);
#1270=TOROIDAL_SURFACE('',#1269,7.25E0,1.E0);
#1271=ORIENTED_EDGE('',*,*,#1260,.T.);
#1272=ORIENTED_EDGE('',*,*,#1250,.T.);
#1274=ORIENTED_EDGE('',*,*,#1273,.F.);
#1275=ORIENTED_EDGE('',*,*,#1247,.F.);
#1276=EDGE_LOOP('',(#1271,#1272,#1274,#1275));
#1277=FACE_OUTER_BOUND('',#1276,.F.);
#1279=CARTESIAN_POINT('',(0.E0,0.E0,0.E0));
#1280=DIRECTION('',(0.E0,0.E0,1.E0));
#1281=DIRECTION('',(1.E0,0.E0,0.E0));
#1282=AXIS2_PLACEMENT_3D('',#1279,#1280,#1281);
#1283=CYLINDRICAL_SURFACE('',#1282,8.25E0);
#1284=ORIENTED_EDGE('',*,*,#1273,.T.);
#1285=ORIENTED_EDGE('',*,*,#555,.F.);
#1286=ORIENTED_EDGE('',*,*,#525,.T.);
#1287=ORIENTED_EDGE('',*,*,#552,.T.);
#1288=EDGE_LOOP('',(#1284,#1285,#1286,#1287));
#1289=FACE_OUTER_BOUND('',#1288,.F.);
#1291=CLOSED_SHELL('',(#516,#531,#544,#571,#670,#767,#782,#795,#810,#825,#842,
#860,#875,#888,#898,#910,#924,#936,#949,#961,#976,#989,#1004,#1017,#1032,#1130,
#1227,#1239,#1254,#1265,#1278,#1290));
#1292=MANIFOLD_SOLID_BREP('',#1291);
#1294=DIMENSIONAL_EXPONENTS(0.E0,0.E0,0.E0,0.E0,0.E0,0.E0,0.E0);
#1296=PLANE_ANGLE_MEASURE_WITH_UNIT(PLANE_ANGLE_MEASURE(1.745329251994E-2),
#1295);
#1297=(CONVERSION_BASED_UNIT('DEGREE',#1296)NAMED_UNIT(*)PLANE_ANGLE_UNIT());
#1299=UNCERTAINTY_MEASURE_WITH_UNIT(LENGTH_MEASURE(1.896779964910E-3),#1293,
'closure',
'Maximum model space distance between geometric entities at asserted connectivities');
#1302=APPLICATION_CONTEXT(
'CONFIGURATION CONTROLLED 3D DESIGNS OF MECHANICAL PARTS AND ASSEMBLIES');
#1303=APPLICATION_PROTOCOL_DEFINITION('international standard',
'config_control_design',1994,#1302);
#1304=DESIGN_CONTEXT('',#1302,'design');
#1305=MECHANICAL_CONTEXT('',#1302,'mechanical');
#1306=PRODUCT('MOV-14D180K','MOV-14D180K','NOT SPECIFIED',(#1305));
#1307=PRODUCT_DEFINITION_FORMATION_WITH_SPECIFIED_SOURCE('3','LAST_VERSION',
#1306,.MADE.);
#1311=PRODUCT_CATEGORY('part','');
#1312=PRODUCT_RELATED_PRODUCT_CATEGORY('detail','',(#1306));
#1313=PRODUCT_CATEGORY_RELATIONSHIP('','',#1311,#1312);
#1314=SECURITY_CLASSIFICATION_LEVEL('unclassified');
#1315=SECURITY_CLASSIFICATION('','',#1314);
#1316=CC_DESIGN_SECURITY_CLASSIFICATION(#1315,(#1307));
#1317=APPROVAL_STATUS('approved');
#1318=APPROVAL(#1317,'');
#1319=CC_DESIGN_APPROVAL(#1318,(#1315,#1307,#1308));
#1320=CALENDAR_DATE(112,23,8);
#1321=COORDINATED_UNIVERSAL_TIME_OFFSET(7,0,.BEHIND.);
#1322=LOCAL_TIME(16,24,1.E1,#1321);
#1323=DATE_AND_TIME(#1320,#1322);
#1324=APPROVAL_DATE_TIME(#1323,#1318);
#1325=DATE_TIME_ROLE('creation_date');
#1326=CC_DESIGN_DATE_AND_TIME_ASSIGNMENT(#1323,#1325,(#1308));
#1327=DATE_TIME_ROLE('classification_date');
#1328=CC_DESIGN_DATE_AND_TIME_ASSIGNMENT(#1323,#1327,(#1315));
#1329=PERSON('UNSPECIFIED','UNSPECIFIED',$,$,$,$);
#1330=ORGANIZATION('UNSPECIFIED','UNSPECIFIED','UNSPECIFIED');
#1331=PERSON_AND_ORGANIZATION(#1329,#1330);
#1332=APPROVAL_ROLE('approver');
#1333=APPROVAL_PERSON_ORGANIZATION(#1331,#1318,#1332);
#1334=PERSON_AND_ORGANIZATION_ROLE('creator');
#1335=CC_DESIGN_PERSON_AND_ORGANIZATION_ASSIGNMENT(#1331,#1334,(#1307,#1308));
#1336=PERSON_AND_ORGANIZATION_ROLE('design_supplier');
#1337=CC_DESIGN_PERSON_AND_ORGANIZATION_ASSIGNMENT(#1331,#1336,(#1307));
#1338=PERSON_AND_ORGANIZATION_ROLE('classification_officer');
#1339=CC_DESIGN_PERSON_AND_ORGANIZATION_ASSIGNMENT(#1331,#1338,(#1315));
#1340=PERSON_AND_ORGANIZATION_ROLE('design_owner');
#1341=CC_DESIGN_PERSON_AND_ORGANIZATION_ASSIGNMENT(#1331,#1340,(#1306));
#5=CIRCLE('',#4,7.25E0);
#10=CIRCLE('',#9,7.25E0);
#15=CIRCLE('',#14,1.E0);
#20=CIRCLE('',#19,1.E0);
#43=B_SPLINE_CURVE_WITH_KNOTS('',3,(#21,#22,#23,#24,#25,#26,#27,#28,#29,#30,#31,
#32,#33,#34,#35,#36,#37,#38,#39,#40,#41,#42),.UNSPECIFIED.,.F.,.F.,(4,1,1,1,1,1,
1,1,1,1,1,1,1,1,1,1,1,1,1,4),(0.E0,5.263157894737E-2,1.052631578947E-1,
1.578947368421E-1,2.105263157895E-1,2.631578947368E-1,3.157894736842E-1,
3.684210526316E-1,4.210526315789E-1,4.736842105263E-1,5.263157894737E-1,
5.789473684211E-1,6.315789473684E-1,6.842105263158E-1,7.368421052632E-1,
7.894736842105E-1,8.421052631579E-1,8.947368421053E-1,9.473684210526E-1,1.E0),
.UNSPECIFIED.);
#66=B_SPLINE_CURVE_WITH_KNOTS('',3,(#44,#45,#46,#47,#48,#49,#50,#51,#52,#53,#54,
#55,#56,#57,#58,#59,#60,#61,#62,#63,#64,#65),.UNSPECIFIED.,.F.,.F.,(4,1,1,1,1,1,
1,1,1,1,1,1,1,1,1,1,1,1,1,4),(0.E0,5.263157894737E-2,1.052631578947E-1,
1.578947368421E-1,2.105263157895E-1,2.631578947368E-1,3.157894736842E-1,
3.684210526316E-1,4.210526315789E-1,4.736842105263E-1,5.263157894737E-1,
5.789473684211E-1,6.315789473684E-1,6.842105263158E-1,7.368421052632E-1,
7.894736842105E-1,8.421052631579E-1,8.947368421053E-1,9.473684210526E-1,1.E0),
.UNSPECIFIED.);
#89=B_SPLINE_CURVE_WITH_KNOTS('',3,(#67,#68,#69,#70,#71,#72,#73,#74,#75,#76,#77,
#78,#79,#80,#81,#82,#83,#84,#85,#86,#87,#88),.UNSPECIFIED.,.F.,.F.,(4,1,1,1,1,1,
1,1,1,1,1,1,1,1,1,1,1,1,1,4),(0.E0,5.263157894737E-2,1.052631578947E-1,
1.578947368421E-1,2.105263157895E-1,2.631578947368E-1,3.157894736842E-1,
3.684210526316E-1,4.210526315789E-1,4.736842105263E-1,5.263157894737E-1,
5.789473684211E-1,6.315789473684E-1,6.842105263158E-1,7.368421052632E-1,
7.894736842105E-1,8.421052631579E-1,8.947368421053E-1,9.473684210526E-1,1.E0),
.UNSPECIFIED.);
#112=B_SPLINE_CURVE_WITH_KNOTS('',3,(#90,#91,#92,#93,#94,#95,#96,#97,#98,#99,
#100,#101,#102,#103,#104,#105,#106,#107,#108,#109,#110,#111),.UNSPECIFIED.,.F.,
.F.,(4,1,1,1,1,1,1,1,1,1,1,1,1,1,1,1,1,1,1,4),(0.E0,5.263157894737E-2,
1.052631578947E-1,1.578947368421E-1,2.105263157895E-1,2.631578947368E-1,
3.157894736842E-1,3.684210526316E-1,4.210526315789E-1,4.736842105263E-1,
5.263157894737E-1,5.789473684211E-1,6.315789473684E-1,6.842105263158E-1,
7.368421052632E-1,7.894736842105E-1,8.421052631579E-1,8.947368421053E-1,
9.473684210526E-1,1.E0),.UNSPECIFIED.);
#117=CIRCLE('',#116,8.25E0);
#122=CIRCLE('',#121,8.25E0);
#131=CIRCLE('',#130,1.999996838958E-1);
#136=CIRCLE('',#135,1.999996682663E-1);
#159=B_SPLINE_CURVE_WITH_KNOTS('',3,(#137,#138,#139,#140,#141,#142,#143,#144,
#145,#146,#147,#148,#149,#150,#151,#152,#153,#154,#155,#156,#157,#158),
.UNSPECIFIED.,.F.,.F.,(4,1,1,1,1,1,1,1,1,1,1,1,1,1,1,1,1,1,1,4),(0.E0,
5.263157894737E-2,1.052631578947E-1,1.578947368421E-1,2.105263157895E-1,
2.631578947368E-1,3.157894736842E-1,3.684210526316E-1,4.210526315789E-1,
4.736842105263E-1,5.263157894737E-1,5.789473684211E-1,6.315789473684E-1,
6.842105263158E-1,7.368421052632E-1,7.894736842105E-1,8.421052631579E-1,
8.947368421053E-1,9.473684210526E-1,1.E0),.UNSPECIFIED.);
#168=CIRCLE('',#167,8.E-1);
#191=B_SPLINE_CURVE_WITH_KNOTS('',3,(#169,#170,#171,#172,#173,#174,#175,#176,
#177,#178,#179,#180,#181,#182,#183,#184,#185,#186,#187,#188,#189,#190),
.UNSPECIFIED.,.F.,.F.,(4,1,1,1,1,1,1,1,1,1,1,1,1,1,1,1,1,1,1,4),(0.E0,
5.263157894737E-2,1.052631578947E-1,1.578947368421E-1,2.105263157895E-1,
2.631578947368E-1,3.157894736842E-1,3.684210526316E-1,4.210526315789E-1,
4.736842105263E-1,5.263157894737E-1,5.789473684211E-1,6.315789473684E-1,
6.842105263158E-1,7.368421052632E-1,7.894736842105E-1,8.421052631579E-1,
8.947368421053E-1,9.473684210526E-1,1.E0),.UNSPECIFIED.);
#200=CIRCLE('',#199,8.E-1);
#205=CIRCLE('',#204,7.315858787526E-1);
#214=CIRCLE('',#213,2.E-1);
#219=CIRCLE('',#218,4.E-1);
#224=CIRCLE('',#223,4.E-1);
#229=CIRCLE('',#228,4.E-1);
#234=CIRCLE('',#233,4.E-1);
#239=CIRCLE('',#238,5.317019965574E-1);
#244=CIRCLE('',#243,5.317019965574E-1);
#249=CIRCLE('',#248,5.317019965574E-1);
#254=CIRCLE('',#253,5.317019965574E-1);
#267=CIRCLE('',#266,4.E-1);
#272=CIRCLE('',#271,4.E-1);
#277=CIRCLE('',#276,4.E-1);
#282=CIRCLE('',#281,4.E-1);
#295=CIRCLE('',#294,2.E-1);
#300=CIRCLE('',#299,7.315858787526E-1);
#309=CIRCLE('',#308,2.E-1);
#314=CIRCLE('',#313,2.E-1);
#319=CIRCLE('',#318,7.315858787526E-1);
#328=CIRCLE('',#327,7.315858787526E-1);
#355=B_SPLINE_CURVE_WITH_KNOTS('',3,(#333,#334,#335,#336,#337,#338,#339,#340,
#341,#342,#343,#344,#345,#346,#347,#348,#349,#350,#351,#352,#353,#354),
.UNSPECIFIED.,.F.,.F.,(4,1,1,1,1,1,1,1,1,1,1,1,1,1,1,1,1,1,1,4),(0.E0,
5.263157894737E-2,1.052631578947E-1,1.578947368421E-1,2.105263157895E-1,
2.631578947368E-1,3.157894736842E-1,3.684210526316E-1,4.210526315789E-1,
4.736842105263E-1,5.263157894737E-1,5.789473684211E-1,6.315789473684E-1,
6.842105263158E-1,7.368421052632E-1,7.894736842105E-1,8.421052631579E-1,
8.947368421053E-1,9.473684210526E-1,1.E0),.UNSPECIFIED.);
#364=CIRCLE('',#363,8.E-1);
#369=CIRCLE('',#368,1.999996838958E-1);
#374=CIRCLE('',#373,1.999996680097E-1);
#397=B_SPLINE_CURVE_WITH_KNOTS('',3,(#375,#376,#377,#378,#379,#380,#381,#382,
#383,#384,#385,#386,#387,#388,#389,#390,#391,#392,#393,#394,#395,#396),
.UNSPECIFIED.,.F.,.F.,(4,1,1,1,1,1,1,1,1,1,1,1,1,1,1,1,1,1,1,4),(0.E0,
5.263157894737E-2,1.052631578947E-1,1.578947368421E-1,2.105263157895E-1,
2.631578947368E-1,3.157894736842E-1,3.684210526316E-1,4.210526315789E-1,
4.736842105263E-1,5.263157894737E-1,5.789473684211E-1,6.315789473684E-1,
6.842105263158E-1,7.368421052632E-1,7.894736842105E-1,8.421052631579E-1,
8.947368421053E-1,9.473684210526E-1,1.E0),.UNSPECIFIED.);
#406=CIRCLE('',#405,8.E-1);
#411=CIRCLE('',#410,1.E0);
#416=CIRCLE('',#415,7.25E0);
#421=CIRCLE('',#420,7.25E0);
#426=CIRCLE('',#425,1.E0);
#431=CIRCLE('',#430,8.25E0);
#436=CIRCLE('',#435,8.25E0);
#510=EDGE_CURVE('',#499,#500,#5,.T.);
#512=EDGE_CURVE('',#500,#499,#10,.T.);
#516=ADVANCED_FACE('',(#515),#509,.F.);
#523=EDGE_CURVE('',#500,#504,#20,.T.);
#525=EDGE_CURVE('',#503,#504,#436,.T.);
#527=EDGE_CURVE('',#499,#503,#15,.T.);
#531=ADVANCED_FACE('',(#530),#521,.T.);
#539=EDGE_CURVE('',#504,#503,#122,.T.);
#544=ADVANCED_FACE('',(#543),#536,.T.);
#550=EDGE_CURVE('',#496,#495,#117,.T.);
#552=EDGE_CURVE('',#504,#495,#440,.T.);
#555=EDGE_CURVE('',#503,#496,#126,.T.);
#559=EDGE_CURVE('',#485,#486,#89,.T.);
#561=EDGE_CURVE('',#486,#485,#112,.T.);
#565=EDGE_CURVE('',#481,#482,#43,.T.);
#567=EDGE_CURVE('',#482,#481,#66,.T.);
#571=ADVANCED_FACE('',(#558,#564,#570),#549,.T.);
#662=EDGE_CURVE('',#481,#483,#131,.T.);
#664=EDGE_CURVE('',#483,#484,#191,.T.);
#666=EDGE_CURVE('',#482,#484,#136,.T.);
#670=ADVANCED_FACE('',(#669),#660,.F.);
#762=EDGE_CURVE('',#484,#483,#159,.T.);
#767=ADVANCED_FACE('',(#766),#759,.F.);
#774=EDGE_CURVE('',#484,#447,#163,.T.);
#776=EDGE_CURVE('',#447,#448,#168,.T.);
#778=EDGE_CURVE('',#483,#448,#195,.T.);
#782=ADVANCED_FACE('',(#781),#772,.T.);
#790=EDGE_CURVE('',#448,#447,#200,.T.);
#795=ADVANCED_FACE('',(#794),#787,.T.);
#801=EDGE_CURVE('',#472,#471,#205,.T.);
#803=EDGE_CURVE('',#471,#447,#304,.T.);
#806=EDGE_CURVE('',#472,#448,#209,.T.);
#810=ADVANCED_FACE('',(#809),#800,.T.);
#816=EDGE_CURVE('',#468,#467,#244,.T.);
#818=EDGE_CURVE('',#467,#471,#295,.T.);
#821=EDGE_CURVE('',#468,#472,#214,.T.);
#825=ADVANCED_FACE('',(#824),#815,.T.);
#831=EDGE_CURVE('',#467,#468,#239,.T.);
#836=EDGE_CURVE('',#463,#464,#229,.T.);
#838=EDGE_CURVE('',#464,#463,#234,.T.);
#842=ADVANCED_FACE('',(#835,#841),#830,.T.);
#848=EDGE_CURVE('',#475,#476,#249,.T.);
#850=EDGE_CURVE('',#476,#475,#254,.T.);
#854=EDGE_CURVE('',#459,#460,#219,.T.);
#856=EDGE_CURVE('',#460,#459,#224,.T.);
#860=ADVANCED_FACE('',(#853,#859),#847,.T.);
#867=EDGE_CURVE('',#459,#451,#258,.T.);
#869=EDGE_CURVE('',#451,#452,#267,.T.);
#871=EDGE_CURVE('',#460,#452,#262,.T.);
#875=ADVANCED_FACE('',(#874),#865,.T.);
#883=EDGE_CURVE('',#452,#451,#272,.T.);
#888=ADVANCED_FACE('',(#887),#880,.T.);
#898=ADVANCED_FACE('',(#897),#893,.T.);
#904=EDGE_CURVE('',#455,#456,#277,.T.);
#906=EDGE_CURVE('',#456,#455,#282,.T.);
#910=ADVANCED_FACE('',(#909),#903,.T.);
#917=EDGE_CURVE('',#463,#455,#286,.T.);
#920=EDGE_CURVE('',#464,#456,#290,.T.);
#924=ADVANCED_FACE('',(#923),#915,.T.);
#936=ADVANCED_FACE('',(#935),#929,.T.);
#944=EDGE_CURVE('',#471,#472,#300,.T.);
#949=ADVANCED_FACE('',(#948),#941,.T.);
#961=ADVANCED_FACE('',(#960),#954,.T.);
#968=EDGE_CURVE('',#476,#480,#314,.T.);
#970=EDGE_CURVE('',#479,#480,#328,.T.);
#972=EDGE_CURVE('',#475,#479,#309,.T.);
#976=ADVANCED_FACE('',(#975),#966,.T.);
#984=EDGE_CURVE('',#480,#479,#319,.T.);
#989=ADVANCED_FACE('',(#988),#981,.T.);
#996=EDGE_CURVE('',#479,#443,#332,.T.);
#998=EDGE_CURVE('',#444,#443,#406,.T.);
#1000=EDGE_CURVE('',#480,#444,#323,.T.);
#1004=ADVANCED_FACE('',(#1003),#994,.T.);
#1012=EDGE_CURVE('',#443,#444,#364,.T.);
#1017=ADVANCED_FACE('',(#1016),#1009,.T.);
#1023=EDGE_CURVE('',#488,#487,#355,.T.);
#1025=EDGE_CURVE('',#488,#443,#359,.T.);
#1028=EDGE_CURVE('',#487,#444,#401,.T.);
#1032=ADVANCED_FACE('',(#1031),#1022,.T.);
#1123=EDGE_CURVE('',#485,#487,#374,.T.);
#1126=EDGE_CURVE('',#486,#488,#369,.T.);
#1130=ADVANCED_FACE('',(#1129),#1121,.F.);
#1222=EDGE_CURVE('',#487,#488,#397,.T.);
#1227=ADVANCED_FACE('',(#1226),#1219,.F.);
#1239=ADVANCED_FACE('',(#1238),#1232,.T.);
#1245=EDGE_CURVE('',#492,#491,#421,.T.);
#1247=EDGE_CURVE('',#491,#495,#426,.T.);
#1250=EDGE_CURVE('',#492,#496,#411,.T.);
#1254=ADVANCED_FACE('',(#1253),#1244,.T.);
#1260=EDGE_CURVE('',#491,#492,#416,.T.);
#1265=ADVANCED_FACE('',(#1264),#1259,.T.);
#1273=EDGE_CURVE('',#495,#496,#431,.T.);
#1278=ADVANCED_FACE('',(#1277),#1270,.T.);
#1290=ADVANCED_FACE('',(#1289),#1283,.T.);
#1293=(LENGTH_UNIT()NAMED_UNIT(*)SI_UNIT(.MILLI.,.METRE.));
#1295=(NAMED_UNIT(*)PLANE_ANGLE_UNIT()SI_UNIT($,.RADIAN.));
#1298=(NAMED_UNIT(*)SI_UNIT($,.STERADIAN.)SOLID_ANGLE_UNIT());
#1300=(GEOMETRIC_REPRESENTATION_CONTEXT(3)GLOBAL_UNCERTAINTY_ASSIGNED_CONTEXT((
#1299))GLOBAL_UNIT_ASSIGNED_CONTEXT((#1293,#1297,#1298))REPRESENTATION_CONTEXT(
'ID1','3'));
#1301=ADVANCED_BREP_SHAPE_REPRESENTATION('',(#1292),#1300);
#1308=PRODUCT_DEFINITION('design','',#1307,#1304);
#1309=PRODUCT_DEFINITION_SHAPE('','SHAPE FOR MOV-14D180K.',#1308);
#1310=SHAPE_DEFINITION_REPRESENTATION(#1309,#1301);
ENDSEC;
END-ISO-10303-21;
