%TF.GenerationSoftware,KiCad,Pcbnew,10.0.5*%
%TF.CreationDate,2026-08-27T14:55:55-05:00*%
%TF.ProjectId,PelletPirate_V5,50656c6c-6574-4506-9972-6174655f5635,rev?*%
%TF.SameCoordinates,Original*%
%TF.FileFunction,Legend,Top*%
%TF.FilePolarity,Positive*%
%FSLAX46Y46*%
G04 Gerber Fmt 4.6, Leading zero omitted, Abs format (unit mm)*
G04 Created by KiCad (PCBNEW 10.0.5) date 2026-08-27 14:55:55*
%MOMM*%
%LPD*%
G01*
G04 APERTURE LIST*
%ADD10C,0.547214*%
%ADD11C,0.160000*%
%ADD12C,0.150000*%
%ADD13C,0.200000*%
%ADD14C,0.200079*%
%ADD15C,0.100000*%
%ADD16C,0.127000*%
%ADD17C,0.120000*%
G04 APERTURE END LIST*
D10*
X156723607Y-121400000D02*
G75*
G02*
X156176393Y-121400000I-273607J0D01*
G01*
X156176393Y-121400000D02*
G75*
G02*
X156723607Y-121400000I273607J0D01*
G01*
D11*
X164281870Y-92810213D02*
X164243775Y-92886403D01*
X164243775Y-92886403D02*
X164243775Y-93000689D01*
X164243775Y-93000689D02*
X164281870Y-93114975D01*
X164281870Y-93114975D02*
X164358060Y-93191165D01*
X164358060Y-93191165D02*
X164434251Y-93229260D01*
X164434251Y-93229260D02*
X164586632Y-93267356D01*
X164586632Y-93267356D02*
X164700918Y-93267356D01*
X164700918Y-93267356D02*
X164853299Y-93229260D01*
X164853299Y-93229260D02*
X164929489Y-93191165D01*
X164929489Y-93191165D02*
X165005680Y-93114975D01*
X165005680Y-93114975D02*
X165043775Y-93000689D01*
X165043775Y-93000689D02*
X165043775Y-92924498D01*
X165043775Y-92924498D02*
X165005680Y-92810213D01*
X165005680Y-92810213D02*
X164967584Y-92772117D01*
X164967584Y-92772117D02*
X164700918Y-92772117D01*
X164700918Y-92772117D02*
X164700918Y-92924498D01*
X165043775Y-92429260D02*
X164243775Y-92429260D01*
X164243775Y-92429260D02*
X165043775Y-91972117D01*
X165043775Y-91972117D02*
X164243775Y-91972117D01*
X165043775Y-91591165D02*
X164243775Y-91591165D01*
X164243775Y-91591165D02*
X164243775Y-91400689D01*
X164243775Y-91400689D02*
X164281870Y-91286403D01*
X164281870Y-91286403D02*
X164358060Y-91210213D01*
X164358060Y-91210213D02*
X164434251Y-91172118D01*
X164434251Y-91172118D02*
X164586632Y-91134022D01*
X164586632Y-91134022D02*
X164700918Y-91134022D01*
X164700918Y-91134022D02*
X164853299Y-91172118D01*
X164853299Y-91172118D02*
X164929489Y-91210213D01*
X164929489Y-91210213D02*
X165005680Y-91286403D01*
X165005680Y-91286403D02*
X165043775Y-91400689D01*
X165043775Y-91400689D02*
X165043775Y-91591165D01*
X167568775Y-92848308D02*
X167568775Y-93229260D01*
X167568775Y-93229260D02*
X166768775Y-93229260D01*
X167149727Y-92581641D02*
X167149727Y-92314975D01*
X167568775Y-92200689D02*
X167568775Y-92581641D01*
X167568775Y-92581641D02*
X166768775Y-92581641D01*
X166768775Y-92581641D02*
X166768775Y-92200689D01*
X167568775Y-91857831D02*
X166768775Y-91857831D01*
X166768775Y-91857831D02*
X166768775Y-91667355D01*
X166768775Y-91667355D02*
X166806870Y-91553069D01*
X166806870Y-91553069D02*
X166883060Y-91476879D01*
X166883060Y-91476879D02*
X166959251Y-91438784D01*
X166959251Y-91438784D02*
X167111632Y-91400688D01*
X167111632Y-91400688D02*
X167225918Y-91400688D01*
X167225918Y-91400688D02*
X167378299Y-91438784D01*
X167378299Y-91438784D02*
X167454489Y-91476879D01*
X167454489Y-91476879D02*
X167530680Y-91553069D01*
X167530680Y-91553069D02*
X167568775Y-91667355D01*
X167568775Y-91667355D02*
X167568775Y-91857831D01*
X167264013Y-91057831D02*
X167264013Y-90448308D01*
X167568775Y-90753069D02*
X166959251Y-90753069D01*
X169764013Y-93229260D02*
X169764013Y-92619737D01*
X170068775Y-92924498D02*
X169459251Y-92924498D01*
X169268775Y-92314975D02*
X169268775Y-91819737D01*
X169268775Y-91819737D02*
X169573537Y-92086403D01*
X169573537Y-92086403D02*
X169573537Y-91972118D01*
X169573537Y-91972118D02*
X169611632Y-91895927D01*
X169611632Y-91895927D02*
X169649727Y-91857832D01*
X169649727Y-91857832D02*
X169725918Y-91819737D01*
X169725918Y-91819737D02*
X169916394Y-91819737D01*
X169916394Y-91819737D02*
X169992584Y-91857832D01*
X169992584Y-91857832D02*
X170030680Y-91895927D01*
X170030680Y-91895927D02*
X170068775Y-91972118D01*
X170068775Y-91972118D02*
X170068775Y-92200689D01*
X170068775Y-92200689D02*
X170030680Y-92276880D01*
X170030680Y-92276880D02*
X169992584Y-92314975D01*
X169992584Y-91476879D02*
X170030680Y-91438784D01*
X170030680Y-91438784D02*
X170068775Y-91476879D01*
X170068775Y-91476879D02*
X170030680Y-91514975D01*
X170030680Y-91514975D02*
X169992584Y-91476879D01*
X169992584Y-91476879D02*
X170068775Y-91476879D01*
X169268775Y-91172118D02*
X169268775Y-90676880D01*
X169268775Y-90676880D02*
X169573537Y-90943546D01*
X169573537Y-90943546D02*
X169573537Y-90829261D01*
X169573537Y-90829261D02*
X169611632Y-90753070D01*
X169611632Y-90753070D02*
X169649727Y-90714975D01*
X169649727Y-90714975D02*
X169725918Y-90676880D01*
X169725918Y-90676880D02*
X169916394Y-90676880D01*
X169916394Y-90676880D02*
X169992584Y-90714975D01*
X169992584Y-90714975D02*
X170030680Y-90753070D01*
X170030680Y-90753070D02*
X170068775Y-90829261D01*
X170068775Y-90829261D02*
X170068775Y-91057832D01*
X170068775Y-91057832D02*
X170030680Y-91134023D01*
X170030680Y-91134023D02*
X169992584Y-91172118D01*
X169268775Y-90448308D02*
X170068775Y-90181641D01*
X170068775Y-90181641D02*
X169268775Y-89914975D01*
X172289013Y-93229260D02*
X172289013Y-92619737D01*
X172593775Y-92924498D02*
X171984251Y-92924498D01*
X172593775Y-91819737D02*
X172593775Y-92276880D01*
X172593775Y-92048308D02*
X171793775Y-92048308D01*
X171793775Y-92048308D02*
X171908060Y-92124499D01*
X171908060Y-92124499D02*
X171984251Y-92200689D01*
X171984251Y-92200689D02*
X172022346Y-92276880D01*
X171869965Y-91514975D02*
X171831870Y-91476879D01*
X171831870Y-91476879D02*
X171793775Y-91400689D01*
X171793775Y-91400689D02*
X171793775Y-91210213D01*
X171793775Y-91210213D02*
X171831870Y-91134022D01*
X171831870Y-91134022D02*
X171869965Y-91095927D01*
X171869965Y-91095927D02*
X171946156Y-91057832D01*
X171946156Y-91057832D02*
X172022346Y-91057832D01*
X172022346Y-91057832D02*
X172136632Y-91095927D01*
X172136632Y-91095927D02*
X172593775Y-91553070D01*
X172593775Y-91553070D02*
X172593775Y-91057832D01*
X171793775Y-90829260D02*
X172593775Y-90562593D01*
X172593775Y-90562593D02*
X171793775Y-90295927D01*
X120596296Y-84047619D02*
X120558201Y-84123810D01*
X120558201Y-84123810D02*
X120558201Y-84276191D01*
X120558201Y-84276191D02*
X120596296Y-84352381D01*
X120596296Y-84352381D02*
X120672486Y-84428572D01*
X120672486Y-84428572D02*
X120748677Y-84466667D01*
X120748677Y-84466667D02*
X120901058Y-84466667D01*
X120901058Y-84466667D02*
X120977248Y-84428572D01*
X120977248Y-84428572D02*
X121053439Y-84352381D01*
X121053439Y-84352381D02*
X121091534Y-84276191D01*
X121091534Y-84276191D02*
X121091534Y-84123810D01*
X121091534Y-84123810D02*
X121053439Y-84047619D01*
X120291534Y-84200000D02*
X120329629Y-84390476D01*
X120329629Y-84390476D02*
X120443915Y-84580953D01*
X120443915Y-84580953D02*
X120634391Y-84695238D01*
X120634391Y-84695238D02*
X120824867Y-84733334D01*
X120824867Y-84733334D02*
X121015344Y-84695238D01*
X121015344Y-84695238D02*
X121205820Y-84580953D01*
X121205820Y-84580953D02*
X121320105Y-84390476D01*
X121320105Y-84390476D02*
X121358201Y-84200000D01*
X121358201Y-84200000D02*
X121320105Y-84009524D01*
X121320105Y-84009524D02*
X121205820Y-83819048D01*
X121205820Y-83819048D02*
X121015344Y-83704762D01*
X121015344Y-83704762D02*
X120824867Y-83666667D01*
X120824867Y-83666667D02*
X120634391Y-83704762D01*
X120634391Y-83704762D02*
X120443915Y-83819048D01*
X120443915Y-83819048D02*
X120329629Y-84009524D01*
X120329629Y-84009524D02*
X120291534Y-84200000D01*
X121205820Y-82714285D02*
X120405820Y-82714285D01*
X120405820Y-82714285D02*
X120405820Y-82409523D01*
X120405820Y-82409523D02*
X120443915Y-82333333D01*
X120443915Y-82333333D02*
X120482010Y-82295238D01*
X120482010Y-82295238D02*
X120558201Y-82257142D01*
X120558201Y-82257142D02*
X120672486Y-82257142D01*
X120672486Y-82257142D02*
X120748677Y-82295238D01*
X120748677Y-82295238D02*
X120786772Y-82333333D01*
X120786772Y-82333333D02*
X120824867Y-82409523D01*
X120824867Y-82409523D02*
X120824867Y-82714285D01*
X121167725Y-81609523D02*
X121205820Y-81685714D01*
X121205820Y-81685714D02*
X121205820Y-81838095D01*
X121205820Y-81838095D02*
X121167725Y-81914285D01*
X121167725Y-81914285D02*
X121091534Y-81952381D01*
X121091534Y-81952381D02*
X120786772Y-81952381D01*
X120786772Y-81952381D02*
X120710582Y-81914285D01*
X120710582Y-81914285D02*
X120672486Y-81838095D01*
X120672486Y-81838095D02*
X120672486Y-81685714D01*
X120672486Y-81685714D02*
X120710582Y-81609523D01*
X120710582Y-81609523D02*
X120786772Y-81571428D01*
X120786772Y-81571428D02*
X120862963Y-81571428D01*
X120862963Y-81571428D02*
X120939153Y-81952381D01*
X121205820Y-81114286D02*
X121167725Y-81190476D01*
X121167725Y-81190476D02*
X121091534Y-81228571D01*
X121091534Y-81228571D02*
X120405820Y-81228571D01*
X121205820Y-80695238D02*
X121167725Y-80771428D01*
X121167725Y-80771428D02*
X121091534Y-80809523D01*
X121091534Y-80809523D02*
X120405820Y-80809523D01*
X121167725Y-80085713D02*
X121205820Y-80161904D01*
X121205820Y-80161904D02*
X121205820Y-80314285D01*
X121205820Y-80314285D02*
X121167725Y-80390475D01*
X121167725Y-80390475D02*
X121091534Y-80428571D01*
X121091534Y-80428571D02*
X120786772Y-80428571D01*
X120786772Y-80428571D02*
X120710582Y-80390475D01*
X120710582Y-80390475D02*
X120672486Y-80314285D01*
X120672486Y-80314285D02*
X120672486Y-80161904D01*
X120672486Y-80161904D02*
X120710582Y-80085713D01*
X120710582Y-80085713D02*
X120786772Y-80047618D01*
X120786772Y-80047618D02*
X120862963Y-80047618D01*
X120862963Y-80047618D02*
X120939153Y-80428571D01*
X120672486Y-79819047D02*
X120672486Y-79514285D01*
X120405820Y-79704761D02*
X121091534Y-79704761D01*
X121091534Y-79704761D02*
X121167725Y-79666666D01*
X121167725Y-79666666D02*
X121205820Y-79590476D01*
X121205820Y-79590476D02*
X121205820Y-79514285D01*
X121205820Y-79247618D02*
X120405820Y-79247618D01*
X120405820Y-79247618D02*
X120405820Y-78942856D01*
X120405820Y-78942856D02*
X120443915Y-78866666D01*
X120443915Y-78866666D02*
X120482010Y-78828571D01*
X120482010Y-78828571D02*
X120558201Y-78790475D01*
X120558201Y-78790475D02*
X120672486Y-78790475D01*
X120672486Y-78790475D02*
X120748677Y-78828571D01*
X120748677Y-78828571D02*
X120786772Y-78866666D01*
X120786772Y-78866666D02*
X120824867Y-78942856D01*
X120824867Y-78942856D02*
X120824867Y-79247618D01*
X121205820Y-78447618D02*
X120672486Y-78447618D01*
X120405820Y-78447618D02*
X120443915Y-78485714D01*
X120443915Y-78485714D02*
X120482010Y-78447618D01*
X120482010Y-78447618D02*
X120443915Y-78409523D01*
X120443915Y-78409523D02*
X120405820Y-78447618D01*
X120405820Y-78447618D02*
X120482010Y-78447618D01*
X121205820Y-78066666D02*
X120672486Y-78066666D01*
X120824867Y-78066666D02*
X120748677Y-78028571D01*
X120748677Y-78028571D02*
X120710582Y-77990476D01*
X120710582Y-77990476D02*
X120672486Y-77914285D01*
X120672486Y-77914285D02*
X120672486Y-77838095D01*
X121205820Y-77228571D02*
X120786772Y-77228571D01*
X120786772Y-77228571D02*
X120710582Y-77266666D01*
X120710582Y-77266666D02*
X120672486Y-77342857D01*
X120672486Y-77342857D02*
X120672486Y-77495238D01*
X120672486Y-77495238D02*
X120710582Y-77571428D01*
X121167725Y-77228571D02*
X121205820Y-77304762D01*
X121205820Y-77304762D02*
X121205820Y-77495238D01*
X121205820Y-77495238D02*
X121167725Y-77571428D01*
X121167725Y-77571428D02*
X121091534Y-77609524D01*
X121091534Y-77609524D02*
X121015344Y-77609524D01*
X121015344Y-77609524D02*
X120939153Y-77571428D01*
X120939153Y-77571428D02*
X120901058Y-77495238D01*
X120901058Y-77495238D02*
X120901058Y-77304762D01*
X120901058Y-77304762D02*
X120862963Y-77228571D01*
X120672486Y-76961904D02*
X120672486Y-76657142D01*
X120405820Y-76847618D02*
X121091534Y-76847618D01*
X121091534Y-76847618D02*
X121167725Y-76809523D01*
X121167725Y-76809523D02*
X121205820Y-76733333D01*
X121205820Y-76733333D02*
X121205820Y-76657142D01*
X121167725Y-76085713D02*
X121205820Y-76161904D01*
X121205820Y-76161904D02*
X121205820Y-76314285D01*
X121205820Y-76314285D02*
X121167725Y-76390475D01*
X121167725Y-76390475D02*
X121091534Y-76428571D01*
X121091534Y-76428571D02*
X120786772Y-76428571D01*
X120786772Y-76428571D02*
X120710582Y-76390475D01*
X120710582Y-76390475D02*
X120672486Y-76314285D01*
X120672486Y-76314285D02*
X120672486Y-76161904D01*
X120672486Y-76161904D02*
X120710582Y-76085713D01*
X120710582Y-76085713D02*
X120786772Y-76047618D01*
X120786772Y-76047618D02*
X120862963Y-76047618D01*
X120862963Y-76047618D02*
X120939153Y-76428571D01*
X120672486Y-75171428D02*
X121205820Y-74980952D01*
X121205820Y-74980952D02*
X120672486Y-74790475D01*
X120405820Y-74104761D02*
X120405820Y-74485713D01*
X120405820Y-74485713D02*
X120786772Y-74523809D01*
X120786772Y-74523809D02*
X120748677Y-74485713D01*
X120748677Y-74485713D02*
X120710582Y-74409523D01*
X120710582Y-74409523D02*
X120710582Y-74219047D01*
X120710582Y-74219047D02*
X120748677Y-74142856D01*
X120748677Y-74142856D02*
X120786772Y-74104761D01*
X120786772Y-74104761D02*
X120862963Y-74066666D01*
X120862963Y-74066666D02*
X121053439Y-74066666D01*
X121053439Y-74066666D02*
X121129629Y-74104761D01*
X121129629Y-74104761D02*
X121167725Y-74142856D01*
X121167725Y-74142856D02*
X121205820Y-74219047D01*
X121205820Y-74219047D02*
X121205820Y-74409523D01*
X121205820Y-74409523D02*
X121167725Y-74485713D01*
X121167725Y-74485713D02*
X121129629Y-74523809D01*
X121129629Y-73723808D02*
X121167725Y-73685713D01*
X121167725Y-73685713D02*
X121205820Y-73723808D01*
X121205820Y-73723808D02*
X121167725Y-73761904D01*
X121167725Y-73761904D02*
X121129629Y-73723808D01*
X121129629Y-73723808D02*
X121205820Y-73723808D01*
X120405820Y-73190475D02*
X120405820Y-73114285D01*
X120405820Y-73114285D02*
X120443915Y-73038094D01*
X120443915Y-73038094D02*
X120482010Y-72999999D01*
X120482010Y-72999999D02*
X120558201Y-72961904D01*
X120558201Y-72961904D02*
X120710582Y-72923809D01*
X120710582Y-72923809D02*
X120901058Y-72923809D01*
X120901058Y-72923809D02*
X121053439Y-72961904D01*
X121053439Y-72961904D02*
X121129629Y-72999999D01*
X121129629Y-72999999D02*
X121167725Y-73038094D01*
X121167725Y-73038094D02*
X121205820Y-73114285D01*
X121205820Y-73114285D02*
X121205820Y-73190475D01*
X121205820Y-73190475D02*
X121167725Y-73266666D01*
X121167725Y-73266666D02*
X121129629Y-73304761D01*
X121129629Y-73304761D02*
X121053439Y-73342856D01*
X121053439Y-73342856D02*
X120901058Y-73380952D01*
X120901058Y-73380952D02*
X120710582Y-73380952D01*
X120710582Y-73380952D02*
X120558201Y-73342856D01*
X120558201Y-73342856D02*
X120482010Y-73304761D01*
X120482010Y-73304761D02*
X120443915Y-73266666D01*
X120443915Y-73266666D02*
X120405820Y-73190475D01*
X120482010Y-72009523D02*
X120443915Y-71971427D01*
X120443915Y-71971427D02*
X120405820Y-71895237D01*
X120405820Y-71895237D02*
X120405820Y-71704761D01*
X120405820Y-71704761D02*
X120443915Y-71628570D01*
X120443915Y-71628570D02*
X120482010Y-71590475D01*
X120482010Y-71590475D02*
X120558201Y-71552380D01*
X120558201Y-71552380D02*
X120634391Y-71552380D01*
X120634391Y-71552380D02*
X120748677Y-71590475D01*
X120748677Y-71590475D02*
X121205820Y-72047618D01*
X121205820Y-72047618D02*
X121205820Y-71552380D01*
X120405820Y-71057141D02*
X120405820Y-70980951D01*
X120405820Y-70980951D02*
X120443915Y-70904760D01*
X120443915Y-70904760D02*
X120482010Y-70866665D01*
X120482010Y-70866665D02*
X120558201Y-70828570D01*
X120558201Y-70828570D02*
X120710582Y-70790475D01*
X120710582Y-70790475D02*
X120901058Y-70790475D01*
X120901058Y-70790475D02*
X121053439Y-70828570D01*
X121053439Y-70828570D02*
X121129629Y-70866665D01*
X121129629Y-70866665D02*
X121167725Y-70904760D01*
X121167725Y-70904760D02*
X121205820Y-70980951D01*
X121205820Y-70980951D02*
X121205820Y-71057141D01*
X121205820Y-71057141D02*
X121167725Y-71133332D01*
X121167725Y-71133332D02*
X121129629Y-71171427D01*
X121129629Y-71171427D02*
X121053439Y-71209522D01*
X121053439Y-71209522D02*
X120901058Y-71247618D01*
X120901058Y-71247618D02*
X120710582Y-71247618D01*
X120710582Y-71247618D02*
X120558201Y-71209522D01*
X120558201Y-71209522D02*
X120482010Y-71171427D01*
X120482010Y-71171427D02*
X120443915Y-71133332D01*
X120443915Y-71133332D02*
X120405820Y-71057141D01*
X120482010Y-70485713D02*
X120443915Y-70447617D01*
X120443915Y-70447617D02*
X120405820Y-70371427D01*
X120405820Y-70371427D02*
X120405820Y-70180951D01*
X120405820Y-70180951D02*
X120443915Y-70104760D01*
X120443915Y-70104760D02*
X120482010Y-70066665D01*
X120482010Y-70066665D02*
X120558201Y-70028570D01*
X120558201Y-70028570D02*
X120634391Y-70028570D01*
X120634391Y-70028570D02*
X120748677Y-70066665D01*
X120748677Y-70066665D02*
X121205820Y-70523808D01*
X121205820Y-70523808D02*
X121205820Y-70028570D01*
X120405820Y-69342855D02*
X120405820Y-69495236D01*
X120405820Y-69495236D02*
X120443915Y-69571427D01*
X120443915Y-69571427D02*
X120482010Y-69609522D01*
X120482010Y-69609522D02*
X120596296Y-69685712D01*
X120596296Y-69685712D02*
X120748677Y-69723808D01*
X120748677Y-69723808D02*
X121053439Y-69723808D01*
X121053439Y-69723808D02*
X121129629Y-69685712D01*
X121129629Y-69685712D02*
X121167725Y-69647617D01*
X121167725Y-69647617D02*
X121205820Y-69571427D01*
X121205820Y-69571427D02*
X121205820Y-69419046D01*
X121205820Y-69419046D02*
X121167725Y-69342855D01*
X121167725Y-69342855D02*
X121129629Y-69304760D01*
X121129629Y-69304760D02*
X121053439Y-69266665D01*
X121053439Y-69266665D02*
X120862963Y-69266665D01*
X120862963Y-69266665D02*
X120786772Y-69304760D01*
X120786772Y-69304760D02*
X120748677Y-69342855D01*
X120748677Y-69342855D02*
X120710582Y-69419046D01*
X120710582Y-69419046D02*
X120710582Y-69571427D01*
X120710582Y-69571427D02*
X120748677Y-69647617D01*
X120748677Y-69647617D02*
X120786772Y-69685712D01*
X120786772Y-69685712D02*
X120862963Y-69723808D01*
X121693775Y-85476190D02*
X121846156Y-85476190D01*
X121693775Y-85171428D02*
X121846156Y-85171428D01*
X122493775Y-84828570D02*
X121693775Y-84828570D01*
X121960441Y-84561904D02*
X121960441Y-84257142D01*
X121693775Y-84447618D02*
X122379489Y-84447618D01*
X122379489Y-84447618D02*
X122455680Y-84409523D01*
X122455680Y-84409523D02*
X122493775Y-84333333D01*
X122493775Y-84333333D02*
X122493775Y-84257142D01*
X121693775Y-83952380D02*
X121846156Y-84028571D01*
X122455680Y-83647619D02*
X122493775Y-83571428D01*
X122493775Y-83571428D02*
X122493775Y-83419047D01*
X122493775Y-83419047D02*
X122455680Y-83342857D01*
X122455680Y-83342857D02*
X122379489Y-83304761D01*
X122379489Y-83304761D02*
X122341394Y-83304761D01*
X122341394Y-83304761D02*
X122265203Y-83342857D01*
X122265203Y-83342857D02*
X122227108Y-83419047D01*
X122227108Y-83419047D02*
X122227108Y-83533333D01*
X122227108Y-83533333D02*
X122189013Y-83609523D01*
X122189013Y-83609523D02*
X122112822Y-83647619D01*
X122112822Y-83647619D02*
X122074727Y-83647619D01*
X122074727Y-83647619D02*
X121998537Y-83609523D01*
X121998537Y-83609523D02*
X121960441Y-83533333D01*
X121960441Y-83533333D02*
X121960441Y-83419047D01*
X121960441Y-83419047D02*
X121998537Y-83342857D01*
X122493775Y-82009523D02*
X122074727Y-82009523D01*
X122074727Y-82009523D02*
X121998537Y-82047618D01*
X121998537Y-82047618D02*
X121960441Y-82123809D01*
X121960441Y-82123809D02*
X121960441Y-82276190D01*
X121960441Y-82276190D02*
X121998537Y-82352380D01*
X122455680Y-82009523D02*
X122493775Y-82085714D01*
X122493775Y-82085714D02*
X122493775Y-82276190D01*
X122493775Y-82276190D02*
X122455680Y-82352380D01*
X122455680Y-82352380D02*
X122379489Y-82390476D01*
X122379489Y-82390476D02*
X122303299Y-82390476D01*
X122303299Y-82390476D02*
X122227108Y-82352380D01*
X122227108Y-82352380D02*
X122189013Y-82276190D01*
X122189013Y-82276190D02*
X122189013Y-82085714D01*
X122189013Y-82085714D02*
X122150918Y-82009523D01*
X122493775Y-81019046D02*
X121693775Y-81019046D01*
X121693775Y-81019046D02*
X121693775Y-80714284D01*
X121693775Y-80714284D02*
X121731870Y-80638094D01*
X121731870Y-80638094D02*
X121769965Y-80599999D01*
X121769965Y-80599999D02*
X121846156Y-80561903D01*
X121846156Y-80561903D02*
X121960441Y-80561903D01*
X121960441Y-80561903D02*
X122036632Y-80599999D01*
X122036632Y-80599999D02*
X122074727Y-80638094D01*
X122074727Y-80638094D02*
X122112822Y-80714284D01*
X122112822Y-80714284D02*
X122112822Y-81019046D01*
X122493775Y-80219046D02*
X121960441Y-80219046D01*
X121693775Y-80219046D02*
X121731870Y-80257142D01*
X121731870Y-80257142D02*
X121769965Y-80219046D01*
X121769965Y-80219046D02*
X121731870Y-80180951D01*
X121731870Y-80180951D02*
X121693775Y-80219046D01*
X121693775Y-80219046D02*
X121769965Y-80219046D01*
X122493775Y-79838094D02*
X121960441Y-79838094D01*
X122112822Y-79838094D02*
X122036632Y-79799999D01*
X122036632Y-79799999D02*
X121998537Y-79761904D01*
X121998537Y-79761904D02*
X121960441Y-79685713D01*
X121960441Y-79685713D02*
X121960441Y-79609523D01*
X122493775Y-78999999D02*
X122074727Y-78999999D01*
X122074727Y-78999999D02*
X121998537Y-79038094D01*
X121998537Y-79038094D02*
X121960441Y-79114285D01*
X121960441Y-79114285D02*
X121960441Y-79266666D01*
X121960441Y-79266666D02*
X121998537Y-79342856D01*
X122455680Y-78999999D02*
X122493775Y-79076190D01*
X122493775Y-79076190D02*
X122493775Y-79266666D01*
X122493775Y-79266666D02*
X122455680Y-79342856D01*
X122455680Y-79342856D02*
X122379489Y-79380952D01*
X122379489Y-79380952D02*
X122303299Y-79380952D01*
X122303299Y-79380952D02*
X122227108Y-79342856D01*
X122227108Y-79342856D02*
X122189013Y-79266666D01*
X122189013Y-79266666D02*
X122189013Y-79076190D01*
X122189013Y-79076190D02*
X122150918Y-78999999D01*
X121960441Y-78733332D02*
X121960441Y-78428570D01*
X121693775Y-78619046D02*
X122379489Y-78619046D01*
X122379489Y-78619046D02*
X122455680Y-78580951D01*
X122455680Y-78580951D02*
X122493775Y-78504761D01*
X122493775Y-78504761D02*
X122493775Y-78428570D01*
X122455680Y-77857141D02*
X122493775Y-77933332D01*
X122493775Y-77933332D02*
X122493775Y-78085713D01*
X122493775Y-78085713D02*
X122455680Y-78161903D01*
X122455680Y-78161903D02*
X122379489Y-78199999D01*
X122379489Y-78199999D02*
X122074727Y-78199999D01*
X122074727Y-78199999D02*
X121998537Y-78161903D01*
X121998537Y-78161903D02*
X121960441Y-78085713D01*
X121960441Y-78085713D02*
X121960441Y-77933332D01*
X121960441Y-77933332D02*
X121998537Y-77857141D01*
X121998537Y-77857141D02*
X122074727Y-77819046D01*
X122074727Y-77819046D02*
X122150918Y-77819046D01*
X122150918Y-77819046D02*
X122227108Y-78199999D01*
X121693775Y-77438094D02*
X121846156Y-77514285D01*
X122455680Y-77133333D02*
X122493775Y-77057142D01*
X122493775Y-77057142D02*
X122493775Y-76904761D01*
X122493775Y-76904761D02*
X122455680Y-76828571D01*
X122455680Y-76828571D02*
X122379489Y-76790475D01*
X122379489Y-76790475D02*
X122341394Y-76790475D01*
X122341394Y-76790475D02*
X122265203Y-76828571D01*
X122265203Y-76828571D02*
X122227108Y-76904761D01*
X122227108Y-76904761D02*
X122227108Y-77019047D01*
X122227108Y-77019047D02*
X122189013Y-77095237D01*
X122189013Y-77095237D02*
X122112822Y-77133333D01*
X122112822Y-77133333D02*
X122074727Y-77133333D01*
X122074727Y-77133333D02*
X121998537Y-77095237D01*
X121998537Y-77095237D02*
X121960441Y-77019047D01*
X121960441Y-77019047D02*
X121960441Y-76904761D01*
X121960441Y-76904761D02*
X121998537Y-76828571D01*
X122493775Y-75457142D02*
X122493775Y-75838094D01*
X122493775Y-75838094D02*
X121693775Y-75838094D01*
X122493775Y-75190475D02*
X121960441Y-75190475D01*
X121693775Y-75190475D02*
X121731870Y-75228571D01*
X121731870Y-75228571D02*
X121769965Y-75190475D01*
X121769965Y-75190475D02*
X121731870Y-75152380D01*
X121731870Y-75152380D02*
X121693775Y-75190475D01*
X121693775Y-75190475D02*
X121769965Y-75190475D01*
X121960441Y-74923809D02*
X121960441Y-74619047D01*
X122493775Y-74809523D02*
X121808060Y-74809523D01*
X121808060Y-74809523D02*
X121731870Y-74771428D01*
X121731870Y-74771428D02*
X121693775Y-74695238D01*
X121693775Y-74695238D02*
X121693775Y-74619047D01*
X122455680Y-74047618D02*
X122493775Y-74123809D01*
X122493775Y-74123809D02*
X122493775Y-74276190D01*
X122493775Y-74276190D02*
X122455680Y-74352380D01*
X122455680Y-74352380D02*
X122379489Y-74390476D01*
X122379489Y-74390476D02*
X122074727Y-74390476D01*
X122074727Y-74390476D02*
X121998537Y-74352380D01*
X121998537Y-74352380D02*
X121960441Y-74276190D01*
X121960441Y-74276190D02*
X121960441Y-74123809D01*
X121960441Y-74123809D02*
X121998537Y-74047618D01*
X121998537Y-74047618D02*
X122074727Y-74009523D01*
X122074727Y-74009523D02*
X122150918Y-74009523D01*
X122150918Y-74009523D02*
X122227108Y-74390476D01*
X121960441Y-73171428D02*
X121960441Y-72866666D01*
X122493775Y-73057142D02*
X121808060Y-73057142D01*
X121808060Y-73057142D02*
X121731870Y-73019047D01*
X121731870Y-73019047D02*
X121693775Y-72942857D01*
X121693775Y-72942857D02*
X121693775Y-72866666D01*
X122493775Y-72485714D02*
X122455680Y-72561904D01*
X122455680Y-72561904D02*
X122417584Y-72599999D01*
X122417584Y-72599999D02*
X122341394Y-72638095D01*
X122341394Y-72638095D02*
X122112822Y-72638095D01*
X122112822Y-72638095D02*
X122036632Y-72599999D01*
X122036632Y-72599999D02*
X121998537Y-72561904D01*
X121998537Y-72561904D02*
X121960441Y-72485714D01*
X121960441Y-72485714D02*
X121960441Y-72371428D01*
X121960441Y-72371428D02*
X121998537Y-72295237D01*
X121998537Y-72295237D02*
X122036632Y-72257142D01*
X122036632Y-72257142D02*
X122112822Y-72219047D01*
X122112822Y-72219047D02*
X122341394Y-72219047D01*
X122341394Y-72219047D02*
X122417584Y-72257142D01*
X122417584Y-72257142D02*
X122455680Y-72295237D01*
X122455680Y-72295237D02*
X122493775Y-72371428D01*
X122493775Y-72371428D02*
X122493775Y-72485714D01*
X122493775Y-71876189D02*
X121960441Y-71876189D01*
X122112822Y-71876189D02*
X122036632Y-71838094D01*
X122036632Y-71838094D02*
X121998537Y-71799999D01*
X121998537Y-71799999D02*
X121960441Y-71723808D01*
X121960441Y-71723808D02*
X121960441Y-71647618D01*
X122493775Y-70771427D02*
X121693775Y-70771427D01*
X121693775Y-70771427D02*
X122265203Y-70504761D01*
X122265203Y-70504761D02*
X121693775Y-70238094D01*
X121693775Y-70238094D02*
X122493775Y-70238094D01*
X122455680Y-69552379D02*
X122493775Y-69628570D01*
X122493775Y-69628570D02*
X122493775Y-69780951D01*
X122493775Y-69780951D02*
X122455680Y-69857141D01*
X122455680Y-69857141D02*
X122379489Y-69895237D01*
X122379489Y-69895237D02*
X122074727Y-69895237D01*
X122074727Y-69895237D02*
X121998537Y-69857141D01*
X121998537Y-69857141D02*
X121960441Y-69780951D01*
X121960441Y-69780951D02*
X121960441Y-69628570D01*
X121960441Y-69628570D02*
X121998537Y-69552379D01*
X121998537Y-69552379D02*
X122074727Y-69514284D01*
X122074727Y-69514284D02*
X122150918Y-69514284D01*
X122150918Y-69514284D02*
X122227108Y-69895237D01*
X122417584Y-69171427D02*
X122455680Y-69133332D01*
X122455680Y-69133332D02*
X122493775Y-69171427D01*
X122493775Y-69171427D02*
X122455680Y-69209523D01*
X122455680Y-69209523D02*
X122417584Y-69171427D01*
X122417584Y-69171427D02*
X122493775Y-69171427D01*
X122189013Y-69171427D02*
X121731870Y-69209523D01*
X121731870Y-69209523D02*
X121693775Y-69171427D01*
X121693775Y-69171427D02*
X121731870Y-69133332D01*
X121731870Y-69133332D02*
X122189013Y-69171427D01*
X122189013Y-69171427D02*
X121693775Y-69171427D01*
X121693775Y-68828571D02*
X121846156Y-68828571D01*
X121693775Y-68523809D02*
X121846156Y-68523809D01*
D12*
X180666666Y-101062295D02*
X180285714Y-101062295D01*
X180285714Y-101062295D02*
X180285714Y-100262295D01*
X181352380Y-101062295D02*
X180895237Y-101062295D01*
X181123809Y-101062295D02*
X181123809Y-100262295D01*
X181123809Y-100262295D02*
X181047618Y-100376580D01*
X181047618Y-100376580D02*
X180971428Y-100452771D01*
X180971428Y-100452771D02*
X180895237Y-100490866D01*
D13*
X128133333Y-144402219D02*
X128133333Y-143402219D01*
X129133332Y-143449838D02*
X129038094Y-143402219D01*
X129038094Y-143402219D02*
X128895237Y-143402219D01*
X128895237Y-143402219D02*
X128752380Y-143449838D01*
X128752380Y-143449838D02*
X128657142Y-143545076D01*
X128657142Y-143545076D02*
X128609523Y-143640314D01*
X128609523Y-143640314D02*
X128561904Y-143830790D01*
X128561904Y-143830790D02*
X128561904Y-143973647D01*
X128561904Y-143973647D02*
X128609523Y-144164123D01*
X128609523Y-144164123D02*
X128657142Y-144259361D01*
X128657142Y-144259361D02*
X128752380Y-144354600D01*
X128752380Y-144354600D02*
X128895237Y-144402219D01*
X128895237Y-144402219D02*
X128990475Y-144402219D01*
X128990475Y-144402219D02*
X129133332Y-144354600D01*
X129133332Y-144354600D02*
X129180951Y-144306980D01*
X129180951Y-144306980D02*
X129180951Y-143973647D01*
X129180951Y-143973647D02*
X128990475Y-143973647D01*
X129609523Y-144402219D02*
X129609523Y-143402219D01*
X129609523Y-143402219D02*
X130180951Y-144402219D01*
X130180951Y-144402219D02*
X130180951Y-143402219D01*
X130657142Y-144402219D02*
X130657142Y-143402219D01*
X130990475Y-143402219D02*
X131561903Y-143402219D01*
X131276189Y-144402219D02*
X131276189Y-143402219D01*
X131895237Y-143878409D02*
X132228570Y-143878409D01*
X132371427Y-144402219D02*
X131895237Y-144402219D01*
X131895237Y-144402219D02*
X131895237Y-143402219D01*
X131895237Y-143402219D02*
X132371427Y-143402219D01*
X133371427Y-144402219D02*
X133038094Y-143926028D01*
X132799999Y-144402219D02*
X132799999Y-143402219D01*
X132799999Y-143402219D02*
X133180951Y-143402219D01*
X133180951Y-143402219D02*
X133276189Y-143449838D01*
X133276189Y-143449838D02*
X133323808Y-143497457D01*
X133323808Y-143497457D02*
X133371427Y-143592695D01*
X133371427Y-143592695D02*
X133371427Y-143735552D01*
X133371427Y-143735552D02*
X133323808Y-143830790D01*
X133323808Y-143830790D02*
X133276189Y-143878409D01*
X133276189Y-143878409D02*
X133180951Y-143926028D01*
X133180951Y-143926028D02*
X132799999Y-143926028D01*
X134085713Y-144783171D02*
X134038094Y-144735552D01*
X134038094Y-144735552D02*
X133942856Y-144592695D01*
X133942856Y-144592695D02*
X133895237Y-144497457D01*
X133895237Y-144497457D02*
X133847618Y-144354600D01*
X133847618Y-144354600D02*
X133799999Y-144116504D01*
X133799999Y-144116504D02*
X133799999Y-143926028D01*
X133799999Y-143926028D02*
X133847618Y-143687933D01*
X133847618Y-143687933D02*
X133895237Y-143545076D01*
X133895237Y-143545076D02*
X133942856Y-143449838D01*
X133942856Y-143449838D02*
X134038094Y-143306980D01*
X134038094Y-143306980D02*
X134085713Y-143259361D01*
X134942856Y-144402219D02*
X134466666Y-144402219D01*
X134466666Y-144402219D02*
X134466666Y-143402219D01*
X135180952Y-144783171D02*
X135228571Y-144735552D01*
X135228571Y-144735552D02*
X135323809Y-144592695D01*
X135323809Y-144592695D02*
X135371428Y-144497457D01*
X135371428Y-144497457D02*
X135419047Y-144354600D01*
X135419047Y-144354600D02*
X135466666Y-144116504D01*
X135466666Y-144116504D02*
X135466666Y-143926028D01*
X135466666Y-143926028D02*
X135419047Y-143687933D01*
X135419047Y-143687933D02*
X135371428Y-143545076D01*
X135371428Y-143545076D02*
X135323809Y-143449838D01*
X135323809Y-143449838D02*
X135228571Y-143306980D01*
X135228571Y-143306980D02*
X135180952Y-143259361D01*
D12*
X155866666Y-66743247D02*
X156133332Y-66743247D01*
X156247618Y-67162295D02*
X155866666Y-67162295D01*
X155866666Y-67162295D02*
X155866666Y-66362295D01*
X155866666Y-66362295D02*
X156247618Y-66362295D01*
X156552380Y-67124200D02*
X156666666Y-67162295D01*
X156666666Y-67162295D02*
X156857142Y-67162295D01*
X156857142Y-67162295D02*
X156933333Y-67124200D01*
X156933333Y-67124200D02*
X156971428Y-67086104D01*
X156971428Y-67086104D02*
X157009523Y-67009914D01*
X157009523Y-67009914D02*
X157009523Y-66933723D01*
X157009523Y-66933723D02*
X156971428Y-66857533D01*
X156971428Y-66857533D02*
X156933333Y-66819438D01*
X156933333Y-66819438D02*
X156857142Y-66781342D01*
X156857142Y-66781342D02*
X156704761Y-66743247D01*
X156704761Y-66743247D02*
X156628571Y-66705152D01*
X156628571Y-66705152D02*
X156590476Y-66667057D01*
X156590476Y-66667057D02*
X156552380Y-66590866D01*
X156552380Y-66590866D02*
X156552380Y-66514676D01*
X156552380Y-66514676D02*
X156590476Y-66438485D01*
X156590476Y-66438485D02*
X156628571Y-66400390D01*
X156628571Y-66400390D02*
X156704761Y-66362295D01*
X156704761Y-66362295D02*
X156895238Y-66362295D01*
X156895238Y-66362295D02*
X157009523Y-66400390D01*
X157352381Y-67162295D02*
X157352381Y-66362295D01*
X157352381Y-66362295D02*
X157657143Y-66362295D01*
X157657143Y-66362295D02*
X157733333Y-66400390D01*
X157733333Y-66400390D02*
X157771428Y-66438485D01*
X157771428Y-66438485D02*
X157809524Y-66514676D01*
X157809524Y-66514676D02*
X157809524Y-66628961D01*
X157809524Y-66628961D02*
X157771428Y-66705152D01*
X157771428Y-66705152D02*
X157733333Y-66743247D01*
X157733333Y-66743247D02*
X157657143Y-66781342D01*
X157657143Y-66781342D02*
X157352381Y-66781342D01*
X158571428Y-67162295D02*
X158114285Y-67162295D01*
X158342857Y-67162295D02*
X158342857Y-66362295D01*
X158342857Y-66362295D02*
X158266666Y-66476580D01*
X158266666Y-66476580D02*
X158190476Y-66552771D01*
X158190476Y-66552771D02*
X158114285Y-66590866D01*
D13*
X144714285Y-144166504D02*
X145190475Y-144166504D01*
X144619047Y-144452219D02*
X144952380Y-143452219D01*
X144952380Y-143452219D02*
X145285713Y-144452219D01*
X145619047Y-143452219D02*
X145619047Y-144261742D01*
X145619047Y-144261742D02*
X145666666Y-144356980D01*
X145666666Y-144356980D02*
X145714285Y-144404600D01*
X145714285Y-144404600D02*
X145809523Y-144452219D01*
X145809523Y-144452219D02*
X145999999Y-144452219D01*
X145999999Y-144452219D02*
X146095237Y-144404600D01*
X146095237Y-144404600D02*
X146142856Y-144356980D01*
X146142856Y-144356980D02*
X146190475Y-144261742D01*
X146190475Y-144261742D02*
X146190475Y-143452219D01*
X147190475Y-143499838D02*
X147095237Y-143452219D01*
X147095237Y-143452219D02*
X146952380Y-143452219D01*
X146952380Y-143452219D02*
X146809523Y-143499838D01*
X146809523Y-143499838D02*
X146714285Y-143595076D01*
X146714285Y-143595076D02*
X146666666Y-143690314D01*
X146666666Y-143690314D02*
X146619047Y-143880790D01*
X146619047Y-143880790D02*
X146619047Y-144023647D01*
X146619047Y-144023647D02*
X146666666Y-144214123D01*
X146666666Y-144214123D02*
X146714285Y-144309361D01*
X146714285Y-144309361D02*
X146809523Y-144404600D01*
X146809523Y-144404600D02*
X146952380Y-144452219D01*
X146952380Y-144452219D02*
X147047618Y-144452219D01*
X147047618Y-144452219D02*
X147190475Y-144404600D01*
X147190475Y-144404600D02*
X147238094Y-144356980D01*
X147238094Y-144356980D02*
X147238094Y-144023647D01*
X147238094Y-144023647D02*
X147047618Y-144023647D01*
X147666666Y-143928409D02*
X147999999Y-143928409D01*
X148142856Y-144452219D02*
X147666666Y-144452219D01*
X147666666Y-144452219D02*
X147666666Y-143452219D01*
X147666666Y-143452219D02*
X148142856Y-143452219D01*
X149142856Y-144452219D02*
X148809523Y-143976028D01*
X148571428Y-144452219D02*
X148571428Y-143452219D01*
X148571428Y-143452219D02*
X148952380Y-143452219D01*
X148952380Y-143452219D02*
X149047618Y-143499838D01*
X149047618Y-143499838D02*
X149095237Y-143547457D01*
X149095237Y-143547457D02*
X149142856Y-143642695D01*
X149142856Y-143642695D02*
X149142856Y-143785552D01*
X149142856Y-143785552D02*
X149095237Y-143880790D01*
X149095237Y-143880790D02*
X149047618Y-143928409D01*
X149047618Y-143928409D02*
X148952380Y-143976028D01*
X148952380Y-143976028D02*
X148571428Y-143976028D01*
X149857142Y-144833171D02*
X149809523Y-144785552D01*
X149809523Y-144785552D02*
X149714285Y-144642695D01*
X149714285Y-144642695D02*
X149666666Y-144547457D01*
X149666666Y-144547457D02*
X149619047Y-144404600D01*
X149619047Y-144404600D02*
X149571428Y-144166504D01*
X149571428Y-144166504D02*
X149571428Y-143976028D01*
X149571428Y-143976028D02*
X149619047Y-143737933D01*
X149619047Y-143737933D02*
X149666666Y-143595076D01*
X149666666Y-143595076D02*
X149714285Y-143499838D01*
X149714285Y-143499838D02*
X149809523Y-143356980D01*
X149809523Y-143356980D02*
X149857142Y-143309361D01*
X150714285Y-144452219D02*
X150238095Y-144452219D01*
X150238095Y-144452219D02*
X150238095Y-143452219D01*
X150952381Y-144833171D02*
X151000000Y-144785552D01*
X151000000Y-144785552D02*
X151095238Y-144642695D01*
X151095238Y-144642695D02*
X151142857Y-144547457D01*
X151142857Y-144547457D02*
X151190476Y-144404600D01*
X151190476Y-144404600D02*
X151238095Y-144166504D01*
X151238095Y-144166504D02*
X151238095Y-143976028D01*
X151238095Y-143976028D02*
X151190476Y-143737933D01*
X151190476Y-143737933D02*
X151142857Y-143595076D01*
X151142857Y-143595076D02*
X151095238Y-143499838D01*
X151095238Y-143499838D02*
X151000000Y-143356980D01*
X151000000Y-143356980D02*
X150952381Y-143309361D01*
D12*
X139185714Y-74462295D02*
X138919047Y-74081342D01*
X138728571Y-74462295D02*
X138728571Y-73662295D01*
X138728571Y-73662295D02*
X139033333Y-73662295D01*
X139033333Y-73662295D02*
X139109523Y-73700390D01*
X139109523Y-73700390D02*
X139147618Y-73738485D01*
X139147618Y-73738485D02*
X139185714Y-73814676D01*
X139185714Y-73814676D02*
X139185714Y-73928961D01*
X139185714Y-73928961D02*
X139147618Y-74005152D01*
X139147618Y-74005152D02*
X139109523Y-74043247D01*
X139109523Y-74043247D02*
X139033333Y-74081342D01*
X139033333Y-74081342D02*
X138728571Y-74081342D01*
X139452380Y-73662295D02*
X139947618Y-73662295D01*
X139947618Y-73662295D02*
X139680952Y-73967057D01*
X139680952Y-73967057D02*
X139795237Y-73967057D01*
X139795237Y-73967057D02*
X139871428Y-74005152D01*
X139871428Y-74005152D02*
X139909523Y-74043247D01*
X139909523Y-74043247D02*
X139947618Y-74119438D01*
X139947618Y-74119438D02*
X139947618Y-74309914D01*
X139947618Y-74309914D02*
X139909523Y-74386104D01*
X139909523Y-74386104D02*
X139871428Y-74424200D01*
X139871428Y-74424200D02*
X139795237Y-74462295D01*
X139795237Y-74462295D02*
X139566666Y-74462295D01*
X139566666Y-74462295D02*
X139490475Y-74424200D01*
X139490475Y-74424200D02*
X139452380Y-74386104D01*
X140214285Y-73662295D02*
X140709523Y-73662295D01*
X140709523Y-73662295D02*
X140442857Y-73967057D01*
X140442857Y-73967057D02*
X140557142Y-73967057D01*
X140557142Y-73967057D02*
X140633333Y-74005152D01*
X140633333Y-74005152D02*
X140671428Y-74043247D01*
X140671428Y-74043247D02*
X140709523Y-74119438D01*
X140709523Y-74119438D02*
X140709523Y-74309914D01*
X140709523Y-74309914D02*
X140671428Y-74386104D01*
X140671428Y-74386104D02*
X140633333Y-74424200D01*
X140633333Y-74424200D02*
X140557142Y-74462295D01*
X140557142Y-74462295D02*
X140328571Y-74462295D01*
X140328571Y-74462295D02*
X140252380Y-74424200D01*
X140252380Y-74424200D02*
X140214285Y-74386104D01*
D13*
X122942857Y-137783171D02*
X122895238Y-137735552D01*
X122895238Y-137735552D02*
X122800000Y-137592695D01*
X122800000Y-137592695D02*
X122752381Y-137497457D01*
X122752381Y-137497457D02*
X122704762Y-137354600D01*
X122704762Y-137354600D02*
X122657143Y-137116504D01*
X122657143Y-137116504D02*
X122657143Y-136926028D01*
X122657143Y-136926028D02*
X122704762Y-136687933D01*
X122704762Y-136687933D02*
X122752381Y-136545076D01*
X122752381Y-136545076D02*
X122800000Y-136449838D01*
X122800000Y-136449838D02*
X122895238Y-136306980D01*
X122895238Y-136306980D02*
X122942857Y-136259361D01*
X123800000Y-137402219D02*
X123323810Y-137402219D01*
X123323810Y-137402219D02*
X123323810Y-136402219D01*
X124038096Y-137783171D02*
X124085715Y-137735552D01*
X124085715Y-137735552D02*
X124180953Y-137592695D01*
X124180953Y-137592695D02*
X124228572Y-137497457D01*
X124228572Y-137497457D02*
X124276191Y-137354600D01*
X124276191Y-137354600D02*
X124323810Y-137116504D01*
X124323810Y-137116504D02*
X124323810Y-136926028D01*
X124323810Y-136926028D02*
X124276191Y-136687933D01*
X124276191Y-136687933D02*
X124228572Y-136545076D01*
X124228572Y-136545076D02*
X124180953Y-136449838D01*
X124180953Y-136449838D02*
X124085715Y-136306980D01*
X124085715Y-136306980D02*
X124038096Y-136259361D01*
X124800001Y-137021266D02*
X125561906Y-137021266D01*
X126038096Y-137402219D02*
X126038096Y-136735552D01*
X126038096Y-136402219D02*
X125990477Y-136449838D01*
X125990477Y-136449838D02*
X126038096Y-136497457D01*
X126038096Y-136497457D02*
X126085715Y-136449838D01*
X126085715Y-136449838D02*
X126038096Y-136402219D01*
X126038096Y-136402219D02*
X126038096Y-136497457D01*
X126514286Y-136735552D02*
X126514286Y-137402219D01*
X126514286Y-136830790D02*
X126561905Y-136783171D01*
X126561905Y-136783171D02*
X126657143Y-136735552D01*
X126657143Y-136735552D02*
X126800000Y-136735552D01*
X126800000Y-136735552D02*
X126895238Y-136783171D01*
X126895238Y-136783171D02*
X126942857Y-136878409D01*
X126942857Y-136878409D02*
X126942857Y-137402219D01*
D12*
X144366667Y-102062295D02*
X144100000Y-101681342D01*
X143909524Y-102062295D02*
X143909524Y-101262295D01*
X143909524Y-101262295D02*
X144214286Y-101262295D01*
X144214286Y-101262295D02*
X144290476Y-101300390D01*
X144290476Y-101300390D02*
X144328571Y-101338485D01*
X144328571Y-101338485D02*
X144366667Y-101414676D01*
X144366667Y-101414676D02*
X144366667Y-101528961D01*
X144366667Y-101528961D02*
X144328571Y-101605152D01*
X144328571Y-101605152D02*
X144290476Y-101643247D01*
X144290476Y-101643247D02*
X144214286Y-101681342D01*
X144214286Y-101681342D02*
X143909524Y-101681342D01*
X144671428Y-101338485D02*
X144709524Y-101300390D01*
X144709524Y-101300390D02*
X144785714Y-101262295D01*
X144785714Y-101262295D02*
X144976190Y-101262295D01*
X144976190Y-101262295D02*
X145052381Y-101300390D01*
X145052381Y-101300390D02*
X145090476Y-101338485D01*
X145090476Y-101338485D02*
X145128571Y-101414676D01*
X145128571Y-101414676D02*
X145128571Y-101490866D01*
X145128571Y-101490866D02*
X145090476Y-101605152D01*
X145090476Y-101605152D02*
X144633333Y-102062295D01*
X144633333Y-102062295D02*
X145128571Y-102062295D01*
X182582142Y-119134580D02*
X182534523Y-119182200D01*
X182534523Y-119182200D02*
X182391666Y-119229819D01*
X182391666Y-119229819D02*
X182296428Y-119229819D01*
X182296428Y-119229819D02*
X182153571Y-119182200D01*
X182153571Y-119182200D02*
X182058333Y-119086961D01*
X182058333Y-119086961D02*
X182010714Y-118991723D01*
X182010714Y-118991723D02*
X181963095Y-118801247D01*
X181963095Y-118801247D02*
X181963095Y-118658390D01*
X181963095Y-118658390D02*
X182010714Y-118467914D01*
X182010714Y-118467914D02*
X182058333Y-118372676D01*
X182058333Y-118372676D02*
X182153571Y-118277438D01*
X182153571Y-118277438D02*
X182296428Y-118229819D01*
X182296428Y-118229819D02*
X182391666Y-118229819D01*
X182391666Y-118229819D02*
X182534523Y-118277438D01*
X182534523Y-118277438D02*
X182582142Y-118325057D01*
X183534523Y-119229819D02*
X182963095Y-119229819D01*
X183248809Y-119229819D02*
X183248809Y-118229819D01*
X183248809Y-118229819D02*
X183153571Y-118372676D01*
X183153571Y-118372676D02*
X183058333Y-118467914D01*
X183058333Y-118467914D02*
X182963095Y-118515533D01*
X183867857Y-118229819D02*
X184486904Y-118229819D01*
X184486904Y-118229819D02*
X184153571Y-118610771D01*
X184153571Y-118610771D02*
X184296428Y-118610771D01*
X184296428Y-118610771D02*
X184391666Y-118658390D01*
X184391666Y-118658390D02*
X184439285Y-118706009D01*
X184439285Y-118706009D02*
X184486904Y-118801247D01*
X184486904Y-118801247D02*
X184486904Y-119039342D01*
X184486904Y-119039342D02*
X184439285Y-119134580D01*
X184439285Y-119134580D02*
X184391666Y-119182200D01*
X184391666Y-119182200D02*
X184296428Y-119229819D01*
X184296428Y-119229819D02*
X184010714Y-119229819D01*
X184010714Y-119229819D02*
X183915476Y-119182200D01*
X183915476Y-119182200D02*
X183867857Y-119134580D01*
X122962295Y-76391666D02*
X123533723Y-76391666D01*
X123533723Y-76391666D02*
X123648009Y-76429761D01*
X123648009Y-76429761D02*
X123724200Y-76505952D01*
X123724200Y-76505952D02*
X123762295Y-76620237D01*
X123762295Y-76620237D02*
X123762295Y-76696428D01*
X123762295Y-75972618D02*
X123762295Y-75820237D01*
X123762295Y-75820237D02*
X123724200Y-75744047D01*
X123724200Y-75744047D02*
X123686104Y-75705951D01*
X123686104Y-75705951D02*
X123571819Y-75629761D01*
X123571819Y-75629761D02*
X123419438Y-75591666D01*
X123419438Y-75591666D02*
X123114676Y-75591666D01*
X123114676Y-75591666D02*
X123038485Y-75629761D01*
X123038485Y-75629761D02*
X123000390Y-75667856D01*
X123000390Y-75667856D02*
X122962295Y-75744047D01*
X122962295Y-75744047D02*
X122962295Y-75896428D01*
X122962295Y-75896428D02*
X123000390Y-75972618D01*
X123000390Y-75972618D02*
X123038485Y-76010713D01*
X123038485Y-76010713D02*
X123114676Y-76048809D01*
X123114676Y-76048809D02*
X123305152Y-76048809D01*
X123305152Y-76048809D02*
X123381342Y-76010713D01*
X123381342Y-76010713D02*
X123419438Y-75972618D01*
X123419438Y-75972618D02*
X123457533Y-75896428D01*
X123457533Y-75896428D02*
X123457533Y-75744047D01*
X123457533Y-75744047D02*
X123419438Y-75667856D01*
X123419438Y-75667856D02*
X123381342Y-75629761D01*
X123381342Y-75629761D02*
X123305152Y-75591666D01*
X135485714Y-108424795D02*
X135219047Y-108043842D01*
X135028571Y-108424795D02*
X135028571Y-107624795D01*
X135028571Y-107624795D02*
X135333333Y-107624795D01*
X135333333Y-107624795D02*
X135409523Y-107662890D01*
X135409523Y-107662890D02*
X135447618Y-107700985D01*
X135447618Y-107700985D02*
X135485714Y-107777176D01*
X135485714Y-107777176D02*
X135485714Y-107891461D01*
X135485714Y-107891461D02*
X135447618Y-107967652D01*
X135447618Y-107967652D02*
X135409523Y-108005747D01*
X135409523Y-108005747D02*
X135333333Y-108043842D01*
X135333333Y-108043842D02*
X135028571Y-108043842D01*
X135790475Y-107700985D02*
X135828571Y-107662890D01*
X135828571Y-107662890D02*
X135904761Y-107624795D01*
X135904761Y-107624795D02*
X136095237Y-107624795D01*
X136095237Y-107624795D02*
X136171428Y-107662890D01*
X136171428Y-107662890D02*
X136209523Y-107700985D01*
X136209523Y-107700985D02*
X136247618Y-107777176D01*
X136247618Y-107777176D02*
X136247618Y-107853366D01*
X136247618Y-107853366D02*
X136209523Y-107967652D01*
X136209523Y-107967652D02*
X135752380Y-108424795D01*
X135752380Y-108424795D02*
X136247618Y-108424795D01*
X136933333Y-107624795D02*
X136780952Y-107624795D01*
X136780952Y-107624795D02*
X136704761Y-107662890D01*
X136704761Y-107662890D02*
X136666666Y-107700985D01*
X136666666Y-107700985D02*
X136590476Y-107815271D01*
X136590476Y-107815271D02*
X136552380Y-107967652D01*
X136552380Y-107967652D02*
X136552380Y-108272414D01*
X136552380Y-108272414D02*
X136590476Y-108348604D01*
X136590476Y-108348604D02*
X136628571Y-108386700D01*
X136628571Y-108386700D02*
X136704761Y-108424795D01*
X136704761Y-108424795D02*
X136857142Y-108424795D01*
X136857142Y-108424795D02*
X136933333Y-108386700D01*
X136933333Y-108386700D02*
X136971428Y-108348604D01*
X136971428Y-108348604D02*
X137009523Y-108272414D01*
X137009523Y-108272414D02*
X137009523Y-108081938D01*
X137009523Y-108081938D02*
X136971428Y-108005747D01*
X136971428Y-108005747D02*
X136933333Y-107967652D01*
X136933333Y-107967652D02*
X136857142Y-107929557D01*
X136857142Y-107929557D02*
X136704761Y-107929557D01*
X136704761Y-107929557D02*
X136628571Y-107967652D01*
X136628571Y-107967652D02*
X136590476Y-108005747D01*
X136590476Y-108005747D02*
X136552380Y-108081938D01*
X126915476Y-84062295D02*
X127372619Y-84062295D01*
X127144047Y-84862295D02*
X127144047Y-84062295D01*
X127639286Y-84862295D02*
X127639286Y-84062295D01*
X127639286Y-84062295D02*
X127944048Y-84062295D01*
X127944048Y-84062295D02*
X128020238Y-84100390D01*
X128020238Y-84100390D02*
X128058333Y-84138485D01*
X128058333Y-84138485D02*
X128096429Y-84214676D01*
X128096429Y-84214676D02*
X128096429Y-84328961D01*
X128096429Y-84328961D02*
X128058333Y-84405152D01*
X128058333Y-84405152D02*
X128020238Y-84443247D01*
X128020238Y-84443247D02*
X127944048Y-84481342D01*
X127944048Y-84481342D02*
X127639286Y-84481342D01*
X128401190Y-84138485D02*
X128439286Y-84100390D01*
X128439286Y-84100390D02*
X128515476Y-84062295D01*
X128515476Y-84062295D02*
X128705952Y-84062295D01*
X128705952Y-84062295D02*
X128782143Y-84100390D01*
X128782143Y-84100390D02*
X128820238Y-84138485D01*
X128820238Y-84138485D02*
X128858333Y-84214676D01*
X128858333Y-84214676D02*
X128858333Y-84290866D01*
X128858333Y-84290866D02*
X128820238Y-84405152D01*
X128820238Y-84405152D02*
X128363095Y-84862295D01*
X128363095Y-84862295D02*
X128858333Y-84862295D01*
X144866667Y-114161104D02*
X144828571Y-114199200D01*
X144828571Y-114199200D02*
X144714286Y-114237295D01*
X144714286Y-114237295D02*
X144638095Y-114237295D01*
X144638095Y-114237295D02*
X144523809Y-114199200D01*
X144523809Y-114199200D02*
X144447619Y-114123009D01*
X144447619Y-114123009D02*
X144409524Y-114046819D01*
X144409524Y-114046819D02*
X144371428Y-113894438D01*
X144371428Y-113894438D02*
X144371428Y-113780152D01*
X144371428Y-113780152D02*
X144409524Y-113627771D01*
X144409524Y-113627771D02*
X144447619Y-113551580D01*
X144447619Y-113551580D02*
X144523809Y-113475390D01*
X144523809Y-113475390D02*
X144638095Y-113437295D01*
X144638095Y-113437295D02*
X144714286Y-113437295D01*
X144714286Y-113437295D02*
X144828571Y-113475390D01*
X144828571Y-113475390D02*
X144866667Y-113513485D01*
X145552381Y-113703961D02*
X145552381Y-114237295D01*
X145361905Y-113399200D02*
X145171428Y-113970628D01*
X145171428Y-113970628D02*
X145666667Y-113970628D01*
D13*
X130023809Y-137683171D02*
X129976190Y-137635552D01*
X129976190Y-137635552D02*
X129880952Y-137492695D01*
X129880952Y-137492695D02*
X129833333Y-137397457D01*
X129833333Y-137397457D02*
X129785714Y-137254600D01*
X129785714Y-137254600D02*
X129738095Y-137016504D01*
X129738095Y-137016504D02*
X129738095Y-136826028D01*
X129738095Y-136826028D02*
X129785714Y-136587933D01*
X129785714Y-136587933D02*
X129833333Y-136445076D01*
X129833333Y-136445076D02*
X129880952Y-136349838D01*
X129880952Y-136349838D02*
X129976190Y-136206980D01*
X129976190Y-136206980D02*
X130023809Y-136159361D01*
X130404762Y-137302219D02*
X130404762Y-136302219D01*
X130404762Y-136302219D02*
X130976190Y-137302219D01*
X130976190Y-137302219D02*
X130976190Y-136302219D01*
X131357143Y-137683171D02*
X131404762Y-137635552D01*
X131404762Y-137635552D02*
X131500000Y-137492695D01*
X131500000Y-137492695D02*
X131547619Y-137397457D01*
X131547619Y-137397457D02*
X131595238Y-137254600D01*
X131595238Y-137254600D02*
X131642857Y-137016504D01*
X131642857Y-137016504D02*
X131642857Y-136826028D01*
X131642857Y-136826028D02*
X131595238Y-136587933D01*
X131595238Y-136587933D02*
X131547619Y-136445076D01*
X131547619Y-136445076D02*
X131500000Y-136349838D01*
X131500000Y-136349838D02*
X131404762Y-136206980D01*
X131404762Y-136206980D02*
X131357143Y-136159361D01*
X132119048Y-136921266D02*
X132880953Y-136921266D01*
X133357143Y-137302219D02*
X133357143Y-136635552D01*
X133357143Y-136302219D02*
X133309524Y-136349838D01*
X133309524Y-136349838D02*
X133357143Y-136397457D01*
X133357143Y-136397457D02*
X133404762Y-136349838D01*
X133404762Y-136349838D02*
X133357143Y-136302219D01*
X133357143Y-136302219D02*
X133357143Y-136397457D01*
X133833333Y-136635552D02*
X133833333Y-137302219D01*
X133833333Y-136730790D02*
X133880952Y-136683171D01*
X133880952Y-136683171D02*
X133976190Y-136635552D01*
X133976190Y-136635552D02*
X134119047Y-136635552D01*
X134119047Y-136635552D02*
X134214285Y-136683171D01*
X134214285Y-136683171D02*
X134261904Y-136778409D01*
X134261904Y-136778409D02*
X134261904Y-137302219D01*
D12*
X152591667Y-106362295D02*
X152325000Y-105981342D01*
X152134524Y-106362295D02*
X152134524Y-105562295D01*
X152134524Y-105562295D02*
X152439286Y-105562295D01*
X152439286Y-105562295D02*
X152515476Y-105600390D01*
X152515476Y-105600390D02*
X152553571Y-105638485D01*
X152553571Y-105638485D02*
X152591667Y-105714676D01*
X152591667Y-105714676D02*
X152591667Y-105828961D01*
X152591667Y-105828961D02*
X152553571Y-105905152D01*
X152553571Y-105905152D02*
X152515476Y-105943247D01*
X152515476Y-105943247D02*
X152439286Y-105981342D01*
X152439286Y-105981342D02*
X152134524Y-105981342D01*
X153315476Y-105562295D02*
X152934524Y-105562295D01*
X152934524Y-105562295D02*
X152896428Y-105943247D01*
X152896428Y-105943247D02*
X152934524Y-105905152D01*
X152934524Y-105905152D02*
X153010714Y-105867057D01*
X153010714Y-105867057D02*
X153201190Y-105867057D01*
X153201190Y-105867057D02*
X153277381Y-105905152D01*
X153277381Y-105905152D02*
X153315476Y-105943247D01*
X153315476Y-105943247D02*
X153353571Y-106019438D01*
X153353571Y-106019438D02*
X153353571Y-106209914D01*
X153353571Y-106209914D02*
X153315476Y-106286104D01*
X153315476Y-106286104D02*
X153277381Y-106324200D01*
X153277381Y-106324200D02*
X153201190Y-106362295D01*
X153201190Y-106362295D02*
X153010714Y-106362295D01*
X153010714Y-106362295D02*
X152934524Y-106324200D01*
X152934524Y-106324200D02*
X152896428Y-106286104D01*
X161371104Y-82674285D02*
X161409200Y-82712381D01*
X161409200Y-82712381D02*
X161447295Y-82826666D01*
X161447295Y-82826666D02*
X161447295Y-82902857D01*
X161447295Y-82902857D02*
X161409200Y-83017143D01*
X161409200Y-83017143D02*
X161333009Y-83093333D01*
X161333009Y-83093333D02*
X161256819Y-83131428D01*
X161256819Y-83131428D02*
X161104438Y-83169524D01*
X161104438Y-83169524D02*
X160990152Y-83169524D01*
X160990152Y-83169524D02*
X160837771Y-83131428D01*
X160837771Y-83131428D02*
X160761580Y-83093333D01*
X160761580Y-83093333D02*
X160685390Y-83017143D01*
X160685390Y-83017143D02*
X160647295Y-82902857D01*
X160647295Y-82902857D02*
X160647295Y-82826666D01*
X160647295Y-82826666D02*
X160685390Y-82712381D01*
X160685390Y-82712381D02*
X160723485Y-82674285D01*
X160913961Y-81988571D02*
X161447295Y-81988571D01*
X160609200Y-82179047D02*
X161180628Y-82369524D01*
X161180628Y-82369524D02*
X161180628Y-81874285D01*
X160647295Y-81417142D02*
X160647295Y-81340952D01*
X160647295Y-81340952D02*
X160685390Y-81264761D01*
X160685390Y-81264761D02*
X160723485Y-81226666D01*
X160723485Y-81226666D02*
X160799676Y-81188571D01*
X160799676Y-81188571D02*
X160952057Y-81150476D01*
X160952057Y-81150476D02*
X161142533Y-81150476D01*
X161142533Y-81150476D02*
X161294914Y-81188571D01*
X161294914Y-81188571D02*
X161371104Y-81226666D01*
X161371104Y-81226666D02*
X161409200Y-81264761D01*
X161409200Y-81264761D02*
X161447295Y-81340952D01*
X161447295Y-81340952D02*
X161447295Y-81417142D01*
X161447295Y-81417142D02*
X161409200Y-81493333D01*
X161409200Y-81493333D02*
X161371104Y-81531428D01*
X161371104Y-81531428D02*
X161294914Y-81569523D01*
X161294914Y-81569523D02*
X161142533Y-81607619D01*
X161142533Y-81607619D02*
X160952057Y-81607619D01*
X160952057Y-81607619D02*
X160799676Y-81569523D01*
X160799676Y-81569523D02*
X160723485Y-81531428D01*
X160723485Y-81531428D02*
X160685390Y-81493333D01*
X160685390Y-81493333D02*
X160647295Y-81417142D01*
X158780714Y-89662295D02*
X158514047Y-89281342D01*
X158323571Y-89662295D02*
X158323571Y-88862295D01*
X158323571Y-88862295D02*
X158628333Y-88862295D01*
X158628333Y-88862295D02*
X158704523Y-88900390D01*
X158704523Y-88900390D02*
X158742618Y-88938485D01*
X158742618Y-88938485D02*
X158780714Y-89014676D01*
X158780714Y-89014676D02*
X158780714Y-89128961D01*
X158780714Y-89128961D02*
X158742618Y-89205152D01*
X158742618Y-89205152D02*
X158704523Y-89243247D01*
X158704523Y-89243247D02*
X158628333Y-89281342D01*
X158628333Y-89281342D02*
X158323571Y-89281342D01*
X159047380Y-88862295D02*
X159542618Y-88862295D01*
X159542618Y-88862295D02*
X159275952Y-89167057D01*
X159275952Y-89167057D02*
X159390237Y-89167057D01*
X159390237Y-89167057D02*
X159466428Y-89205152D01*
X159466428Y-89205152D02*
X159504523Y-89243247D01*
X159504523Y-89243247D02*
X159542618Y-89319438D01*
X159542618Y-89319438D02*
X159542618Y-89509914D01*
X159542618Y-89509914D02*
X159504523Y-89586104D01*
X159504523Y-89586104D02*
X159466428Y-89624200D01*
X159466428Y-89624200D02*
X159390237Y-89662295D01*
X159390237Y-89662295D02*
X159161666Y-89662295D01*
X159161666Y-89662295D02*
X159085475Y-89624200D01*
X159085475Y-89624200D02*
X159047380Y-89586104D01*
X160228333Y-88862295D02*
X160075952Y-88862295D01*
X160075952Y-88862295D02*
X159999761Y-88900390D01*
X159999761Y-88900390D02*
X159961666Y-88938485D01*
X159961666Y-88938485D02*
X159885476Y-89052771D01*
X159885476Y-89052771D02*
X159847380Y-89205152D01*
X159847380Y-89205152D02*
X159847380Y-89509914D01*
X159847380Y-89509914D02*
X159885476Y-89586104D01*
X159885476Y-89586104D02*
X159923571Y-89624200D01*
X159923571Y-89624200D02*
X159999761Y-89662295D01*
X159999761Y-89662295D02*
X160152142Y-89662295D01*
X160152142Y-89662295D02*
X160228333Y-89624200D01*
X160228333Y-89624200D02*
X160266428Y-89586104D01*
X160266428Y-89586104D02*
X160304523Y-89509914D01*
X160304523Y-89509914D02*
X160304523Y-89319438D01*
X160304523Y-89319438D02*
X160266428Y-89243247D01*
X160266428Y-89243247D02*
X160228333Y-89205152D01*
X160228333Y-89205152D02*
X160152142Y-89167057D01*
X160152142Y-89167057D02*
X159999761Y-89167057D01*
X159999761Y-89167057D02*
X159923571Y-89205152D01*
X159923571Y-89205152D02*
X159885476Y-89243247D01*
X159885476Y-89243247D02*
X159847380Y-89319438D01*
X153785714Y-88536104D02*
X153747618Y-88574200D01*
X153747618Y-88574200D02*
X153633333Y-88612295D01*
X153633333Y-88612295D02*
X153557142Y-88612295D01*
X153557142Y-88612295D02*
X153442856Y-88574200D01*
X153442856Y-88574200D02*
X153366666Y-88498009D01*
X153366666Y-88498009D02*
X153328571Y-88421819D01*
X153328571Y-88421819D02*
X153290475Y-88269438D01*
X153290475Y-88269438D02*
X153290475Y-88155152D01*
X153290475Y-88155152D02*
X153328571Y-88002771D01*
X153328571Y-88002771D02*
X153366666Y-87926580D01*
X153366666Y-87926580D02*
X153442856Y-87850390D01*
X153442856Y-87850390D02*
X153557142Y-87812295D01*
X153557142Y-87812295D02*
X153633333Y-87812295D01*
X153633333Y-87812295D02*
X153747618Y-87850390D01*
X153747618Y-87850390D02*
X153785714Y-87888485D01*
X154471428Y-88078961D02*
X154471428Y-88612295D01*
X154280952Y-87774200D02*
X154090475Y-88345628D01*
X154090475Y-88345628D02*
X154585714Y-88345628D01*
X155309523Y-88612295D02*
X154852380Y-88612295D01*
X155080952Y-88612295D02*
X155080952Y-87812295D01*
X155080952Y-87812295D02*
X155004761Y-87926580D01*
X155004761Y-87926580D02*
X154928571Y-88002771D01*
X154928571Y-88002771D02*
X154852380Y-88040866D01*
X137462295Y-71964285D02*
X137081342Y-72230952D01*
X137462295Y-72421428D02*
X136662295Y-72421428D01*
X136662295Y-72421428D02*
X136662295Y-72116666D01*
X136662295Y-72116666D02*
X136700390Y-72040476D01*
X136700390Y-72040476D02*
X136738485Y-72002381D01*
X136738485Y-72002381D02*
X136814676Y-71964285D01*
X136814676Y-71964285D02*
X136928961Y-71964285D01*
X136928961Y-71964285D02*
X137005152Y-72002381D01*
X137005152Y-72002381D02*
X137043247Y-72040476D01*
X137043247Y-72040476D02*
X137081342Y-72116666D01*
X137081342Y-72116666D02*
X137081342Y-72421428D01*
X136662295Y-71697619D02*
X136662295Y-71202381D01*
X136662295Y-71202381D02*
X136967057Y-71469047D01*
X136967057Y-71469047D02*
X136967057Y-71354762D01*
X136967057Y-71354762D02*
X137005152Y-71278571D01*
X137005152Y-71278571D02*
X137043247Y-71240476D01*
X137043247Y-71240476D02*
X137119438Y-71202381D01*
X137119438Y-71202381D02*
X137309914Y-71202381D01*
X137309914Y-71202381D02*
X137386104Y-71240476D01*
X137386104Y-71240476D02*
X137424200Y-71278571D01*
X137424200Y-71278571D02*
X137462295Y-71354762D01*
X137462295Y-71354762D02*
X137462295Y-71583333D01*
X137462295Y-71583333D02*
X137424200Y-71659524D01*
X137424200Y-71659524D02*
X137386104Y-71697619D01*
X137005152Y-70745238D02*
X136967057Y-70821428D01*
X136967057Y-70821428D02*
X136928961Y-70859523D01*
X136928961Y-70859523D02*
X136852771Y-70897619D01*
X136852771Y-70897619D02*
X136814676Y-70897619D01*
X136814676Y-70897619D02*
X136738485Y-70859523D01*
X136738485Y-70859523D02*
X136700390Y-70821428D01*
X136700390Y-70821428D02*
X136662295Y-70745238D01*
X136662295Y-70745238D02*
X136662295Y-70592857D01*
X136662295Y-70592857D02*
X136700390Y-70516666D01*
X136700390Y-70516666D02*
X136738485Y-70478571D01*
X136738485Y-70478571D02*
X136814676Y-70440476D01*
X136814676Y-70440476D02*
X136852771Y-70440476D01*
X136852771Y-70440476D02*
X136928961Y-70478571D01*
X136928961Y-70478571D02*
X136967057Y-70516666D01*
X136967057Y-70516666D02*
X137005152Y-70592857D01*
X137005152Y-70592857D02*
X137005152Y-70745238D01*
X137005152Y-70745238D02*
X137043247Y-70821428D01*
X137043247Y-70821428D02*
X137081342Y-70859523D01*
X137081342Y-70859523D02*
X137157533Y-70897619D01*
X137157533Y-70897619D02*
X137309914Y-70897619D01*
X137309914Y-70897619D02*
X137386104Y-70859523D01*
X137386104Y-70859523D02*
X137424200Y-70821428D01*
X137424200Y-70821428D02*
X137462295Y-70745238D01*
X137462295Y-70745238D02*
X137462295Y-70592857D01*
X137462295Y-70592857D02*
X137424200Y-70516666D01*
X137424200Y-70516666D02*
X137386104Y-70478571D01*
X137386104Y-70478571D02*
X137309914Y-70440476D01*
X137309914Y-70440476D02*
X137157533Y-70440476D01*
X137157533Y-70440476D02*
X137081342Y-70478571D01*
X137081342Y-70478571D02*
X137043247Y-70516666D01*
X137043247Y-70516666D02*
X137005152Y-70592857D01*
D13*
X162803409Y-140997618D02*
X162803409Y-140664285D01*
X163327219Y-140521428D02*
X163327219Y-140997618D01*
X163327219Y-140997618D02*
X162327219Y-140997618D01*
X162327219Y-140997618D02*
X162327219Y-140521428D01*
X163041504Y-140140475D02*
X163041504Y-139664285D01*
X163327219Y-140235713D02*
X162327219Y-139902380D01*
X162327219Y-139902380D02*
X163327219Y-139569047D01*
X163327219Y-138664285D02*
X162851028Y-138997618D01*
X163327219Y-139235713D02*
X162327219Y-139235713D01*
X162327219Y-139235713D02*
X162327219Y-138854761D01*
X162327219Y-138854761D02*
X162374838Y-138759523D01*
X162374838Y-138759523D02*
X162422457Y-138711904D01*
X162422457Y-138711904D02*
X162517695Y-138664285D01*
X162517695Y-138664285D02*
X162660552Y-138664285D01*
X162660552Y-138664285D02*
X162755790Y-138711904D01*
X162755790Y-138711904D02*
X162803409Y-138759523D01*
X162803409Y-138759523D02*
X162851028Y-138854761D01*
X162851028Y-138854761D02*
X162851028Y-139235713D01*
X162327219Y-138378570D02*
X162327219Y-137807142D01*
X163327219Y-138092856D02*
X162327219Y-138092856D01*
X163327219Y-137473808D02*
X162327219Y-137473808D01*
X162803409Y-137473808D02*
X162803409Y-136902380D01*
X163327219Y-136902380D02*
X162327219Y-136902380D01*
D12*
X139185714Y-72412295D02*
X138919047Y-72031342D01*
X138728571Y-72412295D02*
X138728571Y-71612295D01*
X138728571Y-71612295D02*
X139033333Y-71612295D01*
X139033333Y-71612295D02*
X139109523Y-71650390D01*
X139109523Y-71650390D02*
X139147618Y-71688485D01*
X139147618Y-71688485D02*
X139185714Y-71764676D01*
X139185714Y-71764676D02*
X139185714Y-71878961D01*
X139185714Y-71878961D02*
X139147618Y-71955152D01*
X139147618Y-71955152D02*
X139109523Y-71993247D01*
X139109523Y-71993247D02*
X139033333Y-72031342D01*
X139033333Y-72031342D02*
X138728571Y-72031342D01*
X139452380Y-71612295D02*
X139947618Y-71612295D01*
X139947618Y-71612295D02*
X139680952Y-71917057D01*
X139680952Y-71917057D02*
X139795237Y-71917057D01*
X139795237Y-71917057D02*
X139871428Y-71955152D01*
X139871428Y-71955152D02*
X139909523Y-71993247D01*
X139909523Y-71993247D02*
X139947618Y-72069438D01*
X139947618Y-72069438D02*
X139947618Y-72259914D01*
X139947618Y-72259914D02*
X139909523Y-72336104D01*
X139909523Y-72336104D02*
X139871428Y-72374200D01*
X139871428Y-72374200D02*
X139795237Y-72412295D01*
X139795237Y-72412295D02*
X139566666Y-72412295D01*
X139566666Y-72412295D02*
X139490475Y-72374200D01*
X139490475Y-72374200D02*
X139452380Y-72336104D01*
X140252380Y-71688485D02*
X140290476Y-71650390D01*
X140290476Y-71650390D02*
X140366666Y-71612295D01*
X140366666Y-71612295D02*
X140557142Y-71612295D01*
X140557142Y-71612295D02*
X140633333Y-71650390D01*
X140633333Y-71650390D02*
X140671428Y-71688485D01*
X140671428Y-71688485D02*
X140709523Y-71764676D01*
X140709523Y-71764676D02*
X140709523Y-71840866D01*
X140709523Y-71840866D02*
X140671428Y-71955152D01*
X140671428Y-71955152D02*
X140214285Y-72412295D01*
X140214285Y-72412295D02*
X140709523Y-72412295D01*
X151435714Y-91612295D02*
X151169047Y-91231342D01*
X150978571Y-91612295D02*
X150978571Y-90812295D01*
X150978571Y-90812295D02*
X151283333Y-90812295D01*
X151283333Y-90812295D02*
X151359523Y-90850390D01*
X151359523Y-90850390D02*
X151397618Y-90888485D01*
X151397618Y-90888485D02*
X151435714Y-90964676D01*
X151435714Y-90964676D02*
X151435714Y-91078961D01*
X151435714Y-91078961D02*
X151397618Y-91155152D01*
X151397618Y-91155152D02*
X151359523Y-91193247D01*
X151359523Y-91193247D02*
X151283333Y-91231342D01*
X151283333Y-91231342D02*
X150978571Y-91231342D01*
X152121428Y-91078961D02*
X152121428Y-91612295D01*
X151930952Y-90774200D02*
X151740475Y-91345628D01*
X151740475Y-91345628D02*
X152235714Y-91345628D01*
X152692857Y-90812295D02*
X152769047Y-90812295D01*
X152769047Y-90812295D02*
X152845238Y-90850390D01*
X152845238Y-90850390D02*
X152883333Y-90888485D01*
X152883333Y-90888485D02*
X152921428Y-90964676D01*
X152921428Y-90964676D02*
X152959523Y-91117057D01*
X152959523Y-91117057D02*
X152959523Y-91307533D01*
X152959523Y-91307533D02*
X152921428Y-91459914D01*
X152921428Y-91459914D02*
X152883333Y-91536104D01*
X152883333Y-91536104D02*
X152845238Y-91574200D01*
X152845238Y-91574200D02*
X152769047Y-91612295D01*
X152769047Y-91612295D02*
X152692857Y-91612295D01*
X152692857Y-91612295D02*
X152616666Y-91574200D01*
X152616666Y-91574200D02*
X152578571Y-91536104D01*
X152578571Y-91536104D02*
X152540476Y-91459914D01*
X152540476Y-91459914D02*
X152502380Y-91307533D01*
X152502380Y-91307533D02*
X152502380Y-91117057D01*
X152502380Y-91117057D02*
X152540476Y-90964676D01*
X152540476Y-90964676D02*
X152578571Y-90888485D01*
X152578571Y-90888485D02*
X152616666Y-90850390D01*
X152616666Y-90850390D02*
X152692857Y-90812295D01*
X149435714Y-88762295D02*
X149169047Y-88381342D01*
X148978571Y-88762295D02*
X148978571Y-87962295D01*
X148978571Y-87962295D02*
X149283333Y-87962295D01*
X149283333Y-87962295D02*
X149359523Y-88000390D01*
X149359523Y-88000390D02*
X149397618Y-88038485D01*
X149397618Y-88038485D02*
X149435714Y-88114676D01*
X149435714Y-88114676D02*
X149435714Y-88228961D01*
X149435714Y-88228961D02*
X149397618Y-88305152D01*
X149397618Y-88305152D02*
X149359523Y-88343247D01*
X149359523Y-88343247D02*
X149283333Y-88381342D01*
X149283333Y-88381342D02*
X148978571Y-88381342D01*
X150121428Y-88228961D02*
X150121428Y-88762295D01*
X149930952Y-87924200D02*
X149740475Y-88495628D01*
X149740475Y-88495628D02*
X150235714Y-88495628D01*
X150464285Y-87962295D02*
X150997619Y-87962295D01*
X150997619Y-87962295D02*
X150654761Y-88762295D01*
X162958333Y-126884580D02*
X162910714Y-126932200D01*
X162910714Y-126932200D02*
X162767857Y-126979819D01*
X162767857Y-126979819D02*
X162672619Y-126979819D01*
X162672619Y-126979819D02*
X162529762Y-126932200D01*
X162529762Y-126932200D02*
X162434524Y-126836961D01*
X162434524Y-126836961D02*
X162386905Y-126741723D01*
X162386905Y-126741723D02*
X162339286Y-126551247D01*
X162339286Y-126551247D02*
X162339286Y-126408390D01*
X162339286Y-126408390D02*
X162386905Y-126217914D01*
X162386905Y-126217914D02*
X162434524Y-126122676D01*
X162434524Y-126122676D02*
X162529762Y-126027438D01*
X162529762Y-126027438D02*
X162672619Y-125979819D01*
X162672619Y-125979819D02*
X162767857Y-125979819D01*
X162767857Y-125979819D02*
X162910714Y-126027438D01*
X162910714Y-126027438D02*
X162958333Y-126075057D01*
X163863095Y-125979819D02*
X163386905Y-125979819D01*
X163386905Y-125979819D02*
X163339286Y-126456009D01*
X163339286Y-126456009D02*
X163386905Y-126408390D01*
X163386905Y-126408390D02*
X163482143Y-126360771D01*
X163482143Y-126360771D02*
X163720238Y-126360771D01*
X163720238Y-126360771D02*
X163815476Y-126408390D01*
X163815476Y-126408390D02*
X163863095Y-126456009D01*
X163863095Y-126456009D02*
X163910714Y-126551247D01*
X163910714Y-126551247D02*
X163910714Y-126789342D01*
X163910714Y-126789342D02*
X163863095Y-126884580D01*
X163863095Y-126884580D02*
X163815476Y-126932200D01*
X163815476Y-126932200D02*
X163720238Y-126979819D01*
X163720238Y-126979819D02*
X163482143Y-126979819D01*
X163482143Y-126979819D02*
X163386905Y-126932200D01*
X163386905Y-126932200D02*
X163339286Y-126884580D01*
X168858333Y-126909580D02*
X168810714Y-126957200D01*
X168810714Y-126957200D02*
X168667857Y-127004819D01*
X168667857Y-127004819D02*
X168572619Y-127004819D01*
X168572619Y-127004819D02*
X168429762Y-126957200D01*
X168429762Y-126957200D02*
X168334524Y-126861961D01*
X168334524Y-126861961D02*
X168286905Y-126766723D01*
X168286905Y-126766723D02*
X168239286Y-126576247D01*
X168239286Y-126576247D02*
X168239286Y-126433390D01*
X168239286Y-126433390D02*
X168286905Y-126242914D01*
X168286905Y-126242914D02*
X168334524Y-126147676D01*
X168334524Y-126147676D02*
X168429762Y-126052438D01*
X168429762Y-126052438D02*
X168572619Y-126004819D01*
X168572619Y-126004819D02*
X168667857Y-126004819D01*
X168667857Y-126004819D02*
X168810714Y-126052438D01*
X168810714Y-126052438D02*
X168858333Y-126100057D01*
X169715476Y-126004819D02*
X169525000Y-126004819D01*
X169525000Y-126004819D02*
X169429762Y-126052438D01*
X169429762Y-126052438D02*
X169382143Y-126100057D01*
X169382143Y-126100057D02*
X169286905Y-126242914D01*
X169286905Y-126242914D02*
X169239286Y-126433390D01*
X169239286Y-126433390D02*
X169239286Y-126814342D01*
X169239286Y-126814342D02*
X169286905Y-126909580D01*
X169286905Y-126909580D02*
X169334524Y-126957200D01*
X169334524Y-126957200D02*
X169429762Y-127004819D01*
X169429762Y-127004819D02*
X169620238Y-127004819D01*
X169620238Y-127004819D02*
X169715476Y-126957200D01*
X169715476Y-126957200D02*
X169763095Y-126909580D01*
X169763095Y-126909580D02*
X169810714Y-126814342D01*
X169810714Y-126814342D02*
X169810714Y-126576247D01*
X169810714Y-126576247D02*
X169763095Y-126481009D01*
X169763095Y-126481009D02*
X169715476Y-126433390D01*
X169715476Y-126433390D02*
X169620238Y-126385771D01*
X169620238Y-126385771D02*
X169429762Y-126385771D01*
X169429762Y-126385771D02*
X169334524Y-126433390D01*
X169334524Y-126433390D02*
X169286905Y-126481009D01*
X169286905Y-126481009D02*
X169239286Y-126576247D01*
X144591667Y-92612295D02*
X144325000Y-92231342D01*
X144134524Y-92612295D02*
X144134524Y-91812295D01*
X144134524Y-91812295D02*
X144439286Y-91812295D01*
X144439286Y-91812295D02*
X144515476Y-91850390D01*
X144515476Y-91850390D02*
X144553571Y-91888485D01*
X144553571Y-91888485D02*
X144591667Y-91964676D01*
X144591667Y-91964676D02*
X144591667Y-92078961D01*
X144591667Y-92078961D02*
X144553571Y-92155152D01*
X144553571Y-92155152D02*
X144515476Y-92193247D01*
X144515476Y-92193247D02*
X144439286Y-92231342D01*
X144439286Y-92231342D02*
X144134524Y-92231342D01*
X145048809Y-92155152D02*
X144972619Y-92117057D01*
X144972619Y-92117057D02*
X144934524Y-92078961D01*
X144934524Y-92078961D02*
X144896428Y-92002771D01*
X144896428Y-92002771D02*
X144896428Y-91964676D01*
X144896428Y-91964676D02*
X144934524Y-91888485D01*
X144934524Y-91888485D02*
X144972619Y-91850390D01*
X144972619Y-91850390D02*
X145048809Y-91812295D01*
X145048809Y-91812295D02*
X145201190Y-91812295D01*
X145201190Y-91812295D02*
X145277381Y-91850390D01*
X145277381Y-91850390D02*
X145315476Y-91888485D01*
X145315476Y-91888485D02*
X145353571Y-91964676D01*
X145353571Y-91964676D02*
X145353571Y-92002771D01*
X145353571Y-92002771D02*
X145315476Y-92078961D01*
X145315476Y-92078961D02*
X145277381Y-92117057D01*
X145277381Y-92117057D02*
X145201190Y-92155152D01*
X145201190Y-92155152D02*
X145048809Y-92155152D01*
X145048809Y-92155152D02*
X144972619Y-92193247D01*
X144972619Y-92193247D02*
X144934524Y-92231342D01*
X144934524Y-92231342D02*
X144896428Y-92307533D01*
X144896428Y-92307533D02*
X144896428Y-92459914D01*
X144896428Y-92459914D02*
X144934524Y-92536104D01*
X144934524Y-92536104D02*
X144972619Y-92574200D01*
X144972619Y-92574200D02*
X145048809Y-92612295D01*
X145048809Y-92612295D02*
X145201190Y-92612295D01*
X145201190Y-92612295D02*
X145277381Y-92574200D01*
X145277381Y-92574200D02*
X145315476Y-92536104D01*
X145315476Y-92536104D02*
X145353571Y-92459914D01*
X145353571Y-92459914D02*
X145353571Y-92307533D01*
X145353571Y-92307533D02*
X145315476Y-92231342D01*
X145315476Y-92231342D02*
X145277381Y-92193247D01*
X145277381Y-92193247D02*
X145201190Y-92155152D01*
X138912295Y-83564285D02*
X138531342Y-83830952D01*
X138912295Y-84021428D02*
X138112295Y-84021428D01*
X138112295Y-84021428D02*
X138112295Y-83716666D01*
X138112295Y-83716666D02*
X138150390Y-83640476D01*
X138150390Y-83640476D02*
X138188485Y-83602381D01*
X138188485Y-83602381D02*
X138264676Y-83564285D01*
X138264676Y-83564285D02*
X138378961Y-83564285D01*
X138378961Y-83564285D02*
X138455152Y-83602381D01*
X138455152Y-83602381D02*
X138493247Y-83640476D01*
X138493247Y-83640476D02*
X138531342Y-83716666D01*
X138531342Y-83716666D02*
X138531342Y-84021428D01*
X138378961Y-82878571D02*
X138912295Y-82878571D01*
X138074200Y-83069047D02*
X138645628Y-83259524D01*
X138645628Y-83259524D02*
X138645628Y-82764285D01*
X138112295Y-82535714D02*
X138112295Y-82040476D01*
X138112295Y-82040476D02*
X138417057Y-82307142D01*
X138417057Y-82307142D02*
X138417057Y-82192857D01*
X138417057Y-82192857D02*
X138455152Y-82116666D01*
X138455152Y-82116666D02*
X138493247Y-82078571D01*
X138493247Y-82078571D02*
X138569438Y-82040476D01*
X138569438Y-82040476D02*
X138759914Y-82040476D01*
X138759914Y-82040476D02*
X138836104Y-82078571D01*
X138836104Y-82078571D02*
X138874200Y-82116666D01*
X138874200Y-82116666D02*
X138912295Y-82192857D01*
X138912295Y-82192857D02*
X138912295Y-82421428D01*
X138912295Y-82421428D02*
X138874200Y-82497619D01*
X138874200Y-82497619D02*
X138836104Y-82535714D01*
X142835714Y-88712295D02*
X142569047Y-88331342D01*
X142378571Y-88712295D02*
X142378571Y-87912295D01*
X142378571Y-87912295D02*
X142683333Y-87912295D01*
X142683333Y-87912295D02*
X142759523Y-87950390D01*
X142759523Y-87950390D02*
X142797618Y-87988485D01*
X142797618Y-87988485D02*
X142835714Y-88064676D01*
X142835714Y-88064676D02*
X142835714Y-88178961D01*
X142835714Y-88178961D02*
X142797618Y-88255152D01*
X142797618Y-88255152D02*
X142759523Y-88293247D01*
X142759523Y-88293247D02*
X142683333Y-88331342D01*
X142683333Y-88331342D02*
X142378571Y-88331342D01*
X143102380Y-87912295D02*
X143597618Y-87912295D01*
X143597618Y-87912295D02*
X143330952Y-88217057D01*
X143330952Y-88217057D02*
X143445237Y-88217057D01*
X143445237Y-88217057D02*
X143521428Y-88255152D01*
X143521428Y-88255152D02*
X143559523Y-88293247D01*
X143559523Y-88293247D02*
X143597618Y-88369438D01*
X143597618Y-88369438D02*
X143597618Y-88559914D01*
X143597618Y-88559914D02*
X143559523Y-88636104D01*
X143559523Y-88636104D02*
X143521428Y-88674200D01*
X143521428Y-88674200D02*
X143445237Y-88712295D01*
X143445237Y-88712295D02*
X143216666Y-88712295D01*
X143216666Y-88712295D02*
X143140475Y-88674200D01*
X143140475Y-88674200D02*
X143102380Y-88636104D01*
X144321428Y-87912295D02*
X143940476Y-87912295D01*
X143940476Y-87912295D02*
X143902380Y-88293247D01*
X143902380Y-88293247D02*
X143940476Y-88255152D01*
X143940476Y-88255152D02*
X144016666Y-88217057D01*
X144016666Y-88217057D02*
X144207142Y-88217057D01*
X144207142Y-88217057D02*
X144283333Y-88255152D01*
X144283333Y-88255152D02*
X144321428Y-88293247D01*
X144321428Y-88293247D02*
X144359523Y-88369438D01*
X144359523Y-88369438D02*
X144359523Y-88559914D01*
X144359523Y-88559914D02*
X144321428Y-88636104D01*
X144321428Y-88636104D02*
X144283333Y-88674200D01*
X144283333Y-88674200D02*
X144207142Y-88712295D01*
X144207142Y-88712295D02*
X144016666Y-88712295D01*
X144016666Y-88712295D02*
X143940476Y-88674200D01*
X143940476Y-88674200D02*
X143902380Y-88636104D01*
X161532295Y-88844285D02*
X161151342Y-89110952D01*
X161532295Y-89301428D02*
X160732295Y-89301428D01*
X160732295Y-89301428D02*
X160732295Y-88996666D01*
X160732295Y-88996666D02*
X160770390Y-88920476D01*
X160770390Y-88920476D02*
X160808485Y-88882381D01*
X160808485Y-88882381D02*
X160884676Y-88844285D01*
X160884676Y-88844285D02*
X160998961Y-88844285D01*
X160998961Y-88844285D02*
X161075152Y-88882381D01*
X161075152Y-88882381D02*
X161113247Y-88920476D01*
X161113247Y-88920476D02*
X161151342Y-88996666D01*
X161151342Y-88996666D02*
X161151342Y-89301428D01*
X160998961Y-88158571D02*
X161532295Y-88158571D01*
X160694200Y-88349047D02*
X161265628Y-88539524D01*
X161265628Y-88539524D02*
X161265628Y-88044285D01*
X160732295Y-87358571D02*
X160732295Y-87739523D01*
X160732295Y-87739523D02*
X161113247Y-87777619D01*
X161113247Y-87777619D02*
X161075152Y-87739523D01*
X161075152Y-87739523D02*
X161037057Y-87663333D01*
X161037057Y-87663333D02*
X161037057Y-87472857D01*
X161037057Y-87472857D02*
X161075152Y-87396666D01*
X161075152Y-87396666D02*
X161113247Y-87358571D01*
X161113247Y-87358571D02*
X161189438Y-87320476D01*
X161189438Y-87320476D02*
X161379914Y-87320476D01*
X161379914Y-87320476D02*
X161456104Y-87358571D01*
X161456104Y-87358571D02*
X161494200Y-87396666D01*
X161494200Y-87396666D02*
X161532295Y-87472857D01*
X161532295Y-87472857D02*
X161532295Y-87663333D01*
X161532295Y-87663333D02*
X161494200Y-87739523D01*
X161494200Y-87739523D02*
X161456104Y-87777619D01*
D13*
X121966666Y-109178409D02*
X121633333Y-109178409D01*
X121633333Y-109702219D02*
X121633333Y-108702219D01*
X121633333Y-108702219D02*
X122109523Y-108702219D01*
X123014285Y-109702219D02*
X122442857Y-109702219D01*
X122728571Y-109702219D02*
X122728571Y-108702219D01*
X122728571Y-108702219D02*
X122633333Y-108845076D01*
X122633333Y-108845076D02*
X122538095Y-108940314D01*
X122538095Y-108940314D02*
X122442857Y-108987933D01*
D14*
X123820471Y-135178380D02*
X123487007Y-135178380D01*
X123487007Y-135702396D02*
X123487007Y-134702002D01*
X123487007Y-134702002D02*
X123963385Y-134702002D01*
X124773228Y-135035467D02*
X124773228Y-135702396D01*
X124344488Y-135035467D02*
X124344488Y-135559483D01*
X124344488Y-135559483D02*
X124392125Y-135654759D01*
X124392125Y-135654759D02*
X124487401Y-135702396D01*
X124487401Y-135702396D02*
X124630314Y-135702396D01*
X124630314Y-135702396D02*
X124725590Y-135654759D01*
X124725590Y-135654759D02*
X124773228Y-135607121D01*
X125201968Y-135654759D02*
X125297243Y-135702396D01*
X125297243Y-135702396D02*
X125487795Y-135702396D01*
X125487795Y-135702396D02*
X125583070Y-135654759D01*
X125583070Y-135654759D02*
X125630708Y-135559483D01*
X125630708Y-135559483D02*
X125630708Y-135511845D01*
X125630708Y-135511845D02*
X125583070Y-135416569D01*
X125583070Y-135416569D02*
X125487795Y-135368932D01*
X125487795Y-135368932D02*
X125344881Y-135368932D01*
X125344881Y-135368932D02*
X125249606Y-135321294D01*
X125249606Y-135321294D02*
X125201968Y-135226018D01*
X125201968Y-135226018D02*
X125201968Y-135178380D01*
X125201968Y-135178380D02*
X125249606Y-135083105D01*
X125249606Y-135083105D02*
X125344881Y-135035467D01*
X125344881Y-135035467D02*
X125487795Y-135035467D01*
X125487795Y-135035467D02*
X125583070Y-135083105D01*
X126440551Y-135654759D02*
X126345275Y-135702396D01*
X126345275Y-135702396D02*
X126154724Y-135702396D01*
X126154724Y-135702396D02*
X126059449Y-135654759D01*
X126059449Y-135654759D02*
X126011811Y-135559483D01*
X126011811Y-135559483D02*
X126011811Y-135178380D01*
X126011811Y-135178380D02*
X126059449Y-135083105D01*
X126059449Y-135083105D02*
X126154724Y-135035467D01*
X126154724Y-135035467D02*
X126345275Y-135035467D01*
X126345275Y-135035467D02*
X126440551Y-135083105D01*
X126440551Y-135083105D02*
X126488189Y-135178380D01*
X126488189Y-135178380D02*
X126488189Y-135273656D01*
X126488189Y-135273656D02*
X126011811Y-135368932D01*
X128155513Y-134702002D02*
X127679135Y-134702002D01*
X127679135Y-134702002D02*
X127631497Y-135178380D01*
X127631497Y-135178380D02*
X127679135Y-135130743D01*
X127679135Y-135130743D02*
X127774410Y-135083105D01*
X127774410Y-135083105D02*
X128012599Y-135083105D01*
X128012599Y-135083105D02*
X128107875Y-135130743D01*
X128107875Y-135130743D02*
X128155513Y-135178380D01*
X128155513Y-135178380D02*
X128203150Y-135273656D01*
X128203150Y-135273656D02*
X128203150Y-135511845D01*
X128203150Y-135511845D02*
X128155513Y-135607121D01*
X128155513Y-135607121D02*
X128107875Y-135654759D01*
X128107875Y-135654759D02*
X128012599Y-135702396D01*
X128012599Y-135702396D02*
X127774410Y-135702396D01*
X127774410Y-135702396D02*
X127679135Y-135654759D01*
X127679135Y-135654759D02*
X127631497Y-135607121D01*
X128584253Y-135416569D02*
X129060631Y-135416569D01*
X128488977Y-135702396D02*
X128822442Y-134702002D01*
X128822442Y-134702002D02*
X129155906Y-135702396D01*
D12*
X181153571Y-138106009D02*
X180820238Y-138106009D01*
X180820238Y-138629819D02*
X180820238Y-137629819D01*
X180820238Y-137629819D02*
X181296428Y-137629819D01*
X181677381Y-138629819D02*
X181677381Y-137629819D01*
X182153571Y-138629819D02*
X182153571Y-137629819D01*
X182153571Y-137629819D02*
X182391666Y-137629819D01*
X182391666Y-137629819D02*
X182534523Y-137677438D01*
X182534523Y-137677438D02*
X182629761Y-137772676D01*
X182629761Y-137772676D02*
X182677380Y-137867914D01*
X182677380Y-137867914D02*
X182724999Y-138058390D01*
X182724999Y-138058390D02*
X182724999Y-138201247D01*
X182724999Y-138201247D02*
X182677380Y-138391723D01*
X182677380Y-138391723D02*
X182629761Y-138486961D01*
X182629761Y-138486961D02*
X182534523Y-138582200D01*
X182534523Y-138582200D02*
X182391666Y-138629819D01*
X182391666Y-138629819D02*
X182153571Y-138629819D01*
X183629761Y-137629819D02*
X183153571Y-137629819D01*
X183153571Y-137629819D02*
X183105952Y-138106009D01*
X183105952Y-138106009D02*
X183153571Y-138058390D01*
X183153571Y-138058390D02*
X183248809Y-138010771D01*
X183248809Y-138010771D02*
X183486904Y-138010771D01*
X183486904Y-138010771D02*
X183582142Y-138058390D01*
X183582142Y-138058390D02*
X183629761Y-138106009D01*
X183629761Y-138106009D02*
X183677380Y-138201247D01*
X183677380Y-138201247D02*
X183677380Y-138439342D01*
X183677380Y-138439342D02*
X183629761Y-138534580D01*
X183629761Y-138534580D02*
X183582142Y-138582200D01*
X183582142Y-138582200D02*
X183486904Y-138629819D01*
X183486904Y-138629819D02*
X183248809Y-138629819D01*
X183248809Y-138629819D02*
X183153571Y-138582200D01*
X183153571Y-138582200D02*
X183105952Y-138534580D01*
D13*
X174135714Y-107652219D02*
X174135714Y-106652219D01*
X174135714Y-106652219D02*
X174516666Y-106652219D01*
X174516666Y-106652219D02*
X174611904Y-106699838D01*
X174611904Y-106699838D02*
X174659523Y-106747457D01*
X174659523Y-106747457D02*
X174707142Y-106842695D01*
X174707142Y-106842695D02*
X174707142Y-106985552D01*
X174707142Y-106985552D02*
X174659523Y-107080790D01*
X174659523Y-107080790D02*
X174611904Y-107128409D01*
X174611904Y-107128409D02*
X174516666Y-107176028D01*
X174516666Y-107176028D02*
X174135714Y-107176028D01*
X175088095Y-107604600D02*
X175230952Y-107652219D01*
X175230952Y-107652219D02*
X175469047Y-107652219D01*
X175469047Y-107652219D02*
X175564285Y-107604600D01*
X175564285Y-107604600D02*
X175611904Y-107556980D01*
X175611904Y-107556980D02*
X175659523Y-107461742D01*
X175659523Y-107461742D02*
X175659523Y-107366504D01*
X175659523Y-107366504D02*
X175611904Y-107271266D01*
X175611904Y-107271266D02*
X175564285Y-107223647D01*
X175564285Y-107223647D02*
X175469047Y-107176028D01*
X175469047Y-107176028D02*
X175278571Y-107128409D01*
X175278571Y-107128409D02*
X175183333Y-107080790D01*
X175183333Y-107080790D02*
X175135714Y-107033171D01*
X175135714Y-107033171D02*
X175088095Y-106937933D01*
X175088095Y-106937933D02*
X175088095Y-106842695D01*
X175088095Y-106842695D02*
X175135714Y-106747457D01*
X175135714Y-106747457D02*
X175183333Y-106699838D01*
X175183333Y-106699838D02*
X175278571Y-106652219D01*
X175278571Y-106652219D02*
X175516666Y-106652219D01*
X175516666Y-106652219D02*
X175659523Y-106699838D01*
X176611904Y-107652219D02*
X176040476Y-107652219D01*
X176326190Y-107652219D02*
X176326190Y-106652219D01*
X176326190Y-106652219D02*
X176230952Y-106795076D01*
X176230952Y-106795076D02*
X176135714Y-106890314D01*
X176135714Y-106890314D02*
X176040476Y-106937933D01*
D12*
X138616667Y-99199795D02*
X138350000Y-98818842D01*
X138159524Y-99199795D02*
X138159524Y-98399795D01*
X138159524Y-98399795D02*
X138464286Y-98399795D01*
X138464286Y-98399795D02*
X138540476Y-98437890D01*
X138540476Y-98437890D02*
X138578571Y-98475985D01*
X138578571Y-98475985D02*
X138616667Y-98552176D01*
X138616667Y-98552176D02*
X138616667Y-98666461D01*
X138616667Y-98666461D02*
X138578571Y-98742652D01*
X138578571Y-98742652D02*
X138540476Y-98780747D01*
X138540476Y-98780747D02*
X138464286Y-98818842D01*
X138464286Y-98818842D02*
X138159524Y-98818842D01*
X139302381Y-98666461D02*
X139302381Y-99199795D01*
X139111905Y-98361700D02*
X138921428Y-98933128D01*
X138921428Y-98933128D02*
X139416667Y-98933128D01*
X147595714Y-66612295D02*
X147329047Y-66231342D01*
X147138571Y-66612295D02*
X147138571Y-65812295D01*
X147138571Y-65812295D02*
X147443333Y-65812295D01*
X147443333Y-65812295D02*
X147519523Y-65850390D01*
X147519523Y-65850390D02*
X147557618Y-65888485D01*
X147557618Y-65888485D02*
X147595714Y-65964676D01*
X147595714Y-65964676D02*
X147595714Y-66078961D01*
X147595714Y-66078961D02*
X147557618Y-66155152D01*
X147557618Y-66155152D02*
X147519523Y-66193247D01*
X147519523Y-66193247D02*
X147443333Y-66231342D01*
X147443333Y-66231342D02*
X147138571Y-66231342D01*
X147862380Y-65812295D02*
X148357618Y-65812295D01*
X148357618Y-65812295D02*
X148090952Y-66117057D01*
X148090952Y-66117057D02*
X148205237Y-66117057D01*
X148205237Y-66117057D02*
X148281428Y-66155152D01*
X148281428Y-66155152D02*
X148319523Y-66193247D01*
X148319523Y-66193247D02*
X148357618Y-66269438D01*
X148357618Y-66269438D02*
X148357618Y-66459914D01*
X148357618Y-66459914D02*
X148319523Y-66536104D01*
X148319523Y-66536104D02*
X148281428Y-66574200D01*
X148281428Y-66574200D02*
X148205237Y-66612295D01*
X148205237Y-66612295D02*
X147976666Y-66612295D01*
X147976666Y-66612295D02*
X147900475Y-66574200D01*
X147900475Y-66574200D02*
X147862380Y-66536104D01*
X148738571Y-66612295D02*
X148890952Y-66612295D01*
X148890952Y-66612295D02*
X148967142Y-66574200D01*
X148967142Y-66574200D02*
X149005238Y-66536104D01*
X149005238Y-66536104D02*
X149081428Y-66421819D01*
X149081428Y-66421819D02*
X149119523Y-66269438D01*
X149119523Y-66269438D02*
X149119523Y-65964676D01*
X149119523Y-65964676D02*
X149081428Y-65888485D01*
X149081428Y-65888485D02*
X149043333Y-65850390D01*
X149043333Y-65850390D02*
X148967142Y-65812295D01*
X148967142Y-65812295D02*
X148814761Y-65812295D01*
X148814761Y-65812295D02*
X148738571Y-65850390D01*
X148738571Y-65850390D02*
X148700476Y-65888485D01*
X148700476Y-65888485D02*
X148662380Y-65964676D01*
X148662380Y-65964676D02*
X148662380Y-66155152D01*
X148662380Y-66155152D02*
X148700476Y-66231342D01*
X148700476Y-66231342D02*
X148738571Y-66269438D01*
X148738571Y-66269438D02*
X148814761Y-66307533D01*
X148814761Y-66307533D02*
X148967142Y-66307533D01*
X148967142Y-66307533D02*
X149043333Y-66269438D01*
X149043333Y-66269438D02*
X149081428Y-66231342D01*
X149081428Y-66231342D02*
X149119523Y-66155152D01*
X174682142Y-130259580D02*
X174634523Y-130307200D01*
X174634523Y-130307200D02*
X174491666Y-130354819D01*
X174491666Y-130354819D02*
X174396428Y-130354819D01*
X174396428Y-130354819D02*
X174253571Y-130307200D01*
X174253571Y-130307200D02*
X174158333Y-130211961D01*
X174158333Y-130211961D02*
X174110714Y-130116723D01*
X174110714Y-130116723D02*
X174063095Y-129926247D01*
X174063095Y-129926247D02*
X174063095Y-129783390D01*
X174063095Y-129783390D02*
X174110714Y-129592914D01*
X174110714Y-129592914D02*
X174158333Y-129497676D01*
X174158333Y-129497676D02*
X174253571Y-129402438D01*
X174253571Y-129402438D02*
X174396428Y-129354819D01*
X174396428Y-129354819D02*
X174491666Y-129354819D01*
X174491666Y-129354819D02*
X174634523Y-129402438D01*
X174634523Y-129402438D02*
X174682142Y-129450057D01*
X175634523Y-130354819D02*
X175063095Y-130354819D01*
X175348809Y-130354819D02*
X175348809Y-129354819D01*
X175348809Y-129354819D02*
X175253571Y-129497676D01*
X175253571Y-129497676D02*
X175158333Y-129592914D01*
X175158333Y-129592914D02*
X175063095Y-129640533D01*
X176539285Y-129354819D02*
X176063095Y-129354819D01*
X176063095Y-129354819D02*
X176015476Y-129831009D01*
X176015476Y-129831009D02*
X176063095Y-129783390D01*
X176063095Y-129783390D02*
X176158333Y-129735771D01*
X176158333Y-129735771D02*
X176396428Y-129735771D01*
X176396428Y-129735771D02*
X176491666Y-129783390D01*
X176491666Y-129783390D02*
X176539285Y-129831009D01*
X176539285Y-129831009D02*
X176586904Y-129926247D01*
X176586904Y-129926247D02*
X176586904Y-130164342D01*
X176586904Y-130164342D02*
X176539285Y-130259580D01*
X176539285Y-130259580D02*
X176491666Y-130307200D01*
X176491666Y-130307200D02*
X176396428Y-130354819D01*
X176396428Y-130354819D02*
X176158333Y-130354819D01*
X176158333Y-130354819D02*
X176063095Y-130307200D01*
X176063095Y-130307200D02*
X176015476Y-130259580D01*
X121928571Y-49931009D02*
X121595238Y-49931009D01*
X121595238Y-50454819D02*
X121595238Y-49454819D01*
X121595238Y-49454819D02*
X122071428Y-49454819D01*
X122452381Y-50454819D02*
X122452381Y-49454819D01*
X122928571Y-50454819D02*
X122928571Y-49454819D01*
X122928571Y-49454819D02*
X123166666Y-49454819D01*
X123166666Y-49454819D02*
X123309523Y-49502438D01*
X123309523Y-49502438D02*
X123404761Y-49597676D01*
X123404761Y-49597676D02*
X123452380Y-49692914D01*
X123452380Y-49692914D02*
X123499999Y-49883390D01*
X123499999Y-49883390D02*
X123499999Y-50026247D01*
X123499999Y-50026247D02*
X123452380Y-50216723D01*
X123452380Y-50216723D02*
X123404761Y-50311961D01*
X123404761Y-50311961D02*
X123309523Y-50407200D01*
X123309523Y-50407200D02*
X123166666Y-50454819D01*
X123166666Y-50454819D02*
X122928571Y-50454819D01*
X124452380Y-50454819D02*
X123880952Y-50454819D01*
X124166666Y-50454819D02*
X124166666Y-49454819D01*
X124166666Y-49454819D02*
X124071428Y-49597676D01*
X124071428Y-49597676D02*
X123976190Y-49692914D01*
X123976190Y-49692914D02*
X123880952Y-49740533D01*
X132790476Y-80512295D02*
X132790476Y-81159914D01*
X132790476Y-81159914D02*
X132828571Y-81236104D01*
X132828571Y-81236104D02*
X132866666Y-81274200D01*
X132866666Y-81274200D02*
X132942857Y-81312295D01*
X132942857Y-81312295D02*
X133095238Y-81312295D01*
X133095238Y-81312295D02*
X133171428Y-81274200D01*
X133171428Y-81274200D02*
X133209523Y-81236104D01*
X133209523Y-81236104D02*
X133247619Y-81159914D01*
X133247619Y-81159914D02*
X133247619Y-80512295D01*
X134047618Y-81312295D02*
X133590475Y-81312295D01*
X133819047Y-81312295D02*
X133819047Y-80512295D01*
X133819047Y-80512295D02*
X133742856Y-80626580D01*
X133742856Y-80626580D02*
X133666666Y-80702771D01*
X133666666Y-80702771D02*
X133590475Y-80740866D01*
X139490475Y-69524200D02*
X139604761Y-69562295D01*
X139604761Y-69562295D02*
X139795237Y-69562295D01*
X139795237Y-69562295D02*
X139871428Y-69524200D01*
X139871428Y-69524200D02*
X139909523Y-69486104D01*
X139909523Y-69486104D02*
X139947618Y-69409914D01*
X139947618Y-69409914D02*
X139947618Y-69333723D01*
X139947618Y-69333723D02*
X139909523Y-69257533D01*
X139909523Y-69257533D02*
X139871428Y-69219438D01*
X139871428Y-69219438D02*
X139795237Y-69181342D01*
X139795237Y-69181342D02*
X139642856Y-69143247D01*
X139642856Y-69143247D02*
X139566666Y-69105152D01*
X139566666Y-69105152D02*
X139528571Y-69067057D01*
X139528571Y-69067057D02*
X139490475Y-68990866D01*
X139490475Y-68990866D02*
X139490475Y-68914676D01*
X139490475Y-68914676D02*
X139528571Y-68838485D01*
X139528571Y-68838485D02*
X139566666Y-68800390D01*
X139566666Y-68800390D02*
X139642856Y-68762295D01*
X139642856Y-68762295D02*
X139833333Y-68762295D01*
X139833333Y-68762295D02*
X139947618Y-68800390D01*
X140709523Y-69562295D02*
X140252380Y-69562295D01*
X140480952Y-69562295D02*
X140480952Y-68762295D01*
X140480952Y-68762295D02*
X140404761Y-68876580D01*
X140404761Y-68876580D02*
X140328571Y-68952771D01*
X140328571Y-68952771D02*
X140252380Y-68990866D01*
D13*
X145023809Y-138508171D02*
X144976190Y-138460552D01*
X144976190Y-138460552D02*
X144880952Y-138317695D01*
X144880952Y-138317695D02*
X144833333Y-138222457D01*
X144833333Y-138222457D02*
X144785714Y-138079600D01*
X144785714Y-138079600D02*
X144738095Y-137841504D01*
X144738095Y-137841504D02*
X144738095Y-137651028D01*
X144738095Y-137651028D02*
X144785714Y-137412933D01*
X144785714Y-137412933D02*
X144833333Y-137270076D01*
X144833333Y-137270076D02*
X144880952Y-137174838D01*
X144880952Y-137174838D02*
X144976190Y-137031980D01*
X144976190Y-137031980D02*
X145023809Y-136984361D01*
X145404762Y-138127219D02*
X145404762Y-137127219D01*
X145404762Y-137127219D02*
X145976190Y-138127219D01*
X145976190Y-138127219D02*
X145976190Y-137127219D01*
X146357143Y-138508171D02*
X146404762Y-138460552D01*
X146404762Y-138460552D02*
X146500000Y-138317695D01*
X146500000Y-138317695D02*
X146547619Y-138222457D01*
X146547619Y-138222457D02*
X146595238Y-138079600D01*
X146595238Y-138079600D02*
X146642857Y-137841504D01*
X146642857Y-137841504D02*
X146642857Y-137651028D01*
X146642857Y-137651028D02*
X146595238Y-137412933D01*
X146595238Y-137412933D02*
X146547619Y-137270076D01*
X146547619Y-137270076D02*
X146500000Y-137174838D01*
X146500000Y-137174838D02*
X146404762Y-137031980D01*
X146404762Y-137031980D02*
X146357143Y-136984361D01*
X147119048Y-137746266D02*
X147880953Y-137746266D01*
X148500000Y-138127219D02*
X148404762Y-138079600D01*
X148404762Y-138079600D02*
X148357143Y-138031980D01*
X148357143Y-138031980D02*
X148309524Y-137936742D01*
X148309524Y-137936742D02*
X148309524Y-137651028D01*
X148309524Y-137651028D02*
X148357143Y-137555790D01*
X148357143Y-137555790D02*
X148404762Y-137508171D01*
X148404762Y-137508171D02*
X148500000Y-137460552D01*
X148500000Y-137460552D02*
X148642857Y-137460552D01*
X148642857Y-137460552D02*
X148738095Y-137508171D01*
X148738095Y-137508171D02*
X148785714Y-137555790D01*
X148785714Y-137555790D02*
X148833333Y-137651028D01*
X148833333Y-137651028D02*
X148833333Y-137936742D01*
X148833333Y-137936742D02*
X148785714Y-138031980D01*
X148785714Y-138031980D02*
X148738095Y-138079600D01*
X148738095Y-138079600D02*
X148642857Y-138127219D01*
X148642857Y-138127219D02*
X148500000Y-138127219D01*
X149690476Y-137460552D02*
X149690476Y-138127219D01*
X149261905Y-137460552D02*
X149261905Y-137984361D01*
X149261905Y-137984361D02*
X149309524Y-138079600D01*
X149309524Y-138079600D02*
X149404762Y-138127219D01*
X149404762Y-138127219D02*
X149547619Y-138127219D01*
X149547619Y-138127219D02*
X149642857Y-138079600D01*
X149642857Y-138079600D02*
X149690476Y-138031980D01*
X150023810Y-137460552D02*
X150404762Y-137460552D01*
X150166667Y-137127219D02*
X150166667Y-137984361D01*
X150166667Y-137984361D02*
X150214286Y-138079600D01*
X150214286Y-138079600D02*
X150309524Y-138127219D01*
X150309524Y-138127219D02*
X150404762Y-138127219D01*
D12*
X132816667Y-100962295D02*
X132550000Y-100581342D01*
X132359524Y-100962295D02*
X132359524Y-100162295D01*
X132359524Y-100162295D02*
X132664286Y-100162295D01*
X132664286Y-100162295D02*
X132740476Y-100200390D01*
X132740476Y-100200390D02*
X132778571Y-100238485D01*
X132778571Y-100238485D02*
X132816667Y-100314676D01*
X132816667Y-100314676D02*
X132816667Y-100428961D01*
X132816667Y-100428961D02*
X132778571Y-100505152D01*
X132778571Y-100505152D02*
X132740476Y-100543247D01*
X132740476Y-100543247D02*
X132664286Y-100581342D01*
X132664286Y-100581342D02*
X132359524Y-100581342D01*
X133578571Y-100962295D02*
X133121428Y-100962295D01*
X133350000Y-100962295D02*
X133350000Y-100162295D01*
X133350000Y-100162295D02*
X133273809Y-100276580D01*
X133273809Y-100276580D02*
X133197619Y-100352771D01*
X133197619Y-100352771D02*
X133121428Y-100390866D01*
X129087295Y-78189285D02*
X128706342Y-78455952D01*
X129087295Y-78646428D02*
X128287295Y-78646428D01*
X128287295Y-78646428D02*
X128287295Y-78341666D01*
X128287295Y-78341666D02*
X128325390Y-78265476D01*
X128325390Y-78265476D02*
X128363485Y-78227381D01*
X128363485Y-78227381D02*
X128439676Y-78189285D01*
X128439676Y-78189285D02*
X128553961Y-78189285D01*
X128553961Y-78189285D02*
X128630152Y-78227381D01*
X128630152Y-78227381D02*
X128668247Y-78265476D01*
X128668247Y-78265476D02*
X128706342Y-78341666D01*
X128706342Y-78341666D02*
X128706342Y-78646428D01*
X128287295Y-77922619D02*
X128287295Y-77427381D01*
X128287295Y-77427381D02*
X128592057Y-77694047D01*
X128592057Y-77694047D02*
X128592057Y-77579762D01*
X128592057Y-77579762D02*
X128630152Y-77503571D01*
X128630152Y-77503571D02*
X128668247Y-77465476D01*
X128668247Y-77465476D02*
X128744438Y-77427381D01*
X128744438Y-77427381D02*
X128934914Y-77427381D01*
X128934914Y-77427381D02*
X129011104Y-77465476D01*
X129011104Y-77465476D02*
X129049200Y-77503571D01*
X129049200Y-77503571D02*
X129087295Y-77579762D01*
X129087295Y-77579762D02*
X129087295Y-77808333D01*
X129087295Y-77808333D02*
X129049200Y-77884524D01*
X129049200Y-77884524D02*
X129011104Y-77922619D01*
X128287295Y-77160714D02*
X128287295Y-76627380D01*
X128287295Y-76627380D02*
X129087295Y-76970238D01*
X174183333Y-94912295D02*
X174183333Y-95483723D01*
X174183333Y-95483723D02*
X174145238Y-95598009D01*
X174145238Y-95598009D02*
X174069047Y-95674200D01*
X174069047Y-95674200D02*
X173954762Y-95712295D01*
X173954762Y-95712295D02*
X173878571Y-95712295D01*
X174488095Y-94912295D02*
X175021429Y-94912295D01*
X175021429Y-94912295D02*
X174678571Y-95712295D01*
X120412295Y-89609523D02*
X121059914Y-89609523D01*
X121059914Y-89609523D02*
X121136104Y-89571428D01*
X121136104Y-89571428D02*
X121174200Y-89533333D01*
X121174200Y-89533333D02*
X121212295Y-89457142D01*
X121212295Y-89457142D02*
X121212295Y-89304761D01*
X121212295Y-89304761D02*
X121174200Y-89228571D01*
X121174200Y-89228571D02*
X121136104Y-89190476D01*
X121136104Y-89190476D02*
X121059914Y-89152380D01*
X121059914Y-89152380D02*
X120412295Y-89152380D01*
X120412295Y-88847619D02*
X120412295Y-88352381D01*
X120412295Y-88352381D02*
X120717057Y-88619047D01*
X120717057Y-88619047D02*
X120717057Y-88504762D01*
X120717057Y-88504762D02*
X120755152Y-88428571D01*
X120755152Y-88428571D02*
X120793247Y-88390476D01*
X120793247Y-88390476D02*
X120869438Y-88352381D01*
X120869438Y-88352381D02*
X121059914Y-88352381D01*
X121059914Y-88352381D02*
X121136104Y-88390476D01*
X121136104Y-88390476D02*
X121174200Y-88428571D01*
X121174200Y-88428571D02*
X121212295Y-88504762D01*
X121212295Y-88504762D02*
X121212295Y-88733333D01*
X121212295Y-88733333D02*
X121174200Y-88809524D01*
X121174200Y-88809524D02*
X121136104Y-88847619D01*
X157638095Y-137554819D02*
X158209523Y-137554819D01*
X157923809Y-138554819D02*
X157923809Y-137554819D01*
X158495238Y-137650057D02*
X158542857Y-137602438D01*
X158542857Y-137602438D02*
X158638095Y-137554819D01*
X158638095Y-137554819D02*
X158876190Y-137554819D01*
X158876190Y-137554819D02*
X158971428Y-137602438D01*
X158971428Y-137602438D02*
X159019047Y-137650057D01*
X159019047Y-137650057D02*
X159066666Y-137745295D01*
X159066666Y-137745295D02*
X159066666Y-137840533D01*
X159066666Y-137840533D02*
X159019047Y-137983390D01*
X159019047Y-137983390D02*
X158447619Y-138554819D01*
X158447619Y-138554819D02*
X159066666Y-138554819D01*
X139300714Y-77712295D02*
X139034047Y-77331342D01*
X138843571Y-77712295D02*
X138843571Y-76912295D01*
X138843571Y-76912295D02*
X139148333Y-76912295D01*
X139148333Y-76912295D02*
X139224523Y-76950390D01*
X139224523Y-76950390D02*
X139262618Y-76988485D01*
X139262618Y-76988485D02*
X139300714Y-77064676D01*
X139300714Y-77064676D02*
X139300714Y-77178961D01*
X139300714Y-77178961D02*
X139262618Y-77255152D01*
X139262618Y-77255152D02*
X139224523Y-77293247D01*
X139224523Y-77293247D02*
X139148333Y-77331342D01*
X139148333Y-77331342D02*
X138843571Y-77331342D01*
X139567380Y-76912295D02*
X140062618Y-76912295D01*
X140062618Y-76912295D02*
X139795952Y-77217057D01*
X139795952Y-77217057D02*
X139910237Y-77217057D01*
X139910237Y-77217057D02*
X139986428Y-77255152D01*
X139986428Y-77255152D02*
X140024523Y-77293247D01*
X140024523Y-77293247D02*
X140062618Y-77369438D01*
X140062618Y-77369438D02*
X140062618Y-77559914D01*
X140062618Y-77559914D02*
X140024523Y-77636104D01*
X140024523Y-77636104D02*
X139986428Y-77674200D01*
X139986428Y-77674200D02*
X139910237Y-77712295D01*
X139910237Y-77712295D02*
X139681666Y-77712295D01*
X139681666Y-77712295D02*
X139605475Y-77674200D01*
X139605475Y-77674200D02*
X139567380Y-77636104D01*
X140748333Y-77178961D02*
X140748333Y-77712295D01*
X140557857Y-76874200D02*
X140367380Y-77445628D01*
X140367380Y-77445628D02*
X140862619Y-77445628D01*
X155660714Y-112912295D02*
X155394047Y-112531342D01*
X155203571Y-112912295D02*
X155203571Y-112112295D01*
X155203571Y-112112295D02*
X155508333Y-112112295D01*
X155508333Y-112112295D02*
X155584523Y-112150390D01*
X155584523Y-112150390D02*
X155622618Y-112188485D01*
X155622618Y-112188485D02*
X155660714Y-112264676D01*
X155660714Y-112264676D02*
X155660714Y-112378961D01*
X155660714Y-112378961D02*
X155622618Y-112455152D01*
X155622618Y-112455152D02*
X155584523Y-112493247D01*
X155584523Y-112493247D02*
X155508333Y-112531342D01*
X155508333Y-112531342D02*
X155203571Y-112531342D01*
X155965475Y-112188485D02*
X156003571Y-112150390D01*
X156003571Y-112150390D02*
X156079761Y-112112295D01*
X156079761Y-112112295D02*
X156270237Y-112112295D01*
X156270237Y-112112295D02*
X156346428Y-112150390D01*
X156346428Y-112150390D02*
X156384523Y-112188485D01*
X156384523Y-112188485D02*
X156422618Y-112264676D01*
X156422618Y-112264676D02*
X156422618Y-112340866D01*
X156422618Y-112340866D02*
X156384523Y-112455152D01*
X156384523Y-112455152D02*
X155927380Y-112912295D01*
X155927380Y-112912295D02*
X156422618Y-112912295D01*
X156689285Y-112112295D02*
X157222619Y-112112295D01*
X157222619Y-112112295D02*
X156879761Y-112912295D01*
X149192319Y-99616666D02*
X148716128Y-99949999D01*
X149192319Y-100188094D02*
X148192319Y-100188094D01*
X148192319Y-100188094D02*
X148192319Y-99807142D01*
X148192319Y-99807142D02*
X148239938Y-99711904D01*
X148239938Y-99711904D02*
X148287557Y-99664285D01*
X148287557Y-99664285D02*
X148382795Y-99616666D01*
X148382795Y-99616666D02*
X148525652Y-99616666D01*
X148525652Y-99616666D02*
X148620890Y-99664285D01*
X148620890Y-99664285D02*
X148668509Y-99711904D01*
X148668509Y-99711904D02*
X148716128Y-99807142D01*
X148716128Y-99807142D02*
X148716128Y-100188094D01*
X148192319Y-98759523D02*
X148192319Y-98949999D01*
X148192319Y-98949999D02*
X148239938Y-99045237D01*
X148239938Y-99045237D02*
X148287557Y-99092856D01*
X148287557Y-99092856D02*
X148430414Y-99188094D01*
X148430414Y-99188094D02*
X148620890Y-99235713D01*
X148620890Y-99235713D02*
X149001842Y-99235713D01*
X149001842Y-99235713D02*
X149097080Y-99188094D01*
X149097080Y-99188094D02*
X149144700Y-99140475D01*
X149144700Y-99140475D02*
X149192319Y-99045237D01*
X149192319Y-99045237D02*
X149192319Y-98854761D01*
X149192319Y-98854761D02*
X149144700Y-98759523D01*
X149144700Y-98759523D02*
X149097080Y-98711904D01*
X149097080Y-98711904D02*
X149001842Y-98664285D01*
X149001842Y-98664285D02*
X148763747Y-98664285D01*
X148763747Y-98664285D02*
X148668509Y-98711904D01*
X148668509Y-98711904D02*
X148620890Y-98759523D01*
X148620890Y-98759523D02*
X148573271Y-98854761D01*
X148573271Y-98854761D02*
X148573271Y-99045237D01*
X148573271Y-99045237D02*
X148620890Y-99140475D01*
X148620890Y-99140475D02*
X148668509Y-99188094D01*
X148668509Y-99188094D02*
X148763747Y-99235713D01*
X130185714Y-95324795D02*
X129919047Y-94943842D01*
X129728571Y-95324795D02*
X129728571Y-94524795D01*
X129728571Y-94524795D02*
X130033333Y-94524795D01*
X130033333Y-94524795D02*
X130109523Y-94562890D01*
X130109523Y-94562890D02*
X130147618Y-94600985D01*
X130147618Y-94600985D02*
X130185714Y-94677176D01*
X130185714Y-94677176D02*
X130185714Y-94791461D01*
X130185714Y-94791461D02*
X130147618Y-94867652D01*
X130147618Y-94867652D02*
X130109523Y-94905747D01*
X130109523Y-94905747D02*
X130033333Y-94943842D01*
X130033333Y-94943842D02*
X129728571Y-94943842D01*
X130871428Y-94791461D02*
X130871428Y-95324795D01*
X130680952Y-94486700D02*
X130490475Y-95058128D01*
X130490475Y-95058128D02*
X130985714Y-95058128D01*
X131252380Y-94600985D02*
X131290476Y-94562890D01*
X131290476Y-94562890D02*
X131366666Y-94524795D01*
X131366666Y-94524795D02*
X131557142Y-94524795D01*
X131557142Y-94524795D02*
X131633333Y-94562890D01*
X131633333Y-94562890D02*
X131671428Y-94600985D01*
X131671428Y-94600985D02*
X131709523Y-94677176D01*
X131709523Y-94677176D02*
X131709523Y-94753366D01*
X131709523Y-94753366D02*
X131671428Y-94867652D01*
X131671428Y-94867652D02*
X131214285Y-95324795D01*
X131214285Y-95324795D02*
X131709523Y-95324795D01*
X130354819Y-80583333D02*
X131069104Y-80583333D01*
X131069104Y-80583333D02*
X131211961Y-80630952D01*
X131211961Y-80630952D02*
X131307200Y-80726190D01*
X131307200Y-80726190D02*
X131354819Y-80869047D01*
X131354819Y-80869047D02*
X131354819Y-80964285D01*
X130783390Y-79964285D02*
X130735771Y-80059523D01*
X130735771Y-80059523D02*
X130688152Y-80107142D01*
X130688152Y-80107142D02*
X130592914Y-80154761D01*
X130592914Y-80154761D02*
X130545295Y-80154761D01*
X130545295Y-80154761D02*
X130450057Y-80107142D01*
X130450057Y-80107142D02*
X130402438Y-80059523D01*
X130402438Y-80059523D02*
X130354819Y-79964285D01*
X130354819Y-79964285D02*
X130354819Y-79773809D01*
X130354819Y-79773809D02*
X130402438Y-79678571D01*
X130402438Y-79678571D02*
X130450057Y-79630952D01*
X130450057Y-79630952D02*
X130545295Y-79583333D01*
X130545295Y-79583333D02*
X130592914Y-79583333D01*
X130592914Y-79583333D02*
X130688152Y-79630952D01*
X130688152Y-79630952D02*
X130735771Y-79678571D01*
X130735771Y-79678571D02*
X130783390Y-79773809D01*
X130783390Y-79773809D02*
X130783390Y-79964285D01*
X130783390Y-79964285D02*
X130831009Y-80059523D01*
X130831009Y-80059523D02*
X130878628Y-80107142D01*
X130878628Y-80107142D02*
X130973866Y-80154761D01*
X130973866Y-80154761D02*
X131164342Y-80154761D01*
X131164342Y-80154761D02*
X131259580Y-80107142D01*
X131259580Y-80107142D02*
X131307200Y-80059523D01*
X131307200Y-80059523D02*
X131354819Y-79964285D01*
X131354819Y-79964285D02*
X131354819Y-79773809D01*
X131354819Y-79773809D02*
X131307200Y-79678571D01*
X131307200Y-79678571D02*
X131259580Y-79630952D01*
X131259580Y-79630952D02*
X131164342Y-79583333D01*
X131164342Y-79583333D02*
X130973866Y-79583333D01*
X130973866Y-79583333D02*
X130878628Y-79630952D01*
X130878628Y-79630952D02*
X130831009Y-79678571D01*
X130831009Y-79678571D02*
X130783390Y-79773809D01*
X134185714Y-69486104D02*
X134147618Y-69524200D01*
X134147618Y-69524200D02*
X134033333Y-69562295D01*
X134033333Y-69562295D02*
X133957142Y-69562295D01*
X133957142Y-69562295D02*
X133842856Y-69524200D01*
X133842856Y-69524200D02*
X133766666Y-69448009D01*
X133766666Y-69448009D02*
X133728571Y-69371819D01*
X133728571Y-69371819D02*
X133690475Y-69219438D01*
X133690475Y-69219438D02*
X133690475Y-69105152D01*
X133690475Y-69105152D02*
X133728571Y-68952771D01*
X133728571Y-68952771D02*
X133766666Y-68876580D01*
X133766666Y-68876580D02*
X133842856Y-68800390D01*
X133842856Y-68800390D02*
X133957142Y-68762295D01*
X133957142Y-68762295D02*
X134033333Y-68762295D01*
X134033333Y-68762295D02*
X134147618Y-68800390D01*
X134147618Y-68800390D02*
X134185714Y-68838485D01*
X134452380Y-68762295D02*
X134947618Y-68762295D01*
X134947618Y-68762295D02*
X134680952Y-69067057D01*
X134680952Y-69067057D02*
X134795237Y-69067057D01*
X134795237Y-69067057D02*
X134871428Y-69105152D01*
X134871428Y-69105152D02*
X134909523Y-69143247D01*
X134909523Y-69143247D02*
X134947618Y-69219438D01*
X134947618Y-69219438D02*
X134947618Y-69409914D01*
X134947618Y-69409914D02*
X134909523Y-69486104D01*
X134909523Y-69486104D02*
X134871428Y-69524200D01*
X134871428Y-69524200D02*
X134795237Y-69562295D01*
X134795237Y-69562295D02*
X134566666Y-69562295D01*
X134566666Y-69562295D02*
X134490475Y-69524200D01*
X134490475Y-69524200D02*
X134452380Y-69486104D01*
X135328571Y-69562295D02*
X135480952Y-69562295D01*
X135480952Y-69562295D02*
X135557142Y-69524200D01*
X135557142Y-69524200D02*
X135595238Y-69486104D01*
X135595238Y-69486104D02*
X135671428Y-69371819D01*
X135671428Y-69371819D02*
X135709523Y-69219438D01*
X135709523Y-69219438D02*
X135709523Y-68914676D01*
X135709523Y-68914676D02*
X135671428Y-68838485D01*
X135671428Y-68838485D02*
X135633333Y-68800390D01*
X135633333Y-68800390D02*
X135557142Y-68762295D01*
X135557142Y-68762295D02*
X135404761Y-68762295D01*
X135404761Y-68762295D02*
X135328571Y-68800390D01*
X135328571Y-68800390D02*
X135290476Y-68838485D01*
X135290476Y-68838485D02*
X135252380Y-68914676D01*
X135252380Y-68914676D02*
X135252380Y-69105152D01*
X135252380Y-69105152D02*
X135290476Y-69181342D01*
X135290476Y-69181342D02*
X135328571Y-69219438D01*
X135328571Y-69219438D02*
X135404761Y-69257533D01*
X135404761Y-69257533D02*
X135557142Y-69257533D01*
X135557142Y-69257533D02*
X135633333Y-69219438D01*
X135633333Y-69219438D02*
X135671428Y-69181342D01*
X135671428Y-69181342D02*
X135709523Y-69105152D01*
D15*
X142415476Y-121339895D02*
X142415476Y-120539895D01*
X142415476Y-120539895D02*
X142682142Y-121111323D01*
X142682142Y-121111323D02*
X142948809Y-120539895D01*
X142948809Y-120539895D02*
X142948809Y-121339895D01*
X143482143Y-120539895D02*
X143634524Y-120539895D01*
X143634524Y-120539895D02*
X143710714Y-120577990D01*
X143710714Y-120577990D02*
X143786905Y-120654180D01*
X143786905Y-120654180D02*
X143825000Y-120806561D01*
X143825000Y-120806561D02*
X143825000Y-121073228D01*
X143825000Y-121073228D02*
X143786905Y-121225609D01*
X143786905Y-121225609D02*
X143710714Y-121301800D01*
X143710714Y-121301800D02*
X143634524Y-121339895D01*
X143634524Y-121339895D02*
X143482143Y-121339895D01*
X143482143Y-121339895D02*
X143405952Y-121301800D01*
X143405952Y-121301800D02*
X143329762Y-121225609D01*
X143329762Y-121225609D02*
X143291666Y-121073228D01*
X143291666Y-121073228D02*
X143291666Y-120806561D01*
X143291666Y-120806561D02*
X143329762Y-120654180D01*
X143329762Y-120654180D02*
X143405952Y-120577990D01*
X143405952Y-120577990D02*
X143482143Y-120539895D01*
X144053571Y-120539895D02*
X144320238Y-121339895D01*
X144320238Y-121339895D02*
X144586904Y-120539895D01*
X145272618Y-121339895D02*
X144815475Y-121339895D01*
X145044047Y-121339895D02*
X145044047Y-120539895D01*
X145044047Y-120539895D02*
X144967856Y-120654180D01*
X144967856Y-120654180D02*
X144891666Y-120730371D01*
X144891666Y-120730371D02*
X144815475Y-120768466D01*
D12*
X182059524Y-91412295D02*
X182059524Y-90612295D01*
X182059524Y-90612295D02*
X182250000Y-90612295D01*
X182250000Y-90612295D02*
X182364286Y-90650390D01*
X182364286Y-90650390D02*
X182440476Y-90726580D01*
X182440476Y-90726580D02*
X182478571Y-90802771D01*
X182478571Y-90802771D02*
X182516667Y-90955152D01*
X182516667Y-90955152D02*
X182516667Y-91069438D01*
X182516667Y-91069438D02*
X182478571Y-91221819D01*
X182478571Y-91221819D02*
X182440476Y-91298009D01*
X182440476Y-91298009D02*
X182364286Y-91374200D01*
X182364286Y-91374200D02*
X182250000Y-91412295D01*
X182250000Y-91412295D02*
X182059524Y-91412295D01*
X183278571Y-91412295D02*
X182821428Y-91412295D01*
X183050000Y-91412295D02*
X183050000Y-90612295D01*
X183050000Y-90612295D02*
X182973809Y-90726580D01*
X182973809Y-90726580D02*
X182897619Y-90802771D01*
X182897619Y-90802771D02*
X182821428Y-90840866D01*
X141364761Y-65312295D02*
X140983809Y-65312295D01*
X140983809Y-65312295D02*
X140983809Y-64512295D01*
X141631428Y-64893247D02*
X141898094Y-64893247D01*
X142012380Y-65312295D02*
X141631428Y-65312295D01*
X141631428Y-65312295D02*
X141631428Y-64512295D01*
X141631428Y-64512295D02*
X142012380Y-64512295D01*
X142355238Y-65312295D02*
X142355238Y-64512295D01*
X142355238Y-64512295D02*
X142545714Y-64512295D01*
X142545714Y-64512295D02*
X142660000Y-64550390D01*
X142660000Y-64550390D02*
X142736190Y-64626580D01*
X142736190Y-64626580D02*
X142774285Y-64702771D01*
X142774285Y-64702771D02*
X142812381Y-64855152D01*
X142812381Y-64855152D02*
X142812381Y-64969438D01*
X142812381Y-64969438D02*
X142774285Y-65121819D01*
X142774285Y-65121819D02*
X142736190Y-65198009D01*
X142736190Y-65198009D02*
X142660000Y-65274200D01*
X142660000Y-65274200D02*
X142545714Y-65312295D01*
X142545714Y-65312295D02*
X142355238Y-65312295D01*
X143574285Y-65312295D02*
X143117142Y-65312295D01*
X143345714Y-65312295D02*
X143345714Y-64512295D01*
X143345714Y-64512295D02*
X143269523Y-64626580D01*
X143269523Y-64626580D02*
X143193333Y-64702771D01*
X143193333Y-64702771D02*
X143117142Y-64740866D01*
X140688095Y-137354819D02*
X141259523Y-137354819D01*
X140973809Y-138354819D02*
X140973809Y-137354819D01*
X142116666Y-138354819D02*
X141545238Y-138354819D01*
X141830952Y-138354819D02*
X141830952Y-137354819D01*
X141830952Y-137354819D02*
X141735714Y-137497676D01*
X141735714Y-137497676D02*
X141640476Y-137592914D01*
X141640476Y-137592914D02*
X141545238Y-137640533D01*
X174988095Y-137654819D02*
X175559523Y-137654819D01*
X175273809Y-138654819D02*
X175273809Y-137654819D01*
X175797619Y-137654819D02*
X176416666Y-137654819D01*
X176416666Y-137654819D02*
X176083333Y-138035771D01*
X176083333Y-138035771D02*
X176226190Y-138035771D01*
X176226190Y-138035771D02*
X176321428Y-138083390D01*
X176321428Y-138083390D02*
X176369047Y-138131009D01*
X176369047Y-138131009D02*
X176416666Y-138226247D01*
X176416666Y-138226247D02*
X176416666Y-138464342D01*
X176416666Y-138464342D02*
X176369047Y-138559580D01*
X176369047Y-138559580D02*
X176321428Y-138607200D01*
X176321428Y-138607200D02*
X176226190Y-138654819D01*
X176226190Y-138654819D02*
X175940476Y-138654819D01*
X175940476Y-138654819D02*
X175845238Y-138607200D01*
X175845238Y-138607200D02*
X175797619Y-138559580D01*
X156633333Y-97454819D02*
X156300000Y-96978628D01*
X156061905Y-97454819D02*
X156061905Y-96454819D01*
X156061905Y-96454819D02*
X156442857Y-96454819D01*
X156442857Y-96454819D02*
X156538095Y-96502438D01*
X156538095Y-96502438D02*
X156585714Y-96550057D01*
X156585714Y-96550057D02*
X156633333Y-96645295D01*
X156633333Y-96645295D02*
X156633333Y-96788152D01*
X156633333Y-96788152D02*
X156585714Y-96883390D01*
X156585714Y-96883390D02*
X156538095Y-96931009D01*
X156538095Y-96931009D02*
X156442857Y-96978628D01*
X156442857Y-96978628D02*
X156061905Y-96978628D01*
X156966667Y-96454819D02*
X157585714Y-96454819D01*
X157585714Y-96454819D02*
X157252381Y-96835771D01*
X157252381Y-96835771D02*
X157395238Y-96835771D01*
X157395238Y-96835771D02*
X157490476Y-96883390D01*
X157490476Y-96883390D02*
X157538095Y-96931009D01*
X157538095Y-96931009D02*
X157585714Y-97026247D01*
X157585714Y-97026247D02*
X157585714Y-97264342D01*
X157585714Y-97264342D02*
X157538095Y-97359580D01*
X157538095Y-97359580D02*
X157490476Y-97407200D01*
X157490476Y-97407200D02*
X157395238Y-97454819D01*
X157395238Y-97454819D02*
X157109524Y-97454819D01*
X157109524Y-97454819D02*
X157014286Y-97407200D01*
X157014286Y-97407200D02*
X156966667Y-97359580D01*
X160460714Y-108562295D02*
X160194047Y-108181342D01*
X160003571Y-108562295D02*
X160003571Y-107762295D01*
X160003571Y-107762295D02*
X160308333Y-107762295D01*
X160308333Y-107762295D02*
X160384523Y-107800390D01*
X160384523Y-107800390D02*
X160422618Y-107838485D01*
X160422618Y-107838485D02*
X160460714Y-107914676D01*
X160460714Y-107914676D02*
X160460714Y-108028961D01*
X160460714Y-108028961D02*
X160422618Y-108105152D01*
X160422618Y-108105152D02*
X160384523Y-108143247D01*
X160384523Y-108143247D02*
X160308333Y-108181342D01*
X160308333Y-108181342D02*
X160003571Y-108181342D01*
X160765475Y-107838485D02*
X160803571Y-107800390D01*
X160803571Y-107800390D02*
X160879761Y-107762295D01*
X160879761Y-107762295D02*
X161070237Y-107762295D01*
X161070237Y-107762295D02*
X161146428Y-107800390D01*
X161146428Y-107800390D02*
X161184523Y-107838485D01*
X161184523Y-107838485D02*
X161222618Y-107914676D01*
X161222618Y-107914676D02*
X161222618Y-107990866D01*
X161222618Y-107990866D02*
X161184523Y-108105152D01*
X161184523Y-108105152D02*
X160727380Y-108562295D01*
X160727380Y-108562295D02*
X161222618Y-108562295D01*
X161679761Y-108105152D02*
X161603571Y-108067057D01*
X161603571Y-108067057D02*
X161565476Y-108028961D01*
X161565476Y-108028961D02*
X161527380Y-107952771D01*
X161527380Y-107952771D02*
X161527380Y-107914676D01*
X161527380Y-107914676D02*
X161565476Y-107838485D01*
X161565476Y-107838485D02*
X161603571Y-107800390D01*
X161603571Y-107800390D02*
X161679761Y-107762295D01*
X161679761Y-107762295D02*
X161832142Y-107762295D01*
X161832142Y-107762295D02*
X161908333Y-107800390D01*
X161908333Y-107800390D02*
X161946428Y-107838485D01*
X161946428Y-107838485D02*
X161984523Y-107914676D01*
X161984523Y-107914676D02*
X161984523Y-107952771D01*
X161984523Y-107952771D02*
X161946428Y-108028961D01*
X161946428Y-108028961D02*
X161908333Y-108067057D01*
X161908333Y-108067057D02*
X161832142Y-108105152D01*
X161832142Y-108105152D02*
X161679761Y-108105152D01*
X161679761Y-108105152D02*
X161603571Y-108143247D01*
X161603571Y-108143247D02*
X161565476Y-108181342D01*
X161565476Y-108181342D02*
X161527380Y-108257533D01*
X161527380Y-108257533D02*
X161527380Y-108409914D01*
X161527380Y-108409914D02*
X161565476Y-108486104D01*
X161565476Y-108486104D02*
X161603571Y-108524200D01*
X161603571Y-108524200D02*
X161679761Y-108562295D01*
X161679761Y-108562295D02*
X161832142Y-108562295D01*
X161832142Y-108562295D02*
X161908333Y-108524200D01*
X161908333Y-108524200D02*
X161946428Y-108486104D01*
X161946428Y-108486104D02*
X161984523Y-108409914D01*
X161984523Y-108409914D02*
X161984523Y-108257533D01*
X161984523Y-108257533D02*
X161946428Y-108181342D01*
X161946428Y-108181342D02*
X161908333Y-108143247D01*
X161908333Y-108143247D02*
X161832142Y-108105152D01*
X181159580Y-105812857D02*
X181207200Y-105860476D01*
X181207200Y-105860476D02*
X181254819Y-106003333D01*
X181254819Y-106003333D02*
X181254819Y-106098571D01*
X181254819Y-106098571D02*
X181207200Y-106241428D01*
X181207200Y-106241428D02*
X181111961Y-106336666D01*
X181111961Y-106336666D02*
X181016723Y-106384285D01*
X181016723Y-106384285D02*
X180826247Y-106431904D01*
X180826247Y-106431904D02*
X180683390Y-106431904D01*
X180683390Y-106431904D02*
X180492914Y-106384285D01*
X180492914Y-106384285D02*
X180397676Y-106336666D01*
X180397676Y-106336666D02*
X180302438Y-106241428D01*
X180302438Y-106241428D02*
X180254819Y-106098571D01*
X180254819Y-106098571D02*
X180254819Y-106003333D01*
X180254819Y-106003333D02*
X180302438Y-105860476D01*
X180302438Y-105860476D02*
X180350057Y-105812857D01*
X181254819Y-104860476D02*
X181254819Y-105431904D01*
X181254819Y-105146190D02*
X180254819Y-105146190D01*
X180254819Y-105146190D02*
X180397676Y-105241428D01*
X180397676Y-105241428D02*
X180492914Y-105336666D01*
X180492914Y-105336666D02*
X180540533Y-105431904D01*
X180350057Y-104479523D02*
X180302438Y-104431904D01*
X180302438Y-104431904D02*
X180254819Y-104336666D01*
X180254819Y-104336666D02*
X180254819Y-104098571D01*
X180254819Y-104098571D02*
X180302438Y-104003333D01*
X180302438Y-104003333D02*
X180350057Y-103955714D01*
X180350057Y-103955714D02*
X180445295Y-103908095D01*
X180445295Y-103908095D02*
X180540533Y-103908095D01*
X180540533Y-103908095D02*
X180683390Y-103955714D01*
X180683390Y-103955714D02*
X181254819Y-104527142D01*
X181254819Y-104527142D02*
X181254819Y-103908095D01*
X138715476Y-78662295D02*
X139172619Y-78662295D01*
X138944047Y-79462295D02*
X138944047Y-78662295D01*
X139439286Y-79462295D02*
X139439286Y-78662295D01*
X139439286Y-78662295D02*
X139744048Y-78662295D01*
X139744048Y-78662295D02*
X139820238Y-78700390D01*
X139820238Y-78700390D02*
X139858333Y-78738485D01*
X139858333Y-78738485D02*
X139896429Y-78814676D01*
X139896429Y-78814676D02*
X139896429Y-78928961D01*
X139896429Y-78928961D02*
X139858333Y-79005152D01*
X139858333Y-79005152D02*
X139820238Y-79043247D01*
X139820238Y-79043247D02*
X139744048Y-79081342D01*
X139744048Y-79081342D02*
X139439286Y-79081342D01*
X140658333Y-79462295D02*
X140201190Y-79462295D01*
X140429762Y-79462295D02*
X140429762Y-78662295D01*
X140429762Y-78662295D02*
X140353571Y-78776580D01*
X140353571Y-78776580D02*
X140277381Y-78852771D01*
X140277381Y-78852771D02*
X140201190Y-78890866D01*
X133040475Y-62924200D02*
X133154761Y-62962295D01*
X133154761Y-62962295D02*
X133345237Y-62962295D01*
X133345237Y-62962295D02*
X133421428Y-62924200D01*
X133421428Y-62924200D02*
X133459523Y-62886104D01*
X133459523Y-62886104D02*
X133497618Y-62809914D01*
X133497618Y-62809914D02*
X133497618Y-62733723D01*
X133497618Y-62733723D02*
X133459523Y-62657533D01*
X133459523Y-62657533D02*
X133421428Y-62619438D01*
X133421428Y-62619438D02*
X133345237Y-62581342D01*
X133345237Y-62581342D02*
X133192856Y-62543247D01*
X133192856Y-62543247D02*
X133116666Y-62505152D01*
X133116666Y-62505152D02*
X133078571Y-62467057D01*
X133078571Y-62467057D02*
X133040475Y-62390866D01*
X133040475Y-62390866D02*
X133040475Y-62314676D01*
X133040475Y-62314676D02*
X133078571Y-62238485D01*
X133078571Y-62238485D02*
X133116666Y-62200390D01*
X133116666Y-62200390D02*
X133192856Y-62162295D01*
X133192856Y-62162295D02*
X133383333Y-62162295D01*
X133383333Y-62162295D02*
X133497618Y-62200390D01*
X133802380Y-62238485D02*
X133840476Y-62200390D01*
X133840476Y-62200390D02*
X133916666Y-62162295D01*
X133916666Y-62162295D02*
X134107142Y-62162295D01*
X134107142Y-62162295D02*
X134183333Y-62200390D01*
X134183333Y-62200390D02*
X134221428Y-62238485D01*
X134221428Y-62238485D02*
X134259523Y-62314676D01*
X134259523Y-62314676D02*
X134259523Y-62390866D01*
X134259523Y-62390866D02*
X134221428Y-62505152D01*
X134221428Y-62505152D02*
X133764285Y-62962295D01*
X133764285Y-62962295D02*
X134259523Y-62962295D01*
X182833333Y-108234580D02*
X182785714Y-108282200D01*
X182785714Y-108282200D02*
X182642857Y-108329819D01*
X182642857Y-108329819D02*
X182547619Y-108329819D01*
X182547619Y-108329819D02*
X182404762Y-108282200D01*
X182404762Y-108282200D02*
X182309524Y-108186961D01*
X182309524Y-108186961D02*
X182261905Y-108091723D01*
X182261905Y-108091723D02*
X182214286Y-107901247D01*
X182214286Y-107901247D02*
X182214286Y-107758390D01*
X182214286Y-107758390D02*
X182261905Y-107567914D01*
X182261905Y-107567914D02*
X182309524Y-107472676D01*
X182309524Y-107472676D02*
X182404762Y-107377438D01*
X182404762Y-107377438D02*
X182547619Y-107329819D01*
X182547619Y-107329819D02*
X182642857Y-107329819D01*
X182642857Y-107329819D02*
X182785714Y-107377438D01*
X182785714Y-107377438D02*
X182833333Y-107425057D01*
X183166667Y-107329819D02*
X183833333Y-107329819D01*
X183833333Y-107329819D02*
X183404762Y-108329819D01*
D13*
X144304761Y-135752219D02*
X143828571Y-135752219D01*
X143828571Y-135752219D02*
X143828571Y-134752219D01*
X144971428Y-135228409D02*
X144638095Y-135228409D01*
X144638095Y-135752219D02*
X144638095Y-134752219D01*
X144638095Y-134752219D02*
X145114285Y-134752219D01*
X146019047Y-135752219D02*
X145447619Y-135752219D01*
X145733333Y-135752219D02*
X145733333Y-134752219D01*
X145733333Y-134752219D02*
X145638095Y-134895076D01*
X145638095Y-134895076D02*
X145542857Y-134990314D01*
X145542857Y-134990314D02*
X145447619Y-135037933D01*
D12*
X146691667Y-92612295D02*
X146425000Y-92231342D01*
X146234524Y-92612295D02*
X146234524Y-91812295D01*
X146234524Y-91812295D02*
X146539286Y-91812295D01*
X146539286Y-91812295D02*
X146615476Y-91850390D01*
X146615476Y-91850390D02*
X146653571Y-91888485D01*
X146653571Y-91888485D02*
X146691667Y-91964676D01*
X146691667Y-91964676D02*
X146691667Y-92078961D01*
X146691667Y-92078961D02*
X146653571Y-92155152D01*
X146653571Y-92155152D02*
X146615476Y-92193247D01*
X146615476Y-92193247D02*
X146539286Y-92231342D01*
X146539286Y-92231342D02*
X146234524Y-92231342D01*
X147072619Y-92612295D02*
X147225000Y-92612295D01*
X147225000Y-92612295D02*
X147301190Y-92574200D01*
X147301190Y-92574200D02*
X147339286Y-92536104D01*
X147339286Y-92536104D02*
X147415476Y-92421819D01*
X147415476Y-92421819D02*
X147453571Y-92269438D01*
X147453571Y-92269438D02*
X147453571Y-91964676D01*
X147453571Y-91964676D02*
X147415476Y-91888485D01*
X147415476Y-91888485D02*
X147377381Y-91850390D01*
X147377381Y-91850390D02*
X147301190Y-91812295D01*
X147301190Y-91812295D02*
X147148809Y-91812295D01*
X147148809Y-91812295D02*
X147072619Y-91850390D01*
X147072619Y-91850390D02*
X147034524Y-91888485D01*
X147034524Y-91888485D02*
X146996428Y-91964676D01*
X146996428Y-91964676D02*
X146996428Y-92155152D01*
X146996428Y-92155152D02*
X147034524Y-92231342D01*
X147034524Y-92231342D02*
X147072619Y-92269438D01*
X147072619Y-92269438D02*
X147148809Y-92307533D01*
X147148809Y-92307533D02*
X147301190Y-92307533D01*
X147301190Y-92307533D02*
X147377381Y-92269438D01*
X147377381Y-92269438D02*
X147415476Y-92231342D01*
X147415476Y-92231342D02*
X147453571Y-92155152D01*
X139385714Y-85086104D02*
X139347618Y-85124200D01*
X139347618Y-85124200D02*
X139233333Y-85162295D01*
X139233333Y-85162295D02*
X139157142Y-85162295D01*
X139157142Y-85162295D02*
X139042856Y-85124200D01*
X139042856Y-85124200D02*
X138966666Y-85048009D01*
X138966666Y-85048009D02*
X138928571Y-84971819D01*
X138928571Y-84971819D02*
X138890475Y-84819438D01*
X138890475Y-84819438D02*
X138890475Y-84705152D01*
X138890475Y-84705152D02*
X138928571Y-84552771D01*
X138928571Y-84552771D02*
X138966666Y-84476580D01*
X138966666Y-84476580D02*
X139042856Y-84400390D01*
X139042856Y-84400390D02*
X139157142Y-84362295D01*
X139157142Y-84362295D02*
X139233333Y-84362295D01*
X139233333Y-84362295D02*
X139347618Y-84400390D01*
X139347618Y-84400390D02*
X139385714Y-84438485D01*
X140071428Y-84628961D02*
X140071428Y-85162295D01*
X139880952Y-84324200D02*
X139690475Y-84895628D01*
X139690475Y-84895628D02*
X140185714Y-84895628D01*
X140452380Y-84438485D02*
X140490476Y-84400390D01*
X140490476Y-84400390D02*
X140566666Y-84362295D01*
X140566666Y-84362295D02*
X140757142Y-84362295D01*
X140757142Y-84362295D02*
X140833333Y-84400390D01*
X140833333Y-84400390D02*
X140871428Y-84438485D01*
X140871428Y-84438485D02*
X140909523Y-84514676D01*
X140909523Y-84514676D02*
X140909523Y-84590866D01*
X140909523Y-84590866D02*
X140871428Y-84705152D01*
X140871428Y-84705152D02*
X140414285Y-85162295D01*
X140414285Y-85162295D02*
X140909523Y-85162295D01*
D13*
X164119047Y-144178409D02*
X163785714Y-144178409D01*
X163785714Y-144702219D02*
X163785714Y-143702219D01*
X163785714Y-143702219D02*
X164261904Y-143702219D01*
X164595238Y-144416504D02*
X165071428Y-144416504D01*
X164500000Y-144702219D02*
X164833333Y-143702219D01*
X164833333Y-143702219D02*
X165166666Y-144702219D01*
X165500000Y-144702219D02*
X165500000Y-143702219D01*
X165500000Y-143702219D02*
X166071428Y-144702219D01*
X166071428Y-144702219D02*
X166071428Y-143702219D01*
X166833333Y-145083171D02*
X166785714Y-145035552D01*
X166785714Y-145035552D02*
X166690476Y-144892695D01*
X166690476Y-144892695D02*
X166642857Y-144797457D01*
X166642857Y-144797457D02*
X166595238Y-144654600D01*
X166595238Y-144654600D02*
X166547619Y-144416504D01*
X166547619Y-144416504D02*
X166547619Y-144226028D01*
X166547619Y-144226028D02*
X166595238Y-143987933D01*
X166595238Y-143987933D02*
X166642857Y-143845076D01*
X166642857Y-143845076D02*
X166690476Y-143749838D01*
X166690476Y-143749838D02*
X166785714Y-143606980D01*
X166785714Y-143606980D02*
X166833333Y-143559361D01*
X167690476Y-144702219D02*
X167214286Y-144702219D01*
X167214286Y-144702219D02*
X167214286Y-143702219D01*
X167928572Y-145083171D02*
X167976191Y-145035552D01*
X167976191Y-145035552D02*
X168071429Y-144892695D01*
X168071429Y-144892695D02*
X168119048Y-144797457D01*
X168119048Y-144797457D02*
X168166667Y-144654600D01*
X168166667Y-144654600D02*
X168214286Y-144416504D01*
X168214286Y-144416504D02*
X168214286Y-144226028D01*
X168214286Y-144226028D02*
X168166667Y-143987933D01*
X168166667Y-143987933D02*
X168119048Y-143845076D01*
X168119048Y-143845076D02*
X168071429Y-143749838D01*
X168071429Y-143749838D02*
X167976191Y-143606980D01*
X167976191Y-143606980D02*
X167928572Y-143559361D01*
D12*
X180928571Y-50031009D02*
X180595238Y-50031009D01*
X180595238Y-50554819D02*
X180595238Y-49554819D01*
X180595238Y-49554819D02*
X181071428Y-49554819D01*
X181452381Y-50554819D02*
X181452381Y-49554819D01*
X181928571Y-50554819D02*
X181928571Y-49554819D01*
X181928571Y-49554819D02*
X182166666Y-49554819D01*
X182166666Y-49554819D02*
X182309523Y-49602438D01*
X182309523Y-49602438D02*
X182404761Y-49697676D01*
X182404761Y-49697676D02*
X182452380Y-49792914D01*
X182452380Y-49792914D02*
X182499999Y-49983390D01*
X182499999Y-49983390D02*
X182499999Y-50126247D01*
X182499999Y-50126247D02*
X182452380Y-50316723D01*
X182452380Y-50316723D02*
X182404761Y-50411961D01*
X182404761Y-50411961D02*
X182309523Y-50507200D01*
X182309523Y-50507200D02*
X182166666Y-50554819D01*
X182166666Y-50554819D02*
X181928571Y-50554819D01*
X182833333Y-49554819D02*
X183452380Y-49554819D01*
X183452380Y-49554819D02*
X183119047Y-49935771D01*
X183119047Y-49935771D02*
X183261904Y-49935771D01*
X183261904Y-49935771D02*
X183357142Y-49983390D01*
X183357142Y-49983390D02*
X183404761Y-50031009D01*
X183404761Y-50031009D02*
X183452380Y-50126247D01*
X183452380Y-50126247D02*
X183452380Y-50364342D01*
X183452380Y-50364342D02*
X183404761Y-50459580D01*
X183404761Y-50459580D02*
X183357142Y-50507200D01*
X183357142Y-50507200D02*
X183261904Y-50554819D01*
X183261904Y-50554819D02*
X182976190Y-50554819D01*
X182976190Y-50554819D02*
X182880952Y-50507200D01*
X182880952Y-50507200D02*
X182833333Y-50459580D01*
X142491667Y-92612295D02*
X142225000Y-92231342D01*
X142034524Y-92612295D02*
X142034524Y-91812295D01*
X142034524Y-91812295D02*
X142339286Y-91812295D01*
X142339286Y-91812295D02*
X142415476Y-91850390D01*
X142415476Y-91850390D02*
X142453571Y-91888485D01*
X142453571Y-91888485D02*
X142491667Y-91964676D01*
X142491667Y-91964676D02*
X142491667Y-92078961D01*
X142491667Y-92078961D02*
X142453571Y-92155152D01*
X142453571Y-92155152D02*
X142415476Y-92193247D01*
X142415476Y-92193247D02*
X142339286Y-92231342D01*
X142339286Y-92231342D02*
X142034524Y-92231342D01*
X142758333Y-91812295D02*
X143291667Y-91812295D01*
X143291667Y-91812295D02*
X142948809Y-92612295D01*
%TO.C,L1*%
D16*
X180280000Y-99750000D02*
X180280000Y-96750000D01*
X183620000Y-96750000D02*
X183620000Y-99750000D01*
%TO.C,ESP1*%
D17*
X141535000Y-67460000D02*
X159935000Y-67460000D01*
X141535000Y-86060000D02*
X141535000Y-87060000D01*
X141535000Y-87060000D02*
X143035000Y-87060000D01*
X159935000Y-67460000D02*
X159935000Y-68160000D01*
X159935000Y-87060000D02*
X158435000Y-87060000D01*
X159935000Y-87060000D02*
X159935000Y-86060000D01*
X141535000Y-68210000D02*
X141035000Y-68210000D01*
X141535000Y-67710000D01*
X141535000Y-68210000D01*
G36*
X141535000Y-68210000D02*
G01*
X141035000Y-68210000D01*
X141535000Y-67710000D01*
X141535000Y-68210000D01*
G37*
%TO.C,R33*%
X139853641Y-74670000D02*
X139546359Y-74670000D01*
X139853641Y-75430000D02*
X139546359Y-75430000D01*
%TO.C,R2*%
X146639564Y-102490000D02*
X142285436Y-102490000D01*
X146639564Y-105910000D02*
X142285436Y-105910000D01*
%TO.C,C13*%
X174187677Y-124299000D02*
X174187677Y-123101000D01*
X174227677Y-124562000D02*
X174227677Y-122838000D01*
X174267677Y-124762000D02*
X174267677Y-122638000D01*
X174307677Y-124930000D02*
X174307677Y-122470000D01*
X174347677Y-125077000D02*
X174347677Y-122323000D01*
X174387677Y-125209000D02*
X174387677Y-122191000D01*
X174427677Y-125330000D02*
X174427677Y-122070000D01*
X174467677Y-125442000D02*
X174467677Y-121958000D01*
X174507677Y-125546000D02*
X174507677Y-121854000D01*
X174547677Y-125644000D02*
X174547677Y-121756000D01*
X174587677Y-125737000D02*
X174587677Y-121663000D01*
X174627677Y-125824000D02*
X174627677Y-121576000D01*
X174667677Y-125908000D02*
X174667677Y-121492000D01*
X174707677Y-125988000D02*
X174707677Y-121412000D01*
X174747677Y-126065000D02*
X174747677Y-121335000D01*
X174787677Y-126139000D02*
X174787677Y-121261000D01*
X174827677Y-126210000D02*
X174827677Y-121190000D01*
X174867677Y-126278000D02*
X174867677Y-121122000D01*
X174907677Y-126344000D02*
X174907677Y-121056000D01*
X174947677Y-126408000D02*
X174947677Y-120992000D01*
X174987677Y-126470000D02*
X174987677Y-120930000D01*
X175027677Y-126530000D02*
X175027677Y-120870000D01*
X175067677Y-126588000D02*
X175067677Y-120812000D01*
X175107677Y-126645000D02*
X175107677Y-120755000D01*
X175147677Y-126700000D02*
X175147677Y-120700000D01*
X175187677Y-126753000D02*
X175187677Y-120647000D01*
X175227677Y-126805000D02*
X175227677Y-120595000D01*
X175267677Y-126856000D02*
X175267677Y-120544000D01*
X175307677Y-126905000D02*
X175307677Y-120495000D01*
X175347677Y-126954000D02*
X175347677Y-120446000D01*
X175387677Y-127001000D02*
X175387677Y-120399000D01*
X175427677Y-127047000D02*
X175427677Y-120353000D01*
X175467677Y-127091000D02*
X175467677Y-120309000D01*
X175507677Y-127135000D02*
X175507677Y-120265000D01*
X175547677Y-122460000D02*
X175547677Y-120222000D01*
X175547677Y-127178000D02*
X175547677Y-124940000D01*
X175587677Y-122460000D02*
X175587677Y-120180000D01*
X175587677Y-127220000D02*
X175587677Y-124940000D01*
X175627677Y-122460000D02*
X175627677Y-120139000D01*
X175627677Y-127261000D02*
X175627677Y-124940000D01*
X175667677Y-122460000D02*
X175667677Y-120099000D01*
X175667677Y-127301000D02*
X175667677Y-124940000D01*
X175707677Y-122460000D02*
X175707677Y-120060000D01*
X175707677Y-127340000D02*
X175707677Y-124940000D01*
X175747677Y-122460000D02*
X175747677Y-120022000D01*
X175747677Y-127378000D02*
X175747677Y-124940000D01*
X175787677Y-122460000D02*
X175787677Y-119984000D01*
X175787677Y-127416000D02*
X175787677Y-124940000D01*
X175827677Y-122460000D02*
X175827677Y-119948000D01*
X175827677Y-127452000D02*
X175827677Y-124940000D01*
X175867677Y-122460000D02*
X175867677Y-119912000D01*
X175867677Y-127488000D02*
X175867677Y-124940000D01*
X175907677Y-122460000D02*
X175907677Y-119877000D01*
X175907677Y-127523000D02*
X175907677Y-124940000D01*
X175947677Y-122460000D02*
X175947677Y-119842000D01*
X175947677Y-127558000D02*
X175947677Y-124940000D01*
X175987677Y-122460000D02*
X175987677Y-119809000D01*
X175987677Y-127591000D02*
X175987677Y-124940000D01*
X176027677Y-122460000D02*
X176027677Y-119776000D01*
X176027677Y-127624000D02*
X176027677Y-124940000D01*
X176067677Y-122460000D02*
X176067677Y-119743000D01*
X176067677Y-127657000D02*
X176067677Y-124940000D01*
X176107677Y-122460000D02*
X176107677Y-119712000D01*
X176107677Y-127688000D02*
X176107677Y-124940000D01*
X176147677Y-122460000D02*
X176147677Y-119680000D01*
X176147677Y-127720000D02*
X176147677Y-124940000D01*
X176187677Y-122460000D02*
X176187677Y-119650000D01*
X176187677Y-127750000D02*
X176187677Y-124940000D01*
X176227677Y-122460000D02*
X176227677Y-119620000D01*
X176227677Y-127780000D02*
X176227677Y-124940000D01*
X176267677Y-122460000D02*
X176267677Y-119591000D01*
X176267677Y-127809000D02*
X176267677Y-124940000D01*
X176307677Y-122460000D02*
X176307677Y-119562000D01*
X176307677Y-127838000D02*
X176307677Y-124940000D01*
X176347677Y-122460000D02*
X176347677Y-119534000D01*
X176347677Y-127866000D02*
X176347677Y-124940000D01*
X176387677Y-122460000D02*
X176387677Y-119507000D01*
X176387677Y-127893000D02*
X176387677Y-124940000D01*
X176427677Y-122460000D02*
X176427677Y-119480000D01*
X176427677Y-127920000D02*
X176427677Y-124940000D01*
X176467677Y-122460000D02*
X176467677Y-119453000D01*
X176467677Y-127947000D02*
X176467677Y-124940000D01*
X176507677Y-122460000D02*
X176507677Y-119428000D01*
X176507677Y-127972000D02*
X176507677Y-124940000D01*
X176547677Y-122460000D02*
X176547677Y-119402000D01*
X176547677Y-127998000D02*
X176547677Y-124940000D01*
X176587677Y-122460000D02*
X176587677Y-119377000D01*
X176587677Y-128023000D02*
X176587677Y-124940000D01*
X176627677Y-122460000D02*
X176627677Y-119353000D01*
X176627677Y-128047000D02*
X176627677Y-124940000D01*
X176667677Y-122460000D02*
X176667677Y-119329000D01*
X176667677Y-128071000D02*
X176667677Y-124940000D01*
X176707677Y-122460000D02*
X176707677Y-119306000D01*
X176707677Y-128094000D02*
X176707677Y-124940000D01*
X176747677Y-122460000D02*
X176747677Y-119283000D01*
X176747677Y-128117000D02*
X176747677Y-124940000D01*
X176787677Y-122460000D02*
X176787677Y-119261000D01*
X176787677Y-128139000D02*
X176787677Y-124940000D01*
X176827677Y-122460000D02*
X176827677Y-119239000D01*
X176827677Y-128161000D02*
X176827677Y-124940000D01*
X176867677Y-122460000D02*
X176867677Y-119217000D01*
X176867677Y-128183000D02*
X176867677Y-124940000D01*
X176907677Y-122460000D02*
X176907677Y-119196000D01*
X176907677Y-128204000D02*
X176907677Y-124940000D01*
X176947677Y-122460000D02*
X176947677Y-119176000D01*
X176947677Y-128224000D02*
X176947677Y-124940000D01*
X176987677Y-122460000D02*
X176987677Y-119156000D01*
X176987677Y-128244000D02*
X176987677Y-124940000D01*
X177027677Y-122460000D02*
X177027677Y-119136000D01*
X177027677Y-128264000D02*
X177027677Y-124940000D01*
X177067677Y-122460000D02*
X177067677Y-119117000D01*
X177067677Y-128283000D02*
X177067677Y-124940000D01*
X177107677Y-122460000D02*
X177107677Y-119098000D01*
X177107677Y-128302000D02*
X177107677Y-124940000D01*
X177147677Y-122460000D02*
X177147677Y-119080000D01*
X177147677Y-128320000D02*
X177147677Y-124940000D01*
X177187677Y-122460000D02*
X177187677Y-119062000D01*
X177187677Y-128338000D02*
X177187677Y-124940000D01*
X177227677Y-122460000D02*
X177227677Y-119044000D01*
X177227677Y-128356000D02*
X177227677Y-124940000D01*
X177267677Y-122460000D02*
X177267677Y-119027000D01*
X177267677Y-128373000D02*
X177267677Y-124940000D01*
X177307677Y-122460000D02*
X177307677Y-119010000D01*
X177307677Y-128390000D02*
X177307677Y-124940000D01*
X177347677Y-122460000D02*
X177347677Y-118994000D01*
X177347677Y-128406000D02*
X177347677Y-124940000D01*
X177387677Y-122460000D02*
X177387677Y-118978000D01*
X177387677Y-128422000D02*
X177387677Y-124940000D01*
X177427677Y-122460000D02*
X177427677Y-118962000D01*
X177427677Y-128438000D02*
X177427677Y-124940000D01*
X177467677Y-122460000D02*
X177467677Y-118947000D01*
X177467677Y-128453000D02*
X177467677Y-124940000D01*
X177507677Y-122460000D02*
X177507677Y-118932000D01*
X177507677Y-128468000D02*
X177507677Y-124940000D01*
X177547677Y-122460000D02*
X177547677Y-118918000D01*
X177547677Y-128482000D02*
X177547677Y-124940000D01*
X177587677Y-122460000D02*
X177587677Y-118903000D01*
X177587677Y-128497000D02*
X177587677Y-124940000D01*
X177627677Y-122460000D02*
X177627677Y-118890000D01*
X177627677Y-128510000D02*
X177627677Y-124940000D01*
X177667677Y-122460000D02*
X177667677Y-118876000D01*
X177667677Y-128524000D02*
X177667677Y-124940000D01*
X177707677Y-122460000D02*
X177707677Y-118863000D01*
X177707677Y-128537000D02*
X177707677Y-124940000D01*
X177747677Y-122460000D02*
X177747677Y-118851000D01*
X177747677Y-128549000D02*
X177747677Y-124940000D01*
X177787677Y-122460000D02*
X177787677Y-118839000D01*
X177787677Y-128561000D02*
X177787677Y-124940000D01*
X177827677Y-122460000D02*
X177827677Y-118827000D01*
X177827677Y-128573000D02*
X177827677Y-124940000D01*
X177867677Y-122460000D02*
X177867677Y-118815000D01*
X177867677Y-128585000D02*
X177867677Y-124940000D01*
X177907677Y-122460000D02*
X177907677Y-118804000D01*
X177907677Y-128596000D02*
X177907677Y-124940000D01*
X177947677Y-122460000D02*
X177947677Y-118793000D01*
X177947677Y-128607000D02*
X177947677Y-124940000D01*
X177987677Y-122460000D02*
X177987677Y-118783000D01*
X177987677Y-128617000D02*
X177987677Y-124940000D01*
X178027677Y-128628000D02*
X178027677Y-118772000D01*
X178067677Y-128637000D02*
X178067677Y-118763000D01*
X178107677Y-128647000D02*
X178107677Y-118753000D01*
X178147677Y-128656000D02*
X178147677Y-118744000D01*
X178187677Y-128665000D02*
X178187677Y-118735000D01*
X178227677Y-128673000D02*
X178227677Y-118727000D01*
X178267677Y-128681000D02*
X178267677Y-118719000D01*
X178307677Y-128689000D02*
X178307677Y-118711000D01*
X178347677Y-128697000D02*
X178347677Y-118703000D01*
X178387677Y-128704000D02*
X178387677Y-118696000D01*
X178427677Y-128711000D02*
X178427677Y-118689000D01*
X178467677Y-128717000D02*
X178467677Y-118683000D01*
X178507677Y-128723000D02*
X178507677Y-118677000D01*
X178547677Y-128729000D02*
X178547677Y-118671000D01*
X178587677Y-128735000D02*
X178587677Y-118665000D01*
X178627677Y-128740000D02*
X178627677Y-118660000D01*
X178667677Y-128745000D02*
X178667677Y-118655000D01*
X178707677Y-128749000D02*
X178707677Y-118651000D01*
X178747677Y-128754000D02*
X178747677Y-118646000D01*
X178787677Y-128757000D02*
X178787677Y-118643000D01*
X178827677Y-128761000D02*
X178827677Y-118639000D01*
X178867677Y-128764000D02*
X178867677Y-118636000D01*
X178907677Y-128767000D02*
X178907677Y-118633000D01*
X178947677Y-128770000D02*
X178947677Y-118630000D01*
X178987677Y-128772000D02*
X178987677Y-118628000D01*
X179027677Y-128774000D02*
X179027677Y-118626000D01*
X179067677Y-128776000D02*
X179067677Y-118624000D01*
X179107677Y-128777000D02*
X179107677Y-118623000D01*
X179147677Y-128779000D02*
X179147677Y-118621000D01*
X179187677Y-128779000D02*
X179187677Y-118621000D01*
X179227677Y-128780000D02*
X179227677Y-118620000D01*
X179267677Y-128780000D02*
X179267677Y-118620000D01*
X184247323Y-127075000D02*
X184247323Y-126075000D01*
X184747323Y-126575000D02*
X183747323Y-126575000D01*
X184387677Y-123700000D02*
G75*
G02*
X174147677Y-123700000I-5120000J0D01*
G01*
X174147677Y-123700000D02*
G75*
G02*
X184387677Y-123700000I5120000J0D01*
G01*
%TO.C,J9*%
D16*
X122850000Y-65375000D02*
X130450000Y-65375000D01*
X122850000Y-75375000D02*
X122850000Y-65375000D01*
X130450000Y-65375000D02*
X130450000Y-75375000D01*
X130450000Y-75375000D02*
X122850000Y-75375000D01*
D13*
X131550000Y-72875000D02*
G75*
G02*
X131350000Y-72875000I-100000J0D01*
G01*
X131350000Y-72875000D02*
G75*
G02*
X131550000Y-72875000I100000J0D01*
G01*
%TO.C,R26*%
D17*
X137390000Y-105535436D02*
X137390000Y-106989564D01*
X139210000Y-105535436D02*
X139210000Y-106989564D01*
%TO.C,TP2*%
X128900000Y-86225000D02*
G75*
G02*
X127000000Y-86225000I-950000J0D01*
G01*
X127000000Y-86225000D02*
G75*
G02*
X128900000Y-86225000I950000J0D01*
G01*
%TO.C,C4*%
X130780000Y-113280000D02*
X144020000Y-113280000D01*
X130780000Y-119520000D02*
X130780000Y-113280000D01*
X144020000Y-113280000D02*
X144020000Y-119520000D01*
X144020000Y-119520000D02*
X130780000Y-119520000D01*
%TO.C,R5*%
X149940000Y-103410436D02*
X149940000Y-104864564D01*
X151760000Y-103410436D02*
X151760000Y-104864564D01*
%TO.C,C40*%
X160725000Y-84387836D02*
X160725000Y-84172164D01*
X161445000Y-84387836D02*
X161445000Y-84172164D01*
%TO.C,R36*%
X157305000Y-88456359D02*
X157305000Y-88763641D01*
X158065000Y-88456359D02*
X158065000Y-88763641D01*
%TO.C,C41*%
X152325000Y-88747836D02*
X152325000Y-88532164D01*
X153045000Y-88747836D02*
X153045000Y-88532164D01*
%TO.C,R38*%
X136627500Y-74262258D02*
X136627500Y-73787742D01*
X137672500Y-74262258D02*
X137672500Y-73787742D01*
%TO.C,R32*%
X139853641Y-72670000D02*
X139546359Y-72670000D01*
X139853641Y-73430000D02*
X139546359Y-73430000D01*
%TO.C,R40*%
X152213641Y-89770000D02*
X151906359Y-89770000D01*
X152213641Y-90530000D02*
X151906359Y-90530000D01*
%TO.C,R47*%
X151205000Y-88823641D02*
X151205000Y-88516359D01*
X151965000Y-88823641D02*
X151965000Y-88516359D01*
%TO.C,C5*%
X162480000Y-127180000D02*
X163866000Y-127180000D01*
X162480000Y-134920000D02*
X162480000Y-127180000D01*
X163866000Y-134920000D02*
X162480000Y-134920000D01*
X166334000Y-127180000D02*
X167720000Y-127180000D01*
X167720000Y-127180000D02*
X167720000Y-134920000D01*
X167720000Y-134920000D02*
X166334000Y-134920000D01*
%TO.C,C6*%
X168280000Y-127180000D02*
X169666000Y-127180000D01*
X168280000Y-134920000D02*
X168280000Y-127180000D01*
X169666000Y-134920000D02*
X168280000Y-134920000D01*
X172134000Y-127180000D02*
X173520000Y-127180000D01*
X173520000Y-127180000D02*
X173520000Y-134920000D01*
X173520000Y-134920000D02*
X172134000Y-134920000D01*
%TO.C,R8*%
X144040000Y-94927064D02*
X144040000Y-94472936D01*
X145510000Y-94927064D02*
X145510000Y-94472936D01*
%TO.C,R43*%
X140143641Y-82270000D02*
X139836359Y-82270000D01*
X140143641Y-83030000D02*
X139836359Y-83030000D01*
%TO.C,R35*%
X144655000Y-88456359D02*
X144655000Y-88763641D01*
X145415000Y-88456359D02*
X145415000Y-88763641D01*
%TO.C,R45*%
X160705000Y-86066359D02*
X160705000Y-86373641D01*
X161465000Y-86066359D02*
X161465000Y-86373641D01*
%TO.C,F1*%
D16*
X120500000Y-110275000D02*
X124100000Y-110275000D01*
X120500000Y-132775000D02*
X120500000Y-110275000D01*
X124100000Y-132775000D02*
X120500000Y-132775000D01*
X126500000Y-110275000D02*
X130100000Y-110275000D01*
X130100000Y-110275000D02*
X130100000Y-132775000D01*
X130100000Y-132775000D02*
X126500000Y-132775000D01*
%TO.C,PS1*%
X162600000Y-98200000D02*
X162600000Y-124600000D01*
X162600000Y-98200000D02*
X163400000Y-98200000D01*
X162600000Y-124600000D02*
X163400000Y-124600000D01*
X167450000Y-98200000D02*
X173600000Y-98200000D01*
X167450000Y-124600000D02*
X173600000Y-124600000D01*
X173600000Y-124600000D02*
X173600000Y-98200000D01*
D13*
X167350000Y-125550000D02*
G75*
G02*
X167150000Y-125550000I-100000J0D01*
G01*
X167150000Y-125550000D02*
G75*
G02*
X167350000Y-125550000I100000J0D01*
G01*
%TO.C,R4*%
D17*
X137390000Y-102364564D02*
X137390000Y-100910436D01*
X139210000Y-102364564D02*
X139210000Y-100910436D01*
%TO.C,R39*%
X145722258Y-65677500D02*
X145247742Y-65677500D01*
X145722258Y-66722500D02*
X145247742Y-66722500D01*
%TO.C,C15*%
X175570000Y-133933000D02*
X175570000Y-132867000D01*
X175610000Y-134168000D02*
X175610000Y-132632000D01*
X175650000Y-134347000D02*
X175650000Y-132453000D01*
X175690000Y-134497000D02*
X175690000Y-132303000D01*
X175730000Y-134628000D02*
X175730000Y-132172000D01*
X175770000Y-134746000D02*
X175770000Y-132054000D01*
X175810000Y-134853000D02*
X175810000Y-131947000D01*
X175850000Y-134952000D02*
X175850000Y-131848000D01*
X175890000Y-135044000D02*
X175890000Y-131756000D01*
X175930000Y-135131000D02*
X175930000Y-131669000D01*
X175970000Y-135213000D02*
X175970000Y-131587000D01*
X176010000Y-135290000D02*
X176010000Y-131510000D01*
X176050000Y-135364000D02*
X176050000Y-131436000D01*
X176090000Y-135434000D02*
X176090000Y-131366000D01*
X176130000Y-135501000D02*
X176130000Y-131299000D01*
X176170000Y-135565000D02*
X176170000Y-131235000D01*
X176210000Y-135627000D02*
X176210000Y-131173000D01*
X176250000Y-135687000D02*
X176250000Y-131113000D01*
X176290000Y-135744000D02*
X176290000Y-131056000D01*
X176330000Y-135800000D02*
X176330000Y-131000000D01*
X176370000Y-135853000D02*
X176370000Y-130947000D01*
X176410000Y-135905000D02*
X176410000Y-130895000D01*
X176450000Y-135955000D02*
X176450000Y-130845000D01*
X176490000Y-136004000D02*
X176490000Y-130796000D01*
X176530000Y-136051000D02*
X176530000Y-130749000D01*
X176570000Y-136096000D02*
X176570000Y-130704000D01*
X176610000Y-136141000D02*
X176610000Y-130659000D01*
X176650000Y-136184000D02*
X176650000Y-130616000D01*
X176690000Y-136226000D02*
X176690000Y-130574000D01*
X176730000Y-136267000D02*
X176730000Y-130533000D01*
X176770000Y-136306000D02*
X176770000Y-130494000D01*
X176810000Y-136345000D02*
X176810000Y-130455000D01*
X176850000Y-136382000D02*
X176850000Y-130418000D01*
X176890000Y-132360000D02*
X176890000Y-130381000D01*
X176890000Y-136419000D02*
X176890000Y-134440000D01*
X176930000Y-132360000D02*
X176930000Y-130345000D01*
X176930000Y-136455000D02*
X176930000Y-134440000D01*
X176970000Y-132360000D02*
X176970000Y-130311000D01*
X176970000Y-136489000D02*
X176970000Y-134440000D01*
X177010000Y-132360000D02*
X177010000Y-130277000D01*
X177010000Y-136523000D02*
X177010000Y-134440000D01*
X177050000Y-132360000D02*
X177050000Y-130244000D01*
X177050000Y-136556000D02*
X177050000Y-134440000D01*
X177090000Y-132360000D02*
X177090000Y-130212000D01*
X177090000Y-136588000D02*
X177090000Y-134440000D01*
X177130000Y-132360000D02*
X177130000Y-130181000D01*
X177130000Y-136619000D02*
X177130000Y-134440000D01*
X177170000Y-132360000D02*
X177170000Y-130150000D01*
X177170000Y-136650000D02*
X177170000Y-134440000D01*
X177210000Y-132360000D02*
X177210000Y-130120000D01*
X177210000Y-136680000D02*
X177210000Y-134440000D01*
X177250000Y-132360000D02*
X177250000Y-130091000D01*
X177250000Y-136709000D02*
X177250000Y-134440000D01*
X177290000Y-132360000D02*
X177290000Y-130063000D01*
X177290000Y-136737000D02*
X177290000Y-134440000D01*
X177330000Y-132360000D02*
X177330000Y-130035000D01*
X177330000Y-136765000D02*
X177330000Y-134440000D01*
X177370000Y-132360000D02*
X177370000Y-130008000D01*
X177370000Y-136792000D02*
X177370000Y-134440000D01*
X177410000Y-132360000D02*
X177410000Y-129982000D01*
X177410000Y-136818000D02*
X177410000Y-134440000D01*
X177450000Y-132360000D02*
X177450000Y-129957000D01*
X177450000Y-136843000D02*
X177450000Y-134440000D01*
X177490000Y-132360000D02*
X177490000Y-129932000D01*
X177490000Y-136868000D02*
X177490000Y-134440000D01*
X177530000Y-132360000D02*
X177530000Y-129907000D01*
X177530000Y-136893000D02*
X177530000Y-134440000D01*
X177570000Y-132360000D02*
X177570000Y-129884000D01*
X177570000Y-136916000D02*
X177570000Y-134440000D01*
X177610000Y-132360000D02*
X177610000Y-129861000D01*
X177610000Y-136939000D02*
X177610000Y-134440000D01*
X177650000Y-132360000D02*
X177650000Y-129838000D01*
X177650000Y-136962000D02*
X177650000Y-134440000D01*
X177690000Y-132360000D02*
X177690000Y-129816000D01*
X177690000Y-136984000D02*
X177690000Y-134440000D01*
X177730000Y-132360000D02*
X177730000Y-129795000D01*
X177730000Y-137005000D02*
X177730000Y-134440000D01*
X177770000Y-132360000D02*
X177770000Y-129774000D01*
X177770000Y-137026000D02*
X177770000Y-134440000D01*
X177810000Y-132360000D02*
X177810000Y-129754000D01*
X177810000Y-137046000D02*
X177810000Y-134440000D01*
X177850000Y-132360000D02*
X177850000Y-129734000D01*
X177850000Y-137066000D02*
X177850000Y-134440000D01*
X177890000Y-132360000D02*
X177890000Y-129715000D01*
X177890000Y-137085000D02*
X177890000Y-134440000D01*
X177930000Y-132360000D02*
X177930000Y-129696000D01*
X177930000Y-137104000D02*
X177930000Y-134440000D01*
X177970000Y-132360000D02*
X177970000Y-129678000D01*
X177970000Y-137122000D02*
X177970000Y-134440000D01*
X178010000Y-132360000D02*
X178010000Y-129660000D01*
X178010000Y-137140000D02*
X178010000Y-134440000D01*
X178050000Y-132360000D02*
X178050000Y-129643000D01*
X178050000Y-137157000D02*
X178050000Y-134440000D01*
X178090000Y-132360000D02*
X178090000Y-129627000D01*
X178090000Y-137173000D02*
X178090000Y-134440000D01*
X178130000Y-132360000D02*
X178130000Y-129611000D01*
X178130000Y-137189000D02*
X178130000Y-134440000D01*
X178170000Y-132360000D02*
X178170000Y-129595000D01*
X178170000Y-137205000D02*
X178170000Y-134440000D01*
X178210000Y-132360000D02*
X178210000Y-129580000D01*
X178210000Y-137220000D02*
X178210000Y-134440000D01*
X178250000Y-132360000D02*
X178250000Y-129565000D01*
X178250000Y-137235000D02*
X178250000Y-134440000D01*
X178290000Y-132360000D02*
X178290000Y-129551000D01*
X178290000Y-137249000D02*
X178290000Y-134440000D01*
X178330000Y-132360000D02*
X178330000Y-129537000D01*
X178330000Y-137263000D02*
X178330000Y-134440000D01*
X178370000Y-132360000D02*
X178370000Y-129524000D01*
X178370000Y-137276000D02*
X178370000Y-134440000D01*
X178410000Y-132360000D02*
X178410000Y-129511000D01*
X178410000Y-137289000D02*
X178410000Y-134440000D01*
X178450000Y-132360000D02*
X178450000Y-129499000D01*
X178450000Y-137301000D02*
X178450000Y-134440000D01*
X178490000Y-132360000D02*
X178490000Y-129487000D01*
X178490000Y-137313000D02*
X178490000Y-134440000D01*
X178530000Y-132360000D02*
X178530000Y-129475000D01*
X178530000Y-137325000D02*
X178530000Y-134440000D01*
X178570000Y-132360000D02*
X178570000Y-129464000D01*
X178570000Y-137336000D02*
X178570000Y-134440000D01*
X178610000Y-132360000D02*
X178610000Y-129453000D01*
X178610000Y-137347000D02*
X178610000Y-134440000D01*
X178650000Y-132360000D02*
X178650000Y-129443000D01*
X178650000Y-137357000D02*
X178650000Y-134440000D01*
X178690000Y-132360000D02*
X178690000Y-129433000D01*
X178690000Y-137367000D02*
X178690000Y-134440000D01*
X178730000Y-132360000D02*
X178730000Y-129424000D01*
X178730000Y-137376000D02*
X178730000Y-134440000D01*
X178770000Y-132360000D02*
X178770000Y-129415000D01*
X178770000Y-137385000D02*
X178770000Y-134440000D01*
X178810000Y-132360000D02*
X178810000Y-129407000D01*
X178810000Y-137393000D02*
X178810000Y-134440000D01*
X178850000Y-132360000D02*
X178850000Y-129398000D01*
X178850000Y-137402000D02*
X178850000Y-134440000D01*
X178890000Y-132360000D02*
X178890000Y-129391000D01*
X178890000Y-137409000D02*
X178890000Y-134440000D01*
X178930000Y-132360000D02*
X178930000Y-129383000D01*
X178930000Y-137417000D02*
X178930000Y-134440000D01*
X178970000Y-137423000D02*
X178970000Y-129377000D01*
X179010000Y-137430000D02*
X179010000Y-129370000D01*
X179050000Y-137436000D02*
X179050000Y-129364000D01*
X179090000Y-137442000D02*
X179090000Y-129358000D01*
X179130000Y-137447000D02*
X179130000Y-129353000D01*
X179170000Y-137452000D02*
X179170000Y-129348000D01*
X179210000Y-137456000D02*
X179210000Y-129344000D01*
X179250000Y-137461000D02*
X179250000Y-129339000D01*
X179290000Y-137464000D02*
X179290000Y-129336000D01*
X179330000Y-137468000D02*
X179330000Y-129332000D01*
X179370000Y-137470000D02*
X179370000Y-129330000D01*
X179410000Y-137473000D02*
X179410000Y-129327000D01*
X179450000Y-137475000D02*
X179450000Y-129325000D01*
X179490000Y-137477000D02*
X179490000Y-129323000D01*
X179530000Y-137478000D02*
X179530000Y-129322000D01*
X179570000Y-137479000D02*
X179570000Y-129321000D01*
X179610000Y-137480000D02*
X179610000Y-129320000D01*
X179650000Y-137480000D02*
X179650000Y-129320000D01*
X183659698Y-136115000D02*
X183659698Y-135315000D01*
X184059698Y-135715000D02*
X183259698Y-135715000D01*
X183770000Y-133400000D02*
G75*
G02*
X175530000Y-133400000I-4120000J0D01*
G01*
X175530000Y-133400000D02*
G75*
G02*
X183770000Y-133400000I4120000J0D01*
G01*
%TO.C,U1*%
D16*
X135757500Y-81585000D02*
X134132500Y-81585000D01*
X135757500Y-84715000D02*
X134132500Y-84715000D01*
D13*
X132490000Y-82205000D02*
G75*
G02*
X132290000Y-82205000I-100000J0D01*
G01*
X132290000Y-82205000D02*
G75*
G02*
X132490000Y-82205000I100000J0D01*
G01*
%TO.C,S1*%
X140250000Y-67050000D02*
X140250000Y-64650000D01*
%TO.C,R1*%
D17*
X134314564Y-101390000D02*
X129960436Y-101390000D01*
X134314564Y-104810000D02*
X129960436Y-104810000D01*
%TO.C,R37*%
X129447500Y-77637742D02*
X129447500Y-78112258D01*
X130492500Y-77637742D02*
X130492500Y-78112258D01*
%TO.C,J7*%
X163310000Y-94020000D02*
X163310000Y-96680000D01*
X170990000Y-94020000D02*
X163310000Y-94020000D01*
X170990000Y-94020000D02*
X170990000Y-96680000D01*
X170990000Y-96680000D02*
X163310000Y-96680000D01*
X173590000Y-95350000D02*
X173590000Y-96680000D01*
X173590000Y-96680000D02*
X172260000Y-96680000D01*
%TO.C,U3*%
X121640000Y-90260000D02*
X121640000Y-91910000D01*
X121640000Y-93910000D02*
X121640000Y-95560000D01*
X121640000Y-95560000D02*
X129380000Y-95560000D01*
X129380000Y-90260000D02*
X121640000Y-90260000D01*
X129380000Y-95560000D02*
X129380000Y-90260000D01*
X121640000Y-91910000D02*
G75*
G02*
X121640000Y-93910000I0J-1000000D01*
G01*
%TO.C,T2*%
X152790000Y-137350000D02*
X157410000Y-137350000D01*
X152790000Y-140610000D02*
X154170000Y-140610000D01*
X152790000Y-144310000D02*
X154170000Y-144310000D01*
X152790000Y-147570000D02*
X152790000Y-137350000D01*
X154170000Y-147570000D02*
X154170000Y-137350000D01*
X157410000Y-137350000D02*
X157410000Y-147570000D01*
X157410000Y-147570000D02*
X152790000Y-147570000D01*
%TO.C,R34*%
X139853641Y-75920000D02*
X139546359Y-75920000D01*
X139853641Y-76680000D02*
X139546359Y-76680000D01*
%TO.C,R27*%
X159272936Y-111490000D02*
X160727064Y-111490000D01*
X159272936Y-113310000D02*
X160727064Y-113310000D01*
%TO.C,R6*%
X149652500Y-99677064D02*
X149652500Y-99222936D01*
X151122500Y-99677064D02*
X151122500Y-99222936D01*
%TO.C,R42*%
X132677064Y-95690000D02*
X131222936Y-95690000D01*
X132677064Y-97510000D02*
X131222936Y-97510000D01*
%TO.C,J8*%
D13*
X132205000Y-73780000D02*
X132205000Y-73220000D01*
X132205000Y-77780000D02*
X132205000Y-77220000D01*
X135365000Y-73780000D02*
X135365000Y-73220000D01*
X135365000Y-77780000D02*
X135365000Y-77220000D01*
X131225000Y-78250000D02*
G75*
G02*
X131025000Y-78250000I-100000J0D01*
G01*
X131025000Y-78250000D02*
G75*
G02*
X131225000Y-78250000I100000J0D01*
G01*
%TO.C,C39*%
D17*
X136712164Y-68790000D02*
X136927836Y-68790000D01*
X136712164Y-69510000D02*
X136927836Y-69510000D01*
%TO.C,MOV1*%
D15*
X144900000Y-127250000D02*
G75*
G02*
X130900000Y-127250000I-7000000J0D01*
G01*
X130900000Y-127250000D02*
G75*
G02*
X144900000Y-127250000I7000000J0D01*
G01*
%TO.C,D1*%
D16*
X177497500Y-91940000D02*
X181902500Y-91940000D01*
X177497500Y-92370000D02*
X177497500Y-91940000D01*
X177497500Y-95560000D02*
X177497500Y-95130000D01*
X181902500Y-91940000D02*
X181902500Y-92370000D01*
X181902500Y-95130000D02*
X181902500Y-95560000D01*
X181902500Y-95560000D02*
X177497500Y-95560000D01*
D13*
X183600000Y-93750000D02*
G75*
G02*
X183400000Y-93750000I-100000J0D01*
G01*
X183400000Y-93750000D02*
G75*
G02*
X183600000Y-93750000I100000J0D01*
G01*
%TO.C,LED1*%
D17*
X140925000Y-65465000D02*
X140925000Y-66935000D01*
X140925000Y-66935000D02*
X143210000Y-66935000D01*
X143210000Y-65465000D02*
X140925000Y-65465000D01*
%TO.C,T1*%
X135790000Y-137350000D02*
X140410000Y-137350000D01*
X135790000Y-140610000D02*
X137170000Y-140610000D01*
X135790000Y-144310000D02*
X137170000Y-144310000D01*
X135790000Y-147570000D02*
X135790000Y-137350000D01*
X137170000Y-147570000D02*
X137170000Y-137350000D01*
X140410000Y-137350000D02*
X140410000Y-147570000D01*
X140410000Y-147570000D02*
X135790000Y-147570000D01*
%TO.C,T3*%
X170090000Y-137490000D02*
X174710000Y-137490000D01*
X170090000Y-140750000D02*
X171470000Y-140750000D01*
X170090000Y-144450000D02*
X171470000Y-144450000D01*
X170090000Y-147710000D02*
X170090000Y-137490000D01*
X171470000Y-147710000D02*
X171470000Y-137490000D01*
X174710000Y-137490000D02*
X174710000Y-147710000D01*
X174710000Y-147710000D02*
X170090000Y-147710000D01*
%TO.C,R3*%
X155510436Y-100465000D02*
X159864564Y-100465000D01*
X155510436Y-103885000D02*
X159864564Y-103885000D01*
%TO.C,R28*%
X160627064Y-108990000D02*
X159172936Y-108990000D01*
X160627064Y-110810000D02*
X159172936Y-110810000D01*
%TO.C,C12*%
X174680000Y-97430000D02*
X176066000Y-97430000D01*
X174680000Y-105170000D02*
X174680000Y-97430000D01*
X176066000Y-105170000D02*
X174680000Y-105170000D01*
X178534000Y-97430000D02*
X179920000Y-97430000D01*
X179920000Y-97430000D02*
X179920000Y-105170000D01*
X179920000Y-105170000D02*
X178534000Y-105170000D01*
%TO.C,TP1*%
X140625000Y-80850000D02*
G75*
G02*
X138725000Y-80850000I-950000J0D01*
G01*
X138725000Y-80850000D02*
G75*
G02*
X140625000Y-80850000I950000J0D01*
G01*
%TO.C,S2*%
D13*
X136300000Y-67050000D02*
X136300000Y-64650000D01*
%TO.C,C7*%
D17*
X174120000Y-112660000D02*
X184280000Y-112660000D01*
X174120000Y-112700000D02*
X184280000Y-112700000D01*
X174121000Y-112580000D02*
X184279000Y-112580000D01*
X174121000Y-112620000D02*
X184279000Y-112620000D01*
X174123000Y-112540000D02*
X184277000Y-112540000D01*
X174124000Y-112500000D02*
X184276000Y-112500000D01*
X174126000Y-112460000D02*
X184274000Y-112460000D01*
X174128000Y-112420000D02*
X184272000Y-112420000D01*
X174130000Y-112380000D02*
X184270000Y-112380000D01*
X174133000Y-112340000D02*
X184267000Y-112340000D01*
X174136000Y-112300000D02*
X184264000Y-112300000D01*
X174139000Y-112260000D02*
X184261000Y-112260000D01*
X174143000Y-112220000D02*
X184257000Y-112220000D01*
X174146000Y-112180000D02*
X184254000Y-112180000D01*
X174151000Y-112140000D02*
X184249000Y-112140000D01*
X174155000Y-112100000D02*
X184245000Y-112100000D01*
X174160000Y-112060000D02*
X184240000Y-112060000D01*
X174165000Y-112020000D02*
X184235000Y-112020000D01*
X174171000Y-111980000D02*
X184229000Y-111980000D01*
X174177000Y-111940000D02*
X184223000Y-111940000D01*
X174183000Y-111900000D02*
X184217000Y-111900000D01*
X174189000Y-111860000D02*
X184211000Y-111860000D01*
X174196000Y-111820000D02*
X184204000Y-111820000D01*
X174203000Y-111780000D02*
X184197000Y-111780000D01*
X174211000Y-111740000D02*
X184189000Y-111740000D01*
X174219000Y-111700000D02*
X184181000Y-111700000D01*
X174227000Y-111660000D02*
X184173000Y-111660000D01*
X174235000Y-111620000D02*
X184165000Y-111620000D01*
X174244000Y-111580000D02*
X184156000Y-111580000D01*
X174253000Y-111540000D02*
X184147000Y-111540000D01*
X174263000Y-111500000D02*
X184137000Y-111500000D01*
X174272000Y-111460000D02*
X184128000Y-111460000D01*
X174283000Y-111420000D02*
X177960000Y-111420000D01*
X174293000Y-111380000D02*
X177960000Y-111380000D01*
X174304000Y-111340000D02*
X177960000Y-111340000D01*
X174315000Y-111300000D02*
X177960000Y-111300000D01*
X174327000Y-111260000D02*
X177960000Y-111260000D01*
X174339000Y-111220000D02*
X177960000Y-111220000D01*
X174351000Y-111180000D02*
X177960000Y-111180000D01*
X174363000Y-111140000D02*
X177960000Y-111140000D01*
X174376000Y-111100000D02*
X177960000Y-111100000D01*
X174390000Y-111060000D02*
X177960000Y-111060000D01*
X174403000Y-111020000D02*
X177960000Y-111020000D01*
X174418000Y-110980000D02*
X177960000Y-110980000D01*
X174432000Y-110940000D02*
X177960000Y-110940000D01*
X174447000Y-110900000D02*
X177960000Y-110900000D01*
X174462000Y-110860000D02*
X177960000Y-110860000D01*
X174478000Y-110820000D02*
X177960000Y-110820000D01*
X174494000Y-110780000D02*
X177960000Y-110780000D01*
X174510000Y-110740000D02*
X177960000Y-110740000D01*
X174527000Y-110700000D02*
X177960000Y-110700000D01*
X174544000Y-110660000D02*
X177960000Y-110660000D01*
X174562000Y-110620000D02*
X177960000Y-110620000D01*
X174580000Y-110580000D02*
X177960000Y-110580000D01*
X174598000Y-110540000D02*
X177960000Y-110540000D01*
X174617000Y-110500000D02*
X177960000Y-110500000D01*
X174636000Y-110460000D02*
X177960000Y-110460000D01*
X174656000Y-110420000D02*
X177960000Y-110420000D01*
X174676000Y-110380000D02*
X177960000Y-110380000D01*
X174696000Y-110340000D02*
X177960000Y-110340000D01*
X174717000Y-110300000D02*
X177960000Y-110300000D01*
X174739000Y-110260000D02*
X177960000Y-110260000D01*
X174761000Y-110220000D02*
X177960000Y-110220000D01*
X174783000Y-110180000D02*
X177960000Y-110180000D01*
X174806000Y-110140000D02*
X177960000Y-110140000D01*
X174829000Y-110100000D02*
X177960000Y-110100000D01*
X174853000Y-110060000D02*
X177960000Y-110060000D01*
X174877000Y-110020000D02*
X177960000Y-110020000D01*
X174902000Y-109980000D02*
X177960000Y-109980000D01*
X174928000Y-109940000D02*
X177960000Y-109940000D01*
X174953000Y-109900000D02*
X177960000Y-109900000D01*
X174980000Y-109860000D02*
X177960000Y-109860000D01*
X175007000Y-109820000D02*
X177960000Y-109820000D01*
X175034000Y-109780000D02*
X177960000Y-109780000D01*
X175062000Y-109740000D02*
X177960000Y-109740000D01*
X175091000Y-109700000D02*
X177960000Y-109700000D01*
X175120000Y-109660000D02*
X177960000Y-109660000D01*
X175150000Y-109620000D02*
X177960000Y-109620000D01*
X175180000Y-109580000D02*
X177960000Y-109580000D01*
X175212000Y-109540000D02*
X177960000Y-109540000D01*
X175243000Y-109500000D02*
X177960000Y-109500000D01*
X175276000Y-109460000D02*
X177960000Y-109460000D01*
X175309000Y-109420000D02*
X177960000Y-109420000D01*
X175342000Y-109380000D02*
X177960000Y-109380000D01*
X175377000Y-109340000D02*
X177960000Y-109340000D01*
X175412000Y-109300000D02*
X177960000Y-109300000D01*
X175448000Y-109260000D02*
X177960000Y-109260000D01*
X175484000Y-109220000D02*
X177960000Y-109220000D01*
X175522000Y-109180000D02*
X177960000Y-109180000D01*
X175560000Y-109140000D02*
X177960000Y-109140000D01*
X175599000Y-109100000D02*
X177960000Y-109100000D01*
X175639000Y-109060000D02*
X177960000Y-109060000D01*
X175680000Y-109020000D02*
X177960000Y-109020000D01*
X175722000Y-108980000D02*
X177960000Y-108980000D01*
X175765000Y-108940000D02*
X182635000Y-108940000D01*
X175809000Y-108900000D02*
X182591000Y-108900000D01*
X175825000Y-117679646D02*
X176825000Y-117679646D01*
X175853000Y-108860000D02*
X182547000Y-108860000D01*
X175899000Y-108820000D02*
X182501000Y-108820000D01*
X175946000Y-108780000D02*
X182454000Y-108780000D01*
X175995000Y-108740000D02*
X182405000Y-108740000D01*
X176044000Y-108700000D02*
X182356000Y-108700000D01*
X176095000Y-108660000D02*
X182305000Y-108660000D01*
X176147000Y-108620000D02*
X182253000Y-108620000D01*
X176200000Y-108580000D02*
X182200000Y-108580000D01*
X176255000Y-108540000D02*
X182145000Y-108540000D01*
X176312000Y-108500000D02*
X182088000Y-108500000D01*
X176325000Y-118179646D02*
X176325000Y-117179646D01*
X176370000Y-108460000D02*
X182030000Y-108460000D01*
X176430000Y-108420000D02*
X181970000Y-108420000D01*
X176492000Y-108380000D02*
X181908000Y-108380000D01*
X176556000Y-108340000D02*
X181844000Y-108340000D01*
X176622000Y-108300000D02*
X181778000Y-108300000D01*
X176690000Y-108260000D02*
X181710000Y-108260000D01*
X176761000Y-108220000D02*
X181639000Y-108220000D01*
X176835000Y-108180000D02*
X181565000Y-108180000D01*
X176912000Y-108140000D02*
X181488000Y-108140000D01*
X176992000Y-108100000D02*
X181408000Y-108100000D01*
X177076000Y-108060000D02*
X181324000Y-108060000D01*
X177163000Y-108020000D02*
X181237000Y-108020000D01*
X177256000Y-107980000D02*
X181144000Y-107980000D01*
X177354000Y-107940000D02*
X181046000Y-107940000D01*
X177458000Y-107900000D02*
X180942000Y-107900000D01*
X177570000Y-107860000D02*
X180830000Y-107860000D01*
X177691000Y-107820000D02*
X180709000Y-107820000D01*
X177823000Y-107780000D02*
X180577000Y-107780000D01*
X177970000Y-107740000D02*
X180430000Y-107740000D01*
X178138000Y-107700000D02*
X180262000Y-107700000D01*
X178338000Y-107660000D02*
X180062000Y-107660000D01*
X178601000Y-107620000D02*
X179799000Y-107620000D01*
X180440000Y-108980000D02*
X182678000Y-108980000D01*
X180440000Y-109020000D02*
X182720000Y-109020000D01*
X180440000Y-109060000D02*
X182761000Y-109060000D01*
X180440000Y-109100000D02*
X182801000Y-109100000D01*
X180440000Y-109140000D02*
X182840000Y-109140000D01*
X180440000Y-109180000D02*
X182878000Y-109180000D01*
X180440000Y-109220000D02*
X182916000Y-109220000D01*
X180440000Y-109260000D02*
X182952000Y-109260000D01*
X180440000Y-109300000D02*
X182988000Y-109300000D01*
X180440000Y-109340000D02*
X183023000Y-109340000D01*
X180440000Y-109380000D02*
X183058000Y-109380000D01*
X180440000Y-109420000D02*
X183091000Y-109420000D01*
X180440000Y-109460000D02*
X183124000Y-109460000D01*
X180440000Y-109500000D02*
X183157000Y-109500000D01*
X180440000Y-109540000D02*
X183188000Y-109540000D01*
X180440000Y-109580000D02*
X183220000Y-109580000D01*
X180440000Y-109620000D02*
X183250000Y-109620000D01*
X180440000Y-109660000D02*
X183280000Y-109660000D01*
X180440000Y-109700000D02*
X183309000Y-109700000D01*
X180440000Y-109740000D02*
X183338000Y-109740000D01*
X180440000Y-109780000D02*
X183366000Y-109780000D01*
X180440000Y-109820000D02*
X183393000Y-109820000D01*
X180440000Y-109860000D02*
X183420000Y-109860000D01*
X180440000Y-109900000D02*
X183447000Y-109900000D01*
X180440000Y-109940000D02*
X183472000Y-109940000D01*
X180440000Y-109980000D02*
X183498000Y-109980000D01*
X180440000Y-110020000D02*
X183523000Y-110020000D01*
X180440000Y-110060000D02*
X183547000Y-110060000D01*
X180440000Y-110100000D02*
X183571000Y-110100000D01*
X180440000Y-110140000D02*
X183594000Y-110140000D01*
X180440000Y-110180000D02*
X183617000Y-110180000D01*
X180440000Y-110220000D02*
X183639000Y-110220000D01*
X180440000Y-110260000D02*
X183661000Y-110260000D01*
X180440000Y-110300000D02*
X183683000Y-110300000D01*
X180440000Y-110340000D02*
X183704000Y-110340000D01*
X180440000Y-110380000D02*
X183724000Y-110380000D01*
X180440000Y-110420000D02*
X183744000Y-110420000D01*
X180440000Y-110460000D02*
X183764000Y-110460000D01*
X180440000Y-110500000D02*
X183783000Y-110500000D01*
X180440000Y-110540000D02*
X183802000Y-110540000D01*
X180440000Y-110580000D02*
X183820000Y-110580000D01*
X180440000Y-110620000D02*
X183838000Y-110620000D01*
X180440000Y-110660000D02*
X183856000Y-110660000D01*
X180440000Y-110700000D02*
X183873000Y-110700000D01*
X180440000Y-110740000D02*
X183890000Y-110740000D01*
X180440000Y-110780000D02*
X183906000Y-110780000D01*
X180440000Y-110820000D02*
X183922000Y-110820000D01*
X180440000Y-110860000D02*
X183938000Y-110860000D01*
X180440000Y-110900000D02*
X183953000Y-110900000D01*
X180440000Y-110940000D02*
X183968000Y-110940000D01*
X180440000Y-110980000D02*
X183982000Y-110980000D01*
X180440000Y-111020000D02*
X183997000Y-111020000D01*
X180440000Y-111060000D02*
X184010000Y-111060000D01*
X180440000Y-111100000D02*
X184024000Y-111100000D01*
X180440000Y-111140000D02*
X184037000Y-111140000D01*
X180440000Y-111180000D02*
X184049000Y-111180000D01*
X180440000Y-111220000D02*
X184061000Y-111220000D01*
X180440000Y-111260000D02*
X184073000Y-111260000D01*
X180440000Y-111300000D02*
X184085000Y-111300000D01*
X180440000Y-111340000D02*
X184096000Y-111340000D01*
X180440000Y-111380000D02*
X184107000Y-111380000D01*
X180440000Y-111420000D02*
X184117000Y-111420000D01*
X184320000Y-112700000D02*
G75*
G02*
X174080000Y-112700000I-5120000J0D01*
G01*
X174080000Y-112700000D02*
G75*
G02*
X184320000Y-112700000I5120000J0D01*
G01*
%TO.C,LF1*%
D15*
X146350000Y-118800000D02*
X160850000Y-118800000D01*
X160850000Y-136800000D01*
X146350000Y-136800000D01*
X146350000Y-118800000D01*
%TO.C,R9*%
D17*
X146090000Y-94472936D02*
X146090000Y-94927064D01*
X147560000Y-94472936D02*
X147560000Y-94927064D01*
%TO.C,C42*%
X140087836Y-83390000D02*
X139872164Y-83390000D01*
X140087836Y-84110000D02*
X139872164Y-84110000D01*
%TO.C,R7*%
X141890000Y-94927064D02*
X141890000Y-94472936D01*
X143360000Y-94927064D02*
X143360000Y-94472936D01*
%TD*%
M02*
