%TF.GenerationSoftware,KiCad,Pcbnew,10.0.1*%
%TF.CreationDate,2026-05-02T00:01:45-05:00*%
%TF.ProjectId,PelletPirate-rev2026-01-ESP32-DevKitC-32E,50656c6c-6574-4506-9972-6174652d7265,rev?*%
%TF.SameCoordinates,Original*%
%TF.FileFunction,Profile,NP*%
%FSLAX46Y46*%
G04 Gerber Fmt 4.6, Leading zero omitted, Abs format (unit mm)*
G04 Created by KiCad (PCBNEW 10.0.1) date 2026-05-02 00:01:45*
%MOMM*%
%LPD*%
G01*
G04 APERTURE LIST*
%TA.AperFunction,Profile*%
%ADD10C,0.200000*%
%TD*%
%TA.AperFunction,Profile*%
%ADD11C,0.010000*%
%TD*%
G04 APERTURE END LIST*
D10*
X95500000Y-43500000D02*
X160500000Y-43500000D01*
X160500000Y-153500000D01*
X95500000Y-153500000D01*
X95500000Y-43500000D01*
%TO.C,PS3*%
D11*
X122500000Y-128800000D02*
G75*
G02*
X123200000Y-129500000I0J-700000D01*
G01*
X123200000Y-129500000D02*
G75*
G02*
X122500000Y-130200000I-700000J0D01*
G01*
X122500000Y-130200000D02*
X121900000Y-130200000D01*
X121900000Y-130200000D02*
G75*
G02*
X121200000Y-129500000I0J700000D01*
G01*
X121200000Y-129500000D02*
G75*
G02*
X121900000Y-128800000I700000J0D01*
G01*
X121900000Y-128800000D02*
X122500000Y-128800000D01*
X122790000Y-128135000D02*
G75*
G02*
X123290000Y-127635000I500000J0D01*
G01*
X122790000Y-128135000D02*
X122790000Y-130865000D01*
X123290000Y-131365000D02*
G75*
G02*
X122790000Y-130865000I0J500000D01*
G01*
X123790000Y-130865000D02*
G75*
G02*
X123290000Y-131365000I-500000J0D01*
G01*
X123790000Y-130865000D02*
X123790000Y-128135000D01*
X123290000Y-127635000D02*
G75*
G02*
X123790000Y-128135000I0J-500000D01*
G01*
X129900000Y-130200000D02*
G75*
G02*
X129200000Y-129500000I0J700000D01*
G01*
X129200000Y-129500000D02*
G75*
G02*
X129900000Y-128800000I700000J0D01*
G01*
X129900000Y-128800000D02*
X130500000Y-128800000D01*
X130500000Y-128800000D02*
G75*
G02*
X131200000Y-129500000I0J-700000D01*
G01*
X131200000Y-129500000D02*
G75*
G02*
X130500000Y-130200000I-700000J0D01*
G01*
X130500000Y-130200000D02*
X129900000Y-130200000D01*
X129610000Y-130865000D02*
G75*
G02*
X129110000Y-131365000I-500000J0D01*
G01*
X129610000Y-130865000D02*
X129610000Y-128135000D01*
X129110000Y-127635000D02*
G75*
G02*
X129610000Y-128135000I0J-500000D01*
G01*
X128610000Y-128135000D02*
G75*
G02*
X129110000Y-127635000I500000J0D01*
G01*
X128610000Y-128135000D02*
X128610000Y-130865000D01*
X129110000Y-131365000D02*
G75*
G02*
X128610000Y-130865000I0J500000D01*
G01*
%TD*%
M02*
