M48
METRIC
T1C0.300
T2C0.740
T3C0.800
T4C0.900
T5C1.000
T6C1.100
T7C1.300
T8C1.400
T9C2.000
T10C2.150
T11C1.200
T12C3.200
%
G90
G05
T1
X96.8Y-95.1
X98.4Y-136.9
X98.5Y-139.3
X98.9Y-77.7
X99.2Y-81.0
X101.5Y-77.8
X102.6Y-120.6
X102.9Y-91.9
X103.5Y-75.1
X104.2Y-145.2
X104.4Y-129.8
X104.4Y-136.8
X104.7Y-75.8
X104.7Y-123.1
X105.3Y-50.1
X106.4Y-49.5
X106.8Y-90.6
X108.0Y-67.6
X108.6Y-52.9
X108.7Y-63.6
X109.0Y-85.3
X109.0Y-135.7
X109.2Y-57.2
X110.6Y-70.2
X111.1Y-92.3
X112.5Y-142.4
X113.5Y-144.1
X114.4Y-125.8
X114.6Y-80.3
X114.7Y-88.2
X115.451Y-79.7
X115.7Y-95.7
X116.1Y-121.5
X116.9Y-65.8
X117.0Y-84.2
X117.1Y-69.3
X117.1Y-70.4
X117.3Y-57.6
X117.8Y-81.2
X118.5Y-61.7
X118.6Y-57.8
X119.7Y-66.4
X120.5Y-67.1
X121.0Y-93.7
X121.2Y-106.4
X121.3Y-64.4
X121.3Y-74.9
X121.3Y-88.1
X121.5Y-121.0
X121.8Y-136.2
X122.0Y-65.2
X122.1Y-54.5
X122.1Y-66.7
X122.2Y-55.537
X122.7Y-67.5
X122.8Y-69.4
X122.8Y-137.8
X123.1Y-64.8
X123.2Y-136.1
X123.3Y-75.3
X123.5Y-143.9
X123.6Y-79.7
X123.6Y-98.5
X123.7Y-68.5
X123.7Y-92.6
X123.9Y-53.6
X123.9Y-58.3
X124.2Y-103.1
X124.824Y-75.276
X124.843Y-58.643
X124.914Y-60.743
X125.9Y-75.5
X126.1Y-51.8
X126.4Y-118.6
X126.8Y-77.9
X127.25Y-60.826
X127.8Y-121.9
X128.2Y-120.4
X129.3Y-52.3
X129.7Y-61.4
X129.8Y-88.5
X130.2Y-82.5
X130.6Y-87.1
X130.9Y-102.4
X131.0Y-49.1
X131.3Y-55.0
X131.5Y-122.2
X131.9Y-76.1
X132.32Y-118.68
X132.4Y-78.6
X132.9Y-123.1
X133.3Y-118.0
X133.3Y-120.2
X133.5Y-88.6
X133.526Y-57.8
X133.6Y-75.4
X133.7Y-47.0
X133.7Y-78.3
X133.9Y-49.2
X133.9Y-54.8
X134.0Y-100.3
X134.346Y-75.7
X134.776Y-61.0
X135.1Y-93.9
X135.15Y-79.0
X135.3Y-55.9
X135.475Y-93.1
X135.5Y-124.0
X135.6Y-99.3
X135.7Y-57.8
X135.7Y-108.7
X136.0Y-116.8
X136.1Y-113.3
X136.3Y-60.0
X136.3Y-74.1
X136.4Y-79.0
X136.4Y-85.8
X136.7Y-75.9
X137.2Y-65.3
X137.286Y-50.4
X137.6Y-58.4
X137.9Y-89.6
X138.1Y-66.4
X138.1Y-67.4
X138.3Y-55.7
X138.4Y-145.5
X138.5Y-101.2
X138.6Y-57.8
X138.6Y-73.9
X138.6Y-119.3
X138.7Y-54.1
X138.7Y-90.3
X139.2Y-71.0
X139.2Y-88.5
X139.3Y-113.4
X139.6Y-75.9
X139.705Y-63.8
X139.8Y-57.1
X139.8Y-120.4
X140.1Y-65.8
X140.1Y-100.9
X140.4Y-61.7
X140.56Y-67.093
X140.6Y-93.6
X140.7Y-69.4
X140.7Y-97.0
X141.2Y-122.5
X141.5Y-70.8
X141.6Y-106.6
X141.976Y-60.124
X142.4Y-69.4
X142.7Y-89.3
X142.9Y-50.4
X143.2Y-87.4
X143.4Y-75.8
X143.549Y-60.0
X143.8Y-74.1
X144.8Y-119.7
X144.9Y-59.7
X145.1Y-93.8
X145.4Y-51.9
X145.8Y-83.0
X146.1Y-72.5
X146.6Y-75.335
X146.6Y-77.1
X146.9Y-70.9
X147.3Y-104.3
X147.9Y-102.2
X148.061Y-54.287
X148.2Y-68.9
X148.3Y-55.7
X148.3Y-66.0
X149.3Y-79.9
X149.8Y-66.3
X152.1Y-71.6
X152.3Y-55.3
X152.7Y-66.3
X153.25Y-64.6
X153.3Y-59.7
X153.9Y-65.8
X154.2Y-74.7
X154.464Y-66.367
X154.9Y-60.5
X155.2Y-84.1
X155.4Y-74.3
X155.8Y-51.7
X155.8Y-60.2
X155.85Y-63.36
X156.0Y-66.4
X156.1Y-71.6
X156.1Y-73.3
X157.9Y-97.8
X158.0Y-73.6
X158.05Y-71.65
X158.4Y-66.4
X159.0Y-72.6
X159.7Y-71.2
T2
X97.82Y-82.68
X97.82Y-90.3
X100.36Y-82.68
X100.36Y-90.3
X102.9Y-82.68
X102.9Y-90.3
X109.5Y-82.9
X109.5Y-90.52
X112.04Y-82.9
X112.04Y-90.52
X114.58Y-82.9
X114.58Y-90.52
X122.32Y-82.68
X122.32Y-90.3
X124.86Y-82.68
X124.86Y-90.3
X127.4Y-82.68
X127.4Y-90.3
T3
X146.8Y-147.2
X150.3Y-147.2
T4
X104.32Y-47.8
X104.32Y-73.2
X106.86Y-47.8
X106.86Y-73.2
X109.4Y-47.8
X109.4Y-73.2
X111.94Y-47.8
X111.94Y-73.2
X114.48Y-47.8
X114.48Y-73.2
X117.02Y-47.8
X117.02Y-73.2
X119.56Y-47.8
X119.56Y-73.2
X122.1Y-47.8
X122.1Y-73.2
X124.64Y-47.8
X124.64Y-73.2
X127.18Y-47.8
X127.18Y-73.2
X129.72Y-47.8
X129.72Y-73.2
X132.26Y-47.8
X132.26Y-73.2
X134.8Y-47.8
X134.8Y-73.2
X137.34Y-47.8
X137.34Y-73.2
X139.88Y-47.8
X139.88Y-73.2
X142.42Y-47.8
X142.42Y-73.2
X144.96Y-47.8
X144.96Y-73.2
X147.5Y-47.8
X147.5Y-73.2
X150.04Y-47.8
X150.04Y-73.2
T5
X98.55Y-97.0
X106.05Y-97.0
X109.8Y-97.4
X110.0Y-119.1
X111.2Y-106.3
X116.2Y-106.3
X117.3Y-97.4
X117.5Y-119.1
X123.9Y-109.7
X123.9Y-124.7
X129.1Y-110.7
X129.1Y-123.7
X139.1Y-110.7
X139.1Y-123.7
X139.4Y-137.2
X144.4Y-137.2
X145.0Y-117.7
X145.0Y-125.2
T6
X108.5Y-144.86
X108.5Y-147.4
X108.5Y-149.94
X120.3Y-144.82
X120.3Y-147.36
X120.3Y-149.9
X120.5Y-97.5
X120.5Y-100.0
X120.5Y-102.5
X131.4Y-144.86
X131.4Y-147.4
X131.4Y-149.94
X135.0Y-97.5
X135.0Y-102.5
T7
X101.1Y-101.825
X101.1Y-125.575
T8
X121.9Y-129.5
X130.5Y-129.5
T10
X98.3Y-133.2
X98.5Y-142.7
X113.3Y-150.0
X124.4Y-149.9
X135.6Y-149.9
X141.3Y-149.9
T11
X150.6Y-81.3
X150.6Y-94.9
X150.6Y-108.45
X150.6Y-121.95
X150.6Y-135.5
X155.6Y-76.3
X155.6Y-86.3
X155.6Y-89.9
X155.6Y-99.9
X155.6Y-103.45
X155.6Y-113.45
X155.6Y-116.95
X155.6Y-126.95
X155.6Y-130.5
X155.6Y-140.5
X158.1Y-76.3
X158.1Y-86.3
X158.1Y-89.9
X158.1Y-99.9
X158.1Y-103.45
X158.1Y-113.45
X158.1Y-116.95
X158.1Y-126.95
X158.1Y-130.5
X158.1Y-140.5
T12
X99.25Y-47.25
X99.25Y-149.75
X156.75Y-47.25
X156.75Y-149.75
T3
G00X150.95Y-76.3
M15
G01X150.25Y-76.3
M16
G05
G00X150.95Y-86.3
M15
G01X150.25Y-86.3
M16
G05
G00X150.95Y-89.9
M15
G01X150.25Y-89.9
M16
G05
G00X150.95Y-99.9
M15
G01X150.25Y-99.9
M16
G05
G00X150.95Y-103.45
M15
G01X150.25Y-103.45
M16
G05
G00X150.95Y-113.45
M15
G01X150.25Y-113.45
M16
G05
G00X150.95Y-116.95
M15
G01X150.25Y-116.95
M16
G05
G00X150.95Y-126.95
M15
G01X150.25Y-126.95
M16
G05
G00X150.95Y-130.5
M15
G01X150.25Y-130.5
M16
G05
G00X150.95Y-140.5
M15
G01X150.25Y-140.5
M16
G05
G00X155.6Y-81.65
M15
G01X155.6Y-80.95
M16
G05
G00X155.6Y-95.25
M15
G01X155.6Y-94.55
M16
G05
G00X155.6Y-108.8
M15
G01X155.6Y-108.1
M16
G05
G00X155.6Y-122.3
M15
G01X155.6Y-121.6
M16
G05
G00X155.6Y-135.85
M15
G01X155.6Y-135.15
M16
G05
T8
G00X109.9Y-129.5
M15
G01X110.5Y-129.5
M16
G05
G00X113.9Y-129.5
M15
G01X114.5Y-129.5
M16
G05
G00X117.9Y-129.5
M15
G01X118.5Y-129.5
M16
G05
G00X133.9Y-129.5
M15
G01X134.5Y-129.5
M16
G05
T9
G00X128.4Y-94.3
M15
G01X127.6Y-94.3
M16
G05
G00X128.4Y-105.7
M15
G01X127.6Y-105.7
M16
G05
M30
