%TF.GenerationSoftware,KiCad,Pcbnew,10.0.1*%
%TF.CreationDate,2026-05-02T00:01:45-05:00*%
%TF.ProjectId,PelletPirate-rev2026-01-ESP32-DevKitC-32E,50656c6c-6574-4506-9972-6174652d7265,rev?*%
%TF.SameCoordinates,Original*%
%TF.FileFunction,Soldermask,Top*%
%TF.FilePolarity,Negative*%
%FSLAX46Y46*%
G04 Gerber Fmt 4.6, Leading zero omitted, Abs format (unit mm)*
G04 Created by KiCad (PCBNEW 10.0.1) date 2026-05-02 00:01:45*
%MOMM*%
%LPD*%
G01*
G04 APERTURE LIST*
G04 Aperture macros list*
%AMRoundRect*
0 Rectangle with rounded corners*
0 $1 Rounding radius*
0 $2 $3 $4 $5 $6 $7 $8 $9 X,Y pos of 4 corners*
0 Add a 4 corners polygon primitive as box body*
4,1,4,$2,$3,$4,$5,$6,$7,$8,$9,$2,$3,0*
0 Add four circle primitives for the rounded corners*
1,1,$1+$1,$2,$3*
1,1,$1+$1,$4,$5*
1,1,$1+$1,$6,$7*
1,1,$1+$1,$8,$9*
0 Add four rect primitives between the rounded corners*
20,1,$1+$1,$2,$3,$4,$5,0*
20,1,$1+$1,$4,$5,$6,$7,0*
20,1,$1+$1,$6,$7,$8,$9,0*
20,1,$1+$1,$8,$9,$2,$3,0*%
G04 Aperture macros list end*
%ADD10C,0.010000*%
%ADD11RoundRect,0.250000X0.475000X-0.337500X0.475000X0.337500X-0.475000X0.337500X-0.475000X-0.337500X0*%
%ADD12RoundRect,0.250000X-1.325000X-1.325000X1.325000X-1.325000X1.325000X1.325000X-1.325000X1.325000X0*%
%ADD13C,2.000000*%
%ADD14RoundRect,0.102000X-0.624000X0.624000X-0.624000X-0.624000X0.624000X-0.624000X0.624000X0.624000X0*%
%ADD15C,1.452000*%
%ADD16C,1.800000*%
%ADD17R,2.000000X1.905000*%
%ADD18O,2.000000X1.905000*%
%ADD19C,3.200000*%
%ADD20RoundRect,0.102000X-0.825000X0.825000X-0.825000X-0.825000X0.825000X-0.825000X0.825000X0.825000X0*%
%ADD21C,1.854000*%
%ADD22O,6.204000X3.204000*%
%ADD23RoundRect,0.250000X-0.337500X-0.475000X0.337500X-0.475000X0.337500X0.475000X-0.337500X0.475000X0*%
%ADD24C,2.540000*%
%ADD25C,1.554000*%
%ADD26RoundRect,0.267260X-0.894740X0.924740X-0.894740X-0.924740X0.894740X-0.924740X0.894740X0.924740X0*%
%ADD27RoundRect,0.102000X0.704000X-0.704000X0.704000X0.704000X-0.704000X0.704000X-0.704000X-0.704000X0*%
%ADD28C,1.612000*%
%ADD29RoundRect,0.250000X-0.750000X-0.750000X0.750000X-0.750000X0.750000X0.750000X-0.750000X0.750000X0*%
%ADD30C,2.154000*%
%ADD31RoundRect,0.250000X-0.475000X0.337500X-0.475000X-0.337500X0.475000X-0.337500X0.475000X0.337500X0*%
%ADD32RoundRect,0.250000X-0.550000X-0.550000X0.550000X-0.550000X0.550000X0.550000X-0.550000X0.550000X0*%
%ADD33C,1.600000*%
%ADD34RoundRect,0.102000X-0.110000X-0.270000X0.110000X-0.270000X0.110000X0.270000X-0.110000X0.270000X0*%
%ADD35RoundRect,0.102000X-0.110000X-0.265000X0.110000X-0.265000X0.110000X0.265000X-0.110000X0.265000X0*%
%ADD36RoundRect,0.250000X0.425000X1.425000X-0.425000X1.425000X-0.425000X-1.425000X0.425000X-1.425000X0*%
%ADD37C,1.200000*%
%ADD38O,1.512000X2.820000*%
%ADD39O,2.820000X1.512000*%
%ADD40RoundRect,0.102000X-1.500000X-1.500000X1.500000X-1.500000X1.500000X1.500000X-1.500000X1.500000X0*%
G04 APERTURE END LIST*
D10*
%TO.C,PS3*%
X123890000Y-131465000D02*
X122690000Y-131465000D01*
X122690000Y-127535000D01*
X123890000Y-127535000D01*
X123890000Y-131465000D01*
G36*
X123890000Y-131465000D02*
G01*
X122690000Y-131465000D01*
X122690000Y-127535000D01*
X123890000Y-127535000D01*
X123890000Y-131465000D01*
G37*
X122890000Y-128900000D02*
X122890000Y-130100000D01*
X122890000Y-131100000D01*
X120600000Y-131100000D01*
X120600000Y-127900000D01*
X122890000Y-127900000D01*
X122890000Y-128900000D01*
G36*
X122890000Y-128900000D02*
G01*
X122890000Y-130100000D01*
X122890000Y-131100000D01*
X120600000Y-131100000D01*
X120600000Y-127900000D01*
X122890000Y-127900000D01*
X122890000Y-128900000D01*
G37*
X129710000Y-131465000D02*
X128510000Y-131465000D01*
X128510000Y-127535000D01*
X129710000Y-127535000D01*
X129710000Y-131465000D01*
G36*
X129710000Y-131465000D02*
G01*
X128510000Y-131465000D01*
X128510000Y-127535000D01*
X129710000Y-127535000D01*
X129710000Y-131465000D01*
G37*
X131800000Y-131100000D02*
X129510000Y-131100000D01*
X129510000Y-130100000D01*
X129510000Y-128900000D01*
X129510000Y-127900000D01*
X131800000Y-127900000D01*
X131800000Y-131100000D01*
G36*
X131800000Y-131100000D02*
G01*
X129510000Y-131100000D01*
X129510000Y-130100000D01*
X129510000Y-128900000D01*
X129510000Y-127900000D01*
X131800000Y-127900000D01*
X131800000Y-131100000D01*
G37*
%TD*%
D11*
%TO.C,R5*%
X118900000Y-86275000D03*
X118900000Y-84200000D03*
%TD*%
%TO.C,R8*%
X118800000Y-90400000D03*
X118800000Y-88325000D03*
%TD*%
D12*
%TO.C,WirePad8*%
X135600000Y-149900000D03*
%TD*%
D13*
%TO.C,C12*%
X145000000Y-117700000D03*
X145000000Y-125200000D03*
%TD*%
D14*
%TO.C,U2*%
X114580000Y-82900000D03*
D15*
X112040000Y-82900000D03*
X109500000Y-82900000D03*
X109500000Y-90520000D03*
X112040000Y-90520000D03*
X114580000Y-90520000D03*
%TD*%
D16*
%TO.C,MOV1*%
X110000000Y-119100000D03*
X117500000Y-119100000D03*
%TD*%
D17*
%TO.C,T1*%
X108500000Y-149940000D03*
D18*
X108500000Y-147400000D03*
X108500000Y-144860000D03*
%TD*%
D19*
%TO.C,MH2*%
X156750000Y-47250000D03*
%TD*%
D20*
%TO.C,MT1*%
X135000000Y-97500000D03*
D21*
X135000000Y-102500000D03*
X120500000Y-97500000D03*
X120500000Y-102500000D03*
X120500000Y-100000000D03*
D22*
X128000000Y-94300000D03*
X128000000Y-105700000D03*
%TD*%
D23*
%TO.C,R27*%
X98767500Y-76215000D03*
X100842500Y-76215000D03*
%TD*%
D17*
%TO.C,T3*%
X131400000Y-149940000D03*
D18*
X131400000Y-147400000D03*
X131400000Y-144860000D03*
%TD*%
D24*
%TO.C,LF1*%
X139100000Y-110700000D03*
X129100000Y-110700000D03*
X129100000Y-123700000D03*
X139100000Y-123700000D03*
%TD*%
D12*
%TO.C,WirePad4*%
X113300000Y-150000000D03*
%TD*%
D25*
%TO.C,C4*%
X123900000Y-124700000D03*
X123900000Y-109700000D03*
%TD*%
D19*
%TO.C,MH3*%
X156750000Y-149750000D03*
%TD*%
D26*
%TO.C,D1*%
X144800000Y-109400000D03*
X144800000Y-113830000D03*
%TD*%
D27*
%TO.C,ESP2*%
X104320000Y-73200000D03*
D28*
X106860000Y-73200000D03*
X109400000Y-73200000D03*
X111940000Y-73200000D03*
X114480000Y-73200000D03*
X117020000Y-73200000D03*
X119560000Y-73200000D03*
X122100000Y-73200000D03*
X124640000Y-73200000D03*
X127180000Y-73200000D03*
X129720000Y-73200000D03*
X132260000Y-73200000D03*
X134800000Y-73200000D03*
X137340000Y-73200000D03*
X139880000Y-73200000D03*
X142420000Y-73200000D03*
X144960000Y-73200000D03*
X147500000Y-73200000D03*
X150040000Y-73200000D03*
X104320000Y-47800000D03*
X106860000Y-47800000D03*
X109400000Y-47800000D03*
X111940000Y-47800000D03*
X114480000Y-47800000D03*
X117020000Y-47800000D03*
X119560000Y-47800000D03*
X122100000Y-47800000D03*
X124640000Y-47800000D03*
X127180000Y-47800000D03*
X129720000Y-47800000D03*
X132260000Y-47800000D03*
X134800000Y-47800000D03*
X137340000Y-47800000D03*
X139880000Y-47800000D03*
X142420000Y-47800000D03*
X144960000Y-47800000D03*
X147500000Y-47800000D03*
X150040000Y-47800000D03*
%TD*%
D29*
%TO.C,C7*%
X111200000Y-106300000D03*
D13*
X116200000Y-106300000D03*
%TD*%
D11*
%TO.C,R7*%
X106300000Y-84237500D03*
X106300000Y-82162500D03*
%TD*%
D30*
%TO.C,F1*%
X101100000Y-101825000D03*
X101100000Y-125575000D03*
%TD*%
D31*
%TO.C,C3*%
X120200000Y-139000000D03*
X120200000Y-141075000D03*
%TD*%
D19*
%TO.C,MH1*%
X99250000Y-47250000D03*
%TD*%
D11*
%TO.C,R9*%
X132000000Y-90437500D03*
X132000000Y-88362500D03*
%TD*%
%TO.C,R2*%
X110100000Y-141000000D03*
X110100000Y-138925000D03*
%TD*%
D14*
%TO.C,U3*%
X127400000Y-82680000D03*
D15*
X124860000Y-82680000D03*
X122320000Y-82680000D03*
X122320000Y-90300000D03*
X124860000Y-90300000D03*
X127400000Y-90300000D03*
%TD*%
D31*
%TO.C,C2*%
X113500000Y-138925000D03*
X113500000Y-141000000D03*
%TD*%
%TO.C,R4*%
X106100000Y-87300000D03*
X106100000Y-89375000D03*
%TD*%
D32*
%TO.C,C15*%
X146800000Y-147200000D03*
D33*
X150300000Y-147200000D03*
%TD*%
D23*
%TO.C,R28*%
X98767500Y-79225000D03*
X100842500Y-79225000D03*
%TD*%
D12*
%TO.C,WirePad2*%
X98500000Y-142700000D03*
%TD*%
D13*
%TO.C,C5*%
X106050000Y-97000000D03*
X98550000Y-97000000D03*
%TD*%
D31*
%TO.C,C1*%
X106425000Y-138800000D03*
X106425000Y-140875000D03*
%TD*%
D23*
%TO.C,R1*%
X102042500Y-140370000D03*
X104117500Y-140370000D03*
%TD*%
D17*
%TO.C,T2*%
X120300000Y-149900000D03*
D18*
X120300000Y-147360000D03*
X120300000Y-144820000D03*
%TD*%
D11*
%TO.C,R3*%
X116862500Y-141000000D03*
X116862500Y-138925000D03*
%TD*%
D12*
%TO.C,WirePad6*%
X124400000Y-149900000D03*
%TD*%
D34*
%TO.C,M1*%
X116590000Y-78865000D03*
D35*
X116890000Y-76245000D03*
D34*
X117190000Y-78865000D03*
D35*
X117490010Y-76245000D03*
D34*
X117790010Y-78865000D03*
D35*
X118090000Y-76245000D03*
D34*
X118390000Y-78865000D03*
D35*
X118690000Y-76245000D03*
D34*
X118990010Y-78865000D03*
D35*
X119290000Y-76245000D03*
D34*
X119590000Y-78865000D03*
D35*
X119890010Y-76245000D03*
D34*
X120190010Y-78865000D03*
D35*
X120490000Y-76245000D03*
D34*
X120790000Y-78865000D03*
D35*
X121090010Y-76245000D03*
D34*
X121390006Y-78865000D03*
D35*
X121690002Y-76245000D03*
D34*
X121990002Y-78865000D03*
D35*
X122289990Y-76245000D03*
D34*
X122590006Y-78865000D03*
D35*
X122890002Y-76245000D03*
D34*
X123190002Y-78865000D03*
D35*
X123490010Y-76245000D03*
D34*
X123790010Y-78865000D03*
D35*
X124090010Y-76245000D03*
D34*
X124390000Y-78865000D03*
D35*
X124690000Y-76245000D03*
D34*
X124990010Y-78865000D03*
D35*
X125290010Y-76245000D03*
D34*
X125590000Y-78865000D03*
D35*
X125890000Y-76245000D03*
D34*
X126190010Y-78865000D03*
D35*
X126490010Y-76245000D03*
D34*
X126790000Y-78865000D03*
D35*
X127090000Y-76245000D03*
D34*
X127390010Y-78865000D03*
D35*
X127690010Y-76245000D03*
D34*
X127990000Y-78865000D03*
X116190000Y-78865000D03*
X128389980Y-78865000D03*
%TD*%
D12*
%TO.C,WirePad1*%
X98300000Y-133200000D03*
%TD*%
D13*
%TO.C,C6*%
X109800000Y-97400000D03*
X117300000Y-97400000D03*
%TD*%
D29*
%TO.C,C13*%
X139400000Y-137200000D03*
D13*
X144400000Y-137200000D03*
%TD*%
D36*
%TO.C,L1*%
X144700000Y-129300000D03*
X138900000Y-129300000D03*
%TD*%
D23*
%TO.C,R26*%
X98725000Y-73400000D03*
X100800000Y-73400000D03*
%TD*%
D14*
%TO.C,U1*%
X102900000Y-82680000D03*
D15*
X100360000Y-82680000D03*
X97820000Y-82680000D03*
X97820000Y-90300000D03*
X100360000Y-90300000D03*
X102900000Y-90300000D03*
%TD*%
D12*
%TO.C,WirePad3*%
X141300000Y-149900000D03*
%TD*%
D11*
%TO.C,R6*%
X132100000Y-84500000D03*
X132100000Y-82425000D03*
%TD*%
D19*
%TO.C,MH4*%
X99250000Y-149750000D03*
%TD*%
D37*
%TO.C,J2*%
X158100000Y-99900000D03*
X158100000Y-89900000D03*
X155600000Y-99900000D03*
X155600000Y-89900000D03*
X150600000Y-94900000D03*
D38*
X155600000Y-94900000D03*
D39*
X150600000Y-99900000D03*
X150600000Y-89900000D03*
%TD*%
D37*
%TO.C,J3*%
X158100000Y-113450000D03*
X158100000Y-103450000D03*
X155600000Y-113450000D03*
X155600000Y-103450000D03*
X150600000Y-108450000D03*
D38*
X155600000Y-108450000D03*
D39*
X150600000Y-113450000D03*
X150600000Y-103450000D03*
%TD*%
D37*
%TO.C,J4*%
X158100000Y-126950000D03*
X158100000Y-116950000D03*
X155600000Y-126950000D03*
X155600000Y-116950000D03*
X150600000Y-121950000D03*
D38*
X155600000Y-121950000D03*
D39*
X150600000Y-126950000D03*
X150600000Y-116950000D03*
%TD*%
D37*
%TO.C,J5*%
X158100000Y-140500000D03*
X158100000Y-130500000D03*
X155600000Y-140500000D03*
X155600000Y-130500000D03*
X150600000Y-135500000D03*
D38*
X155600000Y-135500000D03*
D39*
X150600000Y-140500000D03*
X150600000Y-130500000D03*
%TD*%
D37*
%TO.C,J1*%
X158100000Y-86300000D03*
X158100000Y-76300000D03*
X155600000Y-86300000D03*
X155600000Y-76300000D03*
X150600000Y-81300000D03*
D38*
X155600000Y-81300000D03*
D39*
X150600000Y-86300000D03*
X150600000Y-76300000D03*
%TD*%
D40*
%TO.C,PS3*%
X110200000Y-129500000D03*
X114200000Y-129500000D03*
X134200000Y-129500000D03*
X118200000Y-129500000D03*
%TD*%
M02*
