%TF.GenerationSoftware,KiCad,Pcbnew,10.0.1*%
%TF.CreationDate,2026-05-02T00:01:45-05:00*%
%TF.ProjectId,PelletPirate-rev2026-01-ESP32-DevKitC-32E,50656c6c-6574-4506-9972-6174652d7265,rev?*%
%TF.SameCoordinates,Original*%
%TF.FileFunction,Soldermask,Bot*%
%TF.FilePolarity,Negative*%
%FSLAX46Y46*%
G04 Gerber Fmt 4.6, Leading zero omitted, Abs format (unit mm)*
G04 Created by KiCad (PCBNEW 10.0.1) date 2026-05-02 00:01:45*
%MOMM*%
%LPD*%
G01*
G04 APERTURE LIST*
G04 Aperture macros list*
%AMRoundRect*
0 Rectangle with rounded corners*
0 $1 Rounding radius*
0 $2 $3 $4 $5 $6 $7 $8 $9 X,Y pos of 4 corners*
0 Add a 4 corners polygon primitive as box body*
4,1,4,$2,$3,$4,$5,$6,$7,$8,$9,$2,$3,0*
0 Add four circle primitives for the rounded corners*
1,1,$1+$1,$2,$3*
1,1,$1+$1,$4,$5*
1,1,$1+$1,$6,$7*
1,1,$1+$1,$8,$9*
0 Add four rect primitives between the rounded corners*
20,1,$1+$1,$2,$3,$4,$5,0*
20,1,$1+$1,$4,$5,$6,$7,0*
20,1,$1+$1,$6,$7,$8,$9,0*
20,1,$1+$1,$8,$9,$2,$3,0*%
G04 Aperture macros list end*
%ADD10C,0.203200*%
%ADD11C,0.010000*%
%ADD12RoundRect,0.250000X-1.325000X-1.325000X1.325000X-1.325000X1.325000X1.325000X-1.325000X1.325000X0*%
%ADD13C,2.000000*%
%ADD14RoundRect,0.102000X-0.624000X0.624000X-0.624000X-0.624000X0.624000X-0.624000X0.624000X0.624000X0*%
%ADD15C,1.452000*%
%ADD16C,1.800000*%
%ADD17R,2.000000X1.905000*%
%ADD18O,2.000000X1.905000*%
%ADD19C,3.200000*%
%ADD20RoundRect,0.102000X-0.825000X0.825000X-0.825000X-0.825000X0.825000X-0.825000X0.825000X0.825000X0*%
%ADD21C,1.854000*%
%ADD22O,6.204000X3.204000*%
%ADD23C,2.540000*%
%ADD24C,1.554000*%
%ADD25RoundRect,0.102000X0.704000X-0.704000X0.704000X0.704000X-0.704000X0.704000X-0.704000X-0.704000X0*%
%ADD26C,1.612000*%
%ADD27RoundRect,0.250000X-0.750000X-0.750000X0.750000X-0.750000X0.750000X0.750000X-0.750000X0.750000X0*%
%ADD28C,2.154000*%
%ADD29RoundRect,0.250000X-0.550000X-0.550000X0.550000X-0.550000X0.550000X0.550000X-0.550000X0.550000X0*%
%ADD30C,1.600000*%
%ADD31RoundRect,0.250000X-0.475000X0.337500X-0.475000X-0.337500X0.475000X-0.337500X0.475000X0.337500X0*%
%ADD32RoundRect,0.250000X0.475000X-0.337500X0.475000X0.337500X-0.475000X0.337500X-0.475000X-0.337500X0*%
%ADD33RoundRect,0.250000X0.650000X-0.412500X0.650000X0.412500X-0.650000X0.412500X-0.650000X-0.412500X0*%
%ADD34RoundRect,0.250000X-0.337500X-0.475000X0.337500X-0.475000X0.337500X0.475000X-0.337500X0.475000X0*%
%ADD35RoundRect,0.075000X0.337500X0.075000X-0.337500X0.075000X-0.337500X-0.075000X0.337500X-0.075000X0*%
%ADD36RoundRect,0.075000X0.075000X0.337500X-0.075000X0.337500X-0.075000X-0.337500X0.075000X-0.337500X0*%
%ADD37R,3.250000X3.250000*%
%ADD38RoundRect,0.250000X0.337500X0.475000X-0.337500X0.475000X-0.337500X-0.475000X0.337500X-0.475000X0*%
%ADD39RoundRect,0.250000X-0.412500X-0.650000X0.412500X-0.650000X0.412500X0.650000X-0.412500X0.650000X0*%
%ADD40RoundRect,0.250000X-1.425000X0.425000X-1.425000X-0.425000X1.425000X-0.425000X1.425000X0.425000X0*%
%ADD41C,1.200000*%
%ADD42O,1.512000X2.820000*%
%ADD43O,2.820000X1.512000*%
%ADD44RoundRect,0.150000X0.512500X0.150000X-0.512500X0.150000X-0.512500X-0.150000X0.512500X-0.150000X0*%
%ADD45RoundRect,0.237500X-0.237500X0.300000X-0.237500X-0.300000X0.237500X-0.300000X0.237500X0.300000X0*%
%ADD46RoundRect,0.099250X0.627750X0.297750X-0.627750X0.297750X-0.627750X-0.297750X0.627750X-0.297750X0*%
%ADD47RoundRect,0.237500X-0.237500X0.250000X-0.237500X-0.250000X0.237500X-0.250000X0.237500X0.250000X0*%
%ADD48RoundRect,0.102000X0.325000X-0.485000X0.325000X0.485000X-0.325000X0.485000X-0.325000X-0.485000X0*%
%ADD49RoundRect,0.250000X0.400000X0.625000X-0.400000X0.625000X-0.400000X-0.625000X0.400000X-0.625000X0*%
%ADD50RoundRect,0.102000X-1.500000X-1.500000X1.500000X-1.500000X1.500000X1.500000X-1.500000X1.500000X0*%
G04 APERTURE END LIST*
D10*
%TO.C,L3*%
X139550000Y-78000000D02*
X139467000Y-78067000D01*
X139381000Y-78145000D01*
X139300000Y-78228000D01*
X139225000Y-78317000D01*
X139154000Y-78409000D01*
X139090000Y-78506000D01*
X139032000Y-78607000D01*
X138980000Y-78711000D01*
X138935000Y-78818000D01*
X138896000Y-78928000D01*
X138864000Y-79040000D01*
X138839000Y-79153000D01*
X138821000Y-79268000D01*
X138811000Y-79384000D01*
X138807000Y-79500000D01*
X138811000Y-79616000D01*
X138821000Y-79732000D01*
X138839000Y-79847000D01*
X138864000Y-79960000D01*
X138896000Y-80072000D01*
X138935000Y-80182000D01*
X138980000Y-80289000D01*
X139032000Y-80393000D01*
X139090000Y-80494000D01*
X139154000Y-80591000D01*
X139225000Y-80683000D01*
X139300000Y-80772000D01*
X139381000Y-80855000D01*
X139467000Y-80933000D01*
X139550000Y-81000000D01*
X139550000Y-81950000D01*
X137900000Y-81950000D01*
X137900000Y-77050000D01*
X139550000Y-77050000D01*
X139550000Y-78000000D01*
G36*
X139550000Y-78000000D02*
G01*
X139467000Y-78067000D01*
X139381000Y-78145000D01*
X139300000Y-78228000D01*
X139225000Y-78317000D01*
X139154000Y-78409000D01*
X139090000Y-78506000D01*
X139032000Y-78607000D01*
X138980000Y-78711000D01*
X138935000Y-78818000D01*
X138896000Y-78928000D01*
X138864000Y-79040000D01*
X138839000Y-79153000D01*
X138821000Y-79268000D01*
X138811000Y-79384000D01*
X138807000Y-79500000D01*
X138811000Y-79616000D01*
X138821000Y-79732000D01*
X138839000Y-79847000D01*
X138864000Y-79960000D01*
X138896000Y-80072000D01*
X138935000Y-80182000D01*
X138980000Y-80289000D01*
X139032000Y-80393000D01*
X139090000Y-80494000D01*
X139154000Y-80591000D01*
X139225000Y-80683000D01*
X139300000Y-80772000D01*
X139381000Y-80855000D01*
X139467000Y-80933000D01*
X139550000Y-81000000D01*
X139550000Y-81950000D01*
X137900000Y-81950000D01*
X137900000Y-77050000D01*
X139550000Y-77050000D01*
X139550000Y-78000000D01*
G37*
X143600000Y-81950000D02*
X141950000Y-81950000D01*
X141950000Y-81000000D01*
X142033000Y-80933000D01*
X142119000Y-80855000D01*
X142200000Y-80772000D01*
X142275000Y-80683000D01*
X142346000Y-80591000D01*
X142410000Y-80494000D01*
X142468000Y-80393000D01*
X142520000Y-80289000D01*
X142565000Y-80182000D01*
X142604000Y-80072000D01*
X142636000Y-79960000D01*
X142661000Y-79847000D01*
X142679000Y-79732000D01*
X142689000Y-79616000D01*
X142693000Y-79500000D01*
X142689000Y-79384000D01*
X142679000Y-79268000D01*
X142661000Y-79153000D01*
X142636000Y-79040000D01*
X142604000Y-78928000D01*
X142565000Y-78818000D01*
X142520000Y-78711000D01*
X142468000Y-78607000D01*
X142410000Y-78506000D01*
X142346000Y-78409000D01*
X142275000Y-78317000D01*
X142200000Y-78228000D01*
X142119000Y-78145000D01*
X142033000Y-78067000D01*
X141950000Y-78000000D01*
X141950000Y-77050000D01*
X143600000Y-77050000D01*
X143600000Y-81950000D01*
G36*
X143600000Y-81950000D02*
G01*
X141950000Y-81950000D01*
X141950000Y-81000000D01*
X142033000Y-80933000D01*
X142119000Y-80855000D01*
X142200000Y-80772000D01*
X142275000Y-80683000D01*
X142346000Y-80591000D01*
X142410000Y-80494000D01*
X142468000Y-80393000D01*
X142520000Y-80289000D01*
X142565000Y-80182000D01*
X142604000Y-80072000D01*
X142636000Y-79960000D01*
X142661000Y-79847000D01*
X142679000Y-79732000D01*
X142689000Y-79616000D01*
X142693000Y-79500000D01*
X142689000Y-79384000D01*
X142679000Y-79268000D01*
X142661000Y-79153000D01*
X142636000Y-79040000D01*
X142604000Y-78928000D01*
X142565000Y-78818000D01*
X142520000Y-78711000D01*
X142468000Y-78607000D01*
X142410000Y-78506000D01*
X142346000Y-78409000D01*
X142275000Y-78317000D01*
X142200000Y-78228000D01*
X142119000Y-78145000D01*
X142033000Y-78067000D01*
X141950000Y-78000000D01*
X141950000Y-77050000D01*
X143600000Y-77050000D01*
X143600000Y-81950000D01*
G37*
D11*
%TO.C,PS3*%
X123890000Y-131465000D02*
X122690000Y-131465000D01*
X122690000Y-127535000D01*
X123890000Y-127535000D01*
X123890000Y-131465000D01*
G36*
X123890000Y-131465000D02*
G01*
X122690000Y-131465000D01*
X122690000Y-127535000D01*
X123890000Y-127535000D01*
X123890000Y-131465000D01*
G37*
X122890000Y-128900000D02*
X122890000Y-130100000D01*
X122890000Y-131100000D01*
X120600000Y-131100000D01*
X120600000Y-127900000D01*
X122890000Y-127900000D01*
X122890000Y-128900000D01*
G36*
X122890000Y-128900000D02*
G01*
X122890000Y-130100000D01*
X122890000Y-131100000D01*
X120600000Y-131100000D01*
X120600000Y-127900000D01*
X122890000Y-127900000D01*
X122890000Y-128900000D01*
G37*
X129710000Y-131465000D02*
X128510000Y-131465000D01*
X128510000Y-127535000D01*
X129710000Y-127535000D01*
X129710000Y-131465000D01*
G36*
X129710000Y-131465000D02*
G01*
X128510000Y-131465000D01*
X128510000Y-127535000D01*
X129710000Y-127535000D01*
X129710000Y-131465000D01*
G37*
X131800000Y-131100000D02*
X129510000Y-131100000D01*
X129510000Y-130100000D01*
X129510000Y-128900000D01*
X129510000Y-127900000D01*
X131800000Y-127900000D01*
X131800000Y-131100000D01*
G36*
X131800000Y-131100000D02*
G01*
X129510000Y-131100000D01*
X129510000Y-130100000D01*
X129510000Y-128900000D01*
X129510000Y-127900000D01*
X131800000Y-127900000D01*
X131800000Y-131100000D01*
G37*
%TD*%
D12*
%TO.C,WirePad8*%
X135600000Y-149900000D03*
%TD*%
D13*
%TO.C,C12*%
X145000000Y-117700000D03*
X145000000Y-125200000D03*
%TD*%
D14*
%TO.C,U2*%
X114580000Y-82900000D03*
D15*
X112040000Y-82900000D03*
X109500000Y-82900000D03*
X109500000Y-90520000D03*
X112040000Y-90520000D03*
X114580000Y-90520000D03*
%TD*%
D16*
%TO.C,MOV1*%
X110000000Y-119100000D03*
X117500000Y-119100000D03*
%TD*%
D17*
%TO.C,T1*%
X108500000Y-149940000D03*
D18*
X108500000Y-147400000D03*
X108500000Y-144860000D03*
%TD*%
D19*
%TO.C,MH2*%
X156750000Y-47250000D03*
%TD*%
D20*
%TO.C,MT1*%
X135000000Y-97500000D03*
D21*
X135000000Y-102500000D03*
X120500000Y-97500000D03*
X120500000Y-102500000D03*
X120500000Y-100000000D03*
D22*
X128000000Y-94300000D03*
X128000000Y-105700000D03*
%TD*%
D17*
%TO.C,T3*%
X131400000Y-149940000D03*
D18*
X131400000Y-147400000D03*
X131400000Y-144860000D03*
%TD*%
D23*
%TO.C,LF1*%
X139100000Y-110700000D03*
X129100000Y-110700000D03*
X129100000Y-123700000D03*
X139100000Y-123700000D03*
%TD*%
D12*
%TO.C,WirePad4*%
X113300000Y-150000000D03*
%TD*%
D24*
%TO.C,C4*%
X123900000Y-124700000D03*
X123900000Y-109700000D03*
%TD*%
D19*
%TO.C,MH3*%
X156750000Y-149750000D03*
%TD*%
D25*
%TO.C,ESP2*%
X104320000Y-73200000D03*
D26*
X106860000Y-73200000D03*
X109400000Y-73200000D03*
X111940000Y-73200000D03*
X114480000Y-73200000D03*
X117020000Y-73200000D03*
X119560000Y-73200000D03*
X122100000Y-73200000D03*
X124640000Y-73200000D03*
X127180000Y-73200000D03*
X129720000Y-73200000D03*
X132260000Y-73200000D03*
X134800000Y-73200000D03*
X137340000Y-73200000D03*
X139880000Y-73200000D03*
X142420000Y-73200000D03*
X144960000Y-73200000D03*
X147500000Y-73200000D03*
X150040000Y-73200000D03*
X104320000Y-47800000D03*
X106860000Y-47800000D03*
X109400000Y-47800000D03*
X111940000Y-47800000D03*
X114480000Y-47800000D03*
X117020000Y-47800000D03*
X119560000Y-47800000D03*
X122100000Y-47800000D03*
X124640000Y-47800000D03*
X127180000Y-47800000D03*
X129720000Y-47800000D03*
X132260000Y-47800000D03*
X134800000Y-47800000D03*
X137340000Y-47800000D03*
X139880000Y-47800000D03*
X142420000Y-47800000D03*
X144960000Y-47800000D03*
X147500000Y-47800000D03*
X150040000Y-47800000D03*
%TD*%
D27*
%TO.C,C7*%
X111200000Y-106300000D03*
D13*
X116200000Y-106300000D03*
%TD*%
D28*
%TO.C,F1*%
X101100000Y-101825000D03*
X101100000Y-125575000D03*
%TD*%
D19*
%TO.C,MH1*%
X99250000Y-47250000D03*
%TD*%
D14*
%TO.C,U3*%
X127400000Y-82680000D03*
D15*
X124860000Y-82680000D03*
X122320000Y-82680000D03*
X122320000Y-90300000D03*
X124860000Y-90300000D03*
X127400000Y-90300000D03*
%TD*%
D29*
%TO.C,C15*%
X146800000Y-147200000D03*
D30*
X150300000Y-147200000D03*
%TD*%
D12*
%TO.C,WirePad2*%
X98500000Y-142700000D03*
%TD*%
D13*
%TO.C,C5*%
X106050000Y-97000000D03*
X98550000Y-97000000D03*
%TD*%
D17*
%TO.C,T2*%
X120300000Y-149900000D03*
D18*
X120300000Y-147360000D03*
X120300000Y-144820000D03*
%TD*%
D12*
%TO.C,WirePad6*%
X124400000Y-149900000D03*
%TD*%
%TO.C,WirePad1*%
X98300000Y-133200000D03*
%TD*%
D13*
%TO.C,C6*%
X109800000Y-97400000D03*
X117300000Y-97400000D03*
%TD*%
D27*
%TO.C,C13*%
X139400000Y-137200000D03*
D13*
X144400000Y-137200000D03*
%TD*%
D14*
%TO.C,U1*%
X102900000Y-82680000D03*
D15*
X100360000Y-82680000D03*
X97820000Y-82680000D03*
X97820000Y-90300000D03*
X100360000Y-90300000D03*
X102900000Y-90300000D03*
%TD*%
D12*
%TO.C,WirePad3*%
X141300000Y-149900000D03*
%TD*%
D19*
%TO.C,MH4*%
X99250000Y-149750000D03*
%TD*%
D31*
%TO.C,C28*%
X158400000Y-67762500D03*
X158400000Y-69837500D03*
%TD*%
%TO.C,C35*%
X146500000Y-59762500D03*
X146500000Y-61837500D03*
%TD*%
D32*
%TO.C,C27*%
X138500000Y-61837500D03*
X138500000Y-59762500D03*
%TD*%
D33*
%TO.C,C18*%
X131500000Y-117312500D03*
X131500000Y-114187500D03*
%TD*%
D34*
%TO.C,C14*%
X123825000Y-120425000D03*
X125900000Y-120425000D03*
%TD*%
D35*
%TO.C,MAX3*%
X158237500Y-54637500D03*
X158237500Y-55287500D03*
X158237500Y-55937500D03*
X158237500Y-56587500D03*
X158237500Y-57237500D03*
D36*
X157100000Y-58375000D03*
X156450000Y-58375000D03*
X155800000Y-58375000D03*
X155150000Y-58375000D03*
X154500000Y-58375000D03*
D35*
X153362500Y-57237500D03*
X153362500Y-56587500D03*
X153362500Y-55937500D03*
X153362500Y-55287500D03*
X153362500Y-54637500D03*
D36*
X154500000Y-53500000D03*
X155150000Y-53500000D03*
X155800000Y-53500000D03*
X156450000Y-53500000D03*
X157100000Y-53500000D03*
D37*
X155800000Y-55937500D03*
%TD*%
D32*
%TO.C,R14*%
X114200000Y-67175000D03*
X114200000Y-65100000D03*
%TD*%
D38*
%TO.C,R18*%
X140575000Y-95100000D03*
X138500000Y-95100000D03*
%TD*%
D32*
%TO.C,R15*%
X140500000Y-116750000D03*
X140500000Y-114675000D03*
%TD*%
D31*
%TO.C,C31*%
X132200000Y-51625000D03*
X132200000Y-53700000D03*
%TD*%
D32*
%TO.C,R11*%
X109200000Y-61200000D03*
X109200000Y-59125000D03*
%TD*%
D31*
%TO.C,R21*%
X132240000Y-56877500D03*
X132240000Y-58952500D03*
%TD*%
D33*
%TO.C,C20*%
X124750000Y-117375000D03*
X124750000Y-114250000D03*
%TD*%
D32*
%TO.C,R12*%
X111200000Y-67100000D03*
X111200000Y-65025000D03*
%TD*%
%TO.C,R23*%
X158147500Y-64837500D03*
X158147500Y-62762500D03*
%TD*%
D39*
%TO.C,C10*%
X132375000Y-124900000D03*
X135500000Y-124900000D03*
%TD*%
D40*
%TO.C,L2*%
X144800000Y-100300000D03*
X144800000Y-106100000D03*
%TD*%
D31*
%TO.C,R25*%
X149200000Y-62462500D03*
X149200000Y-64537500D03*
%TD*%
D41*
%TO.C,J2*%
X158100000Y-99900000D03*
X158100000Y-89900000D03*
X155600000Y-99900000D03*
X155600000Y-89900000D03*
X150600000Y-94900000D03*
D42*
X155600000Y-94900000D03*
D43*
X150600000Y-99900000D03*
X150600000Y-89900000D03*
%TD*%
D41*
%TO.C,J3*%
X158100000Y-113450000D03*
X158100000Y-103450000D03*
X155600000Y-113450000D03*
X155600000Y-103450000D03*
X150600000Y-108450000D03*
D42*
X155600000Y-108450000D03*
D43*
X150600000Y-113450000D03*
X150600000Y-103450000D03*
%TD*%
D41*
%TO.C,J4*%
X158100000Y-126950000D03*
X158100000Y-116950000D03*
X155600000Y-126950000D03*
X155600000Y-116950000D03*
X150600000Y-121950000D03*
D42*
X155600000Y-121950000D03*
D43*
X150600000Y-126950000D03*
X150600000Y-116950000D03*
%TD*%
D35*
%TO.C,MAX1*%
X129402500Y-54240000D03*
X129402500Y-54890000D03*
X129402500Y-55540000D03*
X129402500Y-56190000D03*
X129402500Y-56840000D03*
D36*
X128265000Y-57977500D03*
X127615000Y-57977500D03*
X126965000Y-57977500D03*
X126315000Y-57977500D03*
X125665000Y-57977500D03*
D35*
X124527500Y-56840000D03*
X124527500Y-56190000D03*
X124527500Y-55540000D03*
X124527500Y-54890000D03*
X124527500Y-54240000D03*
D36*
X125665000Y-53102500D03*
X126315000Y-53102500D03*
X126965000Y-53102500D03*
X127615000Y-53102500D03*
X128265000Y-53102500D03*
D37*
X126965000Y-55540000D03*
%TD*%
D32*
%TO.C,R20*%
X134500000Y-116787500D03*
X134500000Y-114712500D03*
%TD*%
%TO.C,C17*%
X146700000Y-95575000D03*
X146700000Y-93500000D03*
%TD*%
D44*
%TO.C,DIO1*%
X142875000Y-83600000D03*
X142875000Y-84550000D03*
X142875000Y-85500000D03*
X140600000Y-85500000D03*
X140600000Y-84550000D03*
X140600000Y-83600000D03*
%TD*%
D45*
%TO.C,C9*%
X144800000Y-87600000D03*
X144800000Y-89325000D03*
%TD*%
D38*
%TO.C,R13*%
X140675000Y-91800000D03*
X138600000Y-91800000D03*
%TD*%
D32*
%TO.C,R19*%
X137750000Y-116787500D03*
X137750000Y-114712500D03*
%TD*%
D45*
%TO.C,C8*%
X147100000Y-87875000D03*
X147100000Y-89600000D03*
%TD*%
D33*
%TO.C,C19*%
X128250000Y-117312500D03*
X128250000Y-114187500D03*
%TD*%
D32*
%TO.C,C21*%
X135400000Y-54337500D03*
X135400000Y-52262500D03*
%TD*%
D46*
%TO.C,PS2*%
X137100000Y-119300000D03*
X137100000Y-120250000D03*
X137100000Y-121200000D03*
X134590000Y-121200000D03*
X134590000Y-120250000D03*
X134590000Y-119300000D03*
%TD*%
D35*
%TO.C,MAX2*%
X146327500Y-54502500D03*
X146327500Y-55152500D03*
X146327500Y-55802500D03*
X146327500Y-56452500D03*
X146327500Y-57102500D03*
D36*
X145190000Y-58240000D03*
X144540000Y-58240000D03*
X143890000Y-58240000D03*
X143240000Y-58240000D03*
X142590000Y-58240000D03*
D35*
X141452500Y-57102500D03*
X141452500Y-56452500D03*
X141452500Y-55802500D03*
X141452500Y-55152500D03*
X141452500Y-54502500D03*
D36*
X142590000Y-53365000D03*
X143240000Y-53365000D03*
X143890000Y-53365000D03*
X144540000Y-53365000D03*
X145190000Y-53365000D03*
D37*
X143890000Y-55802500D03*
%TD*%
D31*
%TO.C,R24*%
X131750000Y-67425000D03*
X131750000Y-69500000D03*
%TD*%
D41*
%TO.C,J5*%
X158100000Y-140500000D03*
X158100000Y-130500000D03*
X155600000Y-140500000D03*
X155600000Y-130500000D03*
X150600000Y-135500000D03*
D42*
X155600000Y-135500000D03*
D43*
X150600000Y-140500000D03*
X150600000Y-130500000D03*
%TD*%
D47*
%TO.C,R16*%
X138000000Y-85900000D03*
X138000000Y-87725000D03*
%TD*%
D34*
%TO.C,C34*%
X126262500Y-61000000D03*
X128337500Y-61000000D03*
%TD*%
D38*
%TO.C,C24*%
X122037500Y-62800000D03*
X119962500Y-62800000D03*
%TD*%
D41*
%TO.C,J1*%
X158100000Y-86300000D03*
X158100000Y-76300000D03*
X155600000Y-86300000D03*
X155600000Y-76300000D03*
X150600000Y-81300000D03*
D42*
X155600000Y-81300000D03*
D43*
X150600000Y-86300000D03*
X150600000Y-76300000D03*
%TD*%
D38*
%TO.C,C22*%
X146600000Y-50200000D03*
X144525000Y-50200000D03*
%TD*%
D34*
%TO.C,C25*%
X141800000Y-61700000D03*
X143875000Y-61700000D03*
%TD*%
D31*
%TO.C,C32*%
X149500000Y-51500000D03*
X149500000Y-53575000D03*
%TD*%
%TO.C,C26*%
X122025000Y-57525000D03*
X122025000Y-59600000D03*
%TD*%
D48*
%TO.C,D2*%
X143800000Y-93800000D03*
X143800000Y-97280000D03*
%TD*%
D31*
%TO.C,C33*%
X154800000Y-68362500D03*
X154800000Y-70437500D03*
%TD*%
D38*
%TO.C,C30*%
X145337500Y-70500000D03*
X143262500Y-70500000D03*
%TD*%
%TO.C,C29*%
X129237500Y-70900000D03*
X127162500Y-70900000D03*
%TD*%
D31*
%TO.C,R10*%
X113000000Y-59800000D03*
X113000000Y-61875000D03*
%TD*%
D35*
%TO.C,MAX5*%
X146347500Y-64490000D03*
X146347500Y-65140000D03*
X146347500Y-65790000D03*
X146347500Y-66440000D03*
X146347500Y-67090000D03*
D36*
X145210000Y-68227500D03*
X144560000Y-68227500D03*
X143910000Y-68227500D03*
X143260000Y-68227500D03*
X142610000Y-68227500D03*
D35*
X141472500Y-67090000D03*
X141472500Y-66440000D03*
X141472500Y-65790000D03*
X141472500Y-65140000D03*
X141472500Y-64490000D03*
D36*
X142610000Y-63352500D03*
X143260000Y-63352500D03*
X143910000Y-63352500D03*
X144560000Y-63352500D03*
X145210000Y-63352500D03*
D37*
X143910000Y-65790000D03*
%TD*%
D38*
%TO.C,C16*%
X144937500Y-91600000D03*
X142862500Y-91600000D03*
%TD*%
D34*
%TO.C,C11*%
X129362500Y-120400000D03*
X131437500Y-120400000D03*
%TD*%
D32*
%TO.C,C23*%
X155100000Y-64400000D03*
X155100000Y-62325000D03*
%TD*%
D49*
%TO.C,R17*%
X141550000Y-98700000D03*
X138450000Y-98700000D03*
%TD*%
D31*
%TO.C,R22*%
X149447500Y-56862500D03*
X149447500Y-58937500D03*
%TD*%
D35*
%TO.C,MAX4*%
X129275000Y-64100000D03*
X129275000Y-64750000D03*
X129275000Y-65400000D03*
X129275000Y-66050000D03*
X129275000Y-66700000D03*
D36*
X128137500Y-67837500D03*
X127487500Y-67837500D03*
X126837500Y-67837500D03*
X126187500Y-67837500D03*
X125537500Y-67837500D03*
D35*
X124400000Y-66700000D03*
X124400000Y-66050000D03*
X124400000Y-65400000D03*
X124400000Y-64750000D03*
X124400000Y-64100000D03*
D36*
X125537500Y-62962500D03*
X126187500Y-62962500D03*
X126837500Y-62962500D03*
X127487500Y-62962500D03*
X128137500Y-62962500D03*
D37*
X126837500Y-65400000D03*
%TD*%
D50*
%TO.C,PS3*%
X110200000Y-129500000D03*
X114200000Y-129500000D03*
X134200000Y-129500000D03*
X118200000Y-129500000D03*
%TD*%
M02*
