%TF.GenerationSoftware,KiCad,Pcbnew,10.0.1*%
%TF.CreationDate,2026-05-02T00:01:45-05:00*%
%TF.ProjectId,PelletPirate-rev2026-01-ESP32-DevKitC-32E,50656c6c-6574-4506-9972-6174652d7265,rev?*%
%TF.SameCoordinates,Original*%
%TF.FileFunction,Legend,Bot*%
%TF.FilePolarity,Positive*%
%FSLAX46Y46*%
G04 Gerber Fmt 4.6, Leading zero omitted, Abs format (unit mm)*
G04 Created by KiCad (PCBNEW 10.0.1) date 2026-05-02 00:01:45*
%MOMM*%
%LPD*%
G01*
G04 APERTURE LIST*
G04 Aperture macros list*
%AMRoundRect*
0 Rectangle with rounded corners*
0 $1 Rounding radius*
0 $2 $3 $4 $5 $6 $7 $8 $9 X,Y pos of 4 corners*
0 Add a 4 corners polygon primitive as box body*
4,1,4,$2,$3,$4,$5,$6,$7,$8,$9,$2,$3,0*
0 Add four circle primitives for the rounded corners*
1,1,$1+$1,$2,$3*
1,1,$1+$1,$4,$5*
1,1,$1+$1,$6,$7*
1,1,$1+$1,$8,$9*
0 Add four rect primitives between the rounded corners*
20,1,$1+$1,$2,$3,$4,$5,0*
20,1,$1+$1,$4,$5,$6,$7,0*
20,1,$1+$1,$6,$7,$8,$9,0*
20,1,$1+$1,$8,$9,$2,$3,0*%
G04 Aperture macros list end*
%ADD10C,0.150000*%
%ADD11C,0.120000*%
%ADD12C,0.127000*%
%ADD13C,0.203200*%
%ADD14C,0.200000*%
%ADD15C,0.010000*%
%ADD16RoundRect,0.250000X-1.325000X-1.325000X1.325000X-1.325000X1.325000X1.325000X-1.325000X1.325000X0*%
%ADD17C,2.000000*%
%ADD18RoundRect,0.102000X-0.624000X0.624000X-0.624000X-0.624000X0.624000X-0.624000X0.624000X0.624000X0*%
%ADD19C,1.452000*%
%ADD20C,1.800000*%
%ADD21R,2.000000X1.905000*%
%ADD22O,2.000000X1.905000*%
%ADD23C,3.200000*%
%ADD24RoundRect,0.102000X-0.825000X0.825000X-0.825000X-0.825000X0.825000X-0.825000X0.825000X0.825000X0*%
%ADD25C,1.854000*%
%ADD26O,6.204000X3.204000*%
%ADD27C,2.540000*%
%ADD28C,1.554000*%
%ADD29RoundRect,0.102000X0.704000X-0.704000X0.704000X0.704000X-0.704000X0.704000X-0.704000X-0.704000X0*%
%ADD30C,1.612000*%
%ADD31RoundRect,0.250000X-0.750000X-0.750000X0.750000X-0.750000X0.750000X0.750000X-0.750000X0.750000X0*%
%ADD32C,2.154000*%
%ADD33RoundRect,0.250000X-0.550000X-0.550000X0.550000X-0.550000X0.550000X0.550000X-0.550000X0.550000X0*%
%ADD34C,1.600000*%
%ADD35RoundRect,0.250000X-0.475000X0.337500X-0.475000X-0.337500X0.475000X-0.337500X0.475000X0.337500X0*%
%ADD36RoundRect,0.250000X0.475000X-0.337500X0.475000X0.337500X-0.475000X0.337500X-0.475000X-0.337500X0*%
%ADD37RoundRect,0.250000X0.650000X-0.412500X0.650000X0.412500X-0.650000X0.412500X-0.650000X-0.412500X0*%
%ADD38RoundRect,0.250000X-0.337500X-0.475000X0.337500X-0.475000X0.337500X0.475000X-0.337500X0.475000X0*%
%ADD39RoundRect,0.075000X0.337500X0.075000X-0.337500X0.075000X-0.337500X-0.075000X0.337500X-0.075000X0*%
%ADD40RoundRect,0.075000X0.075000X0.337500X-0.075000X0.337500X-0.075000X-0.337500X0.075000X-0.337500X0*%
%ADD41R,3.250000X3.250000*%
%ADD42RoundRect,0.250000X0.337500X0.475000X-0.337500X0.475000X-0.337500X-0.475000X0.337500X-0.475000X0*%
%ADD43RoundRect,0.250000X-0.412500X-0.650000X0.412500X-0.650000X0.412500X0.650000X-0.412500X0.650000X0*%
%ADD44RoundRect,0.250000X-1.425000X0.425000X-1.425000X-0.425000X1.425000X-0.425000X1.425000X0.425000X0*%
%ADD45C,1.200000*%
%ADD46O,1.512000X2.820000*%
%ADD47O,2.820000X1.512000*%
%ADD48RoundRect,0.150000X0.512500X0.150000X-0.512500X0.150000X-0.512500X-0.150000X0.512500X-0.150000X0*%
%ADD49RoundRect,0.237500X-0.237500X0.300000X-0.237500X-0.300000X0.237500X-0.300000X0.237500X0.300000X0*%
%ADD50RoundRect,0.099250X0.627750X0.297750X-0.627750X0.297750X-0.627750X-0.297750X0.627750X-0.297750X0*%
%ADD51RoundRect,0.237500X-0.237500X0.250000X-0.237500X-0.250000X0.237500X-0.250000X0.237500X0.250000X0*%
%ADD52RoundRect,0.102000X0.325000X-0.485000X0.325000X0.485000X-0.325000X0.485000X-0.325000X-0.485000X0*%
%ADD53RoundRect,0.250000X0.400000X0.625000X-0.400000X0.625000X-0.400000X-0.625000X0.400000X-0.625000X0*%
%ADD54RoundRect,0.102000X-1.500000X-1.500000X1.500000X-1.500000X1.500000X1.500000X-1.500000X1.500000X0*%
G04 APERTURE END LIST*
D10*
X158642857Y-61559580D02*
X158690476Y-61607200D01*
X158690476Y-61607200D02*
X158833333Y-61654819D01*
X158833333Y-61654819D02*
X158928571Y-61654819D01*
X158928571Y-61654819D02*
X159071428Y-61607200D01*
X159071428Y-61607200D02*
X159166666Y-61511961D01*
X159166666Y-61511961D02*
X159214285Y-61416723D01*
X159214285Y-61416723D02*
X159261904Y-61226247D01*
X159261904Y-61226247D02*
X159261904Y-61083390D01*
X159261904Y-61083390D02*
X159214285Y-60892914D01*
X159214285Y-60892914D02*
X159166666Y-60797676D01*
X159166666Y-60797676D02*
X159071428Y-60702438D01*
X159071428Y-60702438D02*
X158928571Y-60654819D01*
X158928571Y-60654819D02*
X158833333Y-60654819D01*
X158833333Y-60654819D02*
X158690476Y-60702438D01*
X158690476Y-60702438D02*
X158642857Y-60750057D01*
X158261904Y-60750057D02*
X158214285Y-60702438D01*
X158214285Y-60702438D02*
X158119047Y-60654819D01*
X158119047Y-60654819D02*
X157880952Y-60654819D01*
X157880952Y-60654819D02*
X157785714Y-60702438D01*
X157785714Y-60702438D02*
X157738095Y-60750057D01*
X157738095Y-60750057D02*
X157690476Y-60845295D01*
X157690476Y-60845295D02*
X157690476Y-60940533D01*
X157690476Y-60940533D02*
X157738095Y-61083390D01*
X157738095Y-61083390D02*
X158309523Y-61654819D01*
X158309523Y-61654819D02*
X157690476Y-61654819D01*
X157119047Y-61083390D02*
X157214285Y-61035771D01*
X157214285Y-61035771D02*
X157261904Y-60988152D01*
X157261904Y-60988152D02*
X157309523Y-60892914D01*
X157309523Y-60892914D02*
X157309523Y-60845295D01*
X157309523Y-60845295D02*
X157261904Y-60750057D01*
X157261904Y-60750057D02*
X157214285Y-60702438D01*
X157214285Y-60702438D02*
X157119047Y-60654819D01*
X157119047Y-60654819D02*
X156928571Y-60654819D01*
X156928571Y-60654819D02*
X156833333Y-60702438D01*
X156833333Y-60702438D02*
X156785714Y-60750057D01*
X156785714Y-60750057D02*
X156738095Y-60845295D01*
X156738095Y-60845295D02*
X156738095Y-60892914D01*
X156738095Y-60892914D02*
X156785714Y-60988152D01*
X156785714Y-60988152D02*
X156833333Y-61035771D01*
X156833333Y-61035771D02*
X156928571Y-61083390D01*
X156928571Y-61083390D02*
X157119047Y-61083390D01*
X157119047Y-61083390D02*
X157214285Y-61131009D01*
X157214285Y-61131009D02*
X157261904Y-61178628D01*
X157261904Y-61178628D02*
X157309523Y-61273866D01*
X157309523Y-61273866D02*
X157309523Y-61464342D01*
X157309523Y-61464342D02*
X157261904Y-61559580D01*
X157261904Y-61559580D02*
X157214285Y-61607200D01*
X157214285Y-61607200D02*
X157119047Y-61654819D01*
X157119047Y-61654819D02*
X156928571Y-61654819D01*
X156928571Y-61654819D02*
X156833333Y-61607200D01*
X156833333Y-61607200D02*
X156785714Y-61559580D01*
X156785714Y-61559580D02*
X156738095Y-61464342D01*
X156738095Y-61464342D02*
X156738095Y-61273866D01*
X156738095Y-61273866D02*
X156785714Y-61178628D01*
X156785714Y-61178628D02*
X156833333Y-61131009D01*
X156833333Y-61131009D02*
X156928571Y-61083390D01*
X149122514Y-61190807D02*
X149161218Y-61229512D01*
X149161218Y-61229512D02*
X149277333Y-61268216D01*
X149277333Y-61268216D02*
X149354742Y-61268216D01*
X149354742Y-61268216D02*
X149470856Y-61229512D01*
X149470856Y-61229512D02*
X149548266Y-61152102D01*
X149548266Y-61152102D02*
X149586971Y-61074692D01*
X149586971Y-61074692D02*
X149625675Y-60919873D01*
X149625675Y-60919873D02*
X149625675Y-60803759D01*
X149625675Y-60803759D02*
X149586971Y-60648940D01*
X149586971Y-60648940D02*
X149548266Y-60571531D01*
X149548266Y-60571531D02*
X149470856Y-60494121D01*
X149470856Y-60494121D02*
X149354742Y-60455416D01*
X149354742Y-60455416D02*
X149277333Y-60455416D01*
X149277333Y-60455416D02*
X149161218Y-60494121D01*
X149161218Y-60494121D02*
X149122514Y-60532826D01*
X148851580Y-60455416D02*
X148348418Y-60455416D01*
X148348418Y-60455416D02*
X148619352Y-60765054D01*
X148619352Y-60765054D02*
X148503237Y-60765054D01*
X148503237Y-60765054D02*
X148425828Y-60803759D01*
X148425828Y-60803759D02*
X148387123Y-60842464D01*
X148387123Y-60842464D02*
X148348418Y-60919873D01*
X148348418Y-60919873D02*
X148348418Y-61113397D01*
X148348418Y-61113397D02*
X148387123Y-61190807D01*
X148387123Y-61190807D02*
X148425828Y-61229512D01*
X148425828Y-61229512D02*
X148503237Y-61268216D01*
X148503237Y-61268216D02*
X148735466Y-61268216D01*
X148735466Y-61268216D02*
X148812875Y-61229512D01*
X148812875Y-61229512D02*
X148851580Y-61190807D01*
X147613028Y-60455416D02*
X148000076Y-60455416D01*
X148000076Y-60455416D02*
X148038780Y-60842464D01*
X148038780Y-60842464D02*
X148000076Y-60803759D01*
X148000076Y-60803759D02*
X147922666Y-60765054D01*
X147922666Y-60765054D02*
X147729142Y-60765054D01*
X147729142Y-60765054D02*
X147651733Y-60803759D01*
X147651733Y-60803759D02*
X147613028Y-60842464D01*
X147613028Y-60842464D02*
X147574323Y-60919873D01*
X147574323Y-60919873D02*
X147574323Y-61113397D01*
X147574323Y-61113397D02*
X147613028Y-61190807D01*
X147613028Y-61190807D02*
X147651733Y-61229512D01*
X147651733Y-61229512D02*
X147729142Y-61268216D01*
X147729142Y-61268216D02*
X147922666Y-61268216D01*
X147922666Y-61268216D02*
X148000076Y-61229512D01*
X148000076Y-61229512D02*
X148038780Y-61190807D01*
X138422514Y-63590807D02*
X138461218Y-63629512D01*
X138461218Y-63629512D02*
X138577333Y-63668216D01*
X138577333Y-63668216D02*
X138654742Y-63668216D01*
X138654742Y-63668216D02*
X138770856Y-63629512D01*
X138770856Y-63629512D02*
X138848266Y-63552102D01*
X138848266Y-63552102D02*
X138886971Y-63474692D01*
X138886971Y-63474692D02*
X138925675Y-63319873D01*
X138925675Y-63319873D02*
X138925675Y-63203759D01*
X138925675Y-63203759D02*
X138886971Y-63048940D01*
X138886971Y-63048940D02*
X138848266Y-62971531D01*
X138848266Y-62971531D02*
X138770856Y-62894121D01*
X138770856Y-62894121D02*
X138654742Y-62855416D01*
X138654742Y-62855416D02*
X138577333Y-62855416D01*
X138577333Y-62855416D02*
X138461218Y-62894121D01*
X138461218Y-62894121D02*
X138422514Y-62932826D01*
X138112875Y-62932826D02*
X138074171Y-62894121D01*
X138074171Y-62894121D02*
X137996761Y-62855416D01*
X137996761Y-62855416D02*
X137803237Y-62855416D01*
X137803237Y-62855416D02*
X137725828Y-62894121D01*
X137725828Y-62894121D02*
X137687123Y-62932826D01*
X137687123Y-62932826D02*
X137648418Y-63010235D01*
X137648418Y-63010235D02*
X137648418Y-63087645D01*
X137648418Y-63087645D02*
X137687123Y-63203759D01*
X137687123Y-63203759D02*
X138151580Y-63668216D01*
X138151580Y-63668216D02*
X137648418Y-63668216D01*
X137377485Y-62855416D02*
X136835619Y-62855416D01*
X136835619Y-62855416D02*
X137183961Y-63668216D01*
X132201785Y-113036104D02*
X132239881Y-113074200D01*
X132239881Y-113074200D02*
X132354166Y-113112295D01*
X132354166Y-113112295D02*
X132430357Y-113112295D01*
X132430357Y-113112295D02*
X132544643Y-113074200D01*
X132544643Y-113074200D02*
X132620833Y-112998009D01*
X132620833Y-112998009D02*
X132658928Y-112921819D01*
X132658928Y-112921819D02*
X132697024Y-112769438D01*
X132697024Y-112769438D02*
X132697024Y-112655152D01*
X132697024Y-112655152D02*
X132658928Y-112502771D01*
X132658928Y-112502771D02*
X132620833Y-112426580D01*
X132620833Y-112426580D02*
X132544643Y-112350390D01*
X132544643Y-112350390D02*
X132430357Y-112312295D01*
X132430357Y-112312295D02*
X132354166Y-112312295D01*
X132354166Y-112312295D02*
X132239881Y-112350390D01*
X132239881Y-112350390D02*
X132201785Y-112388485D01*
X131439881Y-113112295D02*
X131897024Y-113112295D01*
X131668452Y-113112295D02*
X131668452Y-112312295D01*
X131668452Y-112312295D02*
X131744643Y-112426580D01*
X131744643Y-112426580D02*
X131820833Y-112502771D01*
X131820833Y-112502771D02*
X131897024Y-112540866D01*
X130982738Y-112655152D02*
X131058928Y-112617057D01*
X131058928Y-112617057D02*
X131097023Y-112578961D01*
X131097023Y-112578961D02*
X131135119Y-112502771D01*
X131135119Y-112502771D02*
X131135119Y-112464676D01*
X131135119Y-112464676D02*
X131097023Y-112388485D01*
X131097023Y-112388485D02*
X131058928Y-112350390D01*
X131058928Y-112350390D02*
X130982738Y-112312295D01*
X130982738Y-112312295D02*
X130830357Y-112312295D01*
X130830357Y-112312295D02*
X130754166Y-112350390D01*
X130754166Y-112350390D02*
X130716071Y-112388485D01*
X130716071Y-112388485D02*
X130677976Y-112464676D01*
X130677976Y-112464676D02*
X130677976Y-112502771D01*
X130677976Y-112502771D02*
X130716071Y-112578961D01*
X130716071Y-112578961D02*
X130754166Y-112617057D01*
X130754166Y-112617057D02*
X130830357Y-112655152D01*
X130830357Y-112655152D02*
X130982738Y-112655152D01*
X130982738Y-112655152D02*
X131058928Y-112693247D01*
X131058928Y-112693247D02*
X131097023Y-112731342D01*
X131097023Y-112731342D02*
X131135119Y-112807533D01*
X131135119Y-112807533D02*
X131135119Y-112959914D01*
X131135119Y-112959914D02*
X131097023Y-113036104D01*
X131097023Y-113036104D02*
X131058928Y-113074200D01*
X131058928Y-113074200D02*
X130982738Y-113112295D01*
X130982738Y-113112295D02*
X130830357Y-113112295D01*
X130830357Y-113112295D02*
X130754166Y-113074200D01*
X130754166Y-113074200D02*
X130716071Y-113036104D01*
X130716071Y-113036104D02*
X130677976Y-112959914D01*
X130677976Y-112959914D02*
X130677976Y-112807533D01*
X130677976Y-112807533D02*
X130716071Y-112731342D01*
X130716071Y-112731342D02*
X130754166Y-112693247D01*
X130754166Y-112693247D02*
X130830357Y-112655152D01*
X127611104Y-119910714D02*
X127649200Y-119872618D01*
X127649200Y-119872618D02*
X127687295Y-119758333D01*
X127687295Y-119758333D02*
X127687295Y-119682142D01*
X127687295Y-119682142D02*
X127649200Y-119567856D01*
X127649200Y-119567856D02*
X127573009Y-119491666D01*
X127573009Y-119491666D02*
X127496819Y-119453571D01*
X127496819Y-119453571D02*
X127344438Y-119415475D01*
X127344438Y-119415475D02*
X127230152Y-119415475D01*
X127230152Y-119415475D02*
X127077771Y-119453571D01*
X127077771Y-119453571D02*
X127001580Y-119491666D01*
X127001580Y-119491666D02*
X126925390Y-119567856D01*
X126925390Y-119567856D02*
X126887295Y-119682142D01*
X126887295Y-119682142D02*
X126887295Y-119758333D01*
X126887295Y-119758333D02*
X126925390Y-119872618D01*
X126925390Y-119872618D02*
X126963485Y-119910714D01*
X127687295Y-120672618D02*
X127687295Y-120215475D01*
X127687295Y-120444047D02*
X126887295Y-120444047D01*
X126887295Y-120444047D02*
X127001580Y-120367856D01*
X127001580Y-120367856D02*
X127077771Y-120291666D01*
X127077771Y-120291666D02*
X127115866Y-120215475D01*
X127153961Y-121358333D02*
X127687295Y-121358333D01*
X126849200Y-121167857D02*
X127420628Y-120977380D01*
X127420628Y-120977380D02*
X127420628Y-121472619D01*
X157514285Y-52592319D02*
X157514285Y-51592319D01*
X157514285Y-51592319D02*
X157180952Y-52306604D01*
X157180952Y-52306604D02*
X156847619Y-51592319D01*
X156847619Y-51592319D02*
X156847619Y-52592319D01*
X156419047Y-52306604D02*
X155942857Y-52306604D01*
X156514285Y-52592319D02*
X156180952Y-51592319D01*
X156180952Y-51592319D02*
X155847619Y-52592319D01*
X155609523Y-51592319D02*
X154942857Y-52592319D01*
X154942857Y-51592319D02*
X155609523Y-52592319D01*
X154657142Y-51592319D02*
X154038095Y-51592319D01*
X154038095Y-51592319D02*
X154371428Y-51973271D01*
X154371428Y-51973271D02*
X154228571Y-51973271D01*
X154228571Y-51973271D02*
X154133333Y-52020890D01*
X154133333Y-52020890D02*
X154085714Y-52068509D01*
X154085714Y-52068509D02*
X154038095Y-52163747D01*
X154038095Y-52163747D02*
X154038095Y-52401842D01*
X154038095Y-52401842D02*
X154085714Y-52497080D01*
X154085714Y-52497080D02*
X154133333Y-52544700D01*
X154133333Y-52544700D02*
X154228571Y-52592319D01*
X154228571Y-52592319D02*
X154514285Y-52592319D01*
X154514285Y-52592319D02*
X154609523Y-52544700D01*
X154609523Y-52544700D02*
X154657142Y-52497080D01*
X114880357Y-64054819D02*
X115213690Y-63578628D01*
X115451785Y-64054819D02*
X115451785Y-63054819D01*
X115451785Y-63054819D02*
X115070833Y-63054819D01*
X115070833Y-63054819D02*
X114975595Y-63102438D01*
X114975595Y-63102438D02*
X114927976Y-63150057D01*
X114927976Y-63150057D02*
X114880357Y-63245295D01*
X114880357Y-63245295D02*
X114880357Y-63388152D01*
X114880357Y-63388152D02*
X114927976Y-63483390D01*
X114927976Y-63483390D02*
X114975595Y-63531009D01*
X114975595Y-63531009D02*
X115070833Y-63578628D01*
X115070833Y-63578628D02*
X115451785Y-63578628D01*
X113927976Y-64054819D02*
X114499404Y-64054819D01*
X114213690Y-64054819D02*
X114213690Y-63054819D01*
X114213690Y-63054819D02*
X114308928Y-63197676D01*
X114308928Y-63197676D02*
X114404166Y-63292914D01*
X114404166Y-63292914D02*
X114499404Y-63340533D01*
X113070833Y-63388152D02*
X113070833Y-64054819D01*
X113308928Y-63007200D02*
X113547023Y-63721485D01*
X113547023Y-63721485D02*
X112927976Y-63721485D01*
X140180357Y-93874819D02*
X140513690Y-93398628D01*
X140751785Y-93874819D02*
X140751785Y-92874819D01*
X140751785Y-92874819D02*
X140370833Y-92874819D01*
X140370833Y-92874819D02*
X140275595Y-92922438D01*
X140275595Y-92922438D02*
X140227976Y-92970057D01*
X140227976Y-92970057D02*
X140180357Y-93065295D01*
X140180357Y-93065295D02*
X140180357Y-93208152D01*
X140180357Y-93208152D02*
X140227976Y-93303390D01*
X140227976Y-93303390D02*
X140275595Y-93351009D01*
X140275595Y-93351009D02*
X140370833Y-93398628D01*
X140370833Y-93398628D02*
X140751785Y-93398628D01*
X139227976Y-93874819D02*
X139799404Y-93874819D01*
X139513690Y-93874819D02*
X139513690Y-92874819D01*
X139513690Y-92874819D02*
X139608928Y-93017676D01*
X139608928Y-93017676D02*
X139704166Y-93112914D01*
X139704166Y-93112914D02*
X139799404Y-93160533D01*
X138656547Y-93303390D02*
X138751785Y-93255771D01*
X138751785Y-93255771D02*
X138799404Y-93208152D01*
X138799404Y-93208152D02*
X138847023Y-93112914D01*
X138847023Y-93112914D02*
X138847023Y-93065295D01*
X138847023Y-93065295D02*
X138799404Y-92970057D01*
X138799404Y-92970057D02*
X138751785Y-92922438D01*
X138751785Y-92922438D02*
X138656547Y-92874819D01*
X138656547Y-92874819D02*
X138466071Y-92874819D01*
X138466071Y-92874819D02*
X138370833Y-92922438D01*
X138370833Y-92922438D02*
X138323214Y-92970057D01*
X138323214Y-92970057D02*
X138275595Y-93065295D01*
X138275595Y-93065295D02*
X138275595Y-93112914D01*
X138275595Y-93112914D02*
X138323214Y-93208152D01*
X138323214Y-93208152D02*
X138370833Y-93255771D01*
X138370833Y-93255771D02*
X138466071Y-93303390D01*
X138466071Y-93303390D02*
X138656547Y-93303390D01*
X138656547Y-93303390D02*
X138751785Y-93351009D01*
X138751785Y-93351009D02*
X138799404Y-93398628D01*
X138799404Y-93398628D02*
X138847023Y-93493866D01*
X138847023Y-93493866D02*
X138847023Y-93684342D01*
X138847023Y-93684342D02*
X138799404Y-93779580D01*
X138799404Y-93779580D02*
X138751785Y-93827200D01*
X138751785Y-93827200D02*
X138656547Y-93874819D01*
X138656547Y-93874819D02*
X138466071Y-93874819D01*
X138466071Y-93874819D02*
X138370833Y-93827200D01*
X138370833Y-93827200D02*
X138323214Y-93779580D01*
X138323214Y-93779580D02*
X138275595Y-93684342D01*
X138275595Y-93684342D02*
X138275595Y-93493866D01*
X138275595Y-93493866D02*
X138323214Y-93398628D01*
X138323214Y-93398628D02*
X138370833Y-93351009D01*
X138370833Y-93351009D02*
X138466071Y-93303390D01*
X141264285Y-113537295D02*
X141530952Y-113156342D01*
X141721428Y-113537295D02*
X141721428Y-112737295D01*
X141721428Y-112737295D02*
X141416666Y-112737295D01*
X141416666Y-112737295D02*
X141340476Y-112775390D01*
X141340476Y-112775390D02*
X141302381Y-112813485D01*
X141302381Y-112813485D02*
X141264285Y-112889676D01*
X141264285Y-112889676D02*
X141264285Y-113003961D01*
X141264285Y-113003961D02*
X141302381Y-113080152D01*
X141302381Y-113080152D02*
X141340476Y-113118247D01*
X141340476Y-113118247D02*
X141416666Y-113156342D01*
X141416666Y-113156342D02*
X141721428Y-113156342D01*
X140502381Y-113537295D02*
X140959524Y-113537295D01*
X140730952Y-113537295D02*
X140730952Y-112737295D01*
X140730952Y-112737295D02*
X140807143Y-112851580D01*
X140807143Y-112851580D02*
X140883333Y-112927771D01*
X140883333Y-112927771D02*
X140959524Y-112965866D01*
X139778571Y-112737295D02*
X140159523Y-112737295D01*
X140159523Y-112737295D02*
X140197619Y-113118247D01*
X140197619Y-113118247D02*
X140159523Y-113080152D01*
X140159523Y-113080152D02*
X140083333Y-113042057D01*
X140083333Y-113042057D02*
X139892857Y-113042057D01*
X139892857Y-113042057D02*
X139816666Y-113080152D01*
X139816666Y-113080152D02*
X139778571Y-113118247D01*
X139778571Y-113118247D02*
X139740476Y-113194438D01*
X139740476Y-113194438D02*
X139740476Y-113384914D01*
X139740476Y-113384914D02*
X139778571Y-113461104D01*
X139778571Y-113461104D02*
X139816666Y-113499200D01*
X139816666Y-113499200D02*
X139892857Y-113537295D01*
X139892857Y-113537295D02*
X140083333Y-113537295D01*
X140083333Y-113537295D02*
X140159523Y-113499200D01*
X140159523Y-113499200D02*
X140197619Y-113461104D01*
X130742857Y-51684580D02*
X130790476Y-51732200D01*
X130790476Y-51732200D02*
X130933333Y-51779819D01*
X130933333Y-51779819D02*
X131028571Y-51779819D01*
X131028571Y-51779819D02*
X131171428Y-51732200D01*
X131171428Y-51732200D02*
X131266666Y-51636961D01*
X131266666Y-51636961D02*
X131314285Y-51541723D01*
X131314285Y-51541723D02*
X131361904Y-51351247D01*
X131361904Y-51351247D02*
X131361904Y-51208390D01*
X131361904Y-51208390D02*
X131314285Y-51017914D01*
X131314285Y-51017914D02*
X131266666Y-50922676D01*
X131266666Y-50922676D02*
X131171428Y-50827438D01*
X131171428Y-50827438D02*
X131028571Y-50779819D01*
X131028571Y-50779819D02*
X130933333Y-50779819D01*
X130933333Y-50779819D02*
X130790476Y-50827438D01*
X130790476Y-50827438D02*
X130742857Y-50875057D01*
X130409523Y-50779819D02*
X129790476Y-50779819D01*
X129790476Y-50779819D02*
X130123809Y-51160771D01*
X130123809Y-51160771D02*
X129980952Y-51160771D01*
X129980952Y-51160771D02*
X129885714Y-51208390D01*
X129885714Y-51208390D02*
X129838095Y-51256009D01*
X129838095Y-51256009D02*
X129790476Y-51351247D01*
X129790476Y-51351247D02*
X129790476Y-51589342D01*
X129790476Y-51589342D02*
X129838095Y-51684580D01*
X129838095Y-51684580D02*
X129885714Y-51732200D01*
X129885714Y-51732200D02*
X129980952Y-51779819D01*
X129980952Y-51779819D02*
X130266666Y-51779819D01*
X130266666Y-51779819D02*
X130361904Y-51732200D01*
X130361904Y-51732200D02*
X130409523Y-51684580D01*
X128838095Y-51779819D02*
X129409523Y-51779819D01*
X129123809Y-51779819D02*
X129123809Y-50779819D01*
X129123809Y-50779819D02*
X129219047Y-50922676D01*
X129219047Y-50922676D02*
X129314285Y-51017914D01*
X129314285Y-51017914D02*
X129409523Y-51065533D01*
X109842857Y-58117319D02*
X110176190Y-57641128D01*
X110414285Y-58117319D02*
X110414285Y-57117319D01*
X110414285Y-57117319D02*
X110033333Y-57117319D01*
X110033333Y-57117319D02*
X109938095Y-57164938D01*
X109938095Y-57164938D02*
X109890476Y-57212557D01*
X109890476Y-57212557D02*
X109842857Y-57307795D01*
X109842857Y-57307795D02*
X109842857Y-57450652D01*
X109842857Y-57450652D02*
X109890476Y-57545890D01*
X109890476Y-57545890D02*
X109938095Y-57593509D01*
X109938095Y-57593509D02*
X110033333Y-57641128D01*
X110033333Y-57641128D02*
X110414285Y-57641128D01*
X108890476Y-58117319D02*
X109461904Y-58117319D01*
X109176190Y-58117319D02*
X109176190Y-57117319D01*
X109176190Y-57117319D02*
X109271428Y-57260176D01*
X109271428Y-57260176D02*
X109366666Y-57355414D01*
X109366666Y-57355414D02*
X109461904Y-57403033D01*
X107938095Y-58117319D02*
X108509523Y-58117319D01*
X108223809Y-58117319D02*
X108223809Y-57117319D01*
X108223809Y-57117319D02*
X108319047Y-57260176D01*
X108319047Y-57260176D02*
X108414285Y-57355414D01*
X108414285Y-57355414D02*
X108509523Y-57403033D01*
X132942857Y-55854819D02*
X133276190Y-55378628D01*
X133514285Y-55854819D02*
X133514285Y-54854819D01*
X133514285Y-54854819D02*
X133133333Y-54854819D01*
X133133333Y-54854819D02*
X133038095Y-54902438D01*
X133038095Y-54902438D02*
X132990476Y-54950057D01*
X132990476Y-54950057D02*
X132942857Y-55045295D01*
X132942857Y-55045295D02*
X132942857Y-55188152D01*
X132942857Y-55188152D02*
X132990476Y-55283390D01*
X132990476Y-55283390D02*
X133038095Y-55331009D01*
X133038095Y-55331009D02*
X133133333Y-55378628D01*
X133133333Y-55378628D02*
X133514285Y-55378628D01*
X132561904Y-54950057D02*
X132514285Y-54902438D01*
X132514285Y-54902438D02*
X132419047Y-54854819D01*
X132419047Y-54854819D02*
X132180952Y-54854819D01*
X132180952Y-54854819D02*
X132085714Y-54902438D01*
X132085714Y-54902438D02*
X132038095Y-54950057D01*
X132038095Y-54950057D02*
X131990476Y-55045295D01*
X131990476Y-55045295D02*
X131990476Y-55140533D01*
X131990476Y-55140533D02*
X132038095Y-55283390D01*
X132038095Y-55283390D02*
X132609523Y-55854819D01*
X132609523Y-55854819D02*
X131990476Y-55854819D01*
X131038095Y-55854819D02*
X131609523Y-55854819D01*
X131323809Y-55854819D02*
X131323809Y-54854819D01*
X131323809Y-54854819D02*
X131419047Y-54997676D01*
X131419047Y-54997676D02*
X131514285Y-55092914D01*
X131514285Y-55092914D02*
X131609523Y-55140533D01*
X125514285Y-113098604D02*
X125552381Y-113136700D01*
X125552381Y-113136700D02*
X125666666Y-113174795D01*
X125666666Y-113174795D02*
X125742857Y-113174795D01*
X125742857Y-113174795D02*
X125857143Y-113136700D01*
X125857143Y-113136700D02*
X125933333Y-113060509D01*
X125933333Y-113060509D02*
X125971428Y-112984319D01*
X125971428Y-112984319D02*
X126009524Y-112831938D01*
X126009524Y-112831938D02*
X126009524Y-112717652D01*
X126009524Y-112717652D02*
X125971428Y-112565271D01*
X125971428Y-112565271D02*
X125933333Y-112489080D01*
X125933333Y-112489080D02*
X125857143Y-112412890D01*
X125857143Y-112412890D02*
X125742857Y-112374795D01*
X125742857Y-112374795D02*
X125666666Y-112374795D01*
X125666666Y-112374795D02*
X125552381Y-112412890D01*
X125552381Y-112412890D02*
X125514285Y-112450985D01*
X125209524Y-112450985D02*
X125171428Y-112412890D01*
X125171428Y-112412890D02*
X125095238Y-112374795D01*
X125095238Y-112374795D02*
X124904762Y-112374795D01*
X124904762Y-112374795D02*
X124828571Y-112412890D01*
X124828571Y-112412890D02*
X124790476Y-112450985D01*
X124790476Y-112450985D02*
X124752381Y-112527176D01*
X124752381Y-112527176D02*
X124752381Y-112603366D01*
X124752381Y-112603366D02*
X124790476Y-112717652D01*
X124790476Y-112717652D02*
X125247619Y-113174795D01*
X125247619Y-113174795D02*
X124752381Y-113174795D01*
X124257142Y-112374795D02*
X124180952Y-112374795D01*
X124180952Y-112374795D02*
X124104761Y-112412890D01*
X124104761Y-112412890D02*
X124066666Y-112450985D01*
X124066666Y-112450985D02*
X124028571Y-112527176D01*
X124028571Y-112527176D02*
X123990476Y-112679557D01*
X123990476Y-112679557D02*
X123990476Y-112870033D01*
X123990476Y-112870033D02*
X124028571Y-113022414D01*
X124028571Y-113022414D02*
X124066666Y-113098604D01*
X124066666Y-113098604D02*
X124104761Y-113136700D01*
X124104761Y-113136700D02*
X124180952Y-113174795D01*
X124180952Y-113174795D02*
X124257142Y-113174795D01*
X124257142Y-113174795D02*
X124333333Y-113136700D01*
X124333333Y-113136700D02*
X124371428Y-113098604D01*
X124371428Y-113098604D02*
X124409523Y-113022414D01*
X124409523Y-113022414D02*
X124447619Y-112870033D01*
X124447619Y-112870033D02*
X124447619Y-112679557D01*
X124447619Y-112679557D02*
X124409523Y-112527176D01*
X124409523Y-112527176D02*
X124371428Y-112450985D01*
X124371428Y-112450985D02*
X124333333Y-112412890D01*
X124333333Y-112412890D02*
X124257142Y-112374795D01*
X111842857Y-63979819D02*
X112176190Y-63503628D01*
X112414285Y-63979819D02*
X112414285Y-62979819D01*
X112414285Y-62979819D02*
X112033333Y-62979819D01*
X112033333Y-62979819D02*
X111938095Y-63027438D01*
X111938095Y-63027438D02*
X111890476Y-63075057D01*
X111890476Y-63075057D02*
X111842857Y-63170295D01*
X111842857Y-63170295D02*
X111842857Y-63313152D01*
X111842857Y-63313152D02*
X111890476Y-63408390D01*
X111890476Y-63408390D02*
X111938095Y-63456009D01*
X111938095Y-63456009D02*
X112033333Y-63503628D01*
X112033333Y-63503628D02*
X112414285Y-63503628D01*
X110890476Y-63979819D02*
X111461904Y-63979819D01*
X111176190Y-63979819D02*
X111176190Y-62979819D01*
X111176190Y-62979819D02*
X111271428Y-63122676D01*
X111271428Y-63122676D02*
X111366666Y-63217914D01*
X111366666Y-63217914D02*
X111461904Y-63265533D01*
X110509523Y-63075057D02*
X110461904Y-63027438D01*
X110461904Y-63027438D02*
X110366666Y-62979819D01*
X110366666Y-62979819D02*
X110128571Y-62979819D01*
X110128571Y-62979819D02*
X110033333Y-63027438D01*
X110033333Y-63027438D02*
X109985714Y-63075057D01*
X109985714Y-63075057D02*
X109938095Y-63170295D01*
X109938095Y-63170295D02*
X109938095Y-63265533D01*
X109938095Y-63265533D02*
X109985714Y-63408390D01*
X109985714Y-63408390D02*
X110557142Y-63979819D01*
X110557142Y-63979819D02*
X109938095Y-63979819D01*
X158827857Y-66754819D02*
X159161190Y-66278628D01*
X159399285Y-66754819D02*
X159399285Y-65754819D01*
X159399285Y-65754819D02*
X159018333Y-65754819D01*
X159018333Y-65754819D02*
X158923095Y-65802438D01*
X158923095Y-65802438D02*
X158875476Y-65850057D01*
X158875476Y-65850057D02*
X158827857Y-65945295D01*
X158827857Y-65945295D02*
X158827857Y-66088152D01*
X158827857Y-66088152D02*
X158875476Y-66183390D01*
X158875476Y-66183390D02*
X158923095Y-66231009D01*
X158923095Y-66231009D02*
X159018333Y-66278628D01*
X159018333Y-66278628D02*
X159399285Y-66278628D01*
X158446904Y-65850057D02*
X158399285Y-65802438D01*
X158399285Y-65802438D02*
X158304047Y-65754819D01*
X158304047Y-65754819D02*
X158065952Y-65754819D01*
X158065952Y-65754819D02*
X157970714Y-65802438D01*
X157970714Y-65802438D02*
X157923095Y-65850057D01*
X157923095Y-65850057D02*
X157875476Y-65945295D01*
X157875476Y-65945295D02*
X157875476Y-66040533D01*
X157875476Y-66040533D02*
X157923095Y-66183390D01*
X157923095Y-66183390D02*
X158494523Y-66754819D01*
X158494523Y-66754819D02*
X157875476Y-66754819D01*
X157542142Y-65754819D02*
X156923095Y-65754819D01*
X156923095Y-65754819D02*
X157256428Y-66135771D01*
X157256428Y-66135771D02*
X157113571Y-66135771D01*
X157113571Y-66135771D02*
X157018333Y-66183390D01*
X157018333Y-66183390D02*
X156970714Y-66231009D01*
X156970714Y-66231009D02*
X156923095Y-66326247D01*
X156923095Y-66326247D02*
X156923095Y-66564342D01*
X156923095Y-66564342D02*
X156970714Y-66659580D01*
X156970714Y-66659580D02*
X157018333Y-66707200D01*
X157018333Y-66707200D02*
X157113571Y-66754819D01*
X157113571Y-66754819D02*
X157399285Y-66754819D01*
X157399285Y-66754819D02*
X157494523Y-66707200D01*
X157494523Y-66707200D02*
X157542142Y-66659580D01*
X137161104Y-124635714D02*
X137199200Y-124597618D01*
X137199200Y-124597618D02*
X137237295Y-124483333D01*
X137237295Y-124483333D02*
X137237295Y-124407142D01*
X137237295Y-124407142D02*
X137199200Y-124292856D01*
X137199200Y-124292856D02*
X137123009Y-124216666D01*
X137123009Y-124216666D02*
X137046819Y-124178571D01*
X137046819Y-124178571D02*
X136894438Y-124140475D01*
X136894438Y-124140475D02*
X136780152Y-124140475D01*
X136780152Y-124140475D02*
X136627771Y-124178571D01*
X136627771Y-124178571D02*
X136551580Y-124216666D01*
X136551580Y-124216666D02*
X136475390Y-124292856D01*
X136475390Y-124292856D02*
X136437295Y-124407142D01*
X136437295Y-124407142D02*
X136437295Y-124483333D01*
X136437295Y-124483333D02*
X136475390Y-124597618D01*
X136475390Y-124597618D02*
X136513485Y-124635714D01*
X137237295Y-125397618D02*
X137237295Y-124940475D01*
X137237295Y-125169047D02*
X136437295Y-125169047D01*
X136437295Y-125169047D02*
X136551580Y-125092856D01*
X136551580Y-125092856D02*
X136627771Y-125016666D01*
X136627771Y-125016666D02*
X136665866Y-124940475D01*
X136437295Y-125892857D02*
X136437295Y-125969047D01*
X136437295Y-125969047D02*
X136475390Y-126045238D01*
X136475390Y-126045238D02*
X136513485Y-126083333D01*
X136513485Y-126083333D02*
X136589676Y-126121428D01*
X136589676Y-126121428D02*
X136742057Y-126159523D01*
X136742057Y-126159523D02*
X136932533Y-126159523D01*
X136932533Y-126159523D02*
X137084914Y-126121428D01*
X137084914Y-126121428D02*
X137161104Y-126083333D01*
X137161104Y-126083333D02*
X137199200Y-126045238D01*
X137199200Y-126045238D02*
X137237295Y-125969047D01*
X137237295Y-125969047D02*
X137237295Y-125892857D01*
X137237295Y-125892857D02*
X137199200Y-125816666D01*
X137199200Y-125816666D02*
X137161104Y-125778571D01*
X137161104Y-125778571D02*
X137084914Y-125740476D01*
X137084914Y-125740476D02*
X136932533Y-125702380D01*
X136932533Y-125702380D02*
X136742057Y-125702380D01*
X136742057Y-125702380D02*
X136589676Y-125740476D01*
X136589676Y-125740476D02*
X136513485Y-125778571D01*
X136513485Y-125778571D02*
X136475390Y-125816666D01*
X136475390Y-125816666D02*
X136437295Y-125892857D01*
X142624819Y-103033333D02*
X142624819Y-102557143D01*
X142624819Y-102557143D02*
X141624819Y-102557143D01*
X141720057Y-103319048D02*
X141672438Y-103366667D01*
X141672438Y-103366667D02*
X141624819Y-103461905D01*
X141624819Y-103461905D02*
X141624819Y-103700000D01*
X141624819Y-103700000D02*
X141672438Y-103795238D01*
X141672438Y-103795238D02*
X141720057Y-103842857D01*
X141720057Y-103842857D02*
X141815295Y-103890476D01*
X141815295Y-103890476D02*
X141910533Y-103890476D01*
X141910533Y-103890476D02*
X142053390Y-103842857D01*
X142053390Y-103842857D02*
X142624819Y-103271429D01*
X142624819Y-103271429D02*
X142624819Y-103890476D01*
X151622514Y-62468216D02*
X151893447Y-62081169D01*
X152086971Y-62468216D02*
X152086971Y-61655416D01*
X152086971Y-61655416D02*
X151777333Y-61655416D01*
X151777333Y-61655416D02*
X151699923Y-61694121D01*
X151699923Y-61694121D02*
X151661218Y-61732826D01*
X151661218Y-61732826D02*
X151622514Y-61810235D01*
X151622514Y-61810235D02*
X151622514Y-61926350D01*
X151622514Y-61926350D02*
X151661218Y-62003759D01*
X151661218Y-62003759D02*
X151699923Y-62042464D01*
X151699923Y-62042464D02*
X151777333Y-62081169D01*
X151777333Y-62081169D02*
X152086971Y-62081169D01*
X151312875Y-61732826D02*
X151274171Y-61694121D01*
X151274171Y-61694121D02*
X151196761Y-61655416D01*
X151196761Y-61655416D02*
X151003237Y-61655416D01*
X151003237Y-61655416D02*
X150925828Y-61694121D01*
X150925828Y-61694121D02*
X150887123Y-61732826D01*
X150887123Y-61732826D02*
X150848418Y-61810235D01*
X150848418Y-61810235D02*
X150848418Y-61887645D01*
X150848418Y-61887645D02*
X150887123Y-62003759D01*
X150887123Y-62003759D02*
X151351580Y-62468216D01*
X151351580Y-62468216D02*
X150848418Y-62468216D01*
X150113028Y-61655416D02*
X150500076Y-61655416D01*
X150500076Y-61655416D02*
X150538780Y-62042464D01*
X150538780Y-62042464D02*
X150500076Y-62003759D01*
X150500076Y-62003759D02*
X150422666Y-61965054D01*
X150422666Y-61965054D02*
X150229142Y-61965054D01*
X150229142Y-61965054D02*
X150151733Y-62003759D01*
X150151733Y-62003759D02*
X150113028Y-62042464D01*
X150113028Y-62042464D02*
X150074323Y-62119873D01*
X150074323Y-62119873D02*
X150074323Y-62313397D01*
X150074323Y-62313397D02*
X150113028Y-62390807D01*
X150113028Y-62390807D02*
X150151733Y-62429512D01*
X150151733Y-62429512D02*
X150229142Y-62468216D01*
X150229142Y-62468216D02*
X150422666Y-62468216D01*
X150422666Y-62468216D02*
X150500076Y-62429512D01*
X150500076Y-62429512D02*
X150538780Y-62390807D01*
X147233354Y-97654786D02*
X147233354Y-98369116D01*
X147233354Y-98369116D02*
X147280976Y-98511982D01*
X147280976Y-98511982D02*
X147376220Y-98607227D01*
X147376220Y-98607227D02*
X147519086Y-98654849D01*
X147519086Y-98654849D02*
X147614330Y-98654849D01*
X146804755Y-97750030D02*
X146757133Y-97702408D01*
X146757133Y-97702408D02*
X146661889Y-97654786D01*
X146661889Y-97654786D02*
X146423779Y-97654786D01*
X146423779Y-97654786D02*
X146328535Y-97702408D01*
X146328535Y-97702408D02*
X146280913Y-97750030D01*
X146280913Y-97750030D02*
X146233291Y-97845274D01*
X146233291Y-97845274D02*
X146233291Y-97940518D01*
X146233291Y-97940518D02*
X146280913Y-98083384D01*
X146280913Y-98083384D02*
X146852377Y-98654849D01*
X146852377Y-98654849D02*
X146233291Y-98654849D01*
X148033354Y-101054786D02*
X148033354Y-101769116D01*
X148033354Y-101769116D02*
X148080976Y-101911982D01*
X148080976Y-101911982D02*
X148176220Y-102007227D01*
X148176220Y-102007227D02*
X148319086Y-102054849D01*
X148319086Y-102054849D02*
X148414330Y-102054849D01*
X147652377Y-101054786D02*
X147033291Y-101054786D01*
X147033291Y-101054786D02*
X147366645Y-101435762D01*
X147366645Y-101435762D02*
X147223779Y-101435762D01*
X147223779Y-101435762D02*
X147128535Y-101483384D01*
X147128535Y-101483384D02*
X147080913Y-101531006D01*
X147080913Y-101531006D02*
X147033291Y-101626250D01*
X147033291Y-101626250D02*
X147033291Y-101864360D01*
X147033291Y-101864360D02*
X147080913Y-101959604D01*
X147080913Y-101959604D02*
X147128535Y-102007227D01*
X147128535Y-102007227D02*
X147223779Y-102054849D01*
X147223779Y-102054849D02*
X147509511Y-102054849D01*
X147509511Y-102054849D02*
X147604755Y-102007227D01*
X147604755Y-102007227D02*
X147652377Y-101959604D01*
X147183354Y-115654786D02*
X147183354Y-116369116D01*
X147183354Y-116369116D02*
X147230976Y-116511982D01*
X147230976Y-116511982D02*
X147326220Y-116607227D01*
X147326220Y-116607227D02*
X147469086Y-116654849D01*
X147469086Y-116654849D02*
X147564330Y-116654849D01*
X146278535Y-115988140D02*
X146278535Y-116654849D01*
X146516645Y-115607164D02*
X146754755Y-116321494D01*
X146754755Y-116321494D02*
X146135669Y-116321494D01*
X127114285Y-52194819D02*
X127114285Y-51194819D01*
X127114285Y-51194819D02*
X126780952Y-51909104D01*
X126780952Y-51909104D02*
X126447619Y-51194819D01*
X126447619Y-51194819D02*
X126447619Y-52194819D01*
X126019047Y-51909104D02*
X125542857Y-51909104D01*
X126114285Y-52194819D02*
X125780952Y-51194819D01*
X125780952Y-51194819D02*
X125447619Y-52194819D01*
X125209523Y-51194819D02*
X124542857Y-52194819D01*
X124542857Y-51194819D02*
X125209523Y-52194819D01*
X123638095Y-52194819D02*
X124209523Y-52194819D01*
X123923809Y-52194819D02*
X123923809Y-51194819D01*
X123923809Y-51194819D02*
X124019047Y-51337676D01*
X124019047Y-51337676D02*
X124114285Y-51432914D01*
X124114285Y-51432914D02*
X124209523Y-51480533D01*
X135014285Y-113649795D02*
X135280952Y-113268842D01*
X135471428Y-113649795D02*
X135471428Y-112849795D01*
X135471428Y-112849795D02*
X135166666Y-112849795D01*
X135166666Y-112849795D02*
X135090476Y-112887890D01*
X135090476Y-112887890D02*
X135052381Y-112925985D01*
X135052381Y-112925985D02*
X135014285Y-113002176D01*
X135014285Y-113002176D02*
X135014285Y-113116461D01*
X135014285Y-113116461D02*
X135052381Y-113192652D01*
X135052381Y-113192652D02*
X135090476Y-113230747D01*
X135090476Y-113230747D02*
X135166666Y-113268842D01*
X135166666Y-113268842D02*
X135471428Y-113268842D01*
X134709524Y-112925985D02*
X134671428Y-112887890D01*
X134671428Y-112887890D02*
X134595238Y-112849795D01*
X134595238Y-112849795D02*
X134404762Y-112849795D01*
X134404762Y-112849795D02*
X134328571Y-112887890D01*
X134328571Y-112887890D02*
X134290476Y-112925985D01*
X134290476Y-112925985D02*
X134252381Y-113002176D01*
X134252381Y-113002176D02*
X134252381Y-113078366D01*
X134252381Y-113078366D02*
X134290476Y-113192652D01*
X134290476Y-113192652D02*
X134747619Y-113649795D01*
X134747619Y-113649795D02*
X134252381Y-113649795D01*
X133757142Y-112849795D02*
X133680952Y-112849795D01*
X133680952Y-112849795D02*
X133604761Y-112887890D01*
X133604761Y-112887890D02*
X133566666Y-112925985D01*
X133566666Y-112925985D02*
X133528571Y-113002176D01*
X133528571Y-113002176D02*
X133490476Y-113154557D01*
X133490476Y-113154557D02*
X133490476Y-113345033D01*
X133490476Y-113345033D02*
X133528571Y-113497414D01*
X133528571Y-113497414D02*
X133566666Y-113573604D01*
X133566666Y-113573604D02*
X133604761Y-113611700D01*
X133604761Y-113611700D02*
X133680952Y-113649795D01*
X133680952Y-113649795D02*
X133757142Y-113649795D01*
X133757142Y-113649795D02*
X133833333Y-113611700D01*
X133833333Y-113611700D02*
X133871428Y-113573604D01*
X133871428Y-113573604D02*
X133909523Y-113497414D01*
X133909523Y-113497414D02*
X133947619Y-113345033D01*
X133947619Y-113345033D02*
X133947619Y-113154557D01*
X133947619Y-113154557D02*
X133909523Y-113002176D01*
X133909523Y-113002176D02*
X133871428Y-112925985D01*
X133871428Y-112925985D02*
X133833333Y-112887890D01*
X133833333Y-112887890D02*
X133757142Y-112849795D01*
X147314285Y-92586104D02*
X147352381Y-92624200D01*
X147352381Y-92624200D02*
X147466666Y-92662295D01*
X147466666Y-92662295D02*
X147542857Y-92662295D01*
X147542857Y-92662295D02*
X147657143Y-92624200D01*
X147657143Y-92624200D02*
X147733333Y-92548009D01*
X147733333Y-92548009D02*
X147771428Y-92471819D01*
X147771428Y-92471819D02*
X147809524Y-92319438D01*
X147809524Y-92319438D02*
X147809524Y-92205152D01*
X147809524Y-92205152D02*
X147771428Y-92052771D01*
X147771428Y-92052771D02*
X147733333Y-91976580D01*
X147733333Y-91976580D02*
X147657143Y-91900390D01*
X147657143Y-91900390D02*
X147542857Y-91862295D01*
X147542857Y-91862295D02*
X147466666Y-91862295D01*
X147466666Y-91862295D02*
X147352381Y-91900390D01*
X147352381Y-91900390D02*
X147314285Y-91938485D01*
X146552381Y-92662295D02*
X147009524Y-92662295D01*
X146780952Y-92662295D02*
X146780952Y-91862295D01*
X146780952Y-91862295D02*
X146857143Y-91976580D01*
X146857143Y-91976580D02*
X146933333Y-92052771D01*
X146933333Y-92052771D02*
X147009524Y-92090866D01*
X146285714Y-91862295D02*
X145752380Y-91862295D01*
X145752380Y-91862295D02*
X146095238Y-92662295D01*
X138099999Y-85254819D02*
X138099999Y-84254819D01*
X138099999Y-84254819D02*
X137861904Y-84254819D01*
X137861904Y-84254819D02*
X137719047Y-84302438D01*
X137719047Y-84302438D02*
X137623809Y-84397676D01*
X137623809Y-84397676D02*
X137576190Y-84492914D01*
X137576190Y-84492914D02*
X137528571Y-84683390D01*
X137528571Y-84683390D02*
X137528571Y-84826247D01*
X137528571Y-84826247D02*
X137576190Y-85016723D01*
X137576190Y-85016723D02*
X137623809Y-85111961D01*
X137623809Y-85111961D02*
X137719047Y-85207200D01*
X137719047Y-85207200D02*
X137861904Y-85254819D01*
X137861904Y-85254819D02*
X138099999Y-85254819D01*
X137099999Y-85254819D02*
X137099999Y-84254819D01*
X136433333Y-84254819D02*
X136242857Y-84254819D01*
X136242857Y-84254819D02*
X136147619Y-84302438D01*
X136147619Y-84302438D02*
X136052381Y-84397676D01*
X136052381Y-84397676D02*
X136004762Y-84588152D01*
X136004762Y-84588152D02*
X136004762Y-84921485D01*
X136004762Y-84921485D02*
X136052381Y-85111961D01*
X136052381Y-85111961D02*
X136147619Y-85207200D01*
X136147619Y-85207200D02*
X136242857Y-85254819D01*
X136242857Y-85254819D02*
X136433333Y-85254819D01*
X136433333Y-85254819D02*
X136528571Y-85207200D01*
X136528571Y-85207200D02*
X136623809Y-85111961D01*
X136623809Y-85111961D02*
X136671428Y-84921485D01*
X136671428Y-84921485D02*
X136671428Y-84588152D01*
X136671428Y-84588152D02*
X136623809Y-84397676D01*
X136623809Y-84397676D02*
X136528571Y-84302438D01*
X136528571Y-84302438D02*
X136433333Y-84254819D01*
X135052381Y-85254819D02*
X135623809Y-85254819D01*
X135338095Y-85254819D02*
X135338095Y-84254819D01*
X135338095Y-84254819D02*
X135433333Y-84397676D01*
X135433333Y-84397676D02*
X135528571Y-84492914D01*
X135528571Y-84492914D02*
X135623809Y-84540533D01*
X145135466Y-86453307D02*
X145174170Y-86492012D01*
X145174170Y-86492012D02*
X145290285Y-86530716D01*
X145290285Y-86530716D02*
X145367694Y-86530716D01*
X145367694Y-86530716D02*
X145483808Y-86492012D01*
X145483808Y-86492012D02*
X145561218Y-86414602D01*
X145561218Y-86414602D02*
X145599923Y-86337192D01*
X145599923Y-86337192D02*
X145638627Y-86182373D01*
X145638627Y-86182373D02*
X145638627Y-86066259D01*
X145638627Y-86066259D02*
X145599923Y-85911440D01*
X145599923Y-85911440D02*
X145561218Y-85834031D01*
X145561218Y-85834031D02*
X145483808Y-85756621D01*
X145483808Y-85756621D02*
X145367694Y-85717916D01*
X145367694Y-85717916D02*
X145290285Y-85717916D01*
X145290285Y-85717916D02*
X145174170Y-85756621D01*
X145174170Y-85756621D02*
X145135466Y-85795326D01*
X144748418Y-86530716D02*
X144593599Y-86530716D01*
X144593599Y-86530716D02*
X144516189Y-86492012D01*
X144516189Y-86492012D02*
X144477485Y-86453307D01*
X144477485Y-86453307D02*
X144400075Y-86337192D01*
X144400075Y-86337192D02*
X144361370Y-86182373D01*
X144361370Y-86182373D02*
X144361370Y-85872735D01*
X144361370Y-85872735D02*
X144400075Y-85795326D01*
X144400075Y-85795326D02*
X144438780Y-85756621D01*
X144438780Y-85756621D02*
X144516189Y-85717916D01*
X144516189Y-85717916D02*
X144671008Y-85717916D01*
X144671008Y-85717916D02*
X144748418Y-85756621D01*
X144748418Y-85756621D02*
X144787123Y-85795326D01*
X144787123Y-85795326D02*
X144825827Y-85872735D01*
X144825827Y-85872735D02*
X144825827Y-86066259D01*
X144825827Y-86066259D02*
X144787123Y-86143669D01*
X144787123Y-86143669D02*
X144748418Y-86182373D01*
X144748418Y-86182373D02*
X144671008Y-86221078D01*
X144671008Y-86221078D02*
X144516189Y-86221078D01*
X144516189Y-86221078D02*
X144438780Y-86182373D01*
X144438780Y-86182373D02*
X144400075Y-86143669D01*
X144400075Y-86143669D02*
X144361370Y-86066259D01*
X140280357Y-90574819D02*
X140613690Y-90098628D01*
X140851785Y-90574819D02*
X140851785Y-89574819D01*
X140851785Y-89574819D02*
X140470833Y-89574819D01*
X140470833Y-89574819D02*
X140375595Y-89622438D01*
X140375595Y-89622438D02*
X140327976Y-89670057D01*
X140327976Y-89670057D02*
X140280357Y-89765295D01*
X140280357Y-89765295D02*
X140280357Y-89908152D01*
X140280357Y-89908152D02*
X140327976Y-90003390D01*
X140327976Y-90003390D02*
X140375595Y-90051009D01*
X140375595Y-90051009D02*
X140470833Y-90098628D01*
X140470833Y-90098628D02*
X140851785Y-90098628D01*
X139327976Y-90574819D02*
X139899404Y-90574819D01*
X139613690Y-90574819D02*
X139613690Y-89574819D01*
X139613690Y-89574819D02*
X139708928Y-89717676D01*
X139708928Y-89717676D02*
X139804166Y-89812914D01*
X139804166Y-89812914D02*
X139899404Y-89860533D01*
X138994642Y-89574819D02*
X138375595Y-89574819D01*
X138375595Y-89574819D02*
X138708928Y-89955771D01*
X138708928Y-89955771D02*
X138566071Y-89955771D01*
X138566071Y-89955771D02*
X138470833Y-90003390D01*
X138470833Y-90003390D02*
X138423214Y-90051009D01*
X138423214Y-90051009D02*
X138375595Y-90146247D01*
X138375595Y-90146247D02*
X138375595Y-90384342D01*
X138375595Y-90384342D02*
X138423214Y-90479580D01*
X138423214Y-90479580D02*
X138470833Y-90527200D01*
X138470833Y-90527200D02*
X138566071Y-90574819D01*
X138566071Y-90574819D02*
X138851785Y-90574819D01*
X138851785Y-90574819D02*
X138947023Y-90527200D01*
X138947023Y-90527200D02*
X138994642Y-90479580D01*
X136933333Y-77962295D02*
X137314285Y-77962295D01*
X137314285Y-77962295D02*
X137314285Y-77162295D01*
X136742857Y-77162295D02*
X136247619Y-77162295D01*
X136247619Y-77162295D02*
X136514285Y-77467057D01*
X136514285Y-77467057D02*
X136400000Y-77467057D01*
X136400000Y-77467057D02*
X136323809Y-77505152D01*
X136323809Y-77505152D02*
X136285714Y-77543247D01*
X136285714Y-77543247D02*
X136247619Y-77619438D01*
X136247619Y-77619438D02*
X136247619Y-77809914D01*
X136247619Y-77809914D02*
X136285714Y-77886104D01*
X136285714Y-77886104D02*
X136323809Y-77924200D01*
X136323809Y-77924200D02*
X136400000Y-77962295D01*
X136400000Y-77962295D02*
X136628571Y-77962295D01*
X136628571Y-77962295D02*
X136704762Y-77924200D01*
X136704762Y-77924200D02*
X136742857Y-77886104D01*
X138584285Y-113642295D02*
X138850952Y-113261342D01*
X139041428Y-113642295D02*
X139041428Y-112842295D01*
X139041428Y-112842295D02*
X138736666Y-112842295D01*
X138736666Y-112842295D02*
X138660476Y-112880390D01*
X138660476Y-112880390D02*
X138622381Y-112918485D01*
X138622381Y-112918485D02*
X138584285Y-112994676D01*
X138584285Y-112994676D02*
X138584285Y-113108961D01*
X138584285Y-113108961D02*
X138622381Y-113185152D01*
X138622381Y-113185152D02*
X138660476Y-113223247D01*
X138660476Y-113223247D02*
X138736666Y-113261342D01*
X138736666Y-113261342D02*
X139041428Y-113261342D01*
X137822381Y-113642295D02*
X138279524Y-113642295D01*
X138050952Y-113642295D02*
X138050952Y-112842295D01*
X138050952Y-112842295D02*
X138127143Y-112956580D01*
X138127143Y-112956580D02*
X138203333Y-113032771D01*
X138203333Y-113032771D02*
X138279524Y-113070866D01*
X137441428Y-113642295D02*
X137289047Y-113642295D01*
X137289047Y-113642295D02*
X137212857Y-113604200D01*
X137212857Y-113604200D02*
X137174761Y-113566104D01*
X137174761Y-113566104D02*
X137098571Y-113451819D01*
X137098571Y-113451819D02*
X137060476Y-113299438D01*
X137060476Y-113299438D02*
X137060476Y-112994676D01*
X137060476Y-112994676D02*
X137098571Y-112918485D01*
X137098571Y-112918485D02*
X137136666Y-112880390D01*
X137136666Y-112880390D02*
X137212857Y-112842295D01*
X137212857Y-112842295D02*
X137365238Y-112842295D01*
X137365238Y-112842295D02*
X137441428Y-112880390D01*
X137441428Y-112880390D02*
X137479523Y-112918485D01*
X137479523Y-112918485D02*
X137517619Y-112994676D01*
X137517619Y-112994676D02*
X137517619Y-113185152D01*
X137517619Y-113185152D02*
X137479523Y-113261342D01*
X137479523Y-113261342D02*
X137441428Y-113299438D01*
X137441428Y-113299438D02*
X137365238Y-113337533D01*
X137365238Y-113337533D02*
X137212857Y-113337533D01*
X137212857Y-113337533D02*
X137136666Y-113299438D01*
X137136666Y-113299438D02*
X137098571Y-113261342D01*
X137098571Y-113261342D02*
X137060476Y-113185152D01*
X147372966Y-86665807D02*
X147411670Y-86704512D01*
X147411670Y-86704512D02*
X147527785Y-86743216D01*
X147527785Y-86743216D02*
X147605194Y-86743216D01*
X147605194Y-86743216D02*
X147721308Y-86704512D01*
X147721308Y-86704512D02*
X147798718Y-86627102D01*
X147798718Y-86627102D02*
X147837423Y-86549692D01*
X147837423Y-86549692D02*
X147876127Y-86394873D01*
X147876127Y-86394873D02*
X147876127Y-86278759D01*
X147876127Y-86278759D02*
X147837423Y-86123940D01*
X147837423Y-86123940D02*
X147798718Y-86046531D01*
X147798718Y-86046531D02*
X147721308Y-85969121D01*
X147721308Y-85969121D02*
X147605194Y-85930416D01*
X147605194Y-85930416D02*
X147527785Y-85930416D01*
X147527785Y-85930416D02*
X147411670Y-85969121D01*
X147411670Y-85969121D02*
X147372966Y-86007826D01*
X146908508Y-86278759D02*
X146985918Y-86240054D01*
X146985918Y-86240054D02*
X147024623Y-86201350D01*
X147024623Y-86201350D02*
X147063327Y-86123940D01*
X147063327Y-86123940D02*
X147063327Y-86085235D01*
X147063327Y-86085235D02*
X147024623Y-86007826D01*
X147024623Y-86007826D02*
X146985918Y-85969121D01*
X146985918Y-85969121D02*
X146908508Y-85930416D01*
X146908508Y-85930416D02*
X146753689Y-85930416D01*
X146753689Y-85930416D02*
X146676280Y-85969121D01*
X146676280Y-85969121D02*
X146637575Y-86007826D01*
X146637575Y-86007826D02*
X146598870Y-86085235D01*
X146598870Y-86085235D02*
X146598870Y-86123940D01*
X146598870Y-86123940D02*
X146637575Y-86201350D01*
X146637575Y-86201350D02*
X146676280Y-86240054D01*
X146676280Y-86240054D02*
X146753689Y-86278759D01*
X146753689Y-86278759D02*
X146908508Y-86278759D01*
X146908508Y-86278759D02*
X146985918Y-86317464D01*
X146985918Y-86317464D02*
X147024623Y-86356169D01*
X147024623Y-86356169D02*
X147063327Y-86433578D01*
X147063327Y-86433578D02*
X147063327Y-86588397D01*
X147063327Y-86588397D02*
X147024623Y-86665807D01*
X147024623Y-86665807D02*
X146985918Y-86704512D01*
X146985918Y-86704512D02*
X146908508Y-86743216D01*
X146908508Y-86743216D02*
X146753689Y-86743216D01*
X146753689Y-86743216D02*
X146676280Y-86704512D01*
X146676280Y-86704512D02*
X146637575Y-86665807D01*
X146637575Y-86665807D02*
X146598870Y-86588397D01*
X146598870Y-86588397D02*
X146598870Y-86433578D01*
X146598870Y-86433578D02*
X146637575Y-86356169D01*
X146637575Y-86356169D02*
X146676280Y-86317464D01*
X146676280Y-86317464D02*
X146753689Y-86278759D01*
X129014285Y-112973604D02*
X129052381Y-113011700D01*
X129052381Y-113011700D02*
X129166666Y-113049795D01*
X129166666Y-113049795D02*
X129242857Y-113049795D01*
X129242857Y-113049795D02*
X129357143Y-113011700D01*
X129357143Y-113011700D02*
X129433333Y-112935509D01*
X129433333Y-112935509D02*
X129471428Y-112859319D01*
X129471428Y-112859319D02*
X129509524Y-112706938D01*
X129509524Y-112706938D02*
X129509524Y-112592652D01*
X129509524Y-112592652D02*
X129471428Y-112440271D01*
X129471428Y-112440271D02*
X129433333Y-112364080D01*
X129433333Y-112364080D02*
X129357143Y-112287890D01*
X129357143Y-112287890D02*
X129242857Y-112249795D01*
X129242857Y-112249795D02*
X129166666Y-112249795D01*
X129166666Y-112249795D02*
X129052381Y-112287890D01*
X129052381Y-112287890D02*
X129014285Y-112325985D01*
X128252381Y-113049795D02*
X128709524Y-113049795D01*
X128480952Y-113049795D02*
X128480952Y-112249795D01*
X128480952Y-112249795D02*
X128557143Y-112364080D01*
X128557143Y-112364080D02*
X128633333Y-112440271D01*
X128633333Y-112440271D02*
X128709524Y-112478366D01*
X127871428Y-113049795D02*
X127719047Y-113049795D01*
X127719047Y-113049795D02*
X127642857Y-113011700D01*
X127642857Y-113011700D02*
X127604761Y-112973604D01*
X127604761Y-112973604D02*
X127528571Y-112859319D01*
X127528571Y-112859319D02*
X127490476Y-112706938D01*
X127490476Y-112706938D02*
X127490476Y-112402176D01*
X127490476Y-112402176D02*
X127528571Y-112325985D01*
X127528571Y-112325985D02*
X127566666Y-112287890D01*
X127566666Y-112287890D02*
X127642857Y-112249795D01*
X127642857Y-112249795D02*
X127795238Y-112249795D01*
X127795238Y-112249795D02*
X127871428Y-112287890D01*
X127871428Y-112287890D02*
X127909523Y-112325985D01*
X127909523Y-112325985D02*
X127947619Y-112402176D01*
X127947619Y-112402176D02*
X127947619Y-112592652D01*
X127947619Y-112592652D02*
X127909523Y-112668842D01*
X127909523Y-112668842D02*
X127871428Y-112706938D01*
X127871428Y-112706938D02*
X127795238Y-112745033D01*
X127795238Y-112745033D02*
X127642857Y-112745033D01*
X127642857Y-112745033D02*
X127566666Y-112706938D01*
X127566666Y-112706938D02*
X127528571Y-112668842D01*
X127528571Y-112668842D02*
X127490476Y-112592652D01*
X136042857Y-51359580D02*
X136090476Y-51407200D01*
X136090476Y-51407200D02*
X136233333Y-51454819D01*
X136233333Y-51454819D02*
X136328571Y-51454819D01*
X136328571Y-51454819D02*
X136471428Y-51407200D01*
X136471428Y-51407200D02*
X136566666Y-51311961D01*
X136566666Y-51311961D02*
X136614285Y-51216723D01*
X136614285Y-51216723D02*
X136661904Y-51026247D01*
X136661904Y-51026247D02*
X136661904Y-50883390D01*
X136661904Y-50883390D02*
X136614285Y-50692914D01*
X136614285Y-50692914D02*
X136566666Y-50597676D01*
X136566666Y-50597676D02*
X136471428Y-50502438D01*
X136471428Y-50502438D02*
X136328571Y-50454819D01*
X136328571Y-50454819D02*
X136233333Y-50454819D01*
X136233333Y-50454819D02*
X136090476Y-50502438D01*
X136090476Y-50502438D02*
X136042857Y-50550057D01*
X135661904Y-50550057D02*
X135614285Y-50502438D01*
X135614285Y-50502438D02*
X135519047Y-50454819D01*
X135519047Y-50454819D02*
X135280952Y-50454819D01*
X135280952Y-50454819D02*
X135185714Y-50502438D01*
X135185714Y-50502438D02*
X135138095Y-50550057D01*
X135138095Y-50550057D02*
X135090476Y-50645295D01*
X135090476Y-50645295D02*
X135090476Y-50740533D01*
X135090476Y-50740533D02*
X135138095Y-50883390D01*
X135138095Y-50883390D02*
X135709523Y-51454819D01*
X135709523Y-51454819D02*
X135090476Y-51454819D01*
X134138095Y-51454819D02*
X134709523Y-51454819D01*
X134423809Y-51454819D02*
X134423809Y-50454819D01*
X134423809Y-50454819D02*
X134519047Y-50597676D01*
X134519047Y-50597676D02*
X134614285Y-50692914D01*
X134614285Y-50692914D02*
X134709523Y-50740533D01*
X136884428Y-118405895D02*
X136884428Y-117605895D01*
X136884428Y-117605895D02*
X136579666Y-117605895D01*
X136579666Y-117605895D02*
X136503476Y-117643990D01*
X136503476Y-117643990D02*
X136465381Y-117682085D01*
X136465381Y-117682085D02*
X136427285Y-117758276D01*
X136427285Y-117758276D02*
X136427285Y-117872561D01*
X136427285Y-117872561D02*
X136465381Y-117948752D01*
X136465381Y-117948752D02*
X136503476Y-117986847D01*
X136503476Y-117986847D02*
X136579666Y-118024942D01*
X136579666Y-118024942D02*
X136884428Y-118024942D01*
X136122524Y-118367800D02*
X136008238Y-118405895D01*
X136008238Y-118405895D02*
X135817762Y-118405895D01*
X135817762Y-118405895D02*
X135741571Y-118367800D01*
X135741571Y-118367800D02*
X135703476Y-118329704D01*
X135703476Y-118329704D02*
X135665381Y-118253514D01*
X135665381Y-118253514D02*
X135665381Y-118177323D01*
X135665381Y-118177323D02*
X135703476Y-118101133D01*
X135703476Y-118101133D02*
X135741571Y-118063038D01*
X135741571Y-118063038D02*
X135817762Y-118024942D01*
X135817762Y-118024942D02*
X135970143Y-117986847D01*
X135970143Y-117986847D02*
X136046333Y-117948752D01*
X136046333Y-117948752D02*
X136084428Y-117910657D01*
X136084428Y-117910657D02*
X136122524Y-117834466D01*
X136122524Y-117834466D02*
X136122524Y-117758276D01*
X136122524Y-117758276D02*
X136084428Y-117682085D01*
X136084428Y-117682085D02*
X136046333Y-117643990D01*
X136046333Y-117643990D02*
X135970143Y-117605895D01*
X135970143Y-117605895D02*
X135779666Y-117605895D01*
X135779666Y-117605895D02*
X135665381Y-117643990D01*
X135360619Y-117682085D02*
X135322523Y-117643990D01*
X135322523Y-117643990D02*
X135246333Y-117605895D01*
X135246333Y-117605895D02*
X135055857Y-117605895D01*
X135055857Y-117605895D02*
X134979666Y-117643990D01*
X134979666Y-117643990D02*
X134941571Y-117682085D01*
X134941571Y-117682085D02*
X134903476Y-117758276D01*
X134903476Y-117758276D02*
X134903476Y-117834466D01*
X134903476Y-117834466D02*
X134941571Y-117948752D01*
X134941571Y-117948752D02*
X135398714Y-118405895D01*
X135398714Y-118405895D02*
X134903476Y-118405895D01*
X141514285Y-52754819D02*
X141514285Y-51754819D01*
X141514285Y-51754819D02*
X141180952Y-52469104D01*
X141180952Y-52469104D02*
X140847619Y-51754819D01*
X140847619Y-51754819D02*
X140847619Y-52754819D01*
X140419047Y-52469104D02*
X139942857Y-52469104D01*
X140514285Y-52754819D02*
X140180952Y-51754819D01*
X140180952Y-51754819D02*
X139847619Y-52754819D01*
X139609523Y-51754819D02*
X138942857Y-52754819D01*
X138942857Y-51754819D02*
X139609523Y-52754819D01*
X138609523Y-51850057D02*
X138561904Y-51802438D01*
X138561904Y-51802438D02*
X138466666Y-51754819D01*
X138466666Y-51754819D02*
X138228571Y-51754819D01*
X138228571Y-51754819D02*
X138133333Y-51802438D01*
X138133333Y-51802438D02*
X138085714Y-51850057D01*
X138085714Y-51850057D02*
X138038095Y-51945295D01*
X138038095Y-51945295D02*
X138038095Y-52040533D01*
X138038095Y-52040533D02*
X138085714Y-52183390D01*
X138085714Y-52183390D02*
X138657142Y-52754819D01*
X138657142Y-52754819D02*
X138038095Y-52754819D01*
X132392857Y-66454819D02*
X132726190Y-65978628D01*
X132964285Y-66454819D02*
X132964285Y-65454819D01*
X132964285Y-65454819D02*
X132583333Y-65454819D01*
X132583333Y-65454819D02*
X132488095Y-65502438D01*
X132488095Y-65502438D02*
X132440476Y-65550057D01*
X132440476Y-65550057D02*
X132392857Y-65645295D01*
X132392857Y-65645295D02*
X132392857Y-65788152D01*
X132392857Y-65788152D02*
X132440476Y-65883390D01*
X132440476Y-65883390D02*
X132488095Y-65931009D01*
X132488095Y-65931009D02*
X132583333Y-65978628D01*
X132583333Y-65978628D02*
X132964285Y-65978628D01*
X132011904Y-65550057D02*
X131964285Y-65502438D01*
X131964285Y-65502438D02*
X131869047Y-65454819D01*
X131869047Y-65454819D02*
X131630952Y-65454819D01*
X131630952Y-65454819D02*
X131535714Y-65502438D01*
X131535714Y-65502438D02*
X131488095Y-65550057D01*
X131488095Y-65550057D02*
X131440476Y-65645295D01*
X131440476Y-65645295D02*
X131440476Y-65740533D01*
X131440476Y-65740533D02*
X131488095Y-65883390D01*
X131488095Y-65883390D02*
X132059523Y-66454819D01*
X132059523Y-66454819D02*
X131440476Y-66454819D01*
X130583333Y-65788152D02*
X130583333Y-66454819D01*
X130821428Y-65407200D02*
X131059523Y-66121485D01*
X131059523Y-66121485D02*
X130440476Y-66121485D01*
X147183354Y-129204786D02*
X147183354Y-129919116D01*
X147183354Y-129919116D02*
X147230976Y-130061982D01*
X147230976Y-130061982D02*
X147326220Y-130157227D01*
X147326220Y-130157227D02*
X147469086Y-130204849D01*
X147469086Y-130204849D02*
X147564330Y-130204849D01*
X146230913Y-129204786D02*
X146707133Y-129204786D01*
X146707133Y-129204786D02*
X146754755Y-129681006D01*
X146754755Y-129681006D02*
X146707133Y-129633384D01*
X146707133Y-129633384D02*
X146611889Y-129585762D01*
X146611889Y-129585762D02*
X146373779Y-129585762D01*
X146373779Y-129585762D02*
X146278535Y-129633384D01*
X146278535Y-129633384D02*
X146230913Y-129681006D01*
X146230913Y-129681006D02*
X146183291Y-129776250D01*
X146183291Y-129776250D02*
X146183291Y-130014360D01*
X146183291Y-130014360D02*
X146230913Y-130109604D01*
X146230913Y-130109604D02*
X146278535Y-130157227D01*
X146278535Y-130157227D02*
X146373779Y-130204849D01*
X146373779Y-130204849D02*
X146611889Y-130204849D01*
X146611889Y-130204849D02*
X146707133Y-130157227D01*
X146707133Y-130157227D02*
X146754755Y-130109604D01*
X137024819Y-86169642D02*
X136548628Y-85836309D01*
X137024819Y-85598214D02*
X136024819Y-85598214D01*
X136024819Y-85598214D02*
X136024819Y-85979166D01*
X136024819Y-85979166D02*
X136072438Y-86074404D01*
X136072438Y-86074404D02*
X136120057Y-86122023D01*
X136120057Y-86122023D02*
X136215295Y-86169642D01*
X136215295Y-86169642D02*
X136358152Y-86169642D01*
X136358152Y-86169642D02*
X136453390Y-86122023D01*
X136453390Y-86122023D02*
X136501009Y-86074404D01*
X136501009Y-86074404D02*
X136548628Y-85979166D01*
X136548628Y-85979166D02*
X136548628Y-85598214D01*
X137024819Y-87122023D02*
X137024819Y-86550595D01*
X137024819Y-86836309D02*
X136024819Y-86836309D01*
X136024819Y-86836309D02*
X136167676Y-86741071D01*
X136167676Y-86741071D02*
X136262914Y-86645833D01*
X136262914Y-86645833D02*
X136310533Y-86550595D01*
X136024819Y-87979166D02*
X136024819Y-87788690D01*
X136024819Y-87788690D02*
X136072438Y-87693452D01*
X136072438Y-87693452D02*
X136120057Y-87645833D01*
X136120057Y-87645833D02*
X136262914Y-87550595D01*
X136262914Y-87550595D02*
X136453390Y-87502976D01*
X136453390Y-87502976D02*
X136834342Y-87502976D01*
X136834342Y-87502976D02*
X136929580Y-87550595D01*
X136929580Y-87550595D02*
X136977200Y-87598214D01*
X136977200Y-87598214D02*
X137024819Y-87693452D01*
X137024819Y-87693452D02*
X137024819Y-87883928D01*
X137024819Y-87883928D02*
X136977200Y-87979166D01*
X136977200Y-87979166D02*
X136929580Y-88026785D01*
X136929580Y-88026785D02*
X136834342Y-88074404D01*
X136834342Y-88074404D02*
X136596247Y-88074404D01*
X136596247Y-88074404D02*
X136501009Y-88026785D01*
X136501009Y-88026785D02*
X136453390Y-87979166D01*
X136453390Y-87979166D02*
X136405771Y-87883928D01*
X136405771Y-87883928D02*
X136405771Y-87693452D01*
X136405771Y-87693452D02*
X136453390Y-87598214D01*
X136453390Y-87598214D02*
X136501009Y-87550595D01*
X136501009Y-87550595D02*
X136596247Y-87502976D01*
X126822514Y-59990807D02*
X126861218Y-60029512D01*
X126861218Y-60029512D02*
X126977333Y-60068216D01*
X126977333Y-60068216D02*
X127054742Y-60068216D01*
X127054742Y-60068216D02*
X127170856Y-60029512D01*
X127170856Y-60029512D02*
X127248266Y-59952102D01*
X127248266Y-59952102D02*
X127286971Y-59874692D01*
X127286971Y-59874692D02*
X127325675Y-59719873D01*
X127325675Y-59719873D02*
X127325675Y-59603759D01*
X127325675Y-59603759D02*
X127286971Y-59448940D01*
X127286971Y-59448940D02*
X127248266Y-59371531D01*
X127248266Y-59371531D02*
X127170856Y-59294121D01*
X127170856Y-59294121D02*
X127054742Y-59255416D01*
X127054742Y-59255416D02*
X126977333Y-59255416D01*
X126977333Y-59255416D02*
X126861218Y-59294121D01*
X126861218Y-59294121D02*
X126822514Y-59332826D01*
X126551580Y-59255416D02*
X126048418Y-59255416D01*
X126048418Y-59255416D02*
X126319352Y-59565054D01*
X126319352Y-59565054D02*
X126203237Y-59565054D01*
X126203237Y-59565054D02*
X126125828Y-59603759D01*
X126125828Y-59603759D02*
X126087123Y-59642464D01*
X126087123Y-59642464D02*
X126048418Y-59719873D01*
X126048418Y-59719873D02*
X126048418Y-59913397D01*
X126048418Y-59913397D02*
X126087123Y-59990807D01*
X126087123Y-59990807D02*
X126125828Y-60029512D01*
X126125828Y-60029512D02*
X126203237Y-60068216D01*
X126203237Y-60068216D02*
X126435466Y-60068216D01*
X126435466Y-60068216D02*
X126512875Y-60029512D01*
X126512875Y-60029512D02*
X126551580Y-59990807D01*
X125351733Y-59526350D02*
X125351733Y-60068216D01*
X125545257Y-59216712D02*
X125738780Y-59797283D01*
X125738780Y-59797283D02*
X125235619Y-59797283D01*
X119042857Y-65059580D02*
X119090476Y-65107200D01*
X119090476Y-65107200D02*
X119233333Y-65154819D01*
X119233333Y-65154819D02*
X119328571Y-65154819D01*
X119328571Y-65154819D02*
X119471428Y-65107200D01*
X119471428Y-65107200D02*
X119566666Y-65011961D01*
X119566666Y-65011961D02*
X119614285Y-64916723D01*
X119614285Y-64916723D02*
X119661904Y-64726247D01*
X119661904Y-64726247D02*
X119661904Y-64583390D01*
X119661904Y-64583390D02*
X119614285Y-64392914D01*
X119614285Y-64392914D02*
X119566666Y-64297676D01*
X119566666Y-64297676D02*
X119471428Y-64202438D01*
X119471428Y-64202438D02*
X119328571Y-64154819D01*
X119328571Y-64154819D02*
X119233333Y-64154819D01*
X119233333Y-64154819D02*
X119090476Y-64202438D01*
X119090476Y-64202438D02*
X119042857Y-64250057D01*
X118661904Y-64250057D02*
X118614285Y-64202438D01*
X118614285Y-64202438D02*
X118519047Y-64154819D01*
X118519047Y-64154819D02*
X118280952Y-64154819D01*
X118280952Y-64154819D02*
X118185714Y-64202438D01*
X118185714Y-64202438D02*
X118138095Y-64250057D01*
X118138095Y-64250057D02*
X118090476Y-64345295D01*
X118090476Y-64345295D02*
X118090476Y-64440533D01*
X118090476Y-64440533D02*
X118138095Y-64583390D01*
X118138095Y-64583390D02*
X118709523Y-65154819D01*
X118709523Y-65154819D02*
X118090476Y-65154819D01*
X117233333Y-64488152D02*
X117233333Y-65154819D01*
X117471428Y-64107200D02*
X117709523Y-64821485D01*
X117709523Y-64821485D02*
X117090476Y-64821485D01*
X147333354Y-83054786D02*
X147333354Y-83769116D01*
X147333354Y-83769116D02*
X147380976Y-83911982D01*
X147380976Y-83911982D02*
X147476220Y-84007227D01*
X147476220Y-84007227D02*
X147619086Y-84054849D01*
X147619086Y-84054849D02*
X147714330Y-84054849D01*
X146333291Y-84054849D02*
X146904755Y-84054849D01*
X146619023Y-84054849D02*
X146619023Y-83054786D01*
X146619023Y-83054786D02*
X146714267Y-83197652D01*
X146714267Y-83197652D02*
X146809511Y-83292896D01*
X146809511Y-83292896D02*
X146904755Y-83340518D01*
X142442857Y-50659580D02*
X142490476Y-50707200D01*
X142490476Y-50707200D02*
X142633333Y-50754819D01*
X142633333Y-50754819D02*
X142728571Y-50754819D01*
X142728571Y-50754819D02*
X142871428Y-50707200D01*
X142871428Y-50707200D02*
X142966666Y-50611961D01*
X142966666Y-50611961D02*
X143014285Y-50516723D01*
X143014285Y-50516723D02*
X143061904Y-50326247D01*
X143061904Y-50326247D02*
X143061904Y-50183390D01*
X143061904Y-50183390D02*
X143014285Y-49992914D01*
X143014285Y-49992914D02*
X142966666Y-49897676D01*
X142966666Y-49897676D02*
X142871428Y-49802438D01*
X142871428Y-49802438D02*
X142728571Y-49754819D01*
X142728571Y-49754819D02*
X142633333Y-49754819D01*
X142633333Y-49754819D02*
X142490476Y-49802438D01*
X142490476Y-49802438D02*
X142442857Y-49850057D01*
X142061904Y-49850057D02*
X142014285Y-49802438D01*
X142014285Y-49802438D02*
X141919047Y-49754819D01*
X141919047Y-49754819D02*
X141680952Y-49754819D01*
X141680952Y-49754819D02*
X141585714Y-49802438D01*
X141585714Y-49802438D02*
X141538095Y-49850057D01*
X141538095Y-49850057D02*
X141490476Y-49945295D01*
X141490476Y-49945295D02*
X141490476Y-50040533D01*
X141490476Y-50040533D02*
X141538095Y-50183390D01*
X141538095Y-50183390D02*
X142109523Y-50754819D01*
X142109523Y-50754819D02*
X141490476Y-50754819D01*
X141109523Y-49850057D02*
X141061904Y-49802438D01*
X141061904Y-49802438D02*
X140966666Y-49754819D01*
X140966666Y-49754819D02*
X140728571Y-49754819D01*
X140728571Y-49754819D02*
X140633333Y-49802438D01*
X140633333Y-49802438D02*
X140585714Y-49850057D01*
X140585714Y-49850057D02*
X140538095Y-49945295D01*
X140538095Y-49945295D02*
X140538095Y-50040533D01*
X140538095Y-50040533D02*
X140585714Y-50183390D01*
X140585714Y-50183390D02*
X141157142Y-50754819D01*
X141157142Y-50754819D02*
X140538095Y-50754819D01*
X140690807Y-61277485D02*
X140729512Y-61238781D01*
X140729512Y-61238781D02*
X140768216Y-61122666D01*
X140768216Y-61122666D02*
X140768216Y-61045257D01*
X140768216Y-61045257D02*
X140729512Y-60929143D01*
X140729512Y-60929143D02*
X140652102Y-60851733D01*
X140652102Y-60851733D02*
X140574692Y-60813028D01*
X140574692Y-60813028D02*
X140419873Y-60774324D01*
X140419873Y-60774324D02*
X140303759Y-60774324D01*
X140303759Y-60774324D02*
X140148940Y-60813028D01*
X140148940Y-60813028D02*
X140071531Y-60851733D01*
X140071531Y-60851733D02*
X139994121Y-60929143D01*
X139994121Y-60929143D02*
X139955416Y-61045257D01*
X139955416Y-61045257D02*
X139955416Y-61122666D01*
X139955416Y-61122666D02*
X139994121Y-61238781D01*
X139994121Y-61238781D02*
X140032826Y-61277485D01*
X140032826Y-61587124D02*
X139994121Y-61625828D01*
X139994121Y-61625828D02*
X139955416Y-61703238D01*
X139955416Y-61703238D02*
X139955416Y-61896762D01*
X139955416Y-61896762D02*
X139994121Y-61974171D01*
X139994121Y-61974171D02*
X140032826Y-62012876D01*
X140032826Y-62012876D02*
X140110235Y-62051581D01*
X140110235Y-62051581D02*
X140187645Y-62051581D01*
X140187645Y-62051581D02*
X140303759Y-62012876D01*
X140303759Y-62012876D02*
X140768216Y-61548419D01*
X140768216Y-61548419D02*
X140768216Y-62051581D01*
X139955416Y-62786971D02*
X139955416Y-62399923D01*
X139955416Y-62399923D02*
X140342464Y-62361219D01*
X140342464Y-62361219D02*
X140303759Y-62399923D01*
X140303759Y-62399923D02*
X140265054Y-62477333D01*
X140265054Y-62477333D02*
X140265054Y-62670857D01*
X140265054Y-62670857D02*
X140303759Y-62748266D01*
X140303759Y-62748266D02*
X140342464Y-62786971D01*
X140342464Y-62786971D02*
X140419873Y-62825676D01*
X140419873Y-62825676D02*
X140613397Y-62825676D01*
X140613397Y-62825676D02*
X140690807Y-62786971D01*
X140690807Y-62786971D02*
X140729512Y-62748266D01*
X140729512Y-62748266D02*
X140768216Y-62670857D01*
X140768216Y-62670857D02*
X140768216Y-62477333D01*
X140768216Y-62477333D02*
X140729512Y-62399923D01*
X140729512Y-62399923D02*
X140690807Y-62361219D01*
X150322514Y-49990807D02*
X150361218Y-50029512D01*
X150361218Y-50029512D02*
X150477333Y-50068216D01*
X150477333Y-50068216D02*
X150554742Y-50068216D01*
X150554742Y-50068216D02*
X150670856Y-50029512D01*
X150670856Y-50029512D02*
X150748266Y-49952102D01*
X150748266Y-49952102D02*
X150786971Y-49874692D01*
X150786971Y-49874692D02*
X150825675Y-49719873D01*
X150825675Y-49719873D02*
X150825675Y-49603759D01*
X150825675Y-49603759D02*
X150786971Y-49448940D01*
X150786971Y-49448940D02*
X150748266Y-49371531D01*
X150748266Y-49371531D02*
X150670856Y-49294121D01*
X150670856Y-49294121D02*
X150554742Y-49255416D01*
X150554742Y-49255416D02*
X150477333Y-49255416D01*
X150477333Y-49255416D02*
X150361218Y-49294121D01*
X150361218Y-49294121D02*
X150322514Y-49332826D01*
X150051580Y-49255416D02*
X149548418Y-49255416D01*
X149548418Y-49255416D02*
X149819352Y-49565054D01*
X149819352Y-49565054D02*
X149703237Y-49565054D01*
X149703237Y-49565054D02*
X149625828Y-49603759D01*
X149625828Y-49603759D02*
X149587123Y-49642464D01*
X149587123Y-49642464D02*
X149548418Y-49719873D01*
X149548418Y-49719873D02*
X149548418Y-49913397D01*
X149548418Y-49913397D02*
X149587123Y-49990807D01*
X149587123Y-49990807D02*
X149625828Y-50029512D01*
X149625828Y-50029512D02*
X149703237Y-50068216D01*
X149703237Y-50068216D02*
X149935466Y-50068216D01*
X149935466Y-50068216D02*
X150012875Y-50029512D01*
X150012875Y-50029512D02*
X150051580Y-49990807D01*
X149238780Y-49332826D02*
X149200076Y-49294121D01*
X149200076Y-49294121D02*
X149122666Y-49255416D01*
X149122666Y-49255416D02*
X148929142Y-49255416D01*
X148929142Y-49255416D02*
X148851733Y-49294121D01*
X148851733Y-49294121D02*
X148813028Y-49332826D01*
X148813028Y-49332826D02*
X148774323Y-49410235D01*
X148774323Y-49410235D02*
X148774323Y-49487645D01*
X148774323Y-49487645D02*
X148813028Y-49603759D01*
X148813028Y-49603759D02*
X149277485Y-50068216D01*
X149277485Y-50068216D02*
X148774323Y-50068216D01*
X122667857Y-56459580D02*
X122715476Y-56507200D01*
X122715476Y-56507200D02*
X122858333Y-56554819D01*
X122858333Y-56554819D02*
X122953571Y-56554819D01*
X122953571Y-56554819D02*
X123096428Y-56507200D01*
X123096428Y-56507200D02*
X123191666Y-56411961D01*
X123191666Y-56411961D02*
X123239285Y-56316723D01*
X123239285Y-56316723D02*
X123286904Y-56126247D01*
X123286904Y-56126247D02*
X123286904Y-55983390D01*
X123286904Y-55983390D02*
X123239285Y-55792914D01*
X123239285Y-55792914D02*
X123191666Y-55697676D01*
X123191666Y-55697676D02*
X123096428Y-55602438D01*
X123096428Y-55602438D02*
X122953571Y-55554819D01*
X122953571Y-55554819D02*
X122858333Y-55554819D01*
X122858333Y-55554819D02*
X122715476Y-55602438D01*
X122715476Y-55602438D02*
X122667857Y-55650057D01*
X122286904Y-55650057D02*
X122239285Y-55602438D01*
X122239285Y-55602438D02*
X122144047Y-55554819D01*
X122144047Y-55554819D02*
X121905952Y-55554819D01*
X121905952Y-55554819D02*
X121810714Y-55602438D01*
X121810714Y-55602438D02*
X121763095Y-55650057D01*
X121763095Y-55650057D02*
X121715476Y-55745295D01*
X121715476Y-55745295D02*
X121715476Y-55840533D01*
X121715476Y-55840533D02*
X121763095Y-55983390D01*
X121763095Y-55983390D02*
X122334523Y-56554819D01*
X122334523Y-56554819D02*
X121715476Y-56554819D01*
X120858333Y-55554819D02*
X121048809Y-55554819D01*
X121048809Y-55554819D02*
X121144047Y-55602438D01*
X121144047Y-55602438D02*
X121191666Y-55650057D01*
X121191666Y-55650057D02*
X121286904Y-55792914D01*
X121286904Y-55792914D02*
X121334523Y-55983390D01*
X121334523Y-55983390D02*
X121334523Y-56364342D01*
X121334523Y-56364342D02*
X121286904Y-56459580D01*
X121286904Y-56459580D02*
X121239285Y-56507200D01*
X121239285Y-56507200D02*
X121144047Y-56554819D01*
X121144047Y-56554819D02*
X120953571Y-56554819D01*
X120953571Y-56554819D02*
X120858333Y-56507200D01*
X120858333Y-56507200D02*
X120810714Y-56459580D01*
X120810714Y-56459580D02*
X120763095Y-56364342D01*
X120763095Y-56364342D02*
X120763095Y-56126247D01*
X120763095Y-56126247D02*
X120810714Y-56031009D01*
X120810714Y-56031009D02*
X120858333Y-55983390D01*
X120858333Y-55983390D02*
X120953571Y-55935771D01*
X120953571Y-55935771D02*
X121144047Y-55935771D01*
X121144047Y-55935771D02*
X121239285Y-55983390D01*
X121239285Y-55983390D02*
X121286904Y-56031009D01*
X121286904Y-56031009D02*
X121334523Y-56126247D01*
X142591242Y-94362776D02*
X142591242Y-93561737D01*
X142591242Y-93561737D02*
X142400518Y-93561737D01*
X142400518Y-93561737D02*
X142286084Y-93599882D01*
X142286084Y-93599882D02*
X142209795Y-93676171D01*
X142209795Y-93676171D02*
X142171650Y-93752461D01*
X142171650Y-93752461D02*
X142133505Y-93905040D01*
X142133505Y-93905040D02*
X142133505Y-94019474D01*
X142133505Y-94019474D02*
X142171650Y-94172053D01*
X142171650Y-94172053D02*
X142209795Y-94248342D01*
X142209795Y-94248342D02*
X142286084Y-94324632D01*
X142286084Y-94324632D02*
X142400518Y-94362776D01*
X142400518Y-94362776D02*
X142591242Y-94362776D01*
X141828348Y-93638027D02*
X141790203Y-93599882D01*
X141790203Y-93599882D02*
X141713914Y-93561737D01*
X141713914Y-93561737D02*
X141523190Y-93561737D01*
X141523190Y-93561737D02*
X141446901Y-93599882D01*
X141446901Y-93599882D02*
X141408756Y-93638027D01*
X141408756Y-93638027D02*
X141370611Y-93714316D01*
X141370611Y-93714316D02*
X141370611Y-93790606D01*
X141370611Y-93790606D02*
X141408756Y-93905040D01*
X141408756Y-93905040D02*
X141866492Y-94362776D01*
X141866492Y-94362776D02*
X141370611Y-94362776D01*
X155405357Y-67259580D02*
X155452976Y-67307200D01*
X155452976Y-67307200D02*
X155595833Y-67354819D01*
X155595833Y-67354819D02*
X155691071Y-67354819D01*
X155691071Y-67354819D02*
X155833928Y-67307200D01*
X155833928Y-67307200D02*
X155929166Y-67211961D01*
X155929166Y-67211961D02*
X155976785Y-67116723D01*
X155976785Y-67116723D02*
X156024404Y-66926247D01*
X156024404Y-66926247D02*
X156024404Y-66783390D01*
X156024404Y-66783390D02*
X155976785Y-66592914D01*
X155976785Y-66592914D02*
X155929166Y-66497676D01*
X155929166Y-66497676D02*
X155833928Y-66402438D01*
X155833928Y-66402438D02*
X155691071Y-66354819D01*
X155691071Y-66354819D02*
X155595833Y-66354819D01*
X155595833Y-66354819D02*
X155452976Y-66402438D01*
X155452976Y-66402438D02*
X155405357Y-66450057D01*
X155072023Y-66354819D02*
X154452976Y-66354819D01*
X154452976Y-66354819D02*
X154786309Y-66735771D01*
X154786309Y-66735771D02*
X154643452Y-66735771D01*
X154643452Y-66735771D02*
X154548214Y-66783390D01*
X154548214Y-66783390D02*
X154500595Y-66831009D01*
X154500595Y-66831009D02*
X154452976Y-66926247D01*
X154452976Y-66926247D02*
X154452976Y-67164342D01*
X154452976Y-67164342D02*
X154500595Y-67259580D01*
X154500595Y-67259580D02*
X154548214Y-67307200D01*
X154548214Y-67307200D02*
X154643452Y-67354819D01*
X154643452Y-67354819D02*
X154929166Y-67354819D01*
X154929166Y-67354819D02*
X155024404Y-67307200D01*
X155024404Y-67307200D02*
X155072023Y-67259580D01*
X154119642Y-66354819D02*
X153500595Y-66354819D01*
X153500595Y-66354819D02*
X153833928Y-66735771D01*
X153833928Y-66735771D02*
X153691071Y-66735771D01*
X153691071Y-66735771D02*
X153595833Y-66783390D01*
X153595833Y-66783390D02*
X153548214Y-66831009D01*
X153548214Y-66831009D02*
X153500595Y-66926247D01*
X153500595Y-66926247D02*
X153500595Y-67164342D01*
X153500595Y-67164342D02*
X153548214Y-67259580D01*
X153548214Y-67259580D02*
X153595833Y-67307200D01*
X153595833Y-67307200D02*
X153691071Y-67354819D01*
X153691071Y-67354819D02*
X153976785Y-67354819D01*
X153976785Y-67354819D02*
X154072023Y-67307200D01*
X154072023Y-67307200D02*
X154119642Y-67259580D01*
X147722514Y-70390807D02*
X147761218Y-70429512D01*
X147761218Y-70429512D02*
X147877333Y-70468216D01*
X147877333Y-70468216D02*
X147954742Y-70468216D01*
X147954742Y-70468216D02*
X148070856Y-70429512D01*
X148070856Y-70429512D02*
X148148266Y-70352102D01*
X148148266Y-70352102D02*
X148186971Y-70274692D01*
X148186971Y-70274692D02*
X148225675Y-70119873D01*
X148225675Y-70119873D02*
X148225675Y-70003759D01*
X148225675Y-70003759D02*
X148186971Y-69848940D01*
X148186971Y-69848940D02*
X148148266Y-69771531D01*
X148148266Y-69771531D02*
X148070856Y-69694121D01*
X148070856Y-69694121D02*
X147954742Y-69655416D01*
X147954742Y-69655416D02*
X147877333Y-69655416D01*
X147877333Y-69655416D02*
X147761218Y-69694121D01*
X147761218Y-69694121D02*
X147722514Y-69732826D01*
X147451580Y-69655416D02*
X146948418Y-69655416D01*
X146948418Y-69655416D02*
X147219352Y-69965054D01*
X147219352Y-69965054D02*
X147103237Y-69965054D01*
X147103237Y-69965054D02*
X147025828Y-70003759D01*
X147025828Y-70003759D02*
X146987123Y-70042464D01*
X146987123Y-70042464D02*
X146948418Y-70119873D01*
X146948418Y-70119873D02*
X146948418Y-70313397D01*
X146948418Y-70313397D02*
X146987123Y-70390807D01*
X146987123Y-70390807D02*
X147025828Y-70429512D01*
X147025828Y-70429512D02*
X147103237Y-70468216D01*
X147103237Y-70468216D02*
X147335466Y-70468216D01*
X147335466Y-70468216D02*
X147412875Y-70429512D01*
X147412875Y-70429512D02*
X147451580Y-70390807D01*
X146445257Y-69655416D02*
X146367847Y-69655416D01*
X146367847Y-69655416D02*
X146290438Y-69694121D01*
X146290438Y-69694121D02*
X146251733Y-69732826D01*
X146251733Y-69732826D02*
X146213028Y-69810235D01*
X146213028Y-69810235D02*
X146174323Y-69965054D01*
X146174323Y-69965054D02*
X146174323Y-70158578D01*
X146174323Y-70158578D02*
X146213028Y-70313397D01*
X146213028Y-70313397D02*
X146251733Y-70390807D01*
X146251733Y-70390807D02*
X146290438Y-70429512D01*
X146290438Y-70429512D02*
X146367847Y-70468216D01*
X146367847Y-70468216D02*
X146445257Y-70468216D01*
X146445257Y-70468216D02*
X146522666Y-70429512D01*
X146522666Y-70429512D02*
X146561371Y-70390807D01*
X146561371Y-70390807D02*
X146600076Y-70313397D01*
X146600076Y-70313397D02*
X146638780Y-70158578D01*
X146638780Y-70158578D02*
X146638780Y-69965054D01*
X146638780Y-69965054D02*
X146600076Y-69810235D01*
X146600076Y-69810235D02*
X146561371Y-69732826D01*
X146561371Y-69732826D02*
X146522666Y-69694121D01*
X146522666Y-69694121D02*
X146445257Y-69655416D01*
X125642857Y-71359580D02*
X125690476Y-71407200D01*
X125690476Y-71407200D02*
X125833333Y-71454819D01*
X125833333Y-71454819D02*
X125928571Y-71454819D01*
X125928571Y-71454819D02*
X126071428Y-71407200D01*
X126071428Y-71407200D02*
X126166666Y-71311961D01*
X126166666Y-71311961D02*
X126214285Y-71216723D01*
X126214285Y-71216723D02*
X126261904Y-71026247D01*
X126261904Y-71026247D02*
X126261904Y-70883390D01*
X126261904Y-70883390D02*
X126214285Y-70692914D01*
X126214285Y-70692914D02*
X126166666Y-70597676D01*
X126166666Y-70597676D02*
X126071428Y-70502438D01*
X126071428Y-70502438D02*
X125928571Y-70454819D01*
X125928571Y-70454819D02*
X125833333Y-70454819D01*
X125833333Y-70454819D02*
X125690476Y-70502438D01*
X125690476Y-70502438D02*
X125642857Y-70550057D01*
X125261904Y-70550057D02*
X125214285Y-70502438D01*
X125214285Y-70502438D02*
X125119047Y-70454819D01*
X125119047Y-70454819D02*
X124880952Y-70454819D01*
X124880952Y-70454819D02*
X124785714Y-70502438D01*
X124785714Y-70502438D02*
X124738095Y-70550057D01*
X124738095Y-70550057D02*
X124690476Y-70645295D01*
X124690476Y-70645295D02*
X124690476Y-70740533D01*
X124690476Y-70740533D02*
X124738095Y-70883390D01*
X124738095Y-70883390D02*
X125309523Y-71454819D01*
X125309523Y-71454819D02*
X124690476Y-71454819D01*
X124214285Y-71454819D02*
X124023809Y-71454819D01*
X124023809Y-71454819D02*
X123928571Y-71407200D01*
X123928571Y-71407200D02*
X123880952Y-71359580D01*
X123880952Y-71359580D02*
X123785714Y-71216723D01*
X123785714Y-71216723D02*
X123738095Y-71026247D01*
X123738095Y-71026247D02*
X123738095Y-70645295D01*
X123738095Y-70645295D02*
X123785714Y-70550057D01*
X123785714Y-70550057D02*
X123833333Y-70502438D01*
X123833333Y-70502438D02*
X123928571Y-70454819D01*
X123928571Y-70454819D02*
X124119047Y-70454819D01*
X124119047Y-70454819D02*
X124214285Y-70502438D01*
X124214285Y-70502438D02*
X124261904Y-70550057D01*
X124261904Y-70550057D02*
X124309523Y-70645295D01*
X124309523Y-70645295D02*
X124309523Y-70883390D01*
X124309523Y-70883390D02*
X124261904Y-70978628D01*
X124261904Y-70978628D02*
X124214285Y-71026247D01*
X124214285Y-71026247D02*
X124119047Y-71073866D01*
X124119047Y-71073866D02*
X123928571Y-71073866D01*
X123928571Y-71073866D02*
X123833333Y-71026247D01*
X123833333Y-71026247D02*
X123785714Y-70978628D01*
X123785714Y-70978628D02*
X123738095Y-70883390D01*
X113642857Y-58792319D02*
X113976190Y-58316128D01*
X114214285Y-58792319D02*
X114214285Y-57792319D01*
X114214285Y-57792319D02*
X113833333Y-57792319D01*
X113833333Y-57792319D02*
X113738095Y-57839938D01*
X113738095Y-57839938D02*
X113690476Y-57887557D01*
X113690476Y-57887557D02*
X113642857Y-57982795D01*
X113642857Y-57982795D02*
X113642857Y-58125652D01*
X113642857Y-58125652D02*
X113690476Y-58220890D01*
X113690476Y-58220890D02*
X113738095Y-58268509D01*
X113738095Y-58268509D02*
X113833333Y-58316128D01*
X113833333Y-58316128D02*
X114214285Y-58316128D01*
X112690476Y-58792319D02*
X113261904Y-58792319D01*
X112976190Y-58792319D02*
X112976190Y-57792319D01*
X112976190Y-57792319D02*
X113071428Y-57935176D01*
X113071428Y-57935176D02*
X113166666Y-58030414D01*
X113166666Y-58030414D02*
X113261904Y-58078033D01*
X112071428Y-57792319D02*
X111976190Y-57792319D01*
X111976190Y-57792319D02*
X111880952Y-57839938D01*
X111880952Y-57839938D02*
X111833333Y-57887557D01*
X111833333Y-57887557D02*
X111785714Y-57982795D01*
X111785714Y-57982795D02*
X111738095Y-58173271D01*
X111738095Y-58173271D02*
X111738095Y-58411366D01*
X111738095Y-58411366D02*
X111785714Y-58601842D01*
X111785714Y-58601842D02*
X111833333Y-58697080D01*
X111833333Y-58697080D02*
X111880952Y-58744700D01*
X111880952Y-58744700D02*
X111976190Y-58792319D01*
X111976190Y-58792319D02*
X112071428Y-58792319D01*
X112071428Y-58792319D02*
X112166666Y-58744700D01*
X112166666Y-58744700D02*
X112214285Y-58697080D01*
X112214285Y-58697080D02*
X112261904Y-58601842D01*
X112261904Y-58601842D02*
X112309523Y-58411366D01*
X112309523Y-58411366D02*
X112309523Y-58173271D01*
X112309523Y-58173271D02*
X112261904Y-57982795D01*
X112261904Y-57982795D02*
X112214285Y-57887557D01*
X112214285Y-57887557D02*
X112166666Y-57839938D01*
X112166666Y-57839938D02*
X112071428Y-57792319D01*
X140593371Y-69668216D02*
X140593371Y-68855416D01*
X140593371Y-68855416D02*
X140322437Y-69435988D01*
X140322437Y-69435988D02*
X140051504Y-68855416D01*
X140051504Y-68855416D02*
X140051504Y-69668216D01*
X139703161Y-69435988D02*
X139316114Y-69435988D01*
X139780571Y-69668216D02*
X139509638Y-68855416D01*
X139509638Y-68855416D02*
X139238704Y-69668216D01*
X139045180Y-68855416D02*
X138503314Y-69668216D01*
X138503314Y-68855416D02*
X139045180Y-69668216D01*
X137806628Y-68855416D02*
X138193676Y-68855416D01*
X138193676Y-68855416D02*
X138232380Y-69242464D01*
X138232380Y-69242464D02*
X138193676Y-69203759D01*
X138193676Y-69203759D02*
X138116266Y-69165054D01*
X138116266Y-69165054D02*
X137922742Y-69165054D01*
X137922742Y-69165054D02*
X137845333Y-69203759D01*
X137845333Y-69203759D02*
X137806628Y-69242464D01*
X137806628Y-69242464D02*
X137767923Y-69319873D01*
X137767923Y-69319873D02*
X137767923Y-69513397D01*
X137767923Y-69513397D02*
X137806628Y-69590807D01*
X137806628Y-69590807D02*
X137845333Y-69629512D01*
X137845333Y-69629512D02*
X137922742Y-69668216D01*
X137922742Y-69668216D02*
X138116266Y-69668216D01*
X138116266Y-69668216D02*
X138193676Y-69629512D01*
X138193676Y-69629512D02*
X138232380Y-69590807D01*
X143914285Y-90586104D02*
X143952381Y-90624200D01*
X143952381Y-90624200D02*
X144066666Y-90662295D01*
X144066666Y-90662295D02*
X144142857Y-90662295D01*
X144142857Y-90662295D02*
X144257143Y-90624200D01*
X144257143Y-90624200D02*
X144333333Y-90548009D01*
X144333333Y-90548009D02*
X144371428Y-90471819D01*
X144371428Y-90471819D02*
X144409524Y-90319438D01*
X144409524Y-90319438D02*
X144409524Y-90205152D01*
X144409524Y-90205152D02*
X144371428Y-90052771D01*
X144371428Y-90052771D02*
X144333333Y-89976580D01*
X144333333Y-89976580D02*
X144257143Y-89900390D01*
X144257143Y-89900390D02*
X144142857Y-89862295D01*
X144142857Y-89862295D02*
X144066666Y-89862295D01*
X144066666Y-89862295D02*
X143952381Y-89900390D01*
X143952381Y-89900390D02*
X143914285Y-89938485D01*
X143152381Y-90662295D02*
X143609524Y-90662295D01*
X143380952Y-90662295D02*
X143380952Y-89862295D01*
X143380952Y-89862295D02*
X143457143Y-89976580D01*
X143457143Y-89976580D02*
X143533333Y-90052771D01*
X143533333Y-90052771D02*
X143609524Y-90090866D01*
X142466666Y-89862295D02*
X142619047Y-89862295D01*
X142619047Y-89862295D02*
X142695238Y-89900390D01*
X142695238Y-89900390D02*
X142733333Y-89938485D01*
X142733333Y-89938485D02*
X142809523Y-90052771D01*
X142809523Y-90052771D02*
X142847619Y-90205152D01*
X142847619Y-90205152D02*
X142847619Y-90509914D01*
X142847619Y-90509914D02*
X142809523Y-90586104D01*
X142809523Y-90586104D02*
X142771428Y-90624200D01*
X142771428Y-90624200D02*
X142695238Y-90662295D01*
X142695238Y-90662295D02*
X142542857Y-90662295D01*
X142542857Y-90662295D02*
X142466666Y-90624200D01*
X142466666Y-90624200D02*
X142428571Y-90586104D01*
X142428571Y-90586104D02*
X142390476Y-90509914D01*
X142390476Y-90509914D02*
X142390476Y-90319438D01*
X142390476Y-90319438D02*
X142428571Y-90243247D01*
X142428571Y-90243247D02*
X142466666Y-90205152D01*
X142466666Y-90205152D02*
X142542857Y-90167057D01*
X142542857Y-90167057D02*
X142695238Y-90167057D01*
X142695238Y-90167057D02*
X142771428Y-90205152D01*
X142771428Y-90205152D02*
X142809523Y-90243247D01*
X142809523Y-90243247D02*
X142847619Y-90319438D01*
X133223604Y-119885714D02*
X133261700Y-119847618D01*
X133261700Y-119847618D02*
X133299795Y-119733333D01*
X133299795Y-119733333D02*
X133299795Y-119657142D01*
X133299795Y-119657142D02*
X133261700Y-119542856D01*
X133261700Y-119542856D02*
X133185509Y-119466666D01*
X133185509Y-119466666D02*
X133109319Y-119428571D01*
X133109319Y-119428571D02*
X132956938Y-119390475D01*
X132956938Y-119390475D02*
X132842652Y-119390475D01*
X132842652Y-119390475D02*
X132690271Y-119428571D01*
X132690271Y-119428571D02*
X132614080Y-119466666D01*
X132614080Y-119466666D02*
X132537890Y-119542856D01*
X132537890Y-119542856D02*
X132499795Y-119657142D01*
X132499795Y-119657142D02*
X132499795Y-119733333D01*
X132499795Y-119733333D02*
X132537890Y-119847618D01*
X132537890Y-119847618D02*
X132575985Y-119885714D01*
X133299795Y-120647618D02*
X133299795Y-120190475D01*
X133299795Y-120419047D02*
X132499795Y-120419047D01*
X132499795Y-120419047D02*
X132614080Y-120342856D01*
X132614080Y-120342856D02*
X132690271Y-120266666D01*
X132690271Y-120266666D02*
X132728366Y-120190475D01*
X133299795Y-121409523D02*
X133299795Y-120952380D01*
X133299795Y-121180952D02*
X132499795Y-121180952D01*
X132499795Y-121180952D02*
X132614080Y-121104761D01*
X132614080Y-121104761D02*
X132690271Y-121028571D01*
X132690271Y-121028571D02*
X132728366Y-120952380D01*
X155620357Y-61182080D02*
X155667976Y-61229700D01*
X155667976Y-61229700D02*
X155810833Y-61277319D01*
X155810833Y-61277319D02*
X155906071Y-61277319D01*
X155906071Y-61277319D02*
X156048928Y-61229700D01*
X156048928Y-61229700D02*
X156144166Y-61134461D01*
X156144166Y-61134461D02*
X156191785Y-61039223D01*
X156191785Y-61039223D02*
X156239404Y-60848747D01*
X156239404Y-60848747D02*
X156239404Y-60705890D01*
X156239404Y-60705890D02*
X156191785Y-60515414D01*
X156191785Y-60515414D02*
X156144166Y-60420176D01*
X156144166Y-60420176D02*
X156048928Y-60324938D01*
X156048928Y-60324938D02*
X155906071Y-60277319D01*
X155906071Y-60277319D02*
X155810833Y-60277319D01*
X155810833Y-60277319D02*
X155667976Y-60324938D01*
X155667976Y-60324938D02*
X155620357Y-60372557D01*
X155239404Y-60372557D02*
X155191785Y-60324938D01*
X155191785Y-60324938D02*
X155096547Y-60277319D01*
X155096547Y-60277319D02*
X154858452Y-60277319D01*
X154858452Y-60277319D02*
X154763214Y-60324938D01*
X154763214Y-60324938D02*
X154715595Y-60372557D01*
X154715595Y-60372557D02*
X154667976Y-60467795D01*
X154667976Y-60467795D02*
X154667976Y-60563033D01*
X154667976Y-60563033D02*
X154715595Y-60705890D01*
X154715595Y-60705890D02*
X155287023Y-61277319D01*
X155287023Y-61277319D02*
X154667976Y-61277319D01*
X154334642Y-60277319D02*
X153715595Y-60277319D01*
X153715595Y-60277319D02*
X154048928Y-60658271D01*
X154048928Y-60658271D02*
X153906071Y-60658271D01*
X153906071Y-60658271D02*
X153810833Y-60705890D01*
X153810833Y-60705890D02*
X153763214Y-60753509D01*
X153763214Y-60753509D02*
X153715595Y-60848747D01*
X153715595Y-60848747D02*
X153715595Y-61086842D01*
X153715595Y-61086842D02*
X153763214Y-61182080D01*
X153763214Y-61182080D02*
X153810833Y-61229700D01*
X153810833Y-61229700D02*
X153906071Y-61277319D01*
X153906071Y-61277319D02*
X154191785Y-61277319D01*
X154191785Y-61277319D02*
X154287023Y-61229700D01*
X154287023Y-61229700D02*
X154334642Y-61182080D01*
X140642857Y-97324819D02*
X140976190Y-96848628D01*
X141214285Y-97324819D02*
X141214285Y-96324819D01*
X141214285Y-96324819D02*
X140833333Y-96324819D01*
X140833333Y-96324819D02*
X140738095Y-96372438D01*
X140738095Y-96372438D02*
X140690476Y-96420057D01*
X140690476Y-96420057D02*
X140642857Y-96515295D01*
X140642857Y-96515295D02*
X140642857Y-96658152D01*
X140642857Y-96658152D02*
X140690476Y-96753390D01*
X140690476Y-96753390D02*
X140738095Y-96801009D01*
X140738095Y-96801009D02*
X140833333Y-96848628D01*
X140833333Y-96848628D02*
X141214285Y-96848628D01*
X139690476Y-97324819D02*
X140261904Y-97324819D01*
X139976190Y-97324819D02*
X139976190Y-96324819D01*
X139976190Y-96324819D02*
X140071428Y-96467676D01*
X140071428Y-96467676D02*
X140166666Y-96562914D01*
X140166666Y-96562914D02*
X140261904Y-96610533D01*
X139357142Y-96324819D02*
X138690476Y-96324819D01*
X138690476Y-96324819D02*
X139119047Y-97324819D01*
X150422514Y-55868216D02*
X150693447Y-55481169D01*
X150886971Y-55868216D02*
X150886971Y-55055416D01*
X150886971Y-55055416D02*
X150577333Y-55055416D01*
X150577333Y-55055416D02*
X150499923Y-55094121D01*
X150499923Y-55094121D02*
X150461218Y-55132826D01*
X150461218Y-55132826D02*
X150422514Y-55210235D01*
X150422514Y-55210235D02*
X150422514Y-55326350D01*
X150422514Y-55326350D02*
X150461218Y-55403759D01*
X150461218Y-55403759D02*
X150499923Y-55442464D01*
X150499923Y-55442464D02*
X150577333Y-55481169D01*
X150577333Y-55481169D02*
X150886971Y-55481169D01*
X150112875Y-55132826D02*
X150074171Y-55094121D01*
X150074171Y-55094121D02*
X149996761Y-55055416D01*
X149996761Y-55055416D02*
X149803237Y-55055416D01*
X149803237Y-55055416D02*
X149725828Y-55094121D01*
X149725828Y-55094121D02*
X149687123Y-55132826D01*
X149687123Y-55132826D02*
X149648418Y-55210235D01*
X149648418Y-55210235D02*
X149648418Y-55287645D01*
X149648418Y-55287645D02*
X149687123Y-55403759D01*
X149687123Y-55403759D02*
X150151580Y-55868216D01*
X150151580Y-55868216D02*
X149648418Y-55868216D01*
X149338780Y-55132826D02*
X149300076Y-55094121D01*
X149300076Y-55094121D02*
X149222666Y-55055416D01*
X149222666Y-55055416D02*
X149029142Y-55055416D01*
X149029142Y-55055416D02*
X148951733Y-55094121D01*
X148951733Y-55094121D02*
X148913028Y-55132826D01*
X148913028Y-55132826D02*
X148874323Y-55210235D01*
X148874323Y-55210235D02*
X148874323Y-55287645D01*
X148874323Y-55287645D02*
X148913028Y-55403759D01*
X148913028Y-55403759D02*
X149377485Y-55868216D01*
X149377485Y-55868216D02*
X148874323Y-55868216D01*
X121814285Y-68054819D02*
X121814285Y-67054819D01*
X121814285Y-67054819D02*
X121480952Y-67769104D01*
X121480952Y-67769104D02*
X121147619Y-67054819D01*
X121147619Y-67054819D02*
X121147619Y-68054819D01*
X120719047Y-67769104D02*
X120242857Y-67769104D01*
X120814285Y-68054819D02*
X120480952Y-67054819D01*
X120480952Y-67054819D02*
X120147619Y-68054819D01*
X119909523Y-67054819D02*
X119242857Y-68054819D01*
X119242857Y-67054819D02*
X119909523Y-68054819D01*
X118433333Y-67388152D02*
X118433333Y-68054819D01*
X118671428Y-67007200D02*
X118909523Y-67721485D01*
X118909523Y-67721485D02*
X118290476Y-67721485D01*
%TO.C,C28*%
D11*
X157665000Y-68538748D02*
X157665000Y-69061252D01*
X159135000Y-68538748D02*
X159135000Y-69061252D01*
%TO.C,C35*%
X145765000Y-60538748D02*
X145765000Y-61061252D01*
X147235000Y-60538748D02*
X147235000Y-61061252D01*
%TO.C,C27*%
X137765000Y-61061252D02*
X137765000Y-60538748D01*
X139235000Y-61061252D02*
X139235000Y-60538748D01*
%TO.C,C18*%
X130590000Y-116461252D02*
X130590000Y-115038748D01*
X132410000Y-116461252D02*
X132410000Y-115038748D01*
%TO.C,C14*%
X124601248Y-119690000D02*
X125123752Y-119690000D01*
X124601248Y-121160000D02*
X125123752Y-121160000D01*
%TO.C,MAX3*%
X153190000Y-53327500D02*
X153190000Y-54227500D01*
X153190000Y-57647500D02*
X153190000Y-58547500D01*
X153190000Y-58547500D02*
X154090000Y-58547500D01*
X154090000Y-53327500D02*
X153190000Y-53327500D01*
X157510000Y-58547500D02*
X158410000Y-58547500D01*
X158410000Y-53327500D02*
X157510000Y-53327500D01*
X158410000Y-54227500D02*
X158410000Y-53327500D01*
X158410000Y-58547500D02*
X158410000Y-57647500D01*
X159240000Y-54877500D02*
X158910000Y-54637500D01*
X159240000Y-54397500D01*
X159240000Y-54877500D01*
G36*
X159240000Y-54877500D02*
G01*
X158910000Y-54637500D01*
X159240000Y-54397500D01*
X159240000Y-54877500D01*
G37*
%TO.C,R14*%
X113465000Y-66398752D02*
X113465000Y-65876248D01*
X114935000Y-66398752D02*
X114935000Y-65876248D01*
%TO.C,R18*%
X139798752Y-94365000D02*
X139276248Y-94365000D01*
X139798752Y-95835000D02*
X139276248Y-95835000D01*
%TO.C,R15*%
X139765000Y-115973752D02*
X139765000Y-115451248D01*
X141235000Y-115973752D02*
X141235000Y-115451248D01*
%TO.C,C31*%
X131465000Y-52401248D02*
X131465000Y-52923752D01*
X132935000Y-52401248D02*
X132935000Y-52923752D01*
%TO.C,R11*%
X108465000Y-60423752D02*
X108465000Y-59901248D01*
X109935000Y-60423752D02*
X109935000Y-59901248D01*
%TO.C,R21*%
X131505000Y-57653748D02*
X131505000Y-58176252D01*
X132975000Y-57653748D02*
X132975000Y-58176252D01*
%TO.C,C20*%
X123840000Y-116523752D02*
X123840000Y-115101248D01*
X125660000Y-116523752D02*
X125660000Y-115101248D01*
%TO.C,R12*%
X110465000Y-66323752D02*
X110465000Y-65801248D01*
X111935000Y-66323752D02*
X111935000Y-65801248D01*
%TO.C,R23*%
X157412500Y-64061252D02*
X157412500Y-63538748D01*
X158882500Y-64061252D02*
X158882500Y-63538748D01*
%TO.C,C10*%
X133226248Y-123990000D02*
X134648752Y-123990000D01*
X133226248Y-125810000D02*
X134648752Y-125810000D01*
%TO.C,L2*%
X143090000Y-101147936D02*
X143090000Y-105252064D01*
X146510000Y-101147936D02*
X146510000Y-105252064D01*
%TO.C,R25*%
X148465000Y-63238748D02*
X148465000Y-63761252D01*
X149935000Y-63238748D02*
X149935000Y-63761252D01*
%TO.C,J2*%
D12*
X148100000Y-88900000D02*
X148100000Y-100900000D01*
X148100000Y-88900000D02*
X159100000Y-88900000D01*
X148100000Y-100900000D02*
X159100000Y-100900000D01*
X159100000Y-88900000D02*
X159100000Y-90400000D01*
X159100000Y-90400000D02*
X160100000Y-90400000D01*
X159100000Y-99350000D02*
X159100000Y-100850000D01*
X160100000Y-99350000D02*
X159100000Y-99350000D01*
%TO.C,J3*%
X148100000Y-102450000D02*
X148100000Y-114450000D01*
X148100000Y-102450000D02*
X159100000Y-102450000D01*
X148100000Y-114450000D02*
X159100000Y-114450000D01*
X159100000Y-102450000D02*
X159100000Y-103950000D01*
X159100000Y-103950000D02*
X160100000Y-103950000D01*
X159100000Y-112900000D02*
X159100000Y-114400000D01*
X160100000Y-112900000D02*
X159100000Y-112900000D01*
%TO.C,J4*%
X148100000Y-115950000D02*
X148100000Y-127950000D01*
X148100000Y-115950000D02*
X159100000Y-115950000D01*
X148100000Y-127950000D02*
X159100000Y-127950000D01*
X159100000Y-115950000D02*
X159100000Y-117450000D01*
X159100000Y-117450000D02*
X160100000Y-117450000D01*
X159100000Y-126400000D02*
X159100000Y-127900000D01*
X160100000Y-126400000D02*
X159100000Y-126400000D01*
%TO.C,MAX1*%
D11*
X124355000Y-52930000D02*
X124355000Y-53830000D01*
X124355000Y-57250000D02*
X124355000Y-58150000D01*
X124355000Y-58150000D02*
X125255000Y-58150000D01*
X125255000Y-52930000D02*
X124355000Y-52930000D01*
X128675000Y-58150000D02*
X129575000Y-58150000D01*
X129575000Y-52930000D02*
X128675000Y-52930000D01*
X129575000Y-53830000D02*
X129575000Y-52930000D01*
X129575000Y-58150000D02*
X129575000Y-57250000D01*
X130405000Y-54480000D02*
X130075000Y-54240000D01*
X130405000Y-54000000D01*
X130405000Y-54480000D01*
G36*
X130405000Y-54480000D02*
G01*
X130075000Y-54240000D01*
X130405000Y-54000000D01*
X130405000Y-54480000D01*
G37*
%TO.C,R20*%
X133765000Y-116011252D02*
X133765000Y-115488748D01*
X135235000Y-116011252D02*
X135235000Y-115488748D01*
%TO.C,C17*%
X145965000Y-94798752D02*
X145965000Y-94276248D01*
X147435000Y-94798752D02*
X147435000Y-94276248D01*
%TO.C,DIO1*%
X140827500Y-82990000D02*
X140827500Y-83040000D01*
X140827500Y-86060000D02*
X140827500Y-86110000D01*
X140827500Y-86110000D02*
X142647500Y-86110000D01*
X142647500Y-82990000D02*
X140827500Y-82990000D01*
X142647500Y-83040000D02*
X142647500Y-82990000D01*
X142647500Y-86110000D02*
X142647500Y-86060000D01*
X143187500Y-83040000D02*
X142947500Y-82710000D01*
X143427500Y-82710000D01*
X143187500Y-83040000D01*
G36*
X143187500Y-83040000D02*
G01*
X142947500Y-82710000D01*
X143427500Y-82710000D01*
X143187500Y-83040000D01*
G37*
%TO.C,C9*%
X144290000Y-88316233D02*
X144290000Y-88608767D01*
X145310000Y-88316233D02*
X145310000Y-88608767D01*
%TO.C,R13*%
X139898752Y-91065000D02*
X139376248Y-91065000D01*
X139898752Y-92535000D02*
X139376248Y-92535000D01*
%TO.C,L3*%
D13*
X137650000Y-76800000D02*
X137650000Y-82200000D01*
X137650000Y-82200000D02*
X143850000Y-82200000D01*
X143850000Y-76800000D02*
X137650000Y-76800000D01*
X143850000Y-82200000D02*
X143850000Y-76800000D01*
%TO.C,R19*%
D11*
X137015000Y-116011252D02*
X137015000Y-115488748D01*
X138485000Y-116011252D02*
X138485000Y-115488748D01*
%TO.C,C8*%
X146590000Y-88591233D02*
X146590000Y-88883767D01*
X147610000Y-88591233D02*
X147610000Y-88883767D01*
%TO.C,C19*%
X127340000Y-116461252D02*
X127340000Y-115038748D01*
X129160000Y-116461252D02*
X129160000Y-115038748D01*
%TO.C,C21*%
X134665000Y-53561252D02*
X134665000Y-53038748D01*
X136135000Y-53561252D02*
X136135000Y-53038748D01*
%TO.C,PS2*%
D12*
X136645000Y-118685000D02*
X135045000Y-118685000D01*
X136645000Y-121815000D02*
X135045000Y-121815000D01*
D14*
X138345000Y-119050000D02*
G75*
G02*
X138145000Y-119050000I-100000J0D01*
G01*
X138145000Y-119050000D02*
G75*
G02*
X138345000Y-119050000I100000J0D01*
G01*
%TO.C,MAX2*%
D11*
X141280000Y-53192500D02*
X141280000Y-54092500D01*
X141280000Y-57512500D02*
X141280000Y-58412500D01*
X141280000Y-58412500D02*
X142180000Y-58412500D01*
X142180000Y-53192500D02*
X141280000Y-53192500D01*
X145600000Y-58412500D02*
X146500000Y-58412500D01*
X146500000Y-53192500D02*
X145600000Y-53192500D01*
X146500000Y-54092500D02*
X146500000Y-53192500D01*
X146500000Y-58412500D02*
X146500000Y-57512500D01*
X147330000Y-54742500D02*
X147000000Y-54502500D01*
X147330000Y-54262500D01*
X147330000Y-54742500D01*
G36*
X147330000Y-54742500D02*
G01*
X147000000Y-54502500D01*
X147330000Y-54262500D01*
X147330000Y-54742500D01*
G37*
%TO.C,R24*%
X131015000Y-68201248D02*
X131015000Y-68723752D01*
X132485000Y-68201248D02*
X132485000Y-68723752D01*
%TO.C,J5*%
D12*
X148100000Y-129500000D02*
X148100000Y-141500000D01*
X148100000Y-129500000D02*
X159100000Y-129500000D01*
X148100000Y-141500000D02*
X159100000Y-141500000D01*
X159100000Y-129500000D02*
X159100000Y-131000000D01*
X159100000Y-131000000D02*
X160100000Y-131000000D01*
X159100000Y-139950000D02*
X159100000Y-141450000D01*
X160100000Y-139950000D02*
X159100000Y-139950000D01*
%TO.C,R16*%
D11*
X137477500Y-86557776D02*
X137477500Y-87067224D01*
X138522500Y-86557776D02*
X138522500Y-87067224D01*
%TO.C,C34*%
X127038748Y-60265000D02*
X127561252Y-60265000D01*
X127038748Y-61735000D02*
X127561252Y-61735000D01*
%TO.C,C24*%
X121261252Y-62065000D02*
X120738748Y-62065000D01*
X121261252Y-63535000D02*
X120738748Y-63535000D01*
%TO.C,J1*%
D12*
X148100000Y-75300000D02*
X148100000Y-87300000D01*
X148100000Y-75300000D02*
X159100000Y-75300000D01*
X148100000Y-87300000D02*
X159100000Y-87300000D01*
X159100000Y-75300000D02*
X159100000Y-76800000D01*
X159100000Y-76800000D02*
X160100000Y-76800000D01*
X159100000Y-85750000D02*
X159100000Y-87250000D01*
X160100000Y-85750000D02*
X159100000Y-85750000D01*
%TO.C,C22*%
D11*
X145823752Y-49465000D02*
X145301248Y-49465000D01*
X145823752Y-50935000D02*
X145301248Y-50935000D01*
%TO.C,C25*%
X142576248Y-60965000D02*
X143098752Y-60965000D01*
X142576248Y-62435000D02*
X143098752Y-62435000D01*
%TO.C,C32*%
X148765000Y-52276248D02*
X148765000Y-52798752D01*
X150235000Y-52276248D02*
X150235000Y-52798752D01*
%TO.C,C26*%
X121290000Y-58301248D02*
X121290000Y-58823752D01*
X122760000Y-58301248D02*
X122760000Y-58823752D01*
%TO.C,D2*%
D12*
X142922000Y-93254000D02*
X142079000Y-93254000D01*
X142922000Y-97826000D02*
X142922000Y-93254000D01*
D13*
X143200000Y-94997000D02*
X144400000Y-94997000D01*
X143800000Y-96370000D02*
X143200000Y-94997000D01*
X144400000Y-94997000D02*
X143800000Y-96370000D01*
D12*
X144778000Y-93254000D02*
X144778000Y-97826000D01*
X144778000Y-93254000D02*
X145621000Y-93254000D01*
%TO.C,C33*%
D11*
X154065000Y-69138748D02*
X154065000Y-69661252D01*
X155535000Y-69138748D02*
X155535000Y-69661252D01*
%TO.C,C30*%
X144561252Y-69765000D02*
X144038748Y-69765000D01*
X144561252Y-71235000D02*
X144038748Y-71235000D01*
%TO.C,C29*%
X128461252Y-70165000D02*
X127938748Y-70165000D01*
X128461252Y-71635000D02*
X127938748Y-71635000D01*
%TO.C,R10*%
X112265000Y-60576248D02*
X112265000Y-61098752D01*
X113735000Y-60576248D02*
X113735000Y-61098752D01*
%TO.C,MAX5*%
X141300000Y-63180000D02*
X141300000Y-64080000D01*
X141300000Y-67500000D02*
X141300000Y-68400000D01*
X141300000Y-68400000D02*
X142200000Y-68400000D01*
X142200000Y-63180000D02*
X141300000Y-63180000D01*
X145620000Y-68400000D02*
X146520000Y-68400000D01*
X146520000Y-63180000D02*
X145620000Y-63180000D01*
X146520000Y-64080000D02*
X146520000Y-63180000D01*
X146520000Y-68400000D02*
X146520000Y-67500000D01*
X147350000Y-64730000D02*
X147020000Y-64490000D01*
X147350000Y-64250000D01*
X147350000Y-64730000D01*
G36*
X147350000Y-64730000D02*
G01*
X147020000Y-64490000D01*
X147350000Y-64250000D01*
X147350000Y-64730000D01*
G37*
%TO.C,C16*%
X144161252Y-90865000D02*
X143638748Y-90865000D01*
X144161252Y-92335000D02*
X143638748Y-92335000D01*
%TO.C,C11*%
X130138748Y-119665000D02*
X130661252Y-119665000D01*
X130138748Y-121135000D02*
X130661252Y-121135000D01*
%TO.C,C23*%
X154365000Y-63623752D02*
X154365000Y-63101248D01*
X155835000Y-63623752D02*
X155835000Y-63101248D01*
%TO.C,R17*%
X140727064Y-97790000D02*
X139272936Y-97790000D01*
X140727064Y-99610000D02*
X139272936Y-99610000D01*
%TO.C,R22*%
X148712500Y-57638748D02*
X148712500Y-58161252D01*
X150182500Y-57638748D02*
X150182500Y-58161252D01*
%TO.C,MAX4*%
X124227500Y-62790000D02*
X124227500Y-63690000D01*
X124227500Y-67110000D02*
X124227500Y-68010000D01*
X124227500Y-68010000D02*
X125127500Y-68010000D01*
X125127500Y-62790000D02*
X124227500Y-62790000D01*
X128547500Y-68010000D02*
X129447500Y-68010000D01*
X129447500Y-62790000D02*
X128547500Y-62790000D01*
X129447500Y-63690000D02*
X129447500Y-62790000D01*
X129447500Y-68010000D02*
X129447500Y-67110000D01*
X130277500Y-64340000D02*
X129947500Y-64100000D01*
X130277500Y-63860000D01*
X130277500Y-64340000D01*
G36*
X130277500Y-64340000D02*
G01*
X129947500Y-64100000D01*
X130277500Y-63860000D01*
X130277500Y-64340000D01*
G37*
%TD*%
%LPC*%
D13*
%TO.C,L3*%
X139550000Y-78000000D02*
X139467000Y-78067000D01*
X139381000Y-78145000D01*
X139300000Y-78228000D01*
X139225000Y-78317000D01*
X139154000Y-78409000D01*
X139090000Y-78506000D01*
X139032000Y-78607000D01*
X138980000Y-78711000D01*
X138935000Y-78818000D01*
X138896000Y-78928000D01*
X138864000Y-79040000D01*
X138839000Y-79153000D01*
X138821000Y-79268000D01*
X138811000Y-79384000D01*
X138807000Y-79500000D01*
X138811000Y-79616000D01*
X138821000Y-79732000D01*
X138839000Y-79847000D01*
X138864000Y-79960000D01*
X138896000Y-80072000D01*
X138935000Y-80182000D01*
X138980000Y-80289000D01*
X139032000Y-80393000D01*
X139090000Y-80494000D01*
X139154000Y-80591000D01*
X139225000Y-80683000D01*
X139300000Y-80772000D01*
X139381000Y-80855000D01*
X139467000Y-80933000D01*
X139550000Y-81000000D01*
X139550000Y-81950000D01*
X137900000Y-81950000D01*
X137900000Y-77050000D01*
X139550000Y-77050000D01*
X139550000Y-78000000D01*
G36*
X139550000Y-78000000D02*
G01*
X139467000Y-78067000D01*
X139381000Y-78145000D01*
X139300000Y-78228000D01*
X139225000Y-78317000D01*
X139154000Y-78409000D01*
X139090000Y-78506000D01*
X139032000Y-78607000D01*
X138980000Y-78711000D01*
X138935000Y-78818000D01*
X138896000Y-78928000D01*
X138864000Y-79040000D01*
X138839000Y-79153000D01*
X138821000Y-79268000D01*
X138811000Y-79384000D01*
X138807000Y-79500000D01*
X138811000Y-79616000D01*
X138821000Y-79732000D01*
X138839000Y-79847000D01*
X138864000Y-79960000D01*
X138896000Y-80072000D01*
X138935000Y-80182000D01*
X138980000Y-80289000D01*
X139032000Y-80393000D01*
X139090000Y-80494000D01*
X139154000Y-80591000D01*
X139225000Y-80683000D01*
X139300000Y-80772000D01*
X139381000Y-80855000D01*
X139467000Y-80933000D01*
X139550000Y-81000000D01*
X139550000Y-81950000D01*
X137900000Y-81950000D01*
X137900000Y-77050000D01*
X139550000Y-77050000D01*
X139550000Y-78000000D01*
G37*
X143600000Y-81950000D02*
X141950000Y-81950000D01*
X141950000Y-81000000D01*
X142033000Y-80933000D01*
X142119000Y-80855000D01*
X142200000Y-80772000D01*
X142275000Y-80683000D01*
X142346000Y-80591000D01*
X142410000Y-80494000D01*
X142468000Y-80393000D01*
X142520000Y-80289000D01*
X142565000Y-80182000D01*
X142604000Y-80072000D01*
X142636000Y-79960000D01*
X142661000Y-79847000D01*
X142679000Y-79732000D01*
X142689000Y-79616000D01*
X142693000Y-79500000D01*
X142689000Y-79384000D01*
X142679000Y-79268000D01*
X142661000Y-79153000D01*
X142636000Y-79040000D01*
X142604000Y-78928000D01*
X142565000Y-78818000D01*
X142520000Y-78711000D01*
X142468000Y-78607000D01*
X142410000Y-78506000D01*
X142346000Y-78409000D01*
X142275000Y-78317000D01*
X142200000Y-78228000D01*
X142119000Y-78145000D01*
X142033000Y-78067000D01*
X141950000Y-78000000D01*
X141950000Y-77050000D01*
X143600000Y-77050000D01*
X143600000Y-81950000D01*
G36*
X143600000Y-81950000D02*
G01*
X141950000Y-81950000D01*
X141950000Y-81000000D01*
X142033000Y-80933000D01*
X142119000Y-80855000D01*
X142200000Y-80772000D01*
X142275000Y-80683000D01*
X142346000Y-80591000D01*
X142410000Y-80494000D01*
X142468000Y-80393000D01*
X142520000Y-80289000D01*
X142565000Y-80182000D01*
X142604000Y-80072000D01*
X142636000Y-79960000D01*
X142661000Y-79847000D01*
X142679000Y-79732000D01*
X142689000Y-79616000D01*
X142693000Y-79500000D01*
X142689000Y-79384000D01*
X142679000Y-79268000D01*
X142661000Y-79153000D01*
X142636000Y-79040000D01*
X142604000Y-78928000D01*
X142565000Y-78818000D01*
X142520000Y-78711000D01*
X142468000Y-78607000D01*
X142410000Y-78506000D01*
X142346000Y-78409000D01*
X142275000Y-78317000D01*
X142200000Y-78228000D01*
X142119000Y-78145000D01*
X142033000Y-78067000D01*
X141950000Y-78000000D01*
X141950000Y-77050000D01*
X143600000Y-77050000D01*
X143600000Y-81950000D01*
G37*
D15*
%TO.C,PS3*%
X123890000Y-131465000D02*
X122690000Y-131465000D01*
X122690000Y-127535000D01*
X123890000Y-127535000D01*
X123890000Y-131465000D01*
G36*
X123890000Y-131465000D02*
G01*
X122690000Y-131465000D01*
X122690000Y-127535000D01*
X123890000Y-127535000D01*
X123890000Y-131465000D01*
G37*
X122890000Y-128900000D02*
X122890000Y-130100000D01*
X122890000Y-131100000D01*
X120600000Y-131100000D01*
X120600000Y-127900000D01*
X122890000Y-127900000D01*
X122890000Y-128900000D01*
G36*
X122890000Y-128900000D02*
G01*
X122890000Y-130100000D01*
X122890000Y-131100000D01*
X120600000Y-131100000D01*
X120600000Y-127900000D01*
X122890000Y-127900000D01*
X122890000Y-128900000D01*
G37*
X129710000Y-131465000D02*
X128510000Y-131465000D01*
X128510000Y-127535000D01*
X129710000Y-127535000D01*
X129710000Y-131465000D01*
G36*
X129710000Y-131465000D02*
G01*
X128510000Y-131465000D01*
X128510000Y-127535000D01*
X129710000Y-127535000D01*
X129710000Y-131465000D01*
G37*
X131800000Y-131100000D02*
X129510000Y-131100000D01*
X129510000Y-130100000D01*
X129510000Y-128900000D01*
X129510000Y-127900000D01*
X131800000Y-127900000D01*
X131800000Y-131100000D01*
G36*
X131800000Y-131100000D02*
G01*
X129510000Y-131100000D01*
X129510000Y-130100000D01*
X129510000Y-128900000D01*
X129510000Y-127900000D01*
X131800000Y-127900000D01*
X131800000Y-131100000D01*
G37*
%TD*%
D16*
%TO.C,WirePad8*%
X135600000Y-149900000D03*
%TD*%
D17*
%TO.C,C12*%
X145000000Y-117700000D03*
X145000000Y-125200000D03*
%TD*%
D18*
%TO.C,U2*%
X114580000Y-82900000D03*
D19*
X112040000Y-82900000D03*
X109500000Y-82900000D03*
X109500000Y-90520000D03*
X112040000Y-90520000D03*
X114580000Y-90520000D03*
%TD*%
D20*
%TO.C,MOV1*%
X110000000Y-119100000D03*
X117500000Y-119100000D03*
%TD*%
D21*
%TO.C,T1*%
X108500000Y-149940000D03*
D22*
X108500000Y-147400000D03*
X108500000Y-144860000D03*
%TD*%
D23*
%TO.C,MH2*%
X156750000Y-47250000D03*
%TD*%
D24*
%TO.C,MT1*%
X135000000Y-97500000D03*
D25*
X135000000Y-102500000D03*
X120500000Y-97500000D03*
X120500000Y-102500000D03*
X120500000Y-100000000D03*
D26*
X128000000Y-94300000D03*
X128000000Y-105700000D03*
%TD*%
D21*
%TO.C,T3*%
X131400000Y-149940000D03*
D22*
X131400000Y-147400000D03*
X131400000Y-144860000D03*
%TD*%
D27*
%TO.C,LF1*%
X139100000Y-110700000D03*
X129100000Y-110700000D03*
X129100000Y-123700000D03*
X139100000Y-123700000D03*
%TD*%
D16*
%TO.C,WirePad4*%
X113300000Y-150000000D03*
%TD*%
D28*
%TO.C,C4*%
X123900000Y-124700000D03*
X123900000Y-109700000D03*
%TD*%
D23*
%TO.C,MH3*%
X156750000Y-149750000D03*
%TD*%
D29*
%TO.C,ESP2*%
X104320000Y-73200000D03*
D30*
X106860000Y-73200000D03*
X109400000Y-73200000D03*
X111940000Y-73200000D03*
X114480000Y-73200000D03*
X117020000Y-73200000D03*
X119560000Y-73200000D03*
X122100000Y-73200000D03*
X124640000Y-73200000D03*
X127180000Y-73200000D03*
X129720000Y-73200000D03*
X132260000Y-73200000D03*
X134800000Y-73200000D03*
X137340000Y-73200000D03*
X139880000Y-73200000D03*
X142420000Y-73200000D03*
X144960000Y-73200000D03*
X147500000Y-73200000D03*
X150040000Y-73200000D03*
X104320000Y-47800000D03*
X106860000Y-47800000D03*
X109400000Y-47800000D03*
X111940000Y-47800000D03*
X114480000Y-47800000D03*
X117020000Y-47800000D03*
X119560000Y-47800000D03*
X122100000Y-47800000D03*
X124640000Y-47800000D03*
X127180000Y-47800000D03*
X129720000Y-47800000D03*
X132260000Y-47800000D03*
X134800000Y-47800000D03*
X137340000Y-47800000D03*
X139880000Y-47800000D03*
X142420000Y-47800000D03*
X144960000Y-47800000D03*
X147500000Y-47800000D03*
X150040000Y-47800000D03*
%TD*%
D31*
%TO.C,C7*%
X111200000Y-106300000D03*
D17*
X116200000Y-106300000D03*
%TD*%
D32*
%TO.C,F1*%
X101100000Y-101825000D03*
X101100000Y-125575000D03*
%TD*%
D23*
%TO.C,MH1*%
X99250000Y-47250000D03*
%TD*%
D18*
%TO.C,U3*%
X127400000Y-82680000D03*
D19*
X124860000Y-82680000D03*
X122320000Y-82680000D03*
X122320000Y-90300000D03*
X124860000Y-90300000D03*
X127400000Y-90300000D03*
%TD*%
D33*
%TO.C,C15*%
X146800000Y-147200000D03*
D34*
X150300000Y-147200000D03*
%TD*%
D16*
%TO.C,WirePad2*%
X98500000Y-142700000D03*
%TD*%
D17*
%TO.C,C5*%
X106050000Y-97000000D03*
X98550000Y-97000000D03*
%TD*%
D21*
%TO.C,T2*%
X120300000Y-149900000D03*
D22*
X120300000Y-147360000D03*
X120300000Y-144820000D03*
%TD*%
D16*
%TO.C,WirePad6*%
X124400000Y-149900000D03*
%TD*%
%TO.C,WirePad1*%
X98300000Y-133200000D03*
%TD*%
D17*
%TO.C,C6*%
X109800000Y-97400000D03*
X117300000Y-97400000D03*
%TD*%
D31*
%TO.C,C13*%
X139400000Y-137200000D03*
D17*
X144400000Y-137200000D03*
%TD*%
D18*
%TO.C,U1*%
X102900000Y-82680000D03*
D19*
X100360000Y-82680000D03*
X97820000Y-82680000D03*
X97820000Y-90300000D03*
X100360000Y-90300000D03*
X102900000Y-90300000D03*
%TD*%
D16*
%TO.C,WirePad3*%
X141300000Y-149900000D03*
%TD*%
D23*
%TO.C,MH4*%
X99250000Y-149750000D03*
%TD*%
D35*
%TO.C,C28*%
X158400000Y-67762500D03*
X158400000Y-69837500D03*
%TD*%
%TO.C,C35*%
X146500000Y-59762500D03*
X146500000Y-61837500D03*
%TD*%
D36*
%TO.C,C27*%
X138500000Y-61837500D03*
X138500000Y-59762500D03*
%TD*%
D37*
%TO.C,C18*%
X131500000Y-117312500D03*
X131500000Y-114187500D03*
%TD*%
D38*
%TO.C,C14*%
X123825000Y-120425000D03*
X125900000Y-120425000D03*
%TD*%
D39*
%TO.C,MAX3*%
X158237500Y-54637500D03*
X158237500Y-55287500D03*
X158237500Y-55937500D03*
X158237500Y-56587500D03*
X158237500Y-57237500D03*
D40*
X157100000Y-58375000D03*
X156450000Y-58375000D03*
X155800000Y-58375000D03*
X155150000Y-58375000D03*
X154500000Y-58375000D03*
D39*
X153362500Y-57237500D03*
X153362500Y-56587500D03*
X153362500Y-55937500D03*
X153362500Y-55287500D03*
X153362500Y-54637500D03*
D40*
X154500000Y-53500000D03*
X155150000Y-53500000D03*
X155800000Y-53500000D03*
X156450000Y-53500000D03*
X157100000Y-53500000D03*
D41*
X155800000Y-55937500D03*
%TD*%
D36*
%TO.C,R14*%
X114200000Y-67175000D03*
X114200000Y-65100000D03*
%TD*%
D42*
%TO.C,R18*%
X140575000Y-95100000D03*
X138500000Y-95100000D03*
%TD*%
D36*
%TO.C,R15*%
X140500000Y-116750000D03*
X140500000Y-114675000D03*
%TD*%
D35*
%TO.C,C31*%
X132200000Y-51625000D03*
X132200000Y-53700000D03*
%TD*%
D36*
%TO.C,R11*%
X109200000Y-61200000D03*
X109200000Y-59125000D03*
%TD*%
D35*
%TO.C,R21*%
X132240000Y-56877500D03*
X132240000Y-58952500D03*
%TD*%
D37*
%TO.C,C20*%
X124750000Y-117375000D03*
X124750000Y-114250000D03*
%TD*%
D36*
%TO.C,R12*%
X111200000Y-67100000D03*
X111200000Y-65025000D03*
%TD*%
%TO.C,R23*%
X158147500Y-64837500D03*
X158147500Y-62762500D03*
%TD*%
D43*
%TO.C,C10*%
X132375000Y-124900000D03*
X135500000Y-124900000D03*
%TD*%
D44*
%TO.C,L2*%
X144800000Y-100300000D03*
X144800000Y-106100000D03*
%TD*%
D35*
%TO.C,R25*%
X149200000Y-62462500D03*
X149200000Y-64537500D03*
%TD*%
D45*
%TO.C,J2*%
X158100000Y-99900000D03*
X158100000Y-89900000D03*
X155600000Y-99900000D03*
X155600000Y-89900000D03*
X150600000Y-94900000D03*
D46*
X155600000Y-94900000D03*
D47*
X150600000Y-99900000D03*
X150600000Y-89900000D03*
%TD*%
D45*
%TO.C,J3*%
X158100000Y-113450000D03*
X158100000Y-103450000D03*
X155600000Y-113450000D03*
X155600000Y-103450000D03*
X150600000Y-108450000D03*
D46*
X155600000Y-108450000D03*
D47*
X150600000Y-113450000D03*
X150600000Y-103450000D03*
%TD*%
D45*
%TO.C,J4*%
X158100000Y-126950000D03*
X158100000Y-116950000D03*
X155600000Y-126950000D03*
X155600000Y-116950000D03*
X150600000Y-121950000D03*
D46*
X155600000Y-121950000D03*
D47*
X150600000Y-126950000D03*
X150600000Y-116950000D03*
%TD*%
D39*
%TO.C,MAX1*%
X129402500Y-54240000D03*
X129402500Y-54890000D03*
X129402500Y-55540000D03*
X129402500Y-56190000D03*
X129402500Y-56840000D03*
D40*
X128265000Y-57977500D03*
X127615000Y-57977500D03*
X126965000Y-57977500D03*
X126315000Y-57977500D03*
X125665000Y-57977500D03*
D39*
X124527500Y-56840000D03*
X124527500Y-56190000D03*
X124527500Y-55540000D03*
X124527500Y-54890000D03*
X124527500Y-54240000D03*
D40*
X125665000Y-53102500D03*
X126315000Y-53102500D03*
X126965000Y-53102500D03*
X127615000Y-53102500D03*
X128265000Y-53102500D03*
D41*
X126965000Y-55540000D03*
%TD*%
D36*
%TO.C,R20*%
X134500000Y-116787500D03*
X134500000Y-114712500D03*
%TD*%
%TO.C,C17*%
X146700000Y-95575000D03*
X146700000Y-93500000D03*
%TD*%
D48*
%TO.C,DIO1*%
X142875000Y-83600000D03*
X142875000Y-84550000D03*
X142875000Y-85500000D03*
X140600000Y-85500000D03*
X140600000Y-84550000D03*
X140600000Y-83600000D03*
%TD*%
D49*
%TO.C,C9*%
X144800000Y-87600000D03*
X144800000Y-89325000D03*
%TD*%
D42*
%TO.C,R13*%
X140675000Y-91800000D03*
X138600000Y-91800000D03*
%TD*%
D36*
%TO.C,R19*%
X137750000Y-116787500D03*
X137750000Y-114712500D03*
%TD*%
D49*
%TO.C,C8*%
X147100000Y-87875000D03*
X147100000Y-89600000D03*
%TD*%
D37*
%TO.C,C19*%
X128250000Y-117312500D03*
X128250000Y-114187500D03*
%TD*%
D36*
%TO.C,C21*%
X135400000Y-54337500D03*
X135400000Y-52262500D03*
%TD*%
D50*
%TO.C,PS2*%
X137100000Y-119300000D03*
X137100000Y-120250000D03*
X137100000Y-121200000D03*
X134590000Y-121200000D03*
X134590000Y-120250000D03*
X134590000Y-119300000D03*
%TD*%
D39*
%TO.C,MAX2*%
X146327500Y-54502500D03*
X146327500Y-55152500D03*
X146327500Y-55802500D03*
X146327500Y-56452500D03*
X146327500Y-57102500D03*
D40*
X145190000Y-58240000D03*
X144540000Y-58240000D03*
X143890000Y-58240000D03*
X143240000Y-58240000D03*
X142590000Y-58240000D03*
D39*
X141452500Y-57102500D03*
X141452500Y-56452500D03*
X141452500Y-55802500D03*
X141452500Y-55152500D03*
X141452500Y-54502500D03*
D40*
X142590000Y-53365000D03*
X143240000Y-53365000D03*
X143890000Y-53365000D03*
X144540000Y-53365000D03*
X145190000Y-53365000D03*
D41*
X143890000Y-55802500D03*
%TD*%
D35*
%TO.C,R24*%
X131750000Y-67425000D03*
X131750000Y-69500000D03*
%TD*%
D45*
%TO.C,J5*%
X158100000Y-140500000D03*
X158100000Y-130500000D03*
X155600000Y-140500000D03*
X155600000Y-130500000D03*
X150600000Y-135500000D03*
D46*
X155600000Y-135500000D03*
D47*
X150600000Y-140500000D03*
X150600000Y-130500000D03*
%TD*%
D51*
%TO.C,R16*%
X138000000Y-85900000D03*
X138000000Y-87725000D03*
%TD*%
D38*
%TO.C,C34*%
X126262500Y-61000000D03*
X128337500Y-61000000D03*
%TD*%
D42*
%TO.C,C24*%
X122037500Y-62800000D03*
X119962500Y-62800000D03*
%TD*%
D45*
%TO.C,J1*%
X158100000Y-86300000D03*
X158100000Y-76300000D03*
X155600000Y-86300000D03*
X155600000Y-76300000D03*
X150600000Y-81300000D03*
D46*
X155600000Y-81300000D03*
D47*
X150600000Y-86300000D03*
X150600000Y-76300000D03*
%TD*%
D42*
%TO.C,C22*%
X146600000Y-50200000D03*
X144525000Y-50200000D03*
%TD*%
D38*
%TO.C,C25*%
X141800000Y-61700000D03*
X143875000Y-61700000D03*
%TD*%
D35*
%TO.C,C32*%
X149500000Y-51500000D03*
X149500000Y-53575000D03*
%TD*%
%TO.C,C26*%
X122025000Y-57525000D03*
X122025000Y-59600000D03*
%TD*%
D52*
%TO.C,D2*%
X143800000Y-93800000D03*
X143800000Y-97280000D03*
%TD*%
D35*
%TO.C,C33*%
X154800000Y-68362500D03*
X154800000Y-70437500D03*
%TD*%
D42*
%TO.C,C30*%
X145337500Y-70500000D03*
X143262500Y-70500000D03*
%TD*%
%TO.C,C29*%
X129237500Y-70900000D03*
X127162500Y-70900000D03*
%TD*%
D35*
%TO.C,R10*%
X113000000Y-59800000D03*
X113000000Y-61875000D03*
%TD*%
D39*
%TO.C,MAX5*%
X146347500Y-64490000D03*
X146347500Y-65140000D03*
X146347500Y-65790000D03*
X146347500Y-66440000D03*
X146347500Y-67090000D03*
D40*
X145210000Y-68227500D03*
X144560000Y-68227500D03*
X143910000Y-68227500D03*
X143260000Y-68227500D03*
X142610000Y-68227500D03*
D39*
X141472500Y-67090000D03*
X141472500Y-66440000D03*
X141472500Y-65790000D03*
X141472500Y-65140000D03*
X141472500Y-64490000D03*
D40*
X142610000Y-63352500D03*
X143260000Y-63352500D03*
X143910000Y-63352500D03*
X144560000Y-63352500D03*
X145210000Y-63352500D03*
D41*
X143910000Y-65790000D03*
%TD*%
D42*
%TO.C,C16*%
X144937500Y-91600000D03*
X142862500Y-91600000D03*
%TD*%
D38*
%TO.C,C11*%
X129362500Y-120400000D03*
X131437500Y-120400000D03*
%TD*%
D36*
%TO.C,C23*%
X155100000Y-64400000D03*
X155100000Y-62325000D03*
%TD*%
D53*
%TO.C,R17*%
X141550000Y-98700000D03*
X138450000Y-98700000D03*
%TD*%
D35*
%TO.C,R22*%
X149447500Y-56862500D03*
X149447500Y-58937500D03*
%TD*%
D39*
%TO.C,MAX4*%
X129275000Y-64100000D03*
X129275000Y-64750000D03*
X129275000Y-65400000D03*
X129275000Y-66050000D03*
X129275000Y-66700000D03*
D40*
X128137500Y-67837500D03*
X127487500Y-67837500D03*
X126837500Y-67837500D03*
X126187500Y-67837500D03*
X125537500Y-67837500D03*
D39*
X124400000Y-66700000D03*
X124400000Y-66050000D03*
X124400000Y-65400000D03*
X124400000Y-64750000D03*
X124400000Y-64100000D03*
D40*
X125537500Y-62962500D03*
X126187500Y-62962500D03*
X126837500Y-62962500D03*
X127487500Y-62962500D03*
X128137500Y-62962500D03*
D41*
X126837500Y-65400000D03*
%TD*%
D54*
%TO.C,PS3*%
X110200000Y-129500000D03*
X114200000Y-129500000D03*
X134200000Y-129500000D03*
X118200000Y-129500000D03*
%TD*%
%LPD*%
M02*
