%TF.GenerationSoftware,KiCad,Pcbnew,10.0.1*%
%TF.CreationDate,2026-05-02T00:01:45-05:00*%
%TF.ProjectId,PelletPirate-rev2026-01-ESP32-DevKitC-32E,50656c6c-6574-4506-9972-6174652d7265,rev?*%
%TF.SameCoordinates,Original*%
%TF.FileFunction,Legend,Top*%
%TF.FilePolarity,Positive*%
%FSLAX46Y46*%
G04 Gerber Fmt 4.6, Leading zero omitted, Abs format (unit mm)*
G04 Created by KiCad (PCBNEW 10.0.1) date 2026-05-02 00:01:45*
%MOMM*%
%LPD*%
G01*
G04 APERTURE LIST*
G04 Aperture macros list*
%AMRoundRect*
0 Rectangle with rounded corners*
0 $1 Rounding radius*
0 $2 $3 $4 $5 $6 $7 $8 $9 X,Y pos of 4 corners*
0 Add a 4 corners polygon primitive as box body*
4,1,4,$2,$3,$4,$5,$6,$7,$8,$9,$2,$3,0*
0 Add four circle primitives for the rounded corners*
1,1,$1+$1,$2,$3*
1,1,$1+$1,$4,$5*
1,1,$1+$1,$6,$7*
1,1,$1+$1,$8,$9*
0 Add four rect primitives between the rounded corners*
20,1,$1+$1,$2,$3,$4,$5,0*
20,1,$1+$1,$4,$5,$6,$7,0*
20,1,$1+$1,$6,$7,$8,$9,0*
20,1,$1+$1,$8,$9,$2,$3,0*%
G04 Aperture macros list end*
%ADD10C,0.150000*%
%ADD11C,0.200000*%
%ADD12C,0.120000*%
%ADD13C,0.127000*%
%ADD14C,0.100000*%
%ADD15C,0.152400*%
%ADD16C,0.010000*%
%ADD17RoundRect,0.250000X0.475000X-0.337500X0.475000X0.337500X-0.475000X0.337500X-0.475000X-0.337500X0*%
%ADD18RoundRect,0.250000X-1.325000X-1.325000X1.325000X-1.325000X1.325000X1.325000X-1.325000X1.325000X0*%
%ADD19C,2.000000*%
%ADD20RoundRect,0.102000X-0.624000X0.624000X-0.624000X-0.624000X0.624000X-0.624000X0.624000X0.624000X0*%
%ADD21C,1.452000*%
%ADD22C,1.800000*%
%ADD23R,2.000000X1.905000*%
%ADD24O,2.000000X1.905000*%
%ADD25C,3.200000*%
%ADD26RoundRect,0.102000X-0.825000X0.825000X-0.825000X-0.825000X0.825000X-0.825000X0.825000X0.825000X0*%
%ADD27C,1.854000*%
%ADD28O,6.204000X3.204000*%
%ADD29RoundRect,0.250000X-0.337500X-0.475000X0.337500X-0.475000X0.337500X0.475000X-0.337500X0.475000X0*%
%ADD30C,2.540000*%
%ADD31C,1.554000*%
%ADD32RoundRect,0.267260X-0.894740X0.924740X-0.894740X-0.924740X0.894740X-0.924740X0.894740X0.924740X0*%
%ADD33RoundRect,0.102000X0.704000X-0.704000X0.704000X0.704000X-0.704000X0.704000X-0.704000X-0.704000X0*%
%ADD34C,1.612000*%
%ADD35RoundRect,0.250000X-0.750000X-0.750000X0.750000X-0.750000X0.750000X0.750000X-0.750000X0.750000X0*%
%ADD36C,2.154000*%
%ADD37RoundRect,0.250000X-0.475000X0.337500X-0.475000X-0.337500X0.475000X-0.337500X0.475000X0.337500X0*%
%ADD38RoundRect,0.250000X-0.550000X-0.550000X0.550000X-0.550000X0.550000X0.550000X-0.550000X0.550000X0*%
%ADD39C,1.600000*%
%ADD40RoundRect,0.102000X-0.110000X-0.270000X0.110000X-0.270000X0.110000X0.270000X-0.110000X0.270000X0*%
%ADD41RoundRect,0.102000X-0.110000X-0.265000X0.110000X-0.265000X0.110000X0.265000X-0.110000X0.265000X0*%
%ADD42RoundRect,0.250000X0.425000X1.425000X-0.425000X1.425000X-0.425000X-1.425000X0.425000X-1.425000X0*%
%ADD43C,1.200000*%
%ADD44O,1.512000X2.820000*%
%ADD45O,2.820000X1.512000*%
%ADD46RoundRect,0.102000X-1.500000X-1.500000X1.500000X-1.500000X1.500000X1.500000X-1.500000X1.500000X0*%
G04 APERTURE END LIST*
D10*
X118983333Y-82979819D02*
X118650000Y-82503628D01*
X118411905Y-82979819D02*
X118411905Y-81979819D01*
X118411905Y-81979819D02*
X118792857Y-81979819D01*
X118792857Y-81979819D02*
X118888095Y-82027438D01*
X118888095Y-82027438D02*
X118935714Y-82075057D01*
X118935714Y-82075057D02*
X118983333Y-82170295D01*
X118983333Y-82170295D02*
X118983333Y-82313152D01*
X118983333Y-82313152D02*
X118935714Y-82408390D01*
X118935714Y-82408390D02*
X118888095Y-82456009D01*
X118888095Y-82456009D02*
X118792857Y-82503628D01*
X118792857Y-82503628D02*
X118411905Y-82503628D01*
X119888095Y-81979819D02*
X119411905Y-81979819D01*
X119411905Y-81979819D02*
X119364286Y-82456009D01*
X119364286Y-82456009D02*
X119411905Y-82408390D01*
X119411905Y-82408390D02*
X119507143Y-82360771D01*
X119507143Y-82360771D02*
X119745238Y-82360771D01*
X119745238Y-82360771D02*
X119840476Y-82408390D01*
X119840476Y-82408390D02*
X119888095Y-82456009D01*
X119888095Y-82456009D02*
X119935714Y-82551247D01*
X119935714Y-82551247D02*
X119935714Y-82789342D01*
X119935714Y-82789342D02*
X119888095Y-82884580D01*
X119888095Y-82884580D02*
X119840476Y-82932200D01*
X119840476Y-82932200D02*
X119745238Y-82979819D01*
X119745238Y-82979819D02*
X119507143Y-82979819D01*
X119507143Y-82979819D02*
X119411905Y-82932200D01*
X119411905Y-82932200D02*
X119364286Y-82884580D01*
X118383333Y-92317319D02*
X118050000Y-91841128D01*
X117811905Y-92317319D02*
X117811905Y-91317319D01*
X117811905Y-91317319D02*
X118192857Y-91317319D01*
X118192857Y-91317319D02*
X118288095Y-91364938D01*
X118288095Y-91364938D02*
X118335714Y-91412557D01*
X118335714Y-91412557D02*
X118383333Y-91507795D01*
X118383333Y-91507795D02*
X118383333Y-91650652D01*
X118383333Y-91650652D02*
X118335714Y-91745890D01*
X118335714Y-91745890D02*
X118288095Y-91793509D01*
X118288095Y-91793509D02*
X118192857Y-91841128D01*
X118192857Y-91841128D02*
X117811905Y-91841128D01*
X118954762Y-91745890D02*
X118859524Y-91698271D01*
X118859524Y-91698271D02*
X118811905Y-91650652D01*
X118811905Y-91650652D02*
X118764286Y-91555414D01*
X118764286Y-91555414D02*
X118764286Y-91507795D01*
X118764286Y-91507795D02*
X118811905Y-91412557D01*
X118811905Y-91412557D02*
X118859524Y-91364938D01*
X118859524Y-91364938D02*
X118954762Y-91317319D01*
X118954762Y-91317319D02*
X119145238Y-91317319D01*
X119145238Y-91317319D02*
X119240476Y-91364938D01*
X119240476Y-91364938D02*
X119288095Y-91412557D01*
X119288095Y-91412557D02*
X119335714Y-91507795D01*
X119335714Y-91507795D02*
X119335714Y-91555414D01*
X119335714Y-91555414D02*
X119288095Y-91650652D01*
X119288095Y-91650652D02*
X119240476Y-91698271D01*
X119240476Y-91698271D02*
X119145238Y-91745890D01*
X119145238Y-91745890D02*
X118954762Y-91745890D01*
X118954762Y-91745890D02*
X118859524Y-91793509D01*
X118859524Y-91793509D02*
X118811905Y-91841128D01*
X118811905Y-91841128D02*
X118764286Y-91936366D01*
X118764286Y-91936366D02*
X118764286Y-92126842D01*
X118764286Y-92126842D02*
X118811905Y-92222080D01*
X118811905Y-92222080D02*
X118859524Y-92269700D01*
X118859524Y-92269700D02*
X118954762Y-92317319D01*
X118954762Y-92317319D02*
X119145238Y-92317319D01*
X119145238Y-92317319D02*
X119240476Y-92269700D01*
X119240476Y-92269700D02*
X119288095Y-92222080D01*
X119288095Y-92222080D02*
X119335714Y-92126842D01*
X119335714Y-92126842D02*
X119335714Y-91936366D01*
X119335714Y-91936366D02*
X119288095Y-91841128D01*
X119288095Y-91841128D02*
X119240476Y-91793509D01*
X119240476Y-91793509D02*
X119145238Y-91745890D01*
X142685714Y-116086104D02*
X142647618Y-116124200D01*
X142647618Y-116124200D02*
X142533333Y-116162295D01*
X142533333Y-116162295D02*
X142457142Y-116162295D01*
X142457142Y-116162295D02*
X142342856Y-116124200D01*
X142342856Y-116124200D02*
X142266666Y-116048009D01*
X142266666Y-116048009D02*
X142228571Y-115971819D01*
X142228571Y-115971819D02*
X142190475Y-115819438D01*
X142190475Y-115819438D02*
X142190475Y-115705152D01*
X142190475Y-115705152D02*
X142228571Y-115552771D01*
X142228571Y-115552771D02*
X142266666Y-115476580D01*
X142266666Y-115476580D02*
X142342856Y-115400390D01*
X142342856Y-115400390D02*
X142457142Y-115362295D01*
X142457142Y-115362295D02*
X142533333Y-115362295D01*
X142533333Y-115362295D02*
X142647618Y-115400390D01*
X142647618Y-115400390D02*
X142685714Y-115438485D01*
X143447618Y-116162295D02*
X142990475Y-116162295D01*
X143219047Y-116162295D02*
X143219047Y-115362295D01*
X143219047Y-115362295D02*
X143142856Y-115476580D01*
X143142856Y-115476580D02*
X143066666Y-115552771D01*
X143066666Y-115552771D02*
X142990475Y-115590866D01*
X143752380Y-115438485D02*
X143790476Y-115400390D01*
X143790476Y-115400390D02*
X143866666Y-115362295D01*
X143866666Y-115362295D02*
X144057142Y-115362295D01*
X144057142Y-115362295D02*
X144133333Y-115400390D01*
X144133333Y-115400390D02*
X144171428Y-115438485D01*
X144171428Y-115438485D02*
X144209523Y-115514676D01*
X144209523Y-115514676D02*
X144209523Y-115590866D01*
X144209523Y-115590866D02*
X144171428Y-115705152D01*
X144171428Y-115705152D02*
X143714285Y-116162295D01*
X143714285Y-116162295D02*
X144209523Y-116162295D01*
X116754819Y-83761904D02*
X117564342Y-83761904D01*
X117564342Y-83761904D02*
X117659580Y-83714285D01*
X117659580Y-83714285D02*
X117707200Y-83666666D01*
X117707200Y-83666666D02*
X117754819Y-83571428D01*
X117754819Y-83571428D02*
X117754819Y-83380952D01*
X117754819Y-83380952D02*
X117707200Y-83285714D01*
X117707200Y-83285714D02*
X117659580Y-83238095D01*
X117659580Y-83238095D02*
X117564342Y-83190476D01*
X117564342Y-83190476D02*
X116754819Y-83190476D01*
X116850057Y-82761904D02*
X116802438Y-82714285D01*
X116802438Y-82714285D02*
X116754819Y-82619047D01*
X116754819Y-82619047D02*
X116754819Y-82380952D01*
X116754819Y-82380952D02*
X116802438Y-82285714D01*
X116802438Y-82285714D02*
X116850057Y-82238095D01*
X116850057Y-82238095D02*
X116945295Y-82190476D01*
X116945295Y-82190476D02*
X117040533Y-82190476D01*
X117040533Y-82190476D02*
X117183390Y-82238095D01*
X117183390Y-82238095D02*
X117754819Y-82809523D01*
X117754819Y-82809523D02*
X117754819Y-82190476D01*
X110140476Y-142522295D02*
X110597619Y-142522295D01*
X110369047Y-143322295D02*
X110369047Y-142522295D01*
X111283333Y-143322295D02*
X110826190Y-143322295D01*
X111054762Y-143322295D02*
X111054762Y-142522295D01*
X111054762Y-142522295D02*
X110978571Y-142636580D01*
X110978571Y-142636580D02*
X110902381Y-142712771D01*
X110902381Y-142712771D02*
X110826190Y-142750866D01*
X137454819Y-99440475D02*
X136454819Y-99440475D01*
X136454819Y-99440475D02*
X137169104Y-99107142D01*
X137169104Y-99107142D02*
X136454819Y-98773809D01*
X136454819Y-98773809D02*
X137454819Y-98773809D01*
X136454819Y-98440475D02*
X136454819Y-97869047D01*
X137454819Y-98154761D02*
X136454819Y-98154761D01*
X137454819Y-97011904D02*
X137454819Y-97583332D01*
X137454819Y-97297618D02*
X136454819Y-97297618D01*
X136454819Y-97297618D02*
X136597676Y-97392856D01*
X136597676Y-97392856D02*
X136692914Y-97488094D01*
X136692914Y-97488094D02*
X136740533Y-97583332D01*
X98185714Y-75162295D02*
X97919047Y-74781342D01*
X97728571Y-75162295D02*
X97728571Y-74362295D01*
X97728571Y-74362295D02*
X98033333Y-74362295D01*
X98033333Y-74362295D02*
X98109523Y-74400390D01*
X98109523Y-74400390D02*
X98147618Y-74438485D01*
X98147618Y-74438485D02*
X98185714Y-74514676D01*
X98185714Y-74514676D02*
X98185714Y-74628961D01*
X98185714Y-74628961D02*
X98147618Y-74705152D01*
X98147618Y-74705152D02*
X98109523Y-74743247D01*
X98109523Y-74743247D02*
X98033333Y-74781342D01*
X98033333Y-74781342D02*
X97728571Y-74781342D01*
X98490475Y-74438485D02*
X98528571Y-74400390D01*
X98528571Y-74400390D02*
X98604761Y-74362295D01*
X98604761Y-74362295D02*
X98795237Y-74362295D01*
X98795237Y-74362295D02*
X98871428Y-74400390D01*
X98871428Y-74400390D02*
X98909523Y-74438485D01*
X98909523Y-74438485D02*
X98947618Y-74514676D01*
X98947618Y-74514676D02*
X98947618Y-74590866D01*
X98947618Y-74590866D02*
X98909523Y-74705152D01*
X98909523Y-74705152D02*
X98452380Y-75162295D01*
X98452380Y-75162295D02*
X98947618Y-75162295D01*
X99214285Y-74362295D02*
X99747619Y-74362295D01*
X99747619Y-74362295D02*
X99404761Y-75162295D01*
X132990476Y-142462295D02*
X133447619Y-142462295D01*
X133219047Y-143262295D02*
X133219047Y-142462295D01*
X133638095Y-142462295D02*
X134133333Y-142462295D01*
X134133333Y-142462295D02*
X133866667Y-142767057D01*
X133866667Y-142767057D02*
X133980952Y-142767057D01*
X133980952Y-142767057D02*
X134057143Y-142805152D01*
X134057143Y-142805152D02*
X134095238Y-142843247D01*
X134095238Y-142843247D02*
X134133333Y-142919438D01*
X134133333Y-142919438D02*
X134133333Y-143109914D01*
X134133333Y-143109914D02*
X134095238Y-143186104D01*
X134095238Y-143186104D02*
X134057143Y-143224200D01*
X134057143Y-143224200D02*
X133980952Y-143262295D01*
X133980952Y-143262295D02*
X133752381Y-143262295D01*
X133752381Y-143262295D02*
X133676190Y-143224200D01*
X133676190Y-143224200D02*
X133638095Y-143186104D01*
X120659580Y-109466666D02*
X120707200Y-109514285D01*
X120707200Y-109514285D02*
X120754819Y-109657142D01*
X120754819Y-109657142D02*
X120754819Y-109752380D01*
X120754819Y-109752380D02*
X120707200Y-109895237D01*
X120707200Y-109895237D02*
X120611961Y-109990475D01*
X120611961Y-109990475D02*
X120516723Y-110038094D01*
X120516723Y-110038094D02*
X120326247Y-110085713D01*
X120326247Y-110085713D02*
X120183390Y-110085713D01*
X120183390Y-110085713D02*
X119992914Y-110038094D01*
X119992914Y-110038094D02*
X119897676Y-109990475D01*
X119897676Y-109990475D02*
X119802438Y-109895237D01*
X119802438Y-109895237D02*
X119754819Y-109752380D01*
X119754819Y-109752380D02*
X119754819Y-109657142D01*
X119754819Y-109657142D02*
X119802438Y-109514285D01*
X119802438Y-109514285D02*
X119850057Y-109466666D01*
X120088152Y-108609523D02*
X120754819Y-108609523D01*
X119707200Y-108847618D02*
X120421485Y-109085713D01*
X120421485Y-109085713D02*
X120421485Y-108466666D01*
X147772295Y-115180475D02*
X146972295Y-115180475D01*
X146972295Y-115180475D02*
X146972295Y-114989999D01*
X146972295Y-114989999D02*
X147010390Y-114875713D01*
X147010390Y-114875713D02*
X147086580Y-114799523D01*
X147086580Y-114799523D02*
X147162771Y-114761428D01*
X147162771Y-114761428D02*
X147315152Y-114723332D01*
X147315152Y-114723332D02*
X147429438Y-114723332D01*
X147429438Y-114723332D02*
X147581819Y-114761428D01*
X147581819Y-114761428D02*
X147658009Y-114799523D01*
X147658009Y-114799523D02*
X147734200Y-114875713D01*
X147734200Y-114875713D02*
X147772295Y-114989999D01*
X147772295Y-114989999D02*
X147772295Y-115180475D01*
X147772295Y-113961428D02*
X147772295Y-114418571D01*
X147772295Y-114189999D02*
X146972295Y-114189999D01*
X146972295Y-114189999D02*
X147086580Y-114266190D01*
X147086580Y-114266190D02*
X147162771Y-114342380D01*
X147162771Y-114342380D02*
X147200866Y-114418571D01*
X102433333Y-44631009D02*
X102766666Y-44631009D01*
X102909523Y-45154819D02*
X102433333Y-45154819D01*
X102433333Y-45154819D02*
X102433333Y-44154819D01*
X102433333Y-44154819D02*
X102909523Y-44154819D01*
X103290476Y-45107200D02*
X103433333Y-45154819D01*
X103433333Y-45154819D02*
X103671428Y-45154819D01*
X103671428Y-45154819D02*
X103766666Y-45107200D01*
X103766666Y-45107200D02*
X103814285Y-45059580D01*
X103814285Y-45059580D02*
X103861904Y-44964342D01*
X103861904Y-44964342D02*
X103861904Y-44869104D01*
X103861904Y-44869104D02*
X103814285Y-44773866D01*
X103814285Y-44773866D02*
X103766666Y-44726247D01*
X103766666Y-44726247D02*
X103671428Y-44678628D01*
X103671428Y-44678628D02*
X103480952Y-44631009D01*
X103480952Y-44631009D02*
X103385714Y-44583390D01*
X103385714Y-44583390D02*
X103338095Y-44535771D01*
X103338095Y-44535771D02*
X103290476Y-44440533D01*
X103290476Y-44440533D02*
X103290476Y-44345295D01*
X103290476Y-44345295D02*
X103338095Y-44250057D01*
X103338095Y-44250057D02*
X103385714Y-44202438D01*
X103385714Y-44202438D02*
X103480952Y-44154819D01*
X103480952Y-44154819D02*
X103719047Y-44154819D01*
X103719047Y-44154819D02*
X103861904Y-44202438D01*
X104290476Y-45154819D02*
X104290476Y-44154819D01*
X104290476Y-44154819D02*
X104671428Y-44154819D01*
X104671428Y-44154819D02*
X104766666Y-44202438D01*
X104766666Y-44202438D02*
X104814285Y-44250057D01*
X104814285Y-44250057D02*
X104861904Y-44345295D01*
X104861904Y-44345295D02*
X104861904Y-44488152D01*
X104861904Y-44488152D02*
X104814285Y-44583390D01*
X104814285Y-44583390D02*
X104766666Y-44631009D01*
X104766666Y-44631009D02*
X104671428Y-44678628D01*
X104671428Y-44678628D02*
X104290476Y-44678628D01*
X105242857Y-44250057D02*
X105290476Y-44202438D01*
X105290476Y-44202438D02*
X105385714Y-44154819D01*
X105385714Y-44154819D02*
X105623809Y-44154819D01*
X105623809Y-44154819D02*
X105719047Y-44202438D01*
X105719047Y-44202438D02*
X105766666Y-44250057D01*
X105766666Y-44250057D02*
X105814285Y-44345295D01*
X105814285Y-44345295D02*
X105814285Y-44440533D01*
X105814285Y-44440533D02*
X105766666Y-44583390D01*
X105766666Y-44583390D02*
X105195238Y-45154819D01*
X105195238Y-45154819D02*
X105814285Y-45154819D01*
D11*
X129022219Y-64130326D02*
X128022219Y-64130326D01*
X128022219Y-64130326D02*
X128022219Y-63749374D01*
X128022219Y-63749374D02*
X128069838Y-63654136D01*
X128069838Y-63654136D02*
X128117457Y-63606517D01*
X128117457Y-63606517D02*
X128212695Y-63558898D01*
X128212695Y-63558898D02*
X128355552Y-63558898D01*
X128355552Y-63558898D02*
X128450790Y-63606517D01*
X128450790Y-63606517D02*
X128498409Y-63654136D01*
X128498409Y-63654136D02*
X128546028Y-63749374D01*
X128546028Y-63749374D02*
X128546028Y-64130326D01*
X128974600Y-62749374D02*
X129022219Y-62844612D01*
X129022219Y-62844612D02*
X129022219Y-63035088D01*
X129022219Y-63035088D02*
X128974600Y-63130326D01*
X128974600Y-63130326D02*
X128879361Y-63177945D01*
X128879361Y-63177945D02*
X128498409Y-63177945D01*
X128498409Y-63177945D02*
X128403171Y-63130326D01*
X128403171Y-63130326D02*
X128355552Y-63035088D01*
X128355552Y-63035088D02*
X128355552Y-62844612D01*
X128355552Y-62844612D02*
X128403171Y-62749374D01*
X128403171Y-62749374D02*
X128498409Y-62701755D01*
X128498409Y-62701755D02*
X128593647Y-62701755D01*
X128593647Y-62701755D02*
X128688885Y-63177945D01*
X129022219Y-62130326D02*
X128974600Y-62225564D01*
X128974600Y-62225564D02*
X128879361Y-62273183D01*
X128879361Y-62273183D02*
X128022219Y-62273183D01*
X129022219Y-61606516D02*
X128974600Y-61701754D01*
X128974600Y-61701754D02*
X128879361Y-61749373D01*
X128879361Y-61749373D02*
X128022219Y-61749373D01*
X128974600Y-60844611D02*
X129022219Y-60939849D01*
X129022219Y-60939849D02*
X129022219Y-61130325D01*
X129022219Y-61130325D02*
X128974600Y-61225563D01*
X128974600Y-61225563D02*
X128879361Y-61273182D01*
X128879361Y-61273182D02*
X128498409Y-61273182D01*
X128498409Y-61273182D02*
X128403171Y-61225563D01*
X128403171Y-61225563D02*
X128355552Y-61130325D01*
X128355552Y-61130325D02*
X128355552Y-60939849D01*
X128355552Y-60939849D02*
X128403171Y-60844611D01*
X128403171Y-60844611D02*
X128498409Y-60796992D01*
X128498409Y-60796992D02*
X128593647Y-60796992D01*
X128593647Y-60796992D02*
X128688885Y-61273182D01*
X128355552Y-60511277D02*
X128355552Y-60130325D01*
X128022219Y-60368420D02*
X128879361Y-60368420D01*
X128879361Y-60368420D02*
X128974600Y-60320801D01*
X128974600Y-60320801D02*
X129022219Y-60225563D01*
X129022219Y-60225563D02*
X129022219Y-60130325D01*
X129022219Y-59796991D02*
X128022219Y-59796991D01*
X128022219Y-59796991D02*
X128022219Y-59416039D01*
X128022219Y-59416039D02*
X128069838Y-59320801D01*
X128069838Y-59320801D02*
X128117457Y-59273182D01*
X128117457Y-59273182D02*
X128212695Y-59225563D01*
X128212695Y-59225563D02*
X128355552Y-59225563D01*
X128355552Y-59225563D02*
X128450790Y-59273182D01*
X128450790Y-59273182D02*
X128498409Y-59320801D01*
X128498409Y-59320801D02*
X128546028Y-59416039D01*
X128546028Y-59416039D02*
X128546028Y-59796991D01*
X129022219Y-58796991D02*
X128355552Y-58796991D01*
X128022219Y-58796991D02*
X128069838Y-58844610D01*
X128069838Y-58844610D02*
X128117457Y-58796991D01*
X128117457Y-58796991D02*
X128069838Y-58749372D01*
X128069838Y-58749372D02*
X128022219Y-58796991D01*
X128022219Y-58796991D02*
X128117457Y-58796991D01*
X129022219Y-58320801D02*
X128355552Y-58320801D01*
X128546028Y-58320801D02*
X128450790Y-58273182D01*
X128450790Y-58273182D02*
X128403171Y-58225563D01*
X128403171Y-58225563D02*
X128355552Y-58130325D01*
X128355552Y-58130325D02*
X128355552Y-58035087D01*
X129022219Y-57273182D02*
X128498409Y-57273182D01*
X128498409Y-57273182D02*
X128403171Y-57320801D01*
X128403171Y-57320801D02*
X128355552Y-57416039D01*
X128355552Y-57416039D02*
X128355552Y-57606515D01*
X128355552Y-57606515D02*
X128403171Y-57701753D01*
X128974600Y-57273182D02*
X129022219Y-57368420D01*
X129022219Y-57368420D02*
X129022219Y-57606515D01*
X129022219Y-57606515D02*
X128974600Y-57701753D01*
X128974600Y-57701753D02*
X128879361Y-57749372D01*
X128879361Y-57749372D02*
X128784123Y-57749372D01*
X128784123Y-57749372D02*
X128688885Y-57701753D01*
X128688885Y-57701753D02*
X128641266Y-57606515D01*
X128641266Y-57606515D02*
X128641266Y-57368420D01*
X128641266Y-57368420D02*
X128593647Y-57273182D01*
X128355552Y-56939848D02*
X128355552Y-56558896D01*
X128022219Y-56796991D02*
X128879361Y-56796991D01*
X128879361Y-56796991D02*
X128974600Y-56749372D01*
X128974600Y-56749372D02*
X129022219Y-56654134D01*
X129022219Y-56654134D02*
X129022219Y-56558896D01*
X128974600Y-55844610D02*
X129022219Y-55939848D01*
X129022219Y-55939848D02*
X129022219Y-56130324D01*
X129022219Y-56130324D02*
X128974600Y-56225562D01*
X128974600Y-56225562D02*
X128879361Y-56273181D01*
X128879361Y-56273181D02*
X128498409Y-56273181D01*
X128498409Y-56273181D02*
X128403171Y-56225562D01*
X128403171Y-56225562D02*
X128355552Y-56130324D01*
X128355552Y-56130324D02*
X128355552Y-55939848D01*
X128355552Y-55939848D02*
X128403171Y-55844610D01*
X128403171Y-55844610D02*
X128498409Y-55796991D01*
X128498409Y-55796991D02*
X128593647Y-55796991D01*
X128593647Y-55796991D02*
X128688885Y-56273181D01*
D10*
X117783333Y-101909580D02*
X117735714Y-101957200D01*
X117735714Y-101957200D02*
X117592857Y-102004819D01*
X117592857Y-102004819D02*
X117497619Y-102004819D01*
X117497619Y-102004819D02*
X117354762Y-101957200D01*
X117354762Y-101957200D02*
X117259524Y-101861961D01*
X117259524Y-101861961D02*
X117211905Y-101766723D01*
X117211905Y-101766723D02*
X117164286Y-101576247D01*
X117164286Y-101576247D02*
X117164286Y-101433390D01*
X117164286Y-101433390D02*
X117211905Y-101242914D01*
X117211905Y-101242914D02*
X117259524Y-101147676D01*
X117259524Y-101147676D02*
X117354762Y-101052438D01*
X117354762Y-101052438D02*
X117497619Y-101004819D01*
X117497619Y-101004819D02*
X117592857Y-101004819D01*
X117592857Y-101004819D02*
X117735714Y-101052438D01*
X117735714Y-101052438D02*
X117783333Y-101100057D01*
X118116667Y-101004819D02*
X118783333Y-101004819D01*
X118783333Y-101004819D02*
X118354762Y-102004819D01*
X105633333Y-86117319D02*
X105300000Y-85641128D01*
X105061905Y-86117319D02*
X105061905Y-85117319D01*
X105061905Y-85117319D02*
X105442857Y-85117319D01*
X105442857Y-85117319D02*
X105538095Y-85164938D01*
X105538095Y-85164938D02*
X105585714Y-85212557D01*
X105585714Y-85212557D02*
X105633333Y-85307795D01*
X105633333Y-85307795D02*
X105633333Y-85450652D01*
X105633333Y-85450652D02*
X105585714Y-85545890D01*
X105585714Y-85545890D02*
X105538095Y-85593509D01*
X105538095Y-85593509D02*
X105442857Y-85641128D01*
X105442857Y-85641128D02*
X105061905Y-85641128D01*
X105966667Y-85117319D02*
X106633333Y-85117319D01*
X106633333Y-85117319D02*
X106204762Y-86117319D01*
X106772652Y-101908724D02*
X106772652Y-102242448D01*
X107297076Y-102242448D02*
X106295903Y-102242448D01*
X106295903Y-102242448D02*
X106295903Y-101765699D01*
X107297076Y-100859876D02*
X107297076Y-101431975D01*
X107297076Y-101145925D02*
X106295903Y-101145925D01*
X106295903Y-101145925D02*
X106438928Y-101241275D01*
X106438928Y-101241275D02*
X106534278Y-101336625D01*
X106534278Y-101336625D02*
X106581953Y-101431975D01*
X121666667Y-139586104D02*
X121628571Y-139624200D01*
X121628571Y-139624200D02*
X121514286Y-139662295D01*
X121514286Y-139662295D02*
X121438095Y-139662295D01*
X121438095Y-139662295D02*
X121323809Y-139624200D01*
X121323809Y-139624200D02*
X121247619Y-139548009D01*
X121247619Y-139548009D02*
X121209524Y-139471819D01*
X121209524Y-139471819D02*
X121171428Y-139319438D01*
X121171428Y-139319438D02*
X121171428Y-139205152D01*
X121171428Y-139205152D02*
X121209524Y-139052771D01*
X121209524Y-139052771D02*
X121247619Y-138976580D01*
X121247619Y-138976580D02*
X121323809Y-138900390D01*
X121323809Y-138900390D02*
X121438095Y-138862295D01*
X121438095Y-138862295D02*
X121514286Y-138862295D01*
X121514286Y-138862295D02*
X121628571Y-138900390D01*
X121628571Y-138900390D02*
X121666667Y-138938485D01*
X121933333Y-138862295D02*
X122428571Y-138862295D01*
X122428571Y-138862295D02*
X122161905Y-139167057D01*
X122161905Y-139167057D02*
X122276190Y-139167057D01*
X122276190Y-139167057D02*
X122352381Y-139205152D01*
X122352381Y-139205152D02*
X122390476Y-139243247D01*
X122390476Y-139243247D02*
X122428571Y-139319438D01*
X122428571Y-139319438D02*
X122428571Y-139509914D01*
X122428571Y-139509914D02*
X122390476Y-139586104D01*
X122390476Y-139586104D02*
X122352381Y-139624200D01*
X122352381Y-139624200D02*
X122276190Y-139662295D01*
X122276190Y-139662295D02*
X122047619Y-139662295D01*
X122047619Y-139662295D02*
X121971428Y-139624200D01*
X121971428Y-139624200D02*
X121933333Y-139586104D01*
X135354819Y-89729166D02*
X134878628Y-90062499D01*
X135354819Y-90300594D02*
X134354819Y-90300594D01*
X134354819Y-90300594D02*
X134354819Y-89919642D01*
X134354819Y-89919642D02*
X134402438Y-89824404D01*
X134402438Y-89824404D02*
X134450057Y-89776785D01*
X134450057Y-89776785D02*
X134545295Y-89729166D01*
X134545295Y-89729166D02*
X134688152Y-89729166D01*
X134688152Y-89729166D02*
X134783390Y-89776785D01*
X134783390Y-89776785D02*
X134831009Y-89824404D01*
X134831009Y-89824404D02*
X134878628Y-89919642D01*
X134878628Y-89919642D02*
X134878628Y-90300594D01*
X135354819Y-89252975D02*
X135354819Y-89062499D01*
X135354819Y-89062499D02*
X135307200Y-88967261D01*
X135307200Y-88967261D02*
X135259580Y-88919642D01*
X135259580Y-88919642D02*
X135116723Y-88824404D01*
X135116723Y-88824404D02*
X134926247Y-88776785D01*
X134926247Y-88776785D02*
X134545295Y-88776785D01*
X134545295Y-88776785D02*
X134450057Y-88824404D01*
X134450057Y-88824404D02*
X134402438Y-88872023D01*
X134402438Y-88872023D02*
X134354819Y-88967261D01*
X134354819Y-88967261D02*
X134354819Y-89157737D01*
X134354819Y-89157737D02*
X134402438Y-89252975D01*
X134402438Y-89252975D02*
X134450057Y-89300594D01*
X134450057Y-89300594D02*
X134545295Y-89348213D01*
X134545295Y-89348213D02*
X134783390Y-89348213D01*
X134783390Y-89348213D02*
X134878628Y-89300594D01*
X134878628Y-89300594D02*
X134926247Y-89252975D01*
X134926247Y-89252975D02*
X134973866Y-89157737D01*
X134973866Y-89157737D02*
X134973866Y-88967261D01*
X134973866Y-88967261D02*
X134926247Y-88872023D01*
X134926247Y-88872023D02*
X134878628Y-88824404D01*
X134878628Y-88824404D02*
X134783390Y-88776785D01*
X108254167Y-141624795D02*
X107987500Y-141243842D01*
X107797024Y-141624795D02*
X107797024Y-140824795D01*
X107797024Y-140824795D02*
X108101786Y-140824795D01*
X108101786Y-140824795D02*
X108177976Y-140862890D01*
X108177976Y-140862890D02*
X108216071Y-140900985D01*
X108216071Y-140900985D02*
X108254167Y-140977176D01*
X108254167Y-140977176D02*
X108254167Y-141091461D01*
X108254167Y-141091461D02*
X108216071Y-141167652D01*
X108216071Y-141167652D02*
X108177976Y-141205747D01*
X108177976Y-141205747D02*
X108101786Y-141243842D01*
X108101786Y-141243842D02*
X107797024Y-141243842D01*
X108558928Y-140900985D02*
X108597024Y-140862890D01*
X108597024Y-140862890D02*
X108673214Y-140824795D01*
X108673214Y-140824795D02*
X108863690Y-140824795D01*
X108863690Y-140824795D02*
X108939881Y-140862890D01*
X108939881Y-140862890D02*
X108977976Y-140900985D01*
X108977976Y-140900985D02*
X109016071Y-140977176D01*
X109016071Y-140977176D02*
X109016071Y-141053366D01*
X109016071Y-141053366D02*
X108977976Y-141167652D01*
X108977976Y-141167652D02*
X108520833Y-141624795D01*
X108520833Y-141624795D02*
X109016071Y-141624795D01*
X129554819Y-83561904D02*
X130364342Y-83561904D01*
X130364342Y-83561904D02*
X130459580Y-83514285D01*
X130459580Y-83514285D02*
X130507200Y-83466666D01*
X130507200Y-83466666D02*
X130554819Y-83371428D01*
X130554819Y-83371428D02*
X130554819Y-83180952D01*
X130554819Y-83180952D02*
X130507200Y-83085714D01*
X130507200Y-83085714D02*
X130459580Y-83038095D01*
X130459580Y-83038095D02*
X130364342Y-82990476D01*
X130364342Y-82990476D02*
X129554819Y-82990476D01*
X129554819Y-82609523D02*
X129554819Y-81990476D01*
X129554819Y-81990476D02*
X129935771Y-82323809D01*
X129935771Y-82323809D02*
X129935771Y-82180952D01*
X129935771Y-82180952D02*
X129983390Y-82085714D01*
X129983390Y-82085714D02*
X130031009Y-82038095D01*
X130031009Y-82038095D02*
X130126247Y-81990476D01*
X130126247Y-81990476D02*
X130364342Y-81990476D01*
X130364342Y-81990476D02*
X130459580Y-82038095D01*
X130459580Y-82038095D02*
X130507200Y-82085714D01*
X130507200Y-82085714D02*
X130554819Y-82180952D01*
X130554819Y-82180952D02*
X130554819Y-82466666D01*
X130554819Y-82466666D02*
X130507200Y-82561904D01*
X130507200Y-82561904D02*
X130459580Y-82609523D01*
X111666667Y-140448604D02*
X111628571Y-140486700D01*
X111628571Y-140486700D02*
X111514286Y-140524795D01*
X111514286Y-140524795D02*
X111438095Y-140524795D01*
X111438095Y-140524795D02*
X111323809Y-140486700D01*
X111323809Y-140486700D02*
X111247619Y-140410509D01*
X111247619Y-140410509D02*
X111209524Y-140334319D01*
X111209524Y-140334319D02*
X111171428Y-140181938D01*
X111171428Y-140181938D02*
X111171428Y-140067652D01*
X111171428Y-140067652D02*
X111209524Y-139915271D01*
X111209524Y-139915271D02*
X111247619Y-139839080D01*
X111247619Y-139839080D02*
X111323809Y-139762890D01*
X111323809Y-139762890D02*
X111438095Y-139724795D01*
X111438095Y-139724795D02*
X111514286Y-139724795D01*
X111514286Y-139724795D02*
X111628571Y-139762890D01*
X111628571Y-139762890D02*
X111666667Y-139800985D01*
X111971428Y-139800985D02*
X112009524Y-139762890D01*
X112009524Y-139762890D02*
X112085714Y-139724795D01*
X112085714Y-139724795D02*
X112276190Y-139724795D01*
X112276190Y-139724795D02*
X112352381Y-139762890D01*
X112352381Y-139762890D02*
X112390476Y-139800985D01*
X112390476Y-139800985D02*
X112428571Y-139877176D01*
X112428571Y-139877176D02*
X112428571Y-139953366D01*
X112428571Y-139953366D02*
X112390476Y-140067652D01*
X112390476Y-140067652D02*
X111933333Y-140524795D01*
X111933333Y-140524795D02*
X112428571Y-140524795D01*
X105683333Y-91579819D02*
X105350000Y-91103628D01*
X105111905Y-91579819D02*
X105111905Y-90579819D01*
X105111905Y-90579819D02*
X105492857Y-90579819D01*
X105492857Y-90579819D02*
X105588095Y-90627438D01*
X105588095Y-90627438D02*
X105635714Y-90675057D01*
X105635714Y-90675057D02*
X105683333Y-90770295D01*
X105683333Y-90770295D02*
X105683333Y-90913152D01*
X105683333Y-90913152D02*
X105635714Y-91008390D01*
X105635714Y-91008390D02*
X105588095Y-91056009D01*
X105588095Y-91056009D02*
X105492857Y-91103628D01*
X105492857Y-91103628D02*
X105111905Y-91103628D01*
X106540476Y-90913152D02*
X106540476Y-91579819D01*
X106302381Y-90532200D02*
X106064286Y-91246485D01*
X106064286Y-91246485D02*
X106683333Y-91246485D01*
X152657142Y-144059580D02*
X152609523Y-144107200D01*
X152609523Y-144107200D02*
X152466666Y-144154819D01*
X152466666Y-144154819D02*
X152371428Y-144154819D01*
X152371428Y-144154819D02*
X152228571Y-144107200D01*
X152228571Y-144107200D02*
X152133333Y-144011961D01*
X152133333Y-144011961D02*
X152085714Y-143916723D01*
X152085714Y-143916723D02*
X152038095Y-143726247D01*
X152038095Y-143726247D02*
X152038095Y-143583390D01*
X152038095Y-143583390D02*
X152085714Y-143392914D01*
X152085714Y-143392914D02*
X152133333Y-143297676D01*
X152133333Y-143297676D02*
X152228571Y-143202438D01*
X152228571Y-143202438D02*
X152371428Y-143154819D01*
X152371428Y-143154819D02*
X152466666Y-143154819D01*
X152466666Y-143154819D02*
X152609523Y-143202438D01*
X152609523Y-143202438D02*
X152657142Y-143250057D01*
X153609523Y-144154819D02*
X153038095Y-144154819D01*
X153323809Y-144154819D02*
X153323809Y-143154819D01*
X153323809Y-143154819D02*
X153228571Y-143297676D01*
X153228571Y-143297676D02*
X153133333Y-143392914D01*
X153133333Y-143392914D02*
X153038095Y-143440533D01*
X154514285Y-143154819D02*
X154038095Y-143154819D01*
X154038095Y-143154819D02*
X153990476Y-143631009D01*
X153990476Y-143631009D02*
X154038095Y-143583390D01*
X154038095Y-143583390D02*
X154133333Y-143535771D01*
X154133333Y-143535771D02*
X154371428Y-143535771D01*
X154371428Y-143535771D02*
X154466666Y-143583390D01*
X154466666Y-143583390D02*
X154514285Y-143631009D01*
X154514285Y-143631009D02*
X154561904Y-143726247D01*
X154561904Y-143726247D02*
X154561904Y-143964342D01*
X154561904Y-143964342D02*
X154514285Y-144059580D01*
X154514285Y-144059580D02*
X154466666Y-144107200D01*
X154466666Y-144107200D02*
X154371428Y-144154819D01*
X154371428Y-144154819D02*
X154133333Y-144154819D01*
X154133333Y-144154819D02*
X154038095Y-144107200D01*
X154038095Y-144107200D02*
X153990476Y-144059580D01*
X98185714Y-78162295D02*
X97919047Y-77781342D01*
X97728571Y-78162295D02*
X97728571Y-77362295D01*
X97728571Y-77362295D02*
X98033333Y-77362295D01*
X98033333Y-77362295D02*
X98109523Y-77400390D01*
X98109523Y-77400390D02*
X98147618Y-77438485D01*
X98147618Y-77438485D02*
X98185714Y-77514676D01*
X98185714Y-77514676D02*
X98185714Y-77628961D01*
X98185714Y-77628961D02*
X98147618Y-77705152D01*
X98147618Y-77705152D02*
X98109523Y-77743247D01*
X98109523Y-77743247D02*
X98033333Y-77781342D01*
X98033333Y-77781342D02*
X97728571Y-77781342D01*
X98490475Y-77438485D02*
X98528571Y-77400390D01*
X98528571Y-77400390D02*
X98604761Y-77362295D01*
X98604761Y-77362295D02*
X98795237Y-77362295D01*
X98795237Y-77362295D02*
X98871428Y-77400390D01*
X98871428Y-77400390D02*
X98909523Y-77438485D01*
X98909523Y-77438485D02*
X98947618Y-77514676D01*
X98947618Y-77514676D02*
X98947618Y-77590866D01*
X98947618Y-77590866D02*
X98909523Y-77705152D01*
X98909523Y-77705152D02*
X98452380Y-78162295D01*
X98452380Y-78162295D02*
X98947618Y-78162295D01*
X99404761Y-77705152D02*
X99328571Y-77667057D01*
X99328571Y-77667057D02*
X99290476Y-77628961D01*
X99290476Y-77628961D02*
X99252380Y-77552771D01*
X99252380Y-77552771D02*
X99252380Y-77514676D01*
X99252380Y-77514676D02*
X99290476Y-77438485D01*
X99290476Y-77438485D02*
X99328571Y-77400390D01*
X99328571Y-77400390D02*
X99404761Y-77362295D01*
X99404761Y-77362295D02*
X99557142Y-77362295D01*
X99557142Y-77362295D02*
X99633333Y-77400390D01*
X99633333Y-77400390D02*
X99671428Y-77438485D01*
X99671428Y-77438485D02*
X99709523Y-77514676D01*
X99709523Y-77514676D02*
X99709523Y-77552771D01*
X99709523Y-77552771D02*
X99671428Y-77628961D01*
X99671428Y-77628961D02*
X99633333Y-77667057D01*
X99633333Y-77667057D02*
X99557142Y-77705152D01*
X99557142Y-77705152D02*
X99404761Y-77705152D01*
X99404761Y-77705152D02*
X99328571Y-77743247D01*
X99328571Y-77743247D02*
X99290476Y-77781342D01*
X99290476Y-77781342D02*
X99252380Y-77857533D01*
X99252380Y-77857533D02*
X99252380Y-78009914D01*
X99252380Y-78009914D02*
X99290476Y-78086104D01*
X99290476Y-78086104D02*
X99328571Y-78124200D01*
X99328571Y-78124200D02*
X99404761Y-78162295D01*
X99404761Y-78162295D02*
X99557142Y-78162295D01*
X99557142Y-78162295D02*
X99633333Y-78124200D01*
X99633333Y-78124200D02*
X99671428Y-78086104D01*
X99671428Y-78086104D02*
X99709523Y-78009914D01*
X99709523Y-78009914D02*
X99709523Y-77857533D01*
X99709523Y-77857533D02*
X99671428Y-77781342D01*
X99671428Y-77781342D02*
X99633333Y-77743247D01*
X99633333Y-77743247D02*
X99557142Y-77705152D01*
X99216667Y-100586104D02*
X99178571Y-100624200D01*
X99178571Y-100624200D02*
X99064286Y-100662295D01*
X99064286Y-100662295D02*
X98988095Y-100662295D01*
X98988095Y-100662295D02*
X98873809Y-100624200D01*
X98873809Y-100624200D02*
X98797619Y-100548009D01*
X98797619Y-100548009D02*
X98759524Y-100471819D01*
X98759524Y-100471819D02*
X98721428Y-100319438D01*
X98721428Y-100319438D02*
X98721428Y-100205152D01*
X98721428Y-100205152D02*
X98759524Y-100052771D01*
X98759524Y-100052771D02*
X98797619Y-99976580D01*
X98797619Y-99976580D02*
X98873809Y-99900390D01*
X98873809Y-99900390D02*
X98988095Y-99862295D01*
X98988095Y-99862295D02*
X99064286Y-99862295D01*
X99064286Y-99862295D02*
X99178571Y-99900390D01*
X99178571Y-99900390D02*
X99216667Y-99938485D01*
X99940476Y-99862295D02*
X99559524Y-99862295D01*
X99559524Y-99862295D02*
X99521428Y-100243247D01*
X99521428Y-100243247D02*
X99559524Y-100205152D01*
X99559524Y-100205152D02*
X99635714Y-100167057D01*
X99635714Y-100167057D02*
X99826190Y-100167057D01*
X99826190Y-100167057D02*
X99902381Y-100205152D01*
X99902381Y-100205152D02*
X99940476Y-100243247D01*
X99940476Y-100243247D02*
X99978571Y-100319438D01*
X99978571Y-100319438D02*
X99978571Y-100509914D01*
X99978571Y-100509914D02*
X99940476Y-100586104D01*
X99940476Y-100586104D02*
X99902381Y-100624200D01*
X99902381Y-100624200D02*
X99826190Y-100662295D01*
X99826190Y-100662295D02*
X99635714Y-100662295D01*
X99635714Y-100662295D02*
X99559524Y-100624200D01*
X99559524Y-100624200D02*
X99521428Y-100586104D01*
X106366667Y-137886104D02*
X106328571Y-137924200D01*
X106328571Y-137924200D02*
X106214286Y-137962295D01*
X106214286Y-137962295D02*
X106138095Y-137962295D01*
X106138095Y-137962295D02*
X106023809Y-137924200D01*
X106023809Y-137924200D02*
X105947619Y-137848009D01*
X105947619Y-137848009D02*
X105909524Y-137771819D01*
X105909524Y-137771819D02*
X105871428Y-137619438D01*
X105871428Y-137619438D02*
X105871428Y-137505152D01*
X105871428Y-137505152D02*
X105909524Y-137352771D01*
X105909524Y-137352771D02*
X105947619Y-137276580D01*
X105947619Y-137276580D02*
X106023809Y-137200390D01*
X106023809Y-137200390D02*
X106138095Y-137162295D01*
X106138095Y-137162295D02*
X106214286Y-137162295D01*
X106214286Y-137162295D02*
X106328571Y-137200390D01*
X106328571Y-137200390D02*
X106366667Y-137238485D01*
X107128571Y-137962295D02*
X106671428Y-137962295D01*
X106900000Y-137962295D02*
X106900000Y-137162295D01*
X106900000Y-137162295D02*
X106823809Y-137276580D01*
X106823809Y-137276580D02*
X106747619Y-137352771D01*
X106747619Y-137352771D02*
X106671428Y-137390866D01*
X103866667Y-139052295D02*
X103600000Y-138671342D01*
X103409524Y-139052295D02*
X103409524Y-138252295D01*
X103409524Y-138252295D02*
X103714286Y-138252295D01*
X103714286Y-138252295D02*
X103790476Y-138290390D01*
X103790476Y-138290390D02*
X103828571Y-138328485D01*
X103828571Y-138328485D02*
X103866667Y-138404676D01*
X103866667Y-138404676D02*
X103866667Y-138518961D01*
X103866667Y-138518961D02*
X103828571Y-138595152D01*
X103828571Y-138595152D02*
X103790476Y-138633247D01*
X103790476Y-138633247D02*
X103714286Y-138671342D01*
X103714286Y-138671342D02*
X103409524Y-138671342D01*
X104628571Y-139052295D02*
X104171428Y-139052295D01*
X104400000Y-139052295D02*
X104400000Y-138252295D01*
X104400000Y-138252295D02*
X104323809Y-138366580D01*
X104323809Y-138366580D02*
X104247619Y-138442771D01*
X104247619Y-138442771D02*
X104171428Y-138480866D01*
X121990476Y-142562295D02*
X122447619Y-142562295D01*
X122219047Y-143362295D02*
X122219047Y-142562295D01*
X122676190Y-142638485D02*
X122714286Y-142600390D01*
X122714286Y-142600390D02*
X122790476Y-142562295D01*
X122790476Y-142562295D02*
X122980952Y-142562295D01*
X122980952Y-142562295D02*
X123057143Y-142600390D01*
X123057143Y-142600390D02*
X123095238Y-142638485D01*
X123095238Y-142638485D02*
X123133333Y-142714676D01*
X123133333Y-142714676D02*
X123133333Y-142790866D01*
X123133333Y-142790866D02*
X123095238Y-142905152D01*
X123095238Y-142905152D02*
X122638095Y-143362295D01*
X122638095Y-143362295D02*
X123133333Y-143362295D01*
X115066667Y-140324795D02*
X114800000Y-139943842D01*
X114609524Y-140324795D02*
X114609524Y-139524795D01*
X114609524Y-139524795D02*
X114914286Y-139524795D01*
X114914286Y-139524795D02*
X114990476Y-139562890D01*
X114990476Y-139562890D02*
X115028571Y-139600985D01*
X115028571Y-139600985D02*
X115066667Y-139677176D01*
X115066667Y-139677176D02*
X115066667Y-139791461D01*
X115066667Y-139791461D02*
X115028571Y-139867652D01*
X115028571Y-139867652D02*
X114990476Y-139905747D01*
X114990476Y-139905747D02*
X114914286Y-139943842D01*
X114914286Y-139943842D02*
X114609524Y-139943842D01*
X115333333Y-139524795D02*
X115828571Y-139524795D01*
X115828571Y-139524795D02*
X115561905Y-139829557D01*
X115561905Y-139829557D02*
X115676190Y-139829557D01*
X115676190Y-139829557D02*
X115752381Y-139867652D01*
X115752381Y-139867652D02*
X115790476Y-139905747D01*
X115790476Y-139905747D02*
X115828571Y-139981938D01*
X115828571Y-139981938D02*
X115828571Y-140172414D01*
X115828571Y-140172414D02*
X115790476Y-140248604D01*
X115790476Y-140248604D02*
X115752381Y-140286700D01*
X115752381Y-140286700D02*
X115676190Y-140324795D01*
X115676190Y-140324795D02*
X115447619Y-140324795D01*
X115447619Y-140324795D02*
X115371428Y-140286700D01*
X115371428Y-140286700D02*
X115333333Y-140248604D01*
X113660456Y-76949819D02*
X113660456Y-75949819D01*
X113660456Y-75949819D02*
X113993789Y-76664104D01*
X113993789Y-76664104D02*
X114327122Y-75949819D01*
X114327122Y-75949819D02*
X114327122Y-76949819D01*
X115327122Y-76949819D02*
X114755694Y-76949819D01*
X115041408Y-76949819D02*
X115041408Y-75949819D01*
X115041408Y-75949819D02*
X114946170Y-76092676D01*
X114946170Y-76092676D02*
X114850932Y-76187914D01*
X114850932Y-76187914D02*
X114755694Y-76235533D01*
X118342360Y-77069819D02*
X117866170Y-77069819D01*
X117866170Y-77069819D02*
X117818551Y-77546009D01*
X117818551Y-77546009D02*
X117866170Y-77498390D01*
X117866170Y-77498390D02*
X117961408Y-77450771D01*
X117961408Y-77450771D02*
X118199503Y-77450771D01*
X118199503Y-77450771D02*
X118294741Y-77498390D01*
X118294741Y-77498390D02*
X118342360Y-77546009D01*
X118342360Y-77546009D02*
X118389979Y-77641247D01*
X118389979Y-77641247D02*
X118389979Y-77879342D01*
X118389979Y-77879342D02*
X118342360Y-77974580D01*
X118342360Y-77974580D02*
X118294741Y-78022200D01*
X118294741Y-78022200D02*
X118199503Y-78069819D01*
X118199503Y-78069819D02*
X117961408Y-78069819D01*
X117961408Y-78069819D02*
X117866170Y-78022200D01*
X117866170Y-78022200D02*
X117818551Y-77974580D01*
X119009027Y-77069819D02*
X119104265Y-77069819D01*
X119104265Y-77069819D02*
X119199503Y-77117438D01*
X119199503Y-77117438D02*
X119247122Y-77165057D01*
X119247122Y-77165057D02*
X119294741Y-77260295D01*
X119294741Y-77260295D02*
X119342360Y-77450771D01*
X119342360Y-77450771D02*
X119342360Y-77688866D01*
X119342360Y-77688866D02*
X119294741Y-77879342D01*
X119294741Y-77879342D02*
X119247122Y-77974580D01*
X119247122Y-77974580D02*
X119199503Y-78022200D01*
X119199503Y-78022200D02*
X119104265Y-78069819D01*
X119104265Y-78069819D02*
X119009027Y-78069819D01*
X119009027Y-78069819D02*
X118913789Y-78022200D01*
X118913789Y-78022200D02*
X118866170Y-77974580D01*
X118866170Y-77974580D02*
X118818551Y-77879342D01*
X118818551Y-77879342D02*
X118770932Y-77688866D01*
X118770932Y-77688866D02*
X118770932Y-77450771D01*
X118770932Y-77450771D02*
X118818551Y-77260295D01*
X118818551Y-77260295D02*
X118866170Y-77165057D01*
X118866170Y-77165057D02*
X118913789Y-77117438D01*
X118913789Y-77117438D02*
X119009027Y-77069819D01*
X120199503Y-77403152D02*
X120199503Y-78069819D01*
X119961408Y-77022200D02*
X119723313Y-77736485D01*
X119723313Y-77736485D02*
X120342360Y-77736485D01*
X120628075Y-77069819D02*
X121294741Y-77069819D01*
X121294741Y-77069819D02*
X120866170Y-78069819D01*
X122151884Y-77069819D02*
X121675694Y-77069819D01*
X121675694Y-77069819D02*
X121628075Y-77546009D01*
X121628075Y-77546009D02*
X121675694Y-77498390D01*
X121675694Y-77498390D02*
X121770932Y-77450771D01*
X121770932Y-77450771D02*
X122009027Y-77450771D01*
X122009027Y-77450771D02*
X122104265Y-77498390D01*
X122104265Y-77498390D02*
X122151884Y-77546009D01*
X122151884Y-77546009D02*
X122199503Y-77641247D01*
X122199503Y-77641247D02*
X122199503Y-77879342D01*
X122199503Y-77879342D02*
X122151884Y-77974580D01*
X122151884Y-77974580D02*
X122104265Y-78022200D01*
X122104265Y-78022200D02*
X122009027Y-78069819D01*
X122009027Y-78069819D02*
X121770932Y-78069819D01*
X121770932Y-78069819D02*
X121675694Y-78022200D01*
X121675694Y-78022200D02*
X121628075Y-77974580D01*
X123056646Y-77403152D02*
X123056646Y-78069819D01*
X122818551Y-77022200D02*
X122580456Y-77736485D01*
X122580456Y-77736485D02*
X123199503Y-77736485D01*
X123485218Y-77069819D02*
X124104265Y-77069819D01*
X124104265Y-77069819D02*
X123770932Y-77450771D01*
X123770932Y-77450771D02*
X123913789Y-77450771D01*
X123913789Y-77450771D02*
X124009027Y-77498390D01*
X124009027Y-77498390D02*
X124056646Y-77546009D01*
X124056646Y-77546009D02*
X124104265Y-77641247D01*
X124104265Y-77641247D02*
X124104265Y-77879342D01*
X124104265Y-77879342D02*
X124056646Y-77974580D01*
X124056646Y-77974580D02*
X124009027Y-78022200D01*
X124009027Y-78022200D02*
X123913789Y-78069819D01*
X123913789Y-78069819D02*
X123628075Y-78069819D01*
X123628075Y-78069819D02*
X123532837Y-78022200D01*
X123532837Y-78022200D02*
X123485218Y-77974580D01*
X124580456Y-78069819D02*
X124770932Y-78069819D01*
X124770932Y-78069819D02*
X124866170Y-78022200D01*
X124866170Y-78022200D02*
X124913789Y-77974580D01*
X124913789Y-77974580D02*
X125009027Y-77831723D01*
X125009027Y-77831723D02*
X125056646Y-77641247D01*
X125056646Y-77641247D02*
X125056646Y-77260295D01*
X125056646Y-77260295D02*
X125009027Y-77165057D01*
X125009027Y-77165057D02*
X124961408Y-77117438D01*
X124961408Y-77117438D02*
X124866170Y-77069819D01*
X124866170Y-77069819D02*
X124675694Y-77069819D01*
X124675694Y-77069819D02*
X124580456Y-77117438D01*
X124580456Y-77117438D02*
X124532837Y-77165057D01*
X124532837Y-77165057D02*
X124485218Y-77260295D01*
X124485218Y-77260295D02*
X124485218Y-77498390D01*
X124485218Y-77498390D02*
X124532837Y-77593628D01*
X124532837Y-77593628D02*
X124580456Y-77641247D01*
X124580456Y-77641247D02*
X124675694Y-77688866D01*
X124675694Y-77688866D02*
X124866170Y-77688866D01*
X124866170Y-77688866D02*
X124961408Y-77641247D01*
X124961408Y-77641247D02*
X125009027Y-77593628D01*
X125009027Y-77593628D02*
X125056646Y-77498390D01*
X125913789Y-77403152D02*
X125913789Y-78069819D01*
X125675694Y-77022200D02*
X125437599Y-77736485D01*
X125437599Y-77736485D02*
X126056646Y-77736485D01*
X126628075Y-77069819D02*
X126723313Y-77069819D01*
X126723313Y-77069819D02*
X126818551Y-77117438D01*
X126818551Y-77117438D02*
X126866170Y-77165057D01*
X126866170Y-77165057D02*
X126913789Y-77260295D01*
X126913789Y-77260295D02*
X126961408Y-77450771D01*
X126961408Y-77450771D02*
X126961408Y-77688866D01*
X126961408Y-77688866D02*
X126913789Y-77879342D01*
X126913789Y-77879342D02*
X126866170Y-77974580D01*
X126866170Y-77974580D02*
X126818551Y-78022200D01*
X126818551Y-78022200D02*
X126723313Y-78069819D01*
X126723313Y-78069819D02*
X126628075Y-78069819D01*
X126628075Y-78069819D02*
X126532837Y-78022200D01*
X126532837Y-78022200D02*
X126485218Y-77974580D01*
X126485218Y-77974580D02*
X126437599Y-77879342D01*
X126437599Y-77879342D02*
X126389980Y-77688866D01*
X126389980Y-77688866D02*
X126389980Y-77450771D01*
X126389980Y-77450771D02*
X126437599Y-77260295D01*
X126437599Y-77260295D02*
X126485218Y-77165057D01*
X126485218Y-77165057D02*
X126532837Y-77117438D01*
X126532837Y-77117438D02*
X126628075Y-77069819D01*
X115166667Y-100986104D02*
X115128571Y-101024200D01*
X115128571Y-101024200D02*
X115014286Y-101062295D01*
X115014286Y-101062295D02*
X114938095Y-101062295D01*
X114938095Y-101062295D02*
X114823809Y-101024200D01*
X114823809Y-101024200D02*
X114747619Y-100948009D01*
X114747619Y-100948009D02*
X114709524Y-100871819D01*
X114709524Y-100871819D02*
X114671428Y-100719438D01*
X114671428Y-100719438D02*
X114671428Y-100605152D01*
X114671428Y-100605152D02*
X114709524Y-100452771D01*
X114709524Y-100452771D02*
X114747619Y-100376580D01*
X114747619Y-100376580D02*
X114823809Y-100300390D01*
X114823809Y-100300390D02*
X114938095Y-100262295D01*
X114938095Y-100262295D02*
X115014286Y-100262295D01*
X115014286Y-100262295D02*
X115128571Y-100300390D01*
X115128571Y-100300390D02*
X115166667Y-100338485D01*
X115852381Y-100262295D02*
X115700000Y-100262295D01*
X115700000Y-100262295D02*
X115623809Y-100300390D01*
X115623809Y-100300390D02*
X115585714Y-100338485D01*
X115585714Y-100338485D02*
X115509524Y-100452771D01*
X115509524Y-100452771D02*
X115471428Y-100605152D01*
X115471428Y-100605152D02*
X115471428Y-100909914D01*
X115471428Y-100909914D02*
X115509524Y-100986104D01*
X115509524Y-100986104D02*
X115547619Y-101024200D01*
X115547619Y-101024200D02*
X115623809Y-101062295D01*
X115623809Y-101062295D02*
X115776190Y-101062295D01*
X115776190Y-101062295D02*
X115852381Y-101024200D01*
X115852381Y-101024200D02*
X115890476Y-100986104D01*
X115890476Y-100986104D02*
X115928571Y-100909914D01*
X115928571Y-100909914D02*
X115928571Y-100719438D01*
X115928571Y-100719438D02*
X115890476Y-100643247D01*
X115890476Y-100643247D02*
X115852381Y-100605152D01*
X115852381Y-100605152D02*
X115776190Y-100567057D01*
X115776190Y-100567057D02*
X115623809Y-100567057D01*
X115623809Y-100567057D02*
X115547619Y-100605152D01*
X115547619Y-100605152D02*
X115509524Y-100643247D01*
X115509524Y-100643247D02*
X115471428Y-100719438D01*
X136285714Y-133386104D02*
X136247618Y-133424200D01*
X136247618Y-133424200D02*
X136133333Y-133462295D01*
X136133333Y-133462295D02*
X136057142Y-133462295D01*
X136057142Y-133462295D02*
X135942856Y-133424200D01*
X135942856Y-133424200D02*
X135866666Y-133348009D01*
X135866666Y-133348009D02*
X135828571Y-133271819D01*
X135828571Y-133271819D02*
X135790475Y-133119438D01*
X135790475Y-133119438D02*
X135790475Y-133005152D01*
X135790475Y-133005152D02*
X135828571Y-132852771D01*
X135828571Y-132852771D02*
X135866666Y-132776580D01*
X135866666Y-132776580D02*
X135942856Y-132700390D01*
X135942856Y-132700390D02*
X136057142Y-132662295D01*
X136057142Y-132662295D02*
X136133333Y-132662295D01*
X136133333Y-132662295D02*
X136247618Y-132700390D01*
X136247618Y-132700390D02*
X136285714Y-132738485D01*
X137047618Y-133462295D02*
X136590475Y-133462295D01*
X136819047Y-133462295D02*
X136819047Y-132662295D01*
X136819047Y-132662295D02*
X136742856Y-132776580D01*
X136742856Y-132776580D02*
X136666666Y-132852771D01*
X136666666Y-132852771D02*
X136590475Y-132890866D01*
X137314285Y-132662295D02*
X137809523Y-132662295D01*
X137809523Y-132662295D02*
X137542857Y-132967057D01*
X137542857Y-132967057D02*
X137657142Y-132967057D01*
X137657142Y-132967057D02*
X137733333Y-133005152D01*
X137733333Y-133005152D02*
X137771428Y-133043247D01*
X137771428Y-133043247D02*
X137809523Y-133119438D01*
X137809523Y-133119438D02*
X137809523Y-133309914D01*
X137809523Y-133309914D02*
X137771428Y-133386104D01*
X137771428Y-133386104D02*
X137733333Y-133424200D01*
X137733333Y-133424200D02*
X137657142Y-133462295D01*
X137657142Y-133462295D02*
X137428571Y-133462295D01*
X137428571Y-133462295D02*
X137352380Y-133424200D01*
X137352380Y-133424200D02*
X137314285Y-133386104D01*
X146666666Y-128462295D02*
X146285714Y-128462295D01*
X146285714Y-128462295D02*
X146285714Y-127662295D01*
X147352380Y-128462295D02*
X146895237Y-128462295D01*
X147123809Y-128462295D02*
X147123809Y-127662295D01*
X147123809Y-127662295D02*
X147047618Y-127776580D01*
X147047618Y-127776580D02*
X146971428Y-127852771D01*
X146971428Y-127852771D02*
X146895237Y-127890866D01*
X98043214Y-72257295D02*
X97776547Y-71876342D01*
X97586071Y-72257295D02*
X97586071Y-71457295D01*
X97586071Y-71457295D02*
X97890833Y-71457295D01*
X97890833Y-71457295D02*
X97967023Y-71495390D01*
X97967023Y-71495390D02*
X98005118Y-71533485D01*
X98005118Y-71533485D02*
X98043214Y-71609676D01*
X98043214Y-71609676D02*
X98043214Y-71723961D01*
X98043214Y-71723961D02*
X98005118Y-71800152D01*
X98005118Y-71800152D02*
X97967023Y-71838247D01*
X97967023Y-71838247D02*
X97890833Y-71876342D01*
X97890833Y-71876342D02*
X97586071Y-71876342D01*
X98347975Y-71533485D02*
X98386071Y-71495390D01*
X98386071Y-71495390D02*
X98462261Y-71457295D01*
X98462261Y-71457295D02*
X98652737Y-71457295D01*
X98652737Y-71457295D02*
X98728928Y-71495390D01*
X98728928Y-71495390D02*
X98767023Y-71533485D01*
X98767023Y-71533485D02*
X98805118Y-71609676D01*
X98805118Y-71609676D02*
X98805118Y-71685866D01*
X98805118Y-71685866D02*
X98767023Y-71800152D01*
X98767023Y-71800152D02*
X98309880Y-72257295D01*
X98309880Y-72257295D02*
X98805118Y-72257295D01*
X99490833Y-71457295D02*
X99338452Y-71457295D01*
X99338452Y-71457295D02*
X99262261Y-71495390D01*
X99262261Y-71495390D02*
X99224166Y-71533485D01*
X99224166Y-71533485D02*
X99147976Y-71647771D01*
X99147976Y-71647771D02*
X99109880Y-71800152D01*
X99109880Y-71800152D02*
X99109880Y-72104914D01*
X99109880Y-72104914D02*
X99147976Y-72181104D01*
X99147976Y-72181104D02*
X99186071Y-72219200D01*
X99186071Y-72219200D02*
X99262261Y-72257295D01*
X99262261Y-72257295D02*
X99414642Y-72257295D01*
X99414642Y-72257295D02*
X99490833Y-72219200D01*
X99490833Y-72219200D02*
X99528928Y-72181104D01*
X99528928Y-72181104D02*
X99567023Y-72104914D01*
X99567023Y-72104914D02*
X99567023Y-71914438D01*
X99567023Y-71914438D02*
X99528928Y-71838247D01*
X99528928Y-71838247D02*
X99490833Y-71800152D01*
X99490833Y-71800152D02*
X99414642Y-71762057D01*
X99414642Y-71762057D02*
X99262261Y-71762057D01*
X99262261Y-71762057D02*
X99186071Y-71800152D01*
X99186071Y-71800152D02*
X99147976Y-71838247D01*
X99147976Y-71838247D02*
X99109880Y-71914438D01*
X95808095Y-80604819D02*
X95808095Y-81414342D01*
X95808095Y-81414342D02*
X95855714Y-81509580D01*
X95855714Y-81509580D02*
X95903333Y-81557200D01*
X95903333Y-81557200D02*
X95998571Y-81604819D01*
X95998571Y-81604819D02*
X96189047Y-81604819D01*
X96189047Y-81604819D02*
X96284285Y-81557200D01*
X96284285Y-81557200D02*
X96331904Y-81509580D01*
X96331904Y-81509580D02*
X96379523Y-81414342D01*
X96379523Y-81414342D02*
X96379523Y-80604819D01*
X97379523Y-81604819D02*
X96808095Y-81604819D01*
X97093809Y-81604819D02*
X97093809Y-80604819D01*
X97093809Y-80604819D02*
X96998571Y-80747676D01*
X96998571Y-80747676D02*
X96903333Y-80842914D01*
X96903333Y-80842914D02*
X96808095Y-80890533D01*
X131966667Y-86324795D02*
X131700000Y-85943842D01*
X131509524Y-86324795D02*
X131509524Y-85524795D01*
X131509524Y-85524795D02*
X131814286Y-85524795D01*
X131814286Y-85524795D02*
X131890476Y-85562890D01*
X131890476Y-85562890D02*
X131928571Y-85600985D01*
X131928571Y-85600985D02*
X131966667Y-85677176D01*
X131966667Y-85677176D02*
X131966667Y-85791461D01*
X131966667Y-85791461D02*
X131928571Y-85867652D01*
X131928571Y-85867652D02*
X131890476Y-85905747D01*
X131890476Y-85905747D02*
X131814286Y-85943842D01*
X131814286Y-85943842D02*
X131509524Y-85943842D01*
X132652381Y-85524795D02*
X132500000Y-85524795D01*
X132500000Y-85524795D02*
X132423809Y-85562890D01*
X132423809Y-85562890D02*
X132385714Y-85600985D01*
X132385714Y-85600985D02*
X132309524Y-85715271D01*
X132309524Y-85715271D02*
X132271428Y-85867652D01*
X132271428Y-85867652D02*
X132271428Y-86172414D01*
X132271428Y-86172414D02*
X132309524Y-86248604D01*
X132309524Y-86248604D02*
X132347619Y-86286700D01*
X132347619Y-86286700D02*
X132423809Y-86324795D01*
X132423809Y-86324795D02*
X132576190Y-86324795D01*
X132576190Y-86324795D02*
X132652381Y-86286700D01*
X132652381Y-86286700D02*
X132690476Y-86248604D01*
X132690476Y-86248604D02*
X132728571Y-86172414D01*
X132728571Y-86172414D02*
X132728571Y-85981938D01*
X132728571Y-85981938D02*
X132690476Y-85905747D01*
X132690476Y-85905747D02*
X132652381Y-85867652D01*
X132652381Y-85867652D02*
X132576190Y-85829557D01*
X132576190Y-85829557D02*
X132423809Y-85829557D01*
X132423809Y-85829557D02*
X132347619Y-85867652D01*
X132347619Y-85867652D02*
X132309524Y-85905747D01*
X132309524Y-85905747D02*
X132271428Y-85981938D01*
X118285714Y-126054819D02*
X118285714Y-125054819D01*
X118285714Y-125054819D02*
X118666666Y-125054819D01*
X118666666Y-125054819D02*
X118761904Y-125102438D01*
X118761904Y-125102438D02*
X118809523Y-125150057D01*
X118809523Y-125150057D02*
X118857142Y-125245295D01*
X118857142Y-125245295D02*
X118857142Y-125388152D01*
X118857142Y-125388152D02*
X118809523Y-125483390D01*
X118809523Y-125483390D02*
X118761904Y-125531009D01*
X118761904Y-125531009D02*
X118666666Y-125578628D01*
X118666666Y-125578628D02*
X118285714Y-125578628D01*
X119238095Y-126007200D02*
X119380952Y-126054819D01*
X119380952Y-126054819D02*
X119619047Y-126054819D01*
X119619047Y-126054819D02*
X119714285Y-126007200D01*
X119714285Y-126007200D02*
X119761904Y-125959580D01*
X119761904Y-125959580D02*
X119809523Y-125864342D01*
X119809523Y-125864342D02*
X119809523Y-125769104D01*
X119809523Y-125769104D02*
X119761904Y-125673866D01*
X119761904Y-125673866D02*
X119714285Y-125626247D01*
X119714285Y-125626247D02*
X119619047Y-125578628D01*
X119619047Y-125578628D02*
X119428571Y-125531009D01*
X119428571Y-125531009D02*
X119333333Y-125483390D01*
X119333333Y-125483390D02*
X119285714Y-125435771D01*
X119285714Y-125435771D02*
X119238095Y-125340533D01*
X119238095Y-125340533D02*
X119238095Y-125245295D01*
X119238095Y-125245295D02*
X119285714Y-125150057D01*
X119285714Y-125150057D02*
X119333333Y-125102438D01*
X119333333Y-125102438D02*
X119428571Y-125054819D01*
X119428571Y-125054819D02*
X119666666Y-125054819D01*
X119666666Y-125054819D02*
X119809523Y-125102438D01*
X120142857Y-125054819D02*
X120761904Y-125054819D01*
X120761904Y-125054819D02*
X120428571Y-125435771D01*
X120428571Y-125435771D02*
X120571428Y-125435771D01*
X120571428Y-125435771D02*
X120666666Y-125483390D01*
X120666666Y-125483390D02*
X120714285Y-125531009D01*
X120714285Y-125531009D02*
X120761904Y-125626247D01*
X120761904Y-125626247D02*
X120761904Y-125864342D01*
X120761904Y-125864342D02*
X120714285Y-125959580D01*
X120714285Y-125959580D02*
X120666666Y-126007200D01*
X120666666Y-126007200D02*
X120571428Y-126054819D01*
X120571428Y-126054819D02*
X120285714Y-126054819D01*
X120285714Y-126054819D02*
X120190476Y-126007200D01*
X120190476Y-126007200D02*
X120142857Y-125959580D01*
%TO.C,R5*%
D12*
X118165000Y-85498752D02*
X118165000Y-84976248D01*
X119635000Y-85498752D02*
X119635000Y-84976248D01*
%TO.C,R8*%
X118065000Y-89623752D02*
X118065000Y-89101248D01*
X119535000Y-89623752D02*
X119535000Y-89101248D01*
%TO.C,C12*%
X142380000Y-117580000D02*
X143766000Y-117580000D01*
X142380000Y-125320000D02*
X142380000Y-117580000D01*
X143766000Y-125320000D02*
X142380000Y-125320000D01*
X146234000Y-117580000D02*
X147620000Y-117580000D01*
X147620000Y-117580000D02*
X147620000Y-125320000D01*
X147620000Y-125320000D02*
X146234000Y-125320000D01*
%TO.C,U2*%
D13*
X107785000Y-83535000D02*
X107785000Y-89885000D01*
X107790000Y-83535000D02*
X108340000Y-83535000D01*
X107790000Y-89885000D02*
X108340000Y-89885000D01*
X116290000Y-83535000D02*
X115740000Y-83535000D01*
X116290000Y-89885000D02*
X115740000Y-89885000D01*
X116295000Y-89885000D02*
X116295000Y-83535000D01*
D11*
X114680000Y-81276000D02*
G75*
G02*
X114480000Y-81276000I-100000J0D01*
G01*
X114480000Y-81276000D02*
G75*
G02*
X114680000Y-81276000I100000J0D01*
G01*
%TO.C,MOV1*%
D14*
X120750000Y-119100000D02*
G75*
G02*
X106750000Y-119100000I-7000000J0D01*
G01*
X106750000Y-119100000D02*
G75*
G02*
X120750000Y-119100000I7000000J0D01*
G01*
%TO.C,T1*%
D12*
X105240000Y-142290000D02*
X109860000Y-142290000D01*
X105240000Y-145550000D02*
X106620000Y-145550000D01*
X105240000Y-149250000D02*
X106620000Y-149250000D01*
X105240000Y-152510000D02*
X105240000Y-142290000D01*
X106620000Y-152510000D02*
X106620000Y-142290000D01*
X109860000Y-142290000D02*
X109860000Y-152510000D01*
X109860000Y-152510000D02*
X105240000Y-152510000D01*
%TO.C,MT1*%
D13*
X121300000Y-93750000D02*
X121300000Y-96300000D01*
X121300000Y-103700000D02*
X121300000Y-106250000D01*
X121300000Y-106250000D02*
X124600000Y-106250000D01*
X124600000Y-93750000D02*
X121300000Y-93750000D01*
X131400000Y-93750000D02*
X134700000Y-93750000D01*
X134700000Y-93750000D02*
X134700000Y-96300000D01*
X134700000Y-103700000D02*
X134700000Y-106250000D01*
X134700000Y-106250000D02*
X131400000Y-106250000D01*
D11*
X135700000Y-95800000D02*
G75*
G02*
X135500000Y-95800000I-100000J0D01*
G01*
X135500000Y-95800000D02*
G75*
G02*
X135700000Y-95800000I100000J0D01*
G01*
%TO.C,R27*%
D12*
X99543748Y-75480000D02*
X100066252Y-75480000D01*
X99543748Y-76950000D02*
X100066252Y-76950000D01*
%TO.C,T3*%
X128140000Y-142290000D02*
X132760000Y-142290000D01*
X128140000Y-145550000D02*
X129520000Y-145550000D01*
X128140000Y-149250000D02*
X129520000Y-149250000D01*
X128140000Y-152510000D02*
X128140000Y-142290000D01*
X129520000Y-152510000D02*
X129520000Y-142290000D01*
X132760000Y-142290000D02*
X132760000Y-152510000D01*
X132760000Y-152510000D02*
X128140000Y-152510000D01*
%TO.C,LF1*%
D14*
X126850000Y-108200000D02*
X141350000Y-108200000D01*
X141350000Y-126200000D01*
X126850000Y-126200000D01*
X126850000Y-108200000D01*
%TO.C,C4*%
D13*
X121400000Y-108200000D02*
X126400000Y-108200000D01*
X121400000Y-126200000D02*
X121400000Y-108200000D01*
X121400000Y-126200000D02*
X126400000Y-126200000D01*
X126400000Y-126200000D02*
X126400000Y-108200000D01*
%TO.C,D1*%
X142990000Y-109412500D02*
X143420000Y-109412500D01*
X142990000Y-113817500D02*
X142990000Y-109412500D01*
X143420000Y-113817500D02*
X142990000Y-113817500D01*
X146180000Y-109412500D02*
X146610000Y-109412500D01*
X146610000Y-109412500D02*
X146610000Y-113817500D01*
X146610000Y-113817500D02*
X146180000Y-113817500D01*
D11*
X144900000Y-107815000D02*
G75*
G02*
X144700000Y-107815000I-100000J0D01*
G01*
X144700000Y-107815000D02*
G75*
G02*
X144900000Y-107815000I100000J0D01*
G01*
%TO.C,ESP2*%
D13*
X96285000Y-51500000D02*
X103025000Y-51500000D01*
X96285000Y-69500000D02*
X96285000Y-51500000D01*
X103025000Y-51500000D02*
X103025000Y-47530000D01*
X103025000Y-69500000D02*
X96285000Y-69500000D01*
X103025000Y-73470000D02*
X103025000Y-69500000D01*
X150285000Y-46530000D02*
X104025000Y-46530000D01*
X150285000Y-74470000D02*
X104025000Y-74470000D01*
X151285000Y-56450000D02*
X151285000Y-47530000D01*
X151285000Y-64550000D02*
X152285000Y-64550000D01*
X151285000Y-73470000D02*
X151285000Y-64550000D01*
X152285000Y-56450000D02*
X151285000Y-56450000D01*
X152285000Y-64550000D02*
X152285000Y-56450000D01*
X103025000Y-47530000D02*
G75*
G02*
X104025000Y-46530000I1000000J0D01*
G01*
X104025000Y-74470000D02*
G75*
G02*
X103025000Y-73470000I-1J999999D01*
G01*
X150285000Y-46530000D02*
G75*
G02*
X151285000Y-47530000I0J-1000000D01*
G01*
X151285000Y-73470000D02*
G75*
G02*
X150285000Y-74470000I-999999J-1D01*
G01*
D11*
X104420000Y-75000000D02*
G75*
G02*
X104220000Y-75000000I-100000J0D01*
G01*
X104220000Y-75000000D02*
G75*
G02*
X104420000Y-75000000I100000J0D01*
G01*
%TO.C,C7*%
D12*
X108220354Y-103425000D02*
X109220354Y-103425000D01*
X108720354Y-102925000D02*
X108720354Y-103925000D01*
X113700000Y-101220000D02*
X113700000Y-111380000D01*
X113740000Y-101220000D02*
X113740000Y-111380000D01*
X113780000Y-101221000D02*
X113780000Y-111379000D01*
X113820000Y-101221000D02*
X113820000Y-111379000D01*
X113860000Y-101223000D02*
X113860000Y-111377000D01*
X113900000Y-101224000D02*
X113900000Y-111376000D01*
X113940000Y-101226000D02*
X113940000Y-111374000D01*
X113980000Y-101228000D02*
X113980000Y-111372000D01*
X114020000Y-101230000D02*
X114020000Y-111370000D01*
X114060000Y-101233000D02*
X114060000Y-111367000D01*
X114100000Y-101236000D02*
X114100000Y-111364000D01*
X114140000Y-101239000D02*
X114140000Y-111361000D01*
X114180000Y-101243000D02*
X114180000Y-111357000D01*
X114220000Y-101246000D02*
X114220000Y-111354000D01*
X114260000Y-101251000D02*
X114260000Y-111349000D01*
X114300000Y-101255000D02*
X114300000Y-111345000D01*
X114340000Y-101260000D02*
X114340000Y-111340000D01*
X114380000Y-101265000D02*
X114380000Y-111335000D01*
X114420000Y-101271000D02*
X114420000Y-111329000D01*
X114460000Y-101277000D02*
X114460000Y-111323000D01*
X114500000Y-101283000D02*
X114500000Y-111317000D01*
X114540000Y-101289000D02*
X114540000Y-111311000D01*
X114580000Y-101296000D02*
X114580000Y-111304000D01*
X114620000Y-101303000D02*
X114620000Y-111297000D01*
X114660000Y-101311000D02*
X114660000Y-111289000D01*
X114700000Y-101319000D02*
X114700000Y-111281000D01*
X114740000Y-101327000D02*
X114740000Y-111273000D01*
X114780000Y-101335000D02*
X114780000Y-111265000D01*
X114820000Y-101344000D02*
X114820000Y-111256000D01*
X114860000Y-101353000D02*
X114860000Y-111247000D01*
X114900000Y-101363000D02*
X114900000Y-111237000D01*
X114940000Y-101372000D02*
X114940000Y-111228000D01*
X114980000Y-101383000D02*
X114980000Y-105060000D01*
X114980000Y-107540000D02*
X114980000Y-111217000D01*
X115020000Y-101393000D02*
X115020000Y-105060000D01*
X115020000Y-107540000D02*
X115020000Y-111207000D01*
X115060000Y-101404000D02*
X115060000Y-105060000D01*
X115060000Y-107540000D02*
X115060000Y-111196000D01*
X115100000Y-101415000D02*
X115100000Y-105060000D01*
X115100000Y-107540000D02*
X115100000Y-111185000D01*
X115140000Y-101427000D02*
X115140000Y-105060000D01*
X115140000Y-107540000D02*
X115140000Y-111173000D01*
X115180000Y-101439000D02*
X115180000Y-105060000D01*
X115180000Y-107540000D02*
X115180000Y-111161000D01*
X115220000Y-101451000D02*
X115220000Y-105060000D01*
X115220000Y-107540000D02*
X115220000Y-111149000D01*
X115260000Y-101463000D02*
X115260000Y-105060000D01*
X115260000Y-107540000D02*
X115260000Y-111137000D01*
X115300000Y-101476000D02*
X115300000Y-105060000D01*
X115300000Y-107540000D02*
X115300000Y-111124000D01*
X115340000Y-101490000D02*
X115340000Y-105060000D01*
X115340000Y-107540000D02*
X115340000Y-111110000D01*
X115380000Y-101503000D02*
X115380000Y-105060000D01*
X115380000Y-107540000D02*
X115380000Y-111097000D01*
X115420000Y-101518000D02*
X115420000Y-105060000D01*
X115420000Y-107540000D02*
X115420000Y-111082000D01*
X115460000Y-101532000D02*
X115460000Y-105060000D01*
X115460000Y-107540000D02*
X115460000Y-111068000D01*
X115500000Y-101547000D02*
X115500000Y-105060000D01*
X115500000Y-107540000D02*
X115500000Y-111053000D01*
X115540000Y-101562000D02*
X115540000Y-105060000D01*
X115540000Y-107540000D02*
X115540000Y-111038000D01*
X115580000Y-101578000D02*
X115580000Y-105060000D01*
X115580000Y-107540000D02*
X115580000Y-111022000D01*
X115620000Y-101594000D02*
X115620000Y-105060000D01*
X115620000Y-107540000D02*
X115620000Y-111006000D01*
X115660000Y-101610000D02*
X115660000Y-105060000D01*
X115660000Y-107540000D02*
X115660000Y-110990000D01*
X115700000Y-101627000D02*
X115700000Y-105060000D01*
X115700000Y-107540000D02*
X115700000Y-110973000D01*
X115740000Y-101644000D02*
X115740000Y-105060000D01*
X115740000Y-107540000D02*
X115740000Y-110956000D01*
X115780000Y-101662000D02*
X115780000Y-105060000D01*
X115780000Y-107540000D02*
X115780000Y-110938000D01*
X115820000Y-101680000D02*
X115820000Y-105060000D01*
X115820000Y-107540000D02*
X115820000Y-110920000D01*
X115860000Y-101698000D02*
X115860000Y-105060000D01*
X115860000Y-107540000D02*
X115860000Y-110902000D01*
X115900000Y-101717000D02*
X115900000Y-105060000D01*
X115900000Y-107540000D02*
X115900000Y-110883000D01*
X115940000Y-101736000D02*
X115940000Y-105060000D01*
X115940000Y-107540000D02*
X115940000Y-110864000D01*
X115980000Y-101756000D02*
X115980000Y-105060000D01*
X115980000Y-107540000D02*
X115980000Y-110844000D01*
X116020000Y-101776000D02*
X116020000Y-105060000D01*
X116020000Y-107540000D02*
X116020000Y-110824000D01*
X116060000Y-101796000D02*
X116060000Y-105060000D01*
X116060000Y-107540000D02*
X116060000Y-110804000D01*
X116100000Y-101817000D02*
X116100000Y-105060000D01*
X116100000Y-107540000D02*
X116100000Y-110783000D01*
X116140000Y-101839000D02*
X116140000Y-105060000D01*
X116140000Y-107540000D02*
X116140000Y-110761000D01*
X116180000Y-101861000D02*
X116180000Y-105060000D01*
X116180000Y-107540000D02*
X116180000Y-110739000D01*
X116220000Y-101883000D02*
X116220000Y-105060000D01*
X116220000Y-107540000D02*
X116220000Y-110717000D01*
X116260000Y-101906000D02*
X116260000Y-105060000D01*
X116260000Y-107540000D02*
X116260000Y-110694000D01*
X116300000Y-101929000D02*
X116300000Y-105060000D01*
X116300000Y-107540000D02*
X116300000Y-110671000D01*
X116340000Y-101953000D02*
X116340000Y-105060000D01*
X116340000Y-107540000D02*
X116340000Y-110647000D01*
X116380000Y-101977000D02*
X116380000Y-105060000D01*
X116380000Y-107540000D02*
X116380000Y-110623000D01*
X116420000Y-102002000D02*
X116420000Y-105060000D01*
X116420000Y-107540000D02*
X116420000Y-110598000D01*
X116460000Y-102028000D02*
X116460000Y-105060000D01*
X116460000Y-107540000D02*
X116460000Y-110572000D01*
X116500000Y-102053000D02*
X116500000Y-105060000D01*
X116500000Y-107540000D02*
X116500000Y-110547000D01*
X116540000Y-102080000D02*
X116540000Y-105060000D01*
X116540000Y-107540000D02*
X116540000Y-110520000D01*
X116580000Y-102107000D02*
X116580000Y-105060000D01*
X116580000Y-107540000D02*
X116580000Y-110493000D01*
X116620000Y-102134000D02*
X116620000Y-105060000D01*
X116620000Y-107540000D02*
X116620000Y-110466000D01*
X116660000Y-102162000D02*
X116660000Y-105060000D01*
X116660000Y-107540000D02*
X116660000Y-110438000D01*
X116700000Y-102191000D02*
X116700000Y-105060000D01*
X116700000Y-107540000D02*
X116700000Y-110409000D01*
X116740000Y-102220000D02*
X116740000Y-105060000D01*
X116740000Y-107540000D02*
X116740000Y-110380000D01*
X116780000Y-102250000D02*
X116780000Y-105060000D01*
X116780000Y-107540000D02*
X116780000Y-110350000D01*
X116820000Y-102280000D02*
X116820000Y-105060000D01*
X116820000Y-107540000D02*
X116820000Y-110320000D01*
X116860000Y-102312000D02*
X116860000Y-105060000D01*
X116860000Y-107540000D02*
X116860000Y-110288000D01*
X116900000Y-102343000D02*
X116900000Y-105060000D01*
X116900000Y-107540000D02*
X116900000Y-110257000D01*
X116940000Y-102376000D02*
X116940000Y-105060000D01*
X116940000Y-107540000D02*
X116940000Y-110224000D01*
X116980000Y-102409000D02*
X116980000Y-105060000D01*
X116980000Y-107540000D02*
X116980000Y-110191000D01*
X117020000Y-102442000D02*
X117020000Y-105060000D01*
X117020000Y-107540000D02*
X117020000Y-110158000D01*
X117060000Y-102477000D02*
X117060000Y-105060000D01*
X117060000Y-107540000D02*
X117060000Y-110123000D01*
X117100000Y-102512000D02*
X117100000Y-105060000D01*
X117100000Y-107540000D02*
X117100000Y-110088000D01*
X117140000Y-102548000D02*
X117140000Y-105060000D01*
X117140000Y-107540000D02*
X117140000Y-110052000D01*
X117180000Y-102584000D02*
X117180000Y-105060000D01*
X117180000Y-107540000D02*
X117180000Y-110016000D01*
X117220000Y-102622000D02*
X117220000Y-105060000D01*
X117220000Y-107540000D02*
X117220000Y-109978000D01*
X117260000Y-102660000D02*
X117260000Y-105060000D01*
X117260000Y-107540000D02*
X117260000Y-109940000D01*
X117300000Y-102699000D02*
X117300000Y-105060000D01*
X117300000Y-107540000D02*
X117300000Y-109901000D01*
X117340000Y-102739000D02*
X117340000Y-105060000D01*
X117340000Y-107540000D02*
X117340000Y-109861000D01*
X117380000Y-102780000D02*
X117380000Y-105060000D01*
X117380000Y-107540000D02*
X117380000Y-109820000D01*
X117420000Y-102822000D02*
X117420000Y-105060000D01*
X117420000Y-107540000D02*
X117420000Y-109778000D01*
X117460000Y-102865000D02*
X117460000Y-109735000D01*
X117500000Y-102909000D02*
X117500000Y-109691000D01*
X117540000Y-102953000D02*
X117540000Y-109647000D01*
X117580000Y-102999000D02*
X117580000Y-109601000D01*
X117620000Y-103046000D02*
X117620000Y-109554000D01*
X117660000Y-103095000D02*
X117660000Y-109505000D01*
X117700000Y-103144000D02*
X117700000Y-109456000D01*
X117740000Y-103195000D02*
X117740000Y-109405000D01*
X117780000Y-103247000D02*
X117780000Y-109353000D01*
X117820000Y-103300000D02*
X117820000Y-109300000D01*
X117860000Y-103355000D02*
X117860000Y-109245000D01*
X117900000Y-103412000D02*
X117900000Y-109188000D01*
X117940000Y-103470000D02*
X117940000Y-109130000D01*
X117980000Y-103530000D02*
X117980000Y-109070000D01*
X118020000Y-103592000D02*
X118020000Y-109008000D01*
X118060000Y-103656000D02*
X118060000Y-108944000D01*
X118100000Y-103722000D02*
X118100000Y-108878000D01*
X118140000Y-103790000D02*
X118140000Y-108810000D01*
X118180000Y-103861000D02*
X118180000Y-108739000D01*
X118220000Y-103935000D02*
X118220000Y-108665000D01*
X118260000Y-104012000D02*
X118260000Y-108588000D01*
X118300000Y-104092000D02*
X118300000Y-108508000D01*
X118340000Y-104176000D02*
X118340000Y-108424000D01*
X118380000Y-104263000D02*
X118380000Y-108337000D01*
X118420000Y-104356000D02*
X118420000Y-108244000D01*
X118460000Y-104454000D02*
X118460000Y-108146000D01*
X118500000Y-104558000D02*
X118500000Y-108042000D01*
X118540000Y-104670000D02*
X118540000Y-107930000D01*
X118580000Y-104791000D02*
X118580000Y-107809000D01*
X118620000Y-104923000D02*
X118620000Y-107677000D01*
X118660000Y-105070000D02*
X118660000Y-107530000D01*
X118700000Y-105238000D02*
X118700000Y-107362000D01*
X118740000Y-105438000D02*
X118740000Y-107162000D01*
X118780000Y-105701000D02*
X118780000Y-106899000D01*
X118820000Y-106300000D02*
G75*
G02*
X108580000Y-106300000I-5120000J0D01*
G01*
X108580000Y-106300000D02*
G75*
G02*
X118820000Y-106300000I5120000J0D01*
G01*
%TO.C,R7*%
X105565000Y-83461252D02*
X105565000Y-82938748D01*
X107035000Y-83461252D02*
X107035000Y-82938748D01*
%TO.C,F1*%
D13*
X96300000Y-102450000D02*
X99900000Y-102450000D01*
X96300000Y-124950000D02*
X96300000Y-102450000D01*
X99900000Y-124950000D02*
X96300000Y-124950000D01*
X102300000Y-102450000D02*
X105900000Y-102450000D01*
X105900000Y-102450000D02*
X105900000Y-124950000D01*
X105900000Y-124950000D02*
X102300000Y-124950000D01*
%TO.C,C3*%
D12*
X119465000Y-139776248D02*
X119465000Y-140298752D01*
X120935000Y-139776248D02*
X120935000Y-140298752D01*
%TO.C,R9*%
X131265000Y-89661252D02*
X131265000Y-89138748D01*
X132735000Y-89661252D02*
X132735000Y-89138748D01*
%TO.C,R2*%
X109365000Y-140223752D02*
X109365000Y-139701248D01*
X110835000Y-140223752D02*
X110835000Y-139701248D01*
%TO.C,U3*%
D13*
X120605000Y-83315000D02*
X120605000Y-89665000D01*
X120610000Y-83315000D02*
X121160000Y-83315000D01*
X120610000Y-89665000D02*
X121160000Y-89665000D01*
X129110000Y-83315000D02*
X128560000Y-83315000D01*
X129110000Y-89665000D02*
X128560000Y-89665000D01*
X129115000Y-89665000D02*
X129115000Y-83315000D01*
D11*
X127500000Y-81056000D02*
G75*
G02*
X127300000Y-81056000I-100000J0D01*
G01*
X127300000Y-81056000D02*
G75*
G02*
X127500000Y-81056000I100000J0D01*
G01*
%TO.C,C2*%
D12*
X112765000Y-139701248D02*
X112765000Y-140223752D01*
X114235000Y-139701248D02*
X114235000Y-140223752D01*
%TO.C,R4*%
X105365000Y-88076248D02*
X105365000Y-88598752D01*
X106835000Y-88076248D02*
X106835000Y-88598752D01*
%TO.C,C15*%
X144140302Y-144885000D02*
X144940302Y-144885000D01*
X144540302Y-144485000D02*
X144540302Y-145285000D01*
X148550000Y-143120000D02*
X148550000Y-151280000D01*
X148590000Y-143120000D02*
X148590000Y-151280000D01*
X148630000Y-143121000D02*
X148630000Y-151279000D01*
X148670000Y-143122000D02*
X148670000Y-151278000D01*
X148710000Y-143123000D02*
X148710000Y-151277000D01*
X148750000Y-143125000D02*
X148750000Y-151275000D01*
X148790000Y-143127000D02*
X148790000Y-151273000D01*
X148830000Y-143130000D02*
X148830000Y-151270000D01*
X148870000Y-143132000D02*
X148870000Y-151268000D01*
X148910000Y-143136000D02*
X148910000Y-151264000D01*
X148950000Y-143139000D02*
X148950000Y-151261000D01*
X148990000Y-143144000D02*
X148990000Y-151256000D01*
X149030000Y-143148000D02*
X149030000Y-151252000D01*
X149070000Y-143153000D02*
X149070000Y-151247000D01*
X149110000Y-143158000D02*
X149110000Y-151242000D01*
X149150000Y-143164000D02*
X149150000Y-151236000D01*
X149190000Y-143170000D02*
X149190000Y-151230000D01*
X149230000Y-143177000D02*
X149230000Y-151223000D01*
X149270000Y-143183000D02*
X149270000Y-146160000D01*
X149270000Y-148240000D02*
X149270000Y-151217000D01*
X149310000Y-143191000D02*
X149310000Y-146160000D01*
X149310000Y-148240000D02*
X149310000Y-151209000D01*
X149350000Y-143198000D02*
X149350000Y-146160000D01*
X149350000Y-148240000D02*
X149350000Y-151202000D01*
X149390000Y-143207000D02*
X149390000Y-146160000D01*
X149390000Y-148240000D02*
X149390000Y-151193000D01*
X149430000Y-143215000D02*
X149430000Y-146160000D01*
X149430000Y-148240000D02*
X149430000Y-151185000D01*
X149470000Y-143224000D02*
X149470000Y-146160000D01*
X149470000Y-148240000D02*
X149470000Y-151176000D01*
X149510000Y-143233000D02*
X149510000Y-146160000D01*
X149510000Y-148240000D02*
X149510000Y-151167000D01*
X149550000Y-143243000D02*
X149550000Y-146160000D01*
X149550000Y-148240000D02*
X149550000Y-151157000D01*
X149590000Y-143253000D02*
X149590000Y-146160000D01*
X149590000Y-148240000D02*
X149590000Y-151147000D01*
X149630000Y-143264000D02*
X149630000Y-146160000D01*
X149630000Y-148240000D02*
X149630000Y-151136000D01*
X149670000Y-143275000D02*
X149670000Y-146160000D01*
X149670000Y-148240000D02*
X149670000Y-151125000D01*
X149710000Y-143287000D02*
X149710000Y-146160000D01*
X149710000Y-148240000D02*
X149710000Y-151113000D01*
X149750000Y-143299000D02*
X149750000Y-146160000D01*
X149750000Y-148240000D02*
X149750000Y-151101000D01*
X149790000Y-143311000D02*
X149790000Y-146160000D01*
X149790000Y-148240000D02*
X149790000Y-151089000D01*
X149830000Y-143324000D02*
X149830000Y-146160000D01*
X149830000Y-148240000D02*
X149830000Y-151076000D01*
X149870000Y-143337000D02*
X149870000Y-146160000D01*
X149870000Y-148240000D02*
X149870000Y-151063000D01*
X149910000Y-143351000D02*
X149910000Y-146160000D01*
X149910000Y-148240000D02*
X149910000Y-151049000D01*
X149950000Y-143365000D02*
X149950000Y-146160000D01*
X149950000Y-148240000D02*
X149950000Y-151035000D01*
X149990000Y-143380000D02*
X149990000Y-146160000D01*
X149990000Y-148240000D02*
X149990000Y-151020000D01*
X150030000Y-143395000D02*
X150030000Y-146160000D01*
X150030000Y-148240000D02*
X150030000Y-151005000D01*
X150070000Y-143411000D02*
X150070000Y-146160000D01*
X150070000Y-148240000D02*
X150070000Y-150989000D01*
X150110000Y-143427000D02*
X150110000Y-146160000D01*
X150110000Y-148240000D02*
X150110000Y-150973000D01*
X150150000Y-143443000D02*
X150150000Y-146160000D01*
X150150000Y-148240000D02*
X150150000Y-150957000D01*
X150190000Y-143460000D02*
X150190000Y-146160000D01*
X150190000Y-148240000D02*
X150190000Y-150940000D01*
X150230000Y-143478000D02*
X150230000Y-146160000D01*
X150230000Y-148240000D02*
X150230000Y-150922000D01*
X150270000Y-143496000D02*
X150270000Y-146160000D01*
X150270000Y-148240000D02*
X150270000Y-150904000D01*
X150310000Y-143515000D02*
X150310000Y-146160000D01*
X150310000Y-148240000D02*
X150310000Y-150885000D01*
X150350000Y-143534000D02*
X150350000Y-146160000D01*
X150350000Y-148240000D02*
X150350000Y-150866000D01*
X150390000Y-143554000D02*
X150390000Y-146160000D01*
X150390000Y-148240000D02*
X150390000Y-150846000D01*
X150430000Y-143574000D02*
X150430000Y-146160000D01*
X150430000Y-148240000D02*
X150430000Y-150826000D01*
X150470000Y-143595000D02*
X150470000Y-146160000D01*
X150470000Y-148240000D02*
X150470000Y-150805000D01*
X150510000Y-143616000D02*
X150510000Y-146160000D01*
X150510000Y-148240000D02*
X150510000Y-150784000D01*
X150550000Y-143638000D02*
X150550000Y-146160000D01*
X150550000Y-148240000D02*
X150550000Y-150762000D01*
X150590000Y-143661000D02*
X150590000Y-146160000D01*
X150590000Y-148240000D02*
X150590000Y-150739000D01*
X150630000Y-143684000D02*
X150630000Y-146160000D01*
X150630000Y-148240000D02*
X150630000Y-150716000D01*
X150670000Y-143707000D02*
X150670000Y-146160000D01*
X150670000Y-148240000D02*
X150670000Y-150693000D01*
X150710000Y-143732000D02*
X150710000Y-146160000D01*
X150710000Y-148240000D02*
X150710000Y-150668000D01*
X150750000Y-143757000D02*
X150750000Y-146160000D01*
X150750000Y-148240000D02*
X150750000Y-150643000D01*
X150790000Y-143782000D02*
X150790000Y-146160000D01*
X150790000Y-148240000D02*
X150790000Y-150618000D01*
X150830000Y-143808000D02*
X150830000Y-146160000D01*
X150830000Y-148240000D02*
X150830000Y-150592000D01*
X150870000Y-143835000D02*
X150870000Y-146160000D01*
X150870000Y-148240000D02*
X150870000Y-150565000D01*
X150910000Y-143863000D02*
X150910000Y-146160000D01*
X150910000Y-148240000D02*
X150910000Y-150537000D01*
X150950000Y-143891000D02*
X150950000Y-146160000D01*
X150950000Y-148240000D02*
X150950000Y-150509000D01*
X150990000Y-143920000D02*
X150990000Y-146160000D01*
X150990000Y-148240000D02*
X150990000Y-150480000D01*
X151030000Y-143950000D02*
X151030000Y-146160000D01*
X151030000Y-148240000D02*
X151030000Y-150450000D01*
X151070000Y-143981000D02*
X151070000Y-146160000D01*
X151070000Y-148240000D02*
X151070000Y-150419000D01*
X151110000Y-144012000D02*
X151110000Y-146160000D01*
X151110000Y-148240000D02*
X151110000Y-150388000D01*
X151150000Y-144044000D02*
X151150000Y-146160000D01*
X151150000Y-148240000D02*
X151150000Y-150356000D01*
X151190000Y-144077000D02*
X151190000Y-146160000D01*
X151190000Y-148240000D02*
X151190000Y-150323000D01*
X151230000Y-144111000D02*
X151230000Y-146160000D01*
X151230000Y-148240000D02*
X151230000Y-150289000D01*
X151270000Y-144145000D02*
X151270000Y-146160000D01*
X151270000Y-148240000D02*
X151270000Y-150255000D01*
X151310000Y-144181000D02*
X151310000Y-146160000D01*
X151310000Y-148240000D02*
X151310000Y-150219000D01*
X151350000Y-144218000D02*
X151350000Y-150182000D01*
X151390000Y-144255000D02*
X151390000Y-150145000D01*
X151430000Y-144294000D02*
X151430000Y-150106000D01*
X151470000Y-144333000D02*
X151470000Y-150067000D01*
X151510000Y-144374000D02*
X151510000Y-150026000D01*
X151550000Y-144416000D02*
X151550000Y-149984000D01*
X151590000Y-144459000D02*
X151590000Y-149941000D01*
X151630000Y-144504000D02*
X151630000Y-149896000D01*
X151670000Y-144549000D02*
X151670000Y-149851000D01*
X151710000Y-144596000D02*
X151710000Y-149804000D01*
X151750000Y-144645000D02*
X151750000Y-149755000D01*
X151790000Y-144695000D02*
X151790000Y-149705000D01*
X151830000Y-144747000D02*
X151830000Y-149653000D01*
X151870000Y-144800000D02*
X151870000Y-149600000D01*
X151910000Y-144856000D02*
X151910000Y-149544000D01*
X151950000Y-144913000D02*
X151950000Y-149487000D01*
X151990000Y-144973000D02*
X151990000Y-149427000D01*
X152030000Y-145035000D02*
X152030000Y-149365000D01*
X152070000Y-145099000D02*
X152070000Y-149301000D01*
X152110000Y-145166000D02*
X152110000Y-149234000D01*
X152150000Y-145236000D02*
X152150000Y-149164000D01*
X152190000Y-145310000D02*
X152190000Y-149090000D01*
X152230000Y-145387000D02*
X152230000Y-149013000D01*
X152270000Y-145469000D02*
X152270000Y-148931000D01*
X152310000Y-145556000D02*
X152310000Y-148844000D01*
X152350000Y-145648000D02*
X152350000Y-148752000D01*
X152390000Y-145747000D02*
X152390000Y-148653000D01*
X152430000Y-145854000D02*
X152430000Y-148546000D01*
X152470000Y-145972000D02*
X152470000Y-148428000D01*
X152510000Y-146103000D02*
X152510000Y-148297000D01*
X152550000Y-146253000D02*
X152550000Y-148147000D01*
X152590000Y-146432000D02*
X152590000Y-147968000D01*
X152630000Y-146667000D02*
X152630000Y-147733000D01*
X152670000Y-147200000D02*
G75*
G02*
X144430000Y-147200000I-4120000J0D01*
G01*
X144430000Y-147200000D02*
G75*
G02*
X152670000Y-147200000I4120000J0D01*
G01*
%TO.C,R28*%
X99543748Y-78490000D02*
X100066252Y-78490000D01*
X99543748Y-79960000D02*
X100066252Y-79960000D01*
%TO.C,C5*%
X98430000Y-94380000D02*
X106170000Y-94380000D01*
X98430000Y-95766000D02*
X98430000Y-94380000D01*
X98430000Y-99620000D02*
X98430000Y-98234000D01*
X106170000Y-94380000D02*
X106170000Y-95766000D01*
X106170000Y-98234000D02*
X106170000Y-99620000D01*
X106170000Y-99620000D02*
X98430000Y-99620000D01*
%TO.C,C1*%
X105690000Y-139576248D02*
X105690000Y-140098752D01*
X107160000Y-139576248D02*
X107160000Y-140098752D01*
%TO.C,R1*%
X102818748Y-139635000D02*
X103341252Y-139635000D01*
X102818748Y-141105000D02*
X103341252Y-141105000D01*
%TO.C,T2*%
X117040000Y-142250000D02*
X121660000Y-142250000D01*
X117040000Y-145510000D02*
X118420000Y-145510000D01*
X117040000Y-149210000D02*
X118420000Y-149210000D01*
X117040000Y-152470000D02*
X117040000Y-142250000D01*
X118420000Y-152470000D02*
X118420000Y-142250000D01*
X121660000Y-142250000D02*
X121660000Y-152470000D01*
X121660000Y-152470000D02*
X117040000Y-152470000D01*
%TO.C,R3*%
X116127500Y-140223752D02*
X116127500Y-139701248D01*
X117597500Y-140223752D02*
X117597500Y-139701248D01*
%TO.C,M1*%
D15*
X115685990Y-76107200D02*
X115965390Y-76107200D01*
X115685990Y-79002800D02*
X115685990Y-76107200D01*
X115939990Y-80653800D02*
X116574990Y-79637800D01*
X116117790Y-76259600D02*
X116473390Y-76259600D01*
X117209990Y-80653800D02*
X115939990Y-80653800D01*
X117209990Y-80653800D02*
X116574990Y-79637800D01*
X128106590Y-76259600D02*
X128462190Y-76259600D01*
X128614590Y-76107200D02*
X128893990Y-76107200D01*
X128893990Y-76107200D02*
X128893990Y-79002800D01*
%TO.C,C6*%
D12*
X109680000Y-94780000D02*
X117420000Y-94780000D01*
X109680000Y-96166000D02*
X109680000Y-94780000D01*
X109680000Y-100020000D02*
X109680000Y-98634000D01*
X117420000Y-94780000D02*
X117420000Y-96166000D01*
X117420000Y-98634000D02*
X117420000Y-100020000D01*
X117420000Y-100020000D02*
X109680000Y-100020000D01*
%TO.C,C13*%
X136420354Y-134325000D02*
X137420354Y-134325000D01*
X136920354Y-133825000D02*
X136920354Y-134825000D01*
X141900000Y-132120000D02*
X141900000Y-142280000D01*
X141940000Y-132120000D02*
X141940000Y-142280000D01*
X141980000Y-132121000D02*
X141980000Y-142279000D01*
X142020000Y-132121000D02*
X142020000Y-142279000D01*
X142060000Y-132123000D02*
X142060000Y-142277000D01*
X142100000Y-132124000D02*
X142100000Y-142276000D01*
X142140000Y-132126000D02*
X142140000Y-142274000D01*
X142180000Y-132128000D02*
X142180000Y-142272000D01*
X142220000Y-132130000D02*
X142220000Y-142270000D01*
X142260000Y-132133000D02*
X142260000Y-142267000D01*
X142300000Y-132136000D02*
X142300000Y-142264000D01*
X142340000Y-132139000D02*
X142340000Y-142261000D01*
X142380000Y-132143000D02*
X142380000Y-142257000D01*
X142420000Y-132146000D02*
X142420000Y-142254000D01*
X142460000Y-132151000D02*
X142460000Y-142249000D01*
X142500000Y-132155000D02*
X142500000Y-142245000D01*
X142540000Y-132160000D02*
X142540000Y-142240000D01*
X142580000Y-132165000D02*
X142580000Y-142235000D01*
X142620000Y-132171000D02*
X142620000Y-142229000D01*
X142660000Y-132177000D02*
X142660000Y-142223000D01*
X142700000Y-132183000D02*
X142700000Y-142217000D01*
X142740000Y-132189000D02*
X142740000Y-142211000D01*
X142780000Y-132196000D02*
X142780000Y-142204000D01*
X142820000Y-132203000D02*
X142820000Y-142197000D01*
X142860000Y-132211000D02*
X142860000Y-142189000D01*
X142900000Y-132219000D02*
X142900000Y-142181000D01*
X142940000Y-132227000D02*
X142940000Y-142173000D01*
X142980000Y-132235000D02*
X142980000Y-142165000D01*
X143020000Y-132244000D02*
X143020000Y-142156000D01*
X143060000Y-132253000D02*
X143060000Y-142147000D01*
X143100000Y-132263000D02*
X143100000Y-142137000D01*
X143140000Y-132272000D02*
X143140000Y-142128000D01*
X143180000Y-132283000D02*
X143180000Y-135960000D01*
X143180000Y-138440000D02*
X143180000Y-142117000D01*
X143220000Y-132293000D02*
X143220000Y-135960000D01*
X143220000Y-138440000D02*
X143220000Y-142107000D01*
X143260000Y-132304000D02*
X143260000Y-135960000D01*
X143260000Y-138440000D02*
X143260000Y-142096000D01*
X143300000Y-132315000D02*
X143300000Y-135960000D01*
X143300000Y-138440000D02*
X143300000Y-142085000D01*
X143340000Y-132327000D02*
X143340000Y-135960000D01*
X143340000Y-138440000D02*
X143340000Y-142073000D01*
X143380000Y-132339000D02*
X143380000Y-135960000D01*
X143380000Y-138440000D02*
X143380000Y-142061000D01*
X143420000Y-132351000D02*
X143420000Y-135960000D01*
X143420000Y-138440000D02*
X143420000Y-142049000D01*
X143460000Y-132363000D02*
X143460000Y-135960000D01*
X143460000Y-138440000D02*
X143460000Y-142037000D01*
X143500000Y-132376000D02*
X143500000Y-135960000D01*
X143500000Y-138440000D02*
X143500000Y-142024000D01*
X143540000Y-132390000D02*
X143540000Y-135960000D01*
X143540000Y-138440000D02*
X143540000Y-142010000D01*
X143580000Y-132403000D02*
X143580000Y-135960000D01*
X143580000Y-138440000D02*
X143580000Y-141997000D01*
X143620000Y-132418000D02*
X143620000Y-135960000D01*
X143620000Y-138440000D02*
X143620000Y-141982000D01*
X143660000Y-132432000D02*
X143660000Y-135960000D01*
X143660000Y-138440000D02*
X143660000Y-141968000D01*
X143700000Y-132447000D02*
X143700000Y-135960000D01*
X143700000Y-138440000D02*
X143700000Y-141953000D01*
X143740000Y-132462000D02*
X143740000Y-135960000D01*
X143740000Y-138440000D02*
X143740000Y-141938000D01*
X143780000Y-132478000D02*
X143780000Y-135960000D01*
X143780000Y-138440000D02*
X143780000Y-141922000D01*
X143820000Y-132494000D02*
X143820000Y-135960000D01*
X143820000Y-138440000D02*
X143820000Y-141906000D01*
X143860000Y-132510000D02*
X143860000Y-135960000D01*
X143860000Y-138440000D02*
X143860000Y-141890000D01*
X143900000Y-132527000D02*
X143900000Y-135960000D01*
X143900000Y-138440000D02*
X143900000Y-141873000D01*
X143940000Y-132544000D02*
X143940000Y-135960000D01*
X143940000Y-138440000D02*
X143940000Y-141856000D01*
X143980000Y-132562000D02*
X143980000Y-135960000D01*
X143980000Y-138440000D02*
X143980000Y-141838000D01*
X144020000Y-132580000D02*
X144020000Y-135960000D01*
X144020000Y-138440000D02*
X144020000Y-141820000D01*
X144060000Y-132598000D02*
X144060000Y-135960000D01*
X144060000Y-138440000D02*
X144060000Y-141802000D01*
X144100000Y-132617000D02*
X144100000Y-135960000D01*
X144100000Y-138440000D02*
X144100000Y-141783000D01*
X144140000Y-132636000D02*
X144140000Y-135960000D01*
X144140000Y-138440000D02*
X144140000Y-141764000D01*
X144180000Y-132656000D02*
X144180000Y-135960000D01*
X144180000Y-138440000D02*
X144180000Y-141744000D01*
X144220000Y-132676000D02*
X144220000Y-135960000D01*
X144220000Y-138440000D02*
X144220000Y-141724000D01*
X144260000Y-132696000D02*
X144260000Y-135960000D01*
X144260000Y-138440000D02*
X144260000Y-141704000D01*
X144300000Y-132717000D02*
X144300000Y-135960000D01*
X144300000Y-138440000D02*
X144300000Y-141683000D01*
X144340000Y-132739000D02*
X144340000Y-135960000D01*
X144340000Y-138440000D02*
X144340000Y-141661000D01*
X144380000Y-132761000D02*
X144380000Y-135960000D01*
X144380000Y-138440000D02*
X144380000Y-141639000D01*
X144420000Y-132783000D02*
X144420000Y-135960000D01*
X144420000Y-138440000D02*
X144420000Y-141617000D01*
X144460000Y-132806000D02*
X144460000Y-135960000D01*
X144460000Y-138440000D02*
X144460000Y-141594000D01*
X144500000Y-132829000D02*
X144500000Y-135960000D01*
X144500000Y-138440000D02*
X144500000Y-141571000D01*
X144540000Y-132853000D02*
X144540000Y-135960000D01*
X144540000Y-138440000D02*
X144540000Y-141547000D01*
X144580000Y-132877000D02*
X144580000Y-135960000D01*
X144580000Y-138440000D02*
X144580000Y-141523000D01*
X144620000Y-132902000D02*
X144620000Y-135960000D01*
X144620000Y-138440000D02*
X144620000Y-141498000D01*
X144660000Y-132928000D02*
X144660000Y-135960000D01*
X144660000Y-138440000D02*
X144660000Y-141472000D01*
X144700000Y-132953000D02*
X144700000Y-135960000D01*
X144700000Y-138440000D02*
X144700000Y-141447000D01*
X144740000Y-132980000D02*
X144740000Y-135960000D01*
X144740000Y-138440000D02*
X144740000Y-141420000D01*
X144780000Y-133007000D02*
X144780000Y-135960000D01*
X144780000Y-138440000D02*
X144780000Y-141393000D01*
X144820000Y-133034000D02*
X144820000Y-135960000D01*
X144820000Y-138440000D02*
X144820000Y-141366000D01*
X144860000Y-133062000D02*
X144860000Y-135960000D01*
X144860000Y-138440000D02*
X144860000Y-141338000D01*
X144900000Y-133091000D02*
X144900000Y-135960000D01*
X144900000Y-138440000D02*
X144900000Y-141309000D01*
X144940000Y-133120000D02*
X144940000Y-135960000D01*
X144940000Y-138440000D02*
X144940000Y-141280000D01*
X144980000Y-133150000D02*
X144980000Y-135960000D01*
X144980000Y-138440000D02*
X144980000Y-141250000D01*
X145020000Y-133180000D02*
X145020000Y-135960000D01*
X145020000Y-138440000D02*
X145020000Y-141220000D01*
X145060000Y-133212000D02*
X145060000Y-135960000D01*
X145060000Y-138440000D02*
X145060000Y-141188000D01*
X145100000Y-133243000D02*
X145100000Y-135960000D01*
X145100000Y-138440000D02*
X145100000Y-141157000D01*
X145140000Y-133276000D02*
X145140000Y-135960000D01*
X145140000Y-138440000D02*
X145140000Y-141124000D01*
X145180000Y-133309000D02*
X145180000Y-135960000D01*
X145180000Y-138440000D02*
X145180000Y-141091000D01*
X145220000Y-133342000D02*
X145220000Y-135960000D01*
X145220000Y-138440000D02*
X145220000Y-141058000D01*
X145260000Y-133377000D02*
X145260000Y-135960000D01*
X145260000Y-138440000D02*
X145260000Y-141023000D01*
X145300000Y-133412000D02*
X145300000Y-135960000D01*
X145300000Y-138440000D02*
X145300000Y-140988000D01*
X145340000Y-133448000D02*
X145340000Y-135960000D01*
X145340000Y-138440000D02*
X145340000Y-140952000D01*
X145380000Y-133484000D02*
X145380000Y-135960000D01*
X145380000Y-138440000D02*
X145380000Y-140916000D01*
X145420000Y-133522000D02*
X145420000Y-135960000D01*
X145420000Y-138440000D02*
X145420000Y-140878000D01*
X145460000Y-133560000D02*
X145460000Y-135960000D01*
X145460000Y-138440000D02*
X145460000Y-140840000D01*
X145500000Y-133599000D02*
X145500000Y-135960000D01*
X145500000Y-138440000D02*
X145500000Y-140801000D01*
X145540000Y-133639000D02*
X145540000Y-135960000D01*
X145540000Y-138440000D02*
X145540000Y-140761000D01*
X145580000Y-133680000D02*
X145580000Y-135960000D01*
X145580000Y-138440000D02*
X145580000Y-140720000D01*
X145620000Y-133722000D02*
X145620000Y-135960000D01*
X145620000Y-138440000D02*
X145620000Y-140678000D01*
X145660000Y-133765000D02*
X145660000Y-140635000D01*
X145700000Y-133809000D02*
X145700000Y-140591000D01*
X145740000Y-133853000D02*
X145740000Y-140547000D01*
X145780000Y-133899000D02*
X145780000Y-140501000D01*
X145820000Y-133946000D02*
X145820000Y-140454000D01*
X145860000Y-133995000D02*
X145860000Y-140405000D01*
X145900000Y-134044000D02*
X145900000Y-140356000D01*
X145940000Y-134095000D02*
X145940000Y-140305000D01*
X145980000Y-134147000D02*
X145980000Y-140253000D01*
X146020000Y-134200000D02*
X146020000Y-140200000D01*
X146060000Y-134255000D02*
X146060000Y-140145000D01*
X146100000Y-134312000D02*
X146100000Y-140088000D01*
X146140000Y-134370000D02*
X146140000Y-140030000D01*
X146180000Y-134430000D02*
X146180000Y-139970000D01*
X146220000Y-134492000D02*
X146220000Y-139908000D01*
X146260000Y-134556000D02*
X146260000Y-139844000D01*
X146300000Y-134622000D02*
X146300000Y-139778000D01*
X146340000Y-134690000D02*
X146340000Y-139710000D01*
X146380000Y-134761000D02*
X146380000Y-139639000D01*
X146420000Y-134835000D02*
X146420000Y-139565000D01*
X146460000Y-134912000D02*
X146460000Y-139488000D01*
X146500000Y-134992000D02*
X146500000Y-139408000D01*
X146540000Y-135076000D02*
X146540000Y-139324000D01*
X146580000Y-135163000D02*
X146580000Y-139237000D01*
X146620000Y-135256000D02*
X146620000Y-139144000D01*
X146660000Y-135354000D02*
X146660000Y-139046000D01*
X146700000Y-135458000D02*
X146700000Y-138942000D01*
X146740000Y-135570000D02*
X146740000Y-138830000D01*
X146780000Y-135691000D02*
X146780000Y-138709000D01*
X146820000Y-135823000D02*
X146820000Y-138577000D01*
X146860000Y-135970000D02*
X146860000Y-138430000D01*
X146900000Y-136138000D02*
X146900000Y-138262000D01*
X146940000Y-136338000D02*
X146940000Y-138062000D01*
X146980000Y-136601000D02*
X146980000Y-137799000D01*
X147020000Y-137200000D02*
G75*
G02*
X136780000Y-137200000I-5120000J0D01*
G01*
X136780000Y-137200000D02*
G75*
G02*
X147020000Y-137200000I5120000J0D01*
G01*
%TO.C,L1*%
X143852064Y-127590000D02*
X139747936Y-127590000D01*
X143852064Y-131010000D02*
X139747936Y-131010000D01*
%TO.C,R26*%
X99501248Y-72665000D02*
X100023752Y-72665000D01*
X99501248Y-74135000D02*
X100023752Y-74135000D01*
%TO.C,U1*%
D13*
X96105000Y-83315000D02*
X96105000Y-89665000D01*
X96110000Y-83315000D02*
X96660000Y-83315000D01*
X96110000Y-89665000D02*
X96660000Y-89665000D01*
X104610000Y-83315000D02*
X104060000Y-83315000D01*
X104610000Y-89665000D02*
X104060000Y-89665000D01*
X104615000Y-89665000D02*
X104615000Y-83315000D01*
D11*
X103000000Y-81056000D02*
G75*
G02*
X102800000Y-81056000I-100000J0D01*
G01*
X102800000Y-81056000D02*
G75*
G02*
X103000000Y-81056000I100000J0D01*
G01*
%TO.C,R6*%
D12*
X131365000Y-83723752D02*
X131365000Y-83201248D01*
X132835000Y-83723752D02*
X132835000Y-83201248D01*
%TO.C,PS3*%
D11*
X108150000Y-131350000D02*
G75*
G02*
X107950000Y-131350000I-100000J0D01*
G01*
X107950000Y-131350000D02*
G75*
G02*
X108150000Y-131350000I100000J0D01*
G01*
D13*
X109000000Y-137700000D02*
X135400000Y-137700000D01*
X135400000Y-126700000D02*
X109000000Y-126700000D01*
X109000000Y-131550000D02*
X109000000Y-137700000D01*
X109000000Y-126700000D02*
X109000000Y-127500000D01*
X135400000Y-131550000D02*
X135400000Y-137700000D01*
X135400000Y-126700000D02*
X135400000Y-127500000D01*
%TD*%
%LPC*%
D16*
%TO.C,PS3*%
X123890000Y-131465000D02*
X122690000Y-131465000D01*
X122690000Y-127535000D01*
X123890000Y-127535000D01*
X123890000Y-131465000D01*
G36*
X123890000Y-131465000D02*
G01*
X122690000Y-131465000D01*
X122690000Y-127535000D01*
X123890000Y-127535000D01*
X123890000Y-131465000D01*
G37*
X122890000Y-128900000D02*
X122890000Y-130100000D01*
X122890000Y-131100000D01*
X120600000Y-131100000D01*
X120600000Y-127900000D01*
X122890000Y-127900000D01*
X122890000Y-128900000D01*
G36*
X122890000Y-128900000D02*
G01*
X122890000Y-130100000D01*
X122890000Y-131100000D01*
X120600000Y-131100000D01*
X120600000Y-127900000D01*
X122890000Y-127900000D01*
X122890000Y-128900000D01*
G37*
X129710000Y-131465000D02*
X128510000Y-131465000D01*
X128510000Y-127535000D01*
X129710000Y-127535000D01*
X129710000Y-131465000D01*
G36*
X129710000Y-131465000D02*
G01*
X128510000Y-131465000D01*
X128510000Y-127535000D01*
X129710000Y-127535000D01*
X129710000Y-131465000D01*
G37*
X131800000Y-131100000D02*
X129510000Y-131100000D01*
X129510000Y-130100000D01*
X129510000Y-128900000D01*
X129510000Y-127900000D01*
X131800000Y-127900000D01*
X131800000Y-131100000D01*
G36*
X131800000Y-131100000D02*
G01*
X129510000Y-131100000D01*
X129510000Y-130100000D01*
X129510000Y-128900000D01*
X129510000Y-127900000D01*
X131800000Y-127900000D01*
X131800000Y-131100000D01*
G37*
%TD*%
D17*
%TO.C,R5*%
X118900000Y-86275000D03*
X118900000Y-84200000D03*
%TD*%
%TO.C,R8*%
X118800000Y-90400000D03*
X118800000Y-88325000D03*
%TD*%
D18*
%TO.C,WirePad8*%
X135600000Y-149900000D03*
%TD*%
D19*
%TO.C,C12*%
X145000000Y-117700000D03*
X145000000Y-125200000D03*
%TD*%
D20*
%TO.C,U2*%
X114580000Y-82900000D03*
D21*
X112040000Y-82900000D03*
X109500000Y-82900000D03*
X109500000Y-90520000D03*
X112040000Y-90520000D03*
X114580000Y-90520000D03*
%TD*%
D22*
%TO.C,MOV1*%
X110000000Y-119100000D03*
X117500000Y-119100000D03*
%TD*%
D23*
%TO.C,T1*%
X108500000Y-149940000D03*
D24*
X108500000Y-147400000D03*
X108500000Y-144860000D03*
%TD*%
D25*
%TO.C,MH2*%
X156750000Y-47250000D03*
%TD*%
D26*
%TO.C,MT1*%
X135000000Y-97500000D03*
D27*
X135000000Y-102500000D03*
X120500000Y-97500000D03*
X120500000Y-102500000D03*
X120500000Y-100000000D03*
D28*
X128000000Y-94300000D03*
X128000000Y-105700000D03*
%TD*%
D29*
%TO.C,R27*%
X98767500Y-76215000D03*
X100842500Y-76215000D03*
%TD*%
D23*
%TO.C,T3*%
X131400000Y-149940000D03*
D24*
X131400000Y-147400000D03*
X131400000Y-144860000D03*
%TD*%
D30*
%TO.C,LF1*%
X139100000Y-110700000D03*
X129100000Y-110700000D03*
X129100000Y-123700000D03*
X139100000Y-123700000D03*
%TD*%
D18*
%TO.C,WirePad4*%
X113300000Y-150000000D03*
%TD*%
D31*
%TO.C,C4*%
X123900000Y-124700000D03*
X123900000Y-109700000D03*
%TD*%
D25*
%TO.C,MH3*%
X156750000Y-149750000D03*
%TD*%
D32*
%TO.C,D1*%
X144800000Y-109400000D03*
X144800000Y-113830000D03*
%TD*%
D33*
%TO.C,ESP2*%
X104320000Y-73200000D03*
D34*
X106860000Y-73200000D03*
X109400000Y-73200000D03*
X111940000Y-73200000D03*
X114480000Y-73200000D03*
X117020000Y-73200000D03*
X119560000Y-73200000D03*
X122100000Y-73200000D03*
X124640000Y-73200000D03*
X127180000Y-73200000D03*
X129720000Y-73200000D03*
X132260000Y-73200000D03*
X134800000Y-73200000D03*
X137340000Y-73200000D03*
X139880000Y-73200000D03*
X142420000Y-73200000D03*
X144960000Y-73200000D03*
X147500000Y-73200000D03*
X150040000Y-73200000D03*
X104320000Y-47800000D03*
X106860000Y-47800000D03*
X109400000Y-47800000D03*
X111940000Y-47800000D03*
X114480000Y-47800000D03*
X117020000Y-47800000D03*
X119560000Y-47800000D03*
X122100000Y-47800000D03*
X124640000Y-47800000D03*
X127180000Y-47800000D03*
X129720000Y-47800000D03*
X132260000Y-47800000D03*
X134800000Y-47800000D03*
X137340000Y-47800000D03*
X139880000Y-47800000D03*
X142420000Y-47800000D03*
X144960000Y-47800000D03*
X147500000Y-47800000D03*
X150040000Y-47800000D03*
%TD*%
D35*
%TO.C,C7*%
X111200000Y-106300000D03*
D19*
X116200000Y-106300000D03*
%TD*%
D17*
%TO.C,R7*%
X106300000Y-84237500D03*
X106300000Y-82162500D03*
%TD*%
D36*
%TO.C,F1*%
X101100000Y-101825000D03*
X101100000Y-125575000D03*
%TD*%
D37*
%TO.C,C3*%
X120200000Y-139000000D03*
X120200000Y-141075000D03*
%TD*%
D25*
%TO.C,MH1*%
X99250000Y-47250000D03*
%TD*%
D17*
%TO.C,R9*%
X132000000Y-90437500D03*
X132000000Y-88362500D03*
%TD*%
%TO.C,R2*%
X110100000Y-141000000D03*
X110100000Y-138925000D03*
%TD*%
D20*
%TO.C,U3*%
X127400000Y-82680000D03*
D21*
X124860000Y-82680000D03*
X122320000Y-82680000D03*
X122320000Y-90300000D03*
X124860000Y-90300000D03*
X127400000Y-90300000D03*
%TD*%
D37*
%TO.C,C2*%
X113500000Y-138925000D03*
X113500000Y-141000000D03*
%TD*%
%TO.C,R4*%
X106100000Y-87300000D03*
X106100000Y-89375000D03*
%TD*%
D38*
%TO.C,C15*%
X146800000Y-147200000D03*
D39*
X150300000Y-147200000D03*
%TD*%
D29*
%TO.C,R28*%
X98767500Y-79225000D03*
X100842500Y-79225000D03*
%TD*%
D18*
%TO.C,WirePad2*%
X98500000Y-142700000D03*
%TD*%
D19*
%TO.C,C5*%
X106050000Y-97000000D03*
X98550000Y-97000000D03*
%TD*%
D37*
%TO.C,C1*%
X106425000Y-138800000D03*
X106425000Y-140875000D03*
%TD*%
D29*
%TO.C,R1*%
X102042500Y-140370000D03*
X104117500Y-140370000D03*
%TD*%
D23*
%TO.C,T2*%
X120300000Y-149900000D03*
D24*
X120300000Y-147360000D03*
X120300000Y-144820000D03*
%TD*%
D17*
%TO.C,R3*%
X116862500Y-141000000D03*
X116862500Y-138925000D03*
%TD*%
D18*
%TO.C,WirePad6*%
X124400000Y-149900000D03*
%TD*%
D40*
%TO.C,M1*%
X116590000Y-78865000D03*
D41*
X116890000Y-76245000D03*
D40*
X117190000Y-78865000D03*
D41*
X117490010Y-76245000D03*
D40*
X117790010Y-78865000D03*
D41*
X118090000Y-76245000D03*
D40*
X118390000Y-78865000D03*
D41*
X118690000Y-76245000D03*
D40*
X118990010Y-78865000D03*
D41*
X119290000Y-76245000D03*
D40*
X119590000Y-78865000D03*
D41*
X119890010Y-76245000D03*
D40*
X120190010Y-78865000D03*
D41*
X120490000Y-76245000D03*
D40*
X120790000Y-78865000D03*
D41*
X121090010Y-76245000D03*
D40*
X121390006Y-78865000D03*
D41*
X121690002Y-76245000D03*
D40*
X121990002Y-78865000D03*
D41*
X122289990Y-76245000D03*
D40*
X122590006Y-78865000D03*
D41*
X122890002Y-76245000D03*
D40*
X123190002Y-78865000D03*
D41*
X123490010Y-76245000D03*
D40*
X123790010Y-78865000D03*
D41*
X124090010Y-76245000D03*
D40*
X124390000Y-78865000D03*
D41*
X124690000Y-76245000D03*
D40*
X124990010Y-78865000D03*
D41*
X125290010Y-76245000D03*
D40*
X125590000Y-78865000D03*
D41*
X125890000Y-76245000D03*
D40*
X126190010Y-78865000D03*
D41*
X126490010Y-76245000D03*
D40*
X126790000Y-78865000D03*
D41*
X127090000Y-76245000D03*
D40*
X127390010Y-78865000D03*
D41*
X127690010Y-76245000D03*
D40*
X127990000Y-78865000D03*
X116190000Y-78865000D03*
X128389980Y-78865000D03*
%TD*%
D18*
%TO.C,WirePad1*%
X98300000Y-133200000D03*
%TD*%
D19*
%TO.C,C6*%
X109800000Y-97400000D03*
X117300000Y-97400000D03*
%TD*%
D35*
%TO.C,C13*%
X139400000Y-137200000D03*
D19*
X144400000Y-137200000D03*
%TD*%
D42*
%TO.C,L1*%
X144700000Y-129300000D03*
X138900000Y-129300000D03*
%TD*%
D29*
%TO.C,R26*%
X98725000Y-73400000D03*
X100800000Y-73400000D03*
%TD*%
D20*
%TO.C,U1*%
X102900000Y-82680000D03*
D21*
X100360000Y-82680000D03*
X97820000Y-82680000D03*
X97820000Y-90300000D03*
X100360000Y-90300000D03*
X102900000Y-90300000D03*
%TD*%
D18*
%TO.C,WirePad3*%
X141300000Y-149900000D03*
%TD*%
D17*
%TO.C,R6*%
X132100000Y-84500000D03*
X132100000Y-82425000D03*
%TD*%
D25*
%TO.C,MH4*%
X99250000Y-149750000D03*
%TD*%
D43*
%TO.C,J2*%
X158100000Y-99900000D03*
X158100000Y-89900000D03*
X155600000Y-99900000D03*
X155600000Y-89900000D03*
X150600000Y-94900000D03*
D44*
X155600000Y-94900000D03*
D45*
X150600000Y-99900000D03*
X150600000Y-89900000D03*
%TD*%
D43*
%TO.C,J3*%
X158100000Y-113450000D03*
X158100000Y-103450000D03*
X155600000Y-113450000D03*
X155600000Y-103450000D03*
X150600000Y-108450000D03*
D44*
X155600000Y-108450000D03*
D45*
X150600000Y-113450000D03*
X150600000Y-103450000D03*
%TD*%
D43*
%TO.C,J4*%
X158100000Y-126950000D03*
X158100000Y-116950000D03*
X155600000Y-126950000D03*
X155600000Y-116950000D03*
X150600000Y-121950000D03*
D44*
X155600000Y-121950000D03*
D45*
X150600000Y-126950000D03*
X150600000Y-116950000D03*
%TD*%
D43*
%TO.C,J5*%
X158100000Y-140500000D03*
X158100000Y-130500000D03*
X155600000Y-140500000D03*
X155600000Y-130500000D03*
X150600000Y-135500000D03*
D44*
X155600000Y-135500000D03*
D45*
X150600000Y-140500000D03*
X150600000Y-130500000D03*
%TD*%
D43*
%TO.C,J1*%
X158100000Y-86300000D03*
X158100000Y-76300000D03*
X155600000Y-86300000D03*
X155600000Y-76300000D03*
X150600000Y-81300000D03*
D44*
X155600000Y-81300000D03*
D45*
X150600000Y-86300000D03*
X150600000Y-76300000D03*
%TD*%
D46*
%TO.C,PS3*%
X110200000Y-129500000D03*
X114200000Y-129500000D03*
X134200000Y-129500000D03*
X118200000Y-129500000D03*
%TD*%
%LPD*%
M02*
