M48
; REV F 39 VIA DRILLS
METRIC,TZ
T01C0.200
%
G90
T01
X010000Y004300
X010000Y004600
X010000Y004899
X010000Y005199
X010000Y005500
X010000Y005800
X010000Y006100
X010000Y006400
X010000Y006699
X010000Y007000
X010000Y007300
X010000Y007600
X010000Y007899
X010000Y008200
X010000Y008500
X010000Y008800
X010000Y009100
X010000Y009399
X010000Y009700
X010000Y010000
X010000Y010300
X010000Y010600
X010000Y010899
X010000Y011200
X010000Y011500
X010000Y011800
X010000Y012100
X010000Y012399
X010000Y012700
X010000Y013000
X010000Y013300
X010000Y013599
X010000Y013899
X010000Y014200
X010000Y014500
X010000Y014800
X010000Y015099
X010000Y015399
X010000Y015700
M30