G04 REV F*
%FSLAX46Y46*%
%MOMM*%
%ADD10C,0.150*%
%ADD11C,0.400*%
G01*
D10*
X0006500000Y0004300000D02*
X0010000000Y0004300000D01*
X0006500000Y0004600000D02*
X0010000000Y0004600000D01*
X0006500000Y0004900000D02*
X0010000000Y0004900000D01*
X0006500000Y0005200000D02*
X0010000000Y0005200000D01*
X0006500000Y0005500000D02*
X0010000000Y0005500000D01*
X0006500000Y0005800000D02*
X0010000000Y0005800000D01*
X0006500000Y0006100000D02*
X0010000000Y0006100000D01*
X0006500000Y0006400000D02*
X0010000000Y0006400000D01*
X0006500000Y0006700000D02*
X0010000000Y0006700000D01*
X0006500000Y0007000000D02*
X0010000000Y0007000000D01*
X0006500000Y0007300000D02*
X0010000000Y0007300000D01*
X0006500000Y0007600000D02*
X0010000000Y0007600000D01*
X0006500000Y0007900000D02*
X0010000000Y0007900000D01*
X0006500000Y0008200000D02*
X0010000000Y0008200000D01*
X0006500000Y0008500000D02*
X0010000000Y0008500000D01*
X0006500000Y0008800000D02*
X0010000000Y0008800000D01*
X0006500000Y0009100000D02*
X0010000000Y0009100000D01*
X0006500000Y0009400000D02*
X0010000000Y0009400000D01*
X0006500000Y0009700000D02*
X0010000000Y0009700000D01*
X0006500000Y0010000000D02*
X0010000000Y0010000000D01*
X0006500000Y0010300000D02*
X0010000000Y0010300000D01*
X0006500000Y0010600000D02*
X0010000000Y0010600000D01*
X0006500000Y0010900000D02*
X0010000000Y0010900000D01*
X0006500000Y0011200000D02*
X0010000000Y0011200000D01*
X0006500000Y0011500000D02*
X0010000000Y0011500000D01*
X0006500000Y0011800000D02*
X0010000000Y0011800000D01*
X0006500000Y0012100000D02*
X0010000000Y0012100000D01*
X0006500000Y0012400000D02*
X0010000000Y0012400000D01*
X0006500000Y0012700000D02*
X0010000000Y0012700000D01*
X0006500000Y0013000000D02*
X0010000000Y0013000000D01*
X0006500000Y0013300000D02*
X0010000000Y0013300000D01*
X0006500000Y0013600000D02*
X0010000000Y0013600000D01*
X0006500000Y0013900000D02*
X0010000000Y0013900000D01*
X0006500000Y0014200000D02*
X0010000000Y0014200000D01*
X0006500000Y0014500000D02*
X0010000000Y0014500000D01*
X0006500000Y0014800000D02*
X0010000000Y0014800000D01*
X0006500000Y0015100000D02*
X0010000000Y0015100000D01*
X0006500000Y0015400000D02*
X0010000000Y0015400000D01*
X0006500000Y0015700000D02*
X0010000000Y0015700000D01*
M02*