%TF.GenerationSoftware,KiCad,Pcbnew,10.0.5*%
%TF.CreationDate,2026-08-14T20:41:06-05:00*%
%TF.ProjectId,PCB_to_LCD_FPC_REV_G,5043425f-746f-45f4-9c43-445f4650435f,rev?*%
%TF.SameCoordinates,Original*%
%TF.FileFunction,Copper,L2,Bot*%
%TF.FilePolarity,Positive*%
%FSLAX46Y46*%
G04 Gerber Fmt 4.6, Leading zero omitted, Abs format (unit mm)*
G04 Created by KiCad (PCBNEW 10.0.5) date 2026-08-14 20:41:06*
%MOMM*%
%LPD*%
G01*
G04 APERTURE LIST*
%TA.AperFunction,SMDPad,CuDef*%
%ADD10R,3.500000X0.200000*%
%TD*%
%TA.AperFunction,ViaPad*%
%ADD11C,0.200000*%
%TD*%
%TA.AperFunction,Conductor*%
%ADD12C,0.070000*%
%TD*%
G04 APERTURE END LIST*
D10*
%TO.P,J2,1,Pin_1_1*%
%TO.N,Net-(J2-Pin_1)*%
X177950000Y-96000000D03*
%TO.P,J2,2,Pin_2_2*%
%TO.N,Net-(J2-Pin_2)*%
X177950000Y-96300000D03*
%TO.P,J2,3,Pin_3_3*%
%TO.N,Net-(J2-Pin_3)*%
X177950000Y-96600000D03*
%TO.P,J2,4,Pin_4_4*%
%TO.N,Net-(J2-Pin_4)*%
X177950000Y-96900000D03*
%TO.P,J2,5,Pin_5_5*%
%TO.N,Net-(J2-Pin_5)*%
X177950000Y-97200000D03*
%TO.P,J2,6,Pin_6_6*%
%TO.N,Net-(J2-Pin_6)*%
X177950000Y-97500000D03*
%TO.P,J2,7,Pin_7_7*%
%TO.N,Net-(J2-Pin_7)*%
X177950000Y-97800000D03*
%TO.P,J2,8,Pin_8_8*%
%TO.N,Net-(J2-Pin_8)*%
X177950000Y-98100000D03*
%TO.P,J2,9,Pin_9_9*%
%TO.N,Net-(J2-Pin_9)*%
X177950000Y-98400000D03*
%TO.P,J2,10,Pin_10_10*%
%TO.N,Net-(J2-Pin_10)*%
X177950000Y-98700000D03*
%TO.P,J2,11,Pin_11_11*%
%TO.N,Net-(J2-Pin_11)*%
X177950000Y-99000000D03*
%TO.P,J2,12,Pin_12_12*%
%TO.N,Net-(J2-Pin_12)*%
X177950000Y-99300000D03*
%TO.P,J2,13,Pin_13_13*%
%TO.N,Net-(J2-Pin_13)*%
X177950000Y-99600000D03*
%TO.P,J2,14,Pin_14_14*%
%TO.N,Net-(J2-Pin_14)*%
X177950000Y-99900000D03*
%TO.P,J2,15,Pin_15_15*%
%TO.N,Net-(J2-Pin_15)*%
X177950000Y-100200000D03*
%TO.P,J2,16,Pin_16_16*%
%TO.N,Net-(J2-Pin_16)*%
X177950000Y-100500000D03*
%TO.P,J2,17,Pin_17_17*%
%TO.N,Net-(J2-Pin_17)*%
X177950000Y-100800000D03*
%TO.P,J2,18,Pin_18_18*%
%TO.N,Net-(J2-Pin_18)*%
X177950000Y-101100000D03*
%TO.P,J2,19,Pin_19_19*%
%TO.N,Net-(J2-Pin_19)*%
X177950000Y-101400000D03*
%TO.P,J2,20,Pin_20_20*%
%TO.N,Net-(J2-Pin_20)*%
X177950000Y-101700000D03*
%TO.P,J2,21,Pin_21_21*%
%TO.N,Net-(J2-Pin_21)*%
X177950000Y-102000000D03*
%TO.P,J2,22,Pin_22_22*%
%TO.N,Net-(J2-Pin_22)*%
X177950000Y-102300000D03*
%TO.P,J2,23,Pin_23_23*%
%TO.N,Net-(J2-Pin_23)*%
X177950000Y-102600000D03*
%TO.P,J2,24,Pin_24_24*%
%TO.N,Net-(J2-Pin_24)*%
X177950000Y-102900000D03*
%TO.P,J2,25,Pin_25_25*%
%TO.N,Net-(J2-Pin_25)*%
X177950000Y-103200000D03*
%TO.P,J2,26,Pin_26_26*%
%TO.N,Net-(J2-Pin_26)*%
X177950000Y-103500000D03*
%TO.P,J2,27,Pin_27_27*%
%TO.N,Net-(J2-Pin_27)*%
X177950000Y-103800000D03*
%TO.P,J2,28,Pin_28_28*%
%TO.N,Net-(J2-Pin_28)*%
X177950000Y-104100000D03*
%TO.P,J2,29,Pin_29_29*%
%TO.N,Net-(J2-Pin_29)*%
X177950000Y-104400000D03*
%TO.P,J2,30,Pin_30_30*%
%TO.N,Net-(J2-Pin_30)*%
X177950000Y-104700000D03*
%TO.P,J2,31,Pin_31_31*%
%TO.N,Net-(J2-Pin_31)*%
X177950000Y-105000000D03*
%TO.P,J2,32,Pin_32_32*%
%TO.N,Net-(J2-Pin_32)*%
X177950000Y-105300000D03*
%TO.P,J2,33,Pin_33_33*%
%TO.N,Net-(J2-Pin_33)*%
X177950000Y-105600000D03*
%TO.P,J2,34,Pin_34_34*%
%TO.N,Net-(J2-Pin_34)*%
X177950000Y-105900000D03*
%TO.P,J2,35,Pin_35_35*%
%TO.N,Net-(J2-Pin_35)*%
X177950000Y-106200000D03*
%TO.P,J2,36,Pin_36_36*%
%TO.N,Net-(J2-Pin_36)*%
X177950000Y-106500000D03*
%TO.P,J2,37,Pin_37_37*%
%TO.N,Net-(J2-Pin_37)*%
X177950000Y-106800000D03*
%TO.P,J2,38,Pin_38_38*%
%TO.N,Net-(J2-Pin_38)*%
X177950000Y-107100000D03*
%TO.P,J2,39,Pin_39_39*%
%TO.N,Net-(J2-Pin_39)*%
X177950000Y-107400000D03*
%TD*%
D11*
%TO.N,Net-(J2-Pin_1)*%
X111900000Y-95975000D03*
%TO.N,Net-(J2-Pin_2)*%
X116200000Y-96300000D03*
%TO.N,Net-(J2-Pin_3)*%
X111900000Y-96600000D03*
%TO.N,Net-(J2-Pin_4)*%
X116200000Y-96900000D03*
%TO.N,Net-(J2-Pin_5)*%
X111900000Y-97200000D03*
%TO.N,Net-(J2-Pin_6)*%
X116200000Y-97500000D03*
%TO.N,Net-(J2-Pin_7)*%
X111900000Y-97800000D03*
%TO.N,Net-(J2-Pin_8)*%
X116200000Y-98100000D03*
%TO.N,Net-(J2-Pin_9)*%
X111900000Y-98400000D03*
%TO.N,Net-(J2-Pin_10)*%
X116200000Y-98700000D03*
%TO.N,Net-(J2-Pin_11)*%
X111900000Y-99000000D03*
%TO.N,Net-(J2-Pin_12)*%
X116200000Y-99300000D03*
%TO.N,Net-(J2-Pin_13)*%
X111900000Y-99600000D03*
%TO.N,Net-(J2-Pin_14)*%
X116200000Y-99900000D03*
%TO.N,Net-(J2-Pin_15)*%
X111900000Y-100200000D03*
%TO.N,Net-(J2-Pin_16)*%
X116200000Y-100500000D03*
%TO.N,Net-(J2-Pin_17)*%
X111900000Y-100775000D03*
%TO.N,Net-(J2-Pin_18)*%
X116200000Y-101100000D03*
%TO.N,Net-(J2-Pin_19)*%
X111900000Y-101400000D03*
%TO.N,Net-(J2-Pin_20)*%
X116200000Y-101700000D03*
%TO.N,Net-(J2-Pin_21)*%
X111900000Y-102000000D03*
%TO.N,Net-(J2-Pin_22)*%
X116200000Y-102300000D03*
%TO.N,Net-(J2-Pin_23)*%
X111900000Y-102600000D03*
%TO.N,Net-(J2-Pin_24)*%
X116200000Y-102900000D03*
%TO.N,Net-(J2-Pin_25)*%
X111900000Y-103200000D03*
%TO.N,Net-(J2-Pin_26)*%
X116200000Y-103500000D03*
%TO.N,Net-(J2-Pin_27)*%
X111900000Y-103800000D03*
%TO.N,Net-(J2-Pin_28)*%
X116200000Y-104100000D03*
%TO.N,Net-(J2-Pin_29)*%
X111900000Y-104400000D03*
%TO.N,Net-(J2-Pin_30)*%
X116200000Y-104700000D03*
%TO.N,Net-(J2-Pin_31)*%
X111900000Y-105000000D03*
%TO.N,Net-(J2-Pin_32)*%
X116200000Y-105300000D03*
%TO.N,Net-(J2-Pin_33)*%
X111900000Y-105600000D03*
%TO.N,Net-(J2-Pin_34)*%
X116200000Y-105900000D03*
%TO.N,Net-(J2-Pin_35)*%
X111900000Y-106200000D03*
%TO.N,Net-(J2-Pin_36)*%
X116200000Y-106500000D03*
%TO.N,Net-(J2-Pin_37)*%
X111900000Y-106800000D03*
%TO.N,Net-(J2-Pin_38)*%
X116200000Y-107100000D03*
%TO.N,Net-(J2-Pin_39)*%
X111900000Y-107400000D03*
%TD*%
%TO.N,Net-(J2-Pin_1)*%
D12*
X177950000Y-96000000D02*
X111925000Y-96000000D01*
X111925000Y-96000000D02*
X111900000Y-95975000D01*
%TO.N,Net-(J2-Pin_2)*%
X116200000Y-96300000D02*
X177950000Y-96300000D01*
%TO.N,Net-(J2-Pin_3)*%
X111900000Y-96600000D02*
X177950000Y-96600000D01*
%TO.N,Net-(J2-Pin_4)*%
X116200000Y-96900000D02*
X177950000Y-96900000D01*
%TO.N,Net-(J2-Pin_5)*%
X111900000Y-97200000D02*
X177950000Y-97200000D01*
%TO.N,Net-(J2-Pin_6)*%
X116200000Y-97500000D02*
X177950000Y-97500000D01*
%TO.N,Net-(J2-Pin_7)*%
X111900000Y-97800000D02*
X177950000Y-97800000D01*
%TO.N,Net-(J2-Pin_8)*%
X116200000Y-98100000D02*
X177950000Y-98100000D01*
%TO.N,Net-(J2-Pin_9)*%
X111900000Y-98400000D02*
X177950000Y-98400000D01*
%TO.N,Net-(J2-Pin_10)*%
X116200000Y-98700000D02*
X177950000Y-98700000D01*
%TO.N,Net-(J2-Pin_11)*%
X111900000Y-99000000D02*
X177950000Y-99000000D01*
%TO.N,Net-(J2-Pin_12)*%
X116200000Y-99300000D02*
X177950000Y-99300000D01*
%TO.N,Net-(J2-Pin_13)*%
X111900000Y-99600000D02*
X177950000Y-99600000D01*
%TO.N,Net-(J2-Pin_14)*%
X116200000Y-99900000D02*
X177950000Y-99900000D01*
%TO.N,Net-(J2-Pin_15)*%
X111900000Y-100200000D02*
X177950000Y-100200000D01*
%TO.N,Net-(J2-Pin_16)*%
X116200000Y-100500000D02*
X177950000Y-100500000D01*
%TO.N,Net-(J2-Pin_17)*%
X111925000Y-100800000D02*
X177950000Y-100800000D01*
X111900000Y-100775000D02*
X111925000Y-100800000D01*
%TO.N,Net-(J2-Pin_18)*%
X116200000Y-101100000D02*
X177950000Y-101100000D01*
%TO.N,Net-(J2-Pin_19)*%
X111900000Y-101400000D02*
X177950000Y-101400000D01*
%TO.N,Net-(J2-Pin_20)*%
X116200000Y-101700000D02*
X177950000Y-101700000D01*
%TO.N,Net-(J2-Pin_21)*%
X111900000Y-102000000D02*
X177950000Y-102000000D01*
%TO.N,Net-(J2-Pin_22)*%
X116200000Y-102300000D02*
X177950000Y-102300000D01*
%TO.N,Net-(J2-Pin_23)*%
X111900000Y-102600000D02*
X177950000Y-102600000D01*
%TO.N,Net-(J2-Pin_24)*%
X116200000Y-102900000D02*
X177950000Y-102900000D01*
%TO.N,Net-(J2-Pin_25)*%
X111900000Y-103200000D02*
X177950000Y-103200000D01*
%TO.N,Net-(J2-Pin_26)*%
X116200000Y-103500000D02*
X177950000Y-103500000D01*
%TO.N,Net-(J2-Pin_27)*%
X111900000Y-103800000D02*
X177950000Y-103800000D01*
%TO.N,Net-(J2-Pin_28)*%
X116200000Y-104100000D02*
X177950000Y-104100000D01*
%TO.N,Net-(J2-Pin_29)*%
X111900000Y-104400000D02*
X177950000Y-104400000D01*
%TO.N,Net-(J2-Pin_30)*%
X116200000Y-104700000D02*
X177950000Y-104700000D01*
%TO.N,Net-(J2-Pin_31)*%
X111900000Y-105000000D02*
X177950000Y-105000000D01*
%TO.N,Net-(J2-Pin_32)*%
X116200000Y-105300000D02*
X177950000Y-105300000D01*
%TO.N,Net-(J2-Pin_33)*%
X111900000Y-105600000D02*
X177950000Y-105600000D01*
%TO.N,Net-(J2-Pin_34)*%
X116200000Y-105900000D02*
X177950000Y-105900000D01*
%TO.N,Net-(J2-Pin_35)*%
X111900000Y-106200000D02*
X177950000Y-106200000D01*
%TO.N,Net-(J2-Pin_36)*%
X116200000Y-106500000D02*
X177950000Y-106500000D01*
%TO.N,Net-(J2-Pin_37)*%
X111900000Y-106800000D02*
X177950000Y-106800000D01*
%TO.N,Net-(J2-Pin_38)*%
X116200000Y-107100000D02*
X177950000Y-107100000D01*
%TO.N,Net-(J2-Pin_39)*%
X111900000Y-107400000D02*
X177950000Y-107400000D01*
%TD*%
M02*
