%TF.GenerationSoftware,KiCad,Pcbnew,10.0.5*%
%TF.CreationDate,2026-08-14T20:41:06-05:00*%
%TF.ProjectId,PCB_to_LCD_FPC_REV_G,5043425f-746f-45f4-9c43-445f4650435f,rev?*%
%TF.SameCoordinates,Original*%
%TF.FileFunction,Legend,Top*%
%TF.FilePolarity,Positive*%
%FSLAX46Y46*%
G04 Gerber Fmt 4.6, Leading zero omitted, Abs format (unit mm)*
G04 Created by KiCad (PCBNEW 10.0.5) date 2026-08-14 20:41:06*
%MOMM*%
%LPD*%
G01*
G04 APERTURE LIST*
G04 Aperture macros list*
%AMRoundRect*
0 Rectangle with rounded corners*
0 $1 Rounding radius*
0 $2 $3 $4 $5 $6 $7 $8 $9 X,Y pos of 4 corners*
0 Add a 4 corners polygon primitive as box body*
4,1,4,$2,$3,$4,$5,$6,$7,$8,$9,$2,$3,0*
0 Add four circle primitives for the rounded corners*
1,1,$1+$1,$2,$3*
1,1,$1+$1,$4,$5*
1,1,$1+$1,$6,$7*
1,1,$1+$1,$8,$9*
0 Add four rect primitives between the rounded corners*
20,1,$1+$1,$2,$3,$4,$5,0*
20,1,$1+$1,$4,$5,$6,$7,0*
20,1,$1+$1,$6,$7,$8,$9,0*
20,1,$1+$1,$8,$9,$2,$3,0*%
G04 Aperture macros list end*
%ADD10C,0.150000*%
%ADD11C,0.127000*%
%ADD12C,0.200000*%
%ADD13RoundRect,0.102000X-0.400000X0.150000X-0.400000X-0.150000X0.400000X-0.150000X0.400000X0.150000X0*%
%ADD14RoundRect,0.102000X-0.325000X0.150000X-0.325000X-0.150000X0.325000X-0.150000X0.325000X0.150000X0*%
%ADD15RoundRect,0.102000X-0.475000X0.200000X-0.475000X-0.200000X0.475000X-0.200000X0.475000X0.200000X0*%
G04 APERTURE END LIST*
D10*
X119347618Y-108362295D02*
X119080951Y-107981342D01*
X118890475Y-108362295D02*
X118890475Y-107562295D01*
X118890475Y-107562295D02*
X119195237Y-107562295D01*
X119195237Y-107562295D02*
X119271427Y-107600390D01*
X119271427Y-107600390D02*
X119309522Y-107638485D01*
X119309522Y-107638485D02*
X119347618Y-107714676D01*
X119347618Y-107714676D02*
X119347618Y-107828961D01*
X119347618Y-107828961D02*
X119309522Y-107905152D01*
X119309522Y-107905152D02*
X119271427Y-107943247D01*
X119271427Y-107943247D02*
X119195237Y-107981342D01*
X119195237Y-107981342D02*
X118890475Y-107981342D01*
X119690475Y-107943247D02*
X119957141Y-107943247D01*
X120071427Y-108362295D02*
X119690475Y-108362295D01*
X119690475Y-108362295D02*
X119690475Y-107562295D01*
X119690475Y-107562295D02*
X120071427Y-107562295D01*
X120299999Y-107562295D02*
X120566666Y-108362295D01*
X120566666Y-108362295D02*
X120833332Y-107562295D01*
X122128570Y-107600390D02*
X122052380Y-107562295D01*
X122052380Y-107562295D02*
X121938094Y-107562295D01*
X121938094Y-107562295D02*
X121823808Y-107600390D01*
X121823808Y-107600390D02*
X121747618Y-107676580D01*
X121747618Y-107676580D02*
X121709523Y-107752771D01*
X121709523Y-107752771D02*
X121671427Y-107905152D01*
X121671427Y-107905152D02*
X121671427Y-108019438D01*
X121671427Y-108019438D02*
X121709523Y-108171819D01*
X121709523Y-108171819D02*
X121747618Y-108248009D01*
X121747618Y-108248009D02*
X121823808Y-108324200D01*
X121823808Y-108324200D02*
X121938094Y-108362295D01*
X121938094Y-108362295D02*
X122014285Y-108362295D01*
X122014285Y-108362295D02*
X122128570Y-108324200D01*
X122128570Y-108324200D02*
X122166666Y-108286104D01*
X122166666Y-108286104D02*
X122166666Y-108019438D01*
X122166666Y-108019438D02*
X122014285Y-108019438D01*
X123690475Y-107524200D02*
X123004761Y-108552771D01*
X124795237Y-107562295D02*
X124795237Y-108133723D01*
X124795237Y-108133723D02*
X124757142Y-108248009D01*
X124757142Y-108248009D02*
X124680951Y-108324200D01*
X124680951Y-108324200D02*
X124566666Y-108362295D01*
X124566666Y-108362295D02*
X124490475Y-108362295D01*
X125595237Y-108362295D02*
X125138094Y-108362295D01*
X125366666Y-108362295D02*
X125366666Y-107562295D01*
X125366666Y-107562295D02*
X125290475Y-107676580D01*
X125290475Y-107676580D02*
X125214285Y-107752771D01*
X125214285Y-107752771D02*
X125138094Y-107790866D01*
X126547619Y-108362295D02*
X126547619Y-107562295D01*
X126547619Y-107943247D02*
X127004762Y-107943247D01*
X127004762Y-108362295D02*
X127004762Y-107562295D01*
X127385714Y-108362295D02*
X127385714Y-107562295D01*
X128223809Y-108362295D02*
X127957142Y-107981342D01*
X127766666Y-108362295D02*
X127766666Y-107562295D01*
X127766666Y-107562295D02*
X128071428Y-107562295D01*
X128071428Y-107562295D02*
X128147618Y-107600390D01*
X128147618Y-107600390D02*
X128185713Y-107638485D01*
X128185713Y-107638485D02*
X128223809Y-107714676D01*
X128223809Y-107714676D02*
X128223809Y-107828961D01*
X128223809Y-107828961D02*
X128185713Y-107905152D01*
X128185713Y-107905152D02*
X128147618Y-107943247D01*
X128147618Y-107943247D02*
X128071428Y-107981342D01*
X128071428Y-107981342D02*
X127766666Y-107981342D01*
X128719047Y-107562295D02*
X128871428Y-107562295D01*
X128871428Y-107562295D02*
X128947618Y-107600390D01*
X128947618Y-107600390D02*
X129023809Y-107676580D01*
X129023809Y-107676580D02*
X129061904Y-107828961D01*
X129061904Y-107828961D02*
X129061904Y-108095628D01*
X129061904Y-108095628D02*
X129023809Y-108248009D01*
X129023809Y-108248009D02*
X128947618Y-108324200D01*
X128947618Y-108324200D02*
X128871428Y-108362295D01*
X128871428Y-108362295D02*
X128719047Y-108362295D01*
X128719047Y-108362295D02*
X128642856Y-108324200D01*
X128642856Y-108324200D02*
X128566666Y-108248009D01*
X128566666Y-108248009D02*
X128528570Y-108095628D01*
X128528570Y-108095628D02*
X128528570Y-107828961D01*
X128528570Y-107828961D02*
X128566666Y-107676580D01*
X128566666Y-107676580D02*
X128642856Y-107600390D01*
X128642856Y-107600390D02*
X128719047Y-107562295D01*
X129366665Y-108324200D02*
X129480951Y-108362295D01*
X129480951Y-108362295D02*
X129671427Y-108362295D01*
X129671427Y-108362295D02*
X129747618Y-108324200D01*
X129747618Y-108324200D02*
X129785713Y-108286104D01*
X129785713Y-108286104D02*
X129823808Y-108209914D01*
X129823808Y-108209914D02*
X129823808Y-108133723D01*
X129823808Y-108133723D02*
X129785713Y-108057533D01*
X129785713Y-108057533D02*
X129747618Y-108019438D01*
X129747618Y-108019438D02*
X129671427Y-107981342D01*
X129671427Y-107981342D02*
X129519046Y-107943247D01*
X129519046Y-107943247D02*
X129442856Y-107905152D01*
X129442856Y-107905152D02*
X129404761Y-107867057D01*
X129404761Y-107867057D02*
X129366665Y-107790866D01*
X129366665Y-107790866D02*
X129366665Y-107714676D01*
X129366665Y-107714676D02*
X129404761Y-107638485D01*
X129404761Y-107638485D02*
X129442856Y-107600390D01*
X129442856Y-107600390D02*
X129519046Y-107562295D01*
X129519046Y-107562295D02*
X129709523Y-107562295D01*
X129709523Y-107562295D02*
X129823808Y-107600390D01*
X130166666Y-107943247D02*
X130433332Y-107943247D01*
X130547618Y-108362295D02*
X130166666Y-108362295D01*
X130166666Y-108362295D02*
X130166666Y-107562295D01*
X130166666Y-107562295D02*
X130547618Y-107562295D01*
X131766666Y-107943247D02*
X131500000Y-107943247D01*
X131500000Y-108362295D02*
X131500000Y-107562295D01*
X131500000Y-107562295D02*
X131880952Y-107562295D01*
X132338095Y-107562295D02*
X132490476Y-107562295D01*
X132490476Y-107562295D02*
X132566666Y-107600390D01*
X132566666Y-107600390D02*
X132642857Y-107676580D01*
X132642857Y-107676580D02*
X132680952Y-107828961D01*
X132680952Y-107828961D02*
X132680952Y-108095628D01*
X132680952Y-108095628D02*
X132642857Y-108248009D01*
X132642857Y-108248009D02*
X132566666Y-108324200D01*
X132566666Y-108324200D02*
X132490476Y-108362295D01*
X132490476Y-108362295D02*
X132338095Y-108362295D01*
X132338095Y-108362295D02*
X132261904Y-108324200D01*
X132261904Y-108324200D02*
X132185714Y-108248009D01*
X132185714Y-108248009D02*
X132147618Y-108095628D01*
X132147618Y-108095628D02*
X132147618Y-107828961D01*
X132147618Y-107828961D02*
X132185714Y-107676580D01*
X132185714Y-107676580D02*
X132261904Y-107600390D01*
X132261904Y-107600390D02*
X132338095Y-107562295D01*
X133176190Y-107562295D02*
X133328571Y-107562295D01*
X133328571Y-107562295D02*
X133404761Y-107600390D01*
X133404761Y-107600390D02*
X133480952Y-107676580D01*
X133480952Y-107676580D02*
X133519047Y-107828961D01*
X133519047Y-107828961D02*
X133519047Y-108095628D01*
X133519047Y-108095628D02*
X133480952Y-108248009D01*
X133480952Y-108248009D02*
X133404761Y-108324200D01*
X133404761Y-108324200D02*
X133328571Y-108362295D01*
X133328571Y-108362295D02*
X133176190Y-108362295D01*
X133176190Y-108362295D02*
X133099999Y-108324200D01*
X133099999Y-108324200D02*
X133023809Y-108248009D01*
X133023809Y-108248009D02*
X132985713Y-108095628D01*
X132985713Y-108095628D02*
X132985713Y-107828961D01*
X132985713Y-107828961D02*
X133023809Y-107676580D01*
X133023809Y-107676580D02*
X133099999Y-107600390D01*
X133099999Y-107600390D02*
X133176190Y-107562295D01*
X133747618Y-107562295D02*
X134204761Y-107562295D01*
X133976189Y-108362295D02*
X133976189Y-107562295D01*
X134471428Y-108362295D02*
X134471428Y-107562295D01*
X134471428Y-107562295D02*
X134776190Y-107562295D01*
X134776190Y-107562295D02*
X134852380Y-107600390D01*
X134852380Y-107600390D02*
X134890475Y-107638485D01*
X134890475Y-107638485D02*
X134928571Y-107714676D01*
X134928571Y-107714676D02*
X134928571Y-107828961D01*
X134928571Y-107828961D02*
X134890475Y-107905152D01*
X134890475Y-107905152D02*
X134852380Y-107943247D01*
X134852380Y-107943247D02*
X134776190Y-107981342D01*
X134776190Y-107981342D02*
X134471428Y-107981342D01*
X135728571Y-108362295D02*
X135461904Y-107981342D01*
X135271428Y-108362295D02*
X135271428Y-107562295D01*
X135271428Y-107562295D02*
X135576190Y-107562295D01*
X135576190Y-107562295D02*
X135652380Y-107600390D01*
X135652380Y-107600390D02*
X135690475Y-107638485D01*
X135690475Y-107638485D02*
X135728571Y-107714676D01*
X135728571Y-107714676D02*
X135728571Y-107828961D01*
X135728571Y-107828961D02*
X135690475Y-107905152D01*
X135690475Y-107905152D02*
X135652380Y-107943247D01*
X135652380Y-107943247D02*
X135576190Y-107981342D01*
X135576190Y-107981342D02*
X135271428Y-107981342D01*
X136071428Y-108362295D02*
X136071428Y-107562295D01*
X136452380Y-108362295D02*
X136452380Y-107562295D01*
X136452380Y-107562295D02*
X136909523Y-108362295D01*
X136909523Y-108362295D02*
X136909523Y-107562295D01*
X137176189Y-107562295D02*
X137633332Y-107562295D01*
X137404760Y-108362295D02*
X137404760Y-107562295D01*
X139080951Y-107524200D02*
X138395237Y-108552771D01*
X140109523Y-107562295D02*
X140185713Y-107562295D01*
X140185713Y-107562295D02*
X140261904Y-107600390D01*
X140261904Y-107600390D02*
X140299999Y-107638485D01*
X140299999Y-107638485D02*
X140338094Y-107714676D01*
X140338094Y-107714676D02*
X140376189Y-107867057D01*
X140376189Y-107867057D02*
X140376189Y-108057533D01*
X140376189Y-108057533D02*
X140338094Y-108209914D01*
X140338094Y-108209914D02*
X140299999Y-108286104D01*
X140299999Y-108286104D02*
X140261904Y-108324200D01*
X140261904Y-108324200D02*
X140185713Y-108362295D01*
X140185713Y-108362295D02*
X140109523Y-108362295D01*
X140109523Y-108362295D02*
X140033332Y-108324200D01*
X140033332Y-108324200D02*
X139995237Y-108286104D01*
X139995237Y-108286104D02*
X139957142Y-108209914D01*
X139957142Y-108209914D02*
X139919046Y-108057533D01*
X139919046Y-108057533D02*
X139919046Y-107867057D01*
X139919046Y-107867057D02*
X139957142Y-107714676D01*
X139957142Y-107714676D02*
X139995237Y-107638485D01*
X139995237Y-107638485D02*
X140033332Y-107600390D01*
X140033332Y-107600390D02*
X140109523Y-107562295D01*
X140719047Y-108286104D02*
X140757142Y-108324200D01*
X140757142Y-108324200D02*
X140719047Y-108362295D01*
X140719047Y-108362295D02*
X140680951Y-108324200D01*
X140680951Y-108324200D02*
X140719047Y-108286104D01*
X140719047Y-108286104D02*
X140719047Y-108362295D01*
X141252380Y-107562295D02*
X141328570Y-107562295D01*
X141328570Y-107562295D02*
X141404761Y-107600390D01*
X141404761Y-107600390D02*
X141442856Y-107638485D01*
X141442856Y-107638485D02*
X141480951Y-107714676D01*
X141480951Y-107714676D02*
X141519046Y-107867057D01*
X141519046Y-107867057D02*
X141519046Y-108057533D01*
X141519046Y-108057533D02*
X141480951Y-108209914D01*
X141480951Y-108209914D02*
X141442856Y-108286104D01*
X141442856Y-108286104D02*
X141404761Y-108324200D01*
X141404761Y-108324200D02*
X141328570Y-108362295D01*
X141328570Y-108362295D02*
X141252380Y-108362295D01*
X141252380Y-108362295D02*
X141176189Y-108324200D01*
X141176189Y-108324200D02*
X141138094Y-108286104D01*
X141138094Y-108286104D02*
X141099999Y-108209914D01*
X141099999Y-108209914D02*
X141061903Y-108057533D01*
X141061903Y-108057533D02*
X141061903Y-107867057D01*
X141061903Y-107867057D02*
X141099999Y-107714676D01*
X141099999Y-107714676D02*
X141138094Y-107638485D01*
X141138094Y-107638485D02*
X141176189Y-107600390D01*
X141176189Y-107600390D02*
X141252380Y-107562295D01*
X141785713Y-107562295D02*
X142319047Y-107562295D01*
X142319047Y-107562295D02*
X141976189Y-108362295D01*
X142623809Y-108362295D02*
X142623809Y-107828961D01*
X142623809Y-107905152D02*
X142661904Y-107867057D01*
X142661904Y-107867057D02*
X142738094Y-107828961D01*
X142738094Y-107828961D02*
X142852380Y-107828961D01*
X142852380Y-107828961D02*
X142928571Y-107867057D01*
X142928571Y-107867057D02*
X142966666Y-107943247D01*
X142966666Y-107943247D02*
X142966666Y-108362295D01*
X142966666Y-107943247D02*
X143004761Y-107867057D01*
X143004761Y-107867057D02*
X143080952Y-107828961D01*
X143080952Y-107828961D02*
X143195237Y-107828961D01*
X143195237Y-107828961D02*
X143271428Y-107867057D01*
X143271428Y-107867057D02*
X143309523Y-107943247D01*
X143309523Y-107943247D02*
X143309523Y-108362295D01*
X143690476Y-108362295D02*
X143690476Y-107828961D01*
X143690476Y-107905152D02*
X143728571Y-107867057D01*
X143728571Y-107867057D02*
X143804761Y-107828961D01*
X143804761Y-107828961D02*
X143919047Y-107828961D01*
X143919047Y-107828961D02*
X143995238Y-107867057D01*
X143995238Y-107867057D02*
X144033333Y-107943247D01*
X144033333Y-107943247D02*
X144033333Y-108362295D01*
X144033333Y-107943247D02*
X144071428Y-107867057D01*
X144071428Y-107867057D02*
X144147619Y-107828961D01*
X144147619Y-107828961D02*
X144261904Y-107828961D01*
X144261904Y-107828961D02*
X144338095Y-107867057D01*
X144338095Y-107867057D02*
X144376190Y-107943247D01*
X144376190Y-107943247D02*
X144376190Y-108362295D01*
X145823810Y-108362295D02*
X145557143Y-107981342D01*
X145366667Y-108362295D02*
X145366667Y-107562295D01*
X145366667Y-107562295D02*
X145671429Y-107562295D01*
X145671429Y-107562295D02*
X145747619Y-107600390D01*
X145747619Y-107600390D02*
X145785714Y-107638485D01*
X145785714Y-107638485D02*
X145823810Y-107714676D01*
X145823810Y-107714676D02*
X145823810Y-107828961D01*
X145823810Y-107828961D02*
X145785714Y-107905152D01*
X145785714Y-107905152D02*
X145747619Y-107943247D01*
X145747619Y-107943247D02*
X145671429Y-107981342D01*
X145671429Y-107981342D02*
X145366667Y-107981342D01*
X146319048Y-107562295D02*
X146471429Y-107562295D01*
X146471429Y-107562295D02*
X146547619Y-107600390D01*
X146547619Y-107600390D02*
X146623810Y-107676580D01*
X146623810Y-107676580D02*
X146661905Y-107828961D01*
X146661905Y-107828961D02*
X146661905Y-108095628D01*
X146661905Y-108095628D02*
X146623810Y-108248009D01*
X146623810Y-108248009D02*
X146547619Y-108324200D01*
X146547619Y-108324200D02*
X146471429Y-108362295D01*
X146471429Y-108362295D02*
X146319048Y-108362295D01*
X146319048Y-108362295D02*
X146242857Y-108324200D01*
X146242857Y-108324200D02*
X146166667Y-108248009D01*
X146166667Y-108248009D02*
X146128571Y-108095628D01*
X146128571Y-108095628D02*
X146128571Y-107828961D01*
X146128571Y-107828961D02*
X146166667Y-107676580D01*
X146166667Y-107676580D02*
X146242857Y-107600390D01*
X146242857Y-107600390D02*
X146319048Y-107562295D01*
X147004762Y-107562295D02*
X147004762Y-108209914D01*
X147004762Y-108209914D02*
X147042857Y-108286104D01*
X147042857Y-108286104D02*
X147080952Y-108324200D01*
X147080952Y-108324200D02*
X147157143Y-108362295D01*
X147157143Y-108362295D02*
X147309524Y-108362295D01*
X147309524Y-108362295D02*
X147385714Y-108324200D01*
X147385714Y-108324200D02*
X147423809Y-108286104D01*
X147423809Y-108286104D02*
X147461905Y-108209914D01*
X147461905Y-108209914D02*
X147461905Y-107562295D01*
X147728571Y-107562295D02*
X148185714Y-107562295D01*
X147957142Y-108362295D02*
X147957142Y-107562295D01*
X148452381Y-108362295D02*
X148452381Y-107562295D01*
X148833333Y-108362295D02*
X148833333Y-107562295D01*
X148833333Y-107562295D02*
X149290476Y-108362295D01*
X149290476Y-108362295D02*
X149290476Y-107562295D01*
X150090475Y-107600390D02*
X150014285Y-107562295D01*
X150014285Y-107562295D02*
X149899999Y-107562295D01*
X149899999Y-107562295D02*
X149785713Y-107600390D01*
X149785713Y-107600390D02*
X149709523Y-107676580D01*
X149709523Y-107676580D02*
X149671428Y-107752771D01*
X149671428Y-107752771D02*
X149633332Y-107905152D01*
X149633332Y-107905152D02*
X149633332Y-108019438D01*
X149633332Y-108019438D02*
X149671428Y-108171819D01*
X149671428Y-108171819D02*
X149709523Y-108248009D01*
X149709523Y-108248009D02*
X149785713Y-108324200D01*
X149785713Y-108324200D02*
X149899999Y-108362295D01*
X149899999Y-108362295D02*
X149976190Y-108362295D01*
X149976190Y-108362295D02*
X150090475Y-108324200D01*
X150090475Y-108324200D02*
X150128571Y-108286104D01*
X150128571Y-108286104D02*
X150128571Y-108019438D01*
X150128571Y-108019438D02*
X149976190Y-108019438D01*
X151080952Y-108057533D02*
X151690476Y-108057533D01*
X152680952Y-108362295D02*
X152680952Y-107562295D01*
X152680952Y-107562295D02*
X152985714Y-107562295D01*
X152985714Y-107562295D02*
X153061904Y-107600390D01*
X153061904Y-107600390D02*
X153099999Y-107638485D01*
X153099999Y-107638485D02*
X153138095Y-107714676D01*
X153138095Y-107714676D02*
X153138095Y-107828961D01*
X153138095Y-107828961D02*
X153099999Y-107905152D01*
X153099999Y-107905152D02*
X153061904Y-107943247D01*
X153061904Y-107943247D02*
X152985714Y-107981342D01*
X152985714Y-107981342D02*
X152680952Y-107981342D01*
X153480952Y-107943247D02*
X153747618Y-107943247D01*
X153861904Y-108362295D02*
X153480952Y-108362295D01*
X153480952Y-108362295D02*
X153480952Y-107562295D01*
X153480952Y-107562295D02*
X153861904Y-107562295D01*
X154585714Y-108362295D02*
X154204762Y-108362295D01*
X154204762Y-108362295D02*
X154204762Y-107562295D01*
X155233333Y-108362295D02*
X154852381Y-108362295D01*
X154852381Y-108362295D02*
X154852381Y-107562295D01*
X155500000Y-107943247D02*
X155766666Y-107943247D01*
X155880952Y-108362295D02*
X155500000Y-108362295D01*
X155500000Y-108362295D02*
X155500000Y-107562295D01*
X155500000Y-107562295D02*
X155880952Y-107562295D01*
X156109524Y-107562295D02*
X156566667Y-107562295D01*
X156338095Y-108362295D02*
X156338095Y-107562295D01*
X156833334Y-108362295D02*
X156833334Y-107562295D01*
X156833334Y-107562295D02*
X157138096Y-107562295D01*
X157138096Y-107562295D02*
X157214286Y-107600390D01*
X157214286Y-107600390D02*
X157252381Y-107638485D01*
X157252381Y-107638485D02*
X157290477Y-107714676D01*
X157290477Y-107714676D02*
X157290477Y-107828961D01*
X157290477Y-107828961D02*
X157252381Y-107905152D01*
X157252381Y-107905152D02*
X157214286Y-107943247D01*
X157214286Y-107943247D02*
X157138096Y-107981342D01*
X157138096Y-107981342D02*
X156833334Y-107981342D01*
X157633334Y-108362295D02*
X157633334Y-107562295D01*
X158471429Y-108362295D02*
X158204762Y-107981342D01*
X158014286Y-108362295D02*
X158014286Y-107562295D01*
X158014286Y-107562295D02*
X158319048Y-107562295D01*
X158319048Y-107562295D02*
X158395238Y-107600390D01*
X158395238Y-107600390D02*
X158433333Y-107638485D01*
X158433333Y-107638485D02*
X158471429Y-107714676D01*
X158471429Y-107714676D02*
X158471429Y-107828961D01*
X158471429Y-107828961D02*
X158433333Y-107905152D01*
X158433333Y-107905152D02*
X158395238Y-107943247D01*
X158395238Y-107943247D02*
X158319048Y-107981342D01*
X158319048Y-107981342D02*
X158014286Y-107981342D01*
X158776190Y-108133723D02*
X159157143Y-108133723D01*
X158700000Y-108362295D02*
X158966667Y-107562295D01*
X158966667Y-107562295D02*
X159233333Y-108362295D01*
X159385714Y-107562295D02*
X159842857Y-107562295D01*
X159614285Y-108362295D02*
X159614285Y-107562295D01*
X160109524Y-107943247D02*
X160376190Y-107943247D01*
X160490476Y-108362295D02*
X160109524Y-108362295D01*
X160109524Y-108362295D02*
X160109524Y-107562295D01*
X160109524Y-107562295D02*
X160490476Y-107562295D01*
X161404762Y-107638485D02*
X161442858Y-107600390D01*
X161442858Y-107600390D02*
X161519048Y-107562295D01*
X161519048Y-107562295D02*
X161709524Y-107562295D01*
X161709524Y-107562295D02*
X161785715Y-107600390D01*
X161785715Y-107600390D02*
X161823810Y-107638485D01*
X161823810Y-107638485D02*
X161861905Y-107714676D01*
X161861905Y-107714676D02*
X161861905Y-107790866D01*
X161861905Y-107790866D02*
X161823810Y-107905152D01*
X161823810Y-107905152D02*
X161366667Y-108362295D01*
X161366667Y-108362295D02*
X161861905Y-108362295D01*
X162357144Y-107562295D02*
X162433334Y-107562295D01*
X162433334Y-107562295D02*
X162509525Y-107600390D01*
X162509525Y-107600390D02*
X162547620Y-107638485D01*
X162547620Y-107638485D02*
X162585715Y-107714676D01*
X162585715Y-107714676D02*
X162623810Y-107867057D01*
X162623810Y-107867057D02*
X162623810Y-108057533D01*
X162623810Y-108057533D02*
X162585715Y-108209914D01*
X162585715Y-108209914D02*
X162547620Y-108286104D01*
X162547620Y-108286104D02*
X162509525Y-108324200D01*
X162509525Y-108324200D02*
X162433334Y-108362295D01*
X162433334Y-108362295D02*
X162357144Y-108362295D01*
X162357144Y-108362295D02*
X162280953Y-108324200D01*
X162280953Y-108324200D02*
X162242858Y-108286104D01*
X162242858Y-108286104D02*
X162204763Y-108209914D01*
X162204763Y-108209914D02*
X162166667Y-108057533D01*
X162166667Y-108057533D02*
X162166667Y-107867057D01*
X162166667Y-107867057D02*
X162204763Y-107714676D01*
X162204763Y-107714676D02*
X162242858Y-107638485D01*
X162242858Y-107638485D02*
X162280953Y-107600390D01*
X162280953Y-107600390D02*
X162357144Y-107562295D01*
X162928572Y-107638485D02*
X162966668Y-107600390D01*
X162966668Y-107600390D02*
X163042858Y-107562295D01*
X163042858Y-107562295D02*
X163233334Y-107562295D01*
X163233334Y-107562295D02*
X163309525Y-107600390D01*
X163309525Y-107600390D02*
X163347620Y-107638485D01*
X163347620Y-107638485D02*
X163385715Y-107714676D01*
X163385715Y-107714676D02*
X163385715Y-107790866D01*
X163385715Y-107790866D02*
X163347620Y-107905152D01*
X163347620Y-107905152D02*
X162890477Y-108362295D01*
X162890477Y-108362295D02*
X163385715Y-108362295D01*
X164071430Y-107562295D02*
X163919049Y-107562295D01*
X163919049Y-107562295D02*
X163842858Y-107600390D01*
X163842858Y-107600390D02*
X163804763Y-107638485D01*
X163804763Y-107638485D02*
X163728573Y-107752771D01*
X163728573Y-107752771D02*
X163690477Y-107905152D01*
X163690477Y-107905152D02*
X163690477Y-108209914D01*
X163690477Y-108209914D02*
X163728573Y-108286104D01*
X163728573Y-108286104D02*
X163766668Y-108324200D01*
X163766668Y-108324200D02*
X163842858Y-108362295D01*
X163842858Y-108362295D02*
X163995239Y-108362295D01*
X163995239Y-108362295D02*
X164071430Y-108324200D01*
X164071430Y-108324200D02*
X164109525Y-108286104D01*
X164109525Y-108286104D02*
X164147620Y-108209914D01*
X164147620Y-108209914D02*
X164147620Y-108019438D01*
X164147620Y-108019438D02*
X164109525Y-107943247D01*
X164109525Y-107943247D02*
X164071430Y-107905152D01*
X164071430Y-107905152D02*
X163995239Y-107867057D01*
X163995239Y-107867057D02*
X163842858Y-107867057D01*
X163842858Y-107867057D02*
X163766668Y-107905152D01*
X163766668Y-107905152D02*
X163728573Y-107943247D01*
X163728573Y-107943247D02*
X163690477Y-108019438D01*
X114433333Y-94962295D02*
X114433333Y-95533723D01*
X114433333Y-95533723D02*
X114395238Y-95648009D01*
X114395238Y-95648009D02*
X114319047Y-95724200D01*
X114319047Y-95724200D02*
X114204762Y-95762295D01*
X114204762Y-95762295D02*
X114128571Y-95762295D01*
X115233333Y-95762295D02*
X114776190Y-95762295D01*
X115004762Y-95762295D02*
X115004762Y-94962295D01*
X115004762Y-94962295D02*
X114928571Y-95076580D01*
X114928571Y-95076580D02*
X114852381Y-95152771D01*
X114852381Y-95152771D02*
X114776190Y-95190866D01*
%TO.C,J1*%
D11*
X111525000Y-95075000D02*
X113075000Y-95075000D01*
X111525000Y-108275000D02*
X113075000Y-108275000D01*
X113075000Y-95075000D02*
X113075000Y-95675000D01*
X113075000Y-108275000D02*
X113075000Y-107675000D01*
D12*
X109525000Y-95925000D02*
G75*
G02*
X109325000Y-95925000I-100000J0D01*
G01*
X109325000Y-95925000D02*
G75*
G02*
X109525000Y-95925000I100000J0D01*
G01*
%TD*%
%LPC*%
D13*
%TO.C,J1*%
X110325000Y-95975000D03*
D14*
X113200000Y-96275000D03*
D13*
X110325000Y-96575000D03*
D14*
X113200000Y-96875000D03*
D13*
X110325000Y-97175000D03*
D14*
X113200000Y-97475000D03*
D13*
X110325000Y-97775000D03*
D14*
X113200000Y-98075000D03*
D13*
X110325000Y-98375000D03*
D14*
X113200000Y-98675000D03*
D13*
X110325000Y-98975000D03*
D14*
X113200000Y-99275000D03*
D13*
X110325000Y-99575000D03*
D14*
X113200000Y-99875000D03*
D13*
X110325000Y-100175000D03*
D14*
X113200000Y-100475000D03*
D13*
X110325000Y-100775000D03*
D14*
X113200000Y-101075000D03*
D13*
X110325000Y-101375000D03*
D14*
X113200000Y-101675000D03*
D13*
X110325000Y-101975000D03*
D14*
X113200000Y-102275000D03*
D13*
X110325000Y-102575000D03*
D14*
X113200000Y-102875000D03*
D13*
X110325000Y-103175000D03*
D14*
X113200000Y-103475000D03*
D13*
X110325000Y-103775000D03*
D14*
X113200000Y-104075000D03*
D13*
X110325000Y-104375000D03*
D14*
X113200000Y-104675000D03*
D13*
X110325000Y-104975000D03*
D14*
X113200000Y-105275000D03*
D13*
X110325000Y-105575000D03*
D14*
X113200000Y-105875000D03*
D13*
X110325000Y-106175000D03*
D14*
X113200000Y-106475000D03*
D13*
X110325000Y-106775000D03*
D14*
X113200000Y-107075000D03*
D13*
X110325000Y-107375000D03*
D15*
X110600000Y-95275000D03*
X110600000Y-108075000D03*
%TD*%
%LPD*%
M02*
