M48
; DRILL file KiCad 10.0.5 date 2026-08-14T20:41:06
; FORMAT={-:-/ absolute / metric / decimal}
; #@! TF.CreationDate,2026-08-14T20:41:06-05:00
; #@! TF.GenerationSoftware,Kicad,Pcbnew,10.0.5
; #@! TF.FileFunction,MixedPlating,1,2
FMAT,2
METRIC
; #@! TA.AperFunction,Plated,PTH,ViaDrill
T1C0.100
%
G90
G05
T1
X111.9Y-95.975
X111.9Y-96.6
X111.9Y-97.2
X111.9Y-97.8
X111.9Y-98.4
X111.9Y-99.0
X111.9Y-99.6
X111.9Y-100.2
X111.9Y-100.775
X111.9Y-101.4
X111.9Y-102.0
X111.9Y-102.6
X111.9Y-103.2
X111.9Y-103.8
X111.9Y-104.4
X111.9Y-105.0
X111.9Y-105.6
X111.9Y-106.2
X111.9Y-106.8
X111.9Y-107.4
X116.2Y-96.3
X116.2Y-96.9
X116.2Y-97.5
X116.2Y-98.1
X116.2Y-98.7
X116.2Y-99.3
X116.2Y-99.9
X116.2Y-100.5
X116.2Y-101.1
X116.2Y-101.7
X116.2Y-102.3
X116.2Y-102.9
X116.2Y-103.5
X116.2Y-104.1
X116.2Y-104.7
X116.2Y-105.3
X116.2Y-105.9
X116.2Y-106.5
X116.2Y-107.1
M30
