%TF.GenerationSoftware,KiCad,Pcbnew,10.0.1*%
%TF.CreationDate,2026-05-08T15:45:09-05:00*%
%TF.ProjectId,PelletPirate_V2,50656c6c-6574-4506-9972-6174655f5632,rev?*%
%TF.SameCoordinates,Original*%
%TF.FileFunction,Legend,Top*%
%TF.FilePolarity,Positive*%
%FSLAX46Y46*%
G04 Gerber Fmt 4.6, Leading zero omitted, Abs format (unit mm)*
G04 Created by KiCad (PCBNEW 10.0.1) date 2026-05-08 15:45:09*
%MOMM*%
%LPD*%
G01*
G04 APERTURE LIST*
%ADD10C,0.160000*%
%ADD11C,0.150000*%
%ADD12C,0.200000*%
%ADD13C,0.120000*%
%ADD14C,0.127000*%
%ADD15C,0.100000*%
G04 APERTURE END LIST*
D10*
X121696296Y-85347619D02*
X121658201Y-85423810D01*
X121658201Y-85423810D02*
X121658201Y-85576191D01*
X121658201Y-85576191D02*
X121696296Y-85652381D01*
X121696296Y-85652381D02*
X121772486Y-85728572D01*
X121772486Y-85728572D02*
X121848677Y-85766667D01*
X121848677Y-85766667D02*
X122001058Y-85766667D01*
X122001058Y-85766667D02*
X122077248Y-85728572D01*
X122077248Y-85728572D02*
X122153439Y-85652381D01*
X122153439Y-85652381D02*
X122191534Y-85576191D01*
X122191534Y-85576191D02*
X122191534Y-85423810D01*
X122191534Y-85423810D02*
X122153439Y-85347619D01*
X121391534Y-85500000D02*
X121429629Y-85690476D01*
X121429629Y-85690476D02*
X121543915Y-85880953D01*
X121543915Y-85880953D02*
X121734391Y-85995238D01*
X121734391Y-85995238D02*
X121924867Y-86033334D01*
X121924867Y-86033334D02*
X122115344Y-85995238D01*
X122115344Y-85995238D02*
X122305820Y-85880953D01*
X122305820Y-85880953D02*
X122420105Y-85690476D01*
X122420105Y-85690476D02*
X122458201Y-85500000D01*
X122458201Y-85500000D02*
X122420105Y-85309524D01*
X122420105Y-85309524D02*
X122305820Y-85119048D01*
X122305820Y-85119048D02*
X122115344Y-85004762D01*
X122115344Y-85004762D02*
X121924867Y-84966667D01*
X121924867Y-84966667D02*
X121734391Y-85004762D01*
X121734391Y-85004762D02*
X121543915Y-85119048D01*
X121543915Y-85119048D02*
X121429629Y-85309524D01*
X121429629Y-85309524D02*
X121391534Y-85500000D01*
X122305820Y-84014285D02*
X121505820Y-84014285D01*
X121505820Y-84014285D02*
X121505820Y-83709523D01*
X121505820Y-83709523D02*
X121543915Y-83633333D01*
X121543915Y-83633333D02*
X121582010Y-83595238D01*
X121582010Y-83595238D02*
X121658201Y-83557142D01*
X121658201Y-83557142D02*
X121772486Y-83557142D01*
X121772486Y-83557142D02*
X121848677Y-83595238D01*
X121848677Y-83595238D02*
X121886772Y-83633333D01*
X121886772Y-83633333D02*
X121924867Y-83709523D01*
X121924867Y-83709523D02*
X121924867Y-84014285D01*
X122267725Y-82909523D02*
X122305820Y-82985714D01*
X122305820Y-82985714D02*
X122305820Y-83138095D01*
X122305820Y-83138095D02*
X122267725Y-83214285D01*
X122267725Y-83214285D02*
X122191534Y-83252381D01*
X122191534Y-83252381D02*
X121886772Y-83252381D01*
X121886772Y-83252381D02*
X121810582Y-83214285D01*
X121810582Y-83214285D02*
X121772486Y-83138095D01*
X121772486Y-83138095D02*
X121772486Y-82985714D01*
X121772486Y-82985714D02*
X121810582Y-82909523D01*
X121810582Y-82909523D02*
X121886772Y-82871428D01*
X121886772Y-82871428D02*
X121962963Y-82871428D01*
X121962963Y-82871428D02*
X122039153Y-83252381D01*
X122305820Y-82414286D02*
X122267725Y-82490476D01*
X122267725Y-82490476D02*
X122191534Y-82528571D01*
X122191534Y-82528571D02*
X121505820Y-82528571D01*
X122305820Y-81995238D02*
X122267725Y-82071428D01*
X122267725Y-82071428D02*
X122191534Y-82109523D01*
X122191534Y-82109523D02*
X121505820Y-82109523D01*
X122267725Y-81385713D02*
X122305820Y-81461904D01*
X122305820Y-81461904D02*
X122305820Y-81614285D01*
X122305820Y-81614285D02*
X122267725Y-81690475D01*
X122267725Y-81690475D02*
X122191534Y-81728571D01*
X122191534Y-81728571D02*
X121886772Y-81728571D01*
X121886772Y-81728571D02*
X121810582Y-81690475D01*
X121810582Y-81690475D02*
X121772486Y-81614285D01*
X121772486Y-81614285D02*
X121772486Y-81461904D01*
X121772486Y-81461904D02*
X121810582Y-81385713D01*
X121810582Y-81385713D02*
X121886772Y-81347618D01*
X121886772Y-81347618D02*
X121962963Y-81347618D01*
X121962963Y-81347618D02*
X122039153Y-81728571D01*
X121772486Y-81119047D02*
X121772486Y-80814285D01*
X121505820Y-81004761D02*
X122191534Y-81004761D01*
X122191534Y-81004761D02*
X122267725Y-80966666D01*
X122267725Y-80966666D02*
X122305820Y-80890476D01*
X122305820Y-80890476D02*
X122305820Y-80814285D01*
X122305820Y-80547618D02*
X121505820Y-80547618D01*
X121505820Y-80547618D02*
X121505820Y-80242856D01*
X121505820Y-80242856D02*
X121543915Y-80166666D01*
X121543915Y-80166666D02*
X121582010Y-80128571D01*
X121582010Y-80128571D02*
X121658201Y-80090475D01*
X121658201Y-80090475D02*
X121772486Y-80090475D01*
X121772486Y-80090475D02*
X121848677Y-80128571D01*
X121848677Y-80128571D02*
X121886772Y-80166666D01*
X121886772Y-80166666D02*
X121924867Y-80242856D01*
X121924867Y-80242856D02*
X121924867Y-80547618D01*
X122305820Y-79747618D02*
X121772486Y-79747618D01*
X121505820Y-79747618D02*
X121543915Y-79785714D01*
X121543915Y-79785714D02*
X121582010Y-79747618D01*
X121582010Y-79747618D02*
X121543915Y-79709523D01*
X121543915Y-79709523D02*
X121505820Y-79747618D01*
X121505820Y-79747618D02*
X121582010Y-79747618D01*
X122305820Y-79366666D02*
X121772486Y-79366666D01*
X121924867Y-79366666D02*
X121848677Y-79328571D01*
X121848677Y-79328571D02*
X121810582Y-79290476D01*
X121810582Y-79290476D02*
X121772486Y-79214285D01*
X121772486Y-79214285D02*
X121772486Y-79138095D01*
X122305820Y-78528571D02*
X121886772Y-78528571D01*
X121886772Y-78528571D02*
X121810582Y-78566666D01*
X121810582Y-78566666D02*
X121772486Y-78642857D01*
X121772486Y-78642857D02*
X121772486Y-78795238D01*
X121772486Y-78795238D02*
X121810582Y-78871428D01*
X122267725Y-78528571D02*
X122305820Y-78604762D01*
X122305820Y-78604762D02*
X122305820Y-78795238D01*
X122305820Y-78795238D02*
X122267725Y-78871428D01*
X122267725Y-78871428D02*
X122191534Y-78909524D01*
X122191534Y-78909524D02*
X122115344Y-78909524D01*
X122115344Y-78909524D02*
X122039153Y-78871428D01*
X122039153Y-78871428D02*
X122001058Y-78795238D01*
X122001058Y-78795238D02*
X122001058Y-78604762D01*
X122001058Y-78604762D02*
X121962963Y-78528571D01*
X121772486Y-78261904D02*
X121772486Y-77957142D01*
X121505820Y-78147618D02*
X122191534Y-78147618D01*
X122191534Y-78147618D02*
X122267725Y-78109523D01*
X122267725Y-78109523D02*
X122305820Y-78033333D01*
X122305820Y-78033333D02*
X122305820Y-77957142D01*
X122267725Y-77385713D02*
X122305820Y-77461904D01*
X122305820Y-77461904D02*
X122305820Y-77614285D01*
X122305820Y-77614285D02*
X122267725Y-77690475D01*
X122267725Y-77690475D02*
X122191534Y-77728571D01*
X122191534Y-77728571D02*
X121886772Y-77728571D01*
X121886772Y-77728571D02*
X121810582Y-77690475D01*
X121810582Y-77690475D02*
X121772486Y-77614285D01*
X121772486Y-77614285D02*
X121772486Y-77461904D01*
X121772486Y-77461904D02*
X121810582Y-77385713D01*
X121810582Y-77385713D02*
X121886772Y-77347618D01*
X121886772Y-77347618D02*
X121962963Y-77347618D01*
X121962963Y-77347618D02*
X122039153Y-77728571D01*
X121772486Y-76471428D02*
X122305820Y-76280952D01*
X122305820Y-76280952D02*
X121772486Y-76090475D01*
X121582010Y-75823809D02*
X121543915Y-75785713D01*
X121543915Y-75785713D02*
X121505820Y-75709523D01*
X121505820Y-75709523D02*
X121505820Y-75519047D01*
X121505820Y-75519047D02*
X121543915Y-75442856D01*
X121543915Y-75442856D02*
X121582010Y-75404761D01*
X121582010Y-75404761D02*
X121658201Y-75366666D01*
X121658201Y-75366666D02*
X121734391Y-75366666D01*
X121734391Y-75366666D02*
X121848677Y-75404761D01*
X121848677Y-75404761D02*
X122305820Y-75861904D01*
X122305820Y-75861904D02*
X122305820Y-75366666D01*
X122229629Y-75023808D02*
X122267725Y-74985713D01*
X122267725Y-74985713D02*
X122305820Y-75023808D01*
X122305820Y-75023808D02*
X122267725Y-75061904D01*
X122267725Y-75061904D02*
X122229629Y-75023808D01*
X122229629Y-75023808D02*
X122305820Y-75023808D01*
X121505820Y-74490475D02*
X121505820Y-74414285D01*
X121505820Y-74414285D02*
X121543915Y-74338094D01*
X121543915Y-74338094D02*
X121582010Y-74299999D01*
X121582010Y-74299999D02*
X121658201Y-74261904D01*
X121658201Y-74261904D02*
X121810582Y-74223809D01*
X121810582Y-74223809D02*
X122001058Y-74223809D01*
X122001058Y-74223809D02*
X122153439Y-74261904D01*
X122153439Y-74261904D02*
X122229629Y-74299999D01*
X122229629Y-74299999D02*
X122267725Y-74338094D01*
X122267725Y-74338094D02*
X122305820Y-74414285D01*
X122305820Y-74414285D02*
X122305820Y-74490475D01*
X122305820Y-74490475D02*
X122267725Y-74566666D01*
X122267725Y-74566666D02*
X122229629Y-74604761D01*
X122229629Y-74604761D02*
X122153439Y-74642856D01*
X122153439Y-74642856D02*
X122001058Y-74680952D01*
X122001058Y-74680952D02*
X121810582Y-74680952D01*
X121810582Y-74680952D02*
X121658201Y-74642856D01*
X121658201Y-74642856D02*
X121582010Y-74604761D01*
X121582010Y-74604761D02*
X121543915Y-74566666D01*
X121543915Y-74566666D02*
X121505820Y-74490475D01*
X121582010Y-73309523D02*
X121543915Y-73271427D01*
X121543915Y-73271427D02*
X121505820Y-73195237D01*
X121505820Y-73195237D02*
X121505820Y-73004761D01*
X121505820Y-73004761D02*
X121543915Y-72928570D01*
X121543915Y-72928570D02*
X121582010Y-72890475D01*
X121582010Y-72890475D02*
X121658201Y-72852380D01*
X121658201Y-72852380D02*
X121734391Y-72852380D01*
X121734391Y-72852380D02*
X121848677Y-72890475D01*
X121848677Y-72890475D02*
X122305820Y-73347618D01*
X122305820Y-73347618D02*
X122305820Y-72852380D01*
X121505820Y-72357141D02*
X121505820Y-72280951D01*
X121505820Y-72280951D02*
X121543915Y-72204760D01*
X121543915Y-72204760D02*
X121582010Y-72166665D01*
X121582010Y-72166665D02*
X121658201Y-72128570D01*
X121658201Y-72128570D02*
X121810582Y-72090475D01*
X121810582Y-72090475D02*
X122001058Y-72090475D01*
X122001058Y-72090475D02*
X122153439Y-72128570D01*
X122153439Y-72128570D02*
X122229629Y-72166665D01*
X122229629Y-72166665D02*
X122267725Y-72204760D01*
X122267725Y-72204760D02*
X122305820Y-72280951D01*
X122305820Y-72280951D02*
X122305820Y-72357141D01*
X122305820Y-72357141D02*
X122267725Y-72433332D01*
X122267725Y-72433332D02*
X122229629Y-72471427D01*
X122229629Y-72471427D02*
X122153439Y-72509522D01*
X122153439Y-72509522D02*
X122001058Y-72547618D01*
X122001058Y-72547618D02*
X121810582Y-72547618D01*
X121810582Y-72547618D02*
X121658201Y-72509522D01*
X121658201Y-72509522D02*
X121582010Y-72471427D01*
X121582010Y-72471427D02*
X121543915Y-72433332D01*
X121543915Y-72433332D02*
X121505820Y-72357141D01*
X121582010Y-71785713D02*
X121543915Y-71747617D01*
X121543915Y-71747617D02*
X121505820Y-71671427D01*
X121505820Y-71671427D02*
X121505820Y-71480951D01*
X121505820Y-71480951D02*
X121543915Y-71404760D01*
X121543915Y-71404760D02*
X121582010Y-71366665D01*
X121582010Y-71366665D02*
X121658201Y-71328570D01*
X121658201Y-71328570D02*
X121734391Y-71328570D01*
X121734391Y-71328570D02*
X121848677Y-71366665D01*
X121848677Y-71366665D02*
X122305820Y-71823808D01*
X122305820Y-71823808D02*
X122305820Y-71328570D01*
X121505820Y-70642855D02*
X121505820Y-70795236D01*
X121505820Y-70795236D02*
X121543915Y-70871427D01*
X121543915Y-70871427D02*
X121582010Y-70909522D01*
X121582010Y-70909522D02*
X121696296Y-70985712D01*
X121696296Y-70985712D02*
X121848677Y-71023808D01*
X121848677Y-71023808D02*
X122153439Y-71023808D01*
X122153439Y-71023808D02*
X122229629Y-70985712D01*
X122229629Y-70985712D02*
X122267725Y-70947617D01*
X122267725Y-70947617D02*
X122305820Y-70871427D01*
X122305820Y-70871427D02*
X122305820Y-70719046D01*
X122305820Y-70719046D02*
X122267725Y-70642855D01*
X122267725Y-70642855D02*
X122229629Y-70604760D01*
X122229629Y-70604760D02*
X122153439Y-70566665D01*
X122153439Y-70566665D02*
X121962963Y-70566665D01*
X121962963Y-70566665D02*
X121886772Y-70604760D01*
X121886772Y-70604760D02*
X121848677Y-70642855D01*
X121848677Y-70642855D02*
X121810582Y-70719046D01*
X121810582Y-70719046D02*
X121810582Y-70871427D01*
X121810582Y-70871427D02*
X121848677Y-70947617D01*
X121848677Y-70947617D02*
X121886772Y-70985712D01*
X121886772Y-70985712D02*
X121962963Y-71023808D01*
X122793775Y-86776190D02*
X122946156Y-86776190D01*
X122793775Y-86471428D02*
X122946156Y-86471428D01*
X123593775Y-86128570D02*
X122793775Y-86128570D01*
X123060441Y-85861904D02*
X123060441Y-85557142D01*
X122793775Y-85747618D02*
X123479489Y-85747618D01*
X123479489Y-85747618D02*
X123555680Y-85709523D01*
X123555680Y-85709523D02*
X123593775Y-85633333D01*
X123593775Y-85633333D02*
X123593775Y-85557142D01*
X122793775Y-85252380D02*
X122946156Y-85328571D01*
X123555680Y-84947619D02*
X123593775Y-84871428D01*
X123593775Y-84871428D02*
X123593775Y-84719047D01*
X123593775Y-84719047D02*
X123555680Y-84642857D01*
X123555680Y-84642857D02*
X123479489Y-84604761D01*
X123479489Y-84604761D02*
X123441394Y-84604761D01*
X123441394Y-84604761D02*
X123365203Y-84642857D01*
X123365203Y-84642857D02*
X123327108Y-84719047D01*
X123327108Y-84719047D02*
X123327108Y-84833333D01*
X123327108Y-84833333D02*
X123289013Y-84909523D01*
X123289013Y-84909523D02*
X123212822Y-84947619D01*
X123212822Y-84947619D02*
X123174727Y-84947619D01*
X123174727Y-84947619D02*
X123098537Y-84909523D01*
X123098537Y-84909523D02*
X123060441Y-84833333D01*
X123060441Y-84833333D02*
X123060441Y-84719047D01*
X123060441Y-84719047D02*
X123098537Y-84642857D01*
X123593775Y-83309523D02*
X123174727Y-83309523D01*
X123174727Y-83309523D02*
X123098537Y-83347618D01*
X123098537Y-83347618D02*
X123060441Y-83423809D01*
X123060441Y-83423809D02*
X123060441Y-83576190D01*
X123060441Y-83576190D02*
X123098537Y-83652380D01*
X123555680Y-83309523D02*
X123593775Y-83385714D01*
X123593775Y-83385714D02*
X123593775Y-83576190D01*
X123593775Y-83576190D02*
X123555680Y-83652380D01*
X123555680Y-83652380D02*
X123479489Y-83690476D01*
X123479489Y-83690476D02*
X123403299Y-83690476D01*
X123403299Y-83690476D02*
X123327108Y-83652380D01*
X123327108Y-83652380D02*
X123289013Y-83576190D01*
X123289013Y-83576190D02*
X123289013Y-83385714D01*
X123289013Y-83385714D02*
X123250918Y-83309523D01*
X123593775Y-82319046D02*
X122793775Y-82319046D01*
X122793775Y-82319046D02*
X122793775Y-82014284D01*
X122793775Y-82014284D02*
X122831870Y-81938094D01*
X122831870Y-81938094D02*
X122869965Y-81899999D01*
X122869965Y-81899999D02*
X122946156Y-81861903D01*
X122946156Y-81861903D02*
X123060441Y-81861903D01*
X123060441Y-81861903D02*
X123136632Y-81899999D01*
X123136632Y-81899999D02*
X123174727Y-81938094D01*
X123174727Y-81938094D02*
X123212822Y-82014284D01*
X123212822Y-82014284D02*
X123212822Y-82319046D01*
X123593775Y-81519046D02*
X123060441Y-81519046D01*
X122793775Y-81519046D02*
X122831870Y-81557142D01*
X122831870Y-81557142D02*
X122869965Y-81519046D01*
X122869965Y-81519046D02*
X122831870Y-81480951D01*
X122831870Y-81480951D02*
X122793775Y-81519046D01*
X122793775Y-81519046D02*
X122869965Y-81519046D01*
X123593775Y-81138094D02*
X123060441Y-81138094D01*
X123212822Y-81138094D02*
X123136632Y-81099999D01*
X123136632Y-81099999D02*
X123098537Y-81061904D01*
X123098537Y-81061904D02*
X123060441Y-80985713D01*
X123060441Y-80985713D02*
X123060441Y-80909523D01*
X123593775Y-80299999D02*
X123174727Y-80299999D01*
X123174727Y-80299999D02*
X123098537Y-80338094D01*
X123098537Y-80338094D02*
X123060441Y-80414285D01*
X123060441Y-80414285D02*
X123060441Y-80566666D01*
X123060441Y-80566666D02*
X123098537Y-80642856D01*
X123555680Y-80299999D02*
X123593775Y-80376190D01*
X123593775Y-80376190D02*
X123593775Y-80566666D01*
X123593775Y-80566666D02*
X123555680Y-80642856D01*
X123555680Y-80642856D02*
X123479489Y-80680952D01*
X123479489Y-80680952D02*
X123403299Y-80680952D01*
X123403299Y-80680952D02*
X123327108Y-80642856D01*
X123327108Y-80642856D02*
X123289013Y-80566666D01*
X123289013Y-80566666D02*
X123289013Y-80376190D01*
X123289013Y-80376190D02*
X123250918Y-80299999D01*
X123060441Y-80033332D02*
X123060441Y-79728570D01*
X122793775Y-79919046D02*
X123479489Y-79919046D01*
X123479489Y-79919046D02*
X123555680Y-79880951D01*
X123555680Y-79880951D02*
X123593775Y-79804761D01*
X123593775Y-79804761D02*
X123593775Y-79728570D01*
X123555680Y-79157141D02*
X123593775Y-79233332D01*
X123593775Y-79233332D02*
X123593775Y-79385713D01*
X123593775Y-79385713D02*
X123555680Y-79461903D01*
X123555680Y-79461903D02*
X123479489Y-79499999D01*
X123479489Y-79499999D02*
X123174727Y-79499999D01*
X123174727Y-79499999D02*
X123098537Y-79461903D01*
X123098537Y-79461903D02*
X123060441Y-79385713D01*
X123060441Y-79385713D02*
X123060441Y-79233332D01*
X123060441Y-79233332D02*
X123098537Y-79157141D01*
X123098537Y-79157141D02*
X123174727Y-79119046D01*
X123174727Y-79119046D02*
X123250918Y-79119046D01*
X123250918Y-79119046D02*
X123327108Y-79499999D01*
X122793775Y-78738094D02*
X122946156Y-78814285D01*
X123555680Y-78433333D02*
X123593775Y-78357142D01*
X123593775Y-78357142D02*
X123593775Y-78204761D01*
X123593775Y-78204761D02*
X123555680Y-78128571D01*
X123555680Y-78128571D02*
X123479489Y-78090475D01*
X123479489Y-78090475D02*
X123441394Y-78090475D01*
X123441394Y-78090475D02*
X123365203Y-78128571D01*
X123365203Y-78128571D02*
X123327108Y-78204761D01*
X123327108Y-78204761D02*
X123327108Y-78319047D01*
X123327108Y-78319047D02*
X123289013Y-78395237D01*
X123289013Y-78395237D02*
X123212822Y-78433333D01*
X123212822Y-78433333D02*
X123174727Y-78433333D01*
X123174727Y-78433333D02*
X123098537Y-78395237D01*
X123098537Y-78395237D02*
X123060441Y-78319047D01*
X123060441Y-78319047D02*
X123060441Y-78204761D01*
X123060441Y-78204761D02*
X123098537Y-78128571D01*
X123593775Y-76757142D02*
X123593775Y-77138094D01*
X123593775Y-77138094D02*
X122793775Y-77138094D01*
X123593775Y-76490475D02*
X123060441Y-76490475D01*
X122793775Y-76490475D02*
X122831870Y-76528571D01*
X122831870Y-76528571D02*
X122869965Y-76490475D01*
X122869965Y-76490475D02*
X122831870Y-76452380D01*
X122831870Y-76452380D02*
X122793775Y-76490475D01*
X122793775Y-76490475D02*
X122869965Y-76490475D01*
X123060441Y-76223809D02*
X123060441Y-75919047D01*
X123593775Y-76109523D02*
X122908060Y-76109523D01*
X122908060Y-76109523D02*
X122831870Y-76071428D01*
X122831870Y-76071428D02*
X122793775Y-75995238D01*
X122793775Y-75995238D02*
X122793775Y-75919047D01*
X123555680Y-75347618D02*
X123593775Y-75423809D01*
X123593775Y-75423809D02*
X123593775Y-75576190D01*
X123593775Y-75576190D02*
X123555680Y-75652380D01*
X123555680Y-75652380D02*
X123479489Y-75690476D01*
X123479489Y-75690476D02*
X123174727Y-75690476D01*
X123174727Y-75690476D02*
X123098537Y-75652380D01*
X123098537Y-75652380D02*
X123060441Y-75576190D01*
X123060441Y-75576190D02*
X123060441Y-75423809D01*
X123060441Y-75423809D02*
X123098537Y-75347618D01*
X123098537Y-75347618D02*
X123174727Y-75309523D01*
X123174727Y-75309523D02*
X123250918Y-75309523D01*
X123250918Y-75309523D02*
X123327108Y-75690476D01*
X123060441Y-74471428D02*
X123060441Y-74166666D01*
X123593775Y-74357142D02*
X122908060Y-74357142D01*
X122908060Y-74357142D02*
X122831870Y-74319047D01*
X122831870Y-74319047D02*
X122793775Y-74242857D01*
X122793775Y-74242857D02*
X122793775Y-74166666D01*
X123593775Y-73785714D02*
X123555680Y-73861904D01*
X123555680Y-73861904D02*
X123517584Y-73899999D01*
X123517584Y-73899999D02*
X123441394Y-73938095D01*
X123441394Y-73938095D02*
X123212822Y-73938095D01*
X123212822Y-73938095D02*
X123136632Y-73899999D01*
X123136632Y-73899999D02*
X123098537Y-73861904D01*
X123098537Y-73861904D02*
X123060441Y-73785714D01*
X123060441Y-73785714D02*
X123060441Y-73671428D01*
X123060441Y-73671428D02*
X123098537Y-73595237D01*
X123098537Y-73595237D02*
X123136632Y-73557142D01*
X123136632Y-73557142D02*
X123212822Y-73519047D01*
X123212822Y-73519047D02*
X123441394Y-73519047D01*
X123441394Y-73519047D02*
X123517584Y-73557142D01*
X123517584Y-73557142D02*
X123555680Y-73595237D01*
X123555680Y-73595237D02*
X123593775Y-73671428D01*
X123593775Y-73671428D02*
X123593775Y-73785714D01*
X123593775Y-73176189D02*
X123060441Y-73176189D01*
X123212822Y-73176189D02*
X123136632Y-73138094D01*
X123136632Y-73138094D02*
X123098537Y-73099999D01*
X123098537Y-73099999D02*
X123060441Y-73023808D01*
X123060441Y-73023808D02*
X123060441Y-72947618D01*
X123593775Y-72071427D02*
X122793775Y-72071427D01*
X122793775Y-72071427D02*
X123365203Y-71804761D01*
X123365203Y-71804761D02*
X122793775Y-71538094D01*
X122793775Y-71538094D02*
X123593775Y-71538094D01*
X123555680Y-70852379D02*
X123593775Y-70928570D01*
X123593775Y-70928570D02*
X123593775Y-71080951D01*
X123593775Y-71080951D02*
X123555680Y-71157141D01*
X123555680Y-71157141D02*
X123479489Y-71195237D01*
X123479489Y-71195237D02*
X123174727Y-71195237D01*
X123174727Y-71195237D02*
X123098537Y-71157141D01*
X123098537Y-71157141D02*
X123060441Y-71080951D01*
X123060441Y-71080951D02*
X123060441Y-70928570D01*
X123060441Y-70928570D02*
X123098537Y-70852379D01*
X123098537Y-70852379D02*
X123174727Y-70814284D01*
X123174727Y-70814284D02*
X123250918Y-70814284D01*
X123250918Y-70814284D02*
X123327108Y-71195237D01*
X123517584Y-70471427D02*
X123555680Y-70433332D01*
X123555680Y-70433332D02*
X123593775Y-70471427D01*
X123593775Y-70471427D02*
X123555680Y-70509523D01*
X123555680Y-70509523D02*
X123517584Y-70471427D01*
X123517584Y-70471427D02*
X123593775Y-70471427D01*
X123289013Y-70471427D02*
X122831870Y-70509523D01*
X122831870Y-70509523D02*
X122793775Y-70471427D01*
X122793775Y-70471427D02*
X122831870Y-70433332D01*
X122831870Y-70433332D02*
X123289013Y-70471427D01*
X123289013Y-70471427D02*
X122793775Y-70471427D01*
X122793775Y-70128571D02*
X122946156Y-70128571D01*
X122793775Y-69823809D02*
X122946156Y-69823809D01*
D11*
X127871428Y-89831009D02*
X128204761Y-89831009D01*
X128347618Y-90354819D02*
X127871428Y-90354819D01*
X127871428Y-90354819D02*
X127871428Y-89354819D01*
X127871428Y-89354819D02*
X128347618Y-89354819D01*
X128728571Y-90307200D02*
X128871428Y-90354819D01*
X128871428Y-90354819D02*
X129109523Y-90354819D01*
X129109523Y-90354819D02*
X129204761Y-90307200D01*
X129204761Y-90307200D02*
X129252380Y-90259580D01*
X129252380Y-90259580D02*
X129299999Y-90164342D01*
X129299999Y-90164342D02*
X129299999Y-90069104D01*
X129299999Y-90069104D02*
X129252380Y-89973866D01*
X129252380Y-89973866D02*
X129204761Y-89926247D01*
X129204761Y-89926247D02*
X129109523Y-89878628D01*
X129109523Y-89878628D02*
X128919047Y-89831009D01*
X128919047Y-89831009D02*
X128823809Y-89783390D01*
X128823809Y-89783390D02*
X128776190Y-89735771D01*
X128776190Y-89735771D02*
X128728571Y-89640533D01*
X128728571Y-89640533D02*
X128728571Y-89545295D01*
X128728571Y-89545295D02*
X128776190Y-89450057D01*
X128776190Y-89450057D02*
X128823809Y-89402438D01*
X128823809Y-89402438D02*
X128919047Y-89354819D01*
X128919047Y-89354819D02*
X129157142Y-89354819D01*
X129157142Y-89354819D02*
X129299999Y-89402438D01*
X129728571Y-90354819D02*
X129728571Y-89354819D01*
X129728571Y-89354819D02*
X130109523Y-89354819D01*
X130109523Y-89354819D02*
X130204761Y-89402438D01*
X130204761Y-89402438D02*
X130252380Y-89450057D01*
X130252380Y-89450057D02*
X130299999Y-89545295D01*
X130299999Y-89545295D02*
X130299999Y-89688152D01*
X130299999Y-89688152D02*
X130252380Y-89783390D01*
X130252380Y-89783390D02*
X130204761Y-89831009D01*
X130204761Y-89831009D02*
X130109523Y-89878628D01*
X130109523Y-89878628D02*
X129728571Y-89878628D01*
X130490476Y-90450057D02*
X131252380Y-90450057D01*
X131776190Y-89354819D02*
X131776190Y-90069104D01*
X131776190Y-90069104D02*
X131728571Y-90211961D01*
X131728571Y-90211961D02*
X131633333Y-90307200D01*
X131633333Y-90307200D02*
X131490476Y-90354819D01*
X131490476Y-90354819D02*
X131395238Y-90354819D01*
X132204762Y-89450057D02*
X132252381Y-89402438D01*
X132252381Y-89402438D02*
X132347619Y-89354819D01*
X132347619Y-89354819D02*
X132585714Y-89354819D01*
X132585714Y-89354819D02*
X132680952Y-89402438D01*
X132680952Y-89402438D02*
X132728571Y-89450057D01*
X132728571Y-89450057D02*
X132776190Y-89545295D01*
X132776190Y-89545295D02*
X132776190Y-89640533D01*
X132776190Y-89640533D02*
X132728571Y-89783390D01*
X132728571Y-89783390D02*
X132157143Y-90354819D01*
X132157143Y-90354819D02*
X132776190Y-90354819D01*
X126671009Y-69028571D02*
X126671009Y-68695238D01*
X127194819Y-68552381D02*
X127194819Y-69028571D01*
X127194819Y-69028571D02*
X126194819Y-69028571D01*
X126194819Y-69028571D02*
X126194819Y-68552381D01*
X127147200Y-68171428D02*
X127194819Y-68028571D01*
X127194819Y-68028571D02*
X127194819Y-67790476D01*
X127194819Y-67790476D02*
X127147200Y-67695238D01*
X127147200Y-67695238D02*
X127099580Y-67647619D01*
X127099580Y-67647619D02*
X127004342Y-67600000D01*
X127004342Y-67600000D02*
X126909104Y-67600000D01*
X126909104Y-67600000D02*
X126813866Y-67647619D01*
X126813866Y-67647619D02*
X126766247Y-67695238D01*
X126766247Y-67695238D02*
X126718628Y-67790476D01*
X126718628Y-67790476D02*
X126671009Y-67980952D01*
X126671009Y-67980952D02*
X126623390Y-68076190D01*
X126623390Y-68076190D02*
X126575771Y-68123809D01*
X126575771Y-68123809D02*
X126480533Y-68171428D01*
X126480533Y-68171428D02*
X126385295Y-68171428D01*
X126385295Y-68171428D02*
X126290057Y-68123809D01*
X126290057Y-68123809D02*
X126242438Y-68076190D01*
X126242438Y-68076190D02*
X126194819Y-67980952D01*
X126194819Y-67980952D02*
X126194819Y-67742857D01*
X126194819Y-67742857D02*
X126242438Y-67600000D01*
X127194819Y-67171428D02*
X126194819Y-67171428D01*
X126194819Y-67171428D02*
X126194819Y-66790476D01*
X126194819Y-66790476D02*
X126242438Y-66695238D01*
X126242438Y-66695238D02*
X126290057Y-66647619D01*
X126290057Y-66647619D02*
X126385295Y-66600000D01*
X126385295Y-66600000D02*
X126528152Y-66600000D01*
X126528152Y-66600000D02*
X126623390Y-66647619D01*
X126623390Y-66647619D02*
X126671009Y-66695238D01*
X126671009Y-66695238D02*
X126718628Y-66790476D01*
X126718628Y-66790476D02*
X126718628Y-67171428D01*
X127290057Y-66409524D02*
X127290057Y-65647619D01*
X126194819Y-65123809D02*
X126909104Y-65123809D01*
X126909104Y-65123809D02*
X127051961Y-65171428D01*
X127051961Y-65171428D02*
X127147200Y-65266666D01*
X127147200Y-65266666D02*
X127194819Y-65409523D01*
X127194819Y-65409523D02*
X127194819Y-65504761D01*
X126194819Y-64742856D02*
X126194819Y-64123809D01*
X126194819Y-64123809D02*
X126575771Y-64457142D01*
X126575771Y-64457142D02*
X126575771Y-64314285D01*
X126575771Y-64314285D02*
X126623390Y-64219047D01*
X126623390Y-64219047D02*
X126671009Y-64171428D01*
X126671009Y-64171428D02*
X126766247Y-64123809D01*
X126766247Y-64123809D02*
X127004342Y-64123809D01*
X127004342Y-64123809D02*
X127099580Y-64171428D01*
X127099580Y-64171428D02*
X127147200Y-64219047D01*
X127147200Y-64219047D02*
X127194819Y-64314285D01*
X127194819Y-64314285D02*
X127194819Y-64599999D01*
X127194819Y-64599999D02*
X127147200Y-64695237D01*
X127147200Y-64695237D02*
X127099580Y-64742856D01*
X180066666Y-95162295D02*
X179685714Y-95162295D01*
X179685714Y-95162295D02*
X179685714Y-94362295D01*
X180752380Y-95162295D02*
X180295237Y-95162295D01*
X180523809Y-95162295D02*
X180523809Y-94362295D01*
X180523809Y-94362295D02*
X180447618Y-94476580D01*
X180447618Y-94476580D02*
X180371428Y-94552771D01*
X180371428Y-94552771D02*
X180295237Y-94590866D01*
X161419642Y-62604819D02*
X161086309Y-62128628D01*
X160848214Y-62604819D02*
X160848214Y-61604819D01*
X160848214Y-61604819D02*
X161229166Y-61604819D01*
X161229166Y-61604819D02*
X161324404Y-61652438D01*
X161324404Y-61652438D02*
X161372023Y-61700057D01*
X161372023Y-61700057D02*
X161419642Y-61795295D01*
X161419642Y-61795295D02*
X161419642Y-61938152D01*
X161419642Y-61938152D02*
X161372023Y-62033390D01*
X161372023Y-62033390D02*
X161324404Y-62081009D01*
X161324404Y-62081009D02*
X161229166Y-62128628D01*
X161229166Y-62128628D02*
X160848214Y-62128628D01*
X162372023Y-62604819D02*
X161800595Y-62604819D01*
X162086309Y-62604819D02*
X162086309Y-61604819D01*
X162086309Y-61604819D02*
X161991071Y-61747676D01*
X161991071Y-61747676D02*
X161895833Y-61842914D01*
X161895833Y-61842914D02*
X161800595Y-61890533D01*
X162943452Y-62033390D02*
X162848214Y-61985771D01*
X162848214Y-61985771D02*
X162800595Y-61938152D01*
X162800595Y-61938152D02*
X162752976Y-61842914D01*
X162752976Y-61842914D02*
X162752976Y-61795295D01*
X162752976Y-61795295D02*
X162800595Y-61700057D01*
X162800595Y-61700057D02*
X162848214Y-61652438D01*
X162848214Y-61652438D02*
X162943452Y-61604819D01*
X162943452Y-61604819D02*
X163133928Y-61604819D01*
X163133928Y-61604819D02*
X163229166Y-61652438D01*
X163229166Y-61652438D02*
X163276785Y-61700057D01*
X163276785Y-61700057D02*
X163324404Y-61795295D01*
X163324404Y-61795295D02*
X163324404Y-61842914D01*
X163324404Y-61842914D02*
X163276785Y-61938152D01*
X163276785Y-61938152D02*
X163229166Y-61985771D01*
X163229166Y-61985771D02*
X163133928Y-62033390D01*
X163133928Y-62033390D02*
X162943452Y-62033390D01*
X162943452Y-62033390D02*
X162848214Y-62081009D01*
X162848214Y-62081009D02*
X162800595Y-62128628D01*
X162800595Y-62128628D02*
X162752976Y-62223866D01*
X162752976Y-62223866D02*
X162752976Y-62414342D01*
X162752976Y-62414342D02*
X162800595Y-62509580D01*
X162800595Y-62509580D02*
X162848214Y-62557200D01*
X162848214Y-62557200D02*
X162943452Y-62604819D01*
X162943452Y-62604819D02*
X163133928Y-62604819D01*
X163133928Y-62604819D02*
X163229166Y-62557200D01*
X163229166Y-62557200D02*
X163276785Y-62509580D01*
X163276785Y-62509580D02*
X163324404Y-62414342D01*
X163324404Y-62414342D02*
X163324404Y-62223866D01*
X163324404Y-62223866D02*
X163276785Y-62128628D01*
X163276785Y-62128628D02*
X163229166Y-62081009D01*
X163229166Y-62081009D02*
X163133928Y-62033390D01*
X145129167Y-102262295D02*
X144862500Y-101881342D01*
X144672024Y-102262295D02*
X144672024Y-101462295D01*
X144672024Y-101462295D02*
X144976786Y-101462295D01*
X144976786Y-101462295D02*
X145052976Y-101500390D01*
X145052976Y-101500390D02*
X145091071Y-101538485D01*
X145091071Y-101538485D02*
X145129167Y-101614676D01*
X145129167Y-101614676D02*
X145129167Y-101728961D01*
X145129167Y-101728961D02*
X145091071Y-101805152D01*
X145091071Y-101805152D02*
X145052976Y-101843247D01*
X145052976Y-101843247D02*
X144976786Y-101881342D01*
X144976786Y-101881342D02*
X144672024Y-101881342D01*
X145433928Y-101538485D02*
X145472024Y-101500390D01*
X145472024Y-101500390D02*
X145548214Y-101462295D01*
X145548214Y-101462295D02*
X145738690Y-101462295D01*
X145738690Y-101462295D02*
X145814881Y-101500390D01*
X145814881Y-101500390D02*
X145852976Y-101538485D01*
X145852976Y-101538485D02*
X145891071Y-101614676D01*
X145891071Y-101614676D02*
X145891071Y-101690866D01*
X145891071Y-101690866D02*
X145852976Y-101805152D01*
X145852976Y-101805152D02*
X145395833Y-102262295D01*
X145395833Y-102262295D02*
X145891071Y-102262295D01*
X175159580Y-118942857D02*
X175207200Y-118990476D01*
X175207200Y-118990476D02*
X175254819Y-119133333D01*
X175254819Y-119133333D02*
X175254819Y-119228571D01*
X175254819Y-119228571D02*
X175207200Y-119371428D01*
X175207200Y-119371428D02*
X175111961Y-119466666D01*
X175111961Y-119466666D02*
X175016723Y-119514285D01*
X175016723Y-119514285D02*
X174826247Y-119561904D01*
X174826247Y-119561904D02*
X174683390Y-119561904D01*
X174683390Y-119561904D02*
X174492914Y-119514285D01*
X174492914Y-119514285D02*
X174397676Y-119466666D01*
X174397676Y-119466666D02*
X174302438Y-119371428D01*
X174302438Y-119371428D02*
X174254819Y-119228571D01*
X174254819Y-119228571D02*
X174254819Y-119133333D01*
X174254819Y-119133333D02*
X174302438Y-118990476D01*
X174302438Y-118990476D02*
X174350057Y-118942857D01*
X175254819Y-117990476D02*
X175254819Y-118561904D01*
X175254819Y-118276190D02*
X174254819Y-118276190D01*
X174254819Y-118276190D02*
X174397676Y-118371428D01*
X174397676Y-118371428D02*
X174492914Y-118466666D01*
X174492914Y-118466666D02*
X174540533Y-118561904D01*
X174254819Y-117657142D02*
X174254819Y-117038095D01*
X174254819Y-117038095D02*
X174635771Y-117371428D01*
X174635771Y-117371428D02*
X174635771Y-117228571D01*
X174635771Y-117228571D02*
X174683390Y-117133333D01*
X174683390Y-117133333D02*
X174731009Y-117085714D01*
X174731009Y-117085714D02*
X174826247Y-117038095D01*
X174826247Y-117038095D02*
X175064342Y-117038095D01*
X175064342Y-117038095D02*
X175159580Y-117085714D01*
X175159580Y-117085714D02*
X175207200Y-117133333D01*
X175207200Y-117133333D02*
X175254819Y-117228571D01*
X175254819Y-117228571D02*
X175254819Y-117514285D01*
X175254819Y-117514285D02*
X175207200Y-117609523D01*
X175207200Y-117609523D02*
X175159580Y-117657142D01*
X135485714Y-108424795D02*
X135219047Y-108043842D01*
X135028571Y-108424795D02*
X135028571Y-107624795D01*
X135028571Y-107624795D02*
X135333333Y-107624795D01*
X135333333Y-107624795D02*
X135409523Y-107662890D01*
X135409523Y-107662890D02*
X135447618Y-107700985D01*
X135447618Y-107700985D02*
X135485714Y-107777176D01*
X135485714Y-107777176D02*
X135485714Y-107891461D01*
X135485714Y-107891461D02*
X135447618Y-107967652D01*
X135447618Y-107967652D02*
X135409523Y-108005747D01*
X135409523Y-108005747D02*
X135333333Y-108043842D01*
X135333333Y-108043842D02*
X135028571Y-108043842D01*
X135790475Y-107700985D02*
X135828571Y-107662890D01*
X135828571Y-107662890D02*
X135904761Y-107624795D01*
X135904761Y-107624795D02*
X136095237Y-107624795D01*
X136095237Y-107624795D02*
X136171428Y-107662890D01*
X136171428Y-107662890D02*
X136209523Y-107700985D01*
X136209523Y-107700985D02*
X136247618Y-107777176D01*
X136247618Y-107777176D02*
X136247618Y-107853366D01*
X136247618Y-107853366D02*
X136209523Y-107967652D01*
X136209523Y-107967652D02*
X135752380Y-108424795D01*
X135752380Y-108424795D02*
X136247618Y-108424795D01*
X136933333Y-107624795D02*
X136780952Y-107624795D01*
X136780952Y-107624795D02*
X136704761Y-107662890D01*
X136704761Y-107662890D02*
X136666666Y-107700985D01*
X136666666Y-107700985D02*
X136590476Y-107815271D01*
X136590476Y-107815271D02*
X136552380Y-107967652D01*
X136552380Y-107967652D02*
X136552380Y-108272414D01*
X136552380Y-108272414D02*
X136590476Y-108348604D01*
X136590476Y-108348604D02*
X136628571Y-108386700D01*
X136628571Y-108386700D02*
X136704761Y-108424795D01*
X136704761Y-108424795D02*
X136857142Y-108424795D01*
X136857142Y-108424795D02*
X136933333Y-108386700D01*
X136933333Y-108386700D02*
X136971428Y-108348604D01*
X136971428Y-108348604D02*
X137009523Y-108272414D01*
X137009523Y-108272414D02*
X137009523Y-108081938D01*
X137009523Y-108081938D02*
X136971428Y-108005747D01*
X136971428Y-108005747D02*
X136933333Y-107967652D01*
X136933333Y-107967652D02*
X136857142Y-107929557D01*
X136857142Y-107929557D02*
X136704761Y-107929557D01*
X136704761Y-107929557D02*
X136628571Y-107967652D01*
X136628571Y-107967652D02*
X136590476Y-108005747D01*
X136590476Y-108005747D02*
X136552380Y-108081938D01*
X144866667Y-119186104D02*
X144828571Y-119224200D01*
X144828571Y-119224200D02*
X144714286Y-119262295D01*
X144714286Y-119262295D02*
X144638095Y-119262295D01*
X144638095Y-119262295D02*
X144523809Y-119224200D01*
X144523809Y-119224200D02*
X144447619Y-119148009D01*
X144447619Y-119148009D02*
X144409524Y-119071819D01*
X144409524Y-119071819D02*
X144371428Y-118919438D01*
X144371428Y-118919438D02*
X144371428Y-118805152D01*
X144371428Y-118805152D02*
X144409524Y-118652771D01*
X144409524Y-118652771D02*
X144447619Y-118576580D01*
X144447619Y-118576580D02*
X144523809Y-118500390D01*
X144523809Y-118500390D02*
X144638095Y-118462295D01*
X144638095Y-118462295D02*
X144714286Y-118462295D01*
X144714286Y-118462295D02*
X144828571Y-118500390D01*
X144828571Y-118500390D02*
X144866667Y-118538485D01*
X145552381Y-118728961D02*
X145552381Y-119262295D01*
X145361905Y-118424200D02*
X145171428Y-118995628D01*
X145171428Y-118995628D02*
X145666667Y-118995628D01*
X149366667Y-99462295D02*
X149100000Y-99081342D01*
X148909524Y-99462295D02*
X148909524Y-98662295D01*
X148909524Y-98662295D02*
X149214286Y-98662295D01*
X149214286Y-98662295D02*
X149290476Y-98700390D01*
X149290476Y-98700390D02*
X149328571Y-98738485D01*
X149328571Y-98738485D02*
X149366667Y-98814676D01*
X149366667Y-98814676D02*
X149366667Y-98928961D01*
X149366667Y-98928961D02*
X149328571Y-99005152D01*
X149328571Y-99005152D02*
X149290476Y-99043247D01*
X149290476Y-99043247D02*
X149214286Y-99081342D01*
X149214286Y-99081342D02*
X148909524Y-99081342D01*
X150090476Y-98662295D02*
X149709524Y-98662295D01*
X149709524Y-98662295D02*
X149671428Y-99043247D01*
X149671428Y-99043247D02*
X149709524Y-99005152D01*
X149709524Y-99005152D02*
X149785714Y-98967057D01*
X149785714Y-98967057D02*
X149976190Y-98967057D01*
X149976190Y-98967057D02*
X150052381Y-99005152D01*
X150052381Y-99005152D02*
X150090476Y-99043247D01*
X150090476Y-99043247D02*
X150128571Y-99119438D01*
X150128571Y-99119438D02*
X150128571Y-99309914D01*
X150128571Y-99309914D02*
X150090476Y-99386104D01*
X150090476Y-99386104D02*
X150052381Y-99424200D01*
X150052381Y-99424200D02*
X149976190Y-99462295D01*
X149976190Y-99462295D02*
X149785714Y-99462295D01*
X149785714Y-99462295D02*
X149709524Y-99424200D01*
X149709524Y-99424200D02*
X149671428Y-99386104D01*
X159461905Y-138033723D02*
X159842858Y-138033723D01*
X159385715Y-138262295D02*
X159652382Y-137462295D01*
X159652382Y-137462295D02*
X159919048Y-138262295D01*
X160642858Y-138186104D02*
X160604762Y-138224200D01*
X160604762Y-138224200D02*
X160490477Y-138262295D01*
X160490477Y-138262295D02*
X160414286Y-138262295D01*
X160414286Y-138262295D02*
X160300000Y-138224200D01*
X160300000Y-138224200D02*
X160223810Y-138148009D01*
X160223810Y-138148009D02*
X160185715Y-138071819D01*
X160185715Y-138071819D02*
X160147619Y-137919438D01*
X160147619Y-137919438D02*
X160147619Y-137805152D01*
X160147619Y-137805152D02*
X160185715Y-137652771D01*
X160185715Y-137652771D02*
X160223810Y-137576580D01*
X160223810Y-137576580D02*
X160300000Y-137500390D01*
X160300000Y-137500390D02*
X160414286Y-137462295D01*
X160414286Y-137462295D02*
X160490477Y-137462295D01*
X160490477Y-137462295D02*
X160604762Y-137500390D01*
X160604762Y-137500390D02*
X160642858Y-137538485D01*
X160985715Y-137957533D02*
X161595239Y-137957533D01*
X162204762Y-138567057D02*
X162166667Y-138528961D01*
X162166667Y-138528961D02*
X162090476Y-138414676D01*
X162090476Y-138414676D02*
X162052381Y-138338485D01*
X162052381Y-138338485D02*
X162014286Y-138224200D01*
X162014286Y-138224200D02*
X161976191Y-138033723D01*
X161976191Y-138033723D02*
X161976191Y-137881342D01*
X161976191Y-137881342D02*
X162014286Y-137690866D01*
X162014286Y-137690866D02*
X162052381Y-137576580D01*
X162052381Y-137576580D02*
X162090476Y-137500390D01*
X162090476Y-137500390D02*
X162166667Y-137386104D01*
X162166667Y-137386104D02*
X162204762Y-137348009D01*
X162509524Y-138262295D02*
X162509524Y-137462295D01*
X162509524Y-137462295D02*
X162966667Y-138262295D01*
X162966667Y-138262295D02*
X162966667Y-137462295D01*
X163271428Y-138567057D02*
X163309523Y-138528961D01*
X163309523Y-138528961D02*
X163385714Y-138414676D01*
X163385714Y-138414676D02*
X163423809Y-138338485D01*
X163423809Y-138338485D02*
X163461904Y-138224200D01*
X163461904Y-138224200D02*
X163500000Y-138033723D01*
X163500000Y-138033723D02*
X163500000Y-137881342D01*
X163500000Y-137881342D02*
X163461904Y-137690866D01*
X163461904Y-137690866D02*
X163423809Y-137576580D01*
X163423809Y-137576580D02*
X163385714Y-137500390D01*
X163385714Y-137500390D02*
X163309523Y-137386104D01*
X163309523Y-137386104D02*
X163271428Y-137348009D01*
X163959580Y-131066666D02*
X164007200Y-131114285D01*
X164007200Y-131114285D02*
X164054819Y-131257142D01*
X164054819Y-131257142D02*
X164054819Y-131352380D01*
X164054819Y-131352380D02*
X164007200Y-131495237D01*
X164007200Y-131495237D02*
X163911961Y-131590475D01*
X163911961Y-131590475D02*
X163816723Y-131638094D01*
X163816723Y-131638094D02*
X163626247Y-131685713D01*
X163626247Y-131685713D02*
X163483390Y-131685713D01*
X163483390Y-131685713D02*
X163292914Y-131638094D01*
X163292914Y-131638094D02*
X163197676Y-131590475D01*
X163197676Y-131590475D02*
X163102438Y-131495237D01*
X163102438Y-131495237D02*
X163054819Y-131352380D01*
X163054819Y-131352380D02*
X163054819Y-131257142D01*
X163054819Y-131257142D02*
X163102438Y-131114285D01*
X163102438Y-131114285D02*
X163150057Y-131066666D01*
X163054819Y-130161904D02*
X163054819Y-130638094D01*
X163054819Y-130638094D02*
X163531009Y-130685713D01*
X163531009Y-130685713D02*
X163483390Y-130638094D01*
X163483390Y-130638094D02*
X163435771Y-130542856D01*
X163435771Y-130542856D02*
X163435771Y-130304761D01*
X163435771Y-130304761D02*
X163483390Y-130209523D01*
X163483390Y-130209523D02*
X163531009Y-130161904D01*
X163531009Y-130161904D02*
X163626247Y-130114285D01*
X163626247Y-130114285D02*
X163864342Y-130114285D01*
X163864342Y-130114285D02*
X163959580Y-130161904D01*
X163959580Y-130161904D02*
X164007200Y-130209523D01*
X164007200Y-130209523D02*
X164054819Y-130304761D01*
X164054819Y-130304761D02*
X164054819Y-130542856D01*
X164054819Y-130542856D02*
X164007200Y-130638094D01*
X164007200Y-130638094D02*
X163959580Y-130685713D01*
X169659580Y-131266666D02*
X169707200Y-131314285D01*
X169707200Y-131314285D02*
X169754819Y-131457142D01*
X169754819Y-131457142D02*
X169754819Y-131552380D01*
X169754819Y-131552380D02*
X169707200Y-131695237D01*
X169707200Y-131695237D02*
X169611961Y-131790475D01*
X169611961Y-131790475D02*
X169516723Y-131838094D01*
X169516723Y-131838094D02*
X169326247Y-131885713D01*
X169326247Y-131885713D02*
X169183390Y-131885713D01*
X169183390Y-131885713D02*
X168992914Y-131838094D01*
X168992914Y-131838094D02*
X168897676Y-131790475D01*
X168897676Y-131790475D02*
X168802438Y-131695237D01*
X168802438Y-131695237D02*
X168754819Y-131552380D01*
X168754819Y-131552380D02*
X168754819Y-131457142D01*
X168754819Y-131457142D02*
X168802438Y-131314285D01*
X168802438Y-131314285D02*
X168850057Y-131266666D01*
X168754819Y-130409523D02*
X168754819Y-130599999D01*
X168754819Y-130599999D02*
X168802438Y-130695237D01*
X168802438Y-130695237D02*
X168850057Y-130742856D01*
X168850057Y-130742856D02*
X168992914Y-130838094D01*
X168992914Y-130838094D02*
X169183390Y-130885713D01*
X169183390Y-130885713D02*
X169564342Y-130885713D01*
X169564342Y-130885713D02*
X169659580Y-130838094D01*
X169659580Y-130838094D02*
X169707200Y-130790475D01*
X169707200Y-130790475D02*
X169754819Y-130695237D01*
X169754819Y-130695237D02*
X169754819Y-130504761D01*
X169754819Y-130504761D02*
X169707200Y-130409523D01*
X169707200Y-130409523D02*
X169659580Y-130361904D01*
X169659580Y-130361904D02*
X169564342Y-130314285D01*
X169564342Y-130314285D02*
X169326247Y-130314285D01*
X169326247Y-130314285D02*
X169231009Y-130361904D01*
X169231009Y-130361904D02*
X169183390Y-130409523D01*
X169183390Y-130409523D02*
X169135771Y-130504761D01*
X169135771Y-130504761D02*
X169135771Y-130695237D01*
X169135771Y-130695237D02*
X169183390Y-130790475D01*
X169183390Y-130790475D02*
X169231009Y-130838094D01*
X169231009Y-130838094D02*
X169326247Y-130885713D01*
X138666667Y-97662295D02*
X138400000Y-97281342D01*
X138209524Y-97662295D02*
X138209524Y-96862295D01*
X138209524Y-96862295D02*
X138514286Y-96862295D01*
X138514286Y-96862295D02*
X138590476Y-96900390D01*
X138590476Y-96900390D02*
X138628571Y-96938485D01*
X138628571Y-96938485D02*
X138666667Y-97014676D01*
X138666667Y-97014676D02*
X138666667Y-97128961D01*
X138666667Y-97128961D02*
X138628571Y-97205152D01*
X138628571Y-97205152D02*
X138590476Y-97243247D01*
X138590476Y-97243247D02*
X138514286Y-97281342D01*
X138514286Y-97281342D02*
X138209524Y-97281342D01*
X139123809Y-97205152D02*
X139047619Y-97167057D01*
X139047619Y-97167057D02*
X139009524Y-97128961D01*
X139009524Y-97128961D02*
X138971428Y-97052771D01*
X138971428Y-97052771D02*
X138971428Y-97014676D01*
X138971428Y-97014676D02*
X139009524Y-96938485D01*
X139009524Y-96938485D02*
X139047619Y-96900390D01*
X139047619Y-96900390D02*
X139123809Y-96862295D01*
X139123809Y-96862295D02*
X139276190Y-96862295D01*
X139276190Y-96862295D02*
X139352381Y-96900390D01*
X139352381Y-96900390D02*
X139390476Y-96938485D01*
X139390476Y-96938485D02*
X139428571Y-97014676D01*
X139428571Y-97014676D02*
X139428571Y-97052771D01*
X139428571Y-97052771D02*
X139390476Y-97128961D01*
X139390476Y-97128961D02*
X139352381Y-97167057D01*
X139352381Y-97167057D02*
X139276190Y-97205152D01*
X139276190Y-97205152D02*
X139123809Y-97205152D01*
X139123809Y-97205152D02*
X139047619Y-97243247D01*
X139047619Y-97243247D02*
X139009524Y-97281342D01*
X139009524Y-97281342D02*
X138971428Y-97357533D01*
X138971428Y-97357533D02*
X138971428Y-97509914D01*
X138971428Y-97509914D02*
X139009524Y-97586104D01*
X139009524Y-97586104D02*
X139047619Y-97624200D01*
X139047619Y-97624200D02*
X139123809Y-97662295D01*
X139123809Y-97662295D02*
X139276190Y-97662295D01*
X139276190Y-97662295D02*
X139352381Y-97624200D01*
X139352381Y-97624200D02*
X139390476Y-97586104D01*
X139390476Y-97586104D02*
X139428571Y-97509914D01*
X139428571Y-97509914D02*
X139428571Y-97357533D01*
X139428571Y-97357533D02*
X139390476Y-97281342D01*
X139390476Y-97281342D02*
X139352381Y-97243247D01*
X139352381Y-97243247D02*
X139276190Y-97205152D01*
X121566275Y-135230937D02*
X121232551Y-135230937D01*
X121232551Y-135755361D02*
X121232551Y-134754188D01*
X121232551Y-134754188D02*
X121709300Y-134754188D01*
X122615123Y-135755361D02*
X122043024Y-135755361D01*
X122329074Y-135755361D02*
X122329074Y-134754188D01*
X122329074Y-134754188D02*
X122233724Y-134897213D01*
X122233724Y-134897213D02*
X122138374Y-134992563D01*
X122138374Y-134992563D02*
X122043024Y-135040238D01*
X138166667Y-99199795D02*
X137900000Y-98818842D01*
X137709524Y-99199795D02*
X137709524Y-98399795D01*
X137709524Y-98399795D02*
X138014286Y-98399795D01*
X138014286Y-98399795D02*
X138090476Y-98437890D01*
X138090476Y-98437890D02*
X138128571Y-98475985D01*
X138128571Y-98475985D02*
X138166667Y-98552176D01*
X138166667Y-98552176D02*
X138166667Y-98666461D01*
X138166667Y-98666461D02*
X138128571Y-98742652D01*
X138128571Y-98742652D02*
X138090476Y-98780747D01*
X138090476Y-98780747D02*
X138014286Y-98818842D01*
X138014286Y-98818842D02*
X137709524Y-98818842D01*
X138852381Y-98666461D02*
X138852381Y-99199795D01*
X138661905Y-98361700D02*
X138471428Y-98933128D01*
X138471428Y-98933128D02*
X138966667Y-98933128D01*
X174357142Y-130759580D02*
X174309523Y-130807200D01*
X174309523Y-130807200D02*
X174166666Y-130854819D01*
X174166666Y-130854819D02*
X174071428Y-130854819D01*
X174071428Y-130854819D02*
X173928571Y-130807200D01*
X173928571Y-130807200D02*
X173833333Y-130711961D01*
X173833333Y-130711961D02*
X173785714Y-130616723D01*
X173785714Y-130616723D02*
X173738095Y-130426247D01*
X173738095Y-130426247D02*
X173738095Y-130283390D01*
X173738095Y-130283390D02*
X173785714Y-130092914D01*
X173785714Y-130092914D02*
X173833333Y-129997676D01*
X173833333Y-129997676D02*
X173928571Y-129902438D01*
X173928571Y-129902438D02*
X174071428Y-129854819D01*
X174071428Y-129854819D02*
X174166666Y-129854819D01*
X174166666Y-129854819D02*
X174309523Y-129902438D01*
X174309523Y-129902438D02*
X174357142Y-129950057D01*
X175309523Y-130854819D02*
X174738095Y-130854819D01*
X175023809Y-130854819D02*
X175023809Y-129854819D01*
X175023809Y-129854819D02*
X174928571Y-129997676D01*
X174928571Y-129997676D02*
X174833333Y-130092914D01*
X174833333Y-130092914D02*
X174738095Y-130140533D01*
X176214285Y-129854819D02*
X175738095Y-129854819D01*
X175738095Y-129854819D02*
X175690476Y-130331009D01*
X175690476Y-130331009D02*
X175738095Y-130283390D01*
X175738095Y-130283390D02*
X175833333Y-130235771D01*
X175833333Y-130235771D02*
X176071428Y-130235771D01*
X176071428Y-130235771D02*
X176166666Y-130283390D01*
X176166666Y-130283390D02*
X176214285Y-130331009D01*
X176214285Y-130331009D02*
X176261904Y-130426247D01*
X176261904Y-130426247D02*
X176261904Y-130664342D01*
X176261904Y-130664342D02*
X176214285Y-130759580D01*
X176214285Y-130759580D02*
X176166666Y-130807200D01*
X176166666Y-130807200D02*
X176071428Y-130854819D01*
X176071428Y-130854819D02*
X175833333Y-130854819D01*
X175833333Y-130854819D02*
X175738095Y-130807200D01*
X175738095Y-130807200D02*
X175690476Y-130759580D01*
X132541667Y-101462295D02*
X132275000Y-101081342D01*
X132084524Y-101462295D02*
X132084524Y-100662295D01*
X132084524Y-100662295D02*
X132389286Y-100662295D01*
X132389286Y-100662295D02*
X132465476Y-100700390D01*
X132465476Y-100700390D02*
X132503571Y-100738485D01*
X132503571Y-100738485D02*
X132541667Y-100814676D01*
X132541667Y-100814676D02*
X132541667Y-100928961D01*
X132541667Y-100928961D02*
X132503571Y-101005152D01*
X132503571Y-101005152D02*
X132465476Y-101043247D01*
X132465476Y-101043247D02*
X132389286Y-101081342D01*
X132389286Y-101081342D02*
X132084524Y-101081342D01*
X133303571Y-101462295D02*
X132846428Y-101462295D01*
X133075000Y-101462295D02*
X133075000Y-100662295D01*
X133075000Y-100662295D02*
X132998809Y-100776580D01*
X132998809Y-100776580D02*
X132922619Y-100852771D01*
X132922619Y-100852771D02*
X132846428Y-100890866D01*
X129662295Y-97314285D02*
X129281342Y-97580952D01*
X129662295Y-97771428D02*
X128862295Y-97771428D01*
X128862295Y-97771428D02*
X128862295Y-97466666D01*
X128862295Y-97466666D02*
X128900390Y-97390476D01*
X128900390Y-97390476D02*
X128938485Y-97352381D01*
X128938485Y-97352381D02*
X129014676Y-97314285D01*
X129014676Y-97314285D02*
X129128961Y-97314285D01*
X129128961Y-97314285D02*
X129205152Y-97352381D01*
X129205152Y-97352381D02*
X129243247Y-97390476D01*
X129243247Y-97390476D02*
X129281342Y-97466666D01*
X129281342Y-97466666D02*
X129281342Y-97771428D01*
X129662295Y-96552381D02*
X129662295Y-97009524D01*
X129662295Y-96780952D02*
X128862295Y-96780952D01*
X128862295Y-96780952D02*
X128976580Y-96857143D01*
X128976580Y-96857143D02*
X129052771Y-96933333D01*
X129052771Y-96933333D02*
X129090866Y-97009524D01*
X129128961Y-95866666D02*
X129662295Y-95866666D01*
X128824200Y-96057142D02*
X129395628Y-96247619D01*
X129395628Y-96247619D02*
X129395628Y-95752380D01*
X164238095Y-137754819D02*
X164809523Y-137754819D01*
X164523809Y-138754819D02*
X164523809Y-137754819D01*
X165095238Y-137850057D02*
X165142857Y-137802438D01*
X165142857Y-137802438D02*
X165238095Y-137754819D01*
X165238095Y-137754819D02*
X165476190Y-137754819D01*
X165476190Y-137754819D02*
X165571428Y-137802438D01*
X165571428Y-137802438D02*
X165619047Y-137850057D01*
X165619047Y-137850057D02*
X165666666Y-137945295D01*
X165666666Y-137945295D02*
X165666666Y-138040533D01*
X165666666Y-138040533D02*
X165619047Y-138183390D01*
X165619047Y-138183390D02*
X165047619Y-138754819D01*
X165047619Y-138754819D02*
X165666666Y-138754819D01*
X155185714Y-112962295D02*
X154919047Y-112581342D01*
X154728571Y-112962295D02*
X154728571Y-112162295D01*
X154728571Y-112162295D02*
X155033333Y-112162295D01*
X155033333Y-112162295D02*
X155109523Y-112200390D01*
X155109523Y-112200390D02*
X155147618Y-112238485D01*
X155147618Y-112238485D02*
X155185714Y-112314676D01*
X155185714Y-112314676D02*
X155185714Y-112428961D01*
X155185714Y-112428961D02*
X155147618Y-112505152D01*
X155147618Y-112505152D02*
X155109523Y-112543247D01*
X155109523Y-112543247D02*
X155033333Y-112581342D01*
X155033333Y-112581342D02*
X154728571Y-112581342D01*
X155490475Y-112238485D02*
X155528571Y-112200390D01*
X155528571Y-112200390D02*
X155604761Y-112162295D01*
X155604761Y-112162295D02*
X155795237Y-112162295D01*
X155795237Y-112162295D02*
X155871428Y-112200390D01*
X155871428Y-112200390D02*
X155909523Y-112238485D01*
X155909523Y-112238485D02*
X155947618Y-112314676D01*
X155947618Y-112314676D02*
X155947618Y-112390866D01*
X155947618Y-112390866D02*
X155909523Y-112505152D01*
X155909523Y-112505152D02*
X155452380Y-112962295D01*
X155452380Y-112962295D02*
X155947618Y-112962295D01*
X156214285Y-112162295D02*
X156747619Y-112162295D01*
X156747619Y-112162295D02*
X156404761Y-112962295D01*
X154262295Y-102733332D02*
X153881342Y-102999999D01*
X154262295Y-103190475D02*
X153462295Y-103190475D01*
X153462295Y-103190475D02*
X153462295Y-102885713D01*
X153462295Y-102885713D02*
X153500390Y-102809523D01*
X153500390Y-102809523D02*
X153538485Y-102771428D01*
X153538485Y-102771428D02*
X153614676Y-102733332D01*
X153614676Y-102733332D02*
X153728961Y-102733332D01*
X153728961Y-102733332D02*
X153805152Y-102771428D01*
X153805152Y-102771428D02*
X153843247Y-102809523D01*
X153843247Y-102809523D02*
X153881342Y-102885713D01*
X153881342Y-102885713D02*
X153881342Y-103190475D01*
X153462295Y-102466666D02*
X153462295Y-101971428D01*
X153462295Y-101971428D02*
X153767057Y-102238094D01*
X153767057Y-102238094D02*
X153767057Y-102123809D01*
X153767057Y-102123809D02*
X153805152Y-102047618D01*
X153805152Y-102047618D02*
X153843247Y-102009523D01*
X153843247Y-102009523D02*
X153919438Y-101971428D01*
X153919438Y-101971428D02*
X154109914Y-101971428D01*
X154109914Y-101971428D02*
X154186104Y-102009523D01*
X154186104Y-102009523D02*
X154224200Y-102047618D01*
X154224200Y-102047618D02*
X154262295Y-102123809D01*
X154262295Y-102123809D02*
X154262295Y-102352380D01*
X154262295Y-102352380D02*
X154224200Y-102428571D01*
X154224200Y-102428571D02*
X154186104Y-102466666D01*
X149062295Y-102295832D02*
X148681342Y-102562499D01*
X149062295Y-102752975D02*
X148262295Y-102752975D01*
X148262295Y-102752975D02*
X148262295Y-102448213D01*
X148262295Y-102448213D02*
X148300390Y-102372023D01*
X148300390Y-102372023D02*
X148338485Y-102333928D01*
X148338485Y-102333928D02*
X148414676Y-102295832D01*
X148414676Y-102295832D02*
X148528961Y-102295832D01*
X148528961Y-102295832D02*
X148605152Y-102333928D01*
X148605152Y-102333928D02*
X148643247Y-102372023D01*
X148643247Y-102372023D02*
X148681342Y-102448213D01*
X148681342Y-102448213D02*
X148681342Y-102752975D01*
X148262295Y-101610118D02*
X148262295Y-101762499D01*
X148262295Y-101762499D02*
X148300390Y-101838690D01*
X148300390Y-101838690D02*
X148338485Y-101876785D01*
X148338485Y-101876785D02*
X148452771Y-101952975D01*
X148452771Y-101952975D02*
X148605152Y-101991071D01*
X148605152Y-101991071D02*
X148909914Y-101991071D01*
X148909914Y-101991071D02*
X148986104Y-101952975D01*
X148986104Y-101952975D02*
X149024200Y-101914880D01*
X149024200Y-101914880D02*
X149062295Y-101838690D01*
X149062295Y-101838690D02*
X149062295Y-101686309D01*
X149062295Y-101686309D02*
X149024200Y-101610118D01*
X149024200Y-101610118D02*
X148986104Y-101572023D01*
X148986104Y-101572023D02*
X148909914Y-101533928D01*
X148909914Y-101533928D02*
X148719438Y-101533928D01*
X148719438Y-101533928D02*
X148643247Y-101572023D01*
X148643247Y-101572023D02*
X148605152Y-101610118D01*
X148605152Y-101610118D02*
X148567057Y-101686309D01*
X148567057Y-101686309D02*
X148567057Y-101838690D01*
X148567057Y-101838690D02*
X148605152Y-101914880D01*
X148605152Y-101914880D02*
X148643247Y-101952975D01*
X148643247Y-101952975D02*
X148719438Y-101991071D01*
X180361905Y-84254819D02*
X180361905Y-83254819D01*
X180361905Y-83254819D02*
X180600000Y-83254819D01*
X180600000Y-83254819D02*
X180742857Y-83302438D01*
X180742857Y-83302438D02*
X180838095Y-83397676D01*
X180838095Y-83397676D02*
X180885714Y-83492914D01*
X180885714Y-83492914D02*
X180933333Y-83683390D01*
X180933333Y-83683390D02*
X180933333Y-83826247D01*
X180933333Y-83826247D02*
X180885714Y-84016723D01*
X180885714Y-84016723D02*
X180838095Y-84111961D01*
X180838095Y-84111961D02*
X180742857Y-84207200D01*
X180742857Y-84207200D02*
X180600000Y-84254819D01*
X180600000Y-84254819D02*
X180361905Y-84254819D01*
X181885714Y-84254819D02*
X181314286Y-84254819D01*
X181600000Y-84254819D02*
X181600000Y-83254819D01*
X181600000Y-83254819D02*
X181504762Y-83397676D01*
X181504762Y-83397676D02*
X181409524Y-83492914D01*
X181409524Y-83492914D02*
X181314286Y-83540533D01*
X163785714Y-95062295D02*
X163519047Y-94681342D01*
X163328571Y-95062295D02*
X163328571Y-94262295D01*
X163328571Y-94262295D02*
X163633333Y-94262295D01*
X163633333Y-94262295D02*
X163709523Y-94300390D01*
X163709523Y-94300390D02*
X163747618Y-94338485D01*
X163747618Y-94338485D02*
X163785714Y-94414676D01*
X163785714Y-94414676D02*
X163785714Y-94528961D01*
X163785714Y-94528961D02*
X163747618Y-94605152D01*
X163747618Y-94605152D02*
X163709523Y-94643247D01*
X163709523Y-94643247D02*
X163633333Y-94681342D01*
X163633333Y-94681342D02*
X163328571Y-94681342D01*
X164547618Y-95062295D02*
X164090475Y-95062295D01*
X164319047Y-95062295D02*
X164319047Y-94262295D01*
X164319047Y-94262295D02*
X164242856Y-94376580D01*
X164242856Y-94376580D02*
X164166666Y-94452771D01*
X164166666Y-94452771D02*
X164090475Y-94490866D01*
X164814285Y-94262295D02*
X165309523Y-94262295D01*
X165309523Y-94262295D02*
X165042857Y-94567057D01*
X165042857Y-94567057D02*
X165157142Y-94567057D01*
X165157142Y-94567057D02*
X165233333Y-94605152D01*
X165233333Y-94605152D02*
X165271428Y-94643247D01*
X165271428Y-94643247D02*
X165309523Y-94719438D01*
X165309523Y-94719438D02*
X165309523Y-94909914D01*
X165309523Y-94909914D02*
X165271428Y-94986104D01*
X165271428Y-94986104D02*
X165233333Y-95024200D01*
X165233333Y-95024200D02*
X165157142Y-95062295D01*
X165157142Y-95062295D02*
X164928571Y-95062295D01*
X164928571Y-95062295D02*
X164852380Y-95024200D01*
X164852380Y-95024200D02*
X164814285Y-94986104D01*
X149438095Y-137854819D02*
X150009523Y-137854819D01*
X149723809Y-138854819D02*
X149723809Y-137854819D01*
X150866666Y-138854819D02*
X150295238Y-138854819D01*
X150580952Y-138854819D02*
X150580952Y-137854819D01*
X150580952Y-137854819D02*
X150485714Y-137997676D01*
X150485714Y-137997676D02*
X150390476Y-138092914D01*
X150390476Y-138092914D02*
X150295238Y-138140533D01*
X177438095Y-148254819D02*
X178009523Y-148254819D01*
X177723809Y-149254819D02*
X177723809Y-148254819D01*
X178247619Y-148254819D02*
X178866666Y-148254819D01*
X178866666Y-148254819D02*
X178533333Y-148635771D01*
X178533333Y-148635771D02*
X178676190Y-148635771D01*
X178676190Y-148635771D02*
X178771428Y-148683390D01*
X178771428Y-148683390D02*
X178819047Y-148731009D01*
X178819047Y-148731009D02*
X178866666Y-148826247D01*
X178866666Y-148826247D02*
X178866666Y-149064342D01*
X178866666Y-149064342D02*
X178819047Y-149159580D01*
X178819047Y-149159580D02*
X178771428Y-149207200D01*
X178771428Y-149207200D02*
X178676190Y-149254819D01*
X178676190Y-149254819D02*
X178390476Y-149254819D01*
X178390476Y-149254819D02*
X178295238Y-149207200D01*
X178295238Y-149207200D02*
X178247619Y-149159580D01*
X163385714Y-109262295D02*
X163119047Y-108881342D01*
X162928571Y-109262295D02*
X162928571Y-108462295D01*
X162928571Y-108462295D02*
X163233333Y-108462295D01*
X163233333Y-108462295D02*
X163309523Y-108500390D01*
X163309523Y-108500390D02*
X163347618Y-108538485D01*
X163347618Y-108538485D02*
X163385714Y-108614676D01*
X163385714Y-108614676D02*
X163385714Y-108728961D01*
X163385714Y-108728961D02*
X163347618Y-108805152D01*
X163347618Y-108805152D02*
X163309523Y-108843247D01*
X163309523Y-108843247D02*
X163233333Y-108881342D01*
X163233333Y-108881342D02*
X162928571Y-108881342D01*
X163690475Y-108538485D02*
X163728571Y-108500390D01*
X163728571Y-108500390D02*
X163804761Y-108462295D01*
X163804761Y-108462295D02*
X163995237Y-108462295D01*
X163995237Y-108462295D02*
X164071428Y-108500390D01*
X164071428Y-108500390D02*
X164109523Y-108538485D01*
X164109523Y-108538485D02*
X164147618Y-108614676D01*
X164147618Y-108614676D02*
X164147618Y-108690866D01*
X164147618Y-108690866D02*
X164109523Y-108805152D01*
X164109523Y-108805152D02*
X163652380Y-109262295D01*
X163652380Y-109262295D02*
X164147618Y-109262295D01*
X164604761Y-108805152D02*
X164528571Y-108767057D01*
X164528571Y-108767057D02*
X164490476Y-108728961D01*
X164490476Y-108728961D02*
X164452380Y-108652771D01*
X164452380Y-108652771D02*
X164452380Y-108614676D01*
X164452380Y-108614676D02*
X164490476Y-108538485D01*
X164490476Y-108538485D02*
X164528571Y-108500390D01*
X164528571Y-108500390D02*
X164604761Y-108462295D01*
X164604761Y-108462295D02*
X164757142Y-108462295D01*
X164757142Y-108462295D02*
X164833333Y-108500390D01*
X164833333Y-108500390D02*
X164871428Y-108538485D01*
X164871428Y-108538485D02*
X164909523Y-108614676D01*
X164909523Y-108614676D02*
X164909523Y-108652771D01*
X164909523Y-108652771D02*
X164871428Y-108728961D01*
X164871428Y-108728961D02*
X164833333Y-108767057D01*
X164833333Y-108767057D02*
X164757142Y-108805152D01*
X164757142Y-108805152D02*
X164604761Y-108805152D01*
X164604761Y-108805152D02*
X164528571Y-108843247D01*
X164528571Y-108843247D02*
X164490476Y-108881342D01*
X164490476Y-108881342D02*
X164452380Y-108957533D01*
X164452380Y-108957533D02*
X164452380Y-109109914D01*
X164452380Y-109109914D02*
X164490476Y-109186104D01*
X164490476Y-109186104D02*
X164528571Y-109224200D01*
X164528571Y-109224200D02*
X164604761Y-109262295D01*
X164604761Y-109262295D02*
X164757142Y-109262295D01*
X164757142Y-109262295D02*
X164833333Y-109224200D01*
X164833333Y-109224200D02*
X164871428Y-109186104D01*
X164871428Y-109186104D02*
X164909523Y-109109914D01*
X164909523Y-109109914D02*
X164909523Y-108957533D01*
X164909523Y-108957533D02*
X164871428Y-108881342D01*
X164871428Y-108881342D02*
X164833333Y-108843247D01*
X164833333Y-108843247D02*
X164757142Y-108805152D01*
X182457142Y-107659580D02*
X182409523Y-107707200D01*
X182409523Y-107707200D02*
X182266666Y-107754819D01*
X182266666Y-107754819D02*
X182171428Y-107754819D01*
X182171428Y-107754819D02*
X182028571Y-107707200D01*
X182028571Y-107707200D02*
X181933333Y-107611961D01*
X181933333Y-107611961D02*
X181885714Y-107516723D01*
X181885714Y-107516723D02*
X181838095Y-107326247D01*
X181838095Y-107326247D02*
X181838095Y-107183390D01*
X181838095Y-107183390D02*
X181885714Y-106992914D01*
X181885714Y-106992914D02*
X181933333Y-106897676D01*
X181933333Y-106897676D02*
X182028571Y-106802438D01*
X182028571Y-106802438D02*
X182171428Y-106754819D01*
X182171428Y-106754819D02*
X182266666Y-106754819D01*
X182266666Y-106754819D02*
X182409523Y-106802438D01*
X182409523Y-106802438D02*
X182457142Y-106850057D01*
X183409523Y-107754819D02*
X182838095Y-107754819D01*
X183123809Y-107754819D02*
X183123809Y-106754819D01*
X183123809Y-106754819D02*
X183028571Y-106897676D01*
X183028571Y-106897676D02*
X182933333Y-106992914D01*
X182933333Y-106992914D02*
X182838095Y-107040533D01*
X183790476Y-106850057D02*
X183838095Y-106802438D01*
X183838095Y-106802438D02*
X183933333Y-106754819D01*
X183933333Y-106754819D02*
X184171428Y-106754819D01*
X184171428Y-106754819D02*
X184266666Y-106802438D01*
X184266666Y-106802438D02*
X184314285Y-106850057D01*
X184314285Y-106850057D02*
X184361904Y-106945295D01*
X184361904Y-106945295D02*
X184361904Y-107040533D01*
X184361904Y-107040533D02*
X184314285Y-107183390D01*
X184314285Y-107183390D02*
X183742857Y-107754819D01*
X183742857Y-107754819D02*
X184361904Y-107754819D01*
X174733333Y-108659580D02*
X174685714Y-108707200D01*
X174685714Y-108707200D02*
X174542857Y-108754819D01*
X174542857Y-108754819D02*
X174447619Y-108754819D01*
X174447619Y-108754819D02*
X174304762Y-108707200D01*
X174304762Y-108707200D02*
X174209524Y-108611961D01*
X174209524Y-108611961D02*
X174161905Y-108516723D01*
X174161905Y-108516723D02*
X174114286Y-108326247D01*
X174114286Y-108326247D02*
X174114286Y-108183390D01*
X174114286Y-108183390D02*
X174161905Y-107992914D01*
X174161905Y-107992914D02*
X174209524Y-107897676D01*
X174209524Y-107897676D02*
X174304762Y-107802438D01*
X174304762Y-107802438D02*
X174447619Y-107754819D01*
X174447619Y-107754819D02*
X174542857Y-107754819D01*
X174542857Y-107754819D02*
X174685714Y-107802438D01*
X174685714Y-107802438D02*
X174733333Y-107850057D01*
X175066667Y-107754819D02*
X175733333Y-107754819D01*
X175733333Y-107754819D02*
X175304762Y-108754819D01*
X156774795Y-96133332D02*
X156393842Y-96399999D01*
X156774795Y-96590475D02*
X155974795Y-96590475D01*
X155974795Y-96590475D02*
X155974795Y-96285713D01*
X155974795Y-96285713D02*
X156012890Y-96209523D01*
X156012890Y-96209523D02*
X156050985Y-96171428D01*
X156050985Y-96171428D02*
X156127176Y-96133332D01*
X156127176Y-96133332D02*
X156241461Y-96133332D01*
X156241461Y-96133332D02*
X156317652Y-96171428D01*
X156317652Y-96171428D02*
X156355747Y-96209523D01*
X156355747Y-96209523D02*
X156393842Y-96285713D01*
X156393842Y-96285713D02*
X156393842Y-96590475D01*
X156774795Y-95752380D02*
X156774795Y-95599999D01*
X156774795Y-95599999D02*
X156736700Y-95523809D01*
X156736700Y-95523809D02*
X156698604Y-95485713D01*
X156698604Y-95485713D02*
X156584319Y-95409523D01*
X156584319Y-95409523D02*
X156431938Y-95371428D01*
X156431938Y-95371428D02*
X156127176Y-95371428D01*
X156127176Y-95371428D02*
X156050985Y-95409523D01*
X156050985Y-95409523D02*
X156012890Y-95447618D01*
X156012890Y-95447618D02*
X155974795Y-95523809D01*
X155974795Y-95523809D02*
X155974795Y-95676190D01*
X155974795Y-95676190D02*
X156012890Y-95752380D01*
X156012890Y-95752380D02*
X156050985Y-95790475D01*
X156050985Y-95790475D02*
X156127176Y-95828571D01*
X156127176Y-95828571D02*
X156317652Y-95828571D01*
X156317652Y-95828571D02*
X156393842Y-95790475D01*
X156393842Y-95790475D02*
X156431938Y-95752380D01*
X156431938Y-95752380D02*
X156470033Y-95676190D01*
X156470033Y-95676190D02*
X156470033Y-95523809D01*
X156470033Y-95523809D02*
X156431938Y-95447618D01*
X156431938Y-95447618D02*
X156393842Y-95409523D01*
X156393842Y-95409523D02*
X156317652Y-95371428D01*
X134566667Y-94362295D02*
X134300000Y-93981342D01*
X134109524Y-94362295D02*
X134109524Y-93562295D01*
X134109524Y-93562295D02*
X134414286Y-93562295D01*
X134414286Y-93562295D02*
X134490476Y-93600390D01*
X134490476Y-93600390D02*
X134528571Y-93638485D01*
X134528571Y-93638485D02*
X134566667Y-93714676D01*
X134566667Y-93714676D02*
X134566667Y-93828961D01*
X134566667Y-93828961D02*
X134528571Y-93905152D01*
X134528571Y-93905152D02*
X134490476Y-93943247D01*
X134490476Y-93943247D02*
X134414286Y-93981342D01*
X134414286Y-93981342D02*
X134109524Y-93981342D01*
X134833333Y-93562295D02*
X135366667Y-93562295D01*
X135366667Y-93562295D02*
X135023809Y-94362295D01*
X158066645Y-40454786D02*
X158066645Y-41169116D01*
X158066645Y-41169116D02*
X158019023Y-41311982D01*
X158019023Y-41311982D02*
X157923779Y-41407227D01*
X157923779Y-41407227D02*
X157780913Y-41454849D01*
X157780913Y-41454849D02*
X157685669Y-41454849D01*
X158495244Y-40550030D02*
X158542866Y-40502408D01*
X158542866Y-40502408D02*
X158638110Y-40454786D01*
X158638110Y-40454786D02*
X158876220Y-40454786D01*
X158876220Y-40454786D02*
X158971464Y-40502408D01*
X158971464Y-40502408D02*
X159019086Y-40550030D01*
X159019086Y-40550030D02*
X159066708Y-40645274D01*
X159066708Y-40645274D02*
X159066708Y-40740518D01*
X159066708Y-40740518D02*
X159019086Y-40883384D01*
X159019086Y-40883384D02*
X158447622Y-41454849D01*
X158447622Y-41454849D02*
X159066708Y-41454849D01*
X145266645Y-40554786D02*
X145266645Y-41269116D01*
X145266645Y-41269116D02*
X145219023Y-41411982D01*
X145219023Y-41411982D02*
X145123779Y-41507227D01*
X145123779Y-41507227D02*
X144980913Y-41554849D01*
X144980913Y-41554849D02*
X144885669Y-41554849D01*
X145647622Y-40554786D02*
X146266708Y-40554786D01*
X146266708Y-40554786D02*
X145933354Y-40935762D01*
X145933354Y-40935762D02*
X146076220Y-40935762D01*
X146076220Y-40935762D02*
X146171464Y-40983384D01*
X146171464Y-40983384D02*
X146219086Y-41031006D01*
X146219086Y-41031006D02*
X146266708Y-41126250D01*
X146266708Y-41126250D02*
X146266708Y-41364360D01*
X146266708Y-41364360D02*
X146219086Y-41459604D01*
X146219086Y-41459604D02*
X146171464Y-41507227D01*
X146171464Y-41507227D02*
X146076220Y-41554849D01*
X146076220Y-41554849D02*
X145790488Y-41554849D01*
X145790488Y-41554849D02*
X145695244Y-41507227D01*
X145695244Y-41507227D02*
X145647622Y-41459604D01*
X132966645Y-40454786D02*
X132966645Y-41169116D01*
X132966645Y-41169116D02*
X132919023Y-41311982D01*
X132919023Y-41311982D02*
X132823779Y-41407227D01*
X132823779Y-41407227D02*
X132680913Y-41454849D01*
X132680913Y-41454849D02*
X132585669Y-41454849D01*
X133871464Y-40788140D02*
X133871464Y-41454849D01*
X133633354Y-40407164D02*
X133395244Y-41121494D01*
X133395244Y-41121494D02*
X134014330Y-41121494D01*
%TO.C,ESP_J2*%
D12*
X129426482Y-94370000D02*
G75*
G02*
X128733518Y-94370000I-346482J0D01*
G01*
X128733518Y-94370000D02*
G75*
G02*
X129426482Y-94370000I346482J0D01*
G01*
D13*
X130390000Y-90620000D02*
X176220000Y-90620000D01*
X176220000Y-93380000D02*
X176220000Y-90620000D01*
X130390000Y-93380000D02*
X130390000Y-90620000D01*
X130390000Y-93380000D02*
X176220000Y-93380000D01*
X129120000Y-93380000D02*
X127740000Y-93380000D01*
X127740000Y-93380000D02*
X127740000Y-92000000D01*
%TO.C,ESP_J3*%
X127740000Y-67980000D02*
X127740000Y-66600000D01*
X129120000Y-67980000D02*
X127740000Y-67980000D01*
X130390000Y-67980000D02*
X176220000Y-67980000D01*
X130390000Y-67980000D02*
X130390000Y-65220000D01*
X176220000Y-67980000D02*
X176220000Y-65220000D01*
X130390000Y-65220000D02*
X176220000Y-65220000D01*
%TO.C,L1*%
D14*
X176900000Y-95830000D02*
X179900000Y-95830000D01*
X179900000Y-99170000D02*
X176900000Y-99170000D01*
%TO.C,R18*%
D13*
X161835436Y-63065000D02*
X162289564Y-63065000D01*
X161835436Y-64535000D02*
X162289564Y-64535000D01*
%TO.C,R2*%
X146639564Y-102690000D02*
X142285436Y-102690000D01*
X146639564Y-106110000D02*
X142285436Y-106110000D01*
%TO.C,C13*%
X174187677Y-124299000D02*
X174187677Y-123101000D01*
X174227677Y-124562000D02*
X174227677Y-122838000D01*
X174267677Y-124762000D02*
X174267677Y-122638000D01*
X174307677Y-124930000D02*
X174307677Y-122470000D01*
X174347677Y-125077000D02*
X174347677Y-122323000D01*
X174387677Y-125209000D02*
X174387677Y-122191000D01*
X174427677Y-125330000D02*
X174427677Y-122070000D01*
X174467677Y-125442000D02*
X174467677Y-121958000D01*
X174507677Y-125546000D02*
X174507677Y-121854000D01*
X174547677Y-125644000D02*
X174547677Y-121756000D01*
X174587677Y-125737000D02*
X174587677Y-121663000D01*
X174627677Y-125824000D02*
X174627677Y-121576000D01*
X174667677Y-125908000D02*
X174667677Y-121492000D01*
X174707677Y-125988000D02*
X174707677Y-121412000D01*
X174747677Y-126065000D02*
X174747677Y-121335000D01*
X174787677Y-126139000D02*
X174787677Y-121261000D01*
X174827677Y-126210000D02*
X174827677Y-121190000D01*
X174867677Y-126278000D02*
X174867677Y-121122000D01*
X174907677Y-126344000D02*
X174907677Y-121056000D01*
X174947677Y-126408000D02*
X174947677Y-120992000D01*
X174987677Y-126470000D02*
X174987677Y-120930000D01*
X175027677Y-126530000D02*
X175027677Y-120870000D01*
X175067677Y-126588000D02*
X175067677Y-120812000D01*
X175107677Y-126645000D02*
X175107677Y-120755000D01*
X175147677Y-126700000D02*
X175147677Y-120700000D01*
X175187677Y-126753000D02*
X175187677Y-120647000D01*
X175227677Y-126805000D02*
X175227677Y-120595000D01*
X175267677Y-126856000D02*
X175267677Y-120544000D01*
X175307677Y-126905000D02*
X175307677Y-120495000D01*
X175347677Y-126954000D02*
X175347677Y-120446000D01*
X175387677Y-127001000D02*
X175387677Y-120399000D01*
X175427677Y-127047000D02*
X175427677Y-120353000D01*
X175467677Y-127091000D02*
X175467677Y-120309000D01*
X175507677Y-127135000D02*
X175507677Y-120265000D01*
X175547677Y-122460000D02*
X175547677Y-120222000D01*
X175547677Y-127178000D02*
X175547677Y-124940000D01*
X175587677Y-122460000D02*
X175587677Y-120180000D01*
X175587677Y-127220000D02*
X175587677Y-124940000D01*
X175627677Y-122460000D02*
X175627677Y-120139000D01*
X175627677Y-127261000D02*
X175627677Y-124940000D01*
X175667677Y-122460000D02*
X175667677Y-120099000D01*
X175667677Y-127301000D02*
X175667677Y-124940000D01*
X175707677Y-122460000D02*
X175707677Y-120060000D01*
X175707677Y-127340000D02*
X175707677Y-124940000D01*
X175747677Y-122460000D02*
X175747677Y-120022000D01*
X175747677Y-127378000D02*
X175747677Y-124940000D01*
X175787677Y-122460000D02*
X175787677Y-119984000D01*
X175787677Y-127416000D02*
X175787677Y-124940000D01*
X175827677Y-122460000D02*
X175827677Y-119948000D01*
X175827677Y-127452000D02*
X175827677Y-124940000D01*
X175867677Y-122460000D02*
X175867677Y-119912000D01*
X175867677Y-127488000D02*
X175867677Y-124940000D01*
X175907677Y-122460000D02*
X175907677Y-119877000D01*
X175907677Y-127523000D02*
X175907677Y-124940000D01*
X175947677Y-122460000D02*
X175947677Y-119842000D01*
X175947677Y-127558000D02*
X175947677Y-124940000D01*
X175987677Y-122460000D02*
X175987677Y-119809000D01*
X175987677Y-127591000D02*
X175987677Y-124940000D01*
X176027677Y-122460000D02*
X176027677Y-119776000D01*
X176027677Y-127624000D02*
X176027677Y-124940000D01*
X176067677Y-122460000D02*
X176067677Y-119743000D01*
X176067677Y-127657000D02*
X176067677Y-124940000D01*
X176107677Y-122460000D02*
X176107677Y-119712000D01*
X176107677Y-127688000D02*
X176107677Y-124940000D01*
X176147677Y-122460000D02*
X176147677Y-119680000D01*
X176147677Y-127720000D02*
X176147677Y-124940000D01*
X176187677Y-122460000D02*
X176187677Y-119650000D01*
X176187677Y-127750000D02*
X176187677Y-124940000D01*
X176227677Y-122460000D02*
X176227677Y-119620000D01*
X176227677Y-127780000D02*
X176227677Y-124940000D01*
X176267677Y-122460000D02*
X176267677Y-119591000D01*
X176267677Y-127809000D02*
X176267677Y-124940000D01*
X176307677Y-122460000D02*
X176307677Y-119562000D01*
X176307677Y-127838000D02*
X176307677Y-124940000D01*
X176347677Y-122460000D02*
X176347677Y-119534000D01*
X176347677Y-127866000D02*
X176347677Y-124940000D01*
X176387677Y-122460000D02*
X176387677Y-119507000D01*
X176387677Y-127893000D02*
X176387677Y-124940000D01*
X176427677Y-122460000D02*
X176427677Y-119480000D01*
X176427677Y-127920000D02*
X176427677Y-124940000D01*
X176467677Y-122460000D02*
X176467677Y-119453000D01*
X176467677Y-127947000D02*
X176467677Y-124940000D01*
X176507677Y-122460000D02*
X176507677Y-119428000D01*
X176507677Y-127972000D02*
X176507677Y-124940000D01*
X176547677Y-122460000D02*
X176547677Y-119402000D01*
X176547677Y-127998000D02*
X176547677Y-124940000D01*
X176587677Y-122460000D02*
X176587677Y-119377000D01*
X176587677Y-128023000D02*
X176587677Y-124940000D01*
X176627677Y-122460000D02*
X176627677Y-119353000D01*
X176627677Y-128047000D02*
X176627677Y-124940000D01*
X176667677Y-122460000D02*
X176667677Y-119329000D01*
X176667677Y-128071000D02*
X176667677Y-124940000D01*
X176707677Y-122460000D02*
X176707677Y-119306000D01*
X176707677Y-128094000D02*
X176707677Y-124940000D01*
X176747677Y-122460000D02*
X176747677Y-119283000D01*
X176747677Y-128117000D02*
X176747677Y-124940000D01*
X176787677Y-122460000D02*
X176787677Y-119261000D01*
X176787677Y-128139000D02*
X176787677Y-124940000D01*
X176827677Y-122460000D02*
X176827677Y-119239000D01*
X176827677Y-128161000D02*
X176827677Y-124940000D01*
X176867677Y-122460000D02*
X176867677Y-119217000D01*
X176867677Y-128183000D02*
X176867677Y-124940000D01*
X176907677Y-122460000D02*
X176907677Y-119196000D01*
X176907677Y-128204000D02*
X176907677Y-124940000D01*
X176947677Y-122460000D02*
X176947677Y-119176000D01*
X176947677Y-128224000D02*
X176947677Y-124940000D01*
X176987677Y-122460000D02*
X176987677Y-119156000D01*
X176987677Y-128244000D02*
X176987677Y-124940000D01*
X177027677Y-122460000D02*
X177027677Y-119136000D01*
X177027677Y-128264000D02*
X177027677Y-124940000D01*
X177067677Y-122460000D02*
X177067677Y-119117000D01*
X177067677Y-128283000D02*
X177067677Y-124940000D01*
X177107677Y-122460000D02*
X177107677Y-119098000D01*
X177107677Y-128302000D02*
X177107677Y-124940000D01*
X177147677Y-122460000D02*
X177147677Y-119080000D01*
X177147677Y-128320000D02*
X177147677Y-124940000D01*
X177187677Y-122460000D02*
X177187677Y-119062000D01*
X177187677Y-128338000D02*
X177187677Y-124940000D01*
X177227677Y-122460000D02*
X177227677Y-119044000D01*
X177227677Y-128356000D02*
X177227677Y-124940000D01*
X177267677Y-122460000D02*
X177267677Y-119027000D01*
X177267677Y-128373000D02*
X177267677Y-124940000D01*
X177307677Y-122460000D02*
X177307677Y-119010000D01*
X177307677Y-128390000D02*
X177307677Y-124940000D01*
X177347677Y-122460000D02*
X177347677Y-118994000D01*
X177347677Y-128406000D02*
X177347677Y-124940000D01*
X177387677Y-122460000D02*
X177387677Y-118978000D01*
X177387677Y-128422000D02*
X177387677Y-124940000D01*
X177427677Y-122460000D02*
X177427677Y-118962000D01*
X177427677Y-128438000D02*
X177427677Y-124940000D01*
X177467677Y-122460000D02*
X177467677Y-118947000D01*
X177467677Y-128453000D02*
X177467677Y-124940000D01*
X177507677Y-122460000D02*
X177507677Y-118932000D01*
X177507677Y-128468000D02*
X177507677Y-124940000D01*
X177547677Y-122460000D02*
X177547677Y-118918000D01*
X177547677Y-128482000D02*
X177547677Y-124940000D01*
X177587677Y-122460000D02*
X177587677Y-118903000D01*
X177587677Y-128497000D02*
X177587677Y-124940000D01*
X177627677Y-122460000D02*
X177627677Y-118890000D01*
X177627677Y-128510000D02*
X177627677Y-124940000D01*
X177667677Y-122460000D02*
X177667677Y-118876000D01*
X177667677Y-128524000D02*
X177667677Y-124940000D01*
X177707677Y-122460000D02*
X177707677Y-118863000D01*
X177707677Y-128537000D02*
X177707677Y-124940000D01*
X177747677Y-122460000D02*
X177747677Y-118851000D01*
X177747677Y-128549000D02*
X177747677Y-124940000D01*
X177787677Y-122460000D02*
X177787677Y-118839000D01*
X177787677Y-128561000D02*
X177787677Y-124940000D01*
X177827677Y-122460000D02*
X177827677Y-118827000D01*
X177827677Y-128573000D02*
X177827677Y-124940000D01*
X177867677Y-122460000D02*
X177867677Y-118815000D01*
X177867677Y-128585000D02*
X177867677Y-124940000D01*
X177907677Y-122460000D02*
X177907677Y-118804000D01*
X177907677Y-128596000D02*
X177907677Y-124940000D01*
X177947677Y-122460000D02*
X177947677Y-118793000D01*
X177947677Y-128607000D02*
X177947677Y-124940000D01*
X177987677Y-122460000D02*
X177987677Y-118783000D01*
X177987677Y-128617000D02*
X177987677Y-124940000D01*
X178027677Y-128628000D02*
X178027677Y-118772000D01*
X178067677Y-128637000D02*
X178067677Y-118763000D01*
X178107677Y-128647000D02*
X178107677Y-118753000D01*
X178147677Y-128656000D02*
X178147677Y-118744000D01*
X178187677Y-128665000D02*
X178187677Y-118735000D01*
X178227677Y-128673000D02*
X178227677Y-118727000D01*
X178267677Y-128681000D02*
X178267677Y-118719000D01*
X178307677Y-128689000D02*
X178307677Y-118711000D01*
X178347677Y-128697000D02*
X178347677Y-118703000D01*
X178387677Y-128704000D02*
X178387677Y-118696000D01*
X178427677Y-128711000D02*
X178427677Y-118689000D01*
X178467677Y-128717000D02*
X178467677Y-118683000D01*
X178507677Y-128723000D02*
X178507677Y-118677000D01*
X178547677Y-128729000D02*
X178547677Y-118671000D01*
X178587677Y-128735000D02*
X178587677Y-118665000D01*
X178627677Y-128740000D02*
X178627677Y-118660000D01*
X178667677Y-128745000D02*
X178667677Y-118655000D01*
X178707677Y-128749000D02*
X178707677Y-118651000D01*
X178747677Y-128754000D02*
X178747677Y-118646000D01*
X178787677Y-128757000D02*
X178787677Y-118643000D01*
X178827677Y-128761000D02*
X178827677Y-118639000D01*
X178867677Y-128764000D02*
X178867677Y-118636000D01*
X178907677Y-128767000D02*
X178907677Y-118633000D01*
X178947677Y-128770000D02*
X178947677Y-118630000D01*
X178987677Y-128772000D02*
X178987677Y-118628000D01*
X179027677Y-128774000D02*
X179027677Y-118626000D01*
X179067677Y-128776000D02*
X179067677Y-118624000D01*
X179107677Y-128777000D02*
X179107677Y-118623000D01*
X179147677Y-128779000D02*
X179147677Y-118621000D01*
X179187677Y-128779000D02*
X179187677Y-118621000D01*
X179227677Y-128780000D02*
X179227677Y-118620000D01*
X179267677Y-128780000D02*
X179267677Y-118620000D01*
X184247323Y-127075000D02*
X184247323Y-126075000D01*
X184747323Y-126575000D02*
X183747323Y-126575000D01*
X184387677Y-123700000D02*
G75*
G02*
X174147677Y-123700000I-5120000J0D01*
G01*
X174147677Y-123700000D02*
G75*
G02*
X184387677Y-123700000I5120000J0D01*
G01*
%TO.C,R26*%
X137390000Y-105535436D02*
X137390000Y-106989564D01*
X139210000Y-105535436D02*
X139210000Y-106989564D01*
%TO.C,C4*%
X130780000Y-113280000D02*
X144020000Y-113280000D01*
X130780000Y-119520000D02*
X130780000Y-113280000D01*
X144020000Y-113280000D02*
X144020000Y-119520000D01*
X144020000Y-119520000D02*
X130780000Y-119520000D01*
%TO.C,R5*%
X148990000Y-107027064D02*
X148990000Y-105572936D01*
X150810000Y-107027064D02*
X150810000Y-105572936D01*
%TO.C,C5*%
X162480000Y-127180000D02*
X163866000Y-127180000D01*
X162480000Y-134920000D02*
X162480000Y-127180000D01*
X163866000Y-134920000D02*
X162480000Y-134920000D01*
X166334000Y-127180000D02*
X167720000Y-127180000D01*
X167720000Y-127180000D02*
X167720000Y-134920000D01*
X167720000Y-134920000D02*
X166334000Y-134920000D01*
%TO.C,C6*%
X168280000Y-127180000D02*
X169666000Y-127180000D01*
X168280000Y-134920000D02*
X168280000Y-127180000D01*
X169666000Y-134920000D02*
X168280000Y-134920000D01*
X172134000Y-127180000D02*
X173520000Y-127180000D01*
X173520000Y-127180000D02*
X173520000Y-134920000D01*
X173520000Y-134920000D02*
X172134000Y-134920000D01*
%TO.C,R8*%
X139702500Y-96394564D02*
X139702500Y-95940436D01*
X141172500Y-96394564D02*
X141172500Y-95940436D01*
%TO.C,F1*%
D14*
X120500000Y-110275000D02*
X124100000Y-110275000D01*
X120500000Y-132775000D02*
X120500000Y-110275000D01*
X124100000Y-132775000D02*
X120500000Y-132775000D01*
X126500000Y-110275000D02*
X130100000Y-110275000D01*
X130100000Y-110275000D02*
X130100000Y-132775000D01*
X130100000Y-132775000D02*
X126500000Y-132775000D01*
%TO.C,PS1*%
X162600000Y-98200000D02*
X162600000Y-124600000D01*
X162600000Y-98200000D02*
X163400000Y-98200000D01*
X162600000Y-124600000D02*
X163400000Y-124600000D01*
X167450000Y-98200000D02*
X173600000Y-98200000D01*
X167450000Y-124600000D02*
X173600000Y-124600000D01*
X173600000Y-124600000D02*
X173600000Y-98200000D01*
D12*
X167350000Y-125550000D02*
G75*
G02*
X167150000Y-125550000I-100000J0D01*
G01*
X167150000Y-125550000D02*
G75*
G02*
X167350000Y-125550000I100000J0D01*
G01*
%TO.C,R4*%
D13*
X137390000Y-102364564D02*
X137390000Y-100910436D01*
X139210000Y-102364564D02*
X139210000Y-100910436D01*
%TO.C,C15*%
X175570000Y-133933000D02*
X175570000Y-132867000D01*
X175610000Y-134168000D02*
X175610000Y-132632000D01*
X175650000Y-134347000D02*
X175650000Y-132453000D01*
X175690000Y-134497000D02*
X175690000Y-132303000D01*
X175730000Y-134628000D02*
X175730000Y-132172000D01*
X175770000Y-134746000D02*
X175770000Y-132054000D01*
X175810000Y-134853000D02*
X175810000Y-131947000D01*
X175850000Y-134952000D02*
X175850000Y-131848000D01*
X175890000Y-135044000D02*
X175890000Y-131756000D01*
X175930000Y-135131000D02*
X175930000Y-131669000D01*
X175970000Y-135213000D02*
X175970000Y-131587000D01*
X176010000Y-135290000D02*
X176010000Y-131510000D01*
X176050000Y-135364000D02*
X176050000Y-131436000D01*
X176090000Y-135434000D02*
X176090000Y-131366000D01*
X176130000Y-135501000D02*
X176130000Y-131299000D01*
X176170000Y-135565000D02*
X176170000Y-131235000D01*
X176210000Y-135627000D02*
X176210000Y-131173000D01*
X176250000Y-135687000D02*
X176250000Y-131113000D01*
X176290000Y-135744000D02*
X176290000Y-131056000D01*
X176330000Y-135800000D02*
X176330000Y-131000000D01*
X176370000Y-135853000D02*
X176370000Y-130947000D01*
X176410000Y-135905000D02*
X176410000Y-130895000D01*
X176450000Y-135955000D02*
X176450000Y-130845000D01*
X176490000Y-136004000D02*
X176490000Y-130796000D01*
X176530000Y-136051000D02*
X176530000Y-130749000D01*
X176570000Y-136096000D02*
X176570000Y-130704000D01*
X176610000Y-136141000D02*
X176610000Y-130659000D01*
X176650000Y-136184000D02*
X176650000Y-130616000D01*
X176690000Y-136226000D02*
X176690000Y-130574000D01*
X176730000Y-136267000D02*
X176730000Y-130533000D01*
X176770000Y-136306000D02*
X176770000Y-130494000D01*
X176810000Y-136345000D02*
X176810000Y-130455000D01*
X176850000Y-136382000D02*
X176850000Y-130418000D01*
X176890000Y-132360000D02*
X176890000Y-130381000D01*
X176890000Y-136419000D02*
X176890000Y-134440000D01*
X176930000Y-132360000D02*
X176930000Y-130345000D01*
X176930000Y-136455000D02*
X176930000Y-134440000D01*
X176970000Y-132360000D02*
X176970000Y-130311000D01*
X176970000Y-136489000D02*
X176970000Y-134440000D01*
X177010000Y-132360000D02*
X177010000Y-130277000D01*
X177010000Y-136523000D02*
X177010000Y-134440000D01*
X177050000Y-132360000D02*
X177050000Y-130244000D01*
X177050000Y-136556000D02*
X177050000Y-134440000D01*
X177090000Y-132360000D02*
X177090000Y-130212000D01*
X177090000Y-136588000D02*
X177090000Y-134440000D01*
X177130000Y-132360000D02*
X177130000Y-130181000D01*
X177130000Y-136619000D02*
X177130000Y-134440000D01*
X177170000Y-132360000D02*
X177170000Y-130150000D01*
X177170000Y-136650000D02*
X177170000Y-134440000D01*
X177210000Y-132360000D02*
X177210000Y-130120000D01*
X177210000Y-136680000D02*
X177210000Y-134440000D01*
X177250000Y-132360000D02*
X177250000Y-130091000D01*
X177250000Y-136709000D02*
X177250000Y-134440000D01*
X177290000Y-132360000D02*
X177290000Y-130063000D01*
X177290000Y-136737000D02*
X177290000Y-134440000D01*
X177330000Y-132360000D02*
X177330000Y-130035000D01*
X177330000Y-136765000D02*
X177330000Y-134440000D01*
X177370000Y-132360000D02*
X177370000Y-130008000D01*
X177370000Y-136792000D02*
X177370000Y-134440000D01*
X177410000Y-132360000D02*
X177410000Y-129982000D01*
X177410000Y-136818000D02*
X177410000Y-134440000D01*
X177450000Y-132360000D02*
X177450000Y-129957000D01*
X177450000Y-136843000D02*
X177450000Y-134440000D01*
X177490000Y-132360000D02*
X177490000Y-129932000D01*
X177490000Y-136868000D02*
X177490000Y-134440000D01*
X177530000Y-132360000D02*
X177530000Y-129907000D01*
X177530000Y-136893000D02*
X177530000Y-134440000D01*
X177570000Y-132360000D02*
X177570000Y-129884000D01*
X177570000Y-136916000D02*
X177570000Y-134440000D01*
X177610000Y-132360000D02*
X177610000Y-129861000D01*
X177610000Y-136939000D02*
X177610000Y-134440000D01*
X177650000Y-132360000D02*
X177650000Y-129838000D01*
X177650000Y-136962000D02*
X177650000Y-134440000D01*
X177690000Y-132360000D02*
X177690000Y-129816000D01*
X177690000Y-136984000D02*
X177690000Y-134440000D01*
X177730000Y-132360000D02*
X177730000Y-129795000D01*
X177730000Y-137005000D02*
X177730000Y-134440000D01*
X177770000Y-132360000D02*
X177770000Y-129774000D01*
X177770000Y-137026000D02*
X177770000Y-134440000D01*
X177810000Y-132360000D02*
X177810000Y-129754000D01*
X177810000Y-137046000D02*
X177810000Y-134440000D01*
X177850000Y-132360000D02*
X177850000Y-129734000D01*
X177850000Y-137066000D02*
X177850000Y-134440000D01*
X177890000Y-132360000D02*
X177890000Y-129715000D01*
X177890000Y-137085000D02*
X177890000Y-134440000D01*
X177930000Y-132360000D02*
X177930000Y-129696000D01*
X177930000Y-137104000D02*
X177930000Y-134440000D01*
X177970000Y-132360000D02*
X177970000Y-129678000D01*
X177970000Y-137122000D02*
X177970000Y-134440000D01*
X178010000Y-132360000D02*
X178010000Y-129660000D01*
X178010000Y-137140000D02*
X178010000Y-134440000D01*
X178050000Y-132360000D02*
X178050000Y-129643000D01*
X178050000Y-137157000D02*
X178050000Y-134440000D01*
X178090000Y-132360000D02*
X178090000Y-129627000D01*
X178090000Y-137173000D02*
X178090000Y-134440000D01*
X178130000Y-132360000D02*
X178130000Y-129611000D01*
X178130000Y-137189000D02*
X178130000Y-134440000D01*
X178170000Y-132360000D02*
X178170000Y-129595000D01*
X178170000Y-137205000D02*
X178170000Y-134440000D01*
X178210000Y-132360000D02*
X178210000Y-129580000D01*
X178210000Y-137220000D02*
X178210000Y-134440000D01*
X178250000Y-132360000D02*
X178250000Y-129565000D01*
X178250000Y-137235000D02*
X178250000Y-134440000D01*
X178290000Y-132360000D02*
X178290000Y-129551000D01*
X178290000Y-137249000D02*
X178290000Y-134440000D01*
X178330000Y-132360000D02*
X178330000Y-129537000D01*
X178330000Y-137263000D02*
X178330000Y-134440000D01*
X178370000Y-132360000D02*
X178370000Y-129524000D01*
X178370000Y-137276000D02*
X178370000Y-134440000D01*
X178410000Y-132360000D02*
X178410000Y-129511000D01*
X178410000Y-137289000D02*
X178410000Y-134440000D01*
X178450000Y-132360000D02*
X178450000Y-129499000D01*
X178450000Y-137301000D02*
X178450000Y-134440000D01*
X178490000Y-132360000D02*
X178490000Y-129487000D01*
X178490000Y-137313000D02*
X178490000Y-134440000D01*
X178530000Y-132360000D02*
X178530000Y-129475000D01*
X178530000Y-137325000D02*
X178530000Y-134440000D01*
X178570000Y-132360000D02*
X178570000Y-129464000D01*
X178570000Y-137336000D02*
X178570000Y-134440000D01*
X178610000Y-132360000D02*
X178610000Y-129453000D01*
X178610000Y-137347000D02*
X178610000Y-134440000D01*
X178650000Y-132360000D02*
X178650000Y-129443000D01*
X178650000Y-137357000D02*
X178650000Y-134440000D01*
X178690000Y-132360000D02*
X178690000Y-129433000D01*
X178690000Y-137367000D02*
X178690000Y-134440000D01*
X178730000Y-132360000D02*
X178730000Y-129424000D01*
X178730000Y-137376000D02*
X178730000Y-134440000D01*
X178770000Y-132360000D02*
X178770000Y-129415000D01*
X178770000Y-137385000D02*
X178770000Y-134440000D01*
X178810000Y-132360000D02*
X178810000Y-129407000D01*
X178810000Y-137393000D02*
X178810000Y-134440000D01*
X178850000Y-132360000D02*
X178850000Y-129398000D01*
X178850000Y-137402000D02*
X178850000Y-134440000D01*
X178890000Y-132360000D02*
X178890000Y-129391000D01*
X178890000Y-137409000D02*
X178890000Y-134440000D01*
X178930000Y-132360000D02*
X178930000Y-129383000D01*
X178930000Y-137417000D02*
X178930000Y-134440000D01*
X178970000Y-137423000D02*
X178970000Y-129377000D01*
X179010000Y-137430000D02*
X179010000Y-129370000D01*
X179050000Y-137436000D02*
X179050000Y-129364000D01*
X179090000Y-137442000D02*
X179090000Y-129358000D01*
X179130000Y-137447000D02*
X179130000Y-129353000D01*
X179170000Y-137452000D02*
X179170000Y-129348000D01*
X179210000Y-137456000D02*
X179210000Y-129344000D01*
X179250000Y-137461000D02*
X179250000Y-129339000D01*
X179290000Y-137464000D02*
X179290000Y-129336000D01*
X179330000Y-137468000D02*
X179330000Y-129332000D01*
X179370000Y-137470000D02*
X179370000Y-129330000D01*
X179410000Y-137473000D02*
X179410000Y-129327000D01*
X179450000Y-137475000D02*
X179450000Y-129325000D01*
X179490000Y-137477000D02*
X179490000Y-129323000D01*
X179530000Y-137478000D02*
X179530000Y-129322000D01*
X179570000Y-137479000D02*
X179570000Y-129321000D01*
X179610000Y-137480000D02*
X179610000Y-129320000D01*
X179650000Y-137480000D02*
X179650000Y-129320000D01*
X183659698Y-136115000D02*
X183659698Y-135315000D01*
X184059698Y-135715000D02*
X183259698Y-135715000D01*
X183770000Y-133400000D02*
G75*
G02*
X175530000Y-133400000I-4120000J0D01*
G01*
X175530000Y-133400000D02*
G75*
G02*
X183770000Y-133400000I4120000J0D01*
G01*
%TO.C,R1*%
X134314564Y-101890000D02*
X129960436Y-101890000D01*
X134314564Y-105310000D02*
X129960436Y-105310000D01*
%TO.C,R14*%
X131072936Y-94065000D02*
X131527064Y-94065000D01*
X131072936Y-95535000D02*
X131527064Y-95535000D01*
%TO.C,T2*%
X161190000Y-139150000D02*
X165810000Y-139150000D01*
X161190000Y-142410000D02*
X162570000Y-142410000D01*
X161190000Y-146110000D02*
X162570000Y-146110000D01*
X161190000Y-149370000D02*
X161190000Y-139150000D01*
X162570000Y-149370000D02*
X162570000Y-139150000D01*
X165810000Y-139150000D02*
X165810000Y-149370000D01*
X165810000Y-149370000D02*
X161190000Y-149370000D01*
%TO.C,R27*%
X159272936Y-111490000D02*
X160727064Y-111490000D01*
X159272936Y-113310000D02*
X160727064Y-113310000D01*
%TO.C,R3*%
X156060436Y-101990000D02*
X160414564Y-101990000D01*
X156060436Y-105410000D02*
X160414564Y-105410000D01*
%TO.C,R6*%
X149590000Y-102289564D02*
X149590000Y-100835436D01*
X151410000Y-102289564D02*
X151410000Y-100835436D01*
%TO.C,MOV1*%
D15*
X144900000Y-127250000D02*
G75*
G02*
X130900000Y-127250000I-7000000J0D01*
G01*
X130900000Y-127250000D02*
G75*
G02*
X144900000Y-127250000I7000000J0D01*
G01*
%TO.C,D1*%
D14*
X177890000Y-85797500D02*
X178320000Y-85797500D01*
X177890000Y-90202500D02*
X177890000Y-85797500D01*
X178320000Y-90202500D02*
X177890000Y-90202500D01*
X181080000Y-85797500D02*
X181510000Y-85797500D01*
X181510000Y-85797500D02*
X181510000Y-90202500D01*
X181510000Y-90202500D02*
X181080000Y-90202500D01*
D12*
X179800000Y-91800000D02*
G75*
G02*
X179600000Y-91800000I-100000J0D01*
G01*
X179600000Y-91800000D02*
G75*
G02*
X179800000Y-91800000I100000J0D01*
G01*
%TO.C,R13*%
D13*
X160735436Y-94065000D02*
X161189564Y-94065000D01*
X160735436Y-95535000D02*
X161189564Y-95535000D01*
%TO.C,T1*%
X147490000Y-139230000D02*
X152110000Y-139230000D01*
X147490000Y-142490000D02*
X148870000Y-142490000D01*
X147490000Y-146190000D02*
X148870000Y-146190000D01*
X147490000Y-149450000D02*
X147490000Y-139230000D01*
X148870000Y-149450000D02*
X148870000Y-139230000D01*
X152110000Y-139230000D02*
X152110000Y-149450000D01*
X152110000Y-149450000D02*
X147490000Y-149450000D01*
%TO.C,T3*%
X172540000Y-139150000D02*
X177160000Y-139150000D01*
X172540000Y-142410000D02*
X173920000Y-142410000D01*
X172540000Y-146110000D02*
X173920000Y-146110000D01*
X172540000Y-149370000D02*
X172540000Y-139150000D01*
X173920000Y-149370000D02*
X173920000Y-139150000D01*
X177160000Y-139150000D02*
X177160000Y-149370000D01*
X177160000Y-149370000D02*
X172540000Y-149370000D01*
%TO.C,R28*%
X160627064Y-108990000D02*
X159172936Y-108990000D01*
X160627064Y-110810000D02*
X159172936Y-110810000D01*
%TO.C,C12*%
X174980000Y-101180000D02*
X182720000Y-101180000D01*
X174980000Y-102566000D02*
X174980000Y-101180000D01*
X174980000Y-106420000D02*
X174980000Y-105034000D01*
X182720000Y-101180000D02*
X182720000Y-102566000D01*
X182720000Y-105034000D02*
X182720000Y-106420000D01*
X182720000Y-106420000D02*
X174980000Y-106420000D01*
%TO.C,C7*%
X174120000Y-112660000D02*
X184280000Y-112660000D01*
X174120000Y-112700000D02*
X184280000Y-112700000D01*
X174121000Y-112580000D02*
X184279000Y-112580000D01*
X174121000Y-112620000D02*
X184279000Y-112620000D01*
X174123000Y-112540000D02*
X184277000Y-112540000D01*
X174124000Y-112500000D02*
X184276000Y-112500000D01*
X174126000Y-112460000D02*
X184274000Y-112460000D01*
X174128000Y-112420000D02*
X184272000Y-112420000D01*
X174130000Y-112380000D02*
X184270000Y-112380000D01*
X174133000Y-112340000D02*
X184267000Y-112340000D01*
X174136000Y-112300000D02*
X184264000Y-112300000D01*
X174139000Y-112260000D02*
X184261000Y-112260000D01*
X174143000Y-112220000D02*
X184257000Y-112220000D01*
X174146000Y-112180000D02*
X184254000Y-112180000D01*
X174151000Y-112140000D02*
X184249000Y-112140000D01*
X174155000Y-112100000D02*
X184245000Y-112100000D01*
X174160000Y-112060000D02*
X184240000Y-112060000D01*
X174165000Y-112020000D02*
X184235000Y-112020000D01*
X174171000Y-111980000D02*
X184229000Y-111980000D01*
X174177000Y-111940000D02*
X184223000Y-111940000D01*
X174183000Y-111900000D02*
X184217000Y-111900000D01*
X174189000Y-111860000D02*
X184211000Y-111860000D01*
X174196000Y-111820000D02*
X184204000Y-111820000D01*
X174203000Y-111780000D02*
X184197000Y-111780000D01*
X174211000Y-111740000D02*
X184189000Y-111740000D01*
X174219000Y-111700000D02*
X184181000Y-111700000D01*
X174227000Y-111660000D02*
X184173000Y-111660000D01*
X174235000Y-111620000D02*
X184165000Y-111620000D01*
X174244000Y-111580000D02*
X184156000Y-111580000D01*
X174253000Y-111540000D02*
X184147000Y-111540000D01*
X174263000Y-111500000D02*
X184137000Y-111500000D01*
X174272000Y-111460000D02*
X184128000Y-111460000D01*
X174283000Y-111420000D02*
X177960000Y-111420000D01*
X174293000Y-111380000D02*
X177960000Y-111380000D01*
X174304000Y-111340000D02*
X177960000Y-111340000D01*
X174315000Y-111300000D02*
X177960000Y-111300000D01*
X174327000Y-111260000D02*
X177960000Y-111260000D01*
X174339000Y-111220000D02*
X177960000Y-111220000D01*
X174351000Y-111180000D02*
X177960000Y-111180000D01*
X174363000Y-111140000D02*
X177960000Y-111140000D01*
X174376000Y-111100000D02*
X177960000Y-111100000D01*
X174390000Y-111060000D02*
X177960000Y-111060000D01*
X174403000Y-111020000D02*
X177960000Y-111020000D01*
X174418000Y-110980000D02*
X177960000Y-110980000D01*
X174432000Y-110940000D02*
X177960000Y-110940000D01*
X174447000Y-110900000D02*
X177960000Y-110900000D01*
X174462000Y-110860000D02*
X177960000Y-110860000D01*
X174478000Y-110820000D02*
X177960000Y-110820000D01*
X174494000Y-110780000D02*
X177960000Y-110780000D01*
X174510000Y-110740000D02*
X177960000Y-110740000D01*
X174527000Y-110700000D02*
X177960000Y-110700000D01*
X174544000Y-110660000D02*
X177960000Y-110660000D01*
X174562000Y-110620000D02*
X177960000Y-110620000D01*
X174580000Y-110580000D02*
X177960000Y-110580000D01*
X174598000Y-110540000D02*
X177960000Y-110540000D01*
X174617000Y-110500000D02*
X177960000Y-110500000D01*
X174636000Y-110460000D02*
X177960000Y-110460000D01*
X174656000Y-110420000D02*
X177960000Y-110420000D01*
X174676000Y-110380000D02*
X177960000Y-110380000D01*
X174696000Y-110340000D02*
X177960000Y-110340000D01*
X174717000Y-110300000D02*
X177960000Y-110300000D01*
X174739000Y-110260000D02*
X177960000Y-110260000D01*
X174761000Y-110220000D02*
X177960000Y-110220000D01*
X174783000Y-110180000D02*
X177960000Y-110180000D01*
X174806000Y-110140000D02*
X177960000Y-110140000D01*
X174829000Y-110100000D02*
X177960000Y-110100000D01*
X174853000Y-110060000D02*
X177960000Y-110060000D01*
X174877000Y-110020000D02*
X177960000Y-110020000D01*
X174902000Y-109980000D02*
X177960000Y-109980000D01*
X174928000Y-109940000D02*
X177960000Y-109940000D01*
X174953000Y-109900000D02*
X177960000Y-109900000D01*
X174980000Y-109860000D02*
X177960000Y-109860000D01*
X175007000Y-109820000D02*
X177960000Y-109820000D01*
X175034000Y-109780000D02*
X177960000Y-109780000D01*
X175062000Y-109740000D02*
X177960000Y-109740000D01*
X175091000Y-109700000D02*
X177960000Y-109700000D01*
X175120000Y-109660000D02*
X177960000Y-109660000D01*
X175150000Y-109620000D02*
X177960000Y-109620000D01*
X175180000Y-109580000D02*
X177960000Y-109580000D01*
X175212000Y-109540000D02*
X177960000Y-109540000D01*
X175243000Y-109500000D02*
X177960000Y-109500000D01*
X175276000Y-109460000D02*
X177960000Y-109460000D01*
X175309000Y-109420000D02*
X177960000Y-109420000D01*
X175342000Y-109380000D02*
X177960000Y-109380000D01*
X175377000Y-109340000D02*
X177960000Y-109340000D01*
X175412000Y-109300000D02*
X177960000Y-109300000D01*
X175448000Y-109260000D02*
X177960000Y-109260000D01*
X175484000Y-109220000D02*
X177960000Y-109220000D01*
X175522000Y-109180000D02*
X177960000Y-109180000D01*
X175560000Y-109140000D02*
X177960000Y-109140000D01*
X175599000Y-109100000D02*
X177960000Y-109100000D01*
X175639000Y-109060000D02*
X177960000Y-109060000D01*
X175680000Y-109020000D02*
X177960000Y-109020000D01*
X175722000Y-108980000D02*
X177960000Y-108980000D01*
X175765000Y-108940000D02*
X182635000Y-108940000D01*
X175809000Y-108900000D02*
X182591000Y-108900000D01*
X175825000Y-117679646D02*
X176825000Y-117679646D01*
X175853000Y-108860000D02*
X182547000Y-108860000D01*
X175899000Y-108820000D02*
X182501000Y-108820000D01*
X175946000Y-108780000D02*
X182454000Y-108780000D01*
X175995000Y-108740000D02*
X182405000Y-108740000D01*
X176044000Y-108700000D02*
X182356000Y-108700000D01*
X176095000Y-108660000D02*
X182305000Y-108660000D01*
X176147000Y-108620000D02*
X182253000Y-108620000D01*
X176200000Y-108580000D02*
X182200000Y-108580000D01*
X176255000Y-108540000D02*
X182145000Y-108540000D01*
X176312000Y-108500000D02*
X182088000Y-108500000D01*
X176325000Y-118179646D02*
X176325000Y-117179646D01*
X176370000Y-108460000D02*
X182030000Y-108460000D01*
X176430000Y-108420000D02*
X181970000Y-108420000D01*
X176492000Y-108380000D02*
X181908000Y-108380000D01*
X176556000Y-108340000D02*
X181844000Y-108340000D01*
X176622000Y-108300000D02*
X181778000Y-108300000D01*
X176690000Y-108260000D02*
X181710000Y-108260000D01*
X176761000Y-108220000D02*
X181639000Y-108220000D01*
X176835000Y-108180000D02*
X181565000Y-108180000D01*
X176912000Y-108140000D02*
X181488000Y-108140000D01*
X176992000Y-108100000D02*
X181408000Y-108100000D01*
X177076000Y-108060000D02*
X181324000Y-108060000D01*
X177163000Y-108020000D02*
X181237000Y-108020000D01*
X177256000Y-107980000D02*
X181144000Y-107980000D01*
X177354000Y-107940000D02*
X181046000Y-107940000D01*
X177458000Y-107900000D02*
X180942000Y-107900000D01*
X177570000Y-107860000D02*
X180830000Y-107860000D01*
X177691000Y-107820000D02*
X180709000Y-107820000D01*
X177823000Y-107780000D02*
X180577000Y-107780000D01*
X177970000Y-107740000D02*
X180430000Y-107740000D01*
X178138000Y-107700000D02*
X180262000Y-107700000D01*
X178338000Y-107660000D02*
X180062000Y-107660000D01*
X178601000Y-107620000D02*
X179799000Y-107620000D01*
X180440000Y-108980000D02*
X182678000Y-108980000D01*
X180440000Y-109020000D02*
X182720000Y-109020000D01*
X180440000Y-109060000D02*
X182761000Y-109060000D01*
X180440000Y-109100000D02*
X182801000Y-109100000D01*
X180440000Y-109140000D02*
X182840000Y-109140000D01*
X180440000Y-109180000D02*
X182878000Y-109180000D01*
X180440000Y-109220000D02*
X182916000Y-109220000D01*
X180440000Y-109260000D02*
X182952000Y-109260000D01*
X180440000Y-109300000D02*
X182988000Y-109300000D01*
X180440000Y-109340000D02*
X183023000Y-109340000D01*
X180440000Y-109380000D02*
X183058000Y-109380000D01*
X180440000Y-109420000D02*
X183091000Y-109420000D01*
X180440000Y-109460000D02*
X183124000Y-109460000D01*
X180440000Y-109500000D02*
X183157000Y-109500000D01*
X180440000Y-109540000D02*
X183188000Y-109540000D01*
X180440000Y-109580000D02*
X183220000Y-109580000D01*
X180440000Y-109620000D02*
X183250000Y-109620000D01*
X180440000Y-109660000D02*
X183280000Y-109660000D01*
X180440000Y-109700000D02*
X183309000Y-109700000D01*
X180440000Y-109740000D02*
X183338000Y-109740000D01*
X180440000Y-109780000D02*
X183366000Y-109780000D01*
X180440000Y-109820000D02*
X183393000Y-109820000D01*
X180440000Y-109860000D02*
X183420000Y-109860000D01*
X180440000Y-109900000D02*
X183447000Y-109900000D01*
X180440000Y-109940000D02*
X183472000Y-109940000D01*
X180440000Y-109980000D02*
X183498000Y-109980000D01*
X180440000Y-110020000D02*
X183523000Y-110020000D01*
X180440000Y-110060000D02*
X183547000Y-110060000D01*
X180440000Y-110100000D02*
X183571000Y-110100000D01*
X180440000Y-110140000D02*
X183594000Y-110140000D01*
X180440000Y-110180000D02*
X183617000Y-110180000D01*
X180440000Y-110220000D02*
X183639000Y-110220000D01*
X180440000Y-110260000D02*
X183661000Y-110260000D01*
X180440000Y-110300000D02*
X183683000Y-110300000D01*
X180440000Y-110340000D02*
X183704000Y-110340000D01*
X180440000Y-110380000D02*
X183724000Y-110380000D01*
X180440000Y-110420000D02*
X183744000Y-110420000D01*
X180440000Y-110460000D02*
X183764000Y-110460000D01*
X180440000Y-110500000D02*
X183783000Y-110500000D01*
X180440000Y-110540000D02*
X183802000Y-110540000D01*
X180440000Y-110580000D02*
X183820000Y-110580000D01*
X180440000Y-110620000D02*
X183838000Y-110620000D01*
X180440000Y-110660000D02*
X183856000Y-110660000D01*
X180440000Y-110700000D02*
X183873000Y-110700000D01*
X180440000Y-110740000D02*
X183890000Y-110740000D01*
X180440000Y-110780000D02*
X183906000Y-110780000D01*
X180440000Y-110820000D02*
X183922000Y-110820000D01*
X180440000Y-110860000D02*
X183938000Y-110860000D01*
X180440000Y-110900000D02*
X183953000Y-110900000D01*
X180440000Y-110940000D02*
X183968000Y-110940000D01*
X180440000Y-110980000D02*
X183982000Y-110980000D01*
X180440000Y-111020000D02*
X183997000Y-111020000D01*
X180440000Y-111060000D02*
X184010000Y-111060000D01*
X180440000Y-111100000D02*
X184024000Y-111100000D01*
X180440000Y-111140000D02*
X184037000Y-111140000D01*
X180440000Y-111180000D02*
X184049000Y-111180000D01*
X180440000Y-111220000D02*
X184061000Y-111220000D01*
X180440000Y-111260000D02*
X184073000Y-111260000D01*
X180440000Y-111300000D02*
X184085000Y-111300000D01*
X180440000Y-111340000D02*
X184096000Y-111340000D01*
X180440000Y-111380000D02*
X184107000Y-111380000D01*
X180440000Y-111420000D02*
X184117000Y-111420000D01*
X184320000Y-112700000D02*
G75*
G02*
X174080000Y-112700000I-5120000J0D01*
G01*
X174080000Y-112700000D02*
G75*
G02*
X184320000Y-112700000I5120000J0D01*
G01*
%TO.C,LF1*%
D15*
X146350000Y-118800000D02*
X160850000Y-118800000D01*
X160850000Y-136800000D01*
X146350000Y-136800000D01*
X146350000Y-118800000D01*
%TO.C,R9*%
D13*
X154027500Y-95772936D02*
X154027500Y-96227064D01*
X155497500Y-95772936D02*
X155497500Y-96227064D01*
%TO.C,R7*%
X133465000Y-96327064D02*
X133465000Y-95872936D01*
X134935000Y-96327064D02*
X134935000Y-95872936D01*
%TD*%
M02*
