%TF.GenerationSoftware,KiCad,Pcbnew,10.0.1*%
%TF.CreationDate,2026-06-30T13:23:00-05:00*%
%TF.ProjectId,PelletPirate_ESP,50656c6c-6574-4506-9972-6174655f4553,rev?*%
%TF.SameCoordinates,Original*%
%TF.FileFunction,Copper,L1,Top*%
%TF.FilePolarity,Positive*%
%FSLAX46Y46*%
G04 Gerber Fmt 4.6, Leading zero omitted, Abs format (unit mm)*
G04 Created by KiCad (PCBNEW 10.0.1) date 2026-06-30 13:23:00*
%MOMM*%
%LPD*%
G01*
G04 APERTURE LIST*
G04 Aperture macros list*
%AMRoundRect*
0 Rectangle with rounded corners*
0 $1 Rounding radius*
0 $2 $3 $4 $5 $6 $7 $8 $9 X,Y pos of 4 corners*
0 Add a 4 corners polygon primitive as box body*
4,1,4,$2,$3,$4,$5,$6,$7,$8,$9,$2,$3,0*
0 Add four circle primitives for the rounded corners*
1,1,$1+$1,$2,$3*
1,1,$1+$1,$4,$5*
1,1,$1+$1,$6,$7*
1,1,$1+$1,$8,$9*
0 Add four rect primitives between the rounded corners*
20,1,$1+$1,$2,$3,$4,$5,0*
20,1,$1+$1,$4,$5,$6,$7,0*
20,1,$1+$1,$6,$7,$8,$9,0*
20,1,$1+$1,$8,$9,$2,$3,0*%
G04 Aperture macros list end*
%TA.AperFunction,SMDPad,CuDef*%
%ADD10RoundRect,0.218750X-0.218750X-0.256250X0.218750X-0.256250X0.218750X0.256250X-0.218750X0.256250X0*%
%TD*%
%TA.AperFunction,SMDPad,CuDef*%
%ADD11RoundRect,0.135000X0.185000X-0.135000X0.185000X0.135000X-0.185000X0.135000X-0.185000X-0.135000X0*%
%TD*%
%TA.AperFunction,SMDPad,CuDef*%
%ADD12RoundRect,0.250000X0.650000X-0.325000X0.650000X0.325000X-0.650000X0.325000X-0.650000X-0.325000X0*%
%TD*%
%TA.AperFunction,SMDPad,CuDef*%
%ADD13RoundRect,0.073750X-0.531250X-0.221250X0.531250X-0.221250X0.531250X0.221250X-0.531250X0.221250X0*%
%TD*%
%TA.AperFunction,SMDPad,CuDef*%
%ADD14RoundRect,0.250000X0.475000X-0.250000X0.475000X0.250000X-0.475000X0.250000X-0.475000X-0.250000X0*%
%TD*%
%TA.AperFunction,SMDPad,CuDef*%
%ADD15RoundRect,0.135000X0.135000X0.185000X-0.135000X0.185000X-0.135000X-0.185000X0.135000X-0.185000X0*%
%TD*%
%TA.AperFunction,SMDPad,CuDef*%
%ADD16RoundRect,0.135000X-0.185000X0.135000X-0.185000X-0.135000X0.185000X-0.135000X0.185000X0.135000X0*%
%TD*%
%TA.AperFunction,SMDPad,CuDef*%
%ADD17RoundRect,0.250000X-0.250000X-0.475000X0.250000X-0.475000X0.250000X0.475000X-0.250000X0.475000X0*%
%TD*%
%TA.AperFunction,SMDPad,CuDef*%
%ADD18RoundRect,0.140000X0.170000X-0.140000X0.170000X0.140000X-0.170000X0.140000X-0.170000X-0.140000X0*%
%TD*%
%TA.AperFunction,SMDPad,CuDef*%
%ADD19R,0.600000X1.150000*%
%TD*%
%TA.AperFunction,SMDPad,CuDef*%
%ADD20R,0.300000X1.150000*%
%TD*%
%TA.AperFunction,ComponentPad*%
%ADD21O,1.000000X2.100000*%
%TD*%
%TA.AperFunction,ComponentPad*%
%ADD22O,1.000000X1.800000*%
%TD*%
%TA.AperFunction,ComponentPad*%
%ADD23C,1.600000*%
%TD*%
%TA.AperFunction,SMDPad,CuDef*%
%ADD24RoundRect,0.140000X-0.140000X-0.170000X0.140000X-0.170000X0.140000X0.170000X-0.140000X0.170000X0*%
%TD*%
%TA.AperFunction,SMDPad,CuDef*%
%ADD25RoundRect,0.250000X0.250000X0.475000X-0.250000X0.475000X-0.250000X-0.475000X0.250000X-0.475000X0*%
%TD*%
%TA.AperFunction,SMDPad,CuDef*%
%ADD26R,1.500000X0.900000*%
%TD*%
%TA.AperFunction,SMDPad,CuDef*%
%ADD27R,0.900000X1.500000*%
%TD*%
%TA.AperFunction,HeatsinkPad*%
%ADD28C,0.600000*%
%TD*%
%TA.AperFunction,HeatsinkPad*%
%ADD29R,3.900000X3.900000*%
%TD*%
%TA.AperFunction,ComponentPad*%
%ADD30R,1.700000X1.700000*%
%TD*%
%TA.AperFunction,ComponentPad*%
%ADD31C,1.700000*%
%TD*%
%TA.AperFunction,ViaPad*%
%ADD32C,0.600000*%
%TD*%
%TA.AperFunction,ViaPad*%
%ADD33C,0.800000*%
%TD*%
%TA.AperFunction,Conductor*%
%ADD34C,0.500000*%
%TD*%
%TA.AperFunction,Conductor*%
%ADD35C,0.300000*%
%TD*%
%TA.AperFunction,Conductor*%
%ADD36C,0.400000*%
%TD*%
%TA.AperFunction,Conductor*%
%ADD37C,0.200000*%
%TD*%
G04 APERTURE END LIST*
D10*
%TO.P,LED1,1*%
%TO.N,GND*%
X100325000Y-71300000D03*
%TO.P,LED1,2*%
%TO.N,Net-(LED1-Pad2)*%
X101900000Y-71300000D03*
%TD*%
D11*
%TO.P,R37,1*%
%TO.N,Net-(J8-CC1)*%
X106610000Y-125920000D03*
%TO.P,R37,2*%
%TO.N,GND*%
X106610000Y-124900000D03*
%TD*%
D12*
%TO.P,C38,1*%
%TO.N,+3.3V*%
X108125000Y-71805000D03*
%TO.P,C38,2*%
%TO.N,GND*%
X108125000Y-68855000D03*
%TD*%
D13*
%TO.P,U1,1*%
%TO.N,/USB-C_D+*%
X108890000Y-122905000D03*
%TO.P,U1,2*%
%TO.N,GND*%
X108890000Y-123855000D03*
%TO.P,U1,3*%
%TO.N,/USB-C_D-*%
X108890000Y-124805000D03*
%TO.P,U1,4*%
%TO.N,/USB_D-*%
X111400000Y-124805000D03*
%TO.P,U1,5*%
%TO.N,VBUS*%
X111400000Y-123855000D03*
%TO.P,U1,6*%
%TO.N,/USB_D+*%
X111400000Y-122905000D03*
%TD*%
D14*
%TO.P,C37,1*%
%TO.N,+3.3V*%
X105200000Y-71850000D03*
%TO.P,C37,2*%
%TO.N,GND*%
X105200000Y-69950000D03*
%TD*%
D15*
%TO.P,R31,1*%
%TO.N,/IO0*%
X118220000Y-125500000D03*
%TO.P,R31,2*%
%TO.N,+3.3V*%
X117200000Y-125500000D03*
%TD*%
D11*
%TO.P,R39,1*%
%TO.N,+3.3V*%
X103200000Y-72000000D03*
%TO.P,R39,2*%
%TO.N,Net-(LED1-Pad2)*%
X103200000Y-70980000D03*
%TD*%
D16*
%TO.P,R38,1*%
%TO.N,Net-(J8-CC2)*%
X114800000Y-124980000D03*
%TO.P,R38,2*%
%TO.N,GND*%
X114800000Y-126000000D03*
%TD*%
D17*
%TO.P,C40,1*%
%TO.N,VBUS*%
X113700000Y-122300000D03*
%TO.P,C40,2*%
%TO.N,GND*%
X115600000Y-122300000D03*
%TD*%
D18*
%TO.P,C17,1*%
%TO.N,+3.3V*%
X99900000Y-75780000D03*
%TO.P,C17,2*%
%TO.N,GND*%
X99900000Y-74820000D03*
%TD*%
D19*
%TO.P,J8,A1_B12,GND_A1_B12*%
%TO.N,GND*%
X107080000Y-127895000D03*
%TO.P,J8,A4_B9,VBUS_A4_B9*%
%TO.N,VBUS*%
X107880000Y-127895000D03*
D20*
%TO.P,J8,A5,CC1_A5*%
%TO.N,Net-(J8-CC1)*%
X109030000Y-127895000D03*
%TO.P,J8,A6,DP1_A6*%
%TO.N,/USB-C_D+*%
X110030000Y-127895000D03*
%TO.P,J8,A7,DN1_A7*%
%TO.N,/USB-C_D-*%
X110530000Y-127895000D03*
%TO.P,J8,A8,SBU1_A8*%
%TO.N,unconnected-(J8-SBU1-PadA8)*%
X111530000Y-127895000D03*
D19*
%TO.P,J8,B1_A12,GND_B1_A12*%
%TO.N,GND*%
X113480000Y-127895000D03*
%TO.P,J8,B4_A9,VBUS_B4_A9*%
%TO.N,VBUS*%
X112680000Y-127895000D03*
D20*
%TO.P,J8,B5,CC2_B5*%
%TO.N,Net-(J8-CC2)*%
X112030000Y-127895000D03*
%TO.P,J8,B6,DP2_B6*%
%TO.N,/USB-C_D+*%
X111030000Y-127895000D03*
%TO.P,J8,B7,DN2_B7*%
%TO.N,/USB-C_D-*%
X109530000Y-127895000D03*
%TO.P,J8,B8,SBU2_B8*%
%TO.N,unconnected-(J8-SBU2-PadB8)*%
X108530000Y-127895000D03*
D21*
%TO.P,J8,SH1,GND_SH1*%
%TO.N,GND*%
X105960000Y-128470000D03*
%TO.P,J8,SH2,GND_SH2*%
X114600000Y-128470000D03*
D22*
%TO.P,J8,SH3,GND_SH3*%
X105960000Y-132650000D03*
%TO.P,J8,SH4,GND_SH4*%
X114600000Y-132650000D03*
%TD*%
D11*
%TO.P,R30,1*%
%TO.N,/EN_in*%
X99900000Y-77720000D03*
%TO.P,R30,2*%
%TO.N,+3.3V*%
X99900000Y-76700000D03*
%TD*%
D23*
%TO.P,S1,1,1_1*%
%TO.N,/EN_in*%
X96890000Y-129330000D03*
%TO.P,S1,2,2_2*%
X103390000Y-129330000D03*
%TO.P,S1,3,3_3*%
%TO.N,GND*%
X96890000Y-133830000D03*
%TO.P,S1,4,4_4*%
X103390000Y-133830000D03*
%TD*%
D24*
%TO.P,C18,1*%
%TO.N,/IO0*%
X120940000Y-125500000D03*
%TO.P,C18,2*%
%TO.N,GND*%
X121900000Y-125500000D03*
%TD*%
D16*
%TO.P,R35,1*%
%TO.N,/IO46*%
X104500000Y-93900000D03*
%TO.P,R35,2*%
%TO.N,GND*%
X104500000Y-94920000D03*
%TD*%
D25*
%TO.P,C39,1*%
%TO.N,GND*%
X100230000Y-125500000D03*
%TO.P,C39,2*%
%TO.N,/EN_in*%
X98330000Y-125500000D03*
%TD*%
D23*
%TO.P,S2,1,1_1*%
%TO.N,/IO0*%
X117140000Y-129300000D03*
%TO.P,S2,2,2_2*%
X123640000Y-129300000D03*
%TO.P,S2,3,3_3*%
%TO.N,GND*%
X117140000Y-133800000D03*
%TO.P,S2,4,4_4*%
X123640000Y-133800000D03*
%TD*%
D26*
%TO.P,ESP1,1,GND_1*%
%TO.N,GND*%
X101490000Y-74340000D03*
%TO.P,ESP1,2,3V3_2*%
%TO.N,+3.3V*%
X101490000Y-75610000D03*
%TO.P,ESP1,3,EN_3*%
%TO.N,/EN_in*%
X101490000Y-76880000D03*
%TO.P,ESP1,4,IO4_4*%
%TO.N,/IO4*%
X101490000Y-78150000D03*
%TO.P,ESP1,5,IO5_5*%
%TO.N,/IO5*%
X101490000Y-79420000D03*
%TO.P,ESP1,6,IO6_6*%
%TO.N,/IO6*%
X101490000Y-80690000D03*
%TO.P,ESP1,7,IO7_7*%
%TO.N,/IO7*%
X101490000Y-81960000D03*
%TO.P,ESP1,8,IO15_8*%
%TO.N,/IO15*%
X101490000Y-83230000D03*
%TO.P,ESP1,9,IO16_9*%
%TO.N,/IO16*%
X101490000Y-84500000D03*
%TO.P,ESP1,10,IO17_10*%
%TO.N,/IO17*%
X101490000Y-85770000D03*
%TO.P,ESP1,11,IO18_11*%
%TO.N,/IO18*%
X101490000Y-87040000D03*
%TO.P,ESP1,12,IO8_12*%
%TO.N,/IO8*%
X101490000Y-88310000D03*
%TO.P,ESP1,13,IO19_13*%
%TO.N,/USB_D-*%
X101490000Y-89580000D03*
%TO.P,ESP1,14,IO20_14*%
%TO.N,/USB_D+*%
X101490000Y-90850000D03*
D27*
%TO.P,ESP1,15,IO3_15*%
%TO.N,/IO3*%
X103255000Y-92100000D03*
%TO.P,ESP1,16,IO46_16*%
%TO.N,/IO46*%
X104525000Y-92100000D03*
%TO.P,ESP1,17,IO9_17*%
%TO.N,/IO9*%
X105795000Y-92100000D03*
%TO.P,ESP1,18,IO10_18*%
%TO.N,/IO10*%
X107065000Y-92100000D03*
%TO.P,ESP1,19,IO11_19*%
%TO.N,/IO11*%
X108335000Y-92100000D03*
%TO.P,ESP1,20,IO12_20*%
%TO.N,/IO12*%
X109605000Y-92100000D03*
%TO.P,ESP1,21,IO13_21*%
%TO.N,/IO13*%
X110875000Y-92100000D03*
%TO.P,ESP1,22,IO14_22*%
%TO.N,/IO14*%
X112145000Y-92100000D03*
%TO.P,ESP1,23,IO21_23*%
%TO.N,/IO21*%
X113415000Y-92100000D03*
%TO.P,ESP1,24,IO47_24*%
%TO.N,/IO47*%
X114685000Y-92100000D03*
%TO.P,ESP1,25,IO48_25*%
%TO.N,/IO48*%
X115955000Y-92100000D03*
%TO.P,ESP1,26,IO45_26*%
%TO.N,/IO45*%
X117225000Y-92100000D03*
D26*
%TO.P,ESP1,27,IO0_27*%
%TO.N,/IO0*%
X118990000Y-90850000D03*
%TO.P,ESP1,28,IO35_28*%
%TO.N,unconnected-(ESP1-IO35-Pad28)*%
X118990000Y-89580000D03*
%TO.P,ESP1,29,IO36_29*%
%TO.N,unconnected-(ESP1-IO36-Pad29)*%
X118990000Y-88310000D03*
%TO.P,ESP1,30,IO37_30*%
%TO.N,unconnected-(ESP1-IO37-Pad30)*%
X118990000Y-87040000D03*
%TO.P,ESP1,31,IO38_31*%
%TO.N,/IO38*%
X118990000Y-85770000D03*
%TO.P,ESP1,32,IO39_32*%
%TO.N,/IO39*%
X118990000Y-84500000D03*
%TO.P,ESP1,33,IO40_33*%
%TO.N,/IO40*%
X118990000Y-83230000D03*
%TO.P,ESP1,34,IO41_34*%
%TO.N,/IO41*%
X118990000Y-81960000D03*
%TO.P,ESP1,35,IO42_35*%
%TO.N,/IO42*%
X118990000Y-80690000D03*
%TO.P,ESP1,36,RXD0_36*%
%TO.N,/RXD0*%
X118990000Y-79420000D03*
%TO.P,ESP1,37,TXD0_37*%
%TO.N,/TXD0*%
X118990000Y-78150000D03*
%TO.P,ESP1,38,IO2_38*%
%TO.N,/IO2*%
X118990000Y-76880000D03*
%TO.P,ESP1,39,IO1_39*%
%TO.N,/IO1*%
X118990000Y-75610000D03*
%TO.P,ESP1,40*%
%TO.N,N/C*%
X118990000Y-74340000D03*
D28*
%TO.P,ESP1,41*%
X107340000Y-81360000D03*
X107340000Y-82760000D03*
X108040000Y-80660000D03*
X108040000Y-82060000D03*
X108040000Y-83460000D03*
X108740000Y-81360000D03*
D29*
X108740000Y-82060000D03*
D28*
X108740000Y-82760000D03*
X109440000Y-80660000D03*
X109440000Y-82060000D03*
X109440000Y-83460000D03*
X110140000Y-81360000D03*
X110140000Y-82760000D03*
%TD*%
D16*
%TO.P,R36,1*%
%TO.N,/IO45*%
X117200000Y-93880000D03*
%TO.P,R36,2*%
%TO.N,GND*%
X117200000Y-94900000D03*
%TD*%
D30*
%TO.P,J1,1,GND_1*%
%TO.N,GND*%
X97600000Y-71505000D03*
D31*
%TO.P,J1,2,3V3_2*%
%TO.N,+3.3V*%
X97600000Y-74045000D03*
%TO.P,J1,3,EN_3*%
%TO.N,/EN_in*%
X97600000Y-76585000D03*
%TO.P,J1,4,Pin_4_4*%
%TO.N,/IO4*%
X97600000Y-79125000D03*
%TO.P,J1,5,Pin_5_5*%
%TO.N,/IO5*%
X97600000Y-81665000D03*
%TO.P,J1,6,Pin_6_6*%
%TO.N,/IO6*%
X97600000Y-84205000D03*
%TO.P,J1,7,Pin_7_7*%
%TO.N,/IO7*%
X97600000Y-86745000D03*
%TO.P,J1,8,Pin_8_8*%
%TO.N,/IO15*%
X97600000Y-89285000D03*
%TO.P,J1,9,Pin_9_9*%
%TO.N,/IO16*%
X97600000Y-91825000D03*
%TO.P,J1,10,Pin_10_10*%
%TO.N,/IO17*%
X97600000Y-94365000D03*
%TO.P,J1,11,Pin_11_11*%
%TO.N,/IO18*%
X97600000Y-96905000D03*
%TO.P,J1,12,Pin_12_12*%
%TO.N,/IO8*%
X97600000Y-99445000D03*
%TO.P,J1,13,Pin_13_13*%
%TO.N,/USB_D-*%
X97600000Y-101985000D03*
%TO.P,J1,14,Pin_14_14*%
%TO.N,/USB_D+*%
X97600000Y-104525000D03*
%TO.P,J1,15,Pin_15_15*%
%TO.N,/IO3*%
X97600000Y-107065000D03*
%TO.P,J1,16,Pin_16_16*%
%TO.N,/IO46*%
X97600000Y-109605000D03*
%TO.P,J1,17,Pin_17_17*%
%TO.N,/IO9*%
X97600000Y-112145000D03*
%TO.P,J1,18,Pin_18_18*%
%TO.N,/IO10*%
X97600000Y-114685000D03*
%TO.P,J1,19,Pin_19_19*%
%TO.N,/IO11*%
X97600000Y-117225000D03*
%TO.P,J1,20,Pin_20_20*%
%TO.N,/IO12*%
X97600000Y-119765000D03*
%TD*%
D30*
%TO.P,J2,21,PIn_21_21*%
%TO.N,/IO13*%
X122995000Y-71505000D03*
D31*
%TO.P,J2,22,PIn_22_22*%
%TO.N,/IO14*%
X122995000Y-74045000D03*
%TO.P,J2,23,Pin_23_23*%
%TO.N,/IO21*%
X122995000Y-76585000D03*
%TO.P,J2,24,Pin_24_24*%
%TO.N,/IO47*%
X122995000Y-79125000D03*
%TO.P,J2,25,Pin_25_25*%
%TO.N,/IO48*%
X122995000Y-81665000D03*
%TO.P,J2,26,Pin_26_26*%
%TO.N,/IO45*%
X122995000Y-84205000D03*
%TO.P,J2,27,Pin_27_27*%
%TO.N,/IO0*%
X122995000Y-86745000D03*
%TO.P,J2,28,Pin_28_28*%
%TO.N,unconnected-(J2-Pin_28-Pad28)*%
X122995000Y-89285000D03*
%TO.P,J2,29,Pin_29_29*%
%TO.N,unconnected-(J2-Pin_29-Pad29)*%
X122995000Y-91825000D03*
%TO.P,J2,30,Pin_30_30*%
%TO.N,unconnected-(J2-Pin_30-Pad30)*%
X122995000Y-94365000D03*
%TO.P,J2,31,Pin_31_31*%
%TO.N,/IO38*%
X122995000Y-96905000D03*
%TO.P,J2,32,Pin_32_32*%
%TO.N,/IO39*%
X122995000Y-99445000D03*
%TO.P,J2,33,Pin_33_33*%
%TO.N,/IO40*%
X122995000Y-101985000D03*
%TO.P,J2,34,Pin_34_34*%
%TO.N,/IO41*%
X122995000Y-104525000D03*
%TO.P,J2,35,Pin_35_35*%
%TO.N,/IO42*%
X122995000Y-107065000D03*
%TO.P,J2,36,Pin_36_36*%
%TO.N,/RXD0*%
X122995000Y-109605000D03*
%TO.P,J2,37,Pin_37_37*%
%TO.N,/TXD0*%
X122995000Y-112145000D03*
%TO.P,J2,38,Pin_38_38*%
%TO.N,/IO2*%
X122995000Y-114685000D03*
%TO.P,J2,39,Pin_39_39*%
%TO.N,/IO1*%
X122995000Y-117225000D03*
%TO.P,J2,40,Pin_40_40*%
%TO.N,GND*%
X122995000Y-119765000D03*
%TD*%
D32*
%TO.N,GND*%
X119700000Y-110900000D03*
X107500000Y-123900000D03*
X96400000Y-131600000D03*
X103500000Y-94900000D03*
X99900000Y-73300000D03*
X115200000Y-108400000D03*
X110285000Y-68760000D03*
%TO.N,+3.3V*%
X107100000Y-103700000D03*
X103400000Y-77000000D03*
%TO.N,/USB_D-*%
X103300000Y-89600000D03*
X102500000Y-118500000D03*
X99200000Y-104500000D03*
%TO.N,VBUS*%
X107900000Y-126500000D03*
D33*
X113500000Y-123900000D03*
D32*
%TO.N,/USB_D+*%
X101700000Y-117400000D03*
X103300000Y-90700000D03*
%TO.N,Net-(J8-CC2)*%
X113500000Y-125400000D03*
X111700000Y-126300000D03*
%TO.N,/IO8*%
X103300000Y-88300000D03*
%TO.N,/IO48*%
X114900000Y-81600000D03*
%TO.N,/IO45*%
X115300000Y-82500000D03*
%TO.N,/IO38*%
X117200000Y-86000000D03*
%TO.N,/IO39*%
X117400000Y-84400000D03*
%TO.N,/IO40*%
X116500000Y-84100000D03*
%TO.N,/IO41*%
X116100000Y-83300000D03*
%TO.N,/IO42*%
X115100000Y-80700000D03*
%TO.N,/RXD0*%
X120600000Y-93800000D03*
X121000000Y-86300000D03*
%TO.N,/TXD0*%
X116600000Y-78100000D03*
%TO.N,/IO2*%
X121000000Y-83500000D03*
%TD*%
%TO.N,+3.3V*%
D34*
X99335000Y-75780000D02*
X97600000Y-74045000D01*
X99900000Y-75780000D02*
X99335000Y-75780000D01*
X100580000Y-75780000D02*
X99900000Y-75780000D01*
D35*
X100600000Y-75800000D02*
X100580000Y-75780000D01*
D34*
X101300000Y-75800000D02*
X100600000Y-75800000D01*
D35*
X101490000Y-75610000D02*
X101300000Y-75800000D01*
D34*
X103800000Y-75600000D02*
X103790000Y-75610000D01*
X104330000Y-75600000D02*
X103800000Y-75600000D01*
X108125000Y-71805000D02*
X104330000Y-75600000D01*
X103790000Y-75610000D02*
X101490000Y-75610000D01*
%TO.N,GND*%
D36*
X100935000Y-72467500D02*
X100935000Y-73785000D01*
X100325000Y-71857500D02*
X100935000Y-72467500D01*
X100325000Y-71300000D02*
X100325000Y-71857500D01*
X100935000Y-73785000D02*
X101490000Y-74340000D01*
%TO.N,Net-(LED1-Pad2)*%
D34*
X102315000Y-71300000D02*
X101900000Y-71300000D01*
X102635000Y-70980000D02*
X102315000Y-71300000D01*
X103200000Y-70980000D02*
X102635000Y-70980000D01*
%TO.N,Net-(J8-CC1)*%
D35*
X106610000Y-125920000D02*
X107120000Y-125920000D01*
X107120000Y-125920000D02*
X107340000Y-125700000D01*
X108800000Y-126800000D02*
X109030000Y-127030000D01*
X107340000Y-125700000D02*
X108500000Y-125700000D01*
X109030000Y-127030000D02*
X109030000Y-128015000D01*
X108500000Y-125700000D02*
X108800000Y-126000000D01*
X108800000Y-126000000D02*
X108800000Y-126800000D01*
%TO.N,GND*%
X121900000Y-120860000D02*
X121900000Y-125500000D01*
D34*
X115500000Y-126000000D02*
X114800000Y-126000000D01*
D35*
X105960000Y-128590000D02*
X106505000Y-128590000D01*
X108220000Y-68760000D02*
X108125000Y-68855000D01*
X104500000Y-94920000D02*
X103520000Y-94920000D01*
X103520000Y-94920000D02*
X103500000Y-94900000D01*
D36*
X101490000Y-74340000D02*
X100940000Y-74340000D01*
D35*
X105960000Y-132770000D02*
X105960000Y-128590000D01*
D37*
X103390000Y-133830000D02*
X104780000Y-133830000D01*
X107500000Y-123900000D02*
X107500000Y-124010000D01*
X107500000Y-124010000D02*
X106610000Y-124900000D01*
D35*
X99900000Y-74820000D02*
X100380000Y-74340000D01*
D34*
X108125000Y-68855000D02*
X106295000Y-68855000D01*
D35*
X119700000Y-116470000D02*
X119700000Y-110900000D01*
X116600000Y-94900000D02*
X117200000Y-94900000D01*
X106505000Y-128590000D02*
X107080000Y-128015000D01*
X99760000Y-125500000D02*
X100000000Y-125500000D01*
X96890000Y-132090000D02*
X96400000Y-131600000D01*
X122995000Y-119765000D02*
X119700000Y-116470000D01*
X117140000Y-133800000D02*
X115630000Y-133800000D01*
D37*
X106610000Y-124900000D02*
X100830000Y-124900000D01*
D35*
X114800000Y-126695000D02*
X113480000Y-128015000D01*
D36*
X100940000Y-74340000D02*
X99900000Y-73300000D01*
D37*
X103390000Y-133830000D02*
X96890000Y-133830000D01*
D35*
X100380000Y-74340000D02*
X101490000Y-74340000D01*
X100000000Y-125500000D02*
X100600000Y-124900000D01*
X114800000Y-126000000D02*
X114800000Y-126695000D01*
X117140000Y-133800000D02*
X123640000Y-133800000D01*
X114600000Y-128590000D02*
X114600000Y-132770000D01*
X115200000Y-96300000D02*
X116600000Y-94900000D01*
D37*
X107545000Y-123855000D02*
X107500000Y-123900000D01*
D35*
X96890000Y-133830000D02*
X96890000Y-132090000D01*
X122995000Y-119765000D02*
X121900000Y-120860000D01*
X114025000Y-128015000D02*
X114600000Y-128590000D01*
D34*
X115600000Y-125900000D02*
X115500000Y-126000000D01*
D35*
X113480000Y-128015000D02*
X114025000Y-128015000D01*
X114600000Y-132770000D02*
X105960000Y-132770000D01*
D37*
X104780000Y-133830000D02*
X105960000Y-132650000D01*
D35*
X110285000Y-68760000D02*
X108220000Y-68760000D01*
D37*
X100830000Y-124900000D02*
X100230000Y-125500000D01*
D35*
X115200000Y-108400000D02*
X115200000Y-96300000D01*
X115630000Y-133800000D02*
X114600000Y-132770000D01*
D37*
X108890000Y-123855000D02*
X107545000Y-123855000D01*
D34*
X106295000Y-68855000D02*
X105200000Y-69950000D01*
X115600000Y-122300000D02*
X115600000Y-125900000D01*
%TO.N,+3.3V*%
X108125000Y-71805000D02*
X105245000Y-71805000D01*
X103200000Y-72000000D02*
X105050000Y-72000000D01*
D35*
X107000000Y-110200000D02*
X107100000Y-110100000D01*
X117200000Y-120400000D02*
X107000000Y-110200000D01*
X117200000Y-125500000D02*
X117200000Y-120400000D01*
X107100000Y-110100000D02*
X107100000Y-103700000D01*
D34*
X105050000Y-72000000D02*
X105200000Y-71850000D01*
X102010000Y-75610000D02*
X101490000Y-75610000D01*
X99900000Y-75780000D02*
X99900000Y-76700000D01*
D35*
X103400000Y-77000000D02*
X102010000Y-75610000D01*
%TO.N,/USB-C_D+*%
X111030000Y-127090000D02*
X110740000Y-126800000D01*
X109495000Y-122905000D02*
X109900000Y-123310000D01*
X110740000Y-126800000D02*
X110030000Y-126800000D01*
X108890000Y-122905000D02*
X109495000Y-122905000D01*
X110030000Y-126800000D02*
X110030000Y-128015000D01*
X110030000Y-125237894D02*
X110030000Y-126800000D01*
X109900000Y-123310000D02*
X109900000Y-125107893D01*
X109900000Y-125107893D02*
X110030000Y-125237894D01*
X111030000Y-128015000D02*
X111030000Y-127090000D01*
%TO.N,/USB-C_D-*%
X109530000Y-128890000D02*
X109580000Y-128940000D01*
X110360000Y-128940000D02*
X110530000Y-128770000D01*
X108890000Y-124805000D02*
X109530000Y-125445000D01*
X109530000Y-125445000D02*
X109530000Y-128015000D01*
X109530000Y-128015000D02*
X109530000Y-128890000D01*
X109580000Y-128940000D02*
X110360000Y-128940000D01*
X110530000Y-128770000D02*
X110530000Y-128015000D01*
%TO.N,/USB_D-*%
X99200000Y-103585000D02*
X97600000Y-101985000D01*
X110400000Y-123061182D02*
X105838818Y-118500000D01*
X110400000Y-124410000D02*
X110400000Y-123061182D01*
X101490000Y-89580000D02*
X103280000Y-89580000D01*
X99200000Y-104500000D02*
X99200000Y-103585000D01*
X103280000Y-89580000D02*
X103300000Y-89600000D01*
X111400000Y-124805000D02*
X110795000Y-124805000D01*
X105838818Y-118500000D02*
X102500000Y-118500000D01*
X110795000Y-124805000D02*
X110400000Y-124410000D01*
%TO.N,VBUS*%
D34*
X107900000Y-127875000D02*
X107880000Y-127895000D01*
X112680000Y-124530000D02*
X112680000Y-127895000D01*
X111400000Y-123855000D02*
X113455000Y-123855000D01*
X113455000Y-123855000D02*
X113500000Y-123900000D01*
X107900000Y-126500000D02*
X107900000Y-127875000D01*
X112005000Y-123855000D02*
X111400000Y-123855000D01*
X112145000Y-123855000D02*
X113700000Y-122300000D01*
X112680000Y-124530000D02*
X112005000Y-123855000D01*
X111400000Y-123855000D02*
X112145000Y-123855000D01*
%TO.N,/USB_D+*%
D35*
X105895000Y-117400000D02*
X101700000Y-117400000D01*
X103150000Y-90850000D02*
X103300000Y-90700000D01*
X101490000Y-90850000D02*
X103150000Y-90850000D01*
X111400000Y-122905000D02*
X105895000Y-117400000D01*
%TO.N,/IO0*%
X118300000Y-93500000D02*
X119000000Y-92800000D01*
X118300000Y-125500000D02*
X118300000Y-93500000D01*
X121600000Y-88982943D02*
X121600000Y-87600000D01*
X117140000Y-129300000D02*
X117140000Y-126660000D01*
X122140000Y-87600000D02*
X122995000Y-86745000D01*
X119732943Y-90850000D02*
X121600000Y-88982943D01*
X118990000Y-92790000D02*
X118990000Y-90850000D01*
X118990000Y-90850000D02*
X119732943Y-90850000D01*
D37*
X120940000Y-125500000D02*
X118220000Y-125500000D01*
D35*
X117140000Y-126660000D02*
X118300000Y-125500000D01*
X121600000Y-87600000D02*
X122140000Y-87600000D01*
X119000000Y-92800000D02*
X118990000Y-92790000D01*
D37*
X123640000Y-129300000D02*
X117140000Y-129300000D01*
%TO.N,Net-(J8-CC2)*%
D35*
X114800000Y-124980000D02*
X113920000Y-124980000D01*
X113920000Y-124980000D02*
X113500000Y-125400000D01*
X112030000Y-126630000D02*
X112030000Y-128015000D01*
X111700000Y-126300000D02*
X112030000Y-126630000D01*
%TO.N,/EN_in*%
X96890000Y-129330000D02*
X103390000Y-129330000D01*
X98330000Y-123252057D02*
X98330000Y-125500000D01*
X98860000Y-122722057D02*
X98330000Y-123252057D01*
X96400000Y-120262057D02*
X96400000Y-77785000D01*
X98860000Y-127360000D02*
X96890000Y-129330000D01*
X98330000Y-125500000D02*
X98330000Y-126830000D01*
X100080000Y-77720000D02*
X100920000Y-76880000D01*
X99900000Y-77720000D02*
X98735000Y-77720000D01*
X98735000Y-77720000D02*
X97600000Y-76585000D01*
X98330000Y-126830000D02*
X98860000Y-127360000D01*
X99900000Y-77720000D02*
X100080000Y-77720000D01*
X96400000Y-77785000D02*
X97600000Y-76585000D01*
X98860000Y-122722057D02*
X96400000Y-120262057D01*
D36*
X97735000Y-76720000D02*
X97600000Y-76585000D01*
D35*
X100920000Y-76880000D02*
X101490000Y-76880000D01*
%TO.N,/IO4*%
X101020000Y-78620000D02*
X100580000Y-78620000D01*
X100300000Y-78900000D02*
X97825000Y-78900000D01*
X101490000Y-78150000D02*
X101020000Y-78620000D01*
X97825000Y-78900000D02*
X97600000Y-79125000D01*
X100580000Y-78620000D02*
X100300000Y-78900000D01*
%TO.N,/IO5*%
X99845000Y-79420000D02*
X97600000Y-81665000D01*
X101490000Y-79420000D02*
X99845000Y-79420000D01*
%TO.N,/IO6*%
X98800000Y-81200000D02*
X98800000Y-82300000D01*
X100440000Y-80690000D02*
X100430000Y-80700000D01*
X97600000Y-83500000D02*
X97600000Y-84205000D01*
X100430000Y-80700000D02*
X99300000Y-80700000D01*
X101490000Y-80690000D02*
X100440000Y-80690000D01*
X98800000Y-82300000D02*
X97600000Y-83500000D01*
X99300000Y-80700000D02*
X98800000Y-81200000D01*
%TO.N,/IO7*%
X101490000Y-81960000D02*
X100260000Y-81960000D01*
X97600000Y-85902057D02*
X97600000Y-86745000D01*
X100260000Y-81960000D02*
X99300000Y-82920000D01*
X98800000Y-84702057D02*
X97600000Y-85902057D01*
X99300000Y-82920000D02*
X99300000Y-83000000D01*
X98800000Y-83500000D02*
X98800000Y-84702057D01*
X99300000Y-83000000D02*
X98800000Y-83500000D01*
%TO.N,/IO15*%
X99900000Y-83200000D02*
X99500000Y-83600000D01*
X99500000Y-84900000D02*
X98700000Y-85700000D01*
X99500000Y-83600000D02*
X99500000Y-84900000D01*
X98800000Y-85800000D02*
X98800000Y-88085000D01*
X101490000Y-83230000D02*
X99930000Y-83230000D01*
X98700000Y-85700000D02*
X98800000Y-85800000D01*
X99930000Y-83230000D02*
X99900000Y-83200000D01*
X98800000Y-88085000D02*
X97600000Y-89285000D01*
%TO.N,/IO16*%
X100000000Y-85400000D02*
X99300000Y-86100000D01*
X101490000Y-84500000D02*
X100000000Y-84500000D01*
X99300000Y-90125000D02*
X97600000Y-91825000D01*
X100000000Y-84500000D02*
X100000000Y-85400000D01*
X99300000Y-86100000D02*
X99300000Y-90125000D01*
%TO.N,/IO17*%
X99800000Y-92165000D02*
X97600000Y-94365000D01*
X99800000Y-86400000D02*
X99800000Y-92165000D01*
X101490000Y-85770000D02*
X100430000Y-85770000D01*
X100430000Y-85770000D02*
X99800000Y-86400000D01*
%TO.N,/IO18*%
X101490000Y-87040000D02*
X100440000Y-87040000D01*
X100300000Y-94205000D02*
X97600000Y-96905000D01*
X100300000Y-87180000D02*
X100300000Y-94205000D01*
X100440000Y-87040000D02*
X100300000Y-87180000D01*
%TO.N,/IO8*%
X103290000Y-88310000D02*
X103300000Y-88300000D01*
X101490000Y-88310000D02*
X103290000Y-88310000D01*
%TO.N,/IO3*%
X100100000Y-104565000D02*
X97600000Y-107065000D01*
X103255000Y-92100000D02*
X103255000Y-92245000D01*
X100100000Y-95400000D02*
X100100000Y-104565000D01*
X103255000Y-92245000D02*
X100100000Y-95400000D01*
%TO.N,/IO46*%
X101500000Y-95600000D02*
X101500000Y-105705000D01*
X104525000Y-92100000D02*
X104525000Y-93875000D01*
X101500000Y-105705000D02*
X97600000Y-109605000D01*
X104525000Y-92100000D02*
X104525000Y-92575000D01*
X104525000Y-92575000D02*
X101500000Y-95600000D01*
X104525000Y-93875000D02*
X104500000Y-93900000D01*
%TO.N,/IO9*%
X102500000Y-107245000D02*
X97600000Y-112145000D01*
X102500000Y-101000000D02*
X102500000Y-107245000D01*
X105795000Y-97705000D02*
X102500000Y-101000000D01*
X105795000Y-92100000D02*
X105795000Y-97705000D01*
%TO.N,/IO10*%
X107065000Y-98035000D02*
X103700000Y-101400000D01*
X103700000Y-101400000D02*
X103700000Y-108585000D01*
X103700000Y-108585000D02*
X97600000Y-114685000D01*
X107065000Y-92100000D02*
X107065000Y-98035000D01*
%TO.N,/IO11*%
X104700000Y-110125000D02*
X97600000Y-117225000D01*
X108335000Y-98765000D02*
X104700000Y-102400000D01*
X104700000Y-102400000D02*
X104700000Y-110125000D01*
X108335000Y-92100000D02*
X108335000Y-98765000D01*
%TO.N,/IO12*%
X109605000Y-92100000D02*
X109605000Y-98895000D01*
X105700000Y-111665000D02*
X97600000Y-119765000D01*
X109605000Y-98895000D02*
X105700000Y-102800000D01*
X105700000Y-102800000D02*
X105700000Y-111665000D01*
%TO.N,/IO13*%
X111040000Y-72560000D02*
X112095000Y-71505000D01*
X112095000Y-71505000D02*
X122995000Y-71505000D01*
X110875000Y-92100000D02*
X111040000Y-91935000D01*
X111040000Y-91935000D02*
X111040000Y-72560000D01*
%TO.N,/IO14*%
X121050000Y-72100000D02*
X122995000Y-74045000D01*
X113100000Y-72100000D02*
X121050000Y-72100000D01*
X112145000Y-92100000D02*
X112145000Y-73055000D01*
X112145000Y-73055000D02*
X113100000Y-72100000D01*
%TO.N,/IO21*%
X113800000Y-73000000D02*
X120700000Y-73000000D01*
X113415000Y-73385000D02*
X113800000Y-73000000D01*
X121800000Y-74547057D02*
X121800000Y-75390000D01*
X120700000Y-73000000D02*
X121795000Y-74095000D01*
X121800000Y-75390000D02*
X122995000Y-76585000D01*
X121795000Y-74095000D02*
X121795000Y-74542057D01*
X113415000Y-92100000D02*
X113415000Y-73385000D01*
X121795000Y-74542057D02*
X121800000Y-74547057D01*
%TO.N,/IO47*%
X114000000Y-73600000D02*
X114100000Y-73500000D01*
X121600000Y-77730000D02*
X122995000Y-79125000D01*
X121600000Y-76000000D02*
X121600000Y-77730000D01*
X114100000Y-73500000D02*
X120400000Y-73500000D01*
X114000000Y-89200000D02*
X114000000Y-73600000D01*
X121300000Y-74754164D02*
X121300000Y-75700000D01*
X114685000Y-92100000D02*
X114685000Y-89885000D01*
X121295000Y-74749163D02*
X121300000Y-74754164D01*
X120400000Y-73500000D02*
X121295000Y-74395000D01*
X114685000Y-89885000D02*
X114000000Y-89200000D01*
X121295000Y-74395000D02*
X121295000Y-74749163D01*
X121300000Y-75700000D02*
X121600000Y-76000000D01*
%TO.N,/IO48*%
X114600000Y-81900000D02*
X114900000Y-81600000D01*
X115955000Y-92100000D02*
X115955000Y-89655000D01*
X114600000Y-88300000D02*
X114600000Y-81900000D01*
X115955000Y-89655000D02*
X114600000Y-88300000D01*
%TO.N,/IO45*%
X115400000Y-82600000D02*
X115300000Y-82500000D01*
X115400000Y-87800000D02*
X115400000Y-82600000D01*
X117225000Y-92100000D02*
X117225000Y-90925000D01*
X117225000Y-92100000D02*
X117225000Y-93855000D01*
X117225000Y-90925000D02*
X117000000Y-90700000D01*
X117000000Y-90700000D02*
X117000000Y-89400000D01*
X117000000Y-89400000D02*
X115400000Y-87800000D01*
X117225000Y-93855000D02*
X117200000Y-93880000D01*
%TO.N,/IO38*%
X118990000Y-85770000D02*
X117430000Y-85770000D01*
X117430000Y-85770000D02*
X117200000Y-86000000D01*
%TO.N,/IO39*%
X118990000Y-84500000D02*
X117500000Y-84500000D01*
X117500000Y-84500000D02*
X117400000Y-84400000D01*
%TO.N,/IO40*%
X117370000Y-83230000D02*
X116500000Y-84100000D01*
X118990000Y-83230000D02*
X117370000Y-83230000D01*
%TO.N,/IO41*%
X117440000Y-81960000D02*
X116100000Y-83300000D01*
X118990000Y-81960000D02*
X117440000Y-81960000D01*
%TO.N,/IO42*%
X115110000Y-80690000D02*
X115100000Y-80700000D01*
X118990000Y-80690000D02*
X115110000Y-80690000D01*
%TO.N,/RXD0*%
X120100000Y-79480000D02*
X120100000Y-84000000D01*
X118990000Y-79420000D02*
X120040000Y-79420000D01*
X120600000Y-108500000D02*
X121705000Y-109605000D01*
X120600000Y-93800000D02*
X120600000Y-108500000D01*
X120100000Y-84000000D02*
X121000000Y-84900000D01*
X120040000Y-79420000D02*
X120100000Y-79480000D01*
X121000000Y-84900000D02*
X121000000Y-86300000D01*
X121705000Y-109605000D02*
X122995000Y-109605000D01*
%TO.N,/TXD0*%
X118990000Y-78150000D02*
X116650000Y-78150000D01*
X116650000Y-78150000D02*
X116600000Y-78100000D01*
%TO.N,/IO2*%
X118990000Y-76880000D02*
X119620000Y-76880000D01*
X120600000Y-83100000D02*
X121000000Y-83500000D01*
X119620000Y-76880000D02*
X120600000Y-77860000D01*
X120600000Y-77860000D02*
X120600000Y-83100000D01*
%TO.N,/IO1*%
X124565000Y-80325000D02*
X124590000Y-80300000D01*
X120040000Y-75610000D02*
X121100000Y-76670000D01*
X121100000Y-78927057D02*
X122497943Y-80325000D01*
X124590000Y-115630000D02*
X122995000Y-117225000D01*
X121100000Y-76670000D02*
X121100000Y-78927057D01*
X118990000Y-75610000D02*
X120040000Y-75610000D01*
X124590000Y-80300000D02*
X124590000Y-115630000D01*
X122497943Y-80325000D02*
X124565000Y-80325000D01*
%TD*%
M02*
