M48
; DRILL file KiCad 10.0.1 date 2026-06-29T18:57:02
; FORMAT={-:-/ absolute / metric / decimal}
; #@! TF.CreationDate,2026-06-29T18:57:02-05:00
; #@! TF.GenerationSoftware,Kicad,Pcbnew,10.0.1
; #@! TF.FileFunction,Plated,1,2,PTH
FMAT,2
METRIC
; #@! TA.AperFunction,Plated,PTH,ViaDrill
T1C0.300
; #@! TA.AperFunction,Plated,PTH,ComponentDrill
T2C0.300
; #@! TA.AperFunction,Plated,PTH,ViaDrill
T3C0.500
; #@! TA.AperFunction,Plated,PTH,ComponentDrill
T4C0.600
; #@! TA.AperFunction,Plated,PTH,ComponentDrill
T5C1.000
%
G90
G05
T1
X96.4Y-131.6
X99.2Y-104.5
X99.9Y-73.3
X101.7Y-117.4
X102.5Y-118.5
X103.3Y-88.3
X103.3Y-89.6
X103.3Y-90.7
X103.4Y-77.0
X103.5Y-94.9
X107.1Y-103.7
X107.5Y-123.9
X107.9Y-126.5
X110.285Y-68.76
X111.7Y-126.3
X113.5Y-125.4
X114.9Y-81.6
X115.1Y-80.7
X115.2Y-108.4
X115.3Y-82.5
X116.1Y-83.3
X116.5Y-84.1
X116.6Y-78.1
X117.2Y-86.0
X117.4Y-84.4
X119.7Y-110.9
X120.6Y-93.8
X121.0Y-83.5
X121.0Y-86.3
T2
X107.34Y-81.36
X107.34Y-82.76
X108.04Y-80.66
X108.04Y-82.06
X108.04Y-83.46
X108.74Y-81.36
X108.74Y-82.76
X109.44Y-80.66
X109.44Y-82.06
X109.44Y-83.46
X110.14Y-81.36
X110.14Y-82.76
T3
X113.5Y-123.9
T5
X96.89Y-129.33
X96.89Y-133.83
X97.6Y-71.505
X97.6Y-74.045
X97.6Y-76.585
X97.6Y-79.125
X97.6Y-81.665
X97.6Y-84.205
X97.6Y-86.745
X97.6Y-89.285
X97.6Y-91.825
X97.6Y-94.365
X97.6Y-96.905
X97.6Y-99.445
X97.6Y-101.985
X97.6Y-104.525
X97.6Y-107.065
X97.6Y-109.605
X97.6Y-112.145
X97.6Y-114.685
X97.6Y-117.225
X97.6Y-119.765
X103.39Y-129.33
X103.39Y-133.83
X117.14Y-129.3
X117.14Y-133.8
X122.995Y-71.505
X122.995Y-74.045
X122.995Y-76.585
X122.995Y-79.125
X122.995Y-81.665
X122.995Y-84.205
X122.995Y-86.745
X122.995Y-89.285
X122.995Y-91.825
X122.995Y-94.365
X122.995Y-96.905
X122.995Y-99.445
X122.995Y-101.985
X122.995Y-104.525
X122.995Y-107.065
X122.995Y-109.605
X122.995Y-112.145
X122.995Y-114.685
X122.995Y-117.225
X122.995Y-119.765
X123.64Y-129.3
X123.64Y-133.8
T4
X105.96Y-127.92G85X105.96Y-129.02
G05
X105.96Y-132.25G85X105.96Y-133.05
G05
X114.6Y-127.92G85X114.6Y-129.02
G05
X114.6Y-132.25G85X114.6Y-133.05
G05
M30
