%TF.GenerationSoftware,KiCad,Pcbnew,10.0.5*%
%TF.CreationDate,2026-08-30T14:17:10-05:00*%
%TF.ProjectId,PelletPirate_V5,50656c6c-6574-4506-9972-6174655f5635,rev?*%
%TF.SameCoordinates,Original*%
%TF.FileFunction,Paste,Top*%
%TF.FilePolarity,Positive*%
%FSLAX46Y46*%
G04 Gerber Fmt 4.6, Leading zero omitted, Abs format (unit mm)*
G04 Created by KiCad (PCBNEW 10.0.5) date 2026-08-30 14:17:10*
%MOMM*%
%LPD*%
G01*
G04 APERTURE LIST*
G04 Aperture macros list*
%AMRoundRect*
0 Rectangle with rounded corners*
0 $1 Rounding radius*
0 $2 $3 $4 $5 $6 $7 $8 $9 X,Y pos of 4 corners*
0 Add a 4 corners polygon primitive as box body*
4,1,4,$2,$3,$4,$5,$6,$7,$8,$9,$2,$3,0*
0 Add four circle primitives for the rounded corners*
1,1,$1+$1,$2,$3*
1,1,$1+$1,$4,$5*
1,1,$1+$1,$6,$7*
1,1,$1+$1,$8,$9*
0 Add four rect primitives between the rounded corners*
20,1,$1+$1,$2,$3,$4,$5,0*
20,1,$1+$1,$4,$5,$6,$7,0*
20,1,$1+$1,$6,$7,$8,$9,0*
20,1,$1+$1,$8,$9,$2,$3,0*%
G04 Aperture macros list end*
%ADD10R,0.800000X2.700000*%
%ADD11RoundRect,0.250000X0.650000X-0.325000X0.650000X0.325000X-0.650000X0.325000X-0.650000X-0.325000X0*%
%ADD12R,0.900000X0.900000*%
%ADD13R,1.500000X0.900000*%
%ADD14R,0.900000X1.500000*%
%ADD15RoundRect,0.135000X0.135000X0.185000X-0.135000X0.185000X-0.135000X-0.185000X0.135000X-0.185000X0*%
%ADD16RoundRect,0.250000X0.362500X1.425000X-0.362500X1.425000X-0.362500X-1.425000X0.362500X-1.425000X0*%
%ADD17RoundRect,0.250000X-0.625000X0.312500X-0.625000X-0.312500X0.625000X-0.312500X0.625000X0.312500X0*%
%ADD18R,1.470000X1.140000*%
%ADD19RoundRect,0.140000X0.140000X0.170000X-0.140000X0.170000X-0.140000X-0.170000X0.140000X-0.170000X0*%
%ADD20RoundRect,0.140000X0.170000X-0.140000X0.170000X0.140000X-0.170000X0.140000X-0.170000X-0.140000X0*%
%ADD21RoundRect,0.200000X0.275000X-0.200000X0.275000X0.200000X-0.275000X0.200000X-0.275000X-0.200000X0*%
%ADD22RoundRect,0.135000X0.185000X-0.135000X0.185000X0.135000X-0.185000X0.135000X-0.185000X-0.135000X0*%
%ADD23R,1.400000X1.820000*%
%ADD24RoundRect,0.140000X-0.170000X0.140000X-0.170000X-0.140000X0.170000X-0.140000X0.170000X0.140000X0*%
%ADD25RoundRect,0.250000X0.450000X-0.350000X0.450000X0.350000X-0.450000X0.350000X-0.450000X-0.350000X0*%
%ADD26RoundRect,0.135000X-0.135000X-0.185000X0.135000X-0.185000X0.135000X0.185000X-0.135000X0.185000X0*%
%ADD27RoundRect,0.135000X-0.185000X0.135000X-0.185000X-0.135000X0.185000X-0.135000X0.185000X0.135000X0*%
%ADD28RoundRect,0.250000X0.625000X-0.312500X0.625000X0.312500X-0.625000X0.312500X-0.625000X-0.312500X0*%
%ADD29RoundRect,0.200000X0.200000X0.275000X-0.200000X0.275000X-0.200000X-0.275000X0.200000X-0.275000X0*%
%ADD30RoundRect,0.073750X-0.531250X-0.221250X0.531250X-0.221250X0.531250X0.221250X-0.531250X0.221250X0*%
%ADD31R,1.000000X0.900000*%
%ADD32R,0.550000X1.700000*%
%ADD33RoundRect,0.200000X-0.275000X0.200000X-0.275000X-0.200000X0.275000X-0.200000X0.275000X0.200000X0*%
%ADD34RoundRect,0.250000X-0.312500X-0.625000X0.312500X-0.625000X0.312500X0.625000X-0.312500X0.625000X0*%
%ADD35RoundRect,0.250000X0.450000X-0.262500X0.450000X0.262500X-0.450000X0.262500X-0.450000X-0.262500X0*%
%ADD36RoundRect,0.250000X0.312500X0.625000X-0.312500X0.625000X-0.312500X-0.625000X0.312500X-0.625000X0*%
%ADD37R,1.150000X0.300000*%
%ADD38RoundRect,0.225000X-0.225000X-0.250000X0.225000X-0.250000X0.225000X0.250000X-0.225000X0.250000X0*%
%ADD39RoundRect,0.243800X0.846200X0.816200X-0.846200X0.816200X-0.846200X-0.816200X0.846200X-0.816200X0*%
%ADD40RoundRect,0.218750X-0.218750X-0.256250X0.218750X-0.256250X0.218750X0.256250X-0.218750X0.256250X0*%
%ADD41RoundRect,0.250000X-0.362500X-1.425000X0.362500X-1.425000X0.362500X1.425000X-0.362500X1.425000X0*%
%ADD42RoundRect,0.250000X-0.450000X0.350000X-0.450000X-0.350000X0.450000X-0.350000X0.450000X0.350000X0*%
G04 APERTURE END LIST*
D10*
%TO.C,L1*%
X176800000Y-97350000D03*
X179000000Y-97350000D03*
%TD*%
D11*
%TO.C,C47*%
X183374999Y-66525000D03*
X183374999Y-63575000D03*
%TD*%
D12*
%TO.C,ESP1*%
X147830606Y-77970000D03*
X147835000Y-75170000D03*
X147835000Y-76570000D03*
X149230606Y-77970000D03*
X149235000Y-75170000D03*
X149235000Y-76570000D03*
X150630606Y-77970000D03*
X150635000Y-75170000D03*
X150635000Y-76570000D03*
D13*
X141985000Y-68850000D03*
X141985000Y-70120000D03*
X141985000Y-71390000D03*
X141985000Y-72660000D03*
X141985000Y-73930000D03*
X141985000Y-75200000D03*
X141985000Y-76470000D03*
X141985000Y-77740000D03*
X141985000Y-79010000D03*
X141985000Y-80280000D03*
X141985000Y-81550000D03*
X141985000Y-82820000D03*
X141985000Y-84090000D03*
X141985000Y-85360000D03*
D14*
X143750000Y-86610000D03*
X145020000Y-86610000D03*
X146290000Y-86610000D03*
X147560000Y-86610000D03*
X148830000Y-86610000D03*
X150100000Y-86610000D03*
X151370000Y-86610000D03*
X152640000Y-86610000D03*
X153910000Y-86610000D03*
X155180000Y-86610000D03*
X156450000Y-86610000D03*
X157720000Y-86610000D03*
D13*
X159485000Y-85360000D03*
X159485000Y-84090000D03*
X159485000Y-82820000D03*
X159485000Y-81550000D03*
X159485000Y-80280000D03*
X159485000Y-79010000D03*
X159485000Y-77740000D03*
X159485000Y-76470000D03*
X159485000Y-75200000D03*
X159485000Y-73930000D03*
X159485000Y-72660000D03*
X159485000Y-71390000D03*
X159485000Y-70120000D03*
X159485000Y-68850000D03*
%TD*%
D15*
%TO.C,R33*%
X140210000Y-75050000D03*
X139190000Y-75050000D03*
%TD*%
D16*
%TO.C,R2*%
X147425000Y-104200000D03*
X141500000Y-104200000D03*
%TD*%
D17*
%TO.C,R26*%
X138300000Y-104800000D03*
X138300000Y-107725000D03*
%TD*%
D18*
%TO.C,FL1*%
X183475000Y-70325000D03*
X183475000Y-68545000D03*
%TD*%
D19*
%TO.C,C46*%
X183394411Y-62150000D03*
X182434411Y-62150000D03*
%TD*%
D17*
%TO.C,R5*%
X150850000Y-102675000D03*
X150850000Y-105600000D03*
%TD*%
D20*
%TO.C,C40*%
X161075000Y-84725000D03*
X161075000Y-83765000D03*
%TD*%
D15*
%TO.C,R36*%
X157235000Y-88100000D03*
X156215000Y-88100000D03*
%TD*%
D20*
%TO.C,C41*%
X152685000Y-89120000D03*
X152685000Y-88160000D03*
%TD*%
D21*
%TO.C,R38*%
X137150000Y-74850000D03*
X137150000Y-73200000D03*
%TD*%
D15*
%TO.C,R32*%
X140210000Y-73050000D03*
X139190000Y-73050000D03*
%TD*%
%TO.C,R40*%
X152570000Y-90150000D03*
X151550000Y-90150000D03*
%TD*%
D22*
%TO.C,R47*%
X151585000Y-89180000D03*
X151585000Y-88160000D03*
%TD*%
D23*
%TO.C,L5*%
X182085000Y-89625000D03*
X179365000Y-89625000D03*
%TD*%
D24*
%TO.C,C43*%
X136585000Y-83990000D03*
X136585000Y-84950000D03*
%TD*%
D25*
%TO.C,R8*%
X144775000Y-95700000D03*
X144775000Y-93700000D03*
%TD*%
D26*
%TO.C,R48*%
X161015000Y-79025000D03*
X162035000Y-79025000D03*
%TD*%
D15*
%TO.C,R43*%
X140500000Y-82650000D03*
X139480000Y-82650000D03*
%TD*%
D27*
%TO.C,R35*%
X145035000Y-88100000D03*
X145035000Y-89120000D03*
%TD*%
%TO.C,R45*%
X161085000Y-85710000D03*
X161085000Y-86730000D03*
%TD*%
D26*
%TO.C,R49*%
X161000000Y-77725000D03*
X162020000Y-77725000D03*
%TD*%
D28*
%TO.C,R4*%
X138300000Y-103100000D03*
X138300000Y-100175000D03*
%TD*%
D29*
%TO.C,R39*%
X146310000Y-66200000D03*
X144660000Y-66200000D03*
%TD*%
D30*
%TO.C,U1*%
X132675000Y-82200000D03*
X132675000Y-83150000D03*
X132675000Y-84100000D03*
X135185000Y-84100000D03*
X135185000Y-83150000D03*
X135185000Y-82200000D03*
%TD*%
D31*
%TO.C,S1*%
X138050000Y-67900000D03*
X139650000Y-67900000D03*
X139650000Y-63800000D03*
X138050000Y-63800000D03*
D32*
X137425000Y-65850000D03*
%TD*%
D16*
%TO.C,R1*%
X135100000Y-103100000D03*
X129175000Y-103100000D03*
%TD*%
D33*
%TO.C,R37*%
X129970000Y-77050000D03*
X129970000Y-78700000D03*
%TD*%
D15*
%TO.C,R34*%
X140210000Y-76300000D03*
X139190000Y-76300000D03*
%TD*%
D34*
%TO.C,R27*%
X158537500Y-112400000D03*
X161462500Y-112400000D03*
%TD*%
D35*
%TO.C,R6*%
X150387500Y-100362500D03*
X150387500Y-98537500D03*
%TD*%
D36*
%TO.C,R42*%
X133412500Y-96600000D03*
X130487500Y-96600000D03*
%TD*%
D37*
%TO.C,J8*%
X132300000Y-78250000D03*
X132300000Y-76750000D03*
X132300000Y-76250000D03*
X132300000Y-75750000D03*
X132300000Y-75250000D03*
X132300000Y-74750000D03*
X132300000Y-74250000D03*
X132300000Y-72750000D03*
X135270000Y-72750000D03*
X135270000Y-74250000D03*
X135270000Y-74750000D03*
X135270000Y-75250000D03*
X135270000Y-75750000D03*
X135270000Y-76250000D03*
X135270000Y-76750000D03*
X135270000Y-78250000D03*
%TD*%
D38*
%TO.C,C39*%
X135050000Y-69575000D03*
X136600000Y-69575000D03*
%TD*%
D39*
%TO.C,D1*%
X181915000Y-93375000D03*
X177485000Y-93375000D03*
%TD*%
D40*
%TO.C,LED1*%
X141622500Y-66200000D03*
X143197500Y-66200000D03*
%TD*%
D41*
%TO.C,R3*%
X154725000Y-102175000D03*
X160650000Y-102175000D03*
%TD*%
D36*
%TO.C,R28*%
X161362500Y-109900000D03*
X158437500Y-109900000D03*
%TD*%
D31*
%TO.C,S2*%
X134100000Y-67900000D03*
X135700000Y-67900000D03*
X135700000Y-63800000D03*
X134100000Y-63800000D03*
D32*
X133475000Y-65850000D03*
%TD*%
D42*
%TO.C,R9*%
X146825000Y-93700000D03*
X146825000Y-95700000D03*
%TD*%
D19*
%TO.C,C42*%
X140460000Y-83750000D03*
X139500000Y-83750000D03*
%TD*%
D25*
%TO.C,R7*%
X142625000Y-95700000D03*
X142625000Y-93700000D03*
%TD*%
M02*
