%TF.GenerationSoftware,KiCad,Pcbnew,10.0.5*%
%TF.CreationDate,2026-08-30T14:17:10-05:00*%
%TF.ProjectId,PelletPirate_V5,50656c6c-6574-4506-9972-6174655f5635,rev?*%
%TF.SameCoordinates,Original*%
%TF.FileFunction,Legend,Bot*%
%TF.FilePolarity,Positive*%
%FSLAX46Y46*%
G04 Gerber Fmt 4.6, Leading zero omitted, Abs format (unit mm)*
G04 Created by KiCad (PCBNEW 10.0.5) date 2026-08-30 14:17:10*
%MOMM*%
%LPD*%
G01*
G04 APERTURE LIST*
%ADD10C,0.357391*%
%ADD11C,0.200000*%
%ADD12C,0.150000*%
%ADD13C,0.160000*%
%ADD14C,0.120000*%
%ADD15C,0.203200*%
%ADD16C,0.127000*%
G04 APERTURE END LIST*
D10*
X133021304Y-89200000D02*
G75*
G02*
X132663914Y-89200000I-178695J0D01*
G01*
X132663914Y-89200000D02*
G75*
G02*
X133021304Y-89200000I178695J0D01*
G01*
D11*
X162733304Y-97454136D02*
X162733304Y-96958898D01*
X162733304Y-96958898D02*
X162428542Y-97225564D01*
X162428542Y-97225564D02*
X162428542Y-97111279D01*
X162428542Y-97111279D02*
X162390447Y-97035088D01*
X162390447Y-97035088D02*
X162352352Y-96996993D01*
X162352352Y-96996993D02*
X162276161Y-96958898D01*
X162276161Y-96958898D02*
X162085685Y-96958898D01*
X162085685Y-96958898D02*
X162009495Y-96996993D01*
X162009495Y-96996993D02*
X161971400Y-97035088D01*
X161971400Y-97035088D02*
X161933304Y-97111279D01*
X161933304Y-97111279D02*
X161933304Y-97339850D01*
X161933304Y-97339850D02*
X161971400Y-97416041D01*
X161971400Y-97416041D02*
X162009495Y-97454136D01*
X162733304Y-96463659D02*
X162733304Y-96387469D01*
X162733304Y-96387469D02*
X162695209Y-96311278D01*
X162695209Y-96311278D02*
X162657114Y-96273183D01*
X162657114Y-96273183D02*
X162580923Y-96235088D01*
X162580923Y-96235088D02*
X162428542Y-96196993D01*
X162428542Y-96196993D02*
X162238066Y-96196993D01*
X162238066Y-96196993D02*
X162085685Y-96235088D01*
X162085685Y-96235088D02*
X162009495Y-96273183D01*
X162009495Y-96273183D02*
X161971400Y-96311278D01*
X161971400Y-96311278D02*
X161933304Y-96387469D01*
X161933304Y-96387469D02*
X161933304Y-96463659D01*
X161933304Y-96463659D02*
X161971400Y-96539850D01*
X161971400Y-96539850D02*
X162009495Y-96577945D01*
X162009495Y-96577945D02*
X162085685Y-96616040D01*
X162085685Y-96616040D02*
X162238066Y-96654136D01*
X162238066Y-96654136D02*
X162428542Y-96654136D01*
X162428542Y-96654136D02*
X162580923Y-96616040D01*
X162580923Y-96616040D02*
X162657114Y-96577945D01*
X162657114Y-96577945D02*
X162695209Y-96539850D01*
X162695209Y-96539850D02*
X162733304Y-96463659D01*
X162733304Y-95473183D02*
X162733304Y-95854135D01*
X162733304Y-95854135D02*
X162352352Y-95892231D01*
X162352352Y-95892231D02*
X162390447Y-95854135D01*
X162390447Y-95854135D02*
X162428542Y-95777945D01*
X162428542Y-95777945D02*
X162428542Y-95587469D01*
X162428542Y-95587469D02*
X162390447Y-95511278D01*
X162390447Y-95511278D02*
X162352352Y-95473183D01*
X162352352Y-95473183D02*
X162276161Y-95435088D01*
X162276161Y-95435088D02*
X162085685Y-95435088D01*
X162085685Y-95435088D02*
X162009495Y-95473183D01*
X162009495Y-95473183D02*
X161971400Y-95511278D01*
X161971400Y-95511278D02*
X161933304Y-95587469D01*
X161933304Y-95587469D02*
X161933304Y-95777945D01*
X161933304Y-95777945D02*
X161971400Y-95854135D01*
X161971400Y-95854135D02*
X162009495Y-95892231D01*
X162733304Y-95168421D02*
X162733304Y-94673183D01*
X162733304Y-94673183D02*
X162428542Y-94939849D01*
X162428542Y-94939849D02*
X162428542Y-94825564D01*
X162428542Y-94825564D02*
X162390447Y-94749373D01*
X162390447Y-94749373D02*
X162352352Y-94711278D01*
X162352352Y-94711278D02*
X162276161Y-94673183D01*
X162276161Y-94673183D02*
X162085685Y-94673183D01*
X162085685Y-94673183D02*
X162009495Y-94711278D01*
X162009495Y-94711278D02*
X161971400Y-94749373D01*
X161971400Y-94749373D02*
X161933304Y-94825564D01*
X161933304Y-94825564D02*
X161933304Y-95054135D01*
X161933304Y-95054135D02*
X161971400Y-95130326D01*
X161971400Y-95130326D02*
X162009495Y-95168421D01*
X161933304Y-94330325D02*
X162733304Y-94330325D01*
X162733304Y-94330325D02*
X162161876Y-94063659D01*
X162161876Y-94063659D02*
X162733304Y-93796992D01*
X162733304Y-93796992D02*
X161933304Y-93796992D01*
D12*
X135004285Y-60456104D02*
X135042381Y-60494200D01*
X135042381Y-60494200D02*
X135156666Y-60532295D01*
X135156666Y-60532295D02*
X135232857Y-60532295D01*
X135232857Y-60532295D02*
X135347143Y-60494200D01*
X135347143Y-60494200D02*
X135423333Y-60418009D01*
X135423333Y-60418009D02*
X135461428Y-60341819D01*
X135461428Y-60341819D02*
X135499524Y-60189438D01*
X135499524Y-60189438D02*
X135499524Y-60075152D01*
X135499524Y-60075152D02*
X135461428Y-59922771D01*
X135461428Y-59922771D02*
X135423333Y-59846580D01*
X135423333Y-59846580D02*
X135347143Y-59770390D01*
X135347143Y-59770390D02*
X135232857Y-59732295D01*
X135232857Y-59732295D02*
X135156666Y-59732295D01*
X135156666Y-59732295D02*
X135042381Y-59770390D01*
X135042381Y-59770390D02*
X135004285Y-59808485D01*
X134699524Y-59808485D02*
X134661428Y-59770390D01*
X134661428Y-59770390D02*
X134585238Y-59732295D01*
X134585238Y-59732295D02*
X134394762Y-59732295D01*
X134394762Y-59732295D02*
X134318571Y-59770390D01*
X134318571Y-59770390D02*
X134280476Y-59808485D01*
X134280476Y-59808485D02*
X134242381Y-59884676D01*
X134242381Y-59884676D02*
X134242381Y-59960866D01*
X134242381Y-59960866D02*
X134280476Y-60075152D01*
X134280476Y-60075152D02*
X134737619Y-60532295D01*
X134737619Y-60532295D02*
X134242381Y-60532295D01*
X133480476Y-60532295D02*
X133937619Y-60532295D01*
X133709047Y-60532295D02*
X133709047Y-59732295D01*
X133709047Y-59732295D02*
X133785238Y-59846580D01*
X133785238Y-59846580D02*
X133861428Y-59922771D01*
X133861428Y-59922771D02*
X133937619Y-59960866D01*
X183436795Y-85493666D02*
X183436795Y-85112714D01*
X183436795Y-85112714D02*
X182636795Y-85112714D01*
X182636795Y-85684142D02*
X182636795Y-86179380D01*
X182636795Y-86179380D02*
X182941557Y-85912714D01*
X182941557Y-85912714D02*
X182941557Y-86026999D01*
X182941557Y-86026999D02*
X182979652Y-86103190D01*
X182979652Y-86103190D02*
X183017747Y-86141285D01*
X183017747Y-86141285D02*
X183093938Y-86179380D01*
X183093938Y-86179380D02*
X183284414Y-86179380D01*
X183284414Y-86179380D02*
X183360604Y-86141285D01*
X183360604Y-86141285D02*
X183398700Y-86103190D01*
X183398700Y-86103190D02*
X183436795Y-86026999D01*
X183436795Y-86026999D02*
X183436795Y-85798428D01*
X183436795Y-85798428D02*
X183398700Y-85722237D01*
X183398700Y-85722237D02*
X183360604Y-85684142D01*
X173012295Y-75306964D02*
X172631342Y-75040297D01*
X173012295Y-74849821D02*
X172212295Y-74849821D01*
X172212295Y-74849821D02*
X172212295Y-75154583D01*
X172212295Y-75154583D02*
X172250390Y-75230773D01*
X172250390Y-75230773D02*
X172288485Y-75268868D01*
X172288485Y-75268868D02*
X172364676Y-75306964D01*
X172364676Y-75306964D02*
X172478961Y-75306964D01*
X172478961Y-75306964D02*
X172555152Y-75268868D01*
X172555152Y-75268868D02*
X172593247Y-75230773D01*
X172593247Y-75230773D02*
X172631342Y-75154583D01*
X172631342Y-75154583D02*
X172631342Y-74849821D01*
X173012295Y-76068868D02*
X173012295Y-75611725D01*
X173012295Y-75840297D02*
X172212295Y-75840297D01*
X172212295Y-75840297D02*
X172326580Y-75764106D01*
X172326580Y-75764106D02*
X172402771Y-75687916D01*
X172402771Y-75687916D02*
X172440866Y-75611725D01*
X173012295Y-76449821D02*
X173012295Y-76602202D01*
X173012295Y-76602202D02*
X172974200Y-76678392D01*
X172974200Y-76678392D02*
X172936104Y-76716488D01*
X172936104Y-76716488D02*
X172821819Y-76792678D01*
X172821819Y-76792678D02*
X172669438Y-76830773D01*
X172669438Y-76830773D02*
X172364676Y-76830773D01*
X172364676Y-76830773D02*
X172288485Y-76792678D01*
X172288485Y-76792678D02*
X172250390Y-76754583D01*
X172250390Y-76754583D02*
X172212295Y-76678392D01*
X172212295Y-76678392D02*
X172212295Y-76526011D01*
X172212295Y-76526011D02*
X172250390Y-76449821D01*
X172250390Y-76449821D02*
X172288485Y-76411726D01*
X172288485Y-76411726D02*
X172364676Y-76373630D01*
X172364676Y-76373630D02*
X172555152Y-76373630D01*
X172555152Y-76373630D02*
X172631342Y-76411726D01*
X172631342Y-76411726D02*
X172669438Y-76449821D01*
X172669438Y-76449821D02*
X172707533Y-76526011D01*
X172707533Y-76526011D02*
X172707533Y-76678392D01*
X172707533Y-76678392D02*
X172669438Y-76754583D01*
X172669438Y-76754583D02*
X172631342Y-76792678D01*
X172631342Y-76792678D02*
X172555152Y-76830773D01*
X143839285Y-67961104D02*
X143877381Y-67999200D01*
X143877381Y-67999200D02*
X143991666Y-68037295D01*
X143991666Y-68037295D02*
X144067857Y-68037295D01*
X144067857Y-68037295D02*
X144182143Y-67999200D01*
X144182143Y-67999200D02*
X144258333Y-67923009D01*
X144258333Y-67923009D02*
X144296428Y-67846819D01*
X144296428Y-67846819D02*
X144334524Y-67694438D01*
X144334524Y-67694438D02*
X144334524Y-67580152D01*
X144334524Y-67580152D02*
X144296428Y-67427771D01*
X144296428Y-67427771D02*
X144258333Y-67351580D01*
X144258333Y-67351580D02*
X144182143Y-67275390D01*
X144182143Y-67275390D02*
X144067857Y-67237295D01*
X144067857Y-67237295D02*
X143991666Y-67237295D01*
X143991666Y-67237295D02*
X143877381Y-67275390D01*
X143877381Y-67275390D02*
X143839285Y-67313485D01*
X143077381Y-68037295D02*
X143534524Y-68037295D01*
X143305952Y-68037295D02*
X143305952Y-67237295D01*
X143305952Y-67237295D02*
X143382143Y-67351580D01*
X143382143Y-67351580D02*
X143458333Y-67427771D01*
X143458333Y-67427771D02*
X143534524Y-67465866D01*
X142810714Y-67237295D02*
X142277380Y-67237295D01*
X142277380Y-67237295D02*
X142620238Y-68037295D01*
X135104285Y-55456104D02*
X135142381Y-55494200D01*
X135142381Y-55494200D02*
X135256666Y-55532295D01*
X135256666Y-55532295D02*
X135332857Y-55532295D01*
X135332857Y-55532295D02*
X135447143Y-55494200D01*
X135447143Y-55494200D02*
X135523333Y-55418009D01*
X135523333Y-55418009D02*
X135561428Y-55341819D01*
X135561428Y-55341819D02*
X135599524Y-55189438D01*
X135599524Y-55189438D02*
X135599524Y-55075152D01*
X135599524Y-55075152D02*
X135561428Y-54922771D01*
X135561428Y-54922771D02*
X135523333Y-54846580D01*
X135523333Y-54846580D02*
X135447143Y-54770390D01*
X135447143Y-54770390D02*
X135332857Y-54732295D01*
X135332857Y-54732295D02*
X135256666Y-54732295D01*
X135256666Y-54732295D02*
X135142381Y-54770390D01*
X135142381Y-54770390D02*
X135104285Y-54808485D01*
X134837619Y-54732295D02*
X134342381Y-54732295D01*
X134342381Y-54732295D02*
X134609047Y-55037057D01*
X134609047Y-55037057D02*
X134494762Y-55037057D01*
X134494762Y-55037057D02*
X134418571Y-55075152D01*
X134418571Y-55075152D02*
X134380476Y-55113247D01*
X134380476Y-55113247D02*
X134342381Y-55189438D01*
X134342381Y-55189438D02*
X134342381Y-55379914D01*
X134342381Y-55379914D02*
X134380476Y-55456104D01*
X134380476Y-55456104D02*
X134418571Y-55494200D01*
X134418571Y-55494200D02*
X134494762Y-55532295D01*
X134494762Y-55532295D02*
X134723333Y-55532295D01*
X134723333Y-55532295D02*
X134799524Y-55494200D01*
X134799524Y-55494200D02*
X134837619Y-55456104D01*
X133580476Y-55532295D02*
X134037619Y-55532295D01*
X133809047Y-55532295D02*
X133809047Y-54732295D01*
X133809047Y-54732295D02*
X133885238Y-54846580D01*
X133885238Y-54846580D02*
X133961428Y-54922771D01*
X133961428Y-54922771D02*
X134037619Y-54960866D01*
X176641242Y-82562776D02*
X176641242Y-81761737D01*
X176641242Y-81761737D02*
X176450518Y-81761737D01*
X176450518Y-81761737D02*
X176336084Y-81799882D01*
X176336084Y-81799882D02*
X176259795Y-81876171D01*
X176259795Y-81876171D02*
X176221650Y-81952461D01*
X176221650Y-81952461D02*
X176183505Y-82105040D01*
X176183505Y-82105040D02*
X176183505Y-82219474D01*
X176183505Y-82219474D02*
X176221650Y-82372053D01*
X176221650Y-82372053D02*
X176259795Y-82448342D01*
X176259795Y-82448342D02*
X176336084Y-82524632D01*
X176336084Y-82524632D02*
X176450518Y-82562776D01*
X176450518Y-82562776D02*
X176641242Y-82562776D01*
X175878348Y-81838027D02*
X175840203Y-81799882D01*
X175840203Y-81799882D02*
X175763914Y-81761737D01*
X175763914Y-81761737D02*
X175573190Y-81761737D01*
X175573190Y-81761737D02*
X175496901Y-81799882D01*
X175496901Y-81799882D02*
X175458756Y-81838027D01*
X175458756Y-81838027D02*
X175420611Y-81914316D01*
X175420611Y-81914316D02*
X175420611Y-81990606D01*
X175420611Y-81990606D02*
X175458756Y-82105040D01*
X175458756Y-82105040D02*
X175916492Y-82562776D01*
X175916492Y-82562776D02*
X175420611Y-82562776D01*
X129812295Y-93183333D02*
X130383723Y-93183333D01*
X130383723Y-93183333D02*
X130498009Y-93145238D01*
X130498009Y-93145238D02*
X130574200Y-93069047D01*
X130574200Y-93069047D02*
X130612295Y-92954762D01*
X130612295Y-92954762D02*
X130612295Y-92878571D01*
X129812295Y-93907143D02*
X129812295Y-93754762D01*
X129812295Y-93754762D02*
X129850390Y-93678571D01*
X129850390Y-93678571D02*
X129888485Y-93640476D01*
X129888485Y-93640476D02*
X130002771Y-93564286D01*
X130002771Y-93564286D02*
X130155152Y-93526190D01*
X130155152Y-93526190D02*
X130459914Y-93526190D01*
X130459914Y-93526190D02*
X130536104Y-93564286D01*
X130536104Y-93564286D02*
X130574200Y-93602381D01*
X130574200Y-93602381D02*
X130612295Y-93678571D01*
X130612295Y-93678571D02*
X130612295Y-93830952D01*
X130612295Y-93830952D02*
X130574200Y-93907143D01*
X130574200Y-93907143D02*
X130536104Y-93945238D01*
X130536104Y-93945238D02*
X130459914Y-93983333D01*
X130459914Y-93983333D02*
X130269438Y-93983333D01*
X130269438Y-93983333D02*
X130193247Y-93945238D01*
X130193247Y-93945238D02*
X130155152Y-93907143D01*
X130155152Y-93907143D02*
X130117057Y-93830952D01*
X130117057Y-93830952D02*
X130117057Y-93678571D01*
X130117057Y-93678571D02*
X130155152Y-93602381D01*
X130155152Y-93602381D02*
X130193247Y-93564286D01*
X130193247Y-93564286D02*
X130269438Y-93526190D01*
X155336104Y-60160714D02*
X155374200Y-60122618D01*
X155374200Y-60122618D02*
X155412295Y-60008333D01*
X155412295Y-60008333D02*
X155412295Y-59932142D01*
X155412295Y-59932142D02*
X155374200Y-59817856D01*
X155374200Y-59817856D02*
X155298009Y-59741666D01*
X155298009Y-59741666D02*
X155221819Y-59703571D01*
X155221819Y-59703571D02*
X155069438Y-59665475D01*
X155069438Y-59665475D02*
X154955152Y-59665475D01*
X154955152Y-59665475D02*
X154802771Y-59703571D01*
X154802771Y-59703571D02*
X154726580Y-59741666D01*
X154726580Y-59741666D02*
X154650390Y-59817856D01*
X154650390Y-59817856D02*
X154612295Y-59932142D01*
X154612295Y-59932142D02*
X154612295Y-60008333D01*
X154612295Y-60008333D02*
X154650390Y-60122618D01*
X154650390Y-60122618D02*
X154688485Y-60160714D01*
X154688485Y-60465475D02*
X154650390Y-60503571D01*
X154650390Y-60503571D02*
X154612295Y-60579761D01*
X154612295Y-60579761D02*
X154612295Y-60770237D01*
X154612295Y-60770237D02*
X154650390Y-60846428D01*
X154650390Y-60846428D02*
X154688485Y-60884523D01*
X154688485Y-60884523D02*
X154764676Y-60922618D01*
X154764676Y-60922618D02*
X154840866Y-60922618D01*
X154840866Y-60922618D02*
X154955152Y-60884523D01*
X154955152Y-60884523D02*
X155412295Y-60427380D01*
X155412295Y-60427380D02*
X155412295Y-60922618D01*
X154612295Y-61189285D02*
X154612295Y-61722619D01*
X154612295Y-61722619D02*
X155412295Y-61379761D01*
X177664285Y-53836104D02*
X177702381Y-53874200D01*
X177702381Y-53874200D02*
X177816666Y-53912295D01*
X177816666Y-53912295D02*
X177892857Y-53912295D01*
X177892857Y-53912295D02*
X178007143Y-53874200D01*
X178007143Y-53874200D02*
X178083333Y-53798009D01*
X178083333Y-53798009D02*
X178121428Y-53721819D01*
X178121428Y-53721819D02*
X178159524Y-53569438D01*
X178159524Y-53569438D02*
X178159524Y-53455152D01*
X178159524Y-53455152D02*
X178121428Y-53302771D01*
X178121428Y-53302771D02*
X178083333Y-53226580D01*
X178083333Y-53226580D02*
X178007143Y-53150390D01*
X178007143Y-53150390D02*
X177892857Y-53112295D01*
X177892857Y-53112295D02*
X177816666Y-53112295D01*
X177816666Y-53112295D02*
X177702381Y-53150390D01*
X177702381Y-53150390D02*
X177664285Y-53188485D01*
X177397619Y-53112295D02*
X176902381Y-53112295D01*
X176902381Y-53112295D02*
X177169047Y-53417057D01*
X177169047Y-53417057D02*
X177054762Y-53417057D01*
X177054762Y-53417057D02*
X176978571Y-53455152D01*
X176978571Y-53455152D02*
X176940476Y-53493247D01*
X176940476Y-53493247D02*
X176902381Y-53569438D01*
X176902381Y-53569438D02*
X176902381Y-53759914D01*
X176902381Y-53759914D02*
X176940476Y-53836104D01*
X176940476Y-53836104D02*
X176978571Y-53874200D01*
X176978571Y-53874200D02*
X177054762Y-53912295D01*
X177054762Y-53912295D02*
X177283333Y-53912295D01*
X177283333Y-53912295D02*
X177359524Y-53874200D01*
X177359524Y-53874200D02*
X177397619Y-53836104D01*
X176178571Y-53112295D02*
X176559523Y-53112295D01*
X176559523Y-53112295D02*
X176597619Y-53493247D01*
X176597619Y-53493247D02*
X176559523Y-53455152D01*
X176559523Y-53455152D02*
X176483333Y-53417057D01*
X176483333Y-53417057D02*
X176292857Y-53417057D01*
X176292857Y-53417057D02*
X176216666Y-53455152D01*
X176216666Y-53455152D02*
X176178571Y-53493247D01*
X176178571Y-53493247D02*
X176140476Y-53569438D01*
X176140476Y-53569438D02*
X176140476Y-53759914D01*
X176140476Y-53759914D02*
X176178571Y-53836104D01*
X176178571Y-53836104D02*
X176216666Y-53874200D01*
X176216666Y-53874200D02*
X176292857Y-53912295D01*
X176292857Y-53912295D02*
X176483333Y-53912295D01*
X176483333Y-53912295D02*
X176559523Y-53874200D01*
X176559523Y-53874200D02*
X176597619Y-53836104D01*
X184226104Y-58248214D02*
X184264200Y-58210118D01*
X184264200Y-58210118D02*
X184302295Y-58095833D01*
X184302295Y-58095833D02*
X184302295Y-58019642D01*
X184302295Y-58019642D02*
X184264200Y-57905356D01*
X184264200Y-57905356D02*
X184188009Y-57829166D01*
X184188009Y-57829166D02*
X184111819Y-57791071D01*
X184111819Y-57791071D02*
X183959438Y-57752975D01*
X183959438Y-57752975D02*
X183845152Y-57752975D01*
X183845152Y-57752975D02*
X183692771Y-57791071D01*
X183692771Y-57791071D02*
X183616580Y-57829166D01*
X183616580Y-57829166D02*
X183540390Y-57905356D01*
X183540390Y-57905356D02*
X183502295Y-58019642D01*
X183502295Y-58019642D02*
X183502295Y-58095833D01*
X183502295Y-58095833D02*
X183540390Y-58210118D01*
X183540390Y-58210118D02*
X183578485Y-58248214D01*
X183502295Y-58514880D02*
X183502295Y-59010118D01*
X183502295Y-59010118D02*
X183807057Y-58743452D01*
X183807057Y-58743452D02*
X183807057Y-58857737D01*
X183807057Y-58857737D02*
X183845152Y-58933928D01*
X183845152Y-58933928D02*
X183883247Y-58972023D01*
X183883247Y-58972023D02*
X183959438Y-59010118D01*
X183959438Y-59010118D02*
X184149914Y-59010118D01*
X184149914Y-59010118D02*
X184226104Y-58972023D01*
X184226104Y-58972023D02*
X184264200Y-58933928D01*
X184264200Y-58933928D02*
X184302295Y-58857737D01*
X184302295Y-58857737D02*
X184302295Y-58629166D01*
X184302295Y-58629166D02*
X184264200Y-58552975D01*
X184264200Y-58552975D02*
X184226104Y-58514880D01*
X183502295Y-59505357D02*
X183502295Y-59581547D01*
X183502295Y-59581547D02*
X183540390Y-59657738D01*
X183540390Y-59657738D02*
X183578485Y-59695833D01*
X183578485Y-59695833D02*
X183654676Y-59733928D01*
X183654676Y-59733928D02*
X183807057Y-59772023D01*
X183807057Y-59772023D02*
X183997533Y-59772023D01*
X183997533Y-59772023D02*
X184149914Y-59733928D01*
X184149914Y-59733928D02*
X184226104Y-59695833D01*
X184226104Y-59695833D02*
X184264200Y-59657738D01*
X184264200Y-59657738D02*
X184302295Y-59581547D01*
X184302295Y-59581547D02*
X184302295Y-59505357D01*
X184302295Y-59505357D02*
X184264200Y-59429166D01*
X184264200Y-59429166D02*
X184226104Y-59391071D01*
X184226104Y-59391071D02*
X184149914Y-59352976D01*
X184149914Y-59352976D02*
X183997533Y-59314880D01*
X183997533Y-59314880D02*
X183807057Y-59314880D01*
X183807057Y-59314880D02*
X183654676Y-59352976D01*
X183654676Y-59352976D02*
X183578485Y-59391071D01*
X183578485Y-59391071D02*
X183540390Y-59429166D01*
X183540390Y-59429166D02*
X183502295Y-59505357D01*
X179233497Y-66237295D02*
X179500164Y-65856342D01*
X179690640Y-66237295D02*
X179690640Y-65437295D01*
X179690640Y-65437295D02*
X179385878Y-65437295D01*
X179385878Y-65437295D02*
X179309688Y-65475390D01*
X179309688Y-65475390D02*
X179271593Y-65513485D01*
X179271593Y-65513485D02*
X179233497Y-65589676D01*
X179233497Y-65589676D02*
X179233497Y-65703961D01*
X179233497Y-65703961D02*
X179271593Y-65780152D01*
X179271593Y-65780152D02*
X179309688Y-65818247D01*
X179309688Y-65818247D02*
X179385878Y-65856342D01*
X179385878Y-65856342D02*
X179690640Y-65856342D01*
X178471593Y-66237295D02*
X178928736Y-66237295D01*
X178700164Y-66237295D02*
X178700164Y-65437295D01*
X178700164Y-65437295D02*
X178776355Y-65551580D01*
X178776355Y-65551580D02*
X178852545Y-65627771D01*
X178852545Y-65627771D02*
X178928736Y-65665866D01*
X178204926Y-65437295D02*
X177671592Y-65437295D01*
X177671592Y-65437295D02*
X178014450Y-66237295D01*
D13*
X183711775Y-72528571D02*
X182911775Y-72528571D01*
X182911775Y-72528571D02*
X182911775Y-72833333D01*
X182911775Y-72833333D02*
X182949870Y-72909523D01*
X182949870Y-72909523D02*
X182987965Y-72947618D01*
X182987965Y-72947618D02*
X183064156Y-72985714D01*
X183064156Y-72985714D02*
X183178441Y-72985714D01*
X183178441Y-72985714D02*
X183254632Y-72947618D01*
X183254632Y-72947618D02*
X183292727Y-72909523D01*
X183292727Y-72909523D02*
X183330822Y-72833333D01*
X183330822Y-72833333D02*
X183330822Y-72528571D01*
X183673680Y-73290475D02*
X183711775Y-73404761D01*
X183711775Y-73404761D02*
X183711775Y-73595237D01*
X183711775Y-73595237D02*
X183673680Y-73671428D01*
X183673680Y-73671428D02*
X183635584Y-73709523D01*
X183635584Y-73709523D02*
X183559394Y-73747618D01*
X183559394Y-73747618D02*
X183483203Y-73747618D01*
X183483203Y-73747618D02*
X183407013Y-73709523D01*
X183407013Y-73709523D02*
X183368918Y-73671428D01*
X183368918Y-73671428D02*
X183330822Y-73595237D01*
X183330822Y-73595237D02*
X183292727Y-73442856D01*
X183292727Y-73442856D02*
X183254632Y-73366666D01*
X183254632Y-73366666D02*
X183216537Y-73328571D01*
X183216537Y-73328571D02*
X183140346Y-73290475D01*
X183140346Y-73290475D02*
X183064156Y-73290475D01*
X183064156Y-73290475D02*
X182987965Y-73328571D01*
X182987965Y-73328571D02*
X182949870Y-73366666D01*
X182949870Y-73366666D02*
X182911775Y-73442856D01*
X182911775Y-73442856D02*
X182911775Y-73633333D01*
X182911775Y-73633333D02*
X182949870Y-73747618D01*
X182911775Y-74014285D02*
X182911775Y-74509523D01*
X182911775Y-74509523D02*
X183216537Y-74242857D01*
X183216537Y-74242857D02*
X183216537Y-74357142D01*
X183216537Y-74357142D02*
X183254632Y-74433333D01*
X183254632Y-74433333D02*
X183292727Y-74471428D01*
X183292727Y-74471428D02*
X183368918Y-74509523D01*
X183368918Y-74509523D02*
X183559394Y-74509523D01*
X183559394Y-74509523D02*
X183635584Y-74471428D01*
X183635584Y-74471428D02*
X183673680Y-74433333D01*
X183673680Y-74433333D02*
X183711775Y-74357142D01*
X183711775Y-74357142D02*
X183711775Y-74128571D01*
X183711775Y-74128571D02*
X183673680Y-74052380D01*
X183673680Y-74052380D02*
X183635584Y-74014285D01*
D12*
X180939285Y-78087295D02*
X181205952Y-77706342D01*
X181396428Y-78087295D02*
X181396428Y-77287295D01*
X181396428Y-77287295D02*
X181091666Y-77287295D01*
X181091666Y-77287295D02*
X181015476Y-77325390D01*
X181015476Y-77325390D02*
X180977381Y-77363485D01*
X180977381Y-77363485D02*
X180939285Y-77439676D01*
X180939285Y-77439676D02*
X180939285Y-77553961D01*
X180939285Y-77553961D02*
X180977381Y-77630152D01*
X180977381Y-77630152D02*
X181015476Y-77668247D01*
X181015476Y-77668247D02*
X181091666Y-77706342D01*
X181091666Y-77706342D02*
X181396428Y-77706342D01*
X180177381Y-78087295D02*
X180634524Y-78087295D01*
X180405952Y-78087295D02*
X180405952Y-77287295D01*
X180405952Y-77287295D02*
X180482143Y-77401580D01*
X180482143Y-77401580D02*
X180558333Y-77477771D01*
X180558333Y-77477771D02*
X180634524Y-77515866D01*
X179491666Y-77287295D02*
X179644047Y-77287295D01*
X179644047Y-77287295D02*
X179720238Y-77325390D01*
X179720238Y-77325390D02*
X179758333Y-77363485D01*
X179758333Y-77363485D02*
X179834523Y-77477771D01*
X179834523Y-77477771D02*
X179872619Y-77630152D01*
X179872619Y-77630152D02*
X179872619Y-77934914D01*
X179872619Y-77934914D02*
X179834523Y-78011104D01*
X179834523Y-78011104D02*
X179796428Y-78049200D01*
X179796428Y-78049200D02*
X179720238Y-78087295D01*
X179720238Y-78087295D02*
X179567857Y-78087295D01*
X179567857Y-78087295D02*
X179491666Y-78049200D01*
X179491666Y-78049200D02*
X179453571Y-78011104D01*
X179453571Y-78011104D02*
X179415476Y-77934914D01*
X179415476Y-77934914D02*
X179415476Y-77744438D01*
X179415476Y-77744438D02*
X179453571Y-77668247D01*
X179453571Y-77668247D02*
X179491666Y-77630152D01*
X179491666Y-77630152D02*
X179567857Y-77592057D01*
X179567857Y-77592057D02*
X179720238Y-77592057D01*
X179720238Y-77592057D02*
X179796428Y-77630152D01*
X179796428Y-77630152D02*
X179834523Y-77668247D01*
X179834523Y-77668247D02*
X179872619Y-77744438D01*
X147933332Y-116836104D02*
X147971428Y-116874200D01*
X147971428Y-116874200D02*
X148085713Y-116912295D01*
X148085713Y-116912295D02*
X148161904Y-116912295D01*
X148161904Y-116912295D02*
X148276190Y-116874200D01*
X148276190Y-116874200D02*
X148352380Y-116798009D01*
X148352380Y-116798009D02*
X148390475Y-116721819D01*
X148390475Y-116721819D02*
X148428571Y-116569438D01*
X148428571Y-116569438D02*
X148428571Y-116455152D01*
X148428571Y-116455152D02*
X148390475Y-116302771D01*
X148390475Y-116302771D02*
X148352380Y-116226580D01*
X148352380Y-116226580D02*
X148276190Y-116150390D01*
X148276190Y-116150390D02*
X148161904Y-116112295D01*
X148161904Y-116112295D02*
X148085713Y-116112295D01*
X148085713Y-116112295D02*
X147971428Y-116150390D01*
X147971428Y-116150390D02*
X147933332Y-116188485D01*
X147628571Y-116188485D02*
X147590475Y-116150390D01*
X147590475Y-116150390D02*
X147514285Y-116112295D01*
X147514285Y-116112295D02*
X147323809Y-116112295D01*
X147323809Y-116112295D02*
X147247618Y-116150390D01*
X147247618Y-116150390D02*
X147209523Y-116188485D01*
X147209523Y-116188485D02*
X147171428Y-116264676D01*
X147171428Y-116264676D02*
X147171428Y-116340866D01*
X147171428Y-116340866D02*
X147209523Y-116455152D01*
X147209523Y-116455152D02*
X147666666Y-116912295D01*
X147666666Y-116912295D02*
X147171428Y-116912295D01*
X146164285Y-68011104D02*
X146202381Y-68049200D01*
X146202381Y-68049200D02*
X146316666Y-68087295D01*
X146316666Y-68087295D02*
X146392857Y-68087295D01*
X146392857Y-68087295D02*
X146507143Y-68049200D01*
X146507143Y-68049200D02*
X146583333Y-67973009D01*
X146583333Y-67973009D02*
X146621428Y-67896819D01*
X146621428Y-67896819D02*
X146659524Y-67744438D01*
X146659524Y-67744438D02*
X146659524Y-67630152D01*
X146659524Y-67630152D02*
X146621428Y-67477771D01*
X146621428Y-67477771D02*
X146583333Y-67401580D01*
X146583333Y-67401580D02*
X146507143Y-67325390D01*
X146507143Y-67325390D02*
X146392857Y-67287295D01*
X146392857Y-67287295D02*
X146316666Y-67287295D01*
X146316666Y-67287295D02*
X146202381Y-67325390D01*
X146202381Y-67325390D02*
X146164285Y-67363485D01*
X145897619Y-67287295D02*
X145402381Y-67287295D01*
X145402381Y-67287295D02*
X145669047Y-67592057D01*
X145669047Y-67592057D02*
X145554762Y-67592057D01*
X145554762Y-67592057D02*
X145478571Y-67630152D01*
X145478571Y-67630152D02*
X145440476Y-67668247D01*
X145440476Y-67668247D02*
X145402381Y-67744438D01*
X145402381Y-67744438D02*
X145402381Y-67934914D01*
X145402381Y-67934914D02*
X145440476Y-68011104D01*
X145440476Y-68011104D02*
X145478571Y-68049200D01*
X145478571Y-68049200D02*
X145554762Y-68087295D01*
X145554762Y-68087295D02*
X145783333Y-68087295D01*
X145783333Y-68087295D02*
X145859524Y-68049200D01*
X145859524Y-68049200D02*
X145897619Y-68011104D01*
X145135714Y-67287295D02*
X144602380Y-67287295D01*
X144602380Y-67287295D02*
X144945238Y-68087295D01*
X157614285Y-64733604D02*
X157652381Y-64771700D01*
X157652381Y-64771700D02*
X157766666Y-64809795D01*
X157766666Y-64809795D02*
X157842857Y-64809795D01*
X157842857Y-64809795D02*
X157957143Y-64771700D01*
X157957143Y-64771700D02*
X158033333Y-64695509D01*
X158033333Y-64695509D02*
X158071428Y-64619319D01*
X158071428Y-64619319D02*
X158109524Y-64466938D01*
X158109524Y-64466938D02*
X158109524Y-64352652D01*
X158109524Y-64352652D02*
X158071428Y-64200271D01*
X158071428Y-64200271D02*
X158033333Y-64124080D01*
X158033333Y-64124080D02*
X157957143Y-64047890D01*
X157957143Y-64047890D02*
X157842857Y-64009795D01*
X157842857Y-64009795D02*
X157766666Y-64009795D01*
X157766666Y-64009795D02*
X157652381Y-64047890D01*
X157652381Y-64047890D02*
X157614285Y-64085985D01*
X157309524Y-64085985D02*
X157271428Y-64047890D01*
X157271428Y-64047890D02*
X157195238Y-64009795D01*
X157195238Y-64009795D02*
X157004762Y-64009795D01*
X157004762Y-64009795D02*
X156928571Y-64047890D01*
X156928571Y-64047890D02*
X156890476Y-64085985D01*
X156890476Y-64085985D02*
X156852381Y-64162176D01*
X156852381Y-64162176D02*
X156852381Y-64238366D01*
X156852381Y-64238366D02*
X156890476Y-64352652D01*
X156890476Y-64352652D02*
X157347619Y-64809795D01*
X157347619Y-64809795D02*
X156852381Y-64809795D01*
X156585714Y-64009795D02*
X156090476Y-64009795D01*
X156090476Y-64009795D02*
X156357142Y-64314557D01*
X156357142Y-64314557D02*
X156242857Y-64314557D01*
X156242857Y-64314557D02*
X156166666Y-64352652D01*
X156166666Y-64352652D02*
X156128571Y-64390747D01*
X156128571Y-64390747D02*
X156090476Y-64466938D01*
X156090476Y-64466938D02*
X156090476Y-64657414D01*
X156090476Y-64657414D02*
X156128571Y-64733604D01*
X156128571Y-64733604D02*
X156166666Y-64771700D01*
X156166666Y-64771700D02*
X156242857Y-64809795D01*
X156242857Y-64809795D02*
X156471428Y-64809795D01*
X156471428Y-64809795D02*
X156547619Y-64771700D01*
X156547619Y-64771700D02*
X156585714Y-64733604D01*
X183673604Y-81316667D02*
X183711700Y-81278571D01*
X183711700Y-81278571D02*
X183749795Y-81164286D01*
X183749795Y-81164286D02*
X183749795Y-81088095D01*
X183749795Y-81088095D02*
X183711700Y-80973809D01*
X183711700Y-80973809D02*
X183635509Y-80897619D01*
X183635509Y-80897619D02*
X183559319Y-80859524D01*
X183559319Y-80859524D02*
X183406938Y-80821428D01*
X183406938Y-80821428D02*
X183292652Y-80821428D01*
X183292652Y-80821428D02*
X183140271Y-80859524D01*
X183140271Y-80859524D02*
X183064080Y-80897619D01*
X183064080Y-80897619D02*
X182987890Y-80973809D01*
X182987890Y-80973809D02*
X182949795Y-81088095D01*
X182949795Y-81088095D02*
X182949795Y-81164286D01*
X182949795Y-81164286D02*
X182987890Y-81278571D01*
X182987890Y-81278571D02*
X183025985Y-81316667D01*
X183292652Y-81773809D02*
X183254557Y-81697619D01*
X183254557Y-81697619D02*
X183216461Y-81659524D01*
X183216461Y-81659524D02*
X183140271Y-81621428D01*
X183140271Y-81621428D02*
X183102176Y-81621428D01*
X183102176Y-81621428D02*
X183025985Y-81659524D01*
X183025985Y-81659524D02*
X182987890Y-81697619D01*
X182987890Y-81697619D02*
X182949795Y-81773809D01*
X182949795Y-81773809D02*
X182949795Y-81926190D01*
X182949795Y-81926190D02*
X182987890Y-82002381D01*
X182987890Y-82002381D02*
X183025985Y-82040476D01*
X183025985Y-82040476D02*
X183102176Y-82078571D01*
X183102176Y-82078571D02*
X183140271Y-82078571D01*
X183140271Y-82078571D02*
X183216461Y-82040476D01*
X183216461Y-82040476D02*
X183254557Y-82002381D01*
X183254557Y-82002381D02*
X183292652Y-81926190D01*
X183292652Y-81926190D02*
X183292652Y-81773809D01*
X183292652Y-81773809D02*
X183330747Y-81697619D01*
X183330747Y-81697619D02*
X183368842Y-81659524D01*
X183368842Y-81659524D02*
X183445033Y-81621428D01*
X183445033Y-81621428D02*
X183597414Y-81621428D01*
X183597414Y-81621428D02*
X183673604Y-81659524D01*
X183673604Y-81659524D02*
X183711700Y-81697619D01*
X183711700Y-81697619D02*
X183749795Y-81773809D01*
X183749795Y-81773809D02*
X183749795Y-81926190D01*
X183749795Y-81926190D02*
X183711700Y-82002381D01*
X183711700Y-82002381D02*
X183673604Y-82040476D01*
X183673604Y-82040476D02*
X183597414Y-82078571D01*
X183597414Y-82078571D02*
X183445033Y-82078571D01*
X183445033Y-82078571D02*
X183368842Y-82040476D01*
X183368842Y-82040476D02*
X183330747Y-82002381D01*
X183330747Y-82002381D02*
X183292652Y-81926190D01*
X175518247Y-53608333D02*
X175518247Y-53341667D01*
X175937295Y-53341667D02*
X175137295Y-53341667D01*
X175137295Y-53341667D02*
X175137295Y-53722619D01*
X175937295Y-54027381D02*
X175137295Y-54027381D01*
X175137295Y-54027381D02*
X175137295Y-54332143D01*
X175137295Y-54332143D02*
X175175390Y-54408333D01*
X175175390Y-54408333D02*
X175213485Y-54446428D01*
X175213485Y-54446428D02*
X175289676Y-54484524D01*
X175289676Y-54484524D02*
X175403961Y-54484524D01*
X175403961Y-54484524D02*
X175480152Y-54446428D01*
X175480152Y-54446428D02*
X175518247Y-54408333D01*
X175518247Y-54408333D02*
X175556342Y-54332143D01*
X175556342Y-54332143D02*
X175556342Y-54027381D01*
X175861104Y-55284524D02*
X175899200Y-55246428D01*
X175899200Y-55246428D02*
X175937295Y-55132143D01*
X175937295Y-55132143D02*
X175937295Y-55055952D01*
X175937295Y-55055952D02*
X175899200Y-54941666D01*
X175899200Y-54941666D02*
X175823009Y-54865476D01*
X175823009Y-54865476D02*
X175746819Y-54827381D01*
X175746819Y-54827381D02*
X175594438Y-54789285D01*
X175594438Y-54789285D02*
X175480152Y-54789285D01*
X175480152Y-54789285D02*
X175327771Y-54827381D01*
X175327771Y-54827381D02*
X175251580Y-54865476D01*
X175251580Y-54865476D02*
X175175390Y-54941666D01*
X175175390Y-54941666D02*
X175137295Y-55055952D01*
X175137295Y-55055952D02*
X175137295Y-55132143D01*
X175137295Y-55132143D02*
X175175390Y-55246428D01*
X175175390Y-55246428D02*
X175213485Y-55284524D01*
X175937295Y-56046428D02*
X175937295Y-55589285D01*
X175937295Y-55817857D02*
X175137295Y-55817857D01*
X175137295Y-55817857D02*
X175251580Y-55741666D01*
X175251580Y-55741666D02*
X175327771Y-55665476D01*
X175327771Y-55665476D02*
X175365866Y-55589285D01*
X126666666Y-46051080D02*
X126666666Y-46836795D01*
X126666666Y-46836795D02*
X126719047Y-46993938D01*
X126719047Y-46993938D02*
X126823809Y-47098700D01*
X126823809Y-47098700D02*
X126980952Y-47151080D01*
X126980952Y-47151080D02*
X127085714Y-47151080D01*
X126195238Y-46155842D02*
X126142857Y-46103461D01*
X126142857Y-46103461D02*
X126038095Y-46051080D01*
X126038095Y-46051080D02*
X125776190Y-46051080D01*
X125776190Y-46051080D02*
X125671428Y-46103461D01*
X125671428Y-46103461D02*
X125619047Y-46155842D01*
X125619047Y-46155842D02*
X125566666Y-46260604D01*
X125566666Y-46260604D02*
X125566666Y-46365366D01*
X125566666Y-46365366D02*
X125619047Y-46522509D01*
X125619047Y-46522509D02*
X126247619Y-47151080D01*
X126247619Y-47151080D02*
X125566666Y-47151080D01*
X163989285Y-90311104D02*
X164027381Y-90349200D01*
X164027381Y-90349200D02*
X164141666Y-90387295D01*
X164141666Y-90387295D02*
X164217857Y-90387295D01*
X164217857Y-90387295D02*
X164332143Y-90349200D01*
X164332143Y-90349200D02*
X164408333Y-90273009D01*
X164408333Y-90273009D02*
X164446428Y-90196819D01*
X164446428Y-90196819D02*
X164484524Y-90044438D01*
X164484524Y-90044438D02*
X164484524Y-89930152D01*
X164484524Y-89930152D02*
X164446428Y-89777771D01*
X164446428Y-89777771D02*
X164408333Y-89701580D01*
X164408333Y-89701580D02*
X164332143Y-89625390D01*
X164332143Y-89625390D02*
X164217857Y-89587295D01*
X164217857Y-89587295D02*
X164141666Y-89587295D01*
X164141666Y-89587295D02*
X164027381Y-89625390D01*
X164027381Y-89625390D02*
X163989285Y-89663485D01*
X163227381Y-90387295D02*
X163684524Y-90387295D01*
X163455952Y-90387295D02*
X163455952Y-89587295D01*
X163455952Y-89587295D02*
X163532143Y-89701580D01*
X163532143Y-89701580D02*
X163608333Y-89777771D01*
X163608333Y-89777771D02*
X163684524Y-89815866D01*
X162465476Y-90387295D02*
X162922619Y-90387295D01*
X162694047Y-90387295D02*
X162694047Y-89587295D01*
X162694047Y-89587295D02*
X162770238Y-89701580D01*
X162770238Y-89701580D02*
X162846428Y-89777771D01*
X162846428Y-89777771D02*
X162922619Y-89815866D01*
X150614285Y-67836104D02*
X150652381Y-67874200D01*
X150652381Y-67874200D02*
X150766666Y-67912295D01*
X150766666Y-67912295D02*
X150842857Y-67912295D01*
X150842857Y-67912295D02*
X150957143Y-67874200D01*
X150957143Y-67874200D02*
X151033333Y-67798009D01*
X151033333Y-67798009D02*
X151071428Y-67721819D01*
X151071428Y-67721819D02*
X151109524Y-67569438D01*
X151109524Y-67569438D02*
X151109524Y-67455152D01*
X151109524Y-67455152D02*
X151071428Y-67302771D01*
X151071428Y-67302771D02*
X151033333Y-67226580D01*
X151033333Y-67226580D02*
X150957143Y-67150390D01*
X150957143Y-67150390D02*
X150842857Y-67112295D01*
X150842857Y-67112295D02*
X150766666Y-67112295D01*
X150766666Y-67112295D02*
X150652381Y-67150390D01*
X150652381Y-67150390D02*
X150614285Y-67188485D01*
X149928571Y-67378961D02*
X149928571Y-67912295D01*
X150119047Y-67074200D02*
X150309524Y-67645628D01*
X150309524Y-67645628D02*
X149814285Y-67645628D01*
X149128571Y-67112295D02*
X149509523Y-67112295D01*
X149509523Y-67112295D02*
X149547619Y-67493247D01*
X149547619Y-67493247D02*
X149509523Y-67455152D01*
X149509523Y-67455152D02*
X149433333Y-67417057D01*
X149433333Y-67417057D02*
X149242857Y-67417057D01*
X149242857Y-67417057D02*
X149166666Y-67455152D01*
X149166666Y-67455152D02*
X149128571Y-67493247D01*
X149128571Y-67493247D02*
X149090476Y-67569438D01*
X149090476Y-67569438D02*
X149090476Y-67759914D01*
X149090476Y-67759914D02*
X149128571Y-67836104D01*
X149128571Y-67836104D02*
X149166666Y-67874200D01*
X149166666Y-67874200D02*
X149242857Y-67912295D01*
X149242857Y-67912295D02*
X149433333Y-67912295D01*
X149433333Y-67912295D02*
X149509523Y-67874200D01*
X149509523Y-67874200D02*
X149547619Y-67836104D01*
X143962295Y-74265714D02*
X143581342Y-73999047D01*
X143962295Y-73808571D02*
X143162295Y-73808571D01*
X143162295Y-73808571D02*
X143162295Y-74113333D01*
X143162295Y-74113333D02*
X143200390Y-74189523D01*
X143200390Y-74189523D02*
X143238485Y-74227618D01*
X143238485Y-74227618D02*
X143314676Y-74265714D01*
X143314676Y-74265714D02*
X143428961Y-74265714D01*
X143428961Y-74265714D02*
X143505152Y-74227618D01*
X143505152Y-74227618D02*
X143543247Y-74189523D01*
X143543247Y-74189523D02*
X143581342Y-74113333D01*
X143581342Y-74113333D02*
X143581342Y-73808571D01*
X143428961Y-74951428D02*
X143962295Y-74951428D01*
X143124200Y-74760952D02*
X143695628Y-74570475D01*
X143695628Y-74570475D02*
X143695628Y-75065714D01*
X143428961Y-75713333D02*
X143962295Y-75713333D01*
X143124200Y-75522857D02*
X143695628Y-75332380D01*
X143695628Y-75332380D02*
X143695628Y-75827619D01*
X168586104Y-80156964D02*
X168624200Y-80118868D01*
X168624200Y-80118868D02*
X168662295Y-80004583D01*
X168662295Y-80004583D02*
X168662295Y-79928392D01*
X168662295Y-79928392D02*
X168624200Y-79814106D01*
X168624200Y-79814106D02*
X168548009Y-79737916D01*
X168548009Y-79737916D02*
X168471819Y-79699821D01*
X168471819Y-79699821D02*
X168319438Y-79661725D01*
X168319438Y-79661725D02*
X168205152Y-79661725D01*
X168205152Y-79661725D02*
X168052771Y-79699821D01*
X168052771Y-79699821D02*
X167976580Y-79737916D01*
X167976580Y-79737916D02*
X167900390Y-79814106D01*
X167900390Y-79814106D02*
X167862295Y-79928392D01*
X167862295Y-79928392D02*
X167862295Y-80004583D01*
X167862295Y-80004583D02*
X167900390Y-80118868D01*
X167900390Y-80118868D02*
X167938485Y-80156964D01*
X168662295Y-80918868D02*
X168662295Y-80461725D01*
X168662295Y-80690297D02*
X167862295Y-80690297D01*
X167862295Y-80690297D02*
X167976580Y-80614106D01*
X167976580Y-80614106D02*
X168052771Y-80537916D01*
X168052771Y-80537916D02*
X168090866Y-80461725D01*
X168128961Y-81604583D02*
X168662295Y-81604583D01*
X167824200Y-81414107D02*
X168395628Y-81223630D01*
X168395628Y-81223630D02*
X168395628Y-81718869D01*
X171662295Y-88156964D02*
X171281342Y-87890297D01*
X171662295Y-87699821D02*
X170862295Y-87699821D01*
X170862295Y-87699821D02*
X170862295Y-88004583D01*
X170862295Y-88004583D02*
X170900390Y-88080773D01*
X170900390Y-88080773D02*
X170938485Y-88118868D01*
X170938485Y-88118868D02*
X171014676Y-88156964D01*
X171014676Y-88156964D02*
X171128961Y-88156964D01*
X171128961Y-88156964D02*
X171205152Y-88118868D01*
X171205152Y-88118868D02*
X171243247Y-88080773D01*
X171243247Y-88080773D02*
X171281342Y-88004583D01*
X171281342Y-88004583D02*
X171281342Y-87699821D01*
X171662295Y-88918868D02*
X171662295Y-88461725D01*
X171662295Y-88690297D02*
X170862295Y-88690297D01*
X170862295Y-88690297D02*
X170976580Y-88614106D01*
X170976580Y-88614106D02*
X171052771Y-88537916D01*
X171052771Y-88537916D02*
X171090866Y-88461725D01*
X170862295Y-89642678D02*
X170862295Y-89261726D01*
X170862295Y-89261726D02*
X171243247Y-89223630D01*
X171243247Y-89223630D02*
X171205152Y-89261726D01*
X171205152Y-89261726D02*
X171167057Y-89337916D01*
X171167057Y-89337916D02*
X171167057Y-89528392D01*
X171167057Y-89528392D02*
X171205152Y-89604583D01*
X171205152Y-89604583D02*
X171243247Y-89642678D01*
X171243247Y-89642678D02*
X171319438Y-89680773D01*
X171319438Y-89680773D02*
X171509914Y-89680773D01*
X171509914Y-89680773D02*
X171586104Y-89642678D01*
X171586104Y-89642678D02*
X171624200Y-89604583D01*
X171624200Y-89604583D02*
X171662295Y-89528392D01*
X171662295Y-89528392D02*
X171662295Y-89337916D01*
X171662295Y-89337916D02*
X171624200Y-89261726D01*
X171624200Y-89261726D02*
X171586104Y-89223630D01*
X183071428Y-49881009D02*
X183404761Y-49881009D01*
X183404761Y-50404819D02*
X183404761Y-49404819D01*
X183404761Y-49404819D02*
X182928571Y-49404819D01*
X182547618Y-50404819D02*
X182547618Y-49404819D01*
X182071428Y-50404819D02*
X182071428Y-49404819D01*
X182071428Y-49404819D02*
X181833333Y-49404819D01*
X181833333Y-49404819D02*
X181690476Y-49452438D01*
X181690476Y-49452438D02*
X181595238Y-49547676D01*
X181595238Y-49547676D02*
X181547619Y-49642914D01*
X181547619Y-49642914D02*
X181500000Y-49833390D01*
X181500000Y-49833390D02*
X181500000Y-49976247D01*
X181500000Y-49976247D02*
X181547619Y-50166723D01*
X181547619Y-50166723D02*
X181595238Y-50261961D01*
X181595238Y-50261961D02*
X181690476Y-50357200D01*
X181690476Y-50357200D02*
X181833333Y-50404819D01*
X181833333Y-50404819D02*
X182071428Y-50404819D01*
X180642857Y-49738152D02*
X180642857Y-50404819D01*
X180880952Y-49357200D02*
X181119047Y-50071485D01*
X181119047Y-50071485D02*
X180500000Y-50071485D01*
X145174285Y-80557295D02*
X145440952Y-80176342D01*
X145631428Y-80557295D02*
X145631428Y-79757295D01*
X145631428Y-79757295D02*
X145326666Y-79757295D01*
X145326666Y-79757295D02*
X145250476Y-79795390D01*
X145250476Y-79795390D02*
X145212381Y-79833485D01*
X145212381Y-79833485D02*
X145174285Y-79909676D01*
X145174285Y-79909676D02*
X145174285Y-80023961D01*
X145174285Y-80023961D02*
X145212381Y-80100152D01*
X145212381Y-80100152D02*
X145250476Y-80138247D01*
X145250476Y-80138247D02*
X145326666Y-80176342D01*
X145326666Y-80176342D02*
X145631428Y-80176342D01*
X144450476Y-79757295D02*
X144831428Y-79757295D01*
X144831428Y-79757295D02*
X144869524Y-80138247D01*
X144869524Y-80138247D02*
X144831428Y-80100152D01*
X144831428Y-80100152D02*
X144755238Y-80062057D01*
X144755238Y-80062057D02*
X144564762Y-80062057D01*
X144564762Y-80062057D02*
X144488571Y-80100152D01*
X144488571Y-80100152D02*
X144450476Y-80138247D01*
X144450476Y-80138247D02*
X144412381Y-80214438D01*
X144412381Y-80214438D02*
X144412381Y-80404914D01*
X144412381Y-80404914D02*
X144450476Y-80481104D01*
X144450476Y-80481104D02*
X144488571Y-80519200D01*
X144488571Y-80519200D02*
X144564762Y-80557295D01*
X144564762Y-80557295D02*
X144755238Y-80557295D01*
X144755238Y-80557295D02*
X144831428Y-80519200D01*
X144831428Y-80519200D02*
X144869524Y-80481104D01*
X143917142Y-79757295D02*
X143840952Y-79757295D01*
X143840952Y-79757295D02*
X143764761Y-79795390D01*
X143764761Y-79795390D02*
X143726666Y-79833485D01*
X143726666Y-79833485D02*
X143688571Y-79909676D01*
X143688571Y-79909676D02*
X143650476Y-80062057D01*
X143650476Y-80062057D02*
X143650476Y-80252533D01*
X143650476Y-80252533D02*
X143688571Y-80404914D01*
X143688571Y-80404914D02*
X143726666Y-80481104D01*
X143726666Y-80481104D02*
X143764761Y-80519200D01*
X143764761Y-80519200D02*
X143840952Y-80557295D01*
X143840952Y-80557295D02*
X143917142Y-80557295D01*
X143917142Y-80557295D02*
X143993333Y-80519200D01*
X143993333Y-80519200D02*
X144031428Y-80481104D01*
X144031428Y-80481104D02*
X144069523Y-80404914D01*
X144069523Y-80404914D02*
X144107619Y-80252533D01*
X144107619Y-80252533D02*
X144107619Y-80062057D01*
X144107619Y-80062057D02*
X144069523Y-79909676D01*
X144069523Y-79909676D02*
X144031428Y-79833485D01*
X144031428Y-79833485D02*
X143993333Y-79795390D01*
X143993333Y-79795390D02*
X143917142Y-79757295D01*
D11*
X168233928Y-65834695D02*
X168233928Y-65034695D01*
X168233928Y-65034695D02*
X167967262Y-65606123D01*
X167967262Y-65606123D02*
X167700595Y-65034695D01*
X167700595Y-65034695D02*
X167700595Y-65834695D01*
X167357738Y-65606123D02*
X166976785Y-65606123D01*
X167433928Y-65834695D02*
X167167261Y-65034695D01*
X167167261Y-65034695D02*
X166900595Y-65834695D01*
X166710119Y-65034695D02*
X166176785Y-65834695D01*
X166176785Y-65034695D02*
X166710119Y-65834695D01*
X165529166Y-65301361D02*
X165529166Y-65834695D01*
X165719642Y-64996600D02*
X165910119Y-65568028D01*
X165910119Y-65568028D02*
X165414880Y-65568028D01*
D12*
X164914285Y-59228545D02*
X165180952Y-58847592D01*
X165371428Y-59228545D02*
X165371428Y-58428545D01*
X165371428Y-58428545D02*
X165066666Y-58428545D01*
X165066666Y-58428545D02*
X164990476Y-58466640D01*
X164990476Y-58466640D02*
X164952381Y-58504735D01*
X164952381Y-58504735D02*
X164914285Y-58580926D01*
X164914285Y-58580926D02*
X164914285Y-58695211D01*
X164914285Y-58695211D02*
X164952381Y-58771402D01*
X164952381Y-58771402D02*
X164990476Y-58809497D01*
X164990476Y-58809497D02*
X165066666Y-58847592D01*
X165066666Y-58847592D02*
X165371428Y-58847592D01*
X164609524Y-58504735D02*
X164571428Y-58466640D01*
X164571428Y-58466640D02*
X164495238Y-58428545D01*
X164495238Y-58428545D02*
X164304762Y-58428545D01*
X164304762Y-58428545D02*
X164228571Y-58466640D01*
X164228571Y-58466640D02*
X164190476Y-58504735D01*
X164190476Y-58504735D02*
X164152381Y-58580926D01*
X164152381Y-58580926D02*
X164152381Y-58657116D01*
X164152381Y-58657116D02*
X164190476Y-58771402D01*
X164190476Y-58771402D02*
X164647619Y-59228545D01*
X164647619Y-59228545D02*
X164152381Y-59228545D01*
X163885714Y-58428545D02*
X163390476Y-58428545D01*
X163390476Y-58428545D02*
X163657142Y-58733307D01*
X163657142Y-58733307D02*
X163542857Y-58733307D01*
X163542857Y-58733307D02*
X163466666Y-58771402D01*
X163466666Y-58771402D02*
X163428571Y-58809497D01*
X163428571Y-58809497D02*
X163390476Y-58885688D01*
X163390476Y-58885688D02*
X163390476Y-59076164D01*
X163390476Y-59076164D02*
X163428571Y-59152354D01*
X163428571Y-59152354D02*
X163466666Y-59190450D01*
X163466666Y-59190450D02*
X163542857Y-59228545D01*
X163542857Y-59228545D02*
X163771428Y-59228545D01*
X163771428Y-59228545D02*
X163847619Y-59190450D01*
X163847619Y-59190450D02*
X163885714Y-59152354D01*
D11*
X158421428Y-65959695D02*
X158421428Y-65159695D01*
X158421428Y-65159695D02*
X158154762Y-65731123D01*
X158154762Y-65731123D02*
X157888095Y-65159695D01*
X157888095Y-65159695D02*
X157888095Y-65959695D01*
X157545238Y-65731123D02*
X157164285Y-65731123D01*
X157621428Y-65959695D02*
X157354761Y-65159695D01*
X157354761Y-65159695D02*
X157088095Y-65959695D01*
X156897619Y-65159695D02*
X156364285Y-65959695D01*
X156364285Y-65159695D02*
X156897619Y-65959695D01*
X156135714Y-65159695D02*
X155640476Y-65159695D01*
X155640476Y-65159695D02*
X155907142Y-65464457D01*
X155907142Y-65464457D02*
X155792857Y-65464457D01*
X155792857Y-65464457D02*
X155716666Y-65502552D01*
X155716666Y-65502552D02*
X155678571Y-65540647D01*
X155678571Y-65540647D02*
X155640476Y-65616838D01*
X155640476Y-65616838D02*
X155640476Y-65807314D01*
X155640476Y-65807314D02*
X155678571Y-65883504D01*
X155678571Y-65883504D02*
X155716666Y-65921600D01*
X155716666Y-65921600D02*
X155792857Y-65959695D01*
X155792857Y-65959695D02*
X156021428Y-65959695D01*
X156021428Y-65959695D02*
X156097619Y-65921600D01*
X156097619Y-65921600D02*
X156135714Y-65883504D01*
D12*
X129833332Y-109986104D02*
X129871428Y-110024200D01*
X129871428Y-110024200D02*
X129985713Y-110062295D01*
X129985713Y-110062295D02*
X130061904Y-110062295D01*
X130061904Y-110062295D02*
X130176190Y-110024200D01*
X130176190Y-110024200D02*
X130252380Y-109948009D01*
X130252380Y-109948009D02*
X130290475Y-109871819D01*
X130290475Y-109871819D02*
X130328571Y-109719438D01*
X130328571Y-109719438D02*
X130328571Y-109605152D01*
X130328571Y-109605152D02*
X130290475Y-109452771D01*
X130290475Y-109452771D02*
X130252380Y-109376580D01*
X130252380Y-109376580D02*
X130176190Y-109300390D01*
X130176190Y-109300390D02*
X130061904Y-109262295D01*
X130061904Y-109262295D02*
X129985713Y-109262295D01*
X129985713Y-109262295D02*
X129871428Y-109300390D01*
X129871428Y-109300390D02*
X129833332Y-109338485D01*
X129071428Y-110062295D02*
X129528571Y-110062295D01*
X129299999Y-110062295D02*
X129299999Y-109262295D01*
X129299999Y-109262295D02*
X129376190Y-109376580D01*
X129376190Y-109376580D02*
X129452380Y-109452771D01*
X129452380Y-109452771D02*
X129528571Y-109490866D01*
X121762295Y-99085714D02*
X121381342Y-98819047D01*
X121762295Y-98628571D02*
X120962295Y-98628571D01*
X120962295Y-98628571D02*
X120962295Y-98933333D01*
X120962295Y-98933333D02*
X121000390Y-99009523D01*
X121000390Y-99009523D02*
X121038485Y-99047618D01*
X121038485Y-99047618D02*
X121114676Y-99085714D01*
X121114676Y-99085714D02*
X121228961Y-99085714D01*
X121228961Y-99085714D02*
X121305152Y-99047618D01*
X121305152Y-99047618D02*
X121343247Y-99009523D01*
X121343247Y-99009523D02*
X121381342Y-98933333D01*
X121381342Y-98933333D02*
X121381342Y-98628571D01*
X121228961Y-99771428D02*
X121762295Y-99771428D01*
X120924200Y-99580952D02*
X121495628Y-99390475D01*
X121495628Y-99390475D02*
X121495628Y-99885714D01*
X121762295Y-100609523D02*
X121762295Y-100152380D01*
X121762295Y-100380952D02*
X120962295Y-100380952D01*
X120962295Y-100380952D02*
X121076580Y-100304761D01*
X121076580Y-100304761D02*
X121152771Y-100228571D01*
X121152771Y-100228571D02*
X121190866Y-100152380D01*
X120501080Y-51583333D02*
X121286795Y-51583333D01*
X121286795Y-51583333D02*
X121443938Y-51530952D01*
X121443938Y-51530952D02*
X121548700Y-51426190D01*
X121548700Y-51426190D02*
X121601080Y-51269047D01*
X121601080Y-51269047D02*
X121601080Y-51164285D01*
X121601080Y-52683333D02*
X121601080Y-52054761D01*
X121601080Y-52369047D02*
X120501080Y-52369047D01*
X120501080Y-52369047D02*
X120658223Y-52264285D01*
X120658223Y-52264285D02*
X120762985Y-52159523D01*
X120762985Y-52159523D02*
X120815366Y-52054761D01*
X132516666Y-97912295D02*
X132516666Y-97112295D01*
X132516666Y-97112295D02*
X132250000Y-97683723D01*
X132250000Y-97683723D02*
X131983333Y-97112295D01*
X131983333Y-97112295D02*
X131983333Y-97912295D01*
X131449999Y-97112295D02*
X131297618Y-97112295D01*
X131297618Y-97112295D02*
X131221428Y-97150390D01*
X131221428Y-97150390D02*
X131145237Y-97226580D01*
X131145237Y-97226580D02*
X131107142Y-97378961D01*
X131107142Y-97378961D02*
X131107142Y-97645628D01*
X131107142Y-97645628D02*
X131145237Y-97798009D01*
X131145237Y-97798009D02*
X131221428Y-97874200D01*
X131221428Y-97874200D02*
X131297618Y-97912295D01*
X131297618Y-97912295D02*
X131449999Y-97912295D01*
X131449999Y-97912295D02*
X131526190Y-97874200D01*
X131526190Y-97874200D02*
X131602380Y-97798009D01*
X131602380Y-97798009D02*
X131640476Y-97645628D01*
X131640476Y-97645628D02*
X131640476Y-97378961D01*
X131640476Y-97378961D02*
X131602380Y-97226580D01*
X131602380Y-97226580D02*
X131526190Y-97150390D01*
X131526190Y-97150390D02*
X131449999Y-97112295D01*
X130307142Y-97836104D02*
X130345238Y-97874200D01*
X130345238Y-97874200D02*
X130459523Y-97912295D01*
X130459523Y-97912295D02*
X130535714Y-97912295D01*
X130535714Y-97912295D02*
X130650000Y-97874200D01*
X130650000Y-97874200D02*
X130726190Y-97798009D01*
X130726190Y-97798009D02*
X130764285Y-97721819D01*
X130764285Y-97721819D02*
X130802381Y-97569438D01*
X130802381Y-97569438D02*
X130802381Y-97455152D01*
X130802381Y-97455152D02*
X130764285Y-97302771D01*
X130764285Y-97302771D02*
X130726190Y-97226580D01*
X130726190Y-97226580D02*
X130650000Y-97150390D01*
X130650000Y-97150390D02*
X130535714Y-97112295D01*
X130535714Y-97112295D02*
X130459523Y-97112295D01*
X130459523Y-97112295D02*
X130345238Y-97150390D01*
X130345238Y-97150390D02*
X130307142Y-97188485D01*
X129545238Y-97912295D02*
X130002381Y-97912295D01*
X129773809Y-97912295D02*
X129773809Y-97112295D01*
X129773809Y-97112295D02*
X129850000Y-97226580D01*
X129850000Y-97226580D02*
X129926190Y-97302771D01*
X129926190Y-97302771D02*
X130002381Y-97340866D01*
X178716666Y-45401080D02*
X178716666Y-46186795D01*
X178716666Y-46186795D02*
X178769047Y-46343938D01*
X178769047Y-46343938D02*
X178873809Y-46448700D01*
X178873809Y-46448700D02*
X179030952Y-46501080D01*
X179030952Y-46501080D02*
X179135714Y-46501080D01*
X177669047Y-45401080D02*
X178192857Y-45401080D01*
X178192857Y-45401080D02*
X178245238Y-45924890D01*
X178245238Y-45924890D02*
X178192857Y-45872509D01*
X178192857Y-45872509D02*
X178088095Y-45820128D01*
X178088095Y-45820128D02*
X177826190Y-45820128D01*
X177826190Y-45820128D02*
X177721428Y-45872509D01*
X177721428Y-45872509D02*
X177669047Y-45924890D01*
X177669047Y-45924890D02*
X177616666Y-46029652D01*
X177616666Y-46029652D02*
X177616666Y-46291557D01*
X177616666Y-46291557D02*
X177669047Y-46396319D01*
X177669047Y-46396319D02*
X177721428Y-46448700D01*
X177721428Y-46448700D02*
X177826190Y-46501080D01*
X177826190Y-46501080D02*
X178088095Y-46501080D01*
X178088095Y-46501080D02*
X178192857Y-46448700D01*
X178192857Y-46448700D02*
X178245238Y-46396319D01*
X165636104Y-60435714D02*
X165674200Y-60397618D01*
X165674200Y-60397618D02*
X165712295Y-60283333D01*
X165712295Y-60283333D02*
X165712295Y-60207142D01*
X165712295Y-60207142D02*
X165674200Y-60092856D01*
X165674200Y-60092856D02*
X165598009Y-60016666D01*
X165598009Y-60016666D02*
X165521819Y-59978571D01*
X165521819Y-59978571D02*
X165369438Y-59940475D01*
X165369438Y-59940475D02*
X165255152Y-59940475D01*
X165255152Y-59940475D02*
X165102771Y-59978571D01*
X165102771Y-59978571D02*
X165026580Y-60016666D01*
X165026580Y-60016666D02*
X164950390Y-60092856D01*
X164950390Y-60092856D02*
X164912295Y-60207142D01*
X164912295Y-60207142D02*
X164912295Y-60283333D01*
X164912295Y-60283333D02*
X164950390Y-60397618D01*
X164950390Y-60397618D02*
X164988485Y-60435714D01*
X164988485Y-60740475D02*
X164950390Y-60778571D01*
X164950390Y-60778571D02*
X164912295Y-60854761D01*
X164912295Y-60854761D02*
X164912295Y-61045237D01*
X164912295Y-61045237D02*
X164950390Y-61121428D01*
X164950390Y-61121428D02*
X164988485Y-61159523D01*
X164988485Y-61159523D02*
X165064676Y-61197618D01*
X165064676Y-61197618D02*
X165140866Y-61197618D01*
X165140866Y-61197618D02*
X165255152Y-61159523D01*
X165255152Y-61159523D02*
X165712295Y-60702380D01*
X165712295Y-60702380D02*
X165712295Y-61197618D01*
X165255152Y-61654761D02*
X165217057Y-61578571D01*
X165217057Y-61578571D02*
X165178961Y-61540476D01*
X165178961Y-61540476D02*
X165102771Y-61502380D01*
X165102771Y-61502380D02*
X165064676Y-61502380D01*
X165064676Y-61502380D02*
X164988485Y-61540476D01*
X164988485Y-61540476D02*
X164950390Y-61578571D01*
X164950390Y-61578571D02*
X164912295Y-61654761D01*
X164912295Y-61654761D02*
X164912295Y-61807142D01*
X164912295Y-61807142D02*
X164950390Y-61883333D01*
X164950390Y-61883333D02*
X164988485Y-61921428D01*
X164988485Y-61921428D02*
X165064676Y-61959523D01*
X165064676Y-61959523D02*
X165102771Y-61959523D01*
X165102771Y-61959523D02*
X165178961Y-61921428D01*
X165178961Y-61921428D02*
X165217057Y-61883333D01*
X165217057Y-61883333D02*
X165255152Y-61807142D01*
X165255152Y-61807142D02*
X165255152Y-61654761D01*
X165255152Y-61654761D02*
X165293247Y-61578571D01*
X165293247Y-61578571D02*
X165331342Y-61540476D01*
X165331342Y-61540476D02*
X165407533Y-61502380D01*
X165407533Y-61502380D02*
X165559914Y-61502380D01*
X165559914Y-61502380D02*
X165636104Y-61540476D01*
X165636104Y-61540476D02*
X165674200Y-61578571D01*
X165674200Y-61578571D02*
X165712295Y-61654761D01*
X165712295Y-61654761D02*
X165712295Y-61807142D01*
X165712295Y-61807142D02*
X165674200Y-61883333D01*
X165674200Y-61883333D02*
X165636104Y-61921428D01*
X165636104Y-61921428D02*
X165559914Y-61959523D01*
X165559914Y-61959523D02*
X165407533Y-61959523D01*
X165407533Y-61959523D02*
X165331342Y-61921428D01*
X165331342Y-61921428D02*
X165293247Y-61883333D01*
X165293247Y-61883333D02*
X165255152Y-61807142D01*
X124071428Y-49931009D02*
X124404761Y-49931009D01*
X124404761Y-50454819D02*
X124404761Y-49454819D01*
X124404761Y-49454819D02*
X123928571Y-49454819D01*
X123547618Y-50454819D02*
X123547618Y-49454819D01*
X123071428Y-50454819D02*
X123071428Y-49454819D01*
X123071428Y-49454819D02*
X122833333Y-49454819D01*
X122833333Y-49454819D02*
X122690476Y-49502438D01*
X122690476Y-49502438D02*
X122595238Y-49597676D01*
X122595238Y-49597676D02*
X122547619Y-49692914D01*
X122547619Y-49692914D02*
X122500000Y-49883390D01*
X122500000Y-49883390D02*
X122500000Y-50026247D01*
X122500000Y-50026247D02*
X122547619Y-50216723D01*
X122547619Y-50216723D02*
X122595238Y-50311961D01*
X122595238Y-50311961D02*
X122690476Y-50407200D01*
X122690476Y-50407200D02*
X122833333Y-50454819D01*
X122833333Y-50454819D02*
X123071428Y-50454819D01*
X122119047Y-49550057D02*
X122071428Y-49502438D01*
X122071428Y-49502438D02*
X121976190Y-49454819D01*
X121976190Y-49454819D02*
X121738095Y-49454819D01*
X121738095Y-49454819D02*
X121642857Y-49502438D01*
X121642857Y-49502438D02*
X121595238Y-49550057D01*
X121595238Y-49550057D02*
X121547619Y-49645295D01*
X121547619Y-49645295D02*
X121547619Y-49740533D01*
X121547619Y-49740533D02*
X121595238Y-49883390D01*
X121595238Y-49883390D02*
X122166666Y-50454819D01*
X122166666Y-50454819D02*
X121547619Y-50454819D01*
X146716666Y-52451080D02*
X146716666Y-53236795D01*
X146716666Y-53236795D02*
X146769047Y-53393938D01*
X146769047Y-53393938D02*
X146873809Y-53498700D01*
X146873809Y-53498700D02*
X147030952Y-53551080D01*
X147030952Y-53551080D02*
X147135714Y-53551080D01*
X146297619Y-52451080D02*
X145616666Y-52451080D01*
X145616666Y-52451080D02*
X145983333Y-52870128D01*
X145983333Y-52870128D02*
X145826190Y-52870128D01*
X145826190Y-52870128D02*
X145721428Y-52922509D01*
X145721428Y-52922509D02*
X145669047Y-52974890D01*
X145669047Y-52974890D02*
X145616666Y-53079652D01*
X145616666Y-53079652D02*
X145616666Y-53341557D01*
X145616666Y-53341557D02*
X145669047Y-53446319D01*
X145669047Y-53446319D02*
X145721428Y-53498700D01*
X145721428Y-53498700D02*
X145826190Y-53551080D01*
X145826190Y-53551080D02*
X146140476Y-53551080D01*
X146140476Y-53551080D02*
X146245238Y-53498700D01*
X146245238Y-53498700D02*
X146297619Y-53446319D01*
X168562295Y-83999821D02*
X167762295Y-83999821D01*
X167762295Y-83999821D02*
X167762295Y-84304583D01*
X167762295Y-84304583D02*
X167800390Y-84380773D01*
X167800390Y-84380773D02*
X167838485Y-84418868D01*
X167838485Y-84418868D02*
X167914676Y-84456964D01*
X167914676Y-84456964D02*
X168028961Y-84456964D01*
X168028961Y-84456964D02*
X168105152Y-84418868D01*
X168105152Y-84418868D02*
X168143247Y-84380773D01*
X168143247Y-84380773D02*
X168181342Y-84304583D01*
X168181342Y-84304583D02*
X168181342Y-83999821D01*
X168524200Y-84761725D02*
X168562295Y-84876011D01*
X168562295Y-84876011D02*
X168562295Y-85066487D01*
X168562295Y-85066487D02*
X168524200Y-85142678D01*
X168524200Y-85142678D02*
X168486104Y-85180773D01*
X168486104Y-85180773D02*
X168409914Y-85218868D01*
X168409914Y-85218868D02*
X168333723Y-85218868D01*
X168333723Y-85218868D02*
X168257533Y-85180773D01*
X168257533Y-85180773D02*
X168219438Y-85142678D01*
X168219438Y-85142678D02*
X168181342Y-85066487D01*
X168181342Y-85066487D02*
X168143247Y-84914106D01*
X168143247Y-84914106D02*
X168105152Y-84837916D01*
X168105152Y-84837916D02*
X168067057Y-84799821D01*
X168067057Y-84799821D02*
X167990866Y-84761725D01*
X167990866Y-84761725D02*
X167914676Y-84761725D01*
X167914676Y-84761725D02*
X167838485Y-84799821D01*
X167838485Y-84799821D02*
X167800390Y-84837916D01*
X167800390Y-84837916D02*
X167762295Y-84914106D01*
X167762295Y-84914106D02*
X167762295Y-85104583D01*
X167762295Y-85104583D02*
X167800390Y-85218868D01*
X167838485Y-85523630D02*
X167800390Y-85561726D01*
X167800390Y-85561726D02*
X167762295Y-85637916D01*
X167762295Y-85637916D02*
X167762295Y-85828392D01*
X167762295Y-85828392D02*
X167800390Y-85904583D01*
X167800390Y-85904583D02*
X167838485Y-85942678D01*
X167838485Y-85942678D02*
X167914676Y-85980773D01*
X167914676Y-85980773D02*
X167990866Y-85980773D01*
X167990866Y-85980773D02*
X168105152Y-85942678D01*
X168105152Y-85942678D02*
X168562295Y-85485535D01*
X168562295Y-85485535D02*
X168562295Y-85980773D01*
X171823604Y-72746964D02*
X171861700Y-72708868D01*
X171861700Y-72708868D02*
X171899795Y-72594583D01*
X171899795Y-72594583D02*
X171899795Y-72518392D01*
X171899795Y-72518392D02*
X171861700Y-72404106D01*
X171861700Y-72404106D02*
X171785509Y-72327916D01*
X171785509Y-72327916D02*
X171709319Y-72289821D01*
X171709319Y-72289821D02*
X171556938Y-72251725D01*
X171556938Y-72251725D02*
X171442652Y-72251725D01*
X171442652Y-72251725D02*
X171290271Y-72289821D01*
X171290271Y-72289821D02*
X171214080Y-72327916D01*
X171214080Y-72327916D02*
X171137890Y-72404106D01*
X171137890Y-72404106D02*
X171099795Y-72518392D01*
X171099795Y-72518392D02*
X171099795Y-72594583D01*
X171099795Y-72594583D02*
X171137890Y-72708868D01*
X171137890Y-72708868D02*
X171175985Y-72746964D01*
X171899795Y-73508868D02*
X171899795Y-73051725D01*
X171899795Y-73280297D02*
X171099795Y-73280297D01*
X171099795Y-73280297D02*
X171214080Y-73204106D01*
X171214080Y-73204106D02*
X171290271Y-73127916D01*
X171290271Y-73127916D02*
X171328366Y-73051725D01*
X171442652Y-73966011D02*
X171404557Y-73889821D01*
X171404557Y-73889821D02*
X171366461Y-73851726D01*
X171366461Y-73851726D02*
X171290271Y-73813630D01*
X171290271Y-73813630D02*
X171252176Y-73813630D01*
X171252176Y-73813630D02*
X171175985Y-73851726D01*
X171175985Y-73851726D02*
X171137890Y-73889821D01*
X171137890Y-73889821D02*
X171099795Y-73966011D01*
X171099795Y-73966011D02*
X171099795Y-74118392D01*
X171099795Y-74118392D02*
X171137890Y-74194583D01*
X171137890Y-74194583D02*
X171175985Y-74232678D01*
X171175985Y-74232678D02*
X171252176Y-74270773D01*
X171252176Y-74270773D02*
X171290271Y-74270773D01*
X171290271Y-74270773D02*
X171366461Y-74232678D01*
X171366461Y-74232678D02*
X171404557Y-74194583D01*
X171404557Y-74194583D02*
X171442652Y-74118392D01*
X171442652Y-74118392D02*
X171442652Y-73966011D01*
X171442652Y-73966011D02*
X171480747Y-73889821D01*
X171480747Y-73889821D02*
X171518842Y-73851726D01*
X171518842Y-73851726D02*
X171595033Y-73813630D01*
X171595033Y-73813630D02*
X171747414Y-73813630D01*
X171747414Y-73813630D02*
X171823604Y-73851726D01*
X171823604Y-73851726D02*
X171861700Y-73889821D01*
X171861700Y-73889821D02*
X171899795Y-73966011D01*
X171899795Y-73966011D02*
X171899795Y-74118392D01*
X171899795Y-74118392D02*
X171861700Y-74194583D01*
X171861700Y-74194583D02*
X171823604Y-74232678D01*
X171823604Y-74232678D02*
X171747414Y-74270773D01*
X171747414Y-74270773D02*
X171595033Y-74270773D01*
X171595033Y-74270773D02*
X171518842Y-74232678D01*
X171518842Y-74232678D02*
X171480747Y-74194583D01*
X171480747Y-74194583D02*
X171442652Y-74118392D01*
X172962295Y-87737916D02*
X172962295Y-87356964D01*
X172962295Y-87356964D02*
X172162295Y-87356964D01*
X172238485Y-87966487D02*
X172200390Y-88004583D01*
X172200390Y-88004583D02*
X172162295Y-88080773D01*
X172162295Y-88080773D02*
X172162295Y-88271249D01*
X172162295Y-88271249D02*
X172200390Y-88347440D01*
X172200390Y-88347440D02*
X172238485Y-88385535D01*
X172238485Y-88385535D02*
X172314676Y-88423630D01*
X172314676Y-88423630D02*
X172390866Y-88423630D01*
X172390866Y-88423630D02*
X172505152Y-88385535D01*
X172505152Y-88385535D02*
X172962295Y-87928392D01*
X172962295Y-87928392D02*
X172962295Y-88423630D01*
X174764285Y-74936104D02*
X174802381Y-74974200D01*
X174802381Y-74974200D02*
X174916666Y-75012295D01*
X174916666Y-75012295D02*
X174992857Y-75012295D01*
X174992857Y-75012295D02*
X175107143Y-74974200D01*
X175107143Y-74974200D02*
X175183333Y-74898009D01*
X175183333Y-74898009D02*
X175221428Y-74821819D01*
X175221428Y-74821819D02*
X175259524Y-74669438D01*
X175259524Y-74669438D02*
X175259524Y-74555152D01*
X175259524Y-74555152D02*
X175221428Y-74402771D01*
X175221428Y-74402771D02*
X175183333Y-74326580D01*
X175183333Y-74326580D02*
X175107143Y-74250390D01*
X175107143Y-74250390D02*
X174992857Y-74212295D01*
X174992857Y-74212295D02*
X174916666Y-74212295D01*
X174916666Y-74212295D02*
X174802381Y-74250390D01*
X174802381Y-74250390D02*
X174764285Y-74288485D01*
X174459524Y-74288485D02*
X174421428Y-74250390D01*
X174421428Y-74250390D02*
X174345238Y-74212295D01*
X174345238Y-74212295D02*
X174154762Y-74212295D01*
X174154762Y-74212295D02*
X174078571Y-74250390D01*
X174078571Y-74250390D02*
X174040476Y-74288485D01*
X174040476Y-74288485D02*
X174002381Y-74364676D01*
X174002381Y-74364676D02*
X174002381Y-74440866D01*
X174002381Y-74440866D02*
X174040476Y-74555152D01*
X174040476Y-74555152D02*
X174497619Y-75012295D01*
X174497619Y-75012295D02*
X174002381Y-75012295D01*
X173507142Y-74212295D02*
X173430952Y-74212295D01*
X173430952Y-74212295D02*
X173354761Y-74250390D01*
X173354761Y-74250390D02*
X173316666Y-74288485D01*
X173316666Y-74288485D02*
X173278571Y-74364676D01*
X173278571Y-74364676D02*
X173240476Y-74517057D01*
X173240476Y-74517057D02*
X173240476Y-74707533D01*
X173240476Y-74707533D02*
X173278571Y-74859914D01*
X173278571Y-74859914D02*
X173316666Y-74936104D01*
X173316666Y-74936104D02*
X173354761Y-74974200D01*
X173354761Y-74974200D02*
X173430952Y-75012295D01*
X173430952Y-75012295D02*
X173507142Y-75012295D01*
X173507142Y-75012295D02*
X173583333Y-74974200D01*
X173583333Y-74974200D02*
X173621428Y-74936104D01*
X173621428Y-74936104D02*
X173659523Y-74859914D01*
X173659523Y-74859914D02*
X173697619Y-74707533D01*
X173697619Y-74707533D02*
X173697619Y-74517057D01*
X173697619Y-74517057D02*
X173659523Y-74364676D01*
X173659523Y-74364676D02*
X173621428Y-74288485D01*
X173621428Y-74288485D02*
X173583333Y-74250390D01*
X173583333Y-74250390D02*
X173507142Y-74212295D01*
X177389285Y-72361104D02*
X177427381Y-72399200D01*
X177427381Y-72399200D02*
X177541666Y-72437295D01*
X177541666Y-72437295D02*
X177617857Y-72437295D01*
X177617857Y-72437295D02*
X177732143Y-72399200D01*
X177732143Y-72399200D02*
X177808333Y-72323009D01*
X177808333Y-72323009D02*
X177846428Y-72246819D01*
X177846428Y-72246819D02*
X177884524Y-72094438D01*
X177884524Y-72094438D02*
X177884524Y-71980152D01*
X177884524Y-71980152D02*
X177846428Y-71827771D01*
X177846428Y-71827771D02*
X177808333Y-71751580D01*
X177808333Y-71751580D02*
X177732143Y-71675390D01*
X177732143Y-71675390D02*
X177617857Y-71637295D01*
X177617857Y-71637295D02*
X177541666Y-71637295D01*
X177541666Y-71637295D02*
X177427381Y-71675390D01*
X177427381Y-71675390D02*
X177389285Y-71713485D01*
X176627381Y-72437295D02*
X177084524Y-72437295D01*
X176855952Y-72437295D02*
X176855952Y-71637295D01*
X176855952Y-71637295D02*
X176932143Y-71751580D01*
X176932143Y-71751580D02*
X177008333Y-71827771D01*
X177008333Y-71827771D02*
X177084524Y-71865866D01*
X175941666Y-71637295D02*
X176094047Y-71637295D01*
X176094047Y-71637295D02*
X176170238Y-71675390D01*
X176170238Y-71675390D02*
X176208333Y-71713485D01*
X176208333Y-71713485D02*
X176284523Y-71827771D01*
X176284523Y-71827771D02*
X176322619Y-71980152D01*
X176322619Y-71980152D02*
X176322619Y-72284914D01*
X176322619Y-72284914D02*
X176284523Y-72361104D01*
X176284523Y-72361104D02*
X176246428Y-72399200D01*
X176246428Y-72399200D02*
X176170238Y-72437295D01*
X176170238Y-72437295D02*
X176017857Y-72437295D01*
X176017857Y-72437295D02*
X175941666Y-72399200D01*
X175941666Y-72399200D02*
X175903571Y-72361104D01*
X175903571Y-72361104D02*
X175865476Y-72284914D01*
X175865476Y-72284914D02*
X175865476Y-72094438D01*
X175865476Y-72094438D02*
X175903571Y-72018247D01*
X175903571Y-72018247D02*
X175941666Y-71980152D01*
X175941666Y-71980152D02*
X176017857Y-71942057D01*
X176017857Y-71942057D02*
X176170238Y-71942057D01*
X176170238Y-71942057D02*
X176246428Y-71980152D01*
X176246428Y-71980152D02*
X176284523Y-72018247D01*
X176284523Y-72018247D02*
X176322619Y-72094438D01*
D11*
X144721428Y-56859695D02*
X144721428Y-56059695D01*
X144721428Y-56059695D02*
X144454762Y-56631123D01*
X144454762Y-56631123D02*
X144188095Y-56059695D01*
X144188095Y-56059695D02*
X144188095Y-56859695D01*
X143845238Y-56631123D02*
X143464285Y-56631123D01*
X143921428Y-56859695D02*
X143654761Y-56059695D01*
X143654761Y-56059695D02*
X143388095Y-56859695D01*
X143197619Y-56059695D02*
X142664285Y-56859695D01*
X142664285Y-56059695D02*
X143197619Y-56859695D01*
X141940476Y-56859695D02*
X142397619Y-56859695D01*
X142169047Y-56859695D02*
X142169047Y-56059695D01*
X142169047Y-56059695D02*
X142245238Y-56173980D01*
X142245238Y-56173980D02*
X142321428Y-56250171D01*
X142321428Y-56250171D02*
X142397619Y-56288266D01*
D12*
X159291666Y-52501080D02*
X159291666Y-53286795D01*
X159291666Y-53286795D02*
X159344047Y-53443938D01*
X159344047Y-53443938D02*
X159448809Y-53548700D01*
X159448809Y-53548700D02*
X159605952Y-53601080D01*
X159605952Y-53601080D02*
X159710714Y-53601080D01*
X158296428Y-52867747D02*
X158296428Y-53601080D01*
X158558333Y-52448700D02*
X158820238Y-53234414D01*
X158820238Y-53234414D02*
X158139285Y-53234414D01*
X167376785Y-64496104D02*
X167414881Y-64534200D01*
X167414881Y-64534200D02*
X167529166Y-64572295D01*
X167529166Y-64572295D02*
X167605357Y-64572295D01*
X167605357Y-64572295D02*
X167719643Y-64534200D01*
X167719643Y-64534200D02*
X167795833Y-64458009D01*
X167795833Y-64458009D02*
X167833928Y-64381819D01*
X167833928Y-64381819D02*
X167872024Y-64229438D01*
X167872024Y-64229438D02*
X167872024Y-64115152D01*
X167872024Y-64115152D02*
X167833928Y-63962771D01*
X167833928Y-63962771D02*
X167795833Y-63886580D01*
X167795833Y-63886580D02*
X167719643Y-63810390D01*
X167719643Y-63810390D02*
X167605357Y-63772295D01*
X167605357Y-63772295D02*
X167529166Y-63772295D01*
X167529166Y-63772295D02*
X167414881Y-63810390D01*
X167414881Y-63810390D02*
X167376785Y-63848485D01*
X167072024Y-63848485D02*
X167033928Y-63810390D01*
X167033928Y-63810390D02*
X166957738Y-63772295D01*
X166957738Y-63772295D02*
X166767262Y-63772295D01*
X166767262Y-63772295D02*
X166691071Y-63810390D01*
X166691071Y-63810390D02*
X166652976Y-63848485D01*
X166652976Y-63848485D02*
X166614881Y-63924676D01*
X166614881Y-63924676D02*
X166614881Y-64000866D01*
X166614881Y-64000866D02*
X166652976Y-64115152D01*
X166652976Y-64115152D02*
X167110119Y-64572295D01*
X167110119Y-64572295D02*
X166614881Y-64572295D01*
X165929166Y-64038961D02*
X165929166Y-64572295D01*
X166119642Y-63734200D02*
X166310119Y-64305628D01*
X166310119Y-64305628D02*
X165814880Y-64305628D01*
X175861104Y-56785714D02*
X175899200Y-56747618D01*
X175899200Y-56747618D02*
X175937295Y-56633333D01*
X175937295Y-56633333D02*
X175937295Y-56557142D01*
X175937295Y-56557142D02*
X175899200Y-56442856D01*
X175899200Y-56442856D02*
X175823009Y-56366666D01*
X175823009Y-56366666D02*
X175746819Y-56328571D01*
X175746819Y-56328571D02*
X175594438Y-56290475D01*
X175594438Y-56290475D02*
X175480152Y-56290475D01*
X175480152Y-56290475D02*
X175327771Y-56328571D01*
X175327771Y-56328571D02*
X175251580Y-56366666D01*
X175251580Y-56366666D02*
X175175390Y-56442856D01*
X175175390Y-56442856D02*
X175137295Y-56557142D01*
X175137295Y-56557142D02*
X175137295Y-56633333D01*
X175137295Y-56633333D02*
X175175390Y-56747618D01*
X175175390Y-56747618D02*
X175213485Y-56785714D01*
X175213485Y-57090475D02*
X175175390Y-57128571D01*
X175175390Y-57128571D02*
X175137295Y-57204761D01*
X175137295Y-57204761D02*
X175137295Y-57395237D01*
X175137295Y-57395237D02*
X175175390Y-57471428D01*
X175175390Y-57471428D02*
X175213485Y-57509523D01*
X175213485Y-57509523D02*
X175289676Y-57547618D01*
X175289676Y-57547618D02*
X175365866Y-57547618D01*
X175365866Y-57547618D02*
X175480152Y-57509523D01*
X175480152Y-57509523D02*
X175937295Y-57052380D01*
X175937295Y-57052380D02*
X175937295Y-57547618D01*
X175137295Y-58271428D02*
X175137295Y-57890476D01*
X175137295Y-57890476D02*
X175518247Y-57852380D01*
X175518247Y-57852380D02*
X175480152Y-57890476D01*
X175480152Y-57890476D02*
X175442057Y-57966666D01*
X175442057Y-57966666D02*
X175442057Y-58157142D01*
X175442057Y-58157142D02*
X175480152Y-58233333D01*
X175480152Y-58233333D02*
X175518247Y-58271428D01*
X175518247Y-58271428D02*
X175594438Y-58309523D01*
X175594438Y-58309523D02*
X175784914Y-58309523D01*
X175784914Y-58309523D02*
X175861104Y-58271428D01*
X175861104Y-58271428D02*
X175899200Y-58233333D01*
X175899200Y-58233333D02*
X175937295Y-58157142D01*
X175937295Y-58157142D02*
X175937295Y-57966666D01*
X175937295Y-57966666D02*
X175899200Y-57890476D01*
X175899200Y-57890476D02*
X175861104Y-57852380D01*
X158014285Y-59922354D02*
X158052381Y-59960450D01*
X158052381Y-59960450D02*
X158166666Y-59998545D01*
X158166666Y-59998545D02*
X158242857Y-59998545D01*
X158242857Y-59998545D02*
X158357143Y-59960450D01*
X158357143Y-59960450D02*
X158433333Y-59884259D01*
X158433333Y-59884259D02*
X158471428Y-59808069D01*
X158471428Y-59808069D02*
X158509524Y-59655688D01*
X158509524Y-59655688D02*
X158509524Y-59541402D01*
X158509524Y-59541402D02*
X158471428Y-59389021D01*
X158471428Y-59389021D02*
X158433333Y-59312830D01*
X158433333Y-59312830D02*
X158357143Y-59236640D01*
X158357143Y-59236640D02*
X158242857Y-59198545D01*
X158242857Y-59198545D02*
X158166666Y-59198545D01*
X158166666Y-59198545D02*
X158052381Y-59236640D01*
X158052381Y-59236640D02*
X158014285Y-59274735D01*
X157747619Y-59198545D02*
X157252381Y-59198545D01*
X157252381Y-59198545D02*
X157519047Y-59503307D01*
X157519047Y-59503307D02*
X157404762Y-59503307D01*
X157404762Y-59503307D02*
X157328571Y-59541402D01*
X157328571Y-59541402D02*
X157290476Y-59579497D01*
X157290476Y-59579497D02*
X157252381Y-59655688D01*
X157252381Y-59655688D02*
X157252381Y-59846164D01*
X157252381Y-59846164D02*
X157290476Y-59922354D01*
X157290476Y-59922354D02*
X157328571Y-59960450D01*
X157328571Y-59960450D02*
X157404762Y-59998545D01*
X157404762Y-59998545D02*
X157633333Y-59998545D01*
X157633333Y-59998545D02*
X157709524Y-59960450D01*
X157709524Y-59960450D02*
X157747619Y-59922354D01*
X156985714Y-59198545D02*
X156490476Y-59198545D01*
X156490476Y-59198545D02*
X156757142Y-59503307D01*
X156757142Y-59503307D02*
X156642857Y-59503307D01*
X156642857Y-59503307D02*
X156566666Y-59541402D01*
X156566666Y-59541402D02*
X156528571Y-59579497D01*
X156528571Y-59579497D02*
X156490476Y-59655688D01*
X156490476Y-59655688D02*
X156490476Y-59846164D01*
X156490476Y-59846164D02*
X156528571Y-59922354D01*
X156528571Y-59922354D02*
X156566666Y-59960450D01*
X156566666Y-59960450D02*
X156642857Y-59998545D01*
X156642857Y-59998545D02*
X156871428Y-59998545D01*
X156871428Y-59998545D02*
X156947619Y-59960450D01*
X156947619Y-59960450D02*
X156985714Y-59922354D01*
X144209580Y-58482142D02*
X144257200Y-58434523D01*
X144257200Y-58434523D02*
X144304819Y-58291666D01*
X144304819Y-58291666D02*
X144304819Y-58196428D01*
X144304819Y-58196428D02*
X144257200Y-58053571D01*
X144257200Y-58053571D02*
X144161961Y-57958333D01*
X144161961Y-57958333D02*
X144066723Y-57910714D01*
X144066723Y-57910714D02*
X143876247Y-57863095D01*
X143876247Y-57863095D02*
X143733390Y-57863095D01*
X143733390Y-57863095D02*
X143542914Y-57910714D01*
X143542914Y-57910714D02*
X143447676Y-57958333D01*
X143447676Y-57958333D02*
X143352438Y-58053571D01*
X143352438Y-58053571D02*
X143304819Y-58196428D01*
X143304819Y-58196428D02*
X143304819Y-58291666D01*
X143304819Y-58291666D02*
X143352438Y-58434523D01*
X143352438Y-58434523D02*
X143400057Y-58482142D01*
X143400057Y-58863095D02*
X143352438Y-58910714D01*
X143352438Y-58910714D02*
X143304819Y-59005952D01*
X143304819Y-59005952D02*
X143304819Y-59244047D01*
X143304819Y-59244047D02*
X143352438Y-59339285D01*
X143352438Y-59339285D02*
X143400057Y-59386904D01*
X143400057Y-59386904D02*
X143495295Y-59434523D01*
X143495295Y-59434523D02*
X143590533Y-59434523D01*
X143590533Y-59434523D02*
X143733390Y-59386904D01*
X143733390Y-59386904D02*
X144304819Y-58815476D01*
X144304819Y-58815476D02*
X144304819Y-59434523D01*
X143304819Y-60291666D02*
X143304819Y-60101190D01*
X143304819Y-60101190D02*
X143352438Y-60005952D01*
X143352438Y-60005952D02*
X143400057Y-59958333D01*
X143400057Y-59958333D02*
X143542914Y-59863095D01*
X143542914Y-59863095D02*
X143733390Y-59815476D01*
X143733390Y-59815476D02*
X144114342Y-59815476D01*
X144114342Y-59815476D02*
X144209580Y-59863095D01*
X144209580Y-59863095D02*
X144257200Y-59910714D01*
X144257200Y-59910714D02*
X144304819Y-60005952D01*
X144304819Y-60005952D02*
X144304819Y-60196428D01*
X144304819Y-60196428D02*
X144257200Y-60291666D01*
X144257200Y-60291666D02*
X144209580Y-60339285D01*
X144209580Y-60339285D02*
X144114342Y-60386904D01*
X144114342Y-60386904D02*
X143876247Y-60386904D01*
X143876247Y-60386904D02*
X143781009Y-60339285D01*
X143781009Y-60339285D02*
X143733390Y-60291666D01*
X143733390Y-60291666D02*
X143685771Y-60196428D01*
X143685771Y-60196428D02*
X143685771Y-60005952D01*
X143685771Y-60005952D02*
X143733390Y-59910714D01*
X143733390Y-59910714D02*
X143781009Y-59863095D01*
X143781009Y-59863095D02*
X143876247Y-59815476D01*
X176532080Y-62987142D02*
X176579700Y-62939523D01*
X176579700Y-62939523D02*
X176627319Y-62796666D01*
X176627319Y-62796666D02*
X176627319Y-62701428D01*
X176627319Y-62701428D02*
X176579700Y-62558571D01*
X176579700Y-62558571D02*
X176484461Y-62463333D01*
X176484461Y-62463333D02*
X176389223Y-62415714D01*
X176389223Y-62415714D02*
X176198747Y-62368095D01*
X176198747Y-62368095D02*
X176055890Y-62368095D01*
X176055890Y-62368095D02*
X175865414Y-62415714D01*
X175865414Y-62415714D02*
X175770176Y-62463333D01*
X175770176Y-62463333D02*
X175674938Y-62558571D01*
X175674938Y-62558571D02*
X175627319Y-62701428D01*
X175627319Y-62701428D02*
X175627319Y-62796666D01*
X175627319Y-62796666D02*
X175674938Y-62939523D01*
X175674938Y-62939523D02*
X175722557Y-62987142D01*
X175722557Y-63368095D02*
X175674938Y-63415714D01*
X175674938Y-63415714D02*
X175627319Y-63510952D01*
X175627319Y-63510952D02*
X175627319Y-63749047D01*
X175627319Y-63749047D02*
X175674938Y-63844285D01*
X175674938Y-63844285D02*
X175722557Y-63891904D01*
X175722557Y-63891904D02*
X175817795Y-63939523D01*
X175817795Y-63939523D02*
X175913033Y-63939523D01*
X175913033Y-63939523D02*
X176055890Y-63891904D01*
X176055890Y-63891904D02*
X176627319Y-63320476D01*
X176627319Y-63320476D02*
X176627319Y-63939523D01*
X176627319Y-64415714D02*
X176627319Y-64606190D01*
X176627319Y-64606190D02*
X176579700Y-64701428D01*
X176579700Y-64701428D02*
X176532080Y-64749047D01*
X176532080Y-64749047D02*
X176389223Y-64844285D01*
X176389223Y-64844285D02*
X176198747Y-64891904D01*
X176198747Y-64891904D02*
X175817795Y-64891904D01*
X175817795Y-64891904D02*
X175722557Y-64844285D01*
X175722557Y-64844285D02*
X175674938Y-64796666D01*
X175674938Y-64796666D02*
X175627319Y-64701428D01*
X175627319Y-64701428D02*
X175627319Y-64510952D01*
X175627319Y-64510952D02*
X175674938Y-64415714D01*
X175674938Y-64415714D02*
X175722557Y-64368095D01*
X175722557Y-64368095D02*
X175817795Y-64320476D01*
X175817795Y-64320476D02*
X176055890Y-64320476D01*
X176055890Y-64320476D02*
X176151128Y-64368095D01*
X176151128Y-64368095D02*
X176198747Y-64415714D01*
X176198747Y-64415714D02*
X176246366Y-64510952D01*
X176246366Y-64510952D02*
X176246366Y-64701428D01*
X176246366Y-64701428D02*
X176198747Y-64796666D01*
X176198747Y-64796666D02*
X176151128Y-64844285D01*
X176151128Y-64844285D02*
X176055890Y-64891904D01*
X184154285Y-52087295D02*
X184420952Y-51706342D01*
X184611428Y-52087295D02*
X184611428Y-51287295D01*
X184611428Y-51287295D02*
X184306666Y-51287295D01*
X184306666Y-51287295D02*
X184230476Y-51325390D01*
X184230476Y-51325390D02*
X184192381Y-51363485D01*
X184192381Y-51363485D02*
X184154285Y-51439676D01*
X184154285Y-51439676D02*
X184154285Y-51553961D01*
X184154285Y-51553961D02*
X184192381Y-51630152D01*
X184192381Y-51630152D02*
X184230476Y-51668247D01*
X184230476Y-51668247D02*
X184306666Y-51706342D01*
X184306666Y-51706342D02*
X184611428Y-51706342D01*
X183849524Y-51363485D02*
X183811428Y-51325390D01*
X183811428Y-51325390D02*
X183735238Y-51287295D01*
X183735238Y-51287295D02*
X183544762Y-51287295D01*
X183544762Y-51287295D02*
X183468571Y-51325390D01*
X183468571Y-51325390D02*
X183430476Y-51363485D01*
X183430476Y-51363485D02*
X183392381Y-51439676D01*
X183392381Y-51439676D02*
X183392381Y-51515866D01*
X183392381Y-51515866D02*
X183430476Y-51630152D01*
X183430476Y-51630152D02*
X183887619Y-52087295D01*
X183887619Y-52087295D02*
X183392381Y-52087295D01*
X182668571Y-51287295D02*
X183049523Y-51287295D01*
X183049523Y-51287295D02*
X183087619Y-51668247D01*
X183087619Y-51668247D02*
X183049523Y-51630152D01*
X183049523Y-51630152D02*
X182973333Y-51592057D01*
X182973333Y-51592057D02*
X182782857Y-51592057D01*
X182782857Y-51592057D02*
X182706666Y-51630152D01*
X182706666Y-51630152D02*
X182668571Y-51668247D01*
X182668571Y-51668247D02*
X182630476Y-51744438D01*
X182630476Y-51744438D02*
X182630476Y-51934914D01*
X182630476Y-51934914D02*
X182668571Y-52011104D01*
X182668571Y-52011104D02*
X182706666Y-52049200D01*
X182706666Y-52049200D02*
X182782857Y-52087295D01*
X182782857Y-52087295D02*
X182973333Y-52087295D01*
X182973333Y-52087295D02*
X183049523Y-52049200D01*
X183049523Y-52049200D02*
X183087619Y-52011104D01*
X167780357Y-76171069D02*
X168113690Y-75694878D01*
X168351785Y-76171069D02*
X168351785Y-75171069D01*
X168351785Y-75171069D02*
X167970833Y-75171069D01*
X167970833Y-75171069D02*
X167875595Y-75218688D01*
X167875595Y-75218688D02*
X167827976Y-75266307D01*
X167827976Y-75266307D02*
X167780357Y-75361545D01*
X167780357Y-75361545D02*
X167780357Y-75504402D01*
X167780357Y-75504402D02*
X167827976Y-75599640D01*
X167827976Y-75599640D02*
X167875595Y-75647259D01*
X167875595Y-75647259D02*
X167970833Y-75694878D01*
X167970833Y-75694878D02*
X168351785Y-75694878D01*
X167399404Y-75266307D02*
X167351785Y-75218688D01*
X167351785Y-75218688D02*
X167256547Y-75171069D01*
X167256547Y-75171069D02*
X167018452Y-75171069D01*
X167018452Y-75171069D02*
X166923214Y-75218688D01*
X166923214Y-75218688D02*
X166875595Y-75266307D01*
X166875595Y-75266307D02*
X166827976Y-75361545D01*
X166827976Y-75361545D02*
X166827976Y-75456783D01*
X166827976Y-75456783D02*
X166875595Y-75599640D01*
X166875595Y-75599640D02*
X167447023Y-76171069D01*
X167447023Y-76171069D02*
X166827976Y-76171069D01*
X166208928Y-75171069D02*
X166113690Y-75171069D01*
X166113690Y-75171069D02*
X166018452Y-75218688D01*
X166018452Y-75218688D02*
X165970833Y-75266307D01*
X165970833Y-75266307D02*
X165923214Y-75361545D01*
X165923214Y-75361545D02*
X165875595Y-75552021D01*
X165875595Y-75552021D02*
X165875595Y-75790116D01*
X165875595Y-75790116D02*
X165923214Y-75980592D01*
X165923214Y-75980592D02*
X165970833Y-76075830D01*
X165970833Y-76075830D02*
X166018452Y-76123450D01*
X166018452Y-76123450D02*
X166113690Y-76171069D01*
X166113690Y-76171069D02*
X166208928Y-76171069D01*
X166208928Y-76171069D02*
X166304166Y-76123450D01*
X166304166Y-76123450D02*
X166351785Y-76075830D01*
X166351785Y-76075830D02*
X166399404Y-75980592D01*
X166399404Y-75980592D02*
X166447023Y-75790116D01*
X166447023Y-75790116D02*
X166447023Y-75552021D01*
X166447023Y-75552021D02*
X166399404Y-75361545D01*
X166399404Y-75361545D02*
X166351785Y-75266307D01*
X166351785Y-75266307D02*
X166304166Y-75218688D01*
X166304166Y-75218688D02*
X166208928Y-75171069D01*
X182433332Y-79711104D02*
X182471428Y-79749200D01*
X182471428Y-79749200D02*
X182585713Y-79787295D01*
X182585713Y-79787295D02*
X182661904Y-79787295D01*
X182661904Y-79787295D02*
X182776190Y-79749200D01*
X182776190Y-79749200D02*
X182852380Y-79673009D01*
X182852380Y-79673009D02*
X182890475Y-79596819D01*
X182890475Y-79596819D02*
X182928571Y-79444438D01*
X182928571Y-79444438D02*
X182928571Y-79330152D01*
X182928571Y-79330152D02*
X182890475Y-79177771D01*
X182890475Y-79177771D02*
X182852380Y-79101580D01*
X182852380Y-79101580D02*
X182776190Y-79025390D01*
X182776190Y-79025390D02*
X182661904Y-78987295D01*
X182661904Y-78987295D02*
X182585713Y-78987295D01*
X182585713Y-78987295D02*
X182471428Y-79025390D01*
X182471428Y-79025390D02*
X182433332Y-79063485D01*
X182052380Y-79787295D02*
X181899999Y-79787295D01*
X181899999Y-79787295D02*
X181823809Y-79749200D01*
X181823809Y-79749200D02*
X181785713Y-79711104D01*
X181785713Y-79711104D02*
X181709523Y-79596819D01*
X181709523Y-79596819D02*
X181671428Y-79444438D01*
X181671428Y-79444438D02*
X181671428Y-79139676D01*
X181671428Y-79139676D02*
X181709523Y-79063485D01*
X181709523Y-79063485D02*
X181747618Y-79025390D01*
X181747618Y-79025390D02*
X181823809Y-78987295D01*
X181823809Y-78987295D02*
X181976190Y-78987295D01*
X181976190Y-78987295D02*
X182052380Y-79025390D01*
X182052380Y-79025390D02*
X182090475Y-79063485D01*
X182090475Y-79063485D02*
X182128571Y-79139676D01*
X182128571Y-79139676D02*
X182128571Y-79330152D01*
X182128571Y-79330152D02*
X182090475Y-79406342D01*
X182090475Y-79406342D02*
X182052380Y-79444438D01*
X182052380Y-79444438D02*
X181976190Y-79482533D01*
X181976190Y-79482533D02*
X181823809Y-79482533D01*
X181823809Y-79482533D02*
X181747618Y-79444438D01*
X181747618Y-79444438D02*
X181709523Y-79406342D01*
X181709523Y-79406342D02*
X181671428Y-79330152D01*
X183296428Y-138106009D02*
X183629761Y-138106009D01*
X183629761Y-138629819D02*
X183629761Y-137629819D01*
X183629761Y-137629819D02*
X183153571Y-137629819D01*
X182772618Y-138629819D02*
X182772618Y-137629819D01*
X182296428Y-138629819D02*
X182296428Y-137629819D01*
X182296428Y-137629819D02*
X182058333Y-137629819D01*
X182058333Y-137629819D02*
X181915476Y-137677438D01*
X181915476Y-137677438D02*
X181820238Y-137772676D01*
X181820238Y-137772676D02*
X181772619Y-137867914D01*
X181772619Y-137867914D02*
X181725000Y-138058390D01*
X181725000Y-138058390D02*
X181725000Y-138201247D01*
X181725000Y-138201247D02*
X181772619Y-138391723D01*
X181772619Y-138391723D02*
X181820238Y-138486961D01*
X181820238Y-138486961D02*
X181915476Y-138582200D01*
X181915476Y-138582200D02*
X182058333Y-138629819D01*
X182058333Y-138629819D02*
X182296428Y-138629819D01*
X180867857Y-137629819D02*
X181058333Y-137629819D01*
X181058333Y-137629819D02*
X181153571Y-137677438D01*
X181153571Y-137677438D02*
X181201190Y-137725057D01*
X181201190Y-137725057D02*
X181296428Y-137867914D01*
X181296428Y-137867914D02*
X181344047Y-138058390D01*
X181344047Y-138058390D02*
X181344047Y-138439342D01*
X181344047Y-138439342D02*
X181296428Y-138534580D01*
X181296428Y-138534580D02*
X181248809Y-138582200D01*
X181248809Y-138582200D02*
X181153571Y-138629819D01*
X181153571Y-138629819D02*
X180963095Y-138629819D01*
X180963095Y-138629819D02*
X180867857Y-138582200D01*
X180867857Y-138582200D02*
X180820238Y-138534580D01*
X180820238Y-138534580D02*
X180772619Y-138439342D01*
X180772619Y-138439342D02*
X180772619Y-138201247D01*
X180772619Y-138201247D02*
X180820238Y-138106009D01*
X180820238Y-138106009D02*
X180867857Y-138058390D01*
X180867857Y-138058390D02*
X180963095Y-138010771D01*
X180963095Y-138010771D02*
X181153571Y-138010771D01*
X181153571Y-138010771D02*
X181248809Y-138058390D01*
X181248809Y-138058390D02*
X181296428Y-138106009D01*
X181296428Y-138106009D02*
X181344047Y-138201247D01*
X148539285Y-73886104D02*
X148577381Y-73924200D01*
X148577381Y-73924200D02*
X148691666Y-73962295D01*
X148691666Y-73962295D02*
X148767857Y-73962295D01*
X148767857Y-73962295D02*
X148882143Y-73924200D01*
X148882143Y-73924200D02*
X148958333Y-73848009D01*
X148958333Y-73848009D02*
X148996428Y-73771819D01*
X148996428Y-73771819D02*
X149034524Y-73619438D01*
X149034524Y-73619438D02*
X149034524Y-73505152D01*
X149034524Y-73505152D02*
X148996428Y-73352771D01*
X148996428Y-73352771D02*
X148958333Y-73276580D01*
X148958333Y-73276580D02*
X148882143Y-73200390D01*
X148882143Y-73200390D02*
X148767857Y-73162295D01*
X148767857Y-73162295D02*
X148691666Y-73162295D01*
X148691666Y-73162295D02*
X148577381Y-73200390D01*
X148577381Y-73200390D02*
X148539285Y-73238485D01*
X147853571Y-73428961D02*
X147853571Y-73962295D01*
X148044047Y-73124200D02*
X148234524Y-73695628D01*
X148234524Y-73695628D02*
X147739285Y-73695628D01*
X147091666Y-73428961D02*
X147091666Y-73962295D01*
X147282142Y-73124200D02*
X147472619Y-73695628D01*
X147472619Y-73695628D02*
X146977380Y-73695628D01*
X144941666Y-98662295D02*
X144941666Y-97862295D01*
X144941666Y-97862295D02*
X144675000Y-98433723D01*
X144675000Y-98433723D02*
X144408333Y-97862295D01*
X144408333Y-97862295D02*
X144408333Y-98662295D01*
X143874999Y-97862295D02*
X143722618Y-97862295D01*
X143722618Y-97862295D02*
X143646428Y-97900390D01*
X143646428Y-97900390D02*
X143570237Y-97976580D01*
X143570237Y-97976580D02*
X143532142Y-98128961D01*
X143532142Y-98128961D02*
X143532142Y-98395628D01*
X143532142Y-98395628D02*
X143570237Y-98548009D01*
X143570237Y-98548009D02*
X143646428Y-98624200D01*
X143646428Y-98624200D02*
X143722618Y-98662295D01*
X143722618Y-98662295D02*
X143874999Y-98662295D01*
X143874999Y-98662295D02*
X143951190Y-98624200D01*
X143951190Y-98624200D02*
X144027380Y-98548009D01*
X144027380Y-98548009D02*
X144065476Y-98395628D01*
X144065476Y-98395628D02*
X144065476Y-98128961D01*
X144065476Y-98128961D02*
X144027380Y-97976580D01*
X144027380Y-97976580D02*
X143951190Y-97900390D01*
X143951190Y-97900390D02*
X143874999Y-97862295D01*
X142732142Y-98586104D02*
X142770238Y-98624200D01*
X142770238Y-98624200D02*
X142884523Y-98662295D01*
X142884523Y-98662295D02*
X142960714Y-98662295D01*
X142960714Y-98662295D02*
X143075000Y-98624200D01*
X143075000Y-98624200D02*
X143151190Y-98548009D01*
X143151190Y-98548009D02*
X143189285Y-98471819D01*
X143189285Y-98471819D02*
X143227381Y-98319438D01*
X143227381Y-98319438D02*
X143227381Y-98205152D01*
X143227381Y-98205152D02*
X143189285Y-98052771D01*
X143189285Y-98052771D02*
X143151190Y-97976580D01*
X143151190Y-97976580D02*
X143075000Y-97900390D01*
X143075000Y-97900390D02*
X142960714Y-97862295D01*
X142960714Y-97862295D02*
X142884523Y-97862295D01*
X142884523Y-97862295D02*
X142770238Y-97900390D01*
X142770238Y-97900390D02*
X142732142Y-97938485D01*
X142427381Y-97938485D02*
X142389285Y-97900390D01*
X142389285Y-97900390D02*
X142313095Y-97862295D01*
X142313095Y-97862295D02*
X142122619Y-97862295D01*
X142122619Y-97862295D02*
X142046428Y-97900390D01*
X142046428Y-97900390D02*
X142008333Y-97938485D01*
X142008333Y-97938485D02*
X141970238Y-98014676D01*
X141970238Y-98014676D02*
X141970238Y-98090866D01*
X141970238Y-98090866D02*
X142008333Y-98205152D01*
X142008333Y-98205152D02*
X142465476Y-98662295D01*
X142465476Y-98662295D02*
X141970238Y-98662295D01*
X171223604Y-91135714D02*
X171261700Y-91097618D01*
X171261700Y-91097618D02*
X171299795Y-90983333D01*
X171299795Y-90983333D02*
X171299795Y-90907142D01*
X171299795Y-90907142D02*
X171261700Y-90792856D01*
X171261700Y-90792856D02*
X171185509Y-90716666D01*
X171185509Y-90716666D02*
X171109319Y-90678571D01*
X171109319Y-90678571D02*
X170956938Y-90640475D01*
X170956938Y-90640475D02*
X170842652Y-90640475D01*
X170842652Y-90640475D02*
X170690271Y-90678571D01*
X170690271Y-90678571D02*
X170614080Y-90716666D01*
X170614080Y-90716666D02*
X170537890Y-90792856D01*
X170537890Y-90792856D02*
X170499795Y-90907142D01*
X170499795Y-90907142D02*
X170499795Y-90983333D01*
X170499795Y-90983333D02*
X170537890Y-91097618D01*
X170537890Y-91097618D02*
X170575985Y-91135714D01*
X171299795Y-91897618D02*
X171299795Y-91440475D01*
X171299795Y-91669047D02*
X170499795Y-91669047D01*
X170499795Y-91669047D02*
X170614080Y-91592856D01*
X170614080Y-91592856D02*
X170690271Y-91516666D01*
X170690271Y-91516666D02*
X170728366Y-91440475D01*
X170499795Y-92392857D02*
X170499795Y-92469047D01*
X170499795Y-92469047D02*
X170537890Y-92545238D01*
X170537890Y-92545238D02*
X170575985Y-92583333D01*
X170575985Y-92583333D02*
X170652176Y-92621428D01*
X170652176Y-92621428D02*
X170804557Y-92659523D01*
X170804557Y-92659523D02*
X170995033Y-92659523D01*
X170995033Y-92659523D02*
X171147414Y-92621428D01*
X171147414Y-92621428D02*
X171223604Y-92583333D01*
X171223604Y-92583333D02*
X171261700Y-92545238D01*
X171261700Y-92545238D02*
X171299795Y-92469047D01*
X171299795Y-92469047D02*
X171299795Y-92392857D01*
X171299795Y-92392857D02*
X171261700Y-92316666D01*
X171261700Y-92316666D02*
X171223604Y-92278571D01*
X171223604Y-92278571D02*
X171147414Y-92240476D01*
X171147414Y-92240476D02*
X170995033Y-92202380D01*
X170995033Y-92202380D02*
X170804557Y-92202380D01*
X170804557Y-92202380D02*
X170652176Y-92240476D01*
X170652176Y-92240476D02*
X170575985Y-92278571D01*
X170575985Y-92278571D02*
X170537890Y-92316666D01*
X170537890Y-92316666D02*
X170499795Y-92392857D01*
X155414285Y-54512295D02*
X155680952Y-54131342D01*
X155871428Y-54512295D02*
X155871428Y-53712295D01*
X155871428Y-53712295D02*
X155566666Y-53712295D01*
X155566666Y-53712295D02*
X155490476Y-53750390D01*
X155490476Y-53750390D02*
X155452381Y-53788485D01*
X155452381Y-53788485D02*
X155414285Y-53864676D01*
X155414285Y-53864676D02*
X155414285Y-53978961D01*
X155414285Y-53978961D02*
X155452381Y-54055152D01*
X155452381Y-54055152D02*
X155490476Y-54093247D01*
X155490476Y-54093247D02*
X155566666Y-54131342D01*
X155566666Y-54131342D02*
X155871428Y-54131342D01*
X155109524Y-53788485D02*
X155071428Y-53750390D01*
X155071428Y-53750390D02*
X154995238Y-53712295D01*
X154995238Y-53712295D02*
X154804762Y-53712295D01*
X154804762Y-53712295D02*
X154728571Y-53750390D01*
X154728571Y-53750390D02*
X154690476Y-53788485D01*
X154690476Y-53788485D02*
X154652381Y-53864676D01*
X154652381Y-53864676D02*
X154652381Y-53940866D01*
X154652381Y-53940866D02*
X154690476Y-54055152D01*
X154690476Y-54055152D02*
X155147619Y-54512295D01*
X155147619Y-54512295D02*
X154652381Y-54512295D01*
X154347619Y-53788485D02*
X154309523Y-53750390D01*
X154309523Y-53750390D02*
X154233333Y-53712295D01*
X154233333Y-53712295D02*
X154042857Y-53712295D01*
X154042857Y-53712295D02*
X153966666Y-53750390D01*
X153966666Y-53750390D02*
X153928571Y-53788485D01*
X153928571Y-53788485D02*
X153890476Y-53864676D01*
X153890476Y-53864676D02*
X153890476Y-53940866D01*
X153890476Y-53940866D02*
X153928571Y-54055152D01*
X153928571Y-54055152D02*
X154385714Y-54512295D01*
X154385714Y-54512295D02*
X153890476Y-54512295D01*
X145049285Y-83082295D02*
X145315952Y-82701342D01*
X145506428Y-83082295D02*
X145506428Y-82282295D01*
X145506428Y-82282295D02*
X145201666Y-82282295D01*
X145201666Y-82282295D02*
X145125476Y-82320390D01*
X145125476Y-82320390D02*
X145087381Y-82358485D01*
X145087381Y-82358485D02*
X145049285Y-82434676D01*
X145049285Y-82434676D02*
X145049285Y-82548961D01*
X145049285Y-82548961D02*
X145087381Y-82625152D01*
X145087381Y-82625152D02*
X145125476Y-82663247D01*
X145125476Y-82663247D02*
X145201666Y-82701342D01*
X145201666Y-82701342D02*
X145506428Y-82701342D01*
X144325476Y-82282295D02*
X144706428Y-82282295D01*
X144706428Y-82282295D02*
X144744524Y-82663247D01*
X144744524Y-82663247D02*
X144706428Y-82625152D01*
X144706428Y-82625152D02*
X144630238Y-82587057D01*
X144630238Y-82587057D02*
X144439762Y-82587057D01*
X144439762Y-82587057D02*
X144363571Y-82625152D01*
X144363571Y-82625152D02*
X144325476Y-82663247D01*
X144325476Y-82663247D02*
X144287381Y-82739438D01*
X144287381Y-82739438D02*
X144287381Y-82929914D01*
X144287381Y-82929914D02*
X144325476Y-83006104D01*
X144325476Y-83006104D02*
X144363571Y-83044200D01*
X144363571Y-83044200D02*
X144439762Y-83082295D01*
X144439762Y-83082295D02*
X144630238Y-83082295D01*
X144630238Y-83082295D02*
X144706428Y-83044200D01*
X144706428Y-83044200D02*
X144744524Y-83006104D01*
X143525476Y-83082295D02*
X143982619Y-83082295D01*
X143754047Y-83082295D02*
X143754047Y-82282295D01*
X143754047Y-82282295D02*
X143830238Y-82396580D01*
X143830238Y-82396580D02*
X143906428Y-82472771D01*
X143906428Y-82472771D02*
X143982619Y-82510866D01*
X168254285Y-59286104D02*
X168292381Y-59324200D01*
X168292381Y-59324200D02*
X168406666Y-59362295D01*
X168406666Y-59362295D02*
X168482857Y-59362295D01*
X168482857Y-59362295D02*
X168597143Y-59324200D01*
X168597143Y-59324200D02*
X168673333Y-59248009D01*
X168673333Y-59248009D02*
X168711428Y-59171819D01*
X168711428Y-59171819D02*
X168749524Y-59019438D01*
X168749524Y-59019438D02*
X168749524Y-58905152D01*
X168749524Y-58905152D02*
X168711428Y-58752771D01*
X168711428Y-58752771D02*
X168673333Y-58676580D01*
X168673333Y-58676580D02*
X168597143Y-58600390D01*
X168597143Y-58600390D02*
X168482857Y-58562295D01*
X168482857Y-58562295D02*
X168406666Y-58562295D01*
X168406666Y-58562295D02*
X168292381Y-58600390D01*
X168292381Y-58600390D02*
X168254285Y-58638485D01*
X167987619Y-58562295D02*
X167492381Y-58562295D01*
X167492381Y-58562295D02*
X167759047Y-58867057D01*
X167759047Y-58867057D02*
X167644762Y-58867057D01*
X167644762Y-58867057D02*
X167568571Y-58905152D01*
X167568571Y-58905152D02*
X167530476Y-58943247D01*
X167530476Y-58943247D02*
X167492381Y-59019438D01*
X167492381Y-59019438D02*
X167492381Y-59209914D01*
X167492381Y-59209914D02*
X167530476Y-59286104D01*
X167530476Y-59286104D02*
X167568571Y-59324200D01*
X167568571Y-59324200D02*
X167644762Y-59362295D01*
X167644762Y-59362295D02*
X167873333Y-59362295D01*
X167873333Y-59362295D02*
X167949524Y-59324200D01*
X167949524Y-59324200D02*
X167987619Y-59286104D01*
X166806666Y-58828961D02*
X166806666Y-59362295D01*
X166997142Y-58524200D02*
X167187619Y-59095628D01*
X167187619Y-59095628D02*
X166692380Y-59095628D01*
X145889285Y-77361104D02*
X145927381Y-77399200D01*
X145927381Y-77399200D02*
X146041666Y-77437295D01*
X146041666Y-77437295D02*
X146117857Y-77437295D01*
X146117857Y-77437295D02*
X146232143Y-77399200D01*
X146232143Y-77399200D02*
X146308333Y-77323009D01*
X146308333Y-77323009D02*
X146346428Y-77246819D01*
X146346428Y-77246819D02*
X146384524Y-77094438D01*
X146384524Y-77094438D02*
X146384524Y-76980152D01*
X146384524Y-76980152D02*
X146346428Y-76827771D01*
X146346428Y-76827771D02*
X146308333Y-76751580D01*
X146308333Y-76751580D02*
X146232143Y-76675390D01*
X146232143Y-76675390D02*
X146117857Y-76637295D01*
X146117857Y-76637295D02*
X146041666Y-76637295D01*
X146041666Y-76637295D02*
X145927381Y-76675390D01*
X145927381Y-76675390D02*
X145889285Y-76713485D01*
X145622619Y-76637295D02*
X145127381Y-76637295D01*
X145127381Y-76637295D02*
X145394047Y-76942057D01*
X145394047Y-76942057D02*
X145279762Y-76942057D01*
X145279762Y-76942057D02*
X145203571Y-76980152D01*
X145203571Y-76980152D02*
X145165476Y-77018247D01*
X145165476Y-77018247D02*
X145127381Y-77094438D01*
X145127381Y-77094438D02*
X145127381Y-77284914D01*
X145127381Y-77284914D02*
X145165476Y-77361104D01*
X145165476Y-77361104D02*
X145203571Y-77399200D01*
X145203571Y-77399200D02*
X145279762Y-77437295D01*
X145279762Y-77437295D02*
X145508333Y-77437295D01*
X145508333Y-77437295D02*
X145584524Y-77399200D01*
X145584524Y-77399200D02*
X145622619Y-77361104D01*
X144670238Y-76980152D02*
X144746428Y-76942057D01*
X144746428Y-76942057D02*
X144784523Y-76903961D01*
X144784523Y-76903961D02*
X144822619Y-76827771D01*
X144822619Y-76827771D02*
X144822619Y-76789676D01*
X144822619Y-76789676D02*
X144784523Y-76713485D01*
X144784523Y-76713485D02*
X144746428Y-76675390D01*
X144746428Y-76675390D02*
X144670238Y-76637295D01*
X144670238Y-76637295D02*
X144517857Y-76637295D01*
X144517857Y-76637295D02*
X144441666Y-76675390D01*
X144441666Y-76675390D02*
X144403571Y-76713485D01*
X144403571Y-76713485D02*
X144365476Y-76789676D01*
X144365476Y-76789676D02*
X144365476Y-76827771D01*
X144365476Y-76827771D02*
X144403571Y-76903961D01*
X144403571Y-76903961D02*
X144441666Y-76942057D01*
X144441666Y-76942057D02*
X144517857Y-76980152D01*
X144517857Y-76980152D02*
X144670238Y-76980152D01*
X144670238Y-76980152D02*
X144746428Y-77018247D01*
X144746428Y-77018247D02*
X144784523Y-77056342D01*
X144784523Y-77056342D02*
X144822619Y-77132533D01*
X144822619Y-77132533D02*
X144822619Y-77284914D01*
X144822619Y-77284914D02*
X144784523Y-77361104D01*
X144784523Y-77361104D02*
X144746428Y-77399200D01*
X144746428Y-77399200D02*
X144670238Y-77437295D01*
X144670238Y-77437295D02*
X144517857Y-77437295D01*
X144517857Y-77437295D02*
X144441666Y-77399200D01*
X144441666Y-77399200D02*
X144403571Y-77361104D01*
X144403571Y-77361104D02*
X144365476Y-77284914D01*
X144365476Y-77284914D02*
X144365476Y-77132533D01*
X144365476Y-77132533D02*
X144403571Y-77056342D01*
X144403571Y-77056342D02*
X144441666Y-77018247D01*
X144441666Y-77018247D02*
X144517857Y-76980152D01*
X145033332Y-114086104D02*
X145071428Y-114124200D01*
X145071428Y-114124200D02*
X145185713Y-114162295D01*
X145185713Y-114162295D02*
X145261904Y-114162295D01*
X145261904Y-114162295D02*
X145376190Y-114124200D01*
X145376190Y-114124200D02*
X145452380Y-114048009D01*
X145452380Y-114048009D02*
X145490475Y-113971819D01*
X145490475Y-113971819D02*
X145528571Y-113819438D01*
X145528571Y-113819438D02*
X145528571Y-113705152D01*
X145528571Y-113705152D02*
X145490475Y-113552771D01*
X145490475Y-113552771D02*
X145452380Y-113476580D01*
X145452380Y-113476580D02*
X145376190Y-113400390D01*
X145376190Y-113400390D02*
X145261904Y-113362295D01*
X145261904Y-113362295D02*
X145185713Y-113362295D01*
X145185713Y-113362295D02*
X145071428Y-113400390D01*
X145071428Y-113400390D02*
X145033332Y-113438485D01*
X144766666Y-113362295D02*
X144271428Y-113362295D01*
X144271428Y-113362295D02*
X144538094Y-113667057D01*
X144538094Y-113667057D02*
X144423809Y-113667057D01*
X144423809Y-113667057D02*
X144347618Y-113705152D01*
X144347618Y-113705152D02*
X144309523Y-113743247D01*
X144309523Y-113743247D02*
X144271428Y-113819438D01*
X144271428Y-113819438D02*
X144271428Y-114009914D01*
X144271428Y-114009914D02*
X144309523Y-114086104D01*
X144309523Y-114086104D02*
X144347618Y-114124200D01*
X144347618Y-114124200D02*
X144423809Y-114162295D01*
X144423809Y-114162295D02*
X144652380Y-114162295D01*
X144652380Y-114162295D02*
X144728571Y-114124200D01*
X144728571Y-114124200D02*
X144766666Y-114086104D01*
X154191666Y-97362295D02*
X154191666Y-96562295D01*
X154191666Y-96562295D02*
X153925000Y-97133723D01*
X153925000Y-97133723D02*
X153658333Y-96562295D01*
X153658333Y-96562295D02*
X153658333Y-97362295D01*
X153124999Y-96562295D02*
X152972618Y-96562295D01*
X152972618Y-96562295D02*
X152896428Y-96600390D01*
X152896428Y-96600390D02*
X152820237Y-96676580D01*
X152820237Y-96676580D02*
X152782142Y-96828961D01*
X152782142Y-96828961D02*
X152782142Y-97095628D01*
X152782142Y-97095628D02*
X152820237Y-97248009D01*
X152820237Y-97248009D02*
X152896428Y-97324200D01*
X152896428Y-97324200D02*
X152972618Y-97362295D01*
X152972618Y-97362295D02*
X153124999Y-97362295D01*
X153124999Y-97362295D02*
X153201190Y-97324200D01*
X153201190Y-97324200D02*
X153277380Y-97248009D01*
X153277380Y-97248009D02*
X153315476Y-97095628D01*
X153315476Y-97095628D02*
X153315476Y-96828961D01*
X153315476Y-96828961D02*
X153277380Y-96676580D01*
X153277380Y-96676580D02*
X153201190Y-96600390D01*
X153201190Y-96600390D02*
X153124999Y-96562295D01*
X151982142Y-97286104D02*
X152020238Y-97324200D01*
X152020238Y-97324200D02*
X152134523Y-97362295D01*
X152134523Y-97362295D02*
X152210714Y-97362295D01*
X152210714Y-97362295D02*
X152325000Y-97324200D01*
X152325000Y-97324200D02*
X152401190Y-97248009D01*
X152401190Y-97248009D02*
X152439285Y-97171819D01*
X152439285Y-97171819D02*
X152477381Y-97019438D01*
X152477381Y-97019438D02*
X152477381Y-96905152D01*
X152477381Y-96905152D02*
X152439285Y-96752771D01*
X152439285Y-96752771D02*
X152401190Y-96676580D01*
X152401190Y-96676580D02*
X152325000Y-96600390D01*
X152325000Y-96600390D02*
X152210714Y-96562295D01*
X152210714Y-96562295D02*
X152134523Y-96562295D01*
X152134523Y-96562295D02*
X152020238Y-96600390D01*
X152020238Y-96600390D02*
X151982142Y-96638485D01*
X151715476Y-96562295D02*
X151220238Y-96562295D01*
X151220238Y-96562295D02*
X151486904Y-96867057D01*
X151486904Y-96867057D02*
X151372619Y-96867057D01*
X151372619Y-96867057D02*
X151296428Y-96905152D01*
X151296428Y-96905152D02*
X151258333Y-96943247D01*
X151258333Y-96943247D02*
X151220238Y-97019438D01*
X151220238Y-97019438D02*
X151220238Y-97209914D01*
X151220238Y-97209914D02*
X151258333Y-97286104D01*
X151258333Y-97286104D02*
X151296428Y-97324200D01*
X151296428Y-97324200D02*
X151372619Y-97362295D01*
X151372619Y-97362295D02*
X151601190Y-97362295D01*
X151601190Y-97362295D02*
X151677381Y-97324200D01*
X151677381Y-97324200D02*
X151715476Y-97286104D01*
D11*
X148261428Y-61509695D02*
X148261428Y-60709695D01*
X148261428Y-60709695D02*
X147994762Y-61281123D01*
X147994762Y-61281123D02*
X147728095Y-60709695D01*
X147728095Y-60709695D02*
X147728095Y-61509695D01*
X147385238Y-61281123D02*
X147004285Y-61281123D01*
X147461428Y-61509695D02*
X147194761Y-60709695D01*
X147194761Y-60709695D02*
X146928095Y-61509695D01*
X146737619Y-60709695D02*
X146204285Y-61509695D01*
X146204285Y-60709695D02*
X146737619Y-61509695D01*
X145937619Y-60785885D02*
X145899523Y-60747790D01*
X145899523Y-60747790D02*
X145823333Y-60709695D01*
X145823333Y-60709695D02*
X145632857Y-60709695D01*
X145632857Y-60709695D02*
X145556666Y-60747790D01*
X145556666Y-60747790D02*
X145518571Y-60785885D01*
X145518571Y-60785885D02*
X145480476Y-60862076D01*
X145480476Y-60862076D02*
X145480476Y-60938266D01*
X145480476Y-60938266D02*
X145518571Y-61052552D01*
X145518571Y-61052552D02*
X145975714Y-61509695D01*
X145975714Y-61509695D02*
X145480476Y-61509695D01*
D12*
X142352295Y-53735714D02*
X141971342Y-53469047D01*
X142352295Y-53278571D02*
X141552295Y-53278571D01*
X141552295Y-53278571D02*
X141552295Y-53583333D01*
X141552295Y-53583333D02*
X141590390Y-53659523D01*
X141590390Y-53659523D02*
X141628485Y-53697618D01*
X141628485Y-53697618D02*
X141704676Y-53735714D01*
X141704676Y-53735714D02*
X141818961Y-53735714D01*
X141818961Y-53735714D02*
X141895152Y-53697618D01*
X141895152Y-53697618D02*
X141933247Y-53659523D01*
X141933247Y-53659523D02*
X141971342Y-53583333D01*
X141971342Y-53583333D02*
X141971342Y-53278571D01*
X141628485Y-54040475D02*
X141590390Y-54078571D01*
X141590390Y-54078571D02*
X141552295Y-54154761D01*
X141552295Y-54154761D02*
X141552295Y-54345237D01*
X141552295Y-54345237D02*
X141590390Y-54421428D01*
X141590390Y-54421428D02*
X141628485Y-54459523D01*
X141628485Y-54459523D02*
X141704676Y-54497618D01*
X141704676Y-54497618D02*
X141780866Y-54497618D01*
X141780866Y-54497618D02*
X141895152Y-54459523D01*
X141895152Y-54459523D02*
X142352295Y-54002380D01*
X142352295Y-54002380D02*
X142352295Y-54497618D01*
X142352295Y-55259523D02*
X142352295Y-54802380D01*
X142352295Y-55030952D02*
X141552295Y-55030952D01*
X141552295Y-55030952D02*
X141666580Y-54954761D01*
X141666580Y-54954761D02*
X141742771Y-54878571D01*
X141742771Y-54878571D02*
X141780866Y-54802380D01*
D11*
X177311428Y-59509695D02*
X177311428Y-58709695D01*
X177311428Y-58709695D02*
X177044762Y-59281123D01*
X177044762Y-59281123D02*
X176778095Y-58709695D01*
X176778095Y-58709695D02*
X176778095Y-59509695D01*
X176435238Y-59281123D02*
X176054285Y-59281123D01*
X176511428Y-59509695D02*
X176244761Y-58709695D01*
X176244761Y-58709695D02*
X175978095Y-59509695D01*
X175787619Y-58709695D02*
X175254285Y-59509695D01*
X175254285Y-58709695D02*
X175787619Y-59509695D01*
X174568571Y-58709695D02*
X174949523Y-58709695D01*
X174949523Y-58709695D02*
X174987619Y-59090647D01*
X174987619Y-59090647D02*
X174949523Y-59052552D01*
X174949523Y-59052552D02*
X174873333Y-59014457D01*
X174873333Y-59014457D02*
X174682857Y-59014457D01*
X174682857Y-59014457D02*
X174606666Y-59052552D01*
X174606666Y-59052552D02*
X174568571Y-59090647D01*
X174568571Y-59090647D02*
X174530476Y-59166838D01*
X174530476Y-59166838D02*
X174530476Y-59357314D01*
X174530476Y-59357314D02*
X174568571Y-59433504D01*
X174568571Y-59433504D02*
X174606666Y-59471600D01*
X174606666Y-59471600D02*
X174682857Y-59509695D01*
X174682857Y-59509695D02*
X174873333Y-59509695D01*
X174873333Y-59509695D02*
X174949523Y-59471600D01*
X174949523Y-59471600D02*
X174987619Y-59433504D01*
D12*
X171886104Y-69951964D02*
X171924200Y-69913868D01*
X171924200Y-69913868D02*
X171962295Y-69799583D01*
X171962295Y-69799583D02*
X171962295Y-69723392D01*
X171962295Y-69723392D02*
X171924200Y-69609106D01*
X171924200Y-69609106D02*
X171848009Y-69532916D01*
X171848009Y-69532916D02*
X171771819Y-69494821D01*
X171771819Y-69494821D02*
X171619438Y-69456725D01*
X171619438Y-69456725D02*
X171505152Y-69456725D01*
X171505152Y-69456725D02*
X171352771Y-69494821D01*
X171352771Y-69494821D02*
X171276580Y-69532916D01*
X171276580Y-69532916D02*
X171200390Y-69609106D01*
X171200390Y-69609106D02*
X171162295Y-69723392D01*
X171162295Y-69723392D02*
X171162295Y-69799583D01*
X171162295Y-69799583D02*
X171200390Y-69913868D01*
X171200390Y-69913868D02*
X171238485Y-69951964D01*
X171962295Y-70713868D02*
X171962295Y-70256725D01*
X171962295Y-70485297D02*
X171162295Y-70485297D01*
X171162295Y-70485297D02*
X171276580Y-70409106D01*
X171276580Y-70409106D02*
X171352771Y-70332916D01*
X171352771Y-70332916D02*
X171390866Y-70256725D01*
X171962295Y-71094821D02*
X171962295Y-71247202D01*
X171962295Y-71247202D02*
X171924200Y-71323392D01*
X171924200Y-71323392D02*
X171886104Y-71361488D01*
X171886104Y-71361488D02*
X171771819Y-71437678D01*
X171771819Y-71437678D02*
X171619438Y-71475773D01*
X171619438Y-71475773D02*
X171314676Y-71475773D01*
X171314676Y-71475773D02*
X171238485Y-71437678D01*
X171238485Y-71437678D02*
X171200390Y-71399583D01*
X171200390Y-71399583D02*
X171162295Y-71323392D01*
X171162295Y-71323392D02*
X171162295Y-71171011D01*
X171162295Y-71171011D02*
X171200390Y-71094821D01*
X171200390Y-71094821D02*
X171238485Y-71056726D01*
X171238485Y-71056726D02*
X171314676Y-71018630D01*
X171314676Y-71018630D02*
X171505152Y-71018630D01*
X171505152Y-71018630D02*
X171581342Y-71056726D01*
X171581342Y-71056726D02*
X171619438Y-71094821D01*
X171619438Y-71094821D02*
X171657533Y-71171011D01*
X171657533Y-71171011D02*
X171657533Y-71323392D01*
X171657533Y-71323392D02*
X171619438Y-71399583D01*
X171619438Y-71399583D02*
X171581342Y-71437678D01*
X171581342Y-71437678D02*
X171505152Y-71475773D01*
X174174795Y-58183214D02*
X173793842Y-57916547D01*
X174174795Y-57726071D02*
X173374795Y-57726071D01*
X173374795Y-57726071D02*
X173374795Y-58030833D01*
X173374795Y-58030833D02*
X173412890Y-58107023D01*
X173412890Y-58107023D02*
X173450985Y-58145118D01*
X173450985Y-58145118D02*
X173527176Y-58183214D01*
X173527176Y-58183214D02*
X173641461Y-58183214D01*
X173641461Y-58183214D02*
X173717652Y-58145118D01*
X173717652Y-58145118D02*
X173755747Y-58107023D01*
X173755747Y-58107023D02*
X173793842Y-58030833D01*
X173793842Y-58030833D02*
X173793842Y-57726071D01*
X173450985Y-58487975D02*
X173412890Y-58526071D01*
X173412890Y-58526071D02*
X173374795Y-58602261D01*
X173374795Y-58602261D02*
X173374795Y-58792737D01*
X173374795Y-58792737D02*
X173412890Y-58868928D01*
X173412890Y-58868928D02*
X173450985Y-58907023D01*
X173450985Y-58907023D02*
X173527176Y-58945118D01*
X173527176Y-58945118D02*
X173603366Y-58945118D01*
X173603366Y-58945118D02*
X173717652Y-58907023D01*
X173717652Y-58907023D02*
X174174795Y-58449880D01*
X174174795Y-58449880D02*
X174174795Y-58945118D01*
X173641461Y-59630833D02*
X174174795Y-59630833D01*
X173336700Y-59440357D02*
X173908128Y-59249880D01*
X173908128Y-59249880D02*
X173908128Y-59745119D01*
X147904285Y-55046104D02*
X147942381Y-55084200D01*
X147942381Y-55084200D02*
X148056666Y-55122295D01*
X148056666Y-55122295D02*
X148132857Y-55122295D01*
X148132857Y-55122295D02*
X148247143Y-55084200D01*
X148247143Y-55084200D02*
X148323333Y-55008009D01*
X148323333Y-55008009D02*
X148361428Y-54931819D01*
X148361428Y-54931819D02*
X148399524Y-54779438D01*
X148399524Y-54779438D02*
X148399524Y-54665152D01*
X148399524Y-54665152D02*
X148361428Y-54512771D01*
X148361428Y-54512771D02*
X148323333Y-54436580D01*
X148323333Y-54436580D02*
X148247143Y-54360390D01*
X148247143Y-54360390D02*
X148132857Y-54322295D01*
X148132857Y-54322295D02*
X148056666Y-54322295D01*
X148056666Y-54322295D02*
X147942381Y-54360390D01*
X147942381Y-54360390D02*
X147904285Y-54398485D01*
X147637619Y-54322295D02*
X147142381Y-54322295D01*
X147142381Y-54322295D02*
X147409047Y-54627057D01*
X147409047Y-54627057D02*
X147294762Y-54627057D01*
X147294762Y-54627057D02*
X147218571Y-54665152D01*
X147218571Y-54665152D02*
X147180476Y-54703247D01*
X147180476Y-54703247D02*
X147142381Y-54779438D01*
X147142381Y-54779438D02*
X147142381Y-54969914D01*
X147142381Y-54969914D02*
X147180476Y-55046104D01*
X147180476Y-55046104D02*
X147218571Y-55084200D01*
X147218571Y-55084200D02*
X147294762Y-55122295D01*
X147294762Y-55122295D02*
X147523333Y-55122295D01*
X147523333Y-55122295D02*
X147599524Y-55084200D01*
X147599524Y-55084200D02*
X147637619Y-55046104D01*
X146837619Y-54398485D02*
X146799523Y-54360390D01*
X146799523Y-54360390D02*
X146723333Y-54322295D01*
X146723333Y-54322295D02*
X146532857Y-54322295D01*
X146532857Y-54322295D02*
X146456666Y-54360390D01*
X146456666Y-54360390D02*
X146418571Y-54398485D01*
X146418571Y-54398485D02*
X146380476Y-54474676D01*
X146380476Y-54474676D02*
X146380476Y-54550866D01*
X146380476Y-54550866D02*
X146418571Y-54665152D01*
X146418571Y-54665152D02*
X146875714Y-55122295D01*
X146875714Y-55122295D02*
X146380476Y-55122295D01*
X147304285Y-60196104D02*
X147342381Y-60234200D01*
X147342381Y-60234200D02*
X147456666Y-60272295D01*
X147456666Y-60272295D02*
X147532857Y-60272295D01*
X147532857Y-60272295D02*
X147647143Y-60234200D01*
X147647143Y-60234200D02*
X147723333Y-60158009D01*
X147723333Y-60158009D02*
X147761428Y-60081819D01*
X147761428Y-60081819D02*
X147799524Y-59929438D01*
X147799524Y-59929438D02*
X147799524Y-59815152D01*
X147799524Y-59815152D02*
X147761428Y-59662771D01*
X147761428Y-59662771D02*
X147723333Y-59586580D01*
X147723333Y-59586580D02*
X147647143Y-59510390D01*
X147647143Y-59510390D02*
X147532857Y-59472295D01*
X147532857Y-59472295D02*
X147456666Y-59472295D01*
X147456666Y-59472295D02*
X147342381Y-59510390D01*
X147342381Y-59510390D02*
X147304285Y-59548485D01*
X146999524Y-59548485D02*
X146961428Y-59510390D01*
X146961428Y-59510390D02*
X146885238Y-59472295D01*
X146885238Y-59472295D02*
X146694762Y-59472295D01*
X146694762Y-59472295D02*
X146618571Y-59510390D01*
X146618571Y-59510390D02*
X146580476Y-59548485D01*
X146580476Y-59548485D02*
X146542381Y-59624676D01*
X146542381Y-59624676D02*
X146542381Y-59700866D01*
X146542381Y-59700866D02*
X146580476Y-59815152D01*
X146580476Y-59815152D02*
X147037619Y-60272295D01*
X147037619Y-60272295D02*
X146542381Y-60272295D01*
X146237619Y-59548485D02*
X146199523Y-59510390D01*
X146199523Y-59510390D02*
X146123333Y-59472295D01*
X146123333Y-59472295D02*
X145932857Y-59472295D01*
X145932857Y-59472295D02*
X145856666Y-59510390D01*
X145856666Y-59510390D02*
X145818571Y-59548485D01*
X145818571Y-59548485D02*
X145780476Y-59624676D01*
X145780476Y-59624676D02*
X145780476Y-59700866D01*
X145780476Y-59700866D02*
X145818571Y-59815152D01*
X145818571Y-59815152D02*
X146275714Y-60272295D01*
X146275714Y-60272295D02*
X145780476Y-60272295D01*
X177136104Y-69935714D02*
X177174200Y-69897618D01*
X177174200Y-69897618D02*
X177212295Y-69783333D01*
X177212295Y-69783333D02*
X177212295Y-69707142D01*
X177212295Y-69707142D02*
X177174200Y-69592856D01*
X177174200Y-69592856D02*
X177098009Y-69516666D01*
X177098009Y-69516666D02*
X177021819Y-69478571D01*
X177021819Y-69478571D02*
X176869438Y-69440475D01*
X176869438Y-69440475D02*
X176755152Y-69440475D01*
X176755152Y-69440475D02*
X176602771Y-69478571D01*
X176602771Y-69478571D02*
X176526580Y-69516666D01*
X176526580Y-69516666D02*
X176450390Y-69592856D01*
X176450390Y-69592856D02*
X176412295Y-69707142D01*
X176412295Y-69707142D02*
X176412295Y-69783333D01*
X176412295Y-69783333D02*
X176450390Y-69897618D01*
X176450390Y-69897618D02*
X176488485Y-69935714D01*
X176412295Y-70202380D02*
X176412295Y-70697618D01*
X176412295Y-70697618D02*
X176717057Y-70430952D01*
X176717057Y-70430952D02*
X176717057Y-70545237D01*
X176717057Y-70545237D02*
X176755152Y-70621428D01*
X176755152Y-70621428D02*
X176793247Y-70659523D01*
X176793247Y-70659523D02*
X176869438Y-70697618D01*
X176869438Y-70697618D02*
X177059914Y-70697618D01*
X177059914Y-70697618D02*
X177136104Y-70659523D01*
X177136104Y-70659523D02*
X177174200Y-70621428D01*
X177174200Y-70621428D02*
X177212295Y-70545237D01*
X177212295Y-70545237D02*
X177212295Y-70316666D01*
X177212295Y-70316666D02*
X177174200Y-70240475D01*
X177174200Y-70240475D02*
X177136104Y-70202380D01*
X176412295Y-71383333D02*
X176412295Y-71230952D01*
X176412295Y-71230952D02*
X176450390Y-71154761D01*
X176450390Y-71154761D02*
X176488485Y-71116666D01*
X176488485Y-71116666D02*
X176602771Y-71040476D01*
X176602771Y-71040476D02*
X176755152Y-71002380D01*
X176755152Y-71002380D02*
X177059914Y-71002380D01*
X177059914Y-71002380D02*
X177136104Y-71040476D01*
X177136104Y-71040476D02*
X177174200Y-71078571D01*
X177174200Y-71078571D02*
X177212295Y-71154761D01*
X177212295Y-71154761D02*
X177212295Y-71307142D01*
X177212295Y-71307142D02*
X177174200Y-71383333D01*
X177174200Y-71383333D02*
X177136104Y-71421428D01*
X177136104Y-71421428D02*
X177059914Y-71459523D01*
X177059914Y-71459523D02*
X176869438Y-71459523D01*
X176869438Y-71459523D02*
X176793247Y-71421428D01*
X176793247Y-71421428D02*
X176755152Y-71383333D01*
X176755152Y-71383333D02*
X176717057Y-71307142D01*
X176717057Y-71307142D02*
X176717057Y-71154761D01*
X176717057Y-71154761D02*
X176755152Y-71078571D01*
X176755152Y-71078571D02*
X176793247Y-71040476D01*
X176793247Y-71040476D02*
X176869438Y-71002380D01*
%TO.C,C21*%
D14*
X134680000Y-58677836D02*
X134680000Y-58462164D01*
X135400000Y-58677836D02*
X135400000Y-58462164D01*
%TO.C,L3*%
D15*
X176037500Y-82800000D02*
X176037500Y-88200000D01*
X176037500Y-88200000D02*
X182237500Y-88200000D01*
X182237500Y-82800000D02*
X176037500Y-82800000D01*
X182237500Y-88200000D02*
X182237500Y-82800000D01*
%TO.C,R19*%
D14*
X170465000Y-76855814D02*
X170465000Y-76401686D01*
X171935000Y-76855814D02*
X171935000Y-76401686D01*
%TO.C,C17*%
X143665000Y-69257836D02*
X143665000Y-69042164D01*
X144385000Y-69257836D02*
X144385000Y-69042164D01*
%TO.C,C31*%
X134680000Y-56462164D02*
X134680000Y-56677836D01*
X135400000Y-56462164D02*
X135400000Y-56677836D01*
%TO.C,D2*%
D16*
X175172000Y-81326000D02*
X175172000Y-76754000D01*
D15*
X175550000Y-79583000D02*
X176150000Y-78210000D01*
X176150000Y-78210000D02*
X176750000Y-79583000D01*
X176750000Y-79583000D02*
X175550000Y-79583000D01*
D16*
X177028000Y-76754000D02*
X177028000Y-81326000D01*
%TO.C,J6*%
D14*
X130990000Y-89740000D02*
X132900000Y-89740000D01*
X130990000Y-91650000D02*
X130990000Y-89740000D01*
X131300000Y-91350000D02*
X131600000Y-91350000D01*
X131300000Y-92100000D02*
X131600000Y-92100000D01*
X131600000Y-90350000D02*
X137850000Y-90350000D01*
X131600000Y-91350000D02*
X131600000Y-90350000D01*
X131600000Y-92100000D02*
X131600000Y-93200000D01*
X131600000Y-93200000D02*
X131900000Y-93200000D01*
X131900000Y-93200000D02*
X131900000Y-93650000D01*
X131900000Y-93200000D02*
X133100000Y-93200000D01*
X133100000Y-93200000D02*
X133100000Y-93500000D01*
X133100000Y-93500000D02*
X133850000Y-93500000D01*
X133850000Y-93200000D02*
X135600000Y-93200000D01*
X133850000Y-93500000D02*
X133850000Y-93200000D01*
X135600000Y-93200000D02*
X135600000Y-93500000D01*
X135600000Y-93500000D02*
X136350000Y-93500000D01*
X136350000Y-93200000D02*
X137550000Y-93200000D01*
X136350000Y-93500000D02*
X136350000Y-93200000D01*
X137550000Y-93200000D02*
X137550000Y-93650000D01*
X137850000Y-90350000D02*
X137850000Y-91350000D01*
X137850000Y-91350000D02*
X138150000Y-91350000D01*
X137850000Y-92100000D02*
X137850000Y-93200000D01*
X137850000Y-93200000D02*
X137550000Y-93200000D01*
X138150000Y-92100000D02*
X137850000Y-92100000D01*
X131300000Y-90050000D02*
X138150000Y-90050000D01*
X138150000Y-93650000D01*
X131300000Y-93650000D01*
X131300000Y-90050000D01*
%TO.C,C27*%
X154680000Y-58747836D02*
X154680000Y-58532164D01*
X155400000Y-58747836D02*
X155400000Y-58532164D01*
%TO.C,C35*%
X176265000Y-54947164D02*
X176265000Y-55162836D01*
X176985000Y-54947164D02*
X176985000Y-55162836D01*
%TO.C,C30*%
X183530000Y-56697836D02*
X183530000Y-56482164D01*
X184250000Y-56697836D02*
X184250000Y-56482164D01*
%TO.C,R17*%
X178477064Y-66565000D02*
X177022936Y-66565000D01*
X178477064Y-68385000D02*
X177022936Y-68385000D01*
%TO.C,PS3*%
D16*
X179440000Y-74307500D02*
X179440000Y-72707500D01*
X182560000Y-72707500D02*
X182560000Y-74307500D01*
D11*
X182050000Y-76007500D02*
G75*
G02*
X181850000Y-76007500I-100000J0D01*
G01*
X181850000Y-76007500D02*
G75*
G02*
X182050000Y-76007500I100000J0D01*
G01*
%TO.C,R16*%
D14*
X179992224Y-75902500D02*
X179482776Y-75902500D01*
X179992224Y-76947500D02*
X179482776Y-76947500D01*
%TO.C,C2*%
X148880000Y-114080000D02*
X148880000Y-118320000D01*
X148880000Y-118320000D02*
X162120000Y-118320000D01*
X162120000Y-114080000D02*
X148880000Y-114080000D01*
X162120000Y-118320000D02*
X162120000Y-114080000D01*
%TO.C,C37*%
X144815000Y-70211252D02*
X144815000Y-69688748D01*
X146285000Y-70211252D02*
X146285000Y-69688748D01*
%TO.C,C23*%
X157140000Y-63174086D02*
X157140000Y-62958414D01*
X157860000Y-63174086D02*
X157860000Y-62958414D01*
%TO.C,C8*%
X181136252Y-80590000D02*
X179713748Y-80590000D01*
X181136252Y-82410000D02*
X179713748Y-82410000D01*
%TO.C,FPC1*%
D16*
X161550000Y-53325000D02*
X162150000Y-53325000D01*
X161550000Y-54875000D02*
X161550000Y-53325000D01*
X174750000Y-53325000D02*
X174150000Y-53325000D01*
X174750000Y-54875000D02*
X174750000Y-53325000D01*
D11*
X174000000Y-56975000D02*
G75*
G02*
X173800000Y-56975000I-100000J0D01*
G01*
X173800000Y-56975000D02*
G75*
G02*
X174000000Y-56975000I100000J0D01*
G01*
%TO.C,J2*%
D16*
X127400000Y-41100000D02*
X128900000Y-41100000D01*
X127400000Y-52100000D02*
X127400000Y-41100000D01*
X127400000Y-52100000D02*
X139400000Y-52100000D01*
X128900000Y-41100000D02*
X128900000Y-40100000D01*
X137850000Y-40100000D02*
X137850000Y-41100000D01*
X137850000Y-41100000D02*
X139350000Y-41100000D01*
X139400000Y-52100000D02*
X139400000Y-41100000D01*
%TO.C,C11*%
D14*
X164311252Y-90765000D02*
X163788748Y-90765000D01*
X164311252Y-92235000D02*
X163788748Y-92235000D01*
%TO.C,C45*%
X149265000Y-71286252D02*
X149265000Y-69863748D01*
X151085000Y-71286252D02*
X151085000Y-69863748D01*
%TO.C,R44*%
X143220000Y-72893641D02*
X143220000Y-72586359D01*
X143980000Y-72893641D02*
X143980000Y-72586359D01*
%TO.C,C14*%
X166323752Y-79931250D02*
X165801248Y-79931250D01*
X166323752Y-81401250D02*
X165801248Y-81401250D01*
%TO.C,R15*%
X168710436Y-87836250D02*
X169164564Y-87836250D01*
X168710436Y-89306250D02*
X169164564Y-89306250D01*
%TO.C,R50*%
X144506359Y-78645000D02*
X144813641Y-78645000D01*
X144506359Y-79405000D02*
X144813641Y-79405000D01*
%TO.C,MAX4*%
X168540000Y-60577500D02*
X168540000Y-61477500D01*
X168540000Y-64897500D02*
X168540000Y-65797500D01*
X168540000Y-65797500D02*
X169440000Y-65797500D01*
X169440000Y-60577500D02*
X168540000Y-60577500D01*
X172860000Y-65797500D02*
X173760000Y-65797500D01*
X173760000Y-60577500D02*
X172860000Y-60577500D01*
X173760000Y-61477500D02*
X173760000Y-60577500D01*
X173760000Y-65797500D02*
X173760000Y-64897500D01*
X169850000Y-60077500D02*
X170090000Y-59747500D01*
X169610000Y-59747500D01*
X169850000Y-60077500D01*
G36*
X169850000Y-60077500D02*
G01*
X169610000Y-59747500D01*
X170090000Y-59747500D01*
X169850000Y-60077500D01*
G37*
%TO.C,R23*%
X160212936Y-57856250D02*
X161667064Y-57856250D01*
X160212936Y-59676250D02*
X161667064Y-59676250D01*
%TO.C,MAX3*%
X158730000Y-60700000D02*
X158730000Y-61600000D01*
X158730000Y-65020000D02*
X158730000Y-65920000D01*
X158730000Y-65920000D02*
X159630000Y-65920000D01*
X159630000Y-60700000D02*
X158730000Y-60700000D01*
X163050000Y-65920000D02*
X163950000Y-65920000D01*
X163950000Y-60700000D02*
X163050000Y-60700000D01*
X163950000Y-61600000D02*
X163950000Y-60700000D01*
X163950000Y-65920000D02*
X163950000Y-65020000D01*
X160040000Y-60200000D02*
X160280000Y-59870000D01*
X159800000Y-59870000D01*
X160040000Y-60200000D01*
G36*
X160040000Y-60200000D02*
G01*
X159800000Y-59870000D01*
X160280000Y-59870000D01*
X160040000Y-60200000D01*
G37*
%TO.C,C1*%
X130680000Y-108780000D02*
X130680000Y-113020000D01*
X130680000Y-113020000D02*
X143920000Y-113020000D01*
X143920000Y-108780000D02*
X130680000Y-108780000D01*
X143920000Y-113020000D02*
X143920000Y-108780000D01*
%TO.C,R41*%
X123610436Y-98690000D02*
X125064564Y-98690000D01*
X123610436Y-100510000D02*
X125064564Y-100510000D01*
%TO.C,J1*%
D16*
X120100000Y-54550000D02*
X121100000Y-54550000D01*
X121100000Y-54550000D02*
X121100000Y-53050000D01*
X121100000Y-63500000D02*
X120100000Y-63500000D01*
X121100000Y-65000000D02*
X121100000Y-63500000D01*
X132100000Y-53000000D02*
X121100000Y-53000000D01*
X132100000Y-65000000D02*
X121100000Y-65000000D01*
X132100000Y-65000000D02*
X132100000Y-53000000D01*
%TO.C,MOC1*%
X127585000Y-105965000D02*
X127585000Y-99615000D01*
X127590000Y-99615000D02*
X128140000Y-99615000D01*
X127590000Y-105965000D02*
X128140000Y-105965000D01*
X136090000Y-99615000D02*
X135540000Y-99615000D01*
X136090000Y-105965000D02*
X135540000Y-105965000D01*
X136095000Y-99615000D02*
X136095000Y-105965000D01*
D11*
X129400000Y-97356000D02*
G75*
G02*
X129200000Y-97356000I-100000J0D01*
G01*
X129200000Y-97356000D02*
G75*
G02*
X129400000Y-97356000I100000J0D01*
G01*
%TO.C,J5*%
D16*
X165200000Y-41100000D02*
X166700000Y-41100000D01*
X165200000Y-52100000D02*
X165200000Y-41100000D01*
X165200000Y-52100000D02*
X177200000Y-52100000D01*
X166700000Y-41100000D02*
X166700000Y-40100000D01*
X175650000Y-40100000D02*
X175650000Y-41100000D01*
X175650000Y-41100000D02*
X177150000Y-41100000D01*
X177200000Y-52100000D02*
X177200000Y-41100000D01*
%TO.C,C28*%
D14*
X164940000Y-63092836D02*
X164940000Y-62877164D01*
X165660000Y-63092836D02*
X165660000Y-62877164D01*
%TO.C,J3*%
D16*
X140000000Y-41100000D02*
X141500000Y-41100000D01*
X140000000Y-52100000D02*
X140000000Y-41100000D01*
X140000000Y-52100000D02*
X152000000Y-52100000D01*
X141500000Y-41100000D02*
X141500000Y-40100000D01*
X150450000Y-40100000D02*
X150450000Y-41100000D01*
X150450000Y-41100000D02*
X151950000Y-41100000D01*
X152000000Y-52100000D02*
X152000000Y-41100000D01*
%TO.C,PS2*%
X164435000Y-85921250D02*
X164435000Y-84321250D01*
X167565000Y-85921250D02*
X167565000Y-84321250D01*
D11*
X167300000Y-87521250D02*
G75*
G02*
X167100000Y-87521250I-100000J0D01*
G01*
X167100000Y-87521250D02*
G75*
G02*
X167300000Y-87521250I100000J0D01*
G01*
%TO.C,C18*%
D14*
X169486252Y-72156250D02*
X168063748Y-72156250D01*
X169486252Y-73976250D02*
X168063748Y-73976250D01*
%TO.C,C20*%
X173340000Y-71063748D02*
X173340000Y-72486252D01*
X175160000Y-71063748D02*
X175160000Y-72486252D01*
%TO.C,C16*%
X176152500Y-74711252D02*
X176152500Y-74188748D01*
X177622500Y-74711252D02*
X177622500Y-74188748D01*
%TO.C,MAX1*%
X136380000Y-56152500D02*
X136380000Y-57052500D01*
X136380000Y-60472500D02*
X136380000Y-61372500D01*
X136380000Y-61372500D02*
X137280000Y-61372500D01*
X137280000Y-56152500D02*
X136380000Y-56152500D01*
X140700000Y-61372500D02*
X141600000Y-61372500D01*
X141600000Y-56152500D02*
X140700000Y-56152500D01*
X141600000Y-57052500D02*
X141600000Y-56152500D01*
X141600000Y-61372500D02*
X141600000Y-60472500D01*
X137690000Y-55652500D02*
X137930000Y-55322500D01*
X137450000Y-55322500D01*
X137690000Y-55652500D01*
G36*
X137690000Y-55652500D02*
G01*
X137450000Y-55322500D01*
X137930000Y-55322500D01*
X137690000Y-55652500D01*
G37*
%TO.C,J4*%
D16*
X152600000Y-41100000D02*
X154100000Y-41100000D01*
X152600000Y-52100000D02*
X152600000Y-41100000D01*
X152600000Y-52100000D02*
X164600000Y-52100000D01*
X154100000Y-41100000D02*
X154100000Y-40100000D01*
X163050000Y-40100000D02*
X163050000Y-41100000D01*
X163050000Y-41100000D02*
X164550000Y-41100000D01*
X164600000Y-52100000D02*
X164600000Y-41100000D01*
%TO.C,C24*%
D14*
X167102500Y-62917836D02*
X167102500Y-62702164D01*
X167822500Y-62917836D02*
X167822500Y-62702164D01*
%TO.C,C25*%
X176240000Y-57452836D02*
X176240000Y-57237164D01*
X176960000Y-57452836D02*
X176960000Y-57237164D01*
%TO.C,C33*%
X157140000Y-61028414D02*
X157140000Y-61244086D01*
X157860000Y-61028414D02*
X157860000Y-61244086D01*
%TO.C,C26*%
X142330000Y-59232836D02*
X142330000Y-59017164D01*
X143050000Y-59232836D02*
X143050000Y-59017164D01*
%TO.C,C29*%
X174652500Y-63737836D02*
X174652500Y-63522164D01*
X175372500Y-63737836D02*
X175372500Y-63522164D01*
%TO.C,R25*%
X179285436Y-50865000D02*
X180739564Y-50865000D01*
X179285436Y-52685000D02*
X180739564Y-52685000D01*
%TO.C,R20*%
X167364564Y-76631250D02*
X166910436Y-76631250D01*
X167364564Y-78101250D02*
X166910436Y-78101250D01*
%TO.C,C9*%
X180707836Y-79040000D02*
X180492164Y-79040000D01*
X180707836Y-79760000D02*
X180492164Y-79760000D01*
%TO.C,C44*%
X146865000Y-71286252D02*
X146865000Y-69863748D01*
X148685000Y-71286252D02*
X148685000Y-69863748D01*
%TO.C,MOC2*%
D16*
X139885000Y-106685000D02*
X139885000Y-100335000D01*
X139890000Y-100335000D02*
X140440000Y-100335000D01*
X139890000Y-106685000D02*
X140440000Y-106685000D01*
X148390000Y-100335000D02*
X147840000Y-100335000D01*
X148390000Y-106685000D02*
X147840000Y-106685000D01*
X148395000Y-100335000D02*
X148395000Y-106685000D01*
D11*
X141700000Y-98076000D02*
G75*
G02*
X141500000Y-98076000I-100000J0D01*
G01*
X141500000Y-98076000D02*
G75*
G02*
X141700000Y-98076000I100000J0D01*
G01*
%TO.C,C10*%
D14*
X167426248Y-90740000D02*
X168848752Y-90740000D01*
X167426248Y-92560000D02*
X168848752Y-92560000D01*
%TO.C,R22*%
X150735436Y-53150000D02*
X152189564Y-53150000D01*
X150735436Y-54970000D02*
X152189564Y-54970000D01*
%TO.C,R51*%
X144381359Y-81170000D02*
X144688641Y-81170000D01*
X144381359Y-81930000D02*
X144688641Y-81930000D01*
%TO.C,C34*%
X167360000Y-60362164D02*
X167360000Y-60577836D01*
X168080000Y-60362164D02*
X168080000Y-60577836D01*
%TO.C,C38*%
X144465000Y-73413748D02*
X144465000Y-74836252D01*
X146285000Y-73413748D02*
X146285000Y-74836252D01*
%TO.C,C3*%
X144180000Y-108780000D02*
X144180000Y-113020000D01*
X144180000Y-113020000D02*
X157420000Y-113020000D01*
X157420000Y-108780000D02*
X144180000Y-108780000D01*
X157420000Y-113020000D02*
X157420000Y-108780000D01*
%TO.C,MOC3*%
D16*
X153485000Y-105485000D02*
X153485000Y-99135000D01*
X153490000Y-99135000D02*
X154040000Y-99135000D01*
X153490000Y-105485000D02*
X154040000Y-105485000D01*
X161990000Y-99135000D02*
X161440000Y-99135000D01*
X161990000Y-105485000D02*
X161440000Y-105485000D01*
X161995000Y-99135000D02*
X161995000Y-105485000D01*
D11*
X155300000Y-96876000D02*
G75*
G02*
X155100000Y-96876000I-100000J0D01*
G01*
X155100000Y-96876000D02*
G75*
G02*
X155300000Y-96876000I100000J0D01*
G01*
%TO.C,MAX2*%
D14*
X148580000Y-56200000D02*
X148580000Y-57100000D01*
X148580000Y-60520000D02*
X148580000Y-61420000D01*
X148580000Y-61420000D02*
X149480000Y-61420000D01*
X149480000Y-56200000D02*
X148580000Y-56200000D01*
X152900000Y-61420000D02*
X153800000Y-61420000D01*
X153800000Y-56200000D02*
X152900000Y-56200000D01*
X153800000Y-57100000D02*
X153800000Y-56200000D01*
X153800000Y-61420000D02*
X153800000Y-60520000D01*
X149890000Y-55700000D02*
X150130000Y-55370000D01*
X149650000Y-55370000D01*
X149890000Y-55700000D01*
G36*
X149890000Y-55700000D02*
G01*
X149650000Y-55370000D01*
X150130000Y-55370000D01*
X149890000Y-55700000D01*
G37*
%TO.C,R21*%
X138325436Y-53190000D02*
X139779564Y-53190000D01*
X138325436Y-55010000D02*
X139779564Y-55010000D01*
%TO.C,MAX5*%
X177630000Y-54240000D02*
X177630000Y-55140000D01*
X177630000Y-58560000D02*
X177630000Y-59460000D01*
X177630000Y-59460000D02*
X178530000Y-59460000D01*
X178530000Y-54240000D02*
X177630000Y-54240000D01*
X181950000Y-59460000D02*
X182850000Y-59460000D01*
X182850000Y-54240000D02*
X181950000Y-54240000D01*
X182850000Y-55140000D02*
X182850000Y-54240000D01*
X182850000Y-59460000D02*
X182850000Y-58560000D01*
X178940000Y-53740000D02*
X179180000Y-53410000D01*
X178700000Y-53410000D01*
X178940000Y-53740000D01*
G36*
X178940000Y-53740000D02*
G01*
X178700000Y-53410000D01*
X179180000Y-53410000D01*
X178940000Y-53740000D01*
G37*
%TO.C,C19*%
X169486252Y-69661250D02*
X168063748Y-69661250D01*
X169486252Y-71481250D02*
X168063748Y-71481250D01*
%TO.C,R24*%
X170220436Y-57787500D02*
X171674564Y-57787500D01*
X170220436Y-59607500D02*
X171674564Y-59607500D01*
%TO.C,C32*%
X146980000Y-56122164D02*
X146980000Y-56337836D01*
X147700000Y-56122164D02*
X147700000Y-56337836D01*
%TO.C,C22*%
X146980000Y-58586586D02*
X146980000Y-58370914D01*
X147700000Y-58586586D02*
X147700000Y-58370914D01*
%TO.C,C36*%
X179636252Y-69615000D02*
X179113748Y-69615000D01*
X179636252Y-71085000D02*
X179113748Y-71085000D01*
%TD*%
M02*
