%TF.GenerationSoftware,KiCad,Pcbnew,10.0.5*%
%TF.CreationDate,2026-08-30T14:17:10-05:00*%
%TF.ProjectId,PelletPirate_V5,50656c6c-6574-4506-9972-6174655f5635,rev?*%
%TF.SameCoordinates,Original*%
%TF.FileFunction,Legend,Top*%
%TF.FilePolarity,Positive*%
%FSLAX46Y46*%
G04 Gerber Fmt 4.6, Leading zero omitted, Abs format (unit mm)*
G04 Created by KiCad (PCBNEW 10.0.5) date 2026-08-30 14:17:10*
%MOMM*%
%LPD*%
G01*
G04 APERTURE LIST*
%ADD10C,0.547214*%
%ADD11C,0.160000*%
%ADD12C,0.200000*%
%ADD13C,0.150000*%
%ADD14C,0.200079*%
%ADD15C,0.100000*%
%ADD16C,0.127000*%
%ADD17C,0.120000*%
G04 APERTURE END LIST*
D10*
X156723607Y-121400000D02*
G75*
G02*
X156176393Y-121400000I-273607J0D01*
G01*
X156176393Y-121400000D02*
G75*
G02*
X156723607Y-121400000I273607J0D01*
G01*
D11*
X164281870Y-92810213D02*
X164243775Y-92886403D01*
X164243775Y-92886403D02*
X164243775Y-93000689D01*
X164243775Y-93000689D02*
X164281870Y-93114975D01*
X164281870Y-93114975D02*
X164358060Y-93191165D01*
X164358060Y-93191165D02*
X164434251Y-93229260D01*
X164434251Y-93229260D02*
X164586632Y-93267356D01*
X164586632Y-93267356D02*
X164700918Y-93267356D01*
X164700918Y-93267356D02*
X164853299Y-93229260D01*
X164853299Y-93229260D02*
X164929489Y-93191165D01*
X164929489Y-93191165D02*
X165005680Y-93114975D01*
X165005680Y-93114975D02*
X165043775Y-93000689D01*
X165043775Y-93000689D02*
X165043775Y-92924498D01*
X165043775Y-92924498D02*
X165005680Y-92810213D01*
X165005680Y-92810213D02*
X164967584Y-92772117D01*
X164967584Y-92772117D02*
X164700918Y-92772117D01*
X164700918Y-92772117D02*
X164700918Y-92924498D01*
X165043775Y-92429260D02*
X164243775Y-92429260D01*
X164243775Y-92429260D02*
X165043775Y-91972117D01*
X165043775Y-91972117D02*
X164243775Y-91972117D01*
X165043775Y-91591165D02*
X164243775Y-91591165D01*
X164243775Y-91591165D02*
X164243775Y-91400689D01*
X164243775Y-91400689D02*
X164281870Y-91286403D01*
X164281870Y-91286403D02*
X164358060Y-91210213D01*
X164358060Y-91210213D02*
X164434251Y-91172118D01*
X164434251Y-91172118D02*
X164586632Y-91134022D01*
X164586632Y-91134022D02*
X164700918Y-91134022D01*
X164700918Y-91134022D02*
X164853299Y-91172118D01*
X164853299Y-91172118D02*
X164929489Y-91210213D01*
X164929489Y-91210213D02*
X165005680Y-91286403D01*
X165005680Y-91286403D02*
X165043775Y-91400689D01*
X165043775Y-91400689D02*
X165043775Y-91591165D01*
X167568775Y-92848308D02*
X167568775Y-93229260D01*
X167568775Y-93229260D02*
X166768775Y-93229260D01*
X167149727Y-92581641D02*
X167149727Y-92314975D01*
X167568775Y-92200689D02*
X167568775Y-92581641D01*
X167568775Y-92581641D02*
X166768775Y-92581641D01*
X166768775Y-92581641D02*
X166768775Y-92200689D01*
X167568775Y-91857831D02*
X166768775Y-91857831D01*
X166768775Y-91857831D02*
X166768775Y-91667355D01*
X166768775Y-91667355D02*
X166806870Y-91553069D01*
X166806870Y-91553069D02*
X166883060Y-91476879D01*
X166883060Y-91476879D02*
X166959251Y-91438784D01*
X166959251Y-91438784D02*
X167111632Y-91400688D01*
X167111632Y-91400688D02*
X167225918Y-91400688D01*
X167225918Y-91400688D02*
X167378299Y-91438784D01*
X167378299Y-91438784D02*
X167454489Y-91476879D01*
X167454489Y-91476879D02*
X167530680Y-91553069D01*
X167530680Y-91553069D02*
X167568775Y-91667355D01*
X167568775Y-91667355D02*
X167568775Y-91857831D01*
X167264013Y-91057831D02*
X167264013Y-90448308D01*
X167568775Y-90753069D02*
X166959251Y-90753069D01*
X169764013Y-93229260D02*
X169764013Y-92619737D01*
X170068775Y-92924498D02*
X169459251Y-92924498D01*
X169268775Y-92314975D02*
X169268775Y-91819737D01*
X169268775Y-91819737D02*
X169573537Y-92086403D01*
X169573537Y-92086403D02*
X169573537Y-91972118D01*
X169573537Y-91972118D02*
X169611632Y-91895927D01*
X169611632Y-91895927D02*
X169649727Y-91857832D01*
X169649727Y-91857832D02*
X169725918Y-91819737D01*
X169725918Y-91819737D02*
X169916394Y-91819737D01*
X169916394Y-91819737D02*
X169992584Y-91857832D01*
X169992584Y-91857832D02*
X170030680Y-91895927D01*
X170030680Y-91895927D02*
X170068775Y-91972118D01*
X170068775Y-91972118D02*
X170068775Y-92200689D01*
X170068775Y-92200689D02*
X170030680Y-92276880D01*
X170030680Y-92276880D02*
X169992584Y-92314975D01*
X169992584Y-91476879D02*
X170030680Y-91438784D01*
X170030680Y-91438784D02*
X170068775Y-91476879D01*
X170068775Y-91476879D02*
X170030680Y-91514975D01*
X170030680Y-91514975D02*
X169992584Y-91476879D01*
X169992584Y-91476879D02*
X170068775Y-91476879D01*
X169268775Y-91172118D02*
X169268775Y-90676880D01*
X169268775Y-90676880D02*
X169573537Y-90943546D01*
X169573537Y-90943546D02*
X169573537Y-90829261D01*
X169573537Y-90829261D02*
X169611632Y-90753070D01*
X169611632Y-90753070D02*
X169649727Y-90714975D01*
X169649727Y-90714975D02*
X169725918Y-90676880D01*
X169725918Y-90676880D02*
X169916394Y-90676880D01*
X169916394Y-90676880D02*
X169992584Y-90714975D01*
X169992584Y-90714975D02*
X170030680Y-90753070D01*
X170030680Y-90753070D02*
X170068775Y-90829261D01*
X170068775Y-90829261D02*
X170068775Y-91057832D01*
X170068775Y-91057832D02*
X170030680Y-91134023D01*
X170030680Y-91134023D02*
X169992584Y-91172118D01*
X169268775Y-90448308D02*
X170068775Y-90181641D01*
X170068775Y-90181641D02*
X169268775Y-89914975D01*
X172289013Y-93229260D02*
X172289013Y-92619737D01*
X172593775Y-92924498D02*
X171984251Y-92924498D01*
X172593775Y-91819737D02*
X172593775Y-92276880D01*
X172593775Y-92048308D02*
X171793775Y-92048308D01*
X171793775Y-92048308D02*
X171908060Y-92124499D01*
X171908060Y-92124499D02*
X171984251Y-92200689D01*
X171984251Y-92200689D02*
X172022346Y-92276880D01*
X171869965Y-91514975D02*
X171831870Y-91476879D01*
X171831870Y-91476879D02*
X171793775Y-91400689D01*
X171793775Y-91400689D02*
X171793775Y-91210213D01*
X171793775Y-91210213D02*
X171831870Y-91134022D01*
X171831870Y-91134022D02*
X171869965Y-91095927D01*
X171869965Y-91095927D02*
X171946156Y-91057832D01*
X171946156Y-91057832D02*
X172022346Y-91057832D01*
X172022346Y-91057832D02*
X172136632Y-91095927D01*
X172136632Y-91095927D02*
X172593775Y-91553070D01*
X172593775Y-91553070D02*
X172593775Y-91057832D01*
X171793775Y-90829260D02*
X172593775Y-90562593D01*
X172593775Y-90562593D02*
X171793775Y-90295927D01*
X120596296Y-84047619D02*
X120558201Y-84123810D01*
X120558201Y-84123810D02*
X120558201Y-84276191D01*
X120558201Y-84276191D02*
X120596296Y-84352381D01*
X120596296Y-84352381D02*
X120672486Y-84428572D01*
X120672486Y-84428572D02*
X120748677Y-84466667D01*
X120748677Y-84466667D02*
X120901058Y-84466667D01*
X120901058Y-84466667D02*
X120977248Y-84428572D01*
X120977248Y-84428572D02*
X121053439Y-84352381D01*
X121053439Y-84352381D02*
X121091534Y-84276191D01*
X121091534Y-84276191D02*
X121091534Y-84123810D01*
X121091534Y-84123810D02*
X121053439Y-84047619D01*
X120291534Y-84200000D02*
X120329629Y-84390476D01*
X120329629Y-84390476D02*
X120443915Y-84580953D01*
X120443915Y-84580953D02*
X120634391Y-84695238D01*
X120634391Y-84695238D02*
X120824867Y-84733334D01*
X120824867Y-84733334D02*
X121015344Y-84695238D01*
X121015344Y-84695238D02*
X121205820Y-84580953D01*
X121205820Y-84580953D02*
X121320105Y-84390476D01*
X121320105Y-84390476D02*
X121358201Y-84200000D01*
X121358201Y-84200000D02*
X121320105Y-84009524D01*
X121320105Y-84009524D02*
X121205820Y-83819048D01*
X121205820Y-83819048D02*
X121015344Y-83704762D01*
X121015344Y-83704762D02*
X120824867Y-83666667D01*
X120824867Y-83666667D02*
X120634391Y-83704762D01*
X120634391Y-83704762D02*
X120443915Y-83819048D01*
X120443915Y-83819048D02*
X120329629Y-84009524D01*
X120329629Y-84009524D02*
X120291534Y-84200000D01*
X121205820Y-82714285D02*
X120405820Y-82714285D01*
X120405820Y-82714285D02*
X120405820Y-82409523D01*
X120405820Y-82409523D02*
X120443915Y-82333333D01*
X120443915Y-82333333D02*
X120482010Y-82295238D01*
X120482010Y-82295238D02*
X120558201Y-82257142D01*
X120558201Y-82257142D02*
X120672486Y-82257142D01*
X120672486Y-82257142D02*
X120748677Y-82295238D01*
X120748677Y-82295238D02*
X120786772Y-82333333D01*
X120786772Y-82333333D02*
X120824867Y-82409523D01*
X120824867Y-82409523D02*
X120824867Y-82714285D01*
X121167725Y-81609523D02*
X121205820Y-81685714D01*
X121205820Y-81685714D02*
X121205820Y-81838095D01*
X121205820Y-81838095D02*
X121167725Y-81914285D01*
X121167725Y-81914285D02*
X121091534Y-81952381D01*
X121091534Y-81952381D02*
X120786772Y-81952381D01*
X120786772Y-81952381D02*
X120710582Y-81914285D01*
X120710582Y-81914285D02*
X120672486Y-81838095D01*
X120672486Y-81838095D02*
X120672486Y-81685714D01*
X120672486Y-81685714D02*
X120710582Y-81609523D01*
X120710582Y-81609523D02*
X120786772Y-81571428D01*
X120786772Y-81571428D02*
X120862963Y-81571428D01*
X120862963Y-81571428D02*
X120939153Y-81952381D01*
X121205820Y-81114286D02*
X121167725Y-81190476D01*
X121167725Y-81190476D02*
X121091534Y-81228571D01*
X121091534Y-81228571D02*
X120405820Y-81228571D01*
X121205820Y-80695238D02*
X121167725Y-80771428D01*
X121167725Y-80771428D02*
X121091534Y-80809523D01*
X121091534Y-80809523D02*
X120405820Y-80809523D01*
X121167725Y-80085713D02*
X121205820Y-80161904D01*
X121205820Y-80161904D02*
X121205820Y-80314285D01*
X121205820Y-80314285D02*
X121167725Y-80390475D01*
X121167725Y-80390475D02*
X121091534Y-80428571D01*
X121091534Y-80428571D02*
X120786772Y-80428571D01*
X120786772Y-80428571D02*
X120710582Y-80390475D01*
X120710582Y-80390475D02*
X120672486Y-80314285D01*
X120672486Y-80314285D02*
X120672486Y-80161904D01*
X120672486Y-80161904D02*
X120710582Y-80085713D01*
X120710582Y-80085713D02*
X120786772Y-80047618D01*
X120786772Y-80047618D02*
X120862963Y-80047618D01*
X120862963Y-80047618D02*
X120939153Y-80428571D01*
X120672486Y-79819047D02*
X120672486Y-79514285D01*
X120405820Y-79704761D02*
X121091534Y-79704761D01*
X121091534Y-79704761D02*
X121167725Y-79666666D01*
X121167725Y-79666666D02*
X121205820Y-79590476D01*
X121205820Y-79590476D02*
X121205820Y-79514285D01*
X121205820Y-79247618D02*
X120405820Y-79247618D01*
X120405820Y-79247618D02*
X120405820Y-78942856D01*
X120405820Y-78942856D02*
X120443915Y-78866666D01*
X120443915Y-78866666D02*
X120482010Y-78828571D01*
X120482010Y-78828571D02*
X120558201Y-78790475D01*
X120558201Y-78790475D02*
X120672486Y-78790475D01*
X120672486Y-78790475D02*
X120748677Y-78828571D01*
X120748677Y-78828571D02*
X120786772Y-78866666D01*
X120786772Y-78866666D02*
X120824867Y-78942856D01*
X120824867Y-78942856D02*
X120824867Y-79247618D01*
X121205820Y-78447618D02*
X120672486Y-78447618D01*
X120405820Y-78447618D02*
X120443915Y-78485714D01*
X120443915Y-78485714D02*
X120482010Y-78447618D01*
X120482010Y-78447618D02*
X120443915Y-78409523D01*
X120443915Y-78409523D02*
X120405820Y-78447618D01*
X120405820Y-78447618D02*
X120482010Y-78447618D01*
X121205820Y-78066666D02*
X120672486Y-78066666D01*
X120824867Y-78066666D02*
X120748677Y-78028571D01*
X120748677Y-78028571D02*
X120710582Y-77990476D01*
X120710582Y-77990476D02*
X120672486Y-77914285D01*
X120672486Y-77914285D02*
X120672486Y-77838095D01*
X121205820Y-77228571D02*
X120786772Y-77228571D01*
X120786772Y-77228571D02*
X120710582Y-77266666D01*
X120710582Y-77266666D02*
X120672486Y-77342857D01*
X120672486Y-77342857D02*
X120672486Y-77495238D01*
X120672486Y-77495238D02*
X120710582Y-77571428D01*
X121167725Y-77228571D02*
X121205820Y-77304762D01*
X121205820Y-77304762D02*
X121205820Y-77495238D01*
X121205820Y-77495238D02*
X121167725Y-77571428D01*
X121167725Y-77571428D02*
X121091534Y-77609524D01*
X121091534Y-77609524D02*
X121015344Y-77609524D01*
X121015344Y-77609524D02*
X120939153Y-77571428D01*
X120939153Y-77571428D02*
X120901058Y-77495238D01*
X120901058Y-77495238D02*
X120901058Y-77304762D01*
X120901058Y-77304762D02*
X120862963Y-77228571D01*
X120672486Y-76961904D02*
X120672486Y-76657142D01*
X120405820Y-76847618D02*
X121091534Y-76847618D01*
X121091534Y-76847618D02*
X121167725Y-76809523D01*
X121167725Y-76809523D02*
X121205820Y-76733333D01*
X121205820Y-76733333D02*
X121205820Y-76657142D01*
X121167725Y-76085713D02*
X121205820Y-76161904D01*
X121205820Y-76161904D02*
X121205820Y-76314285D01*
X121205820Y-76314285D02*
X121167725Y-76390475D01*
X121167725Y-76390475D02*
X121091534Y-76428571D01*
X121091534Y-76428571D02*
X120786772Y-76428571D01*
X120786772Y-76428571D02*
X120710582Y-76390475D01*
X120710582Y-76390475D02*
X120672486Y-76314285D01*
X120672486Y-76314285D02*
X120672486Y-76161904D01*
X120672486Y-76161904D02*
X120710582Y-76085713D01*
X120710582Y-76085713D02*
X120786772Y-76047618D01*
X120786772Y-76047618D02*
X120862963Y-76047618D01*
X120862963Y-76047618D02*
X120939153Y-76428571D01*
X120672486Y-75171428D02*
X121205820Y-74980952D01*
X121205820Y-74980952D02*
X120672486Y-74790475D01*
X120405820Y-74104761D02*
X120405820Y-74485713D01*
X120405820Y-74485713D02*
X120786772Y-74523809D01*
X120786772Y-74523809D02*
X120748677Y-74485713D01*
X120748677Y-74485713D02*
X120710582Y-74409523D01*
X120710582Y-74409523D02*
X120710582Y-74219047D01*
X120710582Y-74219047D02*
X120748677Y-74142856D01*
X120748677Y-74142856D02*
X120786772Y-74104761D01*
X120786772Y-74104761D02*
X120862963Y-74066666D01*
X120862963Y-74066666D02*
X121053439Y-74066666D01*
X121053439Y-74066666D02*
X121129629Y-74104761D01*
X121129629Y-74104761D02*
X121167725Y-74142856D01*
X121167725Y-74142856D02*
X121205820Y-74219047D01*
X121205820Y-74219047D02*
X121205820Y-74409523D01*
X121205820Y-74409523D02*
X121167725Y-74485713D01*
X121167725Y-74485713D02*
X121129629Y-74523809D01*
X121129629Y-73723808D02*
X121167725Y-73685713D01*
X121167725Y-73685713D02*
X121205820Y-73723808D01*
X121205820Y-73723808D02*
X121167725Y-73761904D01*
X121167725Y-73761904D02*
X121129629Y-73723808D01*
X121129629Y-73723808D02*
X121205820Y-73723808D01*
X120405820Y-73190475D02*
X120405820Y-73114285D01*
X120405820Y-73114285D02*
X120443915Y-73038094D01*
X120443915Y-73038094D02*
X120482010Y-72999999D01*
X120482010Y-72999999D02*
X120558201Y-72961904D01*
X120558201Y-72961904D02*
X120710582Y-72923809D01*
X120710582Y-72923809D02*
X120901058Y-72923809D01*
X120901058Y-72923809D02*
X121053439Y-72961904D01*
X121053439Y-72961904D02*
X121129629Y-72999999D01*
X121129629Y-72999999D02*
X121167725Y-73038094D01*
X121167725Y-73038094D02*
X121205820Y-73114285D01*
X121205820Y-73114285D02*
X121205820Y-73190475D01*
X121205820Y-73190475D02*
X121167725Y-73266666D01*
X121167725Y-73266666D02*
X121129629Y-73304761D01*
X121129629Y-73304761D02*
X121053439Y-73342856D01*
X121053439Y-73342856D02*
X120901058Y-73380952D01*
X120901058Y-73380952D02*
X120710582Y-73380952D01*
X120710582Y-73380952D02*
X120558201Y-73342856D01*
X120558201Y-73342856D02*
X120482010Y-73304761D01*
X120482010Y-73304761D02*
X120443915Y-73266666D01*
X120443915Y-73266666D02*
X120405820Y-73190475D01*
X120482010Y-72009523D02*
X120443915Y-71971427D01*
X120443915Y-71971427D02*
X120405820Y-71895237D01*
X120405820Y-71895237D02*
X120405820Y-71704761D01*
X120405820Y-71704761D02*
X120443915Y-71628570D01*
X120443915Y-71628570D02*
X120482010Y-71590475D01*
X120482010Y-71590475D02*
X120558201Y-71552380D01*
X120558201Y-71552380D02*
X120634391Y-71552380D01*
X120634391Y-71552380D02*
X120748677Y-71590475D01*
X120748677Y-71590475D02*
X121205820Y-72047618D01*
X121205820Y-72047618D02*
X121205820Y-71552380D01*
X120405820Y-71057141D02*
X120405820Y-70980951D01*
X120405820Y-70980951D02*
X120443915Y-70904760D01*
X120443915Y-70904760D02*
X120482010Y-70866665D01*
X120482010Y-70866665D02*
X120558201Y-70828570D01*
X120558201Y-70828570D02*
X120710582Y-70790475D01*
X120710582Y-70790475D02*
X120901058Y-70790475D01*
X120901058Y-70790475D02*
X121053439Y-70828570D01*
X121053439Y-70828570D02*
X121129629Y-70866665D01*
X121129629Y-70866665D02*
X121167725Y-70904760D01*
X121167725Y-70904760D02*
X121205820Y-70980951D01*
X121205820Y-70980951D02*
X121205820Y-71057141D01*
X121205820Y-71057141D02*
X121167725Y-71133332D01*
X121167725Y-71133332D02*
X121129629Y-71171427D01*
X121129629Y-71171427D02*
X121053439Y-71209522D01*
X121053439Y-71209522D02*
X120901058Y-71247618D01*
X120901058Y-71247618D02*
X120710582Y-71247618D01*
X120710582Y-71247618D02*
X120558201Y-71209522D01*
X120558201Y-71209522D02*
X120482010Y-71171427D01*
X120482010Y-71171427D02*
X120443915Y-71133332D01*
X120443915Y-71133332D02*
X120405820Y-71057141D01*
X120482010Y-70485713D02*
X120443915Y-70447617D01*
X120443915Y-70447617D02*
X120405820Y-70371427D01*
X120405820Y-70371427D02*
X120405820Y-70180951D01*
X120405820Y-70180951D02*
X120443915Y-70104760D01*
X120443915Y-70104760D02*
X120482010Y-70066665D01*
X120482010Y-70066665D02*
X120558201Y-70028570D01*
X120558201Y-70028570D02*
X120634391Y-70028570D01*
X120634391Y-70028570D02*
X120748677Y-70066665D01*
X120748677Y-70066665D02*
X121205820Y-70523808D01*
X121205820Y-70523808D02*
X121205820Y-70028570D01*
X120405820Y-69342855D02*
X120405820Y-69495236D01*
X120405820Y-69495236D02*
X120443915Y-69571427D01*
X120443915Y-69571427D02*
X120482010Y-69609522D01*
X120482010Y-69609522D02*
X120596296Y-69685712D01*
X120596296Y-69685712D02*
X120748677Y-69723808D01*
X120748677Y-69723808D02*
X121053439Y-69723808D01*
X121053439Y-69723808D02*
X121129629Y-69685712D01*
X121129629Y-69685712D02*
X121167725Y-69647617D01*
X121167725Y-69647617D02*
X121205820Y-69571427D01*
X121205820Y-69571427D02*
X121205820Y-69419046D01*
X121205820Y-69419046D02*
X121167725Y-69342855D01*
X121167725Y-69342855D02*
X121129629Y-69304760D01*
X121129629Y-69304760D02*
X121053439Y-69266665D01*
X121053439Y-69266665D02*
X120862963Y-69266665D01*
X120862963Y-69266665D02*
X120786772Y-69304760D01*
X120786772Y-69304760D02*
X120748677Y-69342855D01*
X120748677Y-69342855D02*
X120710582Y-69419046D01*
X120710582Y-69419046D02*
X120710582Y-69571427D01*
X120710582Y-69571427D02*
X120748677Y-69647617D01*
X120748677Y-69647617D02*
X120786772Y-69685712D01*
X120786772Y-69685712D02*
X120862963Y-69723808D01*
X121693775Y-85476190D02*
X121846156Y-85476190D01*
X121693775Y-85171428D02*
X121846156Y-85171428D01*
X122493775Y-84828570D02*
X121693775Y-84828570D01*
X121960441Y-84561904D02*
X121960441Y-84257142D01*
X121693775Y-84447618D02*
X122379489Y-84447618D01*
X122379489Y-84447618D02*
X122455680Y-84409523D01*
X122455680Y-84409523D02*
X122493775Y-84333333D01*
X122493775Y-84333333D02*
X122493775Y-84257142D01*
X121693775Y-83952380D02*
X121846156Y-84028571D01*
X122455680Y-83647619D02*
X122493775Y-83571428D01*
X122493775Y-83571428D02*
X122493775Y-83419047D01*
X122493775Y-83419047D02*
X122455680Y-83342857D01*
X122455680Y-83342857D02*
X122379489Y-83304761D01*
X122379489Y-83304761D02*
X122341394Y-83304761D01*
X122341394Y-83304761D02*
X122265203Y-83342857D01*
X122265203Y-83342857D02*
X122227108Y-83419047D01*
X122227108Y-83419047D02*
X122227108Y-83533333D01*
X122227108Y-83533333D02*
X122189013Y-83609523D01*
X122189013Y-83609523D02*
X122112822Y-83647619D01*
X122112822Y-83647619D02*
X122074727Y-83647619D01*
X122074727Y-83647619D02*
X121998537Y-83609523D01*
X121998537Y-83609523D02*
X121960441Y-83533333D01*
X121960441Y-83533333D02*
X121960441Y-83419047D01*
X121960441Y-83419047D02*
X121998537Y-83342857D01*
X122493775Y-82009523D02*
X122074727Y-82009523D01*
X122074727Y-82009523D02*
X121998537Y-82047618D01*
X121998537Y-82047618D02*
X121960441Y-82123809D01*
X121960441Y-82123809D02*
X121960441Y-82276190D01*
X121960441Y-82276190D02*
X121998537Y-82352380D01*
X122455680Y-82009523D02*
X122493775Y-82085714D01*
X122493775Y-82085714D02*
X122493775Y-82276190D01*
X122493775Y-82276190D02*
X122455680Y-82352380D01*
X122455680Y-82352380D02*
X122379489Y-82390476D01*
X122379489Y-82390476D02*
X122303299Y-82390476D01*
X122303299Y-82390476D02*
X122227108Y-82352380D01*
X122227108Y-82352380D02*
X122189013Y-82276190D01*
X122189013Y-82276190D02*
X122189013Y-82085714D01*
X122189013Y-82085714D02*
X122150918Y-82009523D01*
X122493775Y-81019046D02*
X121693775Y-81019046D01*
X121693775Y-81019046D02*
X121693775Y-80714284D01*
X121693775Y-80714284D02*
X121731870Y-80638094D01*
X121731870Y-80638094D02*
X121769965Y-80599999D01*
X121769965Y-80599999D02*
X121846156Y-80561903D01*
X121846156Y-80561903D02*
X121960441Y-80561903D01*
X121960441Y-80561903D02*
X122036632Y-80599999D01*
X122036632Y-80599999D02*
X122074727Y-80638094D01*
X122074727Y-80638094D02*
X122112822Y-80714284D01*
X122112822Y-80714284D02*
X122112822Y-81019046D01*
X122493775Y-80219046D02*
X121960441Y-80219046D01*
X121693775Y-80219046D02*
X121731870Y-80257142D01*
X121731870Y-80257142D02*
X121769965Y-80219046D01*
X121769965Y-80219046D02*
X121731870Y-80180951D01*
X121731870Y-80180951D02*
X121693775Y-80219046D01*
X121693775Y-80219046D02*
X121769965Y-80219046D01*
X122493775Y-79838094D02*
X121960441Y-79838094D01*
X122112822Y-79838094D02*
X122036632Y-79799999D01*
X122036632Y-79799999D02*
X121998537Y-79761904D01*
X121998537Y-79761904D02*
X121960441Y-79685713D01*
X121960441Y-79685713D02*
X121960441Y-79609523D01*
X122493775Y-78999999D02*
X122074727Y-78999999D01*
X122074727Y-78999999D02*
X121998537Y-79038094D01*
X121998537Y-79038094D02*
X121960441Y-79114285D01*
X121960441Y-79114285D02*
X121960441Y-79266666D01*
X121960441Y-79266666D02*
X121998537Y-79342856D01*
X122455680Y-78999999D02*
X122493775Y-79076190D01*
X122493775Y-79076190D02*
X122493775Y-79266666D01*
X122493775Y-79266666D02*
X122455680Y-79342856D01*
X122455680Y-79342856D02*
X122379489Y-79380952D01*
X122379489Y-79380952D02*
X122303299Y-79380952D01*
X122303299Y-79380952D02*
X122227108Y-79342856D01*
X122227108Y-79342856D02*
X122189013Y-79266666D01*
X122189013Y-79266666D02*
X122189013Y-79076190D01*
X122189013Y-79076190D02*
X122150918Y-78999999D01*
X121960441Y-78733332D02*
X121960441Y-78428570D01*
X121693775Y-78619046D02*
X122379489Y-78619046D01*
X122379489Y-78619046D02*
X122455680Y-78580951D01*
X122455680Y-78580951D02*
X122493775Y-78504761D01*
X122493775Y-78504761D02*
X122493775Y-78428570D01*
X122455680Y-77857141D02*
X122493775Y-77933332D01*
X122493775Y-77933332D02*
X122493775Y-78085713D01*
X122493775Y-78085713D02*
X122455680Y-78161903D01*
X122455680Y-78161903D02*
X122379489Y-78199999D01*
X122379489Y-78199999D02*
X122074727Y-78199999D01*
X122074727Y-78199999D02*
X121998537Y-78161903D01*
X121998537Y-78161903D02*
X121960441Y-78085713D01*
X121960441Y-78085713D02*
X121960441Y-77933332D01*
X121960441Y-77933332D02*
X121998537Y-77857141D01*
X121998537Y-77857141D02*
X122074727Y-77819046D01*
X122074727Y-77819046D02*
X122150918Y-77819046D01*
X122150918Y-77819046D02*
X122227108Y-78199999D01*
X121693775Y-77438094D02*
X121846156Y-77514285D01*
X122455680Y-77133333D02*
X122493775Y-77057142D01*
X122493775Y-77057142D02*
X122493775Y-76904761D01*
X122493775Y-76904761D02*
X122455680Y-76828571D01*
X122455680Y-76828571D02*
X122379489Y-76790475D01*
X122379489Y-76790475D02*
X122341394Y-76790475D01*
X122341394Y-76790475D02*
X122265203Y-76828571D01*
X122265203Y-76828571D02*
X122227108Y-76904761D01*
X122227108Y-76904761D02*
X122227108Y-77019047D01*
X122227108Y-77019047D02*
X122189013Y-77095237D01*
X122189013Y-77095237D02*
X122112822Y-77133333D01*
X122112822Y-77133333D02*
X122074727Y-77133333D01*
X122074727Y-77133333D02*
X121998537Y-77095237D01*
X121998537Y-77095237D02*
X121960441Y-77019047D01*
X121960441Y-77019047D02*
X121960441Y-76904761D01*
X121960441Y-76904761D02*
X121998537Y-76828571D01*
X122493775Y-75457142D02*
X122493775Y-75838094D01*
X122493775Y-75838094D02*
X121693775Y-75838094D01*
X122493775Y-75190475D02*
X121960441Y-75190475D01*
X121693775Y-75190475D02*
X121731870Y-75228571D01*
X121731870Y-75228571D02*
X121769965Y-75190475D01*
X121769965Y-75190475D02*
X121731870Y-75152380D01*
X121731870Y-75152380D02*
X121693775Y-75190475D01*
X121693775Y-75190475D02*
X121769965Y-75190475D01*
X121960441Y-74923809D02*
X121960441Y-74619047D01*
X122493775Y-74809523D02*
X121808060Y-74809523D01*
X121808060Y-74809523D02*
X121731870Y-74771428D01*
X121731870Y-74771428D02*
X121693775Y-74695238D01*
X121693775Y-74695238D02*
X121693775Y-74619047D01*
X122455680Y-74047618D02*
X122493775Y-74123809D01*
X122493775Y-74123809D02*
X122493775Y-74276190D01*
X122493775Y-74276190D02*
X122455680Y-74352380D01*
X122455680Y-74352380D02*
X122379489Y-74390476D01*
X122379489Y-74390476D02*
X122074727Y-74390476D01*
X122074727Y-74390476D02*
X121998537Y-74352380D01*
X121998537Y-74352380D02*
X121960441Y-74276190D01*
X121960441Y-74276190D02*
X121960441Y-74123809D01*
X121960441Y-74123809D02*
X121998537Y-74047618D01*
X121998537Y-74047618D02*
X122074727Y-74009523D01*
X122074727Y-74009523D02*
X122150918Y-74009523D01*
X122150918Y-74009523D02*
X122227108Y-74390476D01*
X121960441Y-73171428D02*
X121960441Y-72866666D01*
X122493775Y-73057142D02*
X121808060Y-73057142D01*
X121808060Y-73057142D02*
X121731870Y-73019047D01*
X121731870Y-73019047D02*
X121693775Y-72942857D01*
X121693775Y-72942857D02*
X121693775Y-72866666D01*
X122493775Y-72485714D02*
X122455680Y-72561904D01*
X122455680Y-72561904D02*
X122417584Y-72599999D01*
X122417584Y-72599999D02*
X122341394Y-72638095D01*
X122341394Y-72638095D02*
X122112822Y-72638095D01*
X122112822Y-72638095D02*
X122036632Y-72599999D01*
X122036632Y-72599999D02*
X121998537Y-72561904D01*
X121998537Y-72561904D02*
X121960441Y-72485714D01*
X121960441Y-72485714D02*
X121960441Y-72371428D01*
X121960441Y-72371428D02*
X121998537Y-72295237D01*
X121998537Y-72295237D02*
X122036632Y-72257142D01*
X122036632Y-72257142D02*
X122112822Y-72219047D01*
X122112822Y-72219047D02*
X122341394Y-72219047D01*
X122341394Y-72219047D02*
X122417584Y-72257142D01*
X122417584Y-72257142D02*
X122455680Y-72295237D01*
X122455680Y-72295237D02*
X122493775Y-72371428D01*
X122493775Y-72371428D02*
X122493775Y-72485714D01*
X122493775Y-71876189D02*
X121960441Y-71876189D01*
X122112822Y-71876189D02*
X122036632Y-71838094D01*
X122036632Y-71838094D02*
X121998537Y-71799999D01*
X121998537Y-71799999D02*
X121960441Y-71723808D01*
X121960441Y-71723808D02*
X121960441Y-71647618D01*
X122493775Y-70771427D02*
X121693775Y-70771427D01*
X121693775Y-70771427D02*
X122265203Y-70504761D01*
X122265203Y-70504761D02*
X121693775Y-70238094D01*
X121693775Y-70238094D02*
X122493775Y-70238094D01*
X122455680Y-69552379D02*
X122493775Y-69628570D01*
X122493775Y-69628570D02*
X122493775Y-69780951D01*
X122493775Y-69780951D02*
X122455680Y-69857141D01*
X122455680Y-69857141D02*
X122379489Y-69895237D01*
X122379489Y-69895237D02*
X122074727Y-69895237D01*
X122074727Y-69895237D02*
X121998537Y-69857141D01*
X121998537Y-69857141D02*
X121960441Y-69780951D01*
X121960441Y-69780951D02*
X121960441Y-69628570D01*
X121960441Y-69628570D02*
X121998537Y-69552379D01*
X121998537Y-69552379D02*
X122074727Y-69514284D01*
X122074727Y-69514284D02*
X122150918Y-69514284D01*
X122150918Y-69514284D02*
X122227108Y-69895237D01*
X122417584Y-69171427D02*
X122455680Y-69133332D01*
X122455680Y-69133332D02*
X122493775Y-69171427D01*
X122493775Y-69171427D02*
X122455680Y-69209523D01*
X122455680Y-69209523D02*
X122417584Y-69171427D01*
X122417584Y-69171427D02*
X122493775Y-69171427D01*
X122189013Y-69171427D02*
X121731870Y-69209523D01*
X121731870Y-69209523D02*
X121693775Y-69171427D01*
X121693775Y-69171427D02*
X121731870Y-69133332D01*
X121731870Y-69133332D02*
X122189013Y-69171427D01*
X122189013Y-69171427D02*
X121693775Y-69171427D01*
X121693775Y-68828571D02*
X121846156Y-68828571D01*
X121693775Y-68523809D02*
X121846156Y-68523809D01*
D12*
X133604197Y-62916695D02*
X133337530Y-62535742D01*
X133147054Y-62916695D02*
X133147054Y-62116695D01*
X133147054Y-62116695D02*
X133451816Y-62116695D01*
X133451816Y-62116695D02*
X133528006Y-62154790D01*
X133528006Y-62154790D02*
X133566101Y-62192885D01*
X133566101Y-62192885D02*
X133604197Y-62269076D01*
X133604197Y-62269076D02*
X133604197Y-62383361D01*
X133604197Y-62383361D02*
X133566101Y-62459552D01*
X133566101Y-62459552D02*
X133528006Y-62497647D01*
X133528006Y-62497647D02*
X133451816Y-62535742D01*
X133451816Y-62535742D02*
X133147054Y-62535742D01*
X133947054Y-62497647D02*
X134213720Y-62497647D01*
X134328006Y-62916695D02*
X133947054Y-62916695D01*
X133947054Y-62916695D02*
X133947054Y-62116695D01*
X133947054Y-62116695D02*
X134328006Y-62116695D01*
X134632768Y-62878600D02*
X134747054Y-62916695D01*
X134747054Y-62916695D02*
X134937530Y-62916695D01*
X134937530Y-62916695D02*
X135013721Y-62878600D01*
X135013721Y-62878600D02*
X135051816Y-62840504D01*
X135051816Y-62840504D02*
X135089911Y-62764314D01*
X135089911Y-62764314D02*
X135089911Y-62688123D01*
X135089911Y-62688123D02*
X135051816Y-62611933D01*
X135051816Y-62611933D02*
X135013721Y-62573838D01*
X135013721Y-62573838D02*
X134937530Y-62535742D01*
X134937530Y-62535742D02*
X134785149Y-62497647D01*
X134785149Y-62497647D02*
X134708959Y-62459552D01*
X134708959Y-62459552D02*
X134670864Y-62421457D01*
X134670864Y-62421457D02*
X134632768Y-62345266D01*
X134632768Y-62345266D02*
X134632768Y-62269076D01*
X134632768Y-62269076D02*
X134670864Y-62192885D01*
X134670864Y-62192885D02*
X134708959Y-62154790D01*
X134708959Y-62154790D02*
X134785149Y-62116695D01*
X134785149Y-62116695D02*
X134975626Y-62116695D01*
X134975626Y-62116695D02*
X135089911Y-62154790D01*
X135432769Y-62497647D02*
X135699435Y-62497647D01*
X135813721Y-62916695D02*
X135432769Y-62916695D01*
X135432769Y-62916695D02*
X135432769Y-62116695D01*
X135432769Y-62116695D02*
X135813721Y-62116695D01*
X136042293Y-62116695D02*
X136499436Y-62116695D01*
X136270864Y-62916695D02*
X136270864Y-62116695D01*
X137663720Y-62497647D02*
X137778006Y-62535742D01*
X137778006Y-62535742D02*
X137816101Y-62573838D01*
X137816101Y-62573838D02*
X137854197Y-62650028D01*
X137854197Y-62650028D02*
X137854197Y-62764314D01*
X137854197Y-62764314D02*
X137816101Y-62840504D01*
X137816101Y-62840504D02*
X137778006Y-62878600D01*
X137778006Y-62878600D02*
X137701816Y-62916695D01*
X137701816Y-62916695D02*
X137397054Y-62916695D01*
X137397054Y-62916695D02*
X137397054Y-62116695D01*
X137397054Y-62116695D02*
X137663720Y-62116695D01*
X137663720Y-62116695D02*
X137739911Y-62154790D01*
X137739911Y-62154790D02*
X137778006Y-62192885D01*
X137778006Y-62192885D02*
X137816101Y-62269076D01*
X137816101Y-62269076D02*
X137816101Y-62345266D01*
X137816101Y-62345266D02*
X137778006Y-62421457D01*
X137778006Y-62421457D02*
X137739911Y-62459552D01*
X137739911Y-62459552D02*
X137663720Y-62497647D01*
X137663720Y-62497647D02*
X137397054Y-62497647D01*
X138349435Y-62116695D02*
X138501816Y-62116695D01*
X138501816Y-62116695D02*
X138578006Y-62154790D01*
X138578006Y-62154790D02*
X138654197Y-62230980D01*
X138654197Y-62230980D02*
X138692292Y-62383361D01*
X138692292Y-62383361D02*
X138692292Y-62650028D01*
X138692292Y-62650028D02*
X138654197Y-62802409D01*
X138654197Y-62802409D02*
X138578006Y-62878600D01*
X138578006Y-62878600D02*
X138501816Y-62916695D01*
X138501816Y-62916695D02*
X138349435Y-62916695D01*
X138349435Y-62916695D02*
X138273244Y-62878600D01*
X138273244Y-62878600D02*
X138197054Y-62802409D01*
X138197054Y-62802409D02*
X138158958Y-62650028D01*
X138158958Y-62650028D02*
X138158958Y-62383361D01*
X138158958Y-62383361D02*
X138197054Y-62230980D01*
X138197054Y-62230980D02*
X138273244Y-62154790D01*
X138273244Y-62154790D02*
X138349435Y-62116695D01*
X139187530Y-62116695D02*
X139339911Y-62116695D01*
X139339911Y-62116695D02*
X139416101Y-62154790D01*
X139416101Y-62154790D02*
X139492292Y-62230980D01*
X139492292Y-62230980D02*
X139530387Y-62383361D01*
X139530387Y-62383361D02*
X139530387Y-62650028D01*
X139530387Y-62650028D02*
X139492292Y-62802409D01*
X139492292Y-62802409D02*
X139416101Y-62878600D01*
X139416101Y-62878600D02*
X139339911Y-62916695D01*
X139339911Y-62916695D02*
X139187530Y-62916695D01*
X139187530Y-62916695D02*
X139111339Y-62878600D01*
X139111339Y-62878600D02*
X139035149Y-62802409D01*
X139035149Y-62802409D02*
X138997053Y-62650028D01*
X138997053Y-62650028D02*
X138997053Y-62383361D01*
X138997053Y-62383361D02*
X139035149Y-62230980D01*
X139035149Y-62230980D02*
X139111339Y-62154790D01*
X139111339Y-62154790D02*
X139187530Y-62116695D01*
X139758958Y-62116695D02*
X140216101Y-62116695D01*
X139987529Y-62916695D02*
X139987529Y-62116695D01*
D13*
X175812295Y-96333333D02*
X175812295Y-96714285D01*
X175812295Y-96714285D02*
X175012295Y-96714285D01*
X175812295Y-95647619D02*
X175812295Y-96104762D01*
X175812295Y-95876190D02*
X175012295Y-95876190D01*
X175012295Y-95876190D02*
X175126580Y-95952381D01*
X175126580Y-95952381D02*
X175202771Y-96028571D01*
X175202771Y-96028571D02*
X175240866Y-96104762D01*
X181968121Y-65960947D02*
X182006217Y-65999043D01*
X182006217Y-65999043D02*
X182044312Y-66113328D01*
X182044312Y-66113328D02*
X182044312Y-66189519D01*
X182044312Y-66189519D02*
X182006217Y-66303805D01*
X182006217Y-66303805D02*
X181930026Y-66379995D01*
X181930026Y-66379995D02*
X181853836Y-66418090D01*
X181853836Y-66418090D02*
X181701455Y-66456186D01*
X181701455Y-66456186D02*
X181587169Y-66456186D01*
X181587169Y-66456186D02*
X181434788Y-66418090D01*
X181434788Y-66418090D02*
X181358597Y-66379995D01*
X181358597Y-66379995D02*
X181282407Y-66303805D01*
X181282407Y-66303805D02*
X181244312Y-66189519D01*
X181244312Y-66189519D02*
X181244312Y-66113328D01*
X181244312Y-66113328D02*
X181282407Y-65999043D01*
X181282407Y-65999043D02*
X181320502Y-65960947D01*
X181510978Y-65275233D02*
X182044312Y-65275233D01*
X181206217Y-65465709D02*
X181777645Y-65656186D01*
X181777645Y-65656186D02*
X181777645Y-65160947D01*
X181244312Y-64932376D02*
X181244312Y-64399042D01*
X181244312Y-64399042D02*
X182044312Y-64741900D01*
D12*
X128133333Y-144402219D02*
X128133333Y-143402219D01*
X129133332Y-143449838D02*
X129038094Y-143402219D01*
X129038094Y-143402219D02*
X128895237Y-143402219D01*
X128895237Y-143402219D02*
X128752380Y-143449838D01*
X128752380Y-143449838D02*
X128657142Y-143545076D01*
X128657142Y-143545076D02*
X128609523Y-143640314D01*
X128609523Y-143640314D02*
X128561904Y-143830790D01*
X128561904Y-143830790D02*
X128561904Y-143973647D01*
X128561904Y-143973647D02*
X128609523Y-144164123D01*
X128609523Y-144164123D02*
X128657142Y-144259361D01*
X128657142Y-144259361D02*
X128752380Y-144354600D01*
X128752380Y-144354600D02*
X128895237Y-144402219D01*
X128895237Y-144402219D02*
X128990475Y-144402219D01*
X128990475Y-144402219D02*
X129133332Y-144354600D01*
X129133332Y-144354600D02*
X129180951Y-144306980D01*
X129180951Y-144306980D02*
X129180951Y-143973647D01*
X129180951Y-143973647D02*
X128990475Y-143973647D01*
X129609523Y-144402219D02*
X129609523Y-143402219D01*
X129609523Y-143402219D02*
X130180951Y-144402219D01*
X130180951Y-144402219D02*
X130180951Y-143402219D01*
X130657142Y-144402219D02*
X130657142Y-143402219D01*
X130990475Y-143402219D02*
X131561903Y-143402219D01*
X131276189Y-144402219D02*
X131276189Y-143402219D01*
X131895237Y-143878409D02*
X132228570Y-143878409D01*
X132371427Y-144402219D02*
X131895237Y-144402219D01*
X131895237Y-144402219D02*
X131895237Y-143402219D01*
X131895237Y-143402219D02*
X132371427Y-143402219D01*
X133371427Y-144402219D02*
X133038094Y-143926028D01*
X132799999Y-144402219D02*
X132799999Y-143402219D01*
X132799999Y-143402219D02*
X133180951Y-143402219D01*
X133180951Y-143402219D02*
X133276189Y-143449838D01*
X133276189Y-143449838D02*
X133323808Y-143497457D01*
X133323808Y-143497457D02*
X133371427Y-143592695D01*
X133371427Y-143592695D02*
X133371427Y-143735552D01*
X133371427Y-143735552D02*
X133323808Y-143830790D01*
X133323808Y-143830790D02*
X133276189Y-143878409D01*
X133276189Y-143878409D02*
X133180951Y-143926028D01*
X133180951Y-143926028D02*
X132799999Y-143926028D01*
X134085713Y-144783171D02*
X134038094Y-144735552D01*
X134038094Y-144735552D02*
X133942856Y-144592695D01*
X133942856Y-144592695D02*
X133895237Y-144497457D01*
X133895237Y-144497457D02*
X133847618Y-144354600D01*
X133847618Y-144354600D02*
X133799999Y-144116504D01*
X133799999Y-144116504D02*
X133799999Y-143926028D01*
X133799999Y-143926028D02*
X133847618Y-143687933D01*
X133847618Y-143687933D02*
X133895237Y-143545076D01*
X133895237Y-143545076D02*
X133942856Y-143449838D01*
X133942856Y-143449838D02*
X134038094Y-143306980D01*
X134038094Y-143306980D02*
X134085713Y-143259361D01*
X134942856Y-144402219D02*
X134466666Y-144402219D01*
X134466666Y-144402219D02*
X134466666Y-143402219D01*
X135180952Y-144783171D02*
X135228571Y-144735552D01*
X135228571Y-144735552D02*
X135323809Y-144592695D01*
X135323809Y-144592695D02*
X135371428Y-144497457D01*
X135371428Y-144497457D02*
X135419047Y-144354600D01*
X135419047Y-144354600D02*
X135466666Y-144116504D01*
X135466666Y-144116504D02*
X135466666Y-143926028D01*
X135466666Y-143926028D02*
X135419047Y-143687933D01*
X135419047Y-143687933D02*
X135371428Y-143545076D01*
X135371428Y-143545076D02*
X135323809Y-143449838D01*
X135323809Y-143449838D02*
X135228571Y-143306980D01*
X135228571Y-143306980D02*
X135180952Y-143259361D01*
D13*
X155866666Y-66843247D02*
X156133332Y-66843247D01*
X156247618Y-67262295D02*
X155866666Y-67262295D01*
X155866666Y-67262295D02*
X155866666Y-66462295D01*
X155866666Y-66462295D02*
X156247618Y-66462295D01*
X156552380Y-67224200D02*
X156666666Y-67262295D01*
X156666666Y-67262295D02*
X156857142Y-67262295D01*
X156857142Y-67262295D02*
X156933333Y-67224200D01*
X156933333Y-67224200D02*
X156971428Y-67186104D01*
X156971428Y-67186104D02*
X157009523Y-67109914D01*
X157009523Y-67109914D02*
X157009523Y-67033723D01*
X157009523Y-67033723D02*
X156971428Y-66957533D01*
X156971428Y-66957533D02*
X156933333Y-66919438D01*
X156933333Y-66919438D02*
X156857142Y-66881342D01*
X156857142Y-66881342D02*
X156704761Y-66843247D01*
X156704761Y-66843247D02*
X156628571Y-66805152D01*
X156628571Y-66805152D02*
X156590476Y-66767057D01*
X156590476Y-66767057D02*
X156552380Y-66690866D01*
X156552380Y-66690866D02*
X156552380Y-66614676D01*
X156552380Y-66614676D02*
X156590476Y-66538485D01*
X156590476Y-66538485D02*
X156628571Y-66500390D01*
X156628571Y-66500390D02*
X156704761Y-66462295D01*
X156704761Y-66462295D02*
X156895238Y-66462295D01*
X156895238Y-66462295D02*
X157009523Y-66500390D01*
X157352381Y-67262295D02*
X157352381Y-66462295D01*
X157352381Y-66462295D02*
X157657143Y-66462295D01*
X157657143Y-66462295D02*
X157733333Y-66500390D01*
X157733333Y-66500390D02*
X157771428Y-66538485D01*
X157771428Y-66538485D02*
X157809524Y-66614676D01*
X157809524Y-66614676D02*
X157809524Y-66728961D01*
X157809524Y-66728961D02*
X157771428Y-66805152D01*
X157771428Y-66805152D02*
X157733333Y-66843247D01*
X157733333Y-66843247D02*
X157657143Y-66881342D01*
X157657143Y-66881342D02*
X157352381Y-66881342D01*
X158571428Y-67262295D02*
X158114285Y-67262295D01*
X158342857Y-67262295D02*
X158342857Y-66462295D01*
X158342857Y-66462295D02*
X158266666Y-66576580D01*
X158266666Y-66576580D02*
X158190476Y-66652771D01*
X158190476Y-66652771D02*
X158114285Y-66690866D01*
D12*
X144714285Y-144166504D02*
X145190475Y-144166504D01*
X144619047Y-144452219D02*
X144952380Y-143452219D01*
X144952380Y-143452219D02*
X145285713Y-144452219D01*
X145619047Y-143452219D02*
X145619047Y-144261742D01*
X145619047Y-144261742D02*
X145666666Y-144356980D01*
X145666666Y-144356980D02*
X145714285Y-144404600D01*
X145714285Y-144404600D02*
X145809523Y-144452219D01*
X145809523Y-144452219D02*
X145999999Y-144452219D01*
X145999999Y-144452219D02*
X146095237Y-144404600D01*
X146095237Y-144404600D02*
X146142856Y-144356980D01*
X146142856Y-144356980D02*
X146190475Y-144261742D01*
X146190475Y-144261742D02*
X146190475Y-143452219D01*
X147190475Y-143499838D02*
X147095237Y-143452219D01*
X147095237Y-143452219D02*
X146952380Y-143452219D01*
X146952380Y-143452219D02*
X146809523Y-143499838D01*
X146809523Y-143499838D02*
X146714285Y-143595076D01*
X146714285Y-143595076D02*
X146666666Y-143690314D01*
X146666666Y-143690314D02*
X146619047Y-143880790D01*
X146619047Y-143880790D02*
X146619047Y-144023647D01*
X146619047Y-144023647D02*
X146666666Y-144214123D01*
X146666666Y-144214123D02*
X146714285Y-144309361D01*
X146714285Y-144309361D02*
X146809523Y-144404600D01*
X146809523Y-144404600D02*
X146952380Y-144452219D01*
X146952380Y-144452219D02*
X147047618Y-144452219D01*
X147047618Y-144452219D02*
X147190475Y-144404600D01*
X147190475Y-144404600D02*
X147238094Y-144356980D01*
X147238094Y-144356980D02*
X147238094Y-144023647D01*
X147238094Y-144023647D02*
X147047618Y-144023647D01*
X147666666Y-143928409D02*
X147999999Y-143928409D01*
X148142856Y-144452219D02*
X147666666Y-144452219D01*
X147666666Y-144452219D02*
X147666666Y-143452219D01*
X147666666Y-143452219D02*
X148142856Y-143452219D01*
X149142856Y-144452219D02*
X148809523Y-143976028D01*
X148571428Y-144452219D02*
X148571428Y-143452219D01*
X148571428Y-143452219D02*
X148952380Y-143452219D01*
X148952380Y-143452219D02*
X149047618Y-143499838D01*
X149047618Y-143499838D02*
X149095237Y-143547457D01*
X149095237Y-143547457D02*
X149142856Y-143642695D01*
X149142856Y-143642695D02*
X149142856Y-143785552D01*
X149142856Y-143785552D02*
X149095237Y-143880790D01*
X149095237Y-143880790D02*
X149047618Y-143928409D01*
X149047618Y-143928409D02*
X148952380Y-143976028D01*
X148952380Y-143976028D02*
X148571428Y-143976028D01*
X149857142Y-144833171D02*
X149809523Y-144785552D01*
X149809523Y-144785552D02*
X149714285Y-144642695D01*
X149714285Y-144642695D02*
X149666666Y-144547457D01*
X149666666Y-144547457D02*
X149619047Y-144404600D01*
X149619047Y-144404600D02*
X149571428Y-144166504D01*
X149571428Y-144166504D02*
X149571428Y-143976028D01*
X149571428Y-143976028D02*
X149619047Y-143737933D01*
X149619047Y-143737933D02*
X149666666Y-143595076D01*
X149666666Y-143595076D02*
X149714285Y-143499838D01*
X149714285Y-143499838D02*
X149809523Y-143356980D01*
X149809523Y-143356980D02*
X149857142Y-143309361D01*
X150714285Y-144452219D02*
X150238095Y-144452219D01*
X150238095Y-144452219D02*
X150238095Y-143452219D01*
X150952381Y-144833171D02*
X151000000Y-144785552D01*
X151000000Y-144785552D02*
X151095238Y-144642695D01*
X151095238Y-144642695D02*
X151142857Y-144547457D01*
X151142857Y-144547457D02*
X151190476Y-144404600D01*
X151190476Y-144404600D02*
X151238095Y-144166504D01*
X151238095Y-144166504D02*
X151238095Y-143976028D01*
X151238095Y-143976028D02*
X151190476Y-143737933D01*
X151190476Y-143737933D02*
X151142857Y-143595076D01*
X151142857Y-143595076D02*
X151095238Y-143499838D01*
X151095238Y-143499838D02*
X151000000Y-143356980D01*
X151000000Y-143356980D02*
X150952381Y-143309361D01*
D13*
X139185714Y-74462295D02*
X138919047Y-74081342D01*
X138728571Y-74462295D02*
X138728571Y-73662295D01*
X138728571Y-73662295D02*
X139033333Y-73662295D01*
X139033333Y-73662295D02*
X139109523Y-73700390D01*
X139109523Y-73700390D02*
X139147618Y-73738485D01*
X139147618Y-73738485D02*
X139185714Y-73814676D01*
X139185714Y-73814676D02*
X139185714Y-73928961D01*
X139185714Y-73928961D02*
X139147618Y-74005152D01*
X139147618Y-74005152D02*
X139109523Y-74043247D01*
X139109523Y-74043247D02*
X139033333Y-74081342D01*
X139033333Y-74081342D02*
X138728571Y-74081342D01*
X139452380Y-73662295D02*
X139947618Y-73662295D01*
X139947618Y-73662295D02*
X139680952Y-73967057D01*
X139680952Y-73967057D02*
X139795237Y-73967057D01*
X139795237Y-73967057D02*
X139871428Y-74005152D01*
X139871428Y-74005152D02*
X139909523Y-74043247D01*
X139909523Y-74043247D02*
X139947618Y-74119438D01*
X139947618Y-74119438D02*
X139947618Y-74309914D01*
X139947618Y-74309914D02*
X139909523Y-74386104D01*
X139909523Y-74386104D02*
X139871428Y-74424200D01*
X139871428Y-74424200D02*
X139795237Y-74462295D01*
X139795237Y-74462295D02*
X139566666Y-74462295D01*
X139566666Y-74462295D02*
X139490475Y-74424200D01*
X139490475Y-74424200D02*
X139452380Y-74386104D01*
X140214285Y-73662295D02*
X140709523Y-73662295D01*
X140709523Y-73662295D02*
X140442857Y-73967057D01*
X140442857Y-73967057D02*
X140557142Y-73967057D01*
X140557142Y-73967057D02*
X140633333Y-74005152D01*
X140633333Y-74005152D02*
X140671428Y-74043247D01*
X140671428Y-74043247D02*
X140709523Y-74119438D01*
X140709523Y-74119438D02*
X140709523Y-74309914D01*
X140709523Y-74309914D02*
X140671428Y-74386104D01*
X140671428Y-74386104D02*
X140633333Y-74424200D01*
X140633333Y-74424200D02*
X140557142Y-74462295D01*
X140557142Y-74462295D02*
X140328571Y-74462295D01*
X140328571Y-74462295D02*
X140252380Y-74424200D01*
X140252380Y-74424200D02*
X140214285Y-74386104D01*
D12*
X122942857Y-137783171D02*
X122895238Y-137735552D01*
X122895238Y-137735552D02*
X122800000Y-137592695D01*
X122800000Y-137592695D02*
X122752381Y-137497457D01*
X122752381Y-137497457D02*
X122704762Y-137354600D01*
X122704762Y-137354600D02*
X122657143Y-137116504D01*
X122657143Y-137116504D02*
X122657143Y-136926028D01*
X122657143Y-136926028D02*
X122704762Y-136687933D01*
X122704762Y-136687933D02*
X122752381Y-136545076D01*
X122752381Y-136545076D02*
X122800000Y-136449838D01*
X122800000Y-136449838D02*
X122895238Y-136306980D01*
X122895238Y-136306980D02*
X122942857Y-136259361D01*
X123800000Y-137402219D02*
X123323810Y-137402219D01*
X123323810Y-137402219D02*
X123323810Y-136402219D01*
X124038096Y-137783171D02*
X124085715Y-137735552D01*
X124085715Y-137735552D02*
X124180953Y-137592695D01*
X124180953Y-137592695D02*
X124228572Y-137497457D01*
X124228572Y-137497457D02*
X124276191Y-137354600D01*
X124276191Y-137354600D02*
X124323810Y-137116504D01*
X124323810Y-137116504D02*
X124323810Y-136926028D01*
X124323810Y-136926028D02*
X124276191Y-136687933D01*
X124276191Y-136687933D02*
X124228572Y-136545076D01*
X124228572Y-136545076D02*
X124180953Y-136449838D01*
X124180953Y-136449838D02*
X124085715Y-136306980D01*
X124085715Y-136306980D02*
X124038096Y-136259361D01*
X124800001Y-137021266D02*
X125561906Y-137021266D01*
X126038096Y-137402219D02*
X126038096Y-136735552D01*
X126038096Y-136402219D02*
X125990477Y-136449838D01*
X125990477Y-136449838D02*
X126038096Y-136497457D01*
X126038096Y-136497457D02*
X126085715Y-136449838D01*
X126085715Y-136449838D02*
X126038096Y-136402219D01*
X126038096Y-136402219D02*
X126038096Y-136497457D01*
X126514286Y-136735552D02*
X126514286Y-137402219D01*
X126514286Y-136830790D02*
X126561905Y-136783171D01*
X126561905Y-136783171D02*
X126657143Y-136735552D01*
X126657143Y-136735552D02*
X126800000Y-136735552D01*
X126800000Y-136735552D02*
X126895238Y-136783171D01*
X126895238Y-136783171D02*
X126942857Y-136878409D01*
X126942857Y-136878409D02*
X126942857Y-137402219D01*
D13*
X144366667Y-102062295D02*
X144100000Y-101681342D01*
X143909524Y-102062295D02*
X143909524Y-101262295D01*
X143909524Y-101262295D02*
X144214286Y-101262295D01*
X144214286Y-101262295D02*
X144290476Y-101300390D01*
X144290476Y-101300390D02*
X144328571Y-101338485D01*
X144328571Y-101338485D02*
X144366667Y-101414676D01*
X144366667Y-101414676D02*
X144366667Y-101528961D01*
X144366667Y-101528961D02*
X144328571Y-101605152D01*
X144328571Y-101605152D02*
X144290476Y-101643247D01*
X144290476Y-101643247D02*
X144214286Y-101681342D01*
X144214286Y-101681342D02*
X143909524Y-101681342D01*
X144671428Y-101338485D02*
X144709524Y-101300390D01*
X144709524Y-101300390D02*
X144785714Y-101262295D01*
X144785714Y-101262295D02*
X144976190Y-101262295D01*
X144976190Y-101262295D02*
X145052381Y-101300390D01*
X145052381Y-101300390D02*
X145090476Y-101338485D01*
X145090476Y-101338485D02*
X145128571Y-101414676D01*
X145128571Y-101414676D02*
X145128571Y-101490866D01*
X145128571Y-101490866D02*
X145090476Y-101605152D01*
X145090476Y-101605152D02*
X144633333Y-102062295D01*
X144633333Y-102062295D02*
X145128571Y-102062295D01*
X174659580Y-101160534D02*
X174707200Y-101208153D01*
X174707200Y-101208153D02*
X174754819Y-101351010D01*
X174754819Y-101351010D02*
X174754819Y-101446248D01*
X174754819Y-101446248D02*
X174707200Y-101589105D01*
X174707200Y-101589105D02*
X174611961Y-101684343D01*
X174611961Y-101684343D02*
X174516723Y-101731962D01*
X174516723Y-101731962D02*
X174326247Y-101779581D01*
X174326247Y-101779581D02*
X174183390Y-101779581D01*
X174183390Y-101779581D02*
X173992914Y-101731962D01*
X173992914Y-101731962D02*
X173897676Y-101684343D01*
X173897676Y-101684343D02*
X173802438Y-101589105D01*
X173802438Y-101589105D02*
X173754819Y-101446248D01*
X173754819Y-101446248D02*
X173754819Y-101351010D01*
X173754819Y-101351010D02*
X173802438Y-101208153D01*
X173802438Y-101208153D02*
X173850057Y-101160534D01*
X174754819Y-100208153D02*
X174754819Y-100779581D01*
X174754819Y-100493867D02*
X173754819Y-100493867D01*
X173754819Y-100493867D02*
X173897676Y-100589105D01*
X173897676Y-100589105D02*
X173992914Y-100684343D01*
X173992914Y-100684343D02*
X174040533Y-100779581D01*
X173754819Y-99874819D02*
X173754819Y-99255772D01*
X173754819Y-99255772D02*
X174135771Y-99589105D01*
X174135771Y-99589105D02*
X174135771Y-99446248D01*
X174135771Y-99446248D02*
X174183390Y-99351010D01*
X174183390Y-99351010D02*
X174231009Y-99303391D01*
X174231009Y-99303391D02*
X174326247Y-99255772D01*
X174326247Y-99255772D02*
X174564342Y-99255772D01*
X174564342Y-99255772D02*
X174659580Y-99303391D01*
X174659580Y-99303391D02*
X174707200Y-99351010D01*
X174707200Y-99351010D02*
X174754819Y-99446248D01*
X174754819Y-99446248D02*
X174754819Y-99731962D01*
X174754819Y-99731962D02*
X174707200Y-99827200D01*
X174707200Y-99827200D02*
X174659580Y-99874819D01*
X122258333Y-65762295D02*
X122258333Y-66333723D01*
X122258333Y-66333723D02*
X122220238Y-66448009D01*
X122220238Y-66448009D02*
X122144047Y-66524200D01*
X122144047Y-66524200D02*
X122029762Y-66562295D01*
X122029762Y-66562295D02*
X121953571Y-66562295D01*
X122677381Y-66562295D02*
X122829762Y-66562295D01*
X122829762Y-66562295D02*
X122905952Y-66524200D01*
X122905952Y-66524200D02*
X122944048Y-66486104D01*
X122944048Y-66486104D02*
X123020238Y-66371819D01*
X123020238Y-66371819D02*
X123058333Y-66219438D01*
X123058333Y-66219438D02*
X123058333Y-65914676D01*
X123058333Y-65914676D02*
X123020238Y-65838485D01*
X123020238Y-65838485D02*
X122982143Y-65800390D01*
X122982143Y-65800390D02*
X122905952Y-65762295D01*
X122905952Y-65762295D02*
X122753571Y-65762295D01*
X122753571Y-65762295D02*
X122677381Y-65800390D01*
X122677381Y-65800390D02*
X122639286Y-65838485D01*
X122639286Y-65838485D02*
X122601190Y-65914676D01*
X122601190Y-65914676D02*
X122601190Y-66105152D01*
X122601190Y-66105152D02*
X122639286Y-66181342D01*
X122639286Y-66181342D02*
X122677381Y-66219438D01*
X122677381Y-66219438D02*
X122753571Y-66257533D01*
X122753571Y-66257533D02*
X122905952Y-66257533D01*
X122905952Y-66257533D02*
X122982143Y-66219438D01*
X122982143Y-66219438D02*
X123020238Y-66181342D01*
X123020238Y-66181342D02*
X123058333Y-66105152D01*
X151232142Y-93359580D02*
X151184523Y-93407200D01*
X151184523Y-93407200D02*
X151041666Y-93454819D01*
X151041666Y-93454819D02*
X150946428Y-93454819D01*
X150946428Y-93454819D02*
X150803571Y-93407200D01*
X150803571Y-93407200D02*
X150708333Y-93311961D01*
X150708333Y-93311961D02*
X150660714Y-93216723D01*
X150660714Y-93216723D02*
X150613095Y-93026247D01*
X150613095Y-93026247D02*
X150613095Y-92883390D01*
X150613095Y-92883390D02*
X150660714Y-92692914D01*
X150660714Y-92692914D02*
X150708333Y-92597676D01*
X150708333Y-92597676D02*
X150803571Y-92502438D01*
X150803571Y-92502438D02*
X150946428Y-92454819D01*
X150946428Y-92454819D02*
X151041666Y-92454819D01*
X151041666Y-92454819D02*
X151184523Y-92502438D01*
X151184523Y-92502438D02*
X151232142Y-92550057D01*
X152089285Y-92788152D02*
X152089285Y-93454819D01*
X151851190Y-92407200D02*
X151613095Y-93121485D01*
X151613095Y-93121485D02*
X152232142Y-93121485D01*
X152755952Y-92883390D02*
X152660714Y-92835771D01*
X152660714Y-92835771D02*
X152613095Y-92788152D01*
X152613095Y-92788152D02*
X152565476Y-92692914D01*
X152565476Y-92692914D02*
X152565476Y-92645295D01*
X152565476Y-92645295D02*
X152613095Y-92550057D01*
X152613095Y-92550057D02*
X152660714Y-92502438D01*
X152660714Y-92502438D02*
X152755952Y-92454819D01*
X152755952Y-92454819D02*
X152946428Y-92454819D01*
X152946428Y-92454819D02*
X153041666Y-92502438D01*
X153041666Y-92502438D02*
X153089285Y-92550057D01*
X153089285Y-92550057D02*
X153136904Y-92645295D01*
X153136904Y-92645295D02*
X153136904Y-92692914D01*
X153136904Y-92692914D02*
X153089285Y-92788152D01*
X153089285Y-92788152D02*
X153041666Y-92835771D01*
X153041666Y-92835771D02*
X152946428Y-92883390D01*
X152946428Y-92883390D02*
X152755952Y-92883390D01*
X152755952Y-92883390D02*
X152660714Y-92931009D01*
X152660714Y-92931009D02*
X152613095Y-92978628D01*
X152613095Y-92978628D02*
X152565476Y-93073866D01*
X152565476Y-93073866D02*
X152565476Y-93264342D01*
X152565476Y-93264342D02*
X152613095Y-93359580D01*
X152613095Y-93359580D02*
X152660714Y-93407200D01*
X152660714Y-93407200D02*
X152755952Y-93454819D01*
X152755952Y-93454819D02*
X152946428Y-93454819D01*
X152946428Y-93454819D02*
X153041666Y-93407200D01*
X153041666Y-93407200D02*
X153089285Y-93359580D01*
X153089285Y-93359580D02*
X153136904Y-93264342D01*
X153136904Y-93264342D02*
X153136904Y-93073866D01*
X153136904Y-93073866D02*
X153089285Y-92978628D01*
X153089285Y-92978628D02*
X153041666Y-92931009D01*
X153041666Y-92931009D02*
X152946428Y-92883390D01*
X135485714Y-108424795D02*
X135219047Y-108043842D01*
X135028571Y-108424795D02*
X135028571Y-107624795D01*
X135028571Y-107624795D02*
X135333333Y-107624795D01*
X135333333Y-107624795D02*
X135409523Y-107662890D01*
X135409523Y-107662890D02*
X135447618Y-107700985D01*
X135447618Y-107700985D02*
X135485714Y-107777176D01*
X135485714Y-107777176D02*
X135485714Y-107891461D01*
X135485714Y-107891461D02*
X135447618Y-107967652D01*
X135447618Y-107967652D02*
X135409523Y-108005747D01*
X135409523Y-108005747D02*
X135333333Y-108043842D01*
X135333333Y-108043842D02*
X135028571Y-108043842D01*
X135790475Y-107700985D02*
X135828571Y-107662890D01*
X135828571Y-107662890D02*
X135904761Y-107624795D01*
X135904761Y-107624795D02*
X136095237Y-107624795D01*
X136095237Y-107624795D02*
X136171428Y-107662890D01*
X136171428Y-107662890D02*
X136209523Y-107700985D01*
X136209523Y-107700985D02*
X136247618Y-107777176D01*
X136247618Y-107777176D02*
X136247618Y-107853366D01*
X136247618Y-107853366D02*
X136209523Y-107967652D01*
X136209523Y-107967652D02*
X135752380Y-108424795D01*
X135752380Y-108424795D02*
X136247618Y-108424795D01*
X136933333Y-107624795D02*
X136780952Y-107624795D01*
X136780952Y-107624795D02*
X136704761Y-107662890D01*
X136704761Y-107662890D02*
X136666666Y-107700985D01*
X136666666Y-107700985D02*
X136590476Y-107815271D01*
X136590476Y-107815271D02*
X136552380Y-107967652D01*
X136552380Y-107967652D02*
X136552380Y-108272414D01*
X136552380Y-108272414D02*
X136590476Y-108348604D01*
X136590476Y-108348604D02*
X136628571Y-108386700D01*
X136628571Y-108386700D02*
X136704761Y-108424795D01*
X136704761Y-108424795D02*
X136857142Y-108424795D01*
X136857142Y-108424795D02*
X136933333Y-108386700D01*
X136933333Y-108386700D02*
X136971428Y-108348604D01*
X136971428Y-108348604D02*
X137009523Y-108272414D01*
X137009523Y-108272414D02*
X137009523Y-108081938D01*
X137009523Y-108081938D02*
X136971428Y-108005747D01*
X136971428Y-108005747D02*
X136933333Y-107967652D01*
X136933333Y-107967652D02*
X136857142Y-107929557D01*
X136857142Y-107929557D02*
X136704761Y-107929557D01*
X136704761Y-107929557D02*
X136628571Y-107967652D01*
X136628571Y-107967652D02*
X136590476Y-108005747D01*
X136590476Y-108005747D02*
X136552380Y-108081938D01*
X181918247Y-69325476D02*
X181918247Y-69592142D01*
X182337295Y-69592142D02*
X181537295Y-69592142D01*
X181537295Y-69592142D02*
X181537295Y-69211190D01*
X182337295Y-68525476D02*
X182337295Y-68906428D01*
X182337295Y-68906428D02*
X181537295Y-68906428D01*
X182337295Y-67839762D02*
X182337295Y-68296905D01*
X182337295Y-68068333D02*
X181537295Y-68068333D01*
X181537295Y-68068333D02*
X181651580Y-68144524D01*
X181651580Y-68144524D02*
X181727771Y-68220714D01*
X181727771Y-68220714D02*
X181765866Y-68296905D01*
X126915476Y-84062295D02*
X127372619Y-84062295D01*
X127144047Y-84862295D02*
X127144047Y-84062295D01*
X127639286Y-84862295D02*
X127639286Y-84062295D01*
X127639286Y-84062295D02*
X127944048Y-84062295D01*
X127944048Y-84062295D02*
X128020238Y-84100390D01*
X128020238Y-84100390D02*
X128058333Y-84138485D01*
X128058333Y-84138485D02*
X128096429Y-84214676D01*
X128096429Y-84214676D02*
X128096429Y-84328961D01*
X128096429Y-84328961D02*
X128058333Y-84405152D01*
X128058333Y-84405152D02*
X128020238Y-84443247D01*
X128020238Y-84443247D02*
X127944048Y-84481342D01*
X127944048Y-84481342D02*
X127639286Y-84481342D01*
X128401190Y-84138485D02*
X128439286Y-84100390D01*
X128439286Y-84100390D02*
X128515476Y-84062295D01*
X128515476Y-84062295D02*
X128705952Y-84062295D01*
X128705952Y-84062295D02*
X128782143Y-84100390D01*
X128782143Y-84100390D02*
X128820238Y-84138485D01*
X128820238Y-84138485D02*
X128858333Y-84214676D01*
X128858333Y-84214676D02*
X128858333Y-84290866D01*
X128858333Y-84290866D02*
X128820238Y-84405152D01*
X128820238Y-84405152D02*
X128363095Y-84862295D01*
X128363095Y-84862295D02*
X128858333Y-84862295D01*
X144866667Y-114161104D02*
X144828571Y-114199200D01*
X144828571Y-114199200D02*
X144714286Y-114237295D01*
X144714286Y-114237295D02*
X144638095Y-114237295D01*
X144638095Y-114237295D02*
X144523809Y-114199200D01*
X144523809Y-114199200D02*
X144447619Y-114123009D01*
X144447619Y-114123009D02*
X144409524Y-114046819D01*
X144409524Y-114046819D02*
X144371428Y-113894438D01*
X144371428Y-113894438D02*
X144371428Y-113780152D01*
X144371428Y-113780152D02*
X144409524Y-113627771D01*
X144409524Y-113627771D02*
X144447619Y-113551580D01*
X144447619Y-113551580D02*
X144523809Y-113475390D01*
X144523809Y-113475390D02*
X144638095Y-113437295D01*
X144638095Y-113437295D02*
X144714286Y-113437295D01*
X144714286Y-113437295D02*
X144828571Y-113475390D01*
X144828571Y-113475390D02*
X144866667Y-113513485D01*
X145552381Y-113703961D02*
X145552381Y-114237295D01*
X145361905Y-113399200D02*
X145171428Y-113970628D01*
X145171428Y-113970628D02*
X145666667Y-113970628D01*
X182210714Y-61486104D02*
X182172618Y-61524200D01*
X182172618Y-61524200D02*
X182058333Y-61562295D01*
X182058333Y-61562295D02*
X181982142Y-61562295D01*
X181982142Y-61562295D02*
X181867856Y-61524200D01*
X181867856Y-61524200D02*
X181791666Y-61448009D01*
X181791666Y-61448009D02*
X181753571Y-61371819D01*
X181753571Y-61371819D02*
X181715475Y-61219438D01*
X181715475Y-61219438D02*
X181715475Y-61105152D01*
X181715475Y-61105152D02*
X181753571Y-60952771D01*
X181753571Y-60952771D02*
X181791666Y-60876580D01*
X181791666Y-60876580D02*
X181867856Y-60800390D01*
X181867856Y-60800390D02*
X181982142Y-60762295D01*
X181982142Y-60762295D02*
X182058333Y-60762295D01*
X182058333Y-60762295D02*
X182172618Y-60800390D01*
X182172618Y-60800390D02*
X182210714Y-60838485D01*
X182896428Y-61028961D02*
X182896428Y-61562295D01*
X182705952Y-60724200D02*
X182515475Y-61295628D01*
X182515475Y-61295628D02*
X183010714Y-61295628D01*
X183658333Y-60762295D02*
X183505952Y-60762295D01*
X183505952Y-60762295D02*
X183429761Y-60800390D01*
X183429761Y-60800390D02*
X183391666Y-60838485D01*
X183391666Y-60838485D02*
X183315476Y-60952771D01*
X183315476Y-60952771D02*
X183277380Y-61105152D01*
X183277380Y-61105152D02*
X183277380Y-61409914D01*
X183277380Y-61409914D02*
X183315476Y-61486104D01*
X183315476Y-61486104D02*
X183353571Y-61524200D01*
X183353571Y-61524200D02*
X183429761Y-61562295D01*
X183429761Y-61562295D02*
X183582142Y-61562295D01*
X183582142Y-61562295D02*
X183658333Y-61524200D01*
X183658333Y-61524200D02*
X183696428Y-61486104D01*
X183696428Y-61486104D02*
X183734523Y-61409914D01*
X183734523Y-61409914D02*
X183734523Y-61219438D01*
X183734523Y-61219438D02*
X183696428Y-61143247D01*
X183696428Y-61143247D02*
X183658333Y-61105152D01*
X183658333Y-61105152D02*
X183582142Y-61067057D01*
X183582142Y-61067057D02*
X183429761Y-61067057D01*
X183429761Y-61067057D02*
X183353571Y-61105152D01*
X183353571Y-61105152D02*
X183315476Y-61143247D01*
X183315476Y-61143247D02*
X183277380Y-61219438D01*
D12*
X130023809Y-137683171D02*
X129976190Y-137635552D01*
X129976190Y-137635552D02*
X129880952Y-137492695D01*
X129880952Y-137492695D02*
X129833333Y-137397457D01*
X129833333Y-137397457D02*
X129785714Y-137254600D01*
X129785714Y-137254600D02*
X129738095Y-137016504D01*
X129738095Y-137016504D02*
X129738095Y-136826028D01*
X129738095Y-136826028D02*
X129785714Y-136587933D01*
X129785714Y-136587933D02*
X129833333Y-136445076D01*
X129833333Y-136445076D02*
X129880952Y-136349838D01*
X129880952Y-136349838D02*
X129976190Y-136206980D01*
X129976190Y-136206980D02*
X130023809Y-136159361D01*
X130404762Y-137302219D02*
X130404762Y-136302219D01*
X130404762Y-136302219D02*
X130976190Y-137302219D01*
X130976190Y-137302219D02*
X130976190Y-136302219D01*
X131357143Y-137683171D02*
X131404762Y-137635552D01*
X131404762Y-137635552D02*
X131500000Y-137492695D01*
X131500000Y-137492695D02*
X131547619Y-137397457D01*
X131547619Y-137397457D02*
X131595238Y-137254600D01*
X131595238Y-137254600D02*
X131642857Y-137016504D01*
X131642857Y-137016504D02*
X131642857Y-136826028D01*
X131642857Y-136826028D02*
X131595238Y-136587933D01*
X131595238Y-136587933D02*
X131547619Y-136445076D01*
X131547619Y-136445076D02*
X131500000Y-136349838D01*
X131500000Y-136349838D02*
X131404762Y-136206980D01*
X131404762Y-136206980D02*
X131357143Y-136159361D01*
X132119048Y-136921266D02*
X132880953Y-136921266D01*
X133357143Y-137302219D02*
X133357143Y-136635552D01*
X133357143Y-136302219D02*
X133309524Y-136349838D01*
X133309524Y-136349838D02*
X133357143Y-136397457D01*
X133357143Y-136397457D02*
X133404762Y-136349838D01*
X133404762Y-136349838D02*
X133357143Y-136302219D01*
X133357143Y-136302219D02*
X133357143Y-136397457D01*
X133833333Y-136635552D02*
X133833333Y-137302219D01*
X133833333Y-136730790D02*
X133880952Y-136683171D01*
X133880952Y-136683171D02*
X133976190Y-136635552D01*
X133976190Y-136635552D02*
X134119047Y-136635552D01*
X134119047Y-136635552D02*
X134214285Y-136683171D01*
X134214285Y-136683171D02*
X134261904Y-136778409D01*
X134261904Y-136778409D02*
X134261904Y-137302219D01*
D13*
X152591667Y-106362295D02*
X152325000Y-105981342D01*
X152134524Y-106362295D02*
X152134524Y-105562295D01*
X152134524Y-105562295D02*
X152439286Y-105562295D01*
X152439286Y-105562295D02*
X152515476Y-105600390D01*
X152515476Y-105600390D02*
X152553571Y-105638485D01*
X152553571Y-105638485D02*
X152591667Y-105714676D01*
X152591667Y-105714676D02*
X152591667Y-105828961D01*
X152591667Y-105828961D02*
X152553571Y-105905152D01*
X152553571Y-105905152D02*
X152515476Y-105943247D01*
X152515476Y-105943247D02*
X152439286Y-105981342D01*
X152439286Y-105981342D02*
X152134524Y-105981342D01*
X153315476Y-105562295D02*
X152934524Y-105562295D01*
X152934524Y-105562295D02*
X152896428Y-105943247D01*
X152896428Y-105943247D02*
X152934524Y-105905152D01*
X152934524Y-105905152D02*
X153010714Y-105867057D01*
X153010714Y-105867057D02*
X153201190Y-105867057D01*
X153201190Y-105867057D02*
X153277381Y-105905152D01*
X153277381Y-105905152D02*
X153315476Y-105943247D01*
X153315476Y-105943247D02*
X153353571Y-106019438D01*
X153353571Y-106019438D02*
X153353571Y-106209914D01*
X153353571Y-106209914D02*
X153315476Y-106286104D01*
X153315476Y-106286104D02*
X153277381Y-106324200D01*
X153277381Y-106324200D02*
X153201190Y-106362295D01*
X153201190Y-106362295D02*
X153010714Y-106362295D01*
X153010714Y-106362295D02*
X152934524Y-106324200D01*
X152934524Y-106324200D02*
X152896428Y-106286104D01*
X161135714Y-83136104D02*
X161097618Y-83174200D01*
X161097618Y-83174200D02*
X160983333Y-83212295D01*
X160983333Y-83212295D02*
X160907142Y-83212295D01*
X160907142Y-83212295D02*
X160792856Y-83174200D01*
X160792856Y-83174200D02*
X160716666Y-83098009D01*
X160716666Y-83098009D02*
X160678571Y-83021819D01*
X160678571Y-83021819D02*
X160640475Y-82869438D01*
X160640475Y-82869438D02*
X160640475Y-82755152D01*
X160640475Y-82755152D02*
X160678571Y-82602771D01*
X160678571Y-82602771D02*
X160716666Y-82526580D01*
X160716666Y-82526580D02*
X160792856Y-82450390D01*
X160792856Y-82450390D02*
X160907142Y-82412295D01*
X160907142Y-82412295D02*
X160983333Y-82412295D01*
X160983333Y-82412295D02*
X161097618Y-82450390D01*
X161097618Y-82450390D02*
X161135714Y-82488485D01*
X161821428Y-82678961D02*
X161821428Y-83212295D01*
X161630952Y-82374200D02*
X161440475Y-82945628D01*
X161440475Y-82945628D02*
X161935714Y-82945628D01*
X162392857Y-82412295D02*
X162469047Y-82412295D01*
X162469047Y-82412295D02*
X162545238Y-82450390D01*
X162545238Y-82450390D02*
X162583333Y-82488485D01*
X162583333Y-82488485D02*
X162621428Y-82564676D01*
X162621428Y-82564676D02*
X162659523Y-82717057D01*
X162659523Y-82717057D02*
X162659523Y-82907533D01*
X162659523Y-82907533D02*
X162621428Y-83059914D01*
X162621428Y-83059914D02*
X162583333Y-83136104D01*
X162583333Y-83136104D02*
X162545238Y-83174200D01*
X162545238Y-83174200D02*
X162469047Y-83212295D01*
X162469047Y-83212295D02*
X162392857Y-83212295D01*
X162392857Y-83212295D02*
X162316666Y-83174200D01*
X162316666Y-83174200D02*
X162278571Y-83136104D01*
X162278571Y-83136104D02*
X162240476Y-83059914D01*
X162240476Y-83059914D02*
X162202380Y-82907533D01*
X162202380Y-82907533D02*
X162202380Y-82717057D01*
X162202380Y-82717057D02*
X162240476Y-82564676D01*
X162240476Y-82564676D02*
X162278571Y-82488485D01*
X162278571Y-82488485D02*
X162316666Y-82450390D01*
X162316666Y-82450390D02*
X162392857Y-82412295D01*
X158300714Y-88527295D02*
X158034047Y-88146342D01*
X157843571Y-88527295D02*
X157843571Y-87727295D01*
X157843571Y-87727295D02*
X158148333Y-87727295D01*
X158148333Y-87727295D02*
X158224523Y-87765390D01*
X158224523Y-87765390D02*
X158262618Y-87803485D01*
X158262618Y-87803485D02*
X158300714Y-87879676D01*
X158300714Y-87879676D02*
X158300714Y-87993961D01*
X158300714Y-87993961D02*
X158262618Y-88070152D01*
X158262618Y-88070152D02*
X158224523Y-88108247D01*
X158224523Y-88108247D02*
X158148333Y-88146342D01*
X158148333Y-88146342D02*
X157843571Y-88146342D01*
X158567380Y-87727295D02*
X159062618Y-87727295D01*
X159062618Y-87727295D02*
X158795952Y-88032057D01*
X158795952Y-88032057D02*
X158910237Y-88032057D01*
X158910237Y-88032057D02*
X158986428Y-88070152D01*
X158986428Y-88070152D02*
X159024523Y-88108247D01*
X159024523Y-88108247D02*
X159062618Y-88184438D01*
X159062618Y-88184438D02*
X159062618Y-88374914D01*
X159062618Y-88374914D02*
X159024523Y-88451104D01*
X159024523Y-88451104D02*
X158986428Y-88489200D01*
X158986428Y-88489200D02*
X158910237Y-88527295D01*
X158910237Y-88527295D02*
X158681666Y-88527295D01*
X158681666Y-88527295D02*
X158605475Y-88489200D01*
X158605475Y-88489200D02*
X158567380Y-88451104D01*
X159748333Y-87727295D02*
X159595952Y-87727295D01*
X159595952Y-87727295D02*
X159519761Y-87765390D01*
X159519761Y-87765390D02*
X159481666Y-87803485D01*
X159481666Y-87803485D02*
X159405476Y-87917771D01*
X159405476Y-87917771D02*
X159367380Y-88070152D01*
X159367380Y-88070152D02*
X159367380Y-88374914D01*
X159367380Y-88374914D02*
X159405476Y-88451104D01*
X159405476Y-88451104D02*
X159443571Y-88489200D01*
X159443571Y-88489200D02*
X159519761Y-88527295D01*
X159519761Y-88527295D02*
X159672142Y-88527295D01*
X159672142Y-88527295D02*
X159748333Y-88489200D01*
X159748333Y-88489200D02*
X159786428Y-88451104D01*
X159786428Y-88451104D02*
X159824523Y-88374914D01*
X159824523Y-88374914D02*
X159824523Y-88184438D01*
X159824523Y-88184438D02*
X159786428Y-88108247D01*
X159786428Y-88108247D02*
X159748333Y-88070152D01*
X159748333Y-88070152D02*
X159672142Y-88032057D01*
X159672142Y-88032057D02*
X159519761Y-88032057D01*
X159519761Y-88032057D02*
X159443571Y-88070152D01*
X159443571Y-88070152D02*
X159405476Y-88108247D01*
X159405476Y-88108247D02*
X159367380Y-88184438D01*
X153785714Y-88536104D02*
X153747618Y-88574200D01*
X153747618Y-88574200D02*
X153633333Y-88612295D01*
X153633333Y-88612295D02*
X153557142Y-88612295D01*
X153557142Y-88612295D02*
X153442856Y-88574200D01*
X153442856Y-88574200D02*
X153366666Y-88498009D01*
X153366666Y-88498009D02*
X153328571Y-88421819D01*
X153328571Y-88421819D02*
X153290475Y-88269438D01*
X153290475Y-88269438D02*
X153290475Y-88155152D01*
X153290475Y-88155152D02*
X153328571Y-88002771D01*
X153328571Y-88002771D02*
X153366666Y-87926580D01*
X153366666Y-87926580D02*
X153442856Y-87850390D01*
X153442856Y-87850390D02*
X153557142Y-87812295D01*
X153557142Y-87812295D02*
X153633333Y-87812295D01*
X153633333Y-87812295D02*
X153747618Y-87850390D01*
X153747618Y-87850390D02*
X153785714Y-87888485D01*
X154471428Y-88078961D02*
X154471428Y-88612295D01*
X154280952Y-87774200D02*
X154090475Y-88345628D01*
X154090475Y-88345628D02*
X154585714Y-88345628D01*
X155309523Y-88612295D02*
X154852380Y-88612295D01*
X155080952Y-88612295D02*
X155080952Y-87812295D01*
X155080952Y-87812295D02*
X155004761Y-87926580D01*
X155004761Y-87926580D02*
X154928571Y-88002771D01*
X154928571Y-88002771D02*
X154852380Y-88040866D01*
X137462295Y-71964285D02*
X137081342Y-72230952D01*
X137462295Y-72421428D02*
X136662295Y-72421428D01*
X136662295Y-72421428D02*
X136662295Y-72116666D01*
X136662295Y-72116666D02*
X136700390Y-72040476D01*
X136700390Y-72040476D02*
X136738485Y-72002381D01*
X136738485Y-72002381D02*
X136814676Y-71964285D01*
X136814676Y-71964285D02*
X136928961Y-71964285D01*
X136928961Y-71964285D02*
X137005152Y-72002381D01*
X137005152Y-72002381D02*
X137043247Y-72040476D01*
X137043247Y-72040476D02*
X137081342Y-72116666D01*
X137081342Y-72116666D02*
X137081342Y-72421428D01*
X136662295Y-71697619D02*
X136662295Y-71202381D01*
X136662295Y-71202381D02*
X136967057Y-71469047D01*
X136967057Y-71469047D02*
X136967057Y-71354762D01*
X136967057Y-71354762D02*
X137005152Y-71278571D01*
X137005152Y-71278571D02*
X137043247Y-71240476D01*
X137043247Y-71240476D02*
X137119438Y-71202381D01*
X137119438Y-71202381D02*
X137309914Y-71202381D01*
X137309914Y-71202381D02*
X137386104Y-71240476D01*
X137386104Y-71240476D02*
X137424200Y-71278571D01*
X137424200Y-71278571D02*
X137462295Y-71354762D01*
X137462295Y-71354762D02*
X137462295Y-71583333D01*
X137462295Y-71583333D02*
X137424200Y-71659524D01*
X137424200Y-71659524D02*
X137386104Y-71697619D01*
X137005152Y-70745238D02*
X136967057Y-70821428D01*
X136967057Y-70821428D02*
X136928961Y-70859523D01*
X136928961Y-70859523D02*
X136852771Y-70897619D01*
X136852771Y-70897619D02*
X136814676Y-70897619D01*
X136814676Y-70897619D02*
X136738485Y-70859523D01*
X136738485Y-70859523D02*
X136700390Y-70821428D01*
X136700390Y-70821428D02*
X136662295Y-70745238D01*
X136662295Y-70745238D02*
X136662295Y-70592857D01*
X136662295Y-70592857D02*
X136700390Y-70516666D01*
X136700390Y-70516666D02*
X136738485Y-70478571D01*
X136738485Y-70478571D02*
X136814676Y-70440476D01*
X136814676Y-70440476D02*
X136852771Y-70440476D01*
X136852771Y-70440476D02*
X136928961Y-70478571D01*
X136928961Y-70478571D02*
X136967057Y-70516666D01*
X136967057Y-70516666D02*
X137005152Y-70592857D01*
X137005152Y-70592857D02*
X137005152Y-70745238D01*
X137005152Y-70745238D02*
X137043247Y-70821428D01*
X137043247Y-70821428D02*
X137081342Y-70859523D01*
X137081342Y-70859523D02*
X137157533Y-70897619D01*
X137157533Y-70897619D02*
X137309914Y-70897619D01*
X137309914Y-70897619D02*
X137386104Y-70859523D01*
X137386104Y-70859523D02*
X137424200Y-70821428D01*
X137424200Y-70821428D02*
X137462295Y-70745238D01*
X137462295Y-70745238D02*
X137462295Y-70592857D01*
X137462295Y-70592857D02*
X137424200Y-70516666D01*
X137424200Y-70516666D02*
X137386104Y-70478571D01*
X137386104Y-70478571D02*
X137309914Y-70440476D01*
X137309914Y-70440476D02*
X137157533Y-70440476D01*
X137157533Y-70440476D02*
X137081342Y-70478571D01*
X137081342Y-70478571D02*
X137043247Y-70516666D01*
X137043247Y-70516666D02*
X137005152Y-70592857D01*
D12*
X162803409Y-140997618D02*
X162803409Y-140664285D01*
X163327219Y-140521428D02*
X163327219Y-140997618D01*
X163327219Y-140997618D02*
X162327219Y-140997618D01*
X162327219Y-140997618D02*
X162327219Y-140521428D01*
X163041504Y-140140475D02*
X163041504Y-139664285D01*
X163327219Y-140235713D02*
X162327219Y-139902380D01*
X162327219Y-139902380D02*
X163327219Y-139569047D01*
X163327219Y-138664285D02*
X162851028Y-138997618D01*
X163327219Y-139235713D02*
X162327219Y-139235713D01*
X162327219Y-139235713D02*
X162327219Y-138854761D01*
X162327219Y-138854761D02*
X162374838Y-138759523D01*
X162374838Y-138759523D02*
X162422457Y-138711904D01*
X162422457Y-138711904D02*
X162517695Y-138664285D01*
X162517695Y-138664285D02*
X162660552Y-138664285D01*
X162660552Y-138664285D02*
X162755790Y-138711904D01*
X162755790Y-138711904D02*
X162803409Y-138759523D01*
X162803409Y-138759523D02*
X162851028Y-138854761D01*
X162851028Y-138854761D02*
X162851028Y-139235713D01*
X162327219Y-138378570D02*
X162327219Y-137807142D01*
X163327219Y-138092856D02*
X162327219Y-138092856D01*
X163327219Y-137473808D02*
X162327219Y-137473808D01*
X162803409Y-137473808D02*
X162803409Y-136902380D01*
X163327219Y-136902380D02*
X162327219Y-136902380D01*
D13*
X139185714Y-72412295D02*
X138919047Y-72031342D01*
X138728571Y-72412295D02*
X138728571Y-71612295D01*
X138728571Y-71612295D02*
X139033333Y-71612295D01*
X139033333Y-71612295D02*
X139109523Y-71650390D01*
X139109523Y-71650390D02*
X139147618Y-71688485D01*
X139147618Y-71688485D02*
X139185714Y-71764676D01*
X139185714Y-71764676D02*
X139185714Y-71878961D01*
X139185714Y-71878961D02*
X139147618Y-71955152D01*
X139147618Y-71955152D02*
X139109523Y-71993247D01*
X139109523Y-71993247D02*
X139033333Y-72031342D01*
X139033333Y-72031342D02*
X138728571Y-72031342D01*
X139452380Y-71612295D02*
X139947618Y-71612295D01*
X139947618Y-71612295D02*
X139680952Y-71917057D01*
X139680952Y-71917057D02*
X139795237Y-71917057D01*
X139795237Y-71917057D02*
X139871428Y-71955152D01*
X139871428Y-71955152D02*
X139909523Y-71993247D01*
X139909523Y-71993247D02*
X139947618Y-72069438D01*
X139947618Y-72069438D02*
X139947618Y-72259914D01*
X139947618Y-72259914D02*
X139909523Y-72336104D01*
X139909523Y-72336104D02*
X139871428Y-72374200D01*
X139871428Y-72374200D02*
X139795237Y-72412295D01*
X139795237Y-72412295D02*
X139566666Y-72412295D01*
X139566666Y-72412295D02*
X139490475Y-72374200D01*
X139490475Y-72374200D02*
X139452380Y-72336104D01*
X140252380Y-71688485D02*
X140290476Y-71650390D01*
X140290476Y-71650390D02*
X140366666Y-71612295D01*
X140366666Y-71612295D02*
X140557142Y-71612295D01*
X140557142Y-71612295D02*
X140633333Y-71650390D01*
X140633333Y-71650390D02*
X140671428Y-71688485D01*
X140671428Y-71688485D02*
X140709523Y-71764676D01*
X140709523Y-71764676D02*
X140709523Y-71840866D01*
X140709523Y-71840866D02*
X140671428Y-71955152D01*
X140671428Y-71955152D02*
X140214285Y-72412295D01*
X140214285Y-72412295D02*
X140709523Y-72412295D01*
X149485714Y-90537295D02*
X149219047Y-90156342D01*
X149028571Y-90537295D02*
X149028571Y-89737295D01*
X149028571Y-89737295D02*
X149333333Y-89737295D01*
X149333333Y-89737295D02*
X149409523Y-89775390D01*
X149409523Y-89775390D02*
X149447618Y-89813485D01*
X149447618Y-89813485D02*
X149485714Y-89889676D01*
X149485714Y-89889676D02*
X149485714Y-90003961D01*
X149485714Y-90003961D02*
X149447618Y-90080152D01*
X149447618Y-90080152D02*
X149409523Y-90118247D01*
X149409523Y-90118247D02*
X149333333Y-90156342D01*
X149333333Y-90156342D02*
X149028571Y-90156342D01*
X150171428Y-90003961D02*
X150171428Y-90537295D01*
X149980952Y-89699200D02*
X149790475Y-90270628D01*
X149790475Y-90270628D02*
X150285714Y-90270628D01*
X150742857Y-89737295D02*
X150819047Y-89737295D01*
X150819047Y-89737295D02*
X150895238Y-89775390D01*
X150895238Y-89775390D02*
X150933333Y-89813485D01*
X150933333Y-89813485D02*
X150971428Y-89889676D01*
X150971428Y-89889676D02*
X151009523Y-90042057D01*
X151009523Y-90042057D02*
X151009523Y-90232533D01*
X151009523Y-90232533D02*
X150971428Y-90384914D01*
X150971428Y-90384914D02*
X150933333Y-90461104D01*
X150933333Y-90461104D02*
X150895238Y-90499200D01*
X150895238Y-90499200D02*
X150819047Y-90537295D01*
X150819047Y-90537295D02*
X150742857Y-90537295D01*
X150742857Y-90537295D02*
X150666666Y-90499200D01*
X150666666Y-90499200D02*
X150628571Y-90461104D01*
X150628571Y-90461104D02*
X150590476Y-90384914D01*
X150590476Y-90384914D02*
X150552380Y-90232533D01*
X150552380Y-90232533D02*
X150552380Y-90042057D01*
X150552380Y-90042057D02*
X150590476Y-89889676D01*
X150590476Y-89889676D02*
X150628571Y-89813485D01*
X150628571Y-89813485D02*
X150666666Y-89775390D01*
X150666666Y-89775390D02*
X150742857Y-89737295D01*
X149435714Y-88762295D02*
X149169047Y-88381342D01*
X148978571Y-88762295D02*
X148978571Y-87962295D01*
X148978571Y-87962295D02*
X149283333Y-87962295D01*
X149283333Y-87962295D02*
X149359523Y-88000390D01*
X149359523Y-88000390D02*
X149397618Y-88038485D01*
X149397618Y-88038485D02*
X149435714Y-88114676D01*
X149435714Y-88114676D02*
X149435714Y-88228961D01*
X149435714Y-88228961D02*
X149397618Y-88305152D01*
X149397618Y-88305152D02*
X149359523Y-88343247D01*
X149359523Y-88343247D02*
X149283333Y-88381342D01*
X149283333Y-88381342D02*
X148978571Y-88381342D01*
X150121428Y-88228961D02*
X150121428Y-88762295D01*
X149930952Y-87924200D02*
X149740475Y-88495628D01*
X149740475Y-88495628D02*
X150235714Y-88495628D01*
X150464285Y-87962295D02*
X150997619Y-87962295D01*
X150997619Y-87962295D02*
X150654761Y-88762295D01*
X162958333Y-126884580D02*
X162910714Y-126932200D01*
X162910714Y-126932200D02*
X162767857Y-126979819D01*
X162767857Y-126979819D02*
X162672619Y-126979819D01*
X162672619Y-126979819D02*
X162529762Y-126932200D01*
X162529762Y-126932200D02*
X162434524Y-126836961D01*
X162434524Y-126836961D02*
X162386905Y-126741723D01*
X162386905Y-126741723D02*
X162339286Y-126551247D01*
X162339286Y-126551247D02*
X162339286Y-126408390D01*
X162339286Y-126408390D02*
X162386905Y-126217914D01*
X162386905Y-126217914D02*
X162434524Y-126122676D01*
X162434524Y-126122676D02*
X162529762Y-126027438D01*
X162529762Y-126027438D02*
X162672619Y-125979819D01*
X162672619Y-125979819D02*
X162767857Y-125979819D01*
X162767857Y-125979819D02*
X162910714Y-126027438D01*
X162910714Y-126027438D02*
X162958333Y-126075057D01*
X163863095Y-125979819D02*
X163386905Y-125979819D01*
X163386905Y-125979819D02*
X163339286Y-126456009D01*
X163339286Y-126456009D02*
X163386905Y-126408390D01*
X163386905Y-126408390D02*
X163482143Y-126360771D01*
X163482143Y-126360771D02*
X163720238Y-126360771D01*
X163720238Y-126360771D02*
X163815476Y-126408390D01*
X163815476Y-126408390D02*
X163863095Y-126456009D01*
X163863095Y-126456009D02*
X163910714Y-126551247D01*
X163910714Y-126551247D02*
X163910714Y-126789342D01*
X163910714Y-126789342D02*
X163863095Y-126884580D01*
X163863095Y-126884580D02*
X163815476Y-126932200D01*
X163815476Y-126932200D02*
X163720238Y-126979819D01*
X163720238Y-126979819D02*
X163482143Y-126979819D01*
X163482143Y-126979819D02*
X163386905Y-126932200D01*
X163386905Y-126932200D02*
X163339286Y-126884580D01*
X168858333Y-126909580D02*
X168810714Y-126957200D01*
X168810714Y-126957200D02*
X168667857Y-127004819D01*
X168667857Y-127004819D02*
X168572619Y-127004819D01*
X168572619Y-127004819D02*
X168429762Y-126957200D01*
X168429762Y-126957200D02*
X168334524Y-126861961D01*
X168334524Y-126861961D02*
X168286905Y-126766723D01*
X168286905Y-126766723D02*
X168239286Y-126576247D01*
X168239286Y-126576247D02*
X168239286Y-126433390D01*
X168239286Y-126433390D02*
X168286905Y-126242914D01*
X168286905Y-126242914D02*
X168334524Y-126147676D01*
X168334524Y-126147676D02*
X168429762Y-126052438D01*
X168429762Y-126052438D02*
X168572619Y-126004819D01*
X168572619Y-126004819D02*
X168667857Y-126004819D01*
X168667857Y-126004819D02*
X168810714Y-126052438D01*
X168810714Y-126052438D02*
X168858333Y-126100057D01*
X169715476Y-126004819D02*
X169525000Y-126004819D01*
X169525000Y-126004819D02*
X169429762Y-126052438D01*
X169429762Y-126052438D02*
X169382143Y-126100057D01*
X169382143Y-126100057D02*
X169286905Y-126242914D01*
X169286905Y-126242914D02*
X169239286Y-126433390D01*
X169239286Y-126433390D02*
X169239286Y-126814342D01*
X169239286Y-126814342D02*
X169286905Y-126909580D01*
X169286905Y-126909580D02*
X169334524Y-126957200D01*
X169334524Y-126957200D02*
X169429762Y-127004819D01*
X169429762Y-127004819D02*
X169620238Y-127004819D01*
X169620238Y-127004819D02*
X169715476Y-126957200D01*
X169715476Y-126957200D02*
X169763095Y-126909580D01*
X169763095Y-126909580D02*
X169810714Y-126814342D01*
X169810714Y-126814342D02*
X169810714Y-126576247D01*
X169810714Y-126576247D02*
X169763095Y-126481009D01*
X169763095Y-126481009D02*
X169715476Y-126433390D01*
X169715476Y-126433390D02*
X169620238Y-126385771D01*
X169620238Y-126385771D02*
X169429762Y-126385771D01*
X169429762Y-126385771D02*
X169334524Y-126433390D01*
X169334524Y-126433390D02*
X169286905Y-126481009D01*
X169286905Y-126481009D02*
X169239286Y-126576247D01*
X183666666Y-90012295D02*
X183285714Y-90012295D01*
X183285714Y-90012295D02*
X183285714Y-89212295D01*
X184314285Y-89212295D02*
X183933333Y-89212295D01*
X183933333Y-89212295D02*
X183895237Y-89593247D01*
X183895237Y-89593247D02*
X183933333Y-89555152D01*
X183933333Y-89555152D02*
X184009523Y-89517057D01*
X184009523Y-89517057D02*
X184199999Y-89517057D01*
X184199999Y-89517057D02*
X184276190Y-89555152D01*
X184276190Y-89555152D02*
X184314285Y-89593247D01*
X184314285Y-89593247D02*
X184352380Y-89669438D01*
X184352380Y-89669438D02*
X184352380Y-89859914D01*
X184352380Y-89859914D02*
X184314285Y-89936104D01*
X184314285Y-89936104D02*
X184276190Y-89974200D01*
X184276190Y-89974200D02*
X184199999Y-90012295D01*
X184199999Y-90012295D02*
X184009523Y-90012295D01*
X184009523Y-90012295D02*
X183933333Y-89974200D01*
X183933333Y-89974200D02*
X183895237Y-89936104D01*
X135520714Y-86411104D02*
X135482618Y-86449200D01*
X135482618Y-86449200D02*
X135368333Y-86487295D01*
X135368333Y-86487295D02*
X135292142Y-86487295D01*
X135292142Y-86487295D02*
X135177856Y-86449200D01*
X135177856Y-86449200D02*
X135101666Y-86373009D01*
X135101666Y-86373009D02*
X135063571Y-86296819D01*
X135063571Y-86296819D02*
X135025475Y-86144438D01*
X135025475Y-86144438D02*
X135025475Y-86030152D01*
X135025475Y-86030152D02*
X135063571Y-85877771D01*
X135063571Y-85877771D02*
X135101666Y-85801580D01*
X135101666Y-85801580D02*
X135177856Y-85725390D01*
X135177856Y-85725390D02*
X135292142Y-85687295D01*
X135292142Y-85687295D02*
X135368333Y-85687295D01*
X135368333Y-85687295D02*
X135482618Y-85725390D01*
X135482618Y-85725390D02*
X135520714Y-85763485D01*
X136206428Y-85953961D02*
X136206428Y-86487295D01*
X136015952Y-85649200D02*
X135825475Y-86220628D01*
X135825475Y-86220628D02*
X136320714Y-86220628D01*
X136549285Y-85687295D02*
X137044523Y-85687295D01*
X137044523Y-85687295D02*
X136777857Y-85992057D01*
X136777857Y-85992057D02*
X136892142Y-85992057D01*
X136892142Y-85992057D02*
X136968333Y-86030152D01*
X136968333Y-86030152D02*
X137006428Y-86068247D01*
X137006428Y-86068247D02*
X137044523Y-86144438D01*
X137044523Y-86144438D02*
X137044523Y-86334914D01*
X137044523Y-86334914D02*
X137006428Y-86411104D01*
X137006428Y-86411104D02*
X136968333Y-86449200D01*
X136968333Y-86449200D02*
X136892142Y-86487295D01*
X136892142Y-86487295D02*
X136663571Y-86487295D01*
X136663571Y-86487295D02*
X136587380Y-86449200D01*
X136587380Y-86449200D02*
X136549285Y-86411104D01*
X144591667Y-92612295D02*
X144325000Y-92231342D01*
X144134524Y-92612295D02*
X144134524Y-91812295D01*
X144134524Y-91812295D02*
X144439286Y-91812295D01*
X144439286Y-91812295D02*
X144515476Y-91850390D01*
X144515476Y-91850390D02*
X144553571Y-91888485D01*
X144553571Y-91888485D02*
X144591667Y-91964676D01*
X144591667Y-91964676D02*
X144591667Y-92078961D01*
X144591667Y-92078961D02*
X144553571Y-92155152D01*
X144553571Y-92155152D02*
X144515476Y-92193247D01*
X144515476Y-92193247D02*
X144439286Y-92231342D01*
X144439286Y-92231342D02*
X144134524Y-92231342D01*
X145048809Y-92155152D02*
X144972619Y-92117057D01*
X144972619Y-92117057D02*
X144934524Y-92078961D01*
X144934524Y-92078961D02*
X144896428Y-92002771D01*
X144896428Y-92002771D02*
X144896428Y-91964676D01*
X144896428Y-91964676D02*
X144934524Y-91888485D01*
X144934524Y-91888485D02*
X144972619Y-91850390D01*
X144972619Y-91850390D02*
X145048809Y-91812295D01*
X145048809Y-91812295D02*
X145201190Y-91812295D01*
X145201190Y-91812295D02*
X145277381Y-91850390D01*
X145277381Y-91850390D02*
X145315476Y-91888485D01*
X145315476Y-91888485D02*
X145353571Y-91964676D01*
X145353571Y-91964676D02*
X145353571Y-92002771D01*
X145353571Y-92002771D02*
X145315476Y-92078961D01*
X145315476Y-92078961D02*
X145277381Y-92117057D01*
X145277381Y-92117057D02*
X145201190Y-92155152D01*
X145201190Y-92155152D02*
X145048809Y-92155152D01*
X145048809Y-92155152D02*
X144972619Y-92193247D01*
X144972619Y-92193247D02*
X144934524Y-92231342D01*
X144934524Y-92231342D02*
X144896428Y-92307533D01*
X144896428Y-92307533D02*
X144896428Y-92459914D01*
X144896428Y-92459914D02*
X144934524Y-92536104D01*
X144934524Y-92536104D02*
X144972619Y-92574200D01*
X144972619Y-92574200D02*
X145048809Y-92612295D01*
X145048809Y-92612295D02*
X145201190Y-92612295D01*
X145201190Y-92612295D02*
X145277381Y-92574200D01*
X145277381Y-92574200D02*
X145315476Y-92536104D01*
X145315476Y-92536104D02*
X145353571Y-92459914D01*
X145353571Y-92459914D02*
X145353571Y-92307533D01*
X145353571Y-92307533D02*
X145315476Y-92231342D01*
X145315476Y-92231342D02*
X145277381Y-92193247D01*
X145277381Y-92193247D02*
X145201190Y-92155152D01*
X163325714Y-79437295D02*
X163059047Y-79056342D01*
X162868571Y-79437295D02*
X162868571Y-78637295D01*
X162868571Y-78637295D02*
X163173333Y-78637295D01*
X163173333Y-78637295D02*
X163249523Y-78675390D01*
X163249523Y-78675390D02*
X163287618Y-78713485D01*
X163287618Y-78713485D02*
X163325714Y-78789676D01*
X163325714Y-78789676D02*
X163325714Y-78903961D01*
X163325714Y-78903961D02*
X163287618Y-78980152D01*
X163287618Y-78980152D02*
X163249523Y-79018247D01*
X163249523Y-79018247D02*
X163173333Y-79056342D01*
X163173333Y-79056342D02*
X162868571Y-79056342D01*
X164011428Y-78903961D02*
X164011428Y-79437295D01*
X163820952Y-78599200D02*
X163630475Y-79170628D01*
X163630475Y-79170628D02*
X164125714Y-79170628D01*
X164544761Y-78980152D02*
X164468571Y-78942057D01*
X164468571Y-78942057D02*
X164430476Y-78903961D01*
X164430476Y-78903961D02*
X164392380Y-78827771D01*
X164392380Y-78827771D02*
X164392380Y-78789676D01*
X164392380Y-78789676D02*
X164430476Y-78713485D01*
X164430476Y-78713485D02*
X164468571Y-78675390D01*
X164468571Y-78675390D02*
X164544761Y-78637295D01*
X164544761Y-78637295D02*
X164697142Y-78637295D01*
X164697142Y-78637295D02*
X164773333Y-78675390D01*
X164773333Y-78675390D02*
X164811428Y-78713485D01*
X164811428Y-78713485D02*
X164849523Y-78789676D01*
X164849523Y-78789676D02*
X164849523Y-78827771D01*
X164849523Y-78827771D02*
X164811428Y-78903961D01*
X164811428Y-78903961D02*
X164773333Y-78942057D01*
X164773333Y-78942057D02*
X164697142Y-78980152D01*
X164697142Y-78980152D02*
X164544761Y-78980152D01*
X164544761Y-78980152D02*
X164468571Y-79018247D01*
X164468571Y-79018247D02*
X164430476Y-79056342D01*
X164430476Y-79056342D02*
X164392380Y-79132533D01*
X164392380Y-79132533D02*
X164392380Y-79284914D01*
X164392380Y-79284914D02*
X164430476Y-79361104D01*
X164430476Y-79361104D02*
X164468571Y-79399200D01*
X164468571Y-79399200D02*
X164544761Y-79437295D01*
X164544761Y-79437295D02*
X164697142Y-79437295D01*
X164697142Y-79437295D02*
X164773333Y-79399200D01*
X164773333Y-79399200D02*
X164811428Y-79361104D01*
X164811428Y-79361104D02*
X164849523Y-79284914D01*
X164849523Y-79284914D02*
X164849523Y-79132533D01*
X164849523Y-79132533D02*
X164811428Y-79056342D01*
X164811428Y-79056342D02*
X164773333Y-79018247D01*
X164773333Y-79018247D02*
X164697142Y-78980152D01*
X138962295Y-83564285D02*
X138581342Y-83830952D01*
X138962295Y-84021428D02*
X138162295Y-84021428D01*
X138162295Y-84021428D02*
X138162295Y-83716666D01*
X138162295Y-83716666D02*
X138200390Y-83640476D01*
X138200390Y-83640476D02*
X138238485Y-83602381D01*
X138238485Y-83602381D02*
X138314676Y-83564285D01*
X138314676Y-83564285D02*
X138428961Y-83564285D01*
X138428961Y-83564285D02*
X138505152Y-83602381D01*
X138505152Y-83602381D02*
X138543247Y-83640476D01*
X138543247Y-83640476D02*
X138581342Y-83716666D01*
X138581342Y-83716666D02*
X138581342Y-84021428D01*
X138428961Y-82878571D02*
X138962295Y-82878571D01*
X138124200Y-83069047D02*
X138695628Y-83259524D01*
X138695628Y-83259524D02*
X138695628Y-82764285D01*
X138162295Y-82535714D02*
X138162295Y-82040476D01*
X138162295Y-82040476D02*
X138467057Y-82307142D01*
X138467057Y-82307142D02*
X138467057Y-82192857D01*
X138467057Y-82192857D02*
X138505152Y-82116666D01*
X138505152Y-82116666D02*
X138543247Y-82078571D01*
X138543247Y-82078571D02*
X138619438Y-82040476D01*
X138619438Y-82040476D02*
X138809914Y-82040476D01*
X138809914Y-82040476D02*
X138886104Y-82078571D01*
X138886104Y-82078571D02*
X138924200Y-82116666D01*
X138924200Y-82116666D02*
X138962295Y-82192857D01*
X138962295Y-82192857D02*
X138962295Y-82421428D01*
X138962295Y-82421428D02*
X138924200Y-82497619D01*
X138924200Y-82497619D02*
X138886104Y-82535714D01*
X142835714Y-88712295D02*
X142569047Y-88331342D01*
X142378571Y-88712295D02*
X142378571Y-87912295D01*
X142378571Y-87912295D02*
X142683333Y-87912295D01*
X142683333Y-87912295D02*
X142759523Y-87950390D01*
X142759523Y-87950390D02*
X142797618Y-87988485D01*
X142797618Y-87988485D02*
X142835714Y-88064676D01*
X142835714Y-88064676D02*
X142835714Y-88178961D01*
X142835714Y-88178961D02*
X142797618Y-88255152D01*
X142797618Y-88255152D02*
X142759523Y-88293247D01*
X142759523Y-88293247D02*
X142683333Y-88331342D01*
X142683333Y-88331342D02*
X142378571Y-88331342D01*
X143102380Y-87912295D02*
X143597618Y-87912295D01*
X143597618Y-87912295D02*
X143330952Y-88217057D01*
X143330952Y-88217057D02*
X143445237Y-88217057D01*
X143445237Y-88217057D02*
X143521428Y-88255152D01*
X143521428Y-88255152D02*
X143559523Y-88293247D01*
X143559523Y-88293247D02*
X143597618Y-88369438D01*
X143597618Y-88369438D02*
X143597618Y-88559914D01*
X143597618Y-88559914D02*
X143559523Y-88636104D01*
X143559523Y-88636104D02*
X143521428Y-88674200D01*
X143521428Y-88674200D02*
X143445237Y-88712295D01*
X143445237Y-88712295D02*
X143216666Y-88712295D01*
X143216666Y-88712295D02*
X143140475Y-88674200D01*
X143140475Y-88674200D02*
X143102380Y-88636104D01*
X144321428Y-87912295D02*
X143940476Y-87912295D01*
X143940476Y-87912295D02*
X143902380Y-88293247D01*
X143902380Y-88293247D02*
X143940476Y-88255152D01*
X143940476Y-88255152D02*
X144016666Y-88217057D01*
X144016666Y-88217057D02*
X144207142Y-88217057D01*
X144207142Y-88217057D02*
X144283333Y-88255152D01*
X144283333Y-88255152D02*
X144321428Y-88293247D01*
X144321428Y-88293247D02*
X144359523Y-88369438D01*
X144359523Y-88369438D02*
X144359523Y-88559914D01*
X144359523Y-88559914D02*
X144321428Y-88636104D01*
X144321428Y-88636104D02*
X144283333Y-88674200D01*
X144283333Y-88674200D02*
X144207142Y-88712295D01*
X144207142Y-88712295D02*
X144016666Y-88712295D01*
X144016666Y-88712295D02*
X143940476Y-88674200D01*
X143940476Y-88674200D02*
X143902380Y-88636104D01*
X161085714Y-88112295D02*
X160819047Y-87731342D01*
X160628571Y-88112295D02*
X160628571Y-87312295D01*
X160628571Y-87312295D02*
X160933333Y-87312295D01*
X160933333Y-87312295D02*
X161009523Y-87350390D01*
X161009523Y-87350390D02*
X161047618Y-87388485D01*
X161047618Y-87388485D02*
X161085714Y-87464676D01*
X161085714Y-87464676D02*
X161085714Y-87578961D01*
X161085714Y-87578961D02*
X161047618Y-87655152D01*
X161047618Y-87655152D02*
X161009523Y-87693247D01*
X161009523Y-87693247D02*
X160933333Y-87731342D01*
X160933333Y-87731342D02*
X160628571Y-87731342D01*
X161771428Y-87578961D02*
X161771428Y-88112295D01*
X161580952Y-87274200D02*
X161390475Y-87845628D01*
X161390475Y-87845628D02*
X161885714Y-87845628D01*
X162571428Y-87312295D02*
X162190476Y-87312295D01*
X162190476Y-87312295D02*
X162152380Y-87693247D01*
X162152380Y-87693247D02*
X162190476Y-87655152D01*
X162190476Y-87655152D02*
X162266666Y-87617057D01*
X162266666Y-87617057D02*
X162457142Y-87617057D01*
X162457142Y-87617057D02*
X162533333Y-87655152D01*
X162533333Y-87655152D02*
X162571428Y-87693247D01*
X162571428Y-87693247D02*
X162609523Y-87769438D01*
X162609523Y-87769438D02*
X162609523Y-87959914D01*
X162609523Y-87959914D02*
X162571428Y-88036104D01*
X162571428Y-88036104D02*
X162533333Y-88074200D01*
X162533333Y-88074200D02*
X162457142Y-88112295D01*
X162457142Y-88112295D02*
X162266666Y-88112295D01*
X162266666Y-88112295D02*
X162190476Y-88074200D01*
X162190476Y-88074200D02*
X162152380Y-88036104D01*
D12*
X121966666Y-109178409D02*
X121633333Y-109178409D01*
X121633333Y-109702219D02*
X121633333Y-108702219D01*
X121633333Y-108702219D02*
X122109523Y-108702219D01*
X123014285Y-109702219D02*
X122442857Y-109702219D01*
X122728571Y-109702219D02*
X122728571Y-108702219D01*
X122728571Y-108702219D02*
X122633333Y-108845076D01*
X122633333Y-108845076D02*
X122538095Y-108940314D01*
X122538095Y-108940314D02*
X122442857Y-108987933D01*
D14*
X123820471Y-135178380D02*
X123487007Y-135178380D01*
X123487007Y-135702396D02*
X123487007Y-134702002D01*
X123487007Y-134702002D02*
X123963385Y-134702002D01*
X124773228Y-135035467D02*
X124773228Y-135702396D01*
X124344488Y-135035467D02*
X124344488Y-135559483D01*
X124344488Y-135559483D02*
X124392125Y-135654759D01*
X124392125Y-135654759D02*
X124487401Y-135702396D01*
X124487401Y-135702396D02*
X124630314Y-135702396D01*
X124630314Y-135702396D02*
X124725590Y-135654759D01*
X124725590Y-135654759D02*
X124773228Y-135607121D01*
X125201968Y-135654759D02*
X125297243Y-135702396D01*
X125297243Y-135702396D02*
X125487795Y-135702396D01*
X125487795Y-135702396D02*
X125583070Y-135654759D01*
X125583070Y-135654759D02*
X125630708Y-135559483D01*
X125630708Y-135559483D02*
X125630708Y-135511845D01*
X125630708Y-135511845D02*
X125583070Y-135416569D01*
X125583070Y-135416569D02*
X125487795Y-135368932D01*
X125487795Y-135368932D02*
X125344881Y-135368932D01*
X125344881Y-135368932D02*
X125249606Y-135321294D01*
X125249606Y-135321294D02*
X125201968Y-135226018D01*
X125201968Y-135226018D02*
X125201968Y-135178380D01*
X125201968Y-135178380D02*
X125249606Y-135083105D01*
X125249606Y-135083105D02*
X125344881Y-135035467D01*
X125344881Y-135035467D02*
X125487795Y-135035467D01*
X125487795Y-135035467D02*
X125583070Y-135083105D01*
X126440551Y-135654759D02*
X126345275Y-135702396D01*
X126345275Y-135702396D02*
X126154724Y-135702396D01*
X126154724Y-135702396D02*
X126059449Y-135654759D01*
X126059449Y-135654759D02*
X126011811Y-135559483D01*
X126011811Y-135559483D02*
X126011811Y-135178380D01*
X126011811Y-135178380D02*
X126059449Y-135083105D01*
X126059449Y-135083105D02*
X126154724Y-135035467D01*
X126154724Y-135035467D02*
X126345275Y-135035467D01*
X126345275Y-135035467D02*
X126440551Y-135083105D01*
X126440551Y-135083105D02*
X126488189Y-135178380D01*
X126488189Y-135178380D02*
X126488189Y-135273656D01*
X126488189Y-135273656D02*
X126011811Y-135368932D01*
X128155513Y-134702002D02*
X127679135Y-134702002D01*
X127679135Y-134702002D02*
X127631497Y-135178380D01*
X127631497Y-135178380D02*
X127679135Y-135130743D01*
X127679135Y-135130743D02*
X127774410Y-135083105D01*
X127774410Y-135083105D02*
X128012599Y-135083105D01*
X128012599Y-135083105D02*
X128107875Y-135130743D01*
X128107875Y-135130743D02*
X128155513Y-135178380D01*
X128155513Y-135178380D02*
X128203150Y-135273656D01*
X128203150Y-135273656D02*
X128203150Y-135511845D01*
X128203150Y-135511845D02*
X128155513Y-135607121D01*
X128155513Y-135607121D02*
X128107875Y-135654759D01*
X128107875Y-135654759D02*
X128012599Y-135702396D01*
X128012599Y-135702396D02*
X127774410Y-135702396D01*
X127774410Y-135702396D02*
X127679135Y-135654759D01*
X127679135Y-135654759D02*
X127631497Y-135607121D01*
X128584253Y-135416569D02*
X129060631Y-135416569D01*
X128488977Y-135702396D02*
X128822442Y-134702002D01*
X128822442Y-134702002D02*
X129155906Y-135702396D01*
D13*
X181153571Y-138106009D02*
X180820238Y-138106009D01*
X180820238Y-138629819D02*
X180820238Y-137629819D01*
X180820238Y-137629819D02*
X181296428Y-137629819D01*
X181677381Y-138629819D02*
X181677381Y-137629819D01*
X182153571Y-138629819D02*
X182153571Y-137629819D01*
X182153571Y-137629819D02*
X182391666Y-137629819D01*
X182391666Y-137629819D02*
X182534523Y-137677438D01*
X182534523Y-137677438D02*
X182629761Y-137772676D01*
X182629761Y-137772676D02*
X182677380Y-137867914D01*
X182677380Y-137867914D02*
X182724999Y-138058390D01*
X182724999Y-138058390D02*
X182724999Y-138201247D01*
X182724999Y-138201247D02*
X182677380Y-138391723D01*
X182677380Y-138391723D02*
X182629761Y-138486961D01*
X182629761Y-138486961D02*
X182534523Y-138582200D01*
X182534523Y-138582200D02*
X182391666Y-138629819D01*
X182391666Y-138629819D02*
X182153571Y-138629819D01*
X183629761Y-137629819D02*
X183153571Y-137629819D01*
X183153571Y-137629819D02*
X183105952Y-138106009D01*
X183105952Y-138106009D02*
X183153571Y-138058390D01*
X183153571Y-138058390D02*
X183248809Y-138010771D01*
X183248809Y-138010771D02*
X183486904Y-138010771D01*
X183486904Y-138010771D02*
X183582142Y-138058390D01*
X183582142Y-138058390D02*
X183629761Y-138106009D01*
X183629761Y-138106009D02*
X183677380Y-138201247D01*
X183677380Y-138201247D02*
X183677380Y-138439342D01*
X183677380Y-138439342D02*
X183629761Y-138534580D01*
X183629761Y-138534580D02*
X183582142Y-138582200D01*
X183582142Y-138582200D02*
X183486904Y-138629819D01*
X183486904Y-138629819D02*
X183248809Y-138629819D01*
X183248809Y-138629819D02*
X183153571Y-138582200D01*
X183153571Y-138582200D02*
X183105952Y-138534580D01*
D12*
X164060714Y-107652219D02*
X164060714Y-106652219D01*
X164060714Y-106652219D02*
X164441666Y-106652219D01*
X164441666Y-106652219D02*
X164536904Y-106699838D01*
X164536904Y-106699838D02*
X164584523Y-106747457D01*
X164584523Y-106747457D02*
X164632142Y-106842695D01*
X164632142Y-106842695D02*
X164632142Y-106985552D01*
X164632142Y-106985552D02*
X164584523Y-107080790D01*
X164584523Y-107080790D02*
X164536904Y-107128409D01*
X164536904Y-107128409D02*
X164441666Y-107176028D01*
X164441666Y-107176028D02*
X164060714Y-107176028D01*
X165013095Y-107604600D02*
X165155952Y-107652219D01*
X165155952Y-107652219D02*
X165394047Y-107652219D01*
X165394047Y-107652219D02*
X165489285Y-107604600D01*
X165489285Y-107604600D02*
X165536904Y-107556980D01*
X165536904Y-107556980D02*
X165584523Y-107461742D01*
X165584523Y-107461742D02*
X165584523Y-107366504D01*
X165584523Y-107366504D02*
X165536904Y-107271266D01*
X165536904Y-107271266D02*
X165489285Y-107223647D01*
X165489285Y-107223647D02*
X165394047Y-107176028D01*
X165394047Y-107176028D02*
X165203571Y-107128409D01*
X165203571Y-107128409D02*
X165108333Y-107080790D01*
X165108333Y-107080790D02*
X165060714Y-107033171D01*
X165060714Y-107033171D02*
X165013095Y-106937933D01*
X165013095Y-106937933D02*
X165013095Y-106842695D01*
X165013095Y-106842695D02*
X165060714Y-106747457D01*
X165060714Y-106747457D02*
X165108333Y-106699838D01*
X165108333Y-106699838D02*
X165203571Y-106652219D01*
X165203571Y-106652219D02*
X165441666Y-106652219D01*
X165441666Y-106652219D02*
X165584523Y-106699838D01*
X166536904Y-107652219D02*
X165965476Y-107652219D01*
X166251190Y-107652219D02*
X166251190Y-106652219D01*
X166251190Y-106652219D02*
X166155952Y-106795076D01*
X166155952Y-106795076D02*
X166060714Y-106890314D01*
X166060714Y-106890314D02*
X165965476Y-106937933D01*
D13*
X138616667Y-99199795D02*
X138350000Y-98818842D01*
X138159524Y-99199795D02*
X138159524Y-98399795D01*
X138159524Y-98399795D02*
X138464286Y-98399795D01*
X138464286Y-98399795D02*
X138540476Y-98437890D01*
X138540476Y-98437890D02*
X138578571Y-98475985D01*
X138578571Y-98475985D02*
X138616667Y-98552176D01*
X138616667Y-98552176D02*
X138616667Y-98666461D01*
X138616667Y-98666461D02*
X138578571Y-98742652D01*
X138578571Y-98742652D02*
X138540476Y-98780747D01*
X138540476Y-98780747D02*
X138464286Y-98818842D01*
X138464286Y-98818842D02*
X138159524Y-98818842D01*
X139302381Y-98666461D02*
X139302381Y-99199795D01*
X139111905Y-98361700D02*
X138921428Y-98933128D01*
X138921428Y-98933128D02*
X139416667Y-98933128D01*
X147595714Y-66612295D02*
X147329047Y-66231342D01*
X147138571Y-66612295D02*
X147138571Y-65812295D01*
X147138571Y-65812295D02*
X147443333Y-65812295D01*
X147443333Y-65812295D02*
X147519523Y-65850390D01*
X147519523Y-65850390D02*
X147557618Y-65888485D01*
X147557618Y-65888485D02*
X147595714Y-65964676D01*
X147595714Y-65964676D02*
X147595714Y-66078961D01*
X147595714Y-66078961D02*
X147557618Y-66155152D01*
X147557618Y-66155152D02*
X147519523Y-66193247D01*
X147519523Y-66193247D02*
X147443333Y-66231342D01*
X147443333Y-66231342D02*
X147138571Y-66231342D01*
X147862380Y-65812295D02*
X148357618Y-65812295D01*
X148357618Y-65812295D02*
X148090952Y-66117057D01*
X148090952Y-66117057D02*
X148205237Y-66117057D01*
X148205237Y-66117057D02*
X148281428Y-66155152D01*
X148281428Y-66155152D02*
X148319523Y-66193247D01*
X148319523Y-66193247D02*
X148357618Y-66269438D01*
X148357618Y-66269438D02*
X148357618Y-66459914D01*
X148357618Y-66459914D02*
X148319523Y-66536104D01*
X148319523Y-66536104D02*
X148281428Y-66574200D01*
X148281428Y-66574200D02*
X148205237Y-66612295D01*
X148205237Y-66612295D02*
X147976666Y-66612295D01*
X147976666Y-66612295D02*
X147900475Y-66574200D01*
X147900475Y-66574200D02*
X147862380Y-66536104D01*
X148738571Y-66612295D02*
X148890952Y-66612295D01*
X148890952Y-66612295D02*
X148967142Y-66574200D01*
X148967142Y-66574200D02*
X149005238Y-66536104D01*
X149005238Y-66536104D02*
X149081428Y-66421819D01*
X149081428Y-66421819D02*
X149119523Y-66269438D01*
X149119523Y-66269438D02*
X149119523Y-65964676D01*
X149119523Y-65964676D02*
X149081428Y-65888485D01*
X149081428Y-65888485D02*
X149043333Y-65850390D01*
X149043333Y-65850390D02*
X148967142Y-65812295D01*
X148967142Y-65812295D02*
X148814761Y-65812295D01*
X148814761Y-65812295D02*
X148738571Y-65850390D01*
X148738571Y-65850390D02*
X148700476Y-65888485D01*
X148700476Y-65888485D02*
X148662380Y-65964676D01*
X148662380Y-65964676D02*
X148662380Y-66155152D01*
X148662380Y-66155152D02*
X148700476Y-66231342D01*
X148700476Y-66231342D02*
X148738571Y-66269438D01*
X148738571Y-66269438D02*
X148814761Y-66307533D01*
X148814761Y-66307533D02*
X148967142Y-66307533D01*
X148967142Y-66307533D02*
X149043333Y-66269438D01*
X149043333Y-66269438D02*
X149081428Y-66231342D01*
X149081428Y-66231342D02*
X149119523Y-66155152D01*
X182057142Y-110768580D02*
X182009523Y-110816200D01*
X182009523Y-110816200D02*
X181866666Y-110863819D01*
X181866666Y-110863819D02*
X181771428Y-110863819D01*
X181771428Y-110863819D02*
X181628571Y-110816200D01*
X181628571Y-110816200D02*
X181533333Y-110720961D01*
X181533333Y-110720961D02*
X181485714Y-110625723D01*
X181485714Y-110625723D02*
X181438095Y-110435247D01*
X181438095Y-110435247D02*
X181438095Y-110292390D01*
X181438095Y-110292390D02*
X181485714Y-110101914D01*
X181485714Y-110101914D02*
X181533333Y-110006676D01*
X181533333Y-110006676D02*
X181628571Y-109911438D01*
X181628571Y-109911438D02*
X181771428Y-109863819D01*
X181771428Y-109863819D02*
X181866666Y-109863819D01*
X181866666Y-109863819D02*
X182009523Y-109911438D01*
X182009523Y-109911438D02*
X182057142Y-109959057D01*
X183009523Y-110863819D02*
X182438095Y-110863819D01*
X182723809Y-110863819D02*
X182723809Y-109863819D01*
X182723809Y-109863819D02*
X182628571Y-110006676D01*
X182628571Y-110006676D02*
X182533333Y-110101914D01*
X182533333Y-110101914D02*
X182438095Y-110149533D01*
X183914285Y-109863819D02*
X183438095Y-109863819D01*
X183438095Y-109863819D02*
X183390476Y-110340009D01*
X183390476Y-110340009D02*
X183438095Y-110292390D01*
X183438095Y-110292390D02*
X183533333Y-110244771D01*
X183533333Y-110244771D02*
X183771428Y-110244771D01*
X183771428Y-110244771D02*
X183866666Y-110292390D01*
X183866666Y-110292390D02*
X183914285Y-110340009D01*
X183914285Y-110340009D02*
X183961904Y-110435247D01*
X183961904Y-110435247D02*
X183961904Y-110673342D01*
X183961904Y-110673342D02*
X183914285Y-110768580D01*
X183914285Y-110768580D02*
X183866666Y-110816200D01*
X183866666Y-110816200D02*
X183771428Y-110863819D01*
X183771428Y-110863819D02*
X183533333Y-110863819D01*
X183533333Y-110863819D02*
X183438095Y-110816200D01*
X183438095Y-110816200D02*
X183390476Y-110768580D01*
X121928571Y-49931009D02*
X121595238Y-49931009D01*
X121595238Y-50454819D02*
X121595238Y-49454819D01*
X121595238Y-49454819D02*
X122071428Y-49454819D01*
X122452381Y-50454819D02*
X122452381Y-49454819D01*
X122928571Y-50454819D02*
X122928571Y-49454819D01*
X122928571Y-49454819D02*
X123166666Y-49454819D01*
X123166666Y-49454819D02*
X123309523Y-49502438D01*
X123309523Y-49502438D02*
X123404761Y-49597676D01*
X123404761Y-49597676D02*
X123452380Y-49692914D01*
X123452380Y-49692914D02*
X123499999Y-49883390D01*
X123499999Y-49883390D02*
X123499999Y-50026247D01*
X123499999Y-50026247D02*
X123452380Y-50216723D01*
X123452380Y-50216723D02*
X123404761Y-50311961D01*
X123404761Y-50311961D02*
X123309523Y-50407200D01*
X123309523Y-50407200D02*
X123166666Y-50454819D01*
X123166666Y-50454819D02*
X122928571Y-50454819D01*
X124452380Y-50454819D02*
X123880952Y-50454819D01*
X124166666Y-50454819D02*
X124166666Y-49454819D01*
X124166666Y-49454819D02*
X124071428Y-49597676D01*
X124071428Y-49597676D02*
X123976190Y-49692914D01*
X123976190Y-49692914D02*
X123880952Y-49740533D01*
X130440476Y-83812295D02*
X130440476Y-84459914D01*
X130440476Y-84459914D02*
X130478571Y-84536104D01*
X130478571Y-84536104D02*
X130516666Y-84574200D01*
X130516666Y-84574200D02*
X130592857Y-84612295D01*
X130592857Y-84612295D02*
X130745238Y-84612295D01*
X130745238Y-84612295D02*
X130821428Y-84574200D01*
X130821428Y-84574200D02*
X130859523Y-84536104D01*
X130859523Y-84536104D02*
X130897619Y-84459914D01*
X130897619Y-84459914D02*
X130897619Y-83812295D01*
X131697618Y-84612295D02*
X131240475Y-84612295D01*
X131469047Y-84612295D02*
X131469047Y-83812295D01*
X131469047Y-83812295D02*
X131392856Y-83926580D01*
X131392856Y-83926580D02*
X131316666Y-84002771D01*
X131316666Y-84002771D02*
X131240475Y-84040866D01*
X140615475Y-63924200D02*
X140729761Y-63962295D01*
X140729761Y-63962295D02*
X140920237Y-63962295D01*
X140920237Y-63962295D02*
X140996428Y-63924200D01*
X140996428Y-63924200D02*
X141034523Y-63886104D01*
X141034523Y-63886104D02*
X141072618Y-63809914D01*
X141072618Y-63809914D02*
X141072618Y-63733723D01*
X141072618Y-63733723D02*
X141034523Y-63657533D01*
X141034523Y-63657533D02*
X140996428Y-63619438D01*
X140996428Y-63619438D02*
X140920237Y-63581342D01*
X140920237Y-63581342D02*
X140767856Y-63543247D01*
X140767856Y-63543247D02*
X140691666Y-63505152D01*
X140691666Y-63505152D02*
X140653571Y-63467057D01*
X140653571Y-63467057D02*
X140615475Y-63390866D01*
X140615475Y-63390866D02*
X140615475Y-63314676D01*
X140615475Y-63314676D02*
X140653571Y-63238485D01*
X140653571Y-63238485D02*
X140691666Y-63200390D01*
X140691666Y-63200390D02*
X140767856Y-63162295D01*
X140767856Y-63162295D02*
X140958333Y-63162295D01*
X140958333Y-63162295D02*
X141072618Y-63200390D01*
X141834523Y-63962295D02*
X141377380Y-63962295D01*
X141605952Y-63962295D02*
X141605952Y-63162295D01*
X141605952Y-63162295D02*
X141529761Y-63276580D01*
X141529761Y-63276580D02*
X141453571Y-63352771D01*
X141453571Y-63352771D02*
X141377380Y-63390866D01*
D12*
X145023809Y-138508171D02*
X144976190Y-138460552D01*
X144976190Y-138460552D02*
X144880952Y-138317695D01*
X144880952Y-138317695D02*
X144833333Y-138222457D01*
X144833333Y-138222457D02*
X144785714Y-138079600D01*
X144785714Y-138079600D02*
X144738095Y-137841504D01*
X144738095Y-137841504D02*
X144738095Y-137651028D01*
X144738095Y-137651028D02*
X144785714Y-137412933D01*
X144785714Y-137412933D02*
X144833333Y-137270076D01*
X144833333Y-137270076D02*
X144880952Y-137174838D01*
X144880952Y-137174838D02*
X144976190Y-137031980D01*
X144976190Y-137031980D02*
X145023809Y-136984361D01*
X145404762Y-138127219D02*
X145404762Y-137127219D01*
X145404762Y-137127219D02*
X145976190Y-138127219D01*
X145976190Y-138127219D02*
X145976190Y-137127219D01*
X146357143Y-138508171D02*
X146404762Y-138460552D01*
X146404762Y-138460552D02*
X146500000Y-138317695D01*
X146500000Y-138317695D02*
X146547619Y-138222457D01*
X146547619Y-138222457D02*
X146595238Y-138079600D01*
X146595238Y-138079600D02*
X146642857Y-137841504D01*
X146642857Y-137841504D02*
X146642857Y-137651028D01*
X146642857Y-137651028D02*
X146595238Y-137412933D01*
X146595238Y-137412933D02*
X146547619Y-137270076D01*
X146547619Y-137270076D02*
X146500000Y-137174838D01*
X146500000Y-137174838D02*
X146404762Y-137031980D01*
X146404762Y-137031980D02*
X146357143Y-136984361D01*
X147119048Y-137746266D02*
X147880953Y-137746266D01*
X148500000Y-138127219D02*
X148404762Y-138079600D01*
X148404762Y-138079600D02*
X148357143Y-138031980D01*
X148357143Y-138031980D02*
X148309524Y-137936742D01*
X148309524Y-137936742D02*
X148309524Y-137651028D01*
X148309524Y-137651028D02*
X148357143Y-137555790D01*
X148357143Y-137555790D02*
X148404762Y-137508171D01*
X148404762Y-137508171D02*
X148500000Y-137460552D01*
X148500000Y-137460552D02*
X148642857Y-137460552D01*
X148642857Y-137460552D02*
X148738095Y-137508171D01*
X148738095Y-137508171D02*
X148785714Y-137555790D01*
X148785714Y-137555790D02*
X148833333Y-137651028D01*
X148833333Y-137651028D02*
X148833333Y-137936742D01*
X148833333Y-137936742D02*
X148785714Y-138031980D01*
X148785714Y-138031980D02*
X148738095Y-138079600D01*
X148738095Y-138079600D02*
X148642857Y-138127219D01*
X148642857Y-138127219D02*
X148500000Y-138127219D01*
X149690476Y-137460552D02*
X149690476Y-138127219D01*
X149261905Y-137460552D02*
X149261905Y-137984361D01*
X149261905Y-137984361D02*
X149309524Y-138079600D01*
X149309524Y-138079600D02*
X149404762Y-138127219D01*
X149404762Y-138127219D02*
X149547619Y-138127219D01*
X149547619Y-138127219D02*
X149642857Y-138079600D01*
X149642857Y-138079600D02*
X149690476Y-138031980D01*
X150023810Y-137460552D02*
X150404762Y-137460552D01*
X150166667Y-137127219D02*
X150166667Y-137984361D01*
X150166667Y-137984361D02*
X150214286Y-138079600D01*
X150214286Y-138079600D02*
X150309524Y-138127219D01*
X150309524Y-138127219D02*
X150404762Y-138127219D01*
D13*
X132816667Y-100962295D02*
X132550000Y-100581342D01*
X132359524Y-100962295D02*
X132359524Y-100162295D01*
X132359524Y-100162295D02*
X132664286Y-100162295D01*
X132664286Y-100162295D02*
X132740476Y-100200390D01*
X132740476Y-100200390D02*
X132778571Y-100238485D01*
X132778571Y-100238485D02*
X132816667Y-100314676D01*
X132816667Y-100314676D02*
X132816667Y-100428961D01*
X132816667Y-100428961D02*
X132778571Y-100505152D01*
X132778571Y-100505152D02*
X132740476Y-100543247D01*
X132740476Y-100543247D02*
X132664286Y-100581342D01*
X132664286Y-100581342D02*
X132359524Y-100581342D01*
X133578571Y-100962295D02*
X133121428Y-100962295D01*
X133350000Y-100962295D02*
X133350000Y-100162295D01*
X133350000Y-100162295D02*
X133273809Y-100276580D01*
X133273809Y-100276580D02*
X133197619Y-100352771D01*
X133197619Y-100352771D02*
X133121428Y-100390866D01*
X129087295Y-78189285D02*
X128706342Y-78455952D01*
X129087295Y-78646428D02*
X128287295Y-78646428D01*
X128287295Y-78646428D02*
X128287295Y-78341666D01*
X128287295Y-78341666D02*
X128325390Y-78265476D01*
X128325390Y-78265476D02*
X128363485Y-78227381D01*
X128363485Y-78227381D02*
X128439676Y-78189285D01*
X128439676Y-78189285D02*
X128553961Y-78189285D01*
X128553961Y-78189285D02*
X128630152Y-78227381D01*
X128630152Y-78227381D02*
X128668247Y-78265476D01*
X128668247Y-78265476D02*
X128706342Y-78341666D01*
X128706342Y-78341666D02*
X128706342Y-78646428D01*
X128287295Y-77922619D02*
X128287295Y-77427381D01*
X128287295Y-77427381D02*
X128592057Y-77694047D01*
X128592057Y-77694047D02*
X128592057Y-77579762D01*
X128592057Y-77579762D02*
X128630152Y-77503571D01*
X128630152Y-77503571D02*
X128668247Y-77465476D01*
X128668247Y-77465476D02*
X128744438Y-77427381D01*
X128744438Y-77427381D02*
X128934914Y-77427381D01*
X128934914Y-77427381D02*
X129011104Y-77465476D01*
X129011104Y-77465476D02*
X129049200Y-77503571D01*
X129049200Y-77503571D02*
X129087295Y-77579762D01*
X129087295Y-77579762D02*
X129087295Y-77808333D01*
X129087295Y-77808333D02*
X129049200Y-77884524D01*
X129049200Y-77884524D02*
X129011104Y-77922619D01*
X128287295Y-77160714D02*
X128287295Y-76627380D01*
X128287295Y-76627380D02*
X129087295Y-76970238D01*
X174558333Y-93937295D02*
X174558333Y-94508723D01*
X174558333Y-94508723D02*
X174520238Y-94623009D01*
X174520238Y-94623009D02*
X174444047Y-94699200D01*
X174444047Y-94699200D02*
X174329762Y-94737295D01*
X174329762Y-94737295D02*
X174253571Y-94737295D01*
X174863095Y-93937295D02*
X175396429Y-93937295D01*
X175396429Y-93937295D02*
X175053571Y-94737295D01*
X120412295Y-89609523D02*
X121059914Y-89609523D01*
X121059914Y-89609523D02*
X121136104Y-89571428D01*
X121136104Y-89571428D02*
X121174200Y-89533333D01*
X121174200Y-89533333D02*
X121212295Y-89457142D01*
X121212295Y-89457142D02*
X121212295Y-89304761D01*
X121212295Y-89304761D02*
X121174200Y-89228571D01*
X121174200Y-89228571D02*
X121136104Y-89190476D01*
X121136104Y-89190476D02*
X121059914Y-89152380D01*
X121059914Y-89152380D02*
X120412295Y-89152380D01*
X120412295Y-88847619D02*
X120412295Y-88352381D01*
X120412295Y-88352381D02*
X120717057Y-88619047D01*
X120717057Y-88619047D02*
X120717057Y-88504762D01*
X120717057Y-88504762D02*
X120755152Y-88428571D01*
X120755152Y-88428571D02*
X120793247Y-88390476D01*
X120793247Y-88390476D02*
X120869438Y-88352381D01*
X120869438Y-88352381D02*
X121059914Y-88352381D01*
X121059914Y-88352381D02*
X121136104Y-88390476D01*
X121136104Y-88390476D02*
X121174200Y-88428571D01*
X121174200Y-88428571D02*
X121212295Y-88504762D01*
X121212295Y-88504762D02*
X121212295Y-88733333D01*
X121212295Y-88733333D02*
X121174200Y-88809524D01*
X121174200Y-88809524D02*
X121136104Y-88847619D01*
X157638095Y-137554819D02*
X158209523Y-137554819D01*
X157923809Y-138554819D02*
X157923809Y-137554819D01*
X158495238Y-137650057D02*
X158542857Y-137602438D01*
X158542857Y-137602438D02*
X158638095Y-137554819D01*
X158638095Y-137554819D02*
X158876190Y-137554819D01*
X158876190Y-137554819D02*
X158971428Y-137602438D01*
X158971428Y-137602438D02*
X159019047Y-137650057D01*
X159019047Y-137650057D02*
X159066666Y-137745295D01*
X159066666Y-137745295D02*
X159066666Y-137840533D01*
X159066666Y-137840533D02*
X159019047Y-137983390D01*
X159019047Y-137983390D02*
X158447619Y-138554819D01*
X158447619Y-138554819D02*
X159066666Y-138554819D01*
X139300714Y-77712295D02*
X139034047Y-77331342D01*
X138843571Y-77712295D02*
X138843571Y-76912295D01*
X138843571Y-76912295D02*
X139148333Y-76912295D01*
X139148333Y-76912295D02*
X139224523Y-76950390D01*
X139224523Y-76950390D02*
X139262618Y-76988485D01*
X139262618Y-76988485D02*
X139300714Y-77064676D01*
X139300714Y-77064676D02*
X139300714Y-77178961D01*
X139300714Y-77178961D02*
X139262618Y-77255152D01*
X139262618Y-77255152D02*
X139224523Y-77293247D01*
X139224523Y-77293247D02*
X139148333Y-77331342D01*
X139148333Y-77331342D02*
X138843571Y-77331342D01*
X139567380Y-76912295D02*
X140062618Y-76912295D01*
X140062618Y-76912295D02*
X139795952Y-77217057D01*
X139795952Y-77217057D02*
X139910237Y-77217057D01*
X139910237Y-77217057D02*
X139986428Y-77255152D01*
X139986428Y-77255152D02*
X140024523Y-77293247D01*
X140024523Y-77293247D02*
X140062618Y-77369438D01*
X140062618Y-77369438D02*
X140062618Y-77559914D01*
X140062618Y-77559914D02*
X140024523Y-77636104D01*
X140024523Y-77636104D02*
X139986428Y-77674200D01*
X139986428Y-77674200D02*
X139910237Y-77712295D01*
X139910237Y-77712295D02*
X139681666Y-77712295D01*
X139681666Y-77712295D02*
X139605475Y-77674200D01*
X139605475Y-77674200D02*
X139567380Y-77636104D01*
X140748333Y-77178961D02*
X140748333Y-77712295D01*
X140557857Y-76874200D02*
X140367380Y-77445628D01*
X140367380Y-77445628D02*
X140862619Y-77445628D01*
X155660714Y-112912295D02*
X155394047Y-112531342D01*
X155203571Y-112912295D02*
X155203571Y-112112295D01*
X155203571Y-112112295D02*
X155508333Y-112112295D01*
X155508333Y-112112295D02*
X155584523Y-112150390D01*
X155584523Y-112150390D02*
X155622618Y-112188485D01*
X155622618Y-112188485D02*
X155660714Y-112264676D01*
X155660714Y-112264676D02*
X155660714Y-112378961D01*
X155660714Y-112378961D02*
X155622618Y-112455152D01*
X155622618Y-112455152D02*
X155584523Y-112493247D01*
X155584523Y-112493247D02*
X155508333Y-112531342D01*
X155508333Y-112531342D02*
X155203571Y-112531342D01*
X155965475Y-112188485D02*
X156003571Y-112150390D01*
X156003571Y-112150390D02*
X156079761Y-112112295D01*
X156079761Y-112112295D02*
X156270237Y-112112295D01*
X156270237Y-112112295D02*
X156346428Y-112150390D01*
X156346428Y-112150390D02*
X156384523Y-112188485D01*
X156384523Y-112188485D02*
X156422618Y-112264676D01*
X156422618Y-112264676D02*
X156422618Y-112340866D01*
X156422618Y-112340866D02*
X156384523Y-112455152D01*
X156384523Y-112455152D02*
X155927380Y-112912295D01*
X155927380Y-112912295D02*
X156422618Y-112912295D01*
X156689285Y-112112295D02*
X157222619Y-112112295D01*
X157222619Y-112112295D02*
X156879761Y-112912295D01*
X149192319Y-99616666D02*
X148716128Y-99949999D01*
X149192319Y-100188094D02*
X148192319Y-100188094D01*
X148192319Y-100188094D02*
X148192319Y-99807142D01*
X148192319Y-99807142D02*
X148239938Y-99711904D01*
X148239938Y-99711904D02*
X148287557Y-99664285D01*
X148287557Y-99664285D02*
X148382795Y-99616666D01*
X148382795Y-99616666D02*
X148525652Y-99616666D01*
X148525652Y-99616666D02*
X148620890Y-99664285D01*
X148620890Y-99664285D02*
X148668509Y-99711904D01*
X148668509Y-99711904D02*
X148716128Y-99807142D01*
X148716128Y-99807142D02*
X148716128Y-100188094D01*
X148192319Y-98759523D02*
X148192319Y-98949999D01*
X148192319Y-98949999D02*
X148239938Y-99045237D01*
X148239938Y-99045237D02*
X148287557Y-99092856D01*
X148287557Y-99092856D02*
X148430414Y-99188094D01*
X148430414Y-99188094D02*
X148620890Y-99235713D01*
X148620890Y-99235713D02*
X149001842Y-99235713D01*
X149001842Y-99235713D02*
X149097080Y-99188094D01*
X149097080Y-99188094D02*
X149144700Y-99140475D01*
X149144700Y-99140475D02*
X149192319Y-99045237D01*
X149192319Y-99045237D02*
X149192319Y-98854761D01*
X149192319Y-98854761D02*
X149144700Y-98759523D01*
X149144700Y-98759523D02*
X149097080Y-98711904D01*
X149097080Y-98711904D02*
X149001842Y-98664285D01*
X149001842Y-98664285D02*
X148763747Y-98664285D01*
X148763747Y-98664285D02*
X148668509Y-98711904D01*
X148668509Y-98711904D02*
X148620890Y-98759523D01*
X148620890Y-98759523D02*
X148573271Y-98854761D01*
X148573271Y-98854761D02*
X148573271Y-99045237D01*
X148573271Y-99045237D02*
X148620890Y-99140475D01*
X148620890Y-99140475D02*
X148668509Y-99188094D01*
X148668509Y-99188094D02*
X148763747Y-99235713D01*
X130185714Y-95324795D02*
X129919047Y-94943842D01*
X129728571Y-95324795D02*
X129728571Y-94524795D01*
X129728571Y-94524795D02*
X130033333Y-94524795D01*
X130033333Y-94524795D02*
X130109523Y-94562890D01*
X130109523Y-94562890D02*
X130147618Y-94600985D01*
X130147618Y-94600985D02*
X130185714Y-94677176D01*
X130185714Y-94677176D02*
X130185714Y-94791461D01*
X130185714Y-94791461D02*
X130147618Y-94867652D01*
X130147618Y-94867652D02*
X130109523Y-94905747D01*
X130109523Y-94905747D02*
X130033333Y-94943842D01*
X130033333Y-94943842D02*
X129728571Y-94943842D01*
X130871428Y-94791461D02*
X130871428Y-95324795D01*
X130680952Y-94486700D02*
X130490475Y-95058128D01*
X130490475Y-95058128D02*
X130985714Y-95058128D01*
X131252380Y-94600985D02*
X131290476Y-94562890D01*
X131290476Y-94562890D02*
X131366666Y-94524795D01*
X131366666Y-94524795D02*
X131557142Y-94524795D01*
X131557142Y-94524795D02*
X131633333Y-94562890D01*
X131633333Y-94562890D02*
X131671428Y-94600985D01*
X131671428Y-94600985D02*
X131709523Y-94677176D01*
X131709523Y-94677176D02*
X131709523Y-94753366D01*
X131709523Y-94753366D02*
X131671428Y-94867652D01*
X131671428Y-94867652D02*
X131214285Y-95324795D01*
X131214285Y-95324795D02*
X131709523Y-95324795D01*
X130354819Y-80583333D02*
X131069104Y-80583333D01*
X131069104Y-80583333D02*
X131211961Y-80630952D01*
X131211961Y-80630952D02*
X131307200Y-80726190D01*
X131307200Y-80726190D02*
X131354819Y-80869047D01*
X131354819Y-80869047D02*
X131354819Y-80964285D01*
X130783390Y-79964285D02*
X130735771Y-80059523D01*
X130735771Y-80059523D02*
X130688152Y-80107142D01*
X130688152Y-80107142D02*
X130592914Y-80154761D01*
X130592914Y-80154761D02*
X130545295Y-80154761D01*
X130545295Y-80154761D02*
X130450057Y-80107142D01*
X130450057Y-80107142D02*
X130402438Y-80059523D01*
X130402438Y-80059523D02*
X130354819Y-79964285D01*
X130354819Y-79964285D02*
X130354819Y-79773809D01*
X130354819Y-79773809D02*
X130402438Y-79678571D01*
X130402438Y-79678571D02*
X130450057Y-79630952D01*
X130450057Y-79630952D02*
X130545295Y-79583333D01*
X130545295Y-79583333D02*
X130592914Y-79583333D01*
X130592914Y-79583333D02*
X130688152Y-79630952D01*
X130688152Y-79630952D02*
X130735771Y-79678571D01*
X130735771Y-79678571D02*
X130783390Y-79773809D01*
X130783390Y-79773809D02*
X130783390Y-79964285D01*
X130783390Y-79964285D02*
X130831009Y-80059523D01*
X130831009Y-80059523D02*
X130878628Y-80107142D01*
X130878628Y-80107142D02*
X130973866Y-80154761D01*
X130973866Y-80154761D02*
X131164342Y-80154761D01*
X131164342Y-80154761D02*
X131259580Y-80107142D01*
X131259580Y-80107142D02*
X131307200Y-80059523D01*
X131307200Y-80059523D02*
X131354819Y-79964285D01*
X131354819Y-79964285D02*
X131354819Y-79773809D01*
X131354819Y-79773809D02*
X131307200Y-79678571D01*
X131307200Y-79678571D02*
X131259580Y-79630952D01*
X131259580Y-79630952D02*
X131164342Y-79583333D01*
X131164342Y-79583333D02*
X130973866Y-79583333D01*
X130973866Y-79583333D02*
X130878628Y-79630952D01*
X130878628Y-79630952D02*
X130831009Y-79678571D01*
X130831009Y-79678571D02*
X130783390Y-79773809D01*
X132685714Y-69936104D02*
X132647618Y-69974200D01*
X132647618Y-69974200D02*
X132533333Y-70012295D01*
X132533333Y-70012295D02*
X132457142Y-70012295D01*
X132457142Y-70012295D02*
X132342856Y-69974200D01*
X132342856Y-69974200D02*
X132266666Y-69898009D01*
X132266666Y-69898009D02*
X132228571Y-69821819D01*
X132228571Y-69821819D02*
X132190475Y-69669438D01*
X132190475Y-69669438D02*
X132190475Y-69555152D01*
X132190475Y-69555152D02*
X132228571Y-69402771D01*
X132228571Y-69402771D02*
X132266666Y-69326580D01*
X132266666Y-69326580D02*
X132342856Y-69250390D01*
X132342856Y-69250390D02*
X132457142Y-69212295D01*
X132457142Y-69212295D02*
X132533333Y-69212295D01*
X132533333Y-69212295D02*
X132647618Y-69250390D01*
X132647618Y-69250390D02*
X132685714Y-69288485D01*
X132952380Y-69212295D02*
X133447618Y-69212295D01*
X133447618Y-69212295D02*
X133180952Y-69517057D01*
X133180952Y-69517057D02*
X133295237Y-69517057D01*
X133295237Y-69517057D02*
X133371428Y-69555152D01*
X133371428Y-69555152D02*
X133409523Y-69593247D01*
X133409523Y-69593247D02*
X133447618Y-69669438D01*
X133447618Y-69669438D02*
X133447618Y-69859914D01*
X133447618Y-69859914D02*
X133409523Y-69936104D01*
X133409523Y-69936104D02*
X133371428Y-69974200D01*
X133371428Y-69974200D02*
X133295237Y-70012295D01*
X133295237Y-70012295D02*
X133066666Y-70012295D01*
X133066666Y-70012295D02*
X132990475Y-69974200D01*
X132990475Y-69974200D02*
X132952380Y-69936104D01*
X133828571Y-70012295D02*
X133980952Y-70012295D01*
X133980952Y-70012295D02*
X134057142Y-69974200D01*
X134057142Y-69974200D02*
X134095238Y-69936104D01*
X134095238Y-69936104D02*
X134171428Y-69821819D01*
X134171428Y-69821819D02*
X134209523Y-69669438D01*
X134209523Y-69669438D02*
X134209523Y-69364676D01*
X134209523Y-69364676D02*
X134171428Y-69288485D01*
X134171428Y-69288485D02*
X134133333Y-69250390D01*
X134133333Y-69250390D02*
X134057142Y-69212295D01*
X134057142Y-69212295D02*
X133904761Y-69212295D01*
X133904761Y-69212295D02*
X133828571Y-69250390D01*
X133828571Y-69250390D02*
X133790476Y-69288485D01*
X133790476Y-69288485D02*
X133752380Y-69364676D01*
X133752380Y-69364676D02*
X133752380Y-69555152D01*
X133752380Y-69555152D02*
X133790476Y-69631342D01*
X133790476Y-69631342D02*
X133828571Y-69669438D01*
X133828571Y-69669438D02*
X133904761Y-69707533D01*
X133904761Y-69707533D02*
X134057142Y-69707533D01*
X134057142Y-69707533D02*
X134133333Y-69669438D01*
X134133333Y-69669438D02*
X134171428Y-69631342D01*
X134171428Y-69631342D02*
X134209523Y-69555152D01*
D15*
X142415476Y-121339895D02*
X142415476Y-120539895D01*
X142415476Y-120539895D02*
X142682142Y-121111323D01*
X142682142Y-121111323D02*
X142948809Y-120539895D01*
X142948809Y-120539895D02*
X142948809Y-121339895D01*
X143482143Y-120539895D02*
X143634524Y-120539895D01*
X143634524Y-120539895D02*
X143710714Y-120577990D01*
X143710714Y-120577990D02*
X143786905Y-120654180D01*
X143786905Y-120654180D02*
X143825000Y-120806561D01*
X143825000Y-120806561D02*
X143825000Y-121073228D01*
X143825000Y-121073228D02*
X143786905Y-121225609D01*
X143786905Y-121225609D02*
X143710714Y-121301800D01*
X143710714Y-121301800D02*
X143634524Y-121339895D01*
X143634524Y-121339895D02*
X143482143Y-121339895D01*
X143482143Y-121339895D02*
X143405952Y-121301800D01*
X143405952Y-121301800D02*
X143329762Y-121225609D01*
X143329762Y-121225609D02*
X143291666Y-121073228D01*
X143291666Y-121073228D02*
X143291666Y-120806561D01*
X143291666Y-120806561D02*
X143329762Y-120654180D01*
X143329762Y-120654180D02*
X143405952Y-120577990D01*
X143405952Y-120577990D02*
X143482143Y-120539895D01*
X144053571Y-120539895D02*
X144320238Y-121339895D01*
X144320238Y-121339895D02*
X144586904Y-120539895D01*
X145272618Y-121339895D02*
X144815475Y-121339895D01*
X145044047Y-121339895D02*
X145044047Y-120539895D01*
X145044047Y-120539895D02*
X144967856Y-120654180D01*
X144967856Y-120654180D02*
X144891666Y-120730371D01*
X144891666Y-120730371D02*
X144815475Y-120768466D01*
D13*
X174759524Y-93662295D02*
X174759524Y-92862295D01*
X174759524Y-92862295D02*
X174950000Y-92862295D01*
X174950000Y-92862295D02*
X175064286Y-92900390D01*
X175064286Y-92900390D02*
X175140476Y-92976580D01*
X175140476Y-92976580D02*
X175178571Y-93052771D01*
X175178571Y-93052771D02*
X175216667Y-93205152D01*
X175216667Y-93205152D02*
X175216667Y-93319438D01*
X175216667Y-93319438D02*
X175178571Y-93471819D01*
X175178571Y-93471819D02*
X175140476Y-93548009D01*
X175140476Y-93548009D02*
X175064286Y-93624200D01*
X175064286Y-93624200D02*
X174950000Y-93662295D01*
X174950000Y-93662295D02*
X174759524Y-93662295D01*
X175978571Y-93662295D02*
X175521428Y-93662295D01*
X175750000Y-93662295D02*
X175750000Y-92862295D01*
X175750000Y-92862295D02*
X175673809Y-92976580D01*
X175673809Y-92976580D02*
X175597619Y-93052771D01*
X175597619Y-93052771D02*
X175521428Y-93090866D01*
X141364761Y-65312295D02*
X140983809Y-65312295D01*
X140983809Y-65312295D02*
X140983809Y-64512295D01*
X141631428Y-64893247D02*
X141898094Y-64893247D01*
X142012380Y-65312295D02*
X141631428Y-65312295D01*
X141631428Y-65312295D02*
X141631428Y-64512295D01*
X141631428Y-64512295D02*
X142012380Y-64512295D01*
X142355238Y-65312295D02*
X142355238Y-64512295D01*
X142355238Y-64512295D02*
X142545714Y-64512295D01*
X142545714Y-64512295D02*
X142660000Y-64550390D01*
X142660000Y-64550390D02*
X142736190Y-64626580D01*
X142736190Y-64626580D02*
X142774285Y-64702771D01*
X142774285Y-64702771D02*
X142812381Y-64855152D01*
X142812381Y-64855152D02*
X142812381Y-64969438D01*
X142812381Y-64969438D02*
X142774285Y-65121819D01*
X142774285Y-65121819D02*
X142736190Y-65198009D01*
X142736190Y-65198009D02*
X142660000Y-65274200D01*
X142660000Y-65274200D02*
X142545714Y-65312295D01*
X142545714Y-65312295D02*
X142355238Y-65312295D01*
X143574285Y-65312295D02*
X143117142Y-65312295D01*
X143345714Y-65312295D02*
X143345714Y-64512295D01*
X143345714Y-64512295D02*
X143269523Y-64626580D01*
X143269523Y-64626580D02*
X143193333Y-64702771D01*
X143193333Y-64702771D02*
X143117142Y-64740866D01*
X140688095Y-137354819D02*
X141259523Y-137354819D01*
X140973809Y-138354819D02*
X140973809Y-137354819D01*
X142116666Y-138354819D02*
X141545238Y-138354819D01*
X141830952Y-138354819D02*
X141830952Y-137354819D01*
X141830952Y-137354819D02*
X141735714Y-137497676D01*
X141735714Y-137497676D02*
X141640476Y-137592914D01*
X141640476Y-137592914D02*
X141545238Y-137640533D01*
X174988095Y-137654819D02*
X175559523Y-137654819D01*
X175273809Y-138654819D02*
X175273809Y-137654819D01*
X175797619Y-137654819D02*
X176416666Y-137654819D01*
X176416666Y-137654819D02*
X176083333Y-138035771D01*
X176083333Y-138035771D02*
X176226190Y-138035771D01*
X176226190Y-138035771D02*
X176321428Y-138083390D01*
X176321428Y-138083390D02*
X176369047Y-138131009D01*
X176369047Y-138131009D02*
X176416666Y-138226247D01*
X176416666Y-138226247D02*
X176416666Y-138464342D01*
X176416666Y-138464342D02*
X176369047Y-138559580D01*
X176369047Y-138559580D02*
X176321428Y-138607200D01*
X176321428Y-138607200D02*
X176226190Y-138654819D01*
X176226190Y-138654819D02*
X175940476Y-138654819D01*
X175940476Y-138654819D02*
X175845238Y-138607200D01*
X175845238Y-138607200D02*
X175797619Y-138559580D01*
X158841667Y-105137295D02*
X158575000Y-104756342D01*
X158384524Y-105137295D02*
X158384524Y-104337295D01*
X158384524Y-104337295D02*
X158689286Y-104337295D01*
X158689286Y-104337295D02*
X158765476Y-104375390D01*
X158765476Y-104375390D02*
X158803571Y-104413485D01*
X158803571Y-104413485D02*
X158841667Y-104489676D01*
X158841667Y-104489676D02*
X158841667Y-104603961D01*
X158841667Y-104603961D02*
X158803571Y-104680152D01*
X158803571Y-104680152D02*
X158765476Y-104718247D01*
X158765476Y-104718247D02*
X158689286Y-104756342D01*
X158689286Y-104756342D02*
X158384524Y-104756342D01*
X159108333Y-104337295D02*
X159603571Y-104337295D01*
X159603571Y-104337295D02*
X159336905Y-104642057D01*
X159336905Y-104642057D02*
X159451190Y-104642057D01*
X159451190Y-104642057D02*
X159527381Y-104680152D01*
X159527381Y-104680152D02*
X159565476Y-104718247D01*
X159565476Y-104718247D02*
X159603571Y-104794438D01*
X159603571Y-104794438D02*
X159603571Y-104984914D01*
X159603571Y-104984914D02*
X159565476Y-105061104D01*
X159565476Y-105061104D02*
X159527381Y-105099200D01*
X159527381Y-105099200D02*
X159451190Y-105137295D01*
X159451190Y-105137295D02*
X159222619Y-105137295D01*
X159222619Y-105137295D02*
X159146428Y-105099200D01*
X159146428Y-105099200D02*
X159108333Y-105061104D01*
X160460714Y-108562295D02*
X160194047Y-108181342D01*
X160003571Y-108562295D02*
X160003571Y-107762295D01*
X160003571Y-107762295D02*
X160308333Y-107762295D01*
X160308333Y-107762295D02*
X160384523Y-107800390D01*
X160384523Y-107800390D02*
X160422618Y-107838485D01*
X160422618Y-107838485D02*
X160460714Y-107914676D01*
X160460714Y-107914676D02*
X160460714Y-108028961D01*
X160460714Y-108028961D02*
X160422618Y-108105152D01*
X160422618Y-108105152D02*
X160384523Y-108143247D01*
X160384523Y-108143247D02*
X160308333Y-108181342D01*
X160308333Y-108181342D02*
X160003571Y-108181342D01*
X160765475Y-107838485D02*
X160803571Y-107800390D01*
X160803571Y-107800390D02*
X160879761Y-107762295D01*
X160879761Y-107762295D02*
X161070237Y-107762295D01*
X161070237Y-107762295D02*
X161146428Y-107800390D01*
X161146428Y-107800390D02*
X161184523Y-107838485D01*
X161184523Y-107838485D02*
X161222618Y-107914676D01*
X161222618Y-107914676D02*
X161222618Y-107990866D01*
X161222618Y-107990866D02*
X161184523Y-108105152D01*
X161184523Y-108105152D02*
X160727380Y-108562295D01*
X160727380Y-108562295D02*
X161222618Y-108562295D01*
X161679761Y-108105152D02*
X161603571Y-108067057D01*
X161603571Y-108067057D02*
X161565476Y-108028961D01*
X161565476Y-108028961D02*
X161527380Y-107952771D01*
X161527380Y-107952771D02*
X161527380Y-107914676D01*
X161527380Y-107914676D02*
X161565476Y-107838485D01*
X161565476Y-107838485D02*
X161603571Y-107800390D01*
X161603571Y-107800390D02*
X161679761Y-107762295D01*
X161679761Y-107762295D02*
X161832142Y-107762295D01*
X161832142Y-107762295D02*
X161908333Y-107800390D01*
X161908333Y-107800390D02*
X161946428Y-107838485D01*
X161946428Y-107838485D02*
X161984523Y-107914676D01*
X161984523Y-107914676D02*
X161984523Y-107952771D01*
X161984523Y-107952771D02*
X161946428Y-108028961D01*
X161946428Y-108028961D02*
X161908333Y-108067057D01*
X161908333Y-108067057D02*
X161832142Y-108105152D01*
X161832142Y-108105152D02*
X161679761Y-108105152D01*
X161679761Y-108105152D02*
X161603571Y-108143247D01*
X161603571Y-108143247D02*
X161565476Y-108181342D01*
X161565476Y-108181342D02*
X161527380Y-108257533D01*
X161527380Y-108257533D02*
X161527380Y-108409914D01*
X161527380Y-108409914D02*
X161565476Y-108486104D01*
X161565476Y-108486104D02*
X161603571Y-108524200D01*
X161603571Y-108524200D02*
X161679761Y-108562295D01*
X161679761Y-108562295D02*
X161832142Y-108562295D01*
X161832142Y-108562295D02*
X161908333Y-108524200D01*
X161908333Y-108524200D02*
X161946428Y-108486104D01*
X161946428Y-108486104D02*
X161984523Y-108409914D01*
X161984523Y-108409914D02*
X161984523Y-108257533D01*
X161984523Y-108257533D02*
X161946428Y-108181342D01*
X161946428Y-108181342D02*
X161908333Y-108143247D01*
X161908333Y-108143247D02*
X161832142Y-108105152D01*
X182077142Y-136209580D02*
X182029523Y-136257200D01*
X182029523Y-136257200D02*
X181886666Y-136304819D01*
X181886666Y-136304819D02*
X181791428Y-136304819D01*
X181791428Y-136304819D02*
X181648571Y-136257200D01*
X181648571Y-136257200D02*
X181553333Y-136161961D01*
X181553333Y-136161961D02*
X181505714Y-136066723D01*
X181505714Y-136066723D02*
X181458095Y-135876247D01*
X181458095Y-135876247D02*
X181458095Y-135733390D01*
X181458095Y-135733390D02*
X181505714Y-135542914D01*
X181505714Y-135542914D02*
X181553333Y-135447676D01*
X181553333Y-135447676D02*
X181648571Y-135352438D01*
X181648571Y-135352438D02*
X181791428Y-135304819D01*
X181791428Y-135304819D02*
X181886666Y-135304819D01*
X181886666Y-135304819D02*
X182029523Y-135352438D01*
X182029523Y-135352438D02*
X182077142Y-135400057D01*
X183029523Y-136304819D02*
X182458095Y-136304819D01*
X182743809Y-136304819D02*
X182743809Y-135304819D01*
X182743809Y-135304819D02*
X182648571Y-135447676D01*
X182648571Y-135447676D02*
X182553333Y-135542914D01*
X182553333Y-135542914D02*
X182458095Y-135590533D01*
X183410476Y-135400057D02*
X183458095Y-135352438D01*
X183458095Y-135352438D02*
X183553333Y-135304819D01*
X183553333Y-135304819D02*
X183791428Y-135304819D01*
X183791428Y-135304819D02*
X183886666Y-135352438D01*
X183886666Y-135352438D02*
X183934285Y-135400057D01*
X183934285Y-135400057D02*
X183981904Y-135495295D01*
X183981904Y-135495295D02*
X183981904Y-135590533D01*
X183981904Y-135590533D02*
X183934285Y-135733390D01*
X183934285Y-135733390D02*
X183362857Y-136304819D01*
X183362857Y-136304819D02*
X183981904Y-136304819D01*
X138715476Y-78662295D02*
X139172619Y-78662295D01*
X138944047Y-79462295D02*
X138944047Y-78662295D01*
X139439286Y-79462295D02*
X139439286Y-78662295D01*
X139439286Y-78662295D02*
X139744048Y-78662295D01*
X139744048Y-78662295D02*
X139820238Y-78700390D01*
X139820238Y-78700390D02*
X139858333Y-78738485D01*
X139858333Y-78738485D02*
X139896429Y-78814676D01*
X139896429Y-78814676D02*
X139896429Y-78928961D01*
X139896429Y-78928961D02*
X139858333Y-79005152D01*
X139858333Y-79005152D02*
X139820238Y-79043247D01*
X139820238Y-79043247D02*
X139744048Y-79081342D01*
X139744048Y-79081342D02*
X139439286Y-79081342D01*
X140658333Y-79462295D02*
X140201190Y-79462295D01*
X140429762Y-79462295D02*
X140429762Y-78662295D01*
X140429762Y-78662295D02*
X140353571Y-78776580D01*
X140353571Y-78776580D02*
X140277381Y-78852771D01*
X140277381Y-78852771D02*
X140201190Y-78890866D01*
X131565475Y-68224200D02*
X131679761Y-68262295D01*
X131679761Y-68262295D02*
X131870237Y-68262295D01*
X131870237Y-68262295D02*
X131946428Y-68224200D01*
X131946428Y-68224200D02*
X131984523Y-68186104D01*
X131984523Y-68186104D02*
X132022618Y-68109914D01*
X132022618Y-68109914D02*
X132022618Y-68033723D01*
X132022618Y-68033723D02*
X131984523Y-67957533D01*
X131984523Y-67957533D02*
X131946428Y-67919438D01*
X131946428Y-67919438D02*
X131870237Y-67881342D01*
X131870237Y-67881342D02*
X131717856Y-67843247D01*
X131717856Y-67843247D02*
X131641666Y-67805152D01*
X131641666Y-67805152D02*
X131603571Y-67767057D01*
X131603571Y-67767057D02*
X131565475Y-67690866D01*
X131565475Y-67690866D02*
X131565475Y-67614676D01*
X131565475Y-67614676D02*
X131603571Y-67538485D01*
X131603571Y-67538485D02*
X131641666Y-67500390D01*
X131641666Y-67500390D02*
X131717856Y-67462295D01*
X131717856Y-67462295D02*
X131908333Y-67462295D01*
X131908333Y-67462295D02*
X132022618Y-67500390D01*
X132327380Y-67538485D02*
X132365476Y-67500390D01*
X132365476Y-67500390D02*
X132441666Y-67462295D01*
X132441666Y-67462295D02*
X132632142Y-67462295D01*
X132632142Y-67462295D02*
X132708333Y-67500390D01*
X132708333Y-67500390D02*
X132746428Y-67538485D01*
X132746428Y-67538485D02*
X132784523Y-67614676D01*
X132784523Y-67614676D02*
X132784523Y-67690866D01*
X132784523Y-67690866D02*
X132746428Y-67805152D01*
X132746428Y-67805152D02*
X132289285Y-68262295D01*
X132289285Y-68262295D02*
X132784523Y-68262295D01*
X183433333Y-119334580D02*
X183385714Y-119382200D01*
X183385714Y-119382200D02*
X183242857Y-119429819D01*
X183242857Y-119429819D02*
X183147619Y-119429819D01*
X183147619Y-119429819D02*
X183004762Y-119382200D01*
X183004762Y-119382200D02*
X182909524Y-119286961D01*
X182909524Y-119286961D02*
X182861905Y-119191723D01*
X182861905Y-119191723D02*
X182814286Y-119001247D01*
X182814286Y-119001247D02*
X182814286Y-118858390D01*
X182814286Y-118858390D02*
X182861905Y-118667914D01*
X182861905Y-118667914D02*
X182909524Y-118572676D01*
X182909524Y-118572676D02*
X183004762Y-118477438D01*
X183004762Y-118477438D02*
X183147619Y-118429819D01*
X183147619Y-118429819D02*
X183242857Y-118429819D01*
X183242857Y-118429819D02*
X183385714Y-118477438D01*
X183385714Y-118477438D02*
X183433333Y-118525057D01*
X183766667Y-118429819D02*
X184433333Y-118429819D01*
X184433333Y-118429819D02*
X184004762Y-119429819D01*
D12*
X144304761Y-135752219D02*
X143828571Y-135752219D01*
X143828571Y-135752219D02*
X143828571Y-134752219D01*
X144971428Y-135228409D02*
X144638095Y-135228409D01*
X144638095Y-135752219D02*
X144638095Y-134752219D01*
X144638095Y-134752219D02*
X145114285Y-134752219D01*
X146019047Y-135752219D02*
X145447619Y-135752219D01*
X145733333Y-135752219D02*
X145733333Y-134752219D01*
X145733333Y-134752219D02*
X145638095Y-134895076D01*
X145638095Y-134895076D02*
X145542857Y-134990314D01*
X145542857Y-134990314D02*
X145447619Y-135037933D01*
D13*
X146691667Y-92612295D02*
X146425000Y-92231342D01*
X146234524Y-92612295D02*
X146234524Y-91812295D01*
X146234524Y-91812295D02*
X146539286Y-91812295D01*
X146539286Y-91812295D02*
X146615476Y-91850390D01*
X146615476Y-91850390D02*
X146653571Y-91888485D01*
X146653571Y-91888485D02*
X146691667Y-91964676D01*
X146691667Y-91964676D02*
X146691667Y-92078961D01*
X146691667Y-92078961D02*
X146653571Y-92155152D01*
X146653571Y-92155152D02*
X146615476Y-92193247D01*
X146615476Y-92193247D02*
X146539286Y-92231342D01*
X146539286Y-92231342D02*
X146234524Y-92231342D01*
X147072619Y-92612295D02*
X147225000Y-92612295D01*
X147225000Y-92612295D02*
X147301190Y-92574200D01*
X147301190Y-92574200D02*
X147339286Y-92536104D01*
X147339286Y-92536104D02*
X147415476Y-92421819D01*
X147415476Y-92421819D02*
X147453571Y-92269438D01*
X147453571Y-92269438D02*
X147453571Y-91964676D01*
X147453571Y-91964676D02*
X147415476Y-91888485D01*
X147415476Y-91888485D02*
X147377381Y-91850390D01*
X147377381Y-91850390D02*
X147301190Y-91812295D01*
X147301190Y-91812295D02*
X147148809Y-91812295D01*
X147148809Y-91812295D02*
X147072619Y-91850390D01*
X147072619Y-91850390D02*
X147034524Y-91888485D01*
X147034524Y-91888485D02*
X146996428Y-91964676D01*
X146996428Y-91964676D02*
X146996428Y-92155152D01*
X146996428Y-92155152D02*
X147034524Y-92231342D01*
X147034524Y-92231342D02*
X147072619Y-92269438D01*
X147072619Y-92269438D02*
X147148809Y-92307533D01*
X147148809Y-92307533D02*
X147301190Y-92307533D01*
X147301190Y-92307533D02*
X147377381Y-92269438D01*
X147377381Y-92269438D02*
X147415476Y-92231342D01*
X147415476Y-92231342D02*
X147453571Y-92155152D01*
X139385714Y-85086104D02*
X139347618Y-85124200D01*
X139347618Y-85124200D02*
X139233333Y-85162295D01*
X139233333Y-85162295D02*
X139157142Y-85162295D01*
X139157142Y-85162295D02*
X139042856Y-85124200D01*
X139042856Y-85124200D02*
X138966666Y-85048009D01*
X138966666Y-85048009D02*
X138928571Y-84971819D01*
X138928571Y-84971819D02*
X138890475Y-84819438D01*
X138890475Y-84819438D02*
X138890475Y-84705152D01*
X138890475Y-84705152D02*
X138928571Y-84552771D01*
X138928571Y-84552771D02*
X138966666Y-84476580D01*
X138966666Y-84476580D02*
X139042856Y-84400390D01*
X139042856Y-84400390D02*
X139157142Y-84362295D01*
X139157142Y-84362295D02*
X139233333Y-84362295D01*
X139233333Y-84362295D02*
X139347618Y-84400390D01*
X139347618Y-84400390D02*
X139385714Y-84438485D01*
X140071428Y-84628961D02*
X140071428Y-85162295D01*
X139880952Y-84324200D02*
X139690475Y-84895628D01*
X139690475Y-84895628D02*
X140185714Y-84895628D01*
X140452380Y-84438485D02*
X140490476Y-84400390D01*
X140490476Y-84400390D02*
X140566666Y-84362295D01*
X140566666Y-84362295D02*
X140757142Y-84362295D01*
X140757142Y-84362295D02*
X140833333Y-84400390D01*
X140833333Y-84400390D02*
X140871428Y-84438485D01*
X140871428Y-84438485D02*
X140909523Y-84514676D01*
X140909523Y-84514676D02*
X140909523Y-84590866D01*
X140909523Y-84590866D02*
X140871428Y-84705152D01*
X140871428Y-84705152D02*
X140414285Y-85162295D01*
X140414285Y-85162295D02*
X140909523Y-85162295D01*
D12*
X164119047Y-144178409D02*
X163785714Y-144178409D01*
X163785714Y-144702219D02*
X163785714Y-143702219D01*
X163785714Y-143702219D02*
X164261904Y-143702219D01*
X164595238Y-144416504D02*
X165071428Y-144416504D01*
X164500000Y-144702219D02*
X164833333Y-143702219D01*
X164833333Y-143702219D02*
X165166666Y-144702219D01*
X165500000Y-144702219D02*
X165500000Y-143702219D01*
X165500000Y-143702219D02*
X166071428Y-144702219D01*
X166071428Y-144702219D02*
X166071428Y-143702219D01*
X166833333Y-145083171D02*
X166785714Y-145035552D01*
X166785714Y-145035552D02*
X166690476Y-144892695D01*
X166690476Y-144892695D02*
X166642857Y-144797457D01*
X166642857Y-144797457D02*
X166595238Y-144654600D01*
X166595238Y-144654600D02*
X166547619Y-144416504D01*
X166547619Y-144416504D02*
X166547619Y-144226028D01*
X166547619Y-144226028D02*
X166595238Y-143987933D01*
X166595238Y-143987933D02*
X166642857Y-143845076D01*
X166642857Y-143845076D02*
X166690476Y-143749838D01*
X166690476Y-143749838D02*
X166785714Y-143606980D01*
X166785714Y-143606980D02*
X166833333Y-143559361D01*
X167690476Y-144702219D02*
X167214286Y-144702219D01*
X167214286Y-144702219D02*
X167214286Y-143702219D01*
X167928572Y-145083171D02*
X167976191Y-145035552D01*
X167976191Y-145035552D02*
X168071429Y-144892695D01*
X168071429Y-144892695D02*
X168119048Y-144797457D01*
X168119048Y-144797457D02*
X168166667Y-144654600D01*
X168166667Y-144654600D02*
X168214286Y-144416504D01*
X168214286Y-144416504D02*
X168214286Y-144226028D01*
X168214286Y-144226028D02*
X168166667Y-143987933D01*
X168166667Y-143987933D02*
X168119048Y-143845076D01*
X168119048Y-143845076D02*
X168071429Y-143749838D01*
X168071429Y-143749838D02*
X167976191Y-143606980D01*
X167976191Y-143606980D02*
X167928572Y-143559361D01*
D13*
X180928571Y-49881009D02*
X180595238Y-49881009D01*
X180595238Y-50404819D02*
X180595238Y-49404819D01*
X180595238Y-49404819D02*
X181071428Y-49404819D01*
X181452381Y-50404819D02*
X181452381Y-49404819D01*
X181928571Y-50404819D02*
X181928571Y-49404819D01*
X181928571Y-49404819D02*
X182166666Y-49404819D01*
X182166666Y-49404819D02*
X182309523Y-49452438D01*
X182309523Y-49452438D02*
X182404761Y-49547676D01*
X182404761Y-49547676D02*
X182452380Y-49642914D01*
X182452380Y-49642914D02*
X182499999Y-49833390D01*
X182499999Y-49833390D02*
X182499999Y-49976247D01*
X182499999Y-49976247D02*
X182452380Y-50166723D01*
X182452380Y-50166723D02*
X182404761Y-50261961D01*
X182404761Y-50261961D02*
X182309523Y-50357200D01*
X182309523Y-50357200D02*
X182166666Y-50404819D01*
X182166666Y-50404819D02*
X181928571Y-50404819D01*
X182833333Y-49404819D02*
X183452380Y-49404819D01*
X183452380Y-49404819D02*
X183119047Y-49785771D01*
X183119047Y-49785771D02*
X183261904Y-49785771D01*
X183261904Y-49785771D02*
X183357142Y-49833390D01*
X183357142Y-49833390D02*
X183404761Y-49881009D01*
X183404761Y-49881009D02*
X183452380Y-49976247D01*
X183452380Y-49976247D02*
X183452380Y-50214342D01*
X183452380Y-50214342D02*
X183404761Y-50309580D01*
X183404761Y-50309580D02*
X183357142Y-50357200D01*
X183357142Y-50357200D02*
X183261904Y-50404819D01*
X183261904Y-50404819D02*
X182976190Y-50404819D01*
X182976190Y-50404819D02*
X182880952Y-50357200D01*
X182880952Y-50357200D02*
X182833333Y-50309580D01*
X142491667Y-92612295D02*
X142225000Y-92231342D01*
X142034524Y-92612295D02*
X142034524Y-91812295D01*
X142034524Y-91812295D02*
X142339286Y-91812295D01*
X142339286Y-91812295D02*
X142415476Y-91850390D01*
X142415476Y-91850390D02*
X142453571Y-91888485D01*
X142453571Y-91888485D02*
X142491667Y-91964676D01*
X142491667Y-91964676D02*
X142491667Y-92078961D01*
X142491667Y-92078961D02*
X142453571Y-92155152D01*
X142453571Y-92155152D02*
X142415476Y-92193247D01*
X142415476Y-92193247D02*
X142339286Y-92231342D01*
X142339286Y-92231342D02*
X142034524Y-92231342D01*
X142758333Y-91812295D02*
X143291667Y-91812295D01*
X143291667Y-91812295D02*
X142948809Y-92612295D01*
%TO.C,L1*%
D16*
X176400000Y-95680000D02*
X179400000Y-95680000D01*
X179400000Y-99020000D02*
X176400000Y-99020000D01*
%TO.C,C47*%
D17*
X182464999Y-65761252D02*
X182464999Y-64338748D01*
X184284999Y-65761252D02*
X184284999Y-64338748D01*
%TO.C,ESP1*%
X141535000Y-67460000D02*
X159935000Y-67460000D01*
X141535000Y-86060000D02*
X141535000Y-87060000D01*
X141535000Y-87060000D02*
X143035000Y-87060000D01*
X159935000Y-67460000D02*
X159935000Y-68160000D01*
X159935000Y-87060000D02*
X158435000Y-87060000D01*
X159935000Y-87060000D02*
X159935000Y-86060000D01*
X141535000Y-68210000D02*
X141035000Y-68210000D01*
X141535000Y-67710000D01*
X141535000Y-68210000D01*
G36*
X141535000Y-68210000D02*
G01*
X141035000Y-68210000D01*
X141535000Y-67710000D01*
X141535000Y-68210000D01*
G37*
%TO.C,R33*%
X139853641Y-74670000D02*
X139546359Y-74670000D01*
X139853641Y-75430000D02*
X139546359Y-75430000D01*
%TO.C,R2*%
X146639564Y-102490000D02*
X142285436Y-102490000D01*
X146639564Y-105910000D02*
X142285436Y-105910000D01*
%TO.C,C13*%
X177985000Y-105755000D02*
X174308000Y-105755000D01*
X177985000Y-105795000D02*
X174318000Y-105795000D01*
X177985000Y-105835000D02*
X174329000Y-105835000D01*
X177985000Y-105875000D02*
X174340000Y-105875000D01*
X177985000Y-105915000D02*
X174352000Y-105915000D01*
X177985000Y-105955000D02*
X174364000Y-105955000D01*
X177985000Y-105995000D02*
X174376000Y-105995000D01*
X177985000Y-106035000D02*
X174388000Y-106035000D01*
X177985000Y-106075000D02*
X174401000Y-106075000D01*
X177985000Y-106115000D02*
X174415000Y-106115000D01*
X177985000Y-106155000D02*
X174428000Y-106155000D01*
X177985000Y-106195000D02*
X174443000Y-106195000D01*
X177985000Y-106235000D02*
X174457000Y-106235000D01*
X177985000Y-106275000D02*
X174472000Y-106275000D01*
X177985000Y-106315000D02*
X174487000Y-106315000D01*
X177985000Y-106355000D02*
X174503000Y-106355000D01*
X177985000Y-106395000D02*
X174519000Y-106395000D01*
X177985000Y-106435000D02*
X174535000Y-106435000D01*
X177985000Y-106475000D02*
X174552000Y-106475000D01*
X177985000Y-106515000D02*
X174569000Y-106515000D01*
X177985000Y-106555000D02*
X174587000Y-106555000D01*
X177985000Y-106595000D02*
X174605000Y-106595000D01*
X177985000Y-106635000D02*
X174623000Y-106635000D01*
X177985000Y-106675000D02*
X174642000Y-106675000D01*
X177985000Y-106715000D02*
X174661000Y-106715000D01*
X177985000Y-106755000D02*
X174681000Y-106755000D01*
X177985000Y-106795000D02*
X174701000Y-106795000D01*
X177985000Y-106835000D02*
X174721000Y-106835000D01*
X177985000Y-106875000D02*
X174742000Y-106875000D01*
X177985000Y-106915000D02*
X174764000Y-106915000D01*
X177985000Y-106955000D02*
X174786000Y-106955000D01*
X177985000Y-106995000D02*
X174808000Y-106995000D01*
X177985000Y-107035000D02*
X174831000Y-107035000D01*
X177985000Y-107075000D02*
X174854000Y-107075000D01*
X177985000Y-107115000D02*
X174878000Y-107115000D01*
X177985000Y-107155000D02*
X174902000Y-107155000D01*
X177985000Y-107195000D02*
X174927000Y-107195000D01*
X177985000Y-107235000D02*
X174953000Y-107235000D01*
X177985000Y-107275000D02*
X174978000Y-107275000D01*
X177985000Y-107315000D02*
X175005000Y-107315000D01*
X177985000Y-107355000D02*
X175032000Y-107355000D01*
X177985000Y-107395000D02*
X175059000Y-107395000D01*
X177985000Y-107435000D02*
X175087000Y-107435000D01*
X177985000Y-107475000D02*
X175116000Y-107475000D01*
X177985000Y-107515000D02*
X175145000Y-107515000D01*
X177985000Y-107555000D02*
X175175000Y-107555000D01*
X177985000Y-107595000D02*
X175205000Y-107595000D01*
X177985000Y-107635000D02*
X175237000Y-107635000D01*
X177985000Y-107675000D02*
X175268000Y-107675000D01*
X177985000Y-107715000D02*
X175301000Y-107715000D01*
X177985000Y-107755000D02*
X175334000Y-107755000D01*
X177985000Y-107795000D02*
X175367000Y-107795000D01*
X177985000Y-107835000D02*
X175402000Y-107835000D01*
X177985000Y-107875000D02*
X175437000Y-107875000D01*
X177985000Y-107915000D02*
X175473000Y-107915000D01*
X177985000Y-107955000D02*
X175509000Y-107955000D01*
X177985000Y-107995000D02*
X175547000Y-107995000D01*
X177985000Y-108035000D02*
X175585000Y-108035000D01*
X177985000Y-108075000D02*
X175624000Y-108075000D01*
X177985000Y-108115000D02*
X175664000Y-108115000D01*
X177985000Y-108155000D02*
X175705000Y-108155000D01*
X177985000Y-108195000D02*
X175747000Y-108195000D01*
X179824000Y-109555000D02*
X178626000Y-109555000D01*
X180087000Y-109515000D02*
X178363000Y-109515000D01*
X180287000Y-109475000D02*
X178163000Y-109475000D01*
X180455000Y-109435000D02*
X177995000Y-109435000D01*
X180602000Y-109395000D02*
X177848000Y-109395000D01*
X180734000Y-109355000D02*
X177716000Y-109355000D01*
X180855000Y-109315000D02*
X177595000Y-109315000D01*
X180967000Y-109275000D02*
X177483000Y-109275000D01*
X181071000Y-109235000D02*
X177379000Y-109235000D01*
X181169000Y-109195000D02*
X177281000Y-109195000D01*
X181262000Y-109155000D02*
X177188000Y-109155000D01*
X181349000Y-109115000D02*
X177101000Y-109115000D01*
X181433000Y-109075000D02*
X177017000Y-109075000D01*
X181513000Y-109035000D02*
X176937000Y-109035000D01*
X181590000Y-108995000D02*
X176860000Y-108995000D01*
X181664000Y-108955000D02*
X176786000Y-108955000D01*
X181735000Y-108915000D02*
X176715000Y-108915000D01*
X181803000Y-108875000D02*
X176647000Y-108875000D01*
X181869000Y-108835000D02*
X176581000Y-108835000D01*
X181933000Y-108795000D02*
X176517000Y-108795000D01*
X181995000Y-108755000D02*
X176455000Y-108755000D01*
X182055000Y-108715000D02*
X176395000Y-108715000D01*
X182100000Y-98995354D02*
X182100000Y-99995354D01*
X182113000Y-108675000D02*
X176337000Y-108675000D01*
X182170000Y-108635000D02*
X176280000Y-108635000D01*
X182225000Y-108595000D02*
X176225000Y-108595000D01*
X182278000Y-108555000D02*
X176172000Y-108555000D01*
X182330000Y-108515000D02*
X176120000Y-108515000D01*
X182381000Y-108475000D02*
X176069000Y-108475000D01*
X182430000Y-108435000D02*
X176020000Y-108435000D01*
X182479000Y-108395000D02*
X175971000Y-108395000D01*
X182526000Y-108355000D02*
X175924000Y-108355000D01*
X182572000Y-108315000D02*
X175878000Y-108315000D01*
X182600000Y-99495354D02*
X181600000Y-99495354D01*
X182616000Y-108275000D02*
X175834000Y-108275000D01*
X182660000Y-108235000D02*
X175790000Y-108235000D01*
X182703000Y-108195000D02*
X180465000Y-108195000D01*
X182745000Y-108155000D02*
X180465000Y-108155000D01*
X182786000Y-108115000D02*
X180465000Y-108115000D01*
X182826000Y-108075000D02*
X180465000Y-108075000D01*
X182865000Y-108035000D02*
X180465000Y-108035000D01*
X182903000Y-107995000D02*
X180465000Y-107995000D01*
X182941000Y-107955000D02*
X180465000Y-107955000D01*
X182977000Y-107915000D02*
X180465000Y-107915000D01*
X183013000Y-107875000D02*
X180465000Y-107875000D01*
X183048000Y-107835000D02*
X180465000Y-107835000D01*
X183083000Y-107795000D02*
X180465000Y-107795000D01*
X183116000Y-107755000D02*
X180465000Y-107755000D01*
X183149000Y-107715000D02*
X180465000Y-107715000D01*
X183182000Y-107675000D02*
X180465000Y-107675000D01*
X183213000Y-107635000D02*
X180465000Y-107635000D01*
X183245000Y-107595000D02*
X180465000Y-107595000D01*
X183275000Y-107555000D02*
X180465000Y-107555000D01*
X183305000Y-107515000D02*
X180465000Y-107515000D01*
X183334000Y-107475000D02*
X180465000Y-107475000D01*
X183363000Y-107435000D02*
X180465000Y-107435000D01*
X183391000Y-107395000D02*
X180465000Y-107395000D01*
X183418000Y-107355000D02*
X180465000Y-107355000D01*
X183445000Y-107315000D02*
X180465000Y-107315000D01*
X183472000Y-107275000D02*
X180465000Y-107275000D01*
X183497000Y-107235000D02*
X180465000Y-107235000D01*
X183523000Y-107195000D02*
X180465000Y-107195000D01*
X183548000Y-107155000D02*
X180465000Y-107155000D01*
X183572000Y-107115000D02*
X180465000Y-107115000D01*
X183596000Y-107075000D02*
X180465000Y-107075000D01*
X183619000Y-107035000D02*
X180465000Y-107035000D01*
X183642000Y-106995000D02*
X180465000Y-106995000D01*
X183664000Y-106955000D02*
X180465000Y-106955000D01*
X183686000Y-106915000D02*
X180465000Y-106915000D01*
X183708000Y-106875000D02*
X180465000Y-106875000D01*
X183729000Y-106835000D02*
X180465000Y-106835000D01*
X183749000Y-106795000D02*
X180465000Y-106795000D01*
X183769000Y-106755000D02*
X180465000Y-106755000D01*
X183789000Y-106715000D02*
X180465000Y-106715000D01*
X183808000Y-106675000D02*
X180465000Y-106675000D01*
X183827000Y-106635000D02*
X180465000Y-106635000D01*
X183845000Y-106595000D02*
X180465000Y-106595000D01*
X183863000Y-106555000D02*
X180465000Y-106555000D01*
X183881000Y-106515000D02*
X180465000Y-106515000D01*
X183898000Y-106475000D02*
X180465000Y-106475000D01*
X183915000Y-106435000D02*
X180465000Y-106435000D01*
X183931000Y-106395000D02*
X180465000Y-106395000D01*
X183947000Y-106355000D02*
X180465000Y-106355000D01*
X183963000Y-106315000D02*
X180465000Y-106315000D01*
X183978000Y-106275000D02*
X180465000Y-106275000D01*
X183993000Y-106235000D02*
X180465000Y-106235000D01*
X184007000Y-106195000D02*
X180465000Y-106195000D01*
X184022000Y-106155000D02*
X180465000Y-106155000D01*
X184035000Y-106115000D02*
X180465000Y-106115000D01*
X184049000Y-106075000D02*
X180465000Y-106075000D01*
X184062000Y-106035000D02*
X180465000Y-106035000D01*
X184074000Y-105995000D02*
X180465000Y-105995000D01*
X184086000Y-105955000D02*
X180465000Y-105955000D01*
X184098000Y-105915000D02*
X180465000Y-105915000D01*
X184110000Y-105875000D02*
X180465000Y-105875000D01*
X184121000Y-105835000D02*
X180465000Y-105835000D01*
X184132000Y-105795000D02*
X180465000Y-105795000D01*
X184142000Y-105755000D02*
X180465000Y-105755000D01*
X184153000Y-105715000D02*
X174297000Y-105715000D01*
X184162000Y-105675000D02*
X174288000Y-105675000D01*
X184172000Y-105635000D02*
X174278000Y-105635000D01*
X184181000Y-105595000D02*
X174269000Y-105595000D01*
X184190000Y-105555000D02*
X174260000Y-105555000D01*
X184198000Y-105515000D02*
X174252000Y-105515000D01*
X184206000Y-105475000D02*
X174244000Y-105475000D01*
X184214000Y-105435000D02*
X174236000Y-105435000D01*
X184222000Y-105395000D02*
X174228000Y-105395000D01*
X184229000Y-105355000D02*
X174221000Y-105355000D01*
X184236000Y-105315000D02*
X174214000Y-105315000D01*
X184242000Y-105275000D02*
X174208000Y-105275000D01*
X184248000Y-105235000D02*
X174202000Y-105235000D01*
X184254000Y-105195000D02*
X174196000Y-105195000D01*
X184260000Y-105155000D02*
X174190000Y-105155000D01*
X184265000Y-105115000D02*
X174185000Y-105115000D01*
X184270000Y-105075000D02*
X174180000Y-105075000D01*
X184274000Y-105035000D02*
X174176000Y-105035000D01*
X184279000Y-104995000D02*
X174171000Y-104995000D01*
X184282000Y-104955000D02*
X174168000Y-104955000D01*
X184286000Y-104915000D02*
X174164000Y-104915000D01*
X184289000Y-104875000D02*
X174161000Y-104875000D01*
X184292000Y-104835000D02*
X174158000Y-104835000D01*
X184295000Y-104795000D02*
X174155000Y-104795000D01*
X184297000Y-104755000D02*
X174153000Y-104755000D01*
X184299000Y-104715000D02*
X174151000Y-104715000D01*
X184301000Y-104675000D02*
X174149000Y-104675000D01*
X184302000Y-104635000D02*
X174148000Y-104635000D01*
X184304000Y-104555000D02*
X174146000Y-104555000D01*
X184304000Y-104595000D02*
X174146000Y-104595000D01*
X184305000Y-104475000D02*
X174145000Y-104475000D01*
X184305000Y-104515000D02*
X174145000Y-104515000D01*
X184345000Y-104475000D02*
G75*
G02*
X174105000Y-104475000I-5120000J0D01*
G01*
X174105000Y-104475000D02*
G75*
G02*
X184345000Y-104475000I5120000J0D01*
G01*
%TO.C,J9*%
D16*
X123450000Y-65575000D02*
X131050000Y-65575000D01*
X123450000Y-75575000D02*
X123450000Y-65575000D01*
X131050000Y-65575000D02*
X131050000Y-75575000D01*
X131050000Y-75575000D02*
X123450000Y-75575000D01*
D12*
X122550000Y-68075000D02*
G75*
G02*
X122350000Y-68075000I-100000J0D01*
G01*
X122350000Y-68075000D02*
G75*
G02*
X122550000Y-68075000I100000J0D01*
G01*
%TO.C,C48*%
D17*
X153545000Y-92960000D02*
X161705000Y-92960000D01*
X153545000Y-93000000D02*
X161705000Y-93000000D01*
X153546000Y-92920000D02*
X161704000Y-92920000D01*
X153547000Y-92880000D02*
X161703000Y-92880000D01*
X153548000Y-92840000D02*
X161702000Y-92840000D01*
X153550000Y-92800000D02*
X161700000Y-92800000D01*
X153552000Y-92760000D02*
X161698000Y-92760000D01*
X153555000Y-92720000D02*
X161695000Y-92720000D01*
X153557000Y-92680000D02*
X161693000Y-92680000D01*
X153561000Y-92640000D02*
X161689000Y-92640000D01*
X153564000Y-92600000D02*
X161686000Y-92600000D01*
X153569000Y-92560000D02*
X161681000Y-92560000D01*
X153573000Y-92520000D02*
X161677000Y-92520000D01*
X153578000Y-92480000D02*
X161672000Y-92480000D01*
X153583000Y-92440000D02*
X161667000Y-92440000D01*
X153589000Y-92400000D02*
X161661000Y-92400000D01*
X153595000Y-92360000D02*
X161655000Y-92360000D01*
X153602000Y-92320000D02*
X161648000Y-92320000D01*
X153608000Y-92280000D02*
X156585000Y-92280000D01*
X153616000Y-92240000D02*
X156585000Y-92240000D01*
X153623000Y-92200000D02*
X156585000Y-92200000D01*
X153632000Y-92160000D02*
X156585000Y-92160000D01*
X153640000Y-92120000D02*
X156585000Y-92120000D01*
X153649000Y-92080000D02*
X156585000Y-92080000D01*
X153658000Y-92040000D02*
X156585000Y-92040000D01*
X153668000Y-92000000D02*
X156585000Y-92000000D01*
X153678000Y-91960000D02*
X156585000Y-91960000D01*
X153689000Y-91920000D02*
X156585000Y-91920000D01*
X153700000Y-91880000D02*
X156585000Y-91880000D01*
X153712000Y-91840000D02*
X156585000Y-91840000D01*
X153724000Y-91800000D02*
X156585000Y-91800000D01*
X153736000Y-91760000D02*
X156585000Y-91760000D01*
X153749000Y-91720000D02*
X156585000Y-91720000D01*
X153762000Y-91680000D02*
X156585000Y-91680000D01*
X153776000Y-91640000D02*
X156585000Y-91640000D01*
X153790000Y-91600000D02*
X156585000Y-91600000D01*
X153805000Y-91560000D02*
X156585000Y-91560000D01*
X153820000Y-91520000D02*
X156585000Y-91520000D01*
X153836000Y-91480000D02*
X156585000Y-91480000D01*
X153852000Y-91440000D02*
X156585000Y-91440000D01*
X153868000Y-91400000D02*
X156585000Y-91400000D01*
X153885000Y-91360000D02*
X156585000Y-91360000D01*
X153903000Y-91320000D02*
X156585000Y-91320000D01*
X153921000Y-91280000D02*
X156585000Y-91280000D01*
X153940000Y-91240000D02*
X156585000Y-91240000D01*
X153959000Y-91200000D02*
X156585000Y-91200000D01*
X153979000Y-91160000D02*
X156585000Y-91160000D01*
X153999000Y-91120000D02*
X156585000Y-91120000D01*
X154020000Y-91080000D02*
X156585000Y-91080000D01*
X154041000Y-91040000D02*
X156585000Y-91040000D01*
X154063000Y-91000000D02*
X156585000Y-91000000D01*
X154086000Y-90960000D02*
X156585000Y-90960000D01*
X154109000Y-90920000D02*
X156585000Y-90920000D01*
X154132000Y-90880000D02*
X156585000Y-90880000D01*
X154157000Y-90840000D02*
X156585000Y-90840000D01*
X154182000Y-90800000D02*
X156585000Y-90800000D01*
X154207000Y-90760000D02*
X156585000Y-90760000D01*
X154233000Y-90720000D02*
X156585000Y-90720000D01*
X154260000Y-90680000D02*
X156585000Y-90680000D01*
X154288000Y-90640000D02*
X156585000Y-90640000D01*
X154316000Y-90600000D02*
X156585000Y-90600000D01*
X154345000Y-90560000D02*
X156585000Y-90560000D01*
X154375000Y-90520000D02*
X156585000Y-90520000D01*
X154406000Y-90480000D02*
X156585000Y-90480000D01*
X154437000Y-90440000D02*
X156585000Y-90440000D01*
X154469000Y-90400000D02*
X156585000Y-90400000D01*
X154502000Y-90360000D02*
X156585000Y-90360000D01*
X154536000Y-90320000D02*
X156585000Y-90320000D01*
X154570000Y-90280000D02*
X156585000Y-90280000D01*
X154606000Y-90240000D02*
X156585000Y-90240000D01*
X154643000Y-90200000D02*
X160607000Y-90200000D01*
X154680000Y-90160000D02*
X160570000Y-90160000D01*
X154719000Y-90120000D02*
X160531000Y-90120000D01*
X154758000Y-90080000D02*
X160492000Y-90080000D01*
X154799000Y-90040000D02*
X160451000Y-90040000D01*
X154841000Y-90000000D02*
X160409000Y-90000000D01*
X154884000Y-89960000D02*
X160366000Y-89960000D01*
X154910000Y-97009698D02*
X155710000Y-97009698D01*
X154929000Y-89920000D02*
X160321000Y-89920000D01*
X154974000Y-89880000D02*
X160276000Y-89880000D01*
X155021000Y-89840000D02*
X160229000Y-89840000D01*
X155070000Y-89800000D02*
X160180000Y-89800000D01*
X155120000Y-89760000D02*
X160130000Y-89760000D01*
X155172000Y-89720000D02*
X160078000Y-89720000D01*
X155225000Y-89680000D02*
X160025000Y-89680000D01*
X155281000Y-89640000D02*
X159969000Y-89640000D01*
X155310000Y-97409698D02*
X155310000Y-96609698D01*
X155338000Y-89600000D02*
X159912000Y-89600000D01*
X155398000Y-89560000D02*
X159852000Y-89560000D01*
X155460000Y-89520000D02*
X159790000Y-89520000D01*
X155524000Y-89480000D02*
X159726000Y-89480000D01*
X155591000Y-89440000D02*
X159659000Y-89440000D01*
X155661000Y-89400000D02*
X159589000Y-89400000D01*
X155735000Y-89360000D02*
X159515000Y-89360000D01*
X155812000Y-89320000D02*
X159438000Y-89320000D01*
X155894000Y-89280000D02*
X159356000Y-89280000D01*
X155981000Y-89240000D02*
X159269000Y-89240000D01*
X156073000Y-89200000D02*
X159177000Y-89200000D01*
X156172000Y-89160000D02*
X159078000Y-89160000D01*
X156279000Y-89120000D02*
X158971000Y-89120000D01*
X156397000Y-89080000D02*
X158853000Y-89080000D01*
X156528000Y-89040000D02*
X158722000Y-89040000D01*
X156678000Y-89000000D02*
X158572000Y-89000000D01*
X156857000Y-88960000D02*
X158393000Y-88960000D01*
X157092000Y-88920000D02*
X158158000Y-88920000D01*
X158665000Y-90240000D02*
X160644000Y-90240000D01*
X158665000Y-90280000D02*
X160680000Y-90280000D01*
X158665000Y-90320000D02*
X160714000Y-90320000D01*
X158665000Y-90360000D02*
X160748000Y-90360000D01*
X158665000Y-90400000D02*
X160781000Y-90400000D01*
X158665000Y-90440000D02*
X160813000Y-90440000D01*
X158665000Y-90480000D02*
X160844000Y-90480000D01*
X158665000Y-90520000D02*
X160875000Y-90520000D01*
X158665000Y-90560000D02*
X160905000Y-90560000D01*
X158665000Y-90600000D02*
X160934000Y-90600000D01*
X158665000Y-90640000D02*
X160962000Y-90640000D01*
X158665000Y-90680000D02*
X160990000Y-90680000D01*
X158665000Y-90720000D02*
X161017000Y-90720000D01*
X158665000Y-90760000D02*
X161043000Y-90760000D01*
X158665000Y-90800000D02*
X161068000Y-90800000D01*
X158665000Y-90840000D02*
X161093000Y-90840000D01*
X158665000Y-90880000D02*
X161118000Y-90880000D01*
X158665000Y-90920000D02*
X161141000Y-90920000D01*
X158665000Y-90960000D02*
X161164000Y-90960000D01*
X158665000Y-91000000D02*
X161187000Y-91000000D01*
X158665000Y-91040000D02*
X161209000Y-91040000D01*
X158665000Y-91080000D02*
X161230000Y-91080000D01*
X158665000Y-91120000D02*
X161251000Y-91120000D01*
X158665000Y-91160000D02*
X161271000Y-91160000D01*
X158665000Y-91200000D02*
X161291000Y-91200000D01*
X158665000Y-91240000D02*
X161310000Y-91240000D01*
X158665000Y-91280000D02*
X161329000Y-91280000D01*
X158665000Y-91320000D02*
X161347000Y-91320000D01*
X158665000Y-91360000D02*
X161365000Y-91360000D01*
X158665000Y-91400000D02*
X161382000Y-91400000D01*
X158665000Y-91440000D02*
X161398000Y-91440000D01*
X158665000Y-91480000D02*
X161414000Y-91480000D01*
X158665000Y-91520000D02*
X161430000Y-91520000D01*
X158665000Y-91560000D02*
X161445000Y-91560000D01*
X158665000Y-91600000D02*
X161460000Y-91600000D01*
X158665000Y-91640000D02*
X161474000Y-91640000D01*
X158665000Y-91680000D02*
X161488000Y-91680000D01*
X158665000Y-91720000D02*
X161501000Y-91720000D01*
X158665000Y-91760000D02*
X161514000Y-91760000D01*
X158665000Y-91800000D02*
X161526000Y-91800000D01*
X158665000Y-91840000D02*
X161538000Y-91840000D01*
X158665000Y-91880000D02*
X161550000Y-91880000D01*
X158665000Y-91920000D02*
X161561000Y-91920000D01*
X158665000Y-91960000D02*
X161572000Y-91960000D01*
X158665000Y-92000000D02*
X161582000Y-92000000D01*
X158665000Y-92040000D02*
X161592000Y-92040000D01*
X158665000Y-92080000D02*
X161601000Y-92080000D01*
X158665000Y-92120000D02*
X161610000Y-92120000D01*
X158665000Y-92160000D02*
X161618000Y-92160000D01*
X158665000Y-92200000D02*
X161627000Y-92200000D01*
X158665000Y-92240000D02*
X161634000Y-92240000D01*
X158665000Y-92280000D02*
X161642000Y-92280000D01*
X161745000Y-93000000D02*
G75*
G02*
X153505000Y-93000000I-4120000J0D01*
G01*
X153505000Y-93000000D02*
G75*
G02*
X161745000Y-93000000I4120000J0D01*
G01*
%TO.C,R26*%
X137390000Y-105535436D02*
X137390000Y-106989564D01*
X139210000Y-105535436D02*
X139210000Y-106989564D01*
%TO.C,TP2*%
X128900000Y-86225000D02*
G75*
G02*
X127000000Y-86225000I-950000J0D01*
G01*
X127000000Y-86225000D02*
G75*
G02*
X128900000Y-86225000I950000J0D01*
G01*
%TO.C,C4*%
X130780000Y-113280000D02*
X144020000Y-113280000D01*
X130780000Y-119520000D02*
X130780000Y-113280000D01*
X144020000Y-113280000D02*
X144020000Y-119520000D01*
X144020000Y-119520000D02*
X130780000Y-119520000D01*
%TO.C,C46*%
X183022247Y-61790000D02*
X182806575Y-61790000D01*
X183022247Y-62510000D02*
X182806575Y-62510000D01*
%TO.C,R5*%
X149940000Y-103410436D02*
X149940000Y-104864564D01*
X151760000Y-103410436D02*
X151760000Y-104864564D01*
%TO.C,C40*%
X160715000Y-84352836D02*
X160715000Y-84137164D01*
X161435000Y-84352836D02*
X161435000Y-84137164D01*
%TO.C,R36*%
X156878641Y-87720000D02*
X156571359Y-87720000D01*
X156878641Y-88480000D02*
X156571359Y-88480000D01*
%TO.C,C41*%
X152325000Y-88747836D02*
X152325000Y-88532164D01*
X153045000Y-88747836D02*
X153045000Y-88532164D01*
%TO.C,R38*%
X136627500Y-74262258D02*
X136627500Y-73787742D01*
X137672500Y-74262258D02*
X137672500Y-73787742D01*
%TO.C,R32*%
X139853641Y-72670000D02*
X139546359Y-72670000D01*
X139853641Y-73430000D02*
X139546359Y-73430000D01*
%TO.C,R40*%
X152213641Y-89770000D02*
X151906359Y-89770000D01*
X152213641Y-90530000D02*
X151906359Y-90530000D01*
%TO.C,R47*%
X151205000Y-88823641D02*
X151205000Y-88516359D01*
X151965000Y-88823641D02*
X151965000Y-88516359D01*
%TO.C,C5*%
X162480000Y-127180000D02*
X163866000Y-127180000D01*
X162480000Y-134920000D02*
X162480000Y-127180000D01*
X163866000Y-134920000D02*
X162480000Y-134920000D01*
X166334000Y-127180000D02*
X167720000Y-127180000D01*
X167720000Y-127180000D02*
X167720000Y-134920000D01*
X167720000Y-134920000D02*
X166334000Y-134920000D01*
%TO.C,C6*%
X168280000Y-127180000D02*
X169666000Y-127180000D01*
X168280000Y-134920000D02*
X168280000Y-127180000D01*
X169666000Y-134920000D02*
X168280000Y-134920000D01*
X172134000Y-127180000D02*
X173520000Y-127180000D01*
X173520000Y-127180000D02*
X173520000Y-134920000D01*
X173520000Y-134920000D02*
X172134000Y-134920000D01*
%TO.C,L5*%
D16*
X181065000Y-88725000D02*
X180385000Y-88725000D01*
X181065000Y-90525000D02*
X180385000Y-90525000D01*
%TO.C,C43*%
D17*
X136225000Y-84362164D02*
X136225000Y-84577836D01*
X136945000Y-84362164D02*
X136945000Y-84577836D01*
%TO.C,R8*%
X144040000Y-94927064D02*
X144040000Y-94472936D01*
X145510000Y-94927064D02*
X145510000Y-94472936D01*
%TO.C,R48*%
X161371359Y-78645000D02*
X161678641Y-78645000D01*
X161371359Y-79405000D02*
X161678641Y-79405000D01*
%TO.C,R43*%
X140143641Y-82270000D02*
X139836359Y-82270000D01*
X140143641Y-83030000D02*
X139836359Y-83030000D01*
%TO.C,R35*%
X144655000Y-88456359D02*
X144655000Y-88763641D01*
X145415000Y-88456359D02*
X145415000Y-88763641D01*
%TO.C,R45*%
X160705000Y-86066359D02*
X160705000Y-86373641D01*
X161465000Y-86066359D02*
X161465000Y-86373641D01*
%TO.C,F1*%
D16*
X120500000Y-110275000D02*
X124100000Y-110275000D01*
X120500000Y-132775000D02*
X120500000Y-110275000D01*
X124100000Y-132775000D02*
X120500000Y-132775000D01*
X126500000Y-110275000D02*
X130100000Y-110275000D01*
X130100000Y-110275000D02*
X130100000Y-132775000D01*
X130100000Y-132775000D02*
X126500000Y-132775000D01*
%TO.C,R49*%
D17*
X161356359Y-77345000D02*
X161663641Y-77345000D01*
X161356359Y-78105000D02*
X161663641Y-78105000D01*
%TO.C,PS1*%
D16*
X162600000Y-98200000D02*
X162600000Y-124600000D01*
X162600000Y-98200000D02*
X163400000Y-98200000D01*
X162600000Y-124600000D02*
X163400000Y-124600000D01*
X167450000Y-98200000D02*
X173600000Y-98200000D01*
X167450000Y-124600000D02*
X173600000Y-124600000D01*
X173600000Y-124600000D02*
X173600000Y-98200000D01*
D12*
X167350000Y-125550000D02*
G75*
G02*
X167150000Y-125550000I-100000J0D01*
G01*
X167150000Y-125550000D02*
G75*
G02*
X167350000Y-125550000I100000J0D01*
G01*
%TO.C,R4*%
D17*
X137390000Y-102364564D02*
X137390000Y-100910436D01*
X139210000Y-102364564D02*
X139210000Y-100910436D01*
%TO.C,R39*%
X145722258Y-65677500D02*
X145247742Y-65677500D01*
X145722258Y-66722500D02*
X145247742Y-66722500D01*
%TO.C,C15*%
X174147651Y-114608000D02*
X174147651Y-113542000D01*
X174187651Y-114843000D02*
X174187651Y-113307000D01*
X174227651Y-115022000D02*
X174227651Y-113128000D01*
X174267651Y-115172000D02*
X174267651Y-112978000D01*
X174307651Y-115303000D02*
X174307651Y-112847000D01*
X174347651Y-115421000D02*
X174347651Y-112729000D01*
X174387651Y-115528000D02*
X174387651Y-112622000D01*
X174427651Y-115627000D02*
X174427651Y-112523000D01*
X174467651Y-115719000D02*
X174467651Y-112431000D01*
X174507651Y-115806000D02*
X174507651Y-112344000D01*
X174547651Y-115888000D02*
X174547651Y-112262000D01*
X174587651Y-115965000D02*
X174587651Y-112185000D01*
X174627651Y-116039000D02*
X174627651Y-112111000D01*
X174667651Y-116109000D02*
X174667651Y-112041000D01*
X174707651Y-116176000D02*
X174707651Y-111974000D01*
X174747651Y-116240000D02*
X174747651Y-111910000D01*
X174787651Y-116302000D02*
X174787651Y-111848000D01*
X174827651Y-116362000D02*
X174827651Y-111788000D01*
X174867651Y-116419000D02*
X174867651Y-111731000D01*
X174907651Y-116475000D02*
X174907651Y-111675000D01*
X174947651Y-116528000D02*
X174947651Y-111622000D01*
X174987651Y-116580000D02*
X174987651Y-111570000D01*
X175027651Y-116630000D02*
X175027651Y-111520000D01*
X175067651Y-116679000D02*
X175067651Y-111471000D01*
X175107651Y-116726000D02*
X175107651Y-111424000D01*
X175147651Y-116771000D02*
X175147651Y-111379000D01*
X175187651Y-116816000D02*
X175187651Y-111334000D01*
X175227651Y-116859000D02*
X175227651Y-111291000D01*
X175267651Y-116901000D02*
X175267651Y-111249000D01*
X175307651Y-116942000D02*
X175307651Y-111208000D01*
X175347651Y-116981000D02*
X175347651Y-111169000D01*
X175387651Y-117020000D02*
X175387651Y-111130000D01*
X175427651Y-117057000D02*
X175427651Y-111093000D01*
X175467651Y-113035000D02*
X175467651Y-111056000D01*
X175467651Y-117094000D02*
X175467651Y-115115000D01*
X175507651Y-113035000D02*
X175507651Y-111020000D01*
X175507651Y-117130000D02*
X175507651Y-115115000D01*
X175547651Y-113035000D02*
X175547651Y-110986000D01*
X175547651Y-117164000D02*
X175547651Y-115115000D01*
X175587651Y-113035000D02*
X175587651Y-110952000D01*
X175587651Y-117198000D02*
X175587651Y-115115000D01*
X175627651Y-113035000D02*
X175627651Y-110919000D01*
X175627651Y-117231000D02*
X175627651Y-115115000D01*
X175667651Y-113035000D02*
X175667651Y-110887000D01*
X175667651Y-117263000D02*
X175667651Y-115115000D01*
X175707651Y-113035000D02*
X175707651Y-110856000D01*
X175707651Y-117294000D02*
X175707651Y-115115000D01*
X175747651Y-113035000D02*
X175747651Y-110825000D01*
X175747651Y-117325000D02*
X175747651Y-115115000D01*
X175787651Y-113035000D02*
X175787651Y-110795000D01*
X175787651Y-117355000D02*
X175787651Y-115115000D01*
X175827651Y-113035000D02*
X175827651Y-110766000D01*
X175827651Y-117384000D02*
X175827651Y-115115000D01*
X175867651Y-113035000D02*
X175867651Y-110738000D01*
X175867651Y-117412000D02*
X175867651Y-115115000D01*
X175907651Y-113035000D02*
X175907651Y-110710000D01*
X175907651Y-117440000D02*
X175907651Y-115115000D01*
X175947651Y-113035000D02*
X175947651Y-110683000D01*
X175947651Y-117467000D02*
X175947651Y-115115000D01*
X175987651Y-113035000D02*
X175987651Y-110657000D01*
X175987651Y-117493000D02*
X175987651Y-115115000D01*
X176027651Y-113035000D02*
X176027651Y-110632000D01*
X176027651Y-117518000D02*
X176027651Y-115115000D01*
X176067651Y-113035000D02*
X176067651Y-110607000D01*
X176067651Y-117543000D02*
X176067651Y-115115000D01*
X176107651Y-113035000D02*
X176107651Y-110582000D01*
X176107651Y-117568000D02*
X176107651Y-115115000D01*
X176147651Y-113035000D02*
X176147651Y-110559000D01*
X176147651Y-117591000D02*
X176147651Y-115115000D01*
X176187651Y-113035000D02*
X176187651Y-110536000D01*
X176187651Y-117614000D02*
X176187651Y-115115000D01*
X176227651Y-113035000D02*
X176227651Y-110513000D01*
X176227651Y-117637000D02*
X176227651Y-115115000D01*
X176267651Y-113035000D02*
X176267651Y-110491000D01*
X176267651Y-117659000D02*
X176267651Y-115115000D01*
X176307651Y-113035000D02*
X176307651Y-110470000D01*
X176307651Y-117680000D02*
X176307651Y-115115000D01*
X176347651Y-113035000D02*
X176347651Y-110449000D01*
X176347651Y-117701000D02*
X176347651Y-115115000D01*
X176387651Y-113035000D02*
X176387651Y-110429000D01*
X176387651Y-117721000D02*
X176387651Y-115115000D01*
X176427651Y-113035000D02*
X176427651Y-110409000D01*
X176427651Y-117741000D02*
X176427651Y-115115000D01*
X176467651Y-113035000D02*
X176467651Y-110390000D01*
X176467651Y-117760000D02*
X176467651Y-115115000D01*
X176507651Y-113035000D02*
X176507651Y-110371000D01*
X176507651Y-117779000D02*
X176507651Y-115115000D01*
X176547651Y-113035000D02*
X176547651Y-110353000D01*
X176547651Y-117797000D02*
X176547651Y-115115000D01*
X176587651Y-113035000D02*
X176587651Y-110335000D01*
X176587651Y-117815000D02*
X176587651Y-115115000D01*
X176627651Y-113035000D02*
X176627651Y-110318000D01*
X176627651Y-117832000D02*
X176627651Y-115115000D01*
X176667651Y-113035000D02*
X176667651Y-110302000D01*
X176667651Y-117848000D02*
X176667651Y-115115000D01*
X176707651Y-113035000D02*
X176707651Y-110286000D01*
X176707651Y-117864000D02*
X176707651Y-115115000D01*
X176747651Y-113035000D02*
X176747651Y-110270000D01*
X176747651Y-117880000D02*
X176747651Y-115115000D01*
X176787651Y-113035000D02*
X176787651Y-110255000D01*
X176787651Y-117895000D02*
X176787651Y-115115000D01*
X176827651Y-113035000D02*
X176827651Y-110240000D01*
X176827651Y-117910000D02*
X176827651Y-115115000D01*
X176867651Y-113035000D02*
X176867651Y-110226000D01*
X176867651Y-117924000D02*
X176867651Y-115115000D01*
X176907651Y-113035000D02*
X176907651Y-110212000D01*
X176907651Y-117938000D02*
X176907651Y-115115000D01*
X176947651Y-113035000D02*
X176947651Y-110199000D01*
X176947651Y-117951000D02*
X176947651Y-115115000D01*
X176987651Y-113035000D02*
X176987651Y-110186000D01*
X176987651Y-117964000D02*
X176987651Y-115115000D01*
X177027651Y-113035000D02*
X177027651Y-110174000D01*
X177027651Y-117976000D02*
X177027651Y-115115000D01*
X177067651Y-113035000D02*
X177067651Y-110162000D01*
X177067651Y-117988000D02*
X177067651Y-115115000D01*
X177107651Y-113035000D02*
X177107651Y-110150000D01*
X177107651Y-118000000D02*
X177107651Y-115115000D01*
X177147651Y-113035000D02*
X177147651Y-110139000D01*
X177147651Y-118011000D02*
X177147651Y-115115000D01*
X177187651Y-113035000D02*
X177187651Y-110128000D01*
X177187651Y-118022000D02*
X177187651Y-115115000D01*
X177227651Y-113035000D02*
X177227651Y-110118000D01*
X177227651Y-118032000D02*
X177227651Y-115115000D01*
X177267651Y-113035000D02*
X177267651Y-110108000D01*
X177267651Y-118042000D02*
X177267651Y-115115000D01*
X177307651Y-113035000D02*
X177307651Y-110099000D01*
X177307651Y-118051000D02*
X177307651Y-115115000D01*
X177347651Y-113035000D02*
X177347651Y-110090000D01*
X177347651Y-118060000D02*
X177347651Y-115115000D01*
X177387651Y-113035000D02*
X177387651Y-110082000D01*
X177387651Y-118068000D02*
X177387651Y-115115000D01*
X177427651Y-113035000D02*
X177427651Y-110073000D01*
X177427651Y-118077000D02*
X177427651Y-115115000D01*
X177467651Y-113035000D02*
X177467651Y-110066000D01*
X177467651Y-118084000D02*
X177467651Y-115115000D01*
X177507651Y-113035000D02*
X177507651Y-110058000D01*
X177507651Y-118092000D02*
X177507651Y-115115000D01*
X177547651Y-118098000D02*
X177547651Y-110052000D01*
X177587651Y-118105000D02*
X177587651Y-110045000D01*
X177627651Y-118111000D02*
X177627651Y-110039000D01*
X177667651Y-118117000D02*
X177667651Y-110033000D01*
X177707651Y-118122000D02*
X177707651Y-110028000D01*
X177747651Y-118127000D02*
X177747651Y-110023000D01*
X177787651Y-118131000D02*
X177787651Y-110019000D01*
X177827651Y-118136000D02*
X177827651Y-110014000D01*
X177867651Y-118139000D02*
X177867651Y-110011000D01*
X177907651Y-118143000D02*
X177907651Y-110007000D01*
X177947651Y-118145000D02*
X177947651Y-110005000D01*
X177987651Y-118148000D02*
X177987651Y-110002000D01*
X178027651Y-118150000D02*
X178027651Y-110000000D01*
X178067651Y-118152000D02*
X178067651Y-109998000D01*
X178107651Y-118153000D02*
X178107651Y-109997000D01*
X178147651Y-118154000D02*
X178147651Y-109996000D01*
X178187651Y-118155000D02*
X178187651Y-109995000D01*
X178227651Y-118155000D02*
X178227651Y-109995000D01*
X182237349Y-116790000D02*
X182237349Y-115990000D01*
X182637349Y-116390000D02*
X181837349Y-116390000D01*
X182347651Y-114075000D02*
G75*
G02*
X174107651Y-114075000I-4120000J0D01*
G01*
X174107651Y-114075000D02*
G75*
G02*
X182347651Y-114075000I4120000J0D01*
G01*
%TO.C,U1*%
D16*
X134742500Y-81585000D02*
X133117500Y-81585000D01*
X134742500Y-84715000D02*
X133117500Y-84715000D01*
D12*
X131475000Y-82205000D02*
G75*
G02*
X131275000Y-82205000I-100000J0D01*
G01*
X131275000Y-82205000D02*
G75*
G02*
X131475000Y-82205000I100000J0D01*
G01*
%TO.C,S1*%
X140250000Y-67050000D02*
X140250000Y-64650000D01*
%TO.C,R1*%
D17*
X134314564Y-101390000D02*
X129960436Y-101390000D01*
X134314564Y-104810000D02*
X129960436Y-104810000D01*
%TO.C,R37*%
X129447500Y-77637742D02*
X129447500Y-78112258D01*
X130492500Y-77637742D02*
X130492500Y-78112258D01*
%TO.C,J7*%
X163310000Y-94020000D02*
X163310000Y-96680000D01*
X170990000Y-94020000D02*
X163310000Y-94020000D01*
X170990000Y-94020000D02*
X170990000Y-96680000D01*
X170990000Y-96680000D02*
X163310000Y-96680000D01*
X173590000Y-95350000D02*
X173590000Y-96680000D01*
X173590000Y-96680000D02*
X172260000Y-96680000D01*
%TO.C,U3*%
X121640000Y-90260000D02*
X121640000Y-91910000D01*
X121640000Y-93910000D02*
X121640000Y-95560000D01*
X121640000Y-95560000D02*
X129380000Y-95560000D01*
X129380000Y-90260000D02*
X121640000Y-90260000D01*
X129380000Y-95560000D02*
X129380000Y-90260000D01*
X121640000Y-91910000D02*
G75*
G02*
X121640000Y-93910000I0J-1000000D01*
G01*
%TO.C,T2*%
X152790000Y-137350000D02*
X157410000Y-137350000D01*
X152790000Y-140610000D02*
X154170000Y-140610000D01*
X152790000Y-144310000D02*
X154170000Y-144310000D01*
X152790000Y-147570000D02*
X152790000Y-137350000D01*
X154170000Y-147570000D02*
X154170000Y-137350000D01*
X157410000Y-137350000D02*
X157410000Y-147570000D01*
X157410000Y-147570000D02*
X152790000Y-147570000D01*
%TO.C,R34*%
X139853641Y-75920000D02*
X139546359Y-75920000D01*
X139853641Y-76680000D02*
X139546359Y-76680000D01*
%TO.C,R27*%
X159272936Y-111490000D02*
X160727064Y-111490000D01*
X159272936Y-113310000D02*
X160727064Y-113310000D01*
%TO.C,R6*%
X149652500Y-99677064D02*
X149652500Y-99222936D01*
X151122500Y-99677064D02*
X151122500Y-99222936D01*
%TO.C,R42*%
X132677064Y-95690000D02*
X131222936Y-95690000D01*
X132677064Y-97510000D02*
X131222936Y-97510000D01*
%TO.C,J8*%
D12*
X132205000Y-73780000D02*
X132205000Y-73220000D01*
X132205000Y-77780000D02*
X132205000Y-77220000D01*
X135365000Y-73780000D02*
X135365000Y-73220000D01*
X135365000Y-77780000D02*
X135365000Y-77220000D01*
X131225000Y-78250000D02*
G75*
G02*
X131025000Y-78250000I-100000J0D01*
G01*
X131025000Y-78250000D02*
G75*
G02*
X131225000Y-78250000I100000J0D01*
G01*
%TO.C,C39*%
D17*
X135684420Y-69065000D02*
X135965580Y-69065000D01*
X135684420Y-70085000D02*
X135965580Y-70085000D01*
%TO.C,MOV1*%
D15*
X144900000Y-127250000D02*
G75*
G02*
X130900000Y-127250000I-7000000J0D01*
G01*
X130900000Y-127250000D02*
G75*
G02*
X144900000Y-127250000I7000000J0D01*
G01*
%TO.C,D1*%
D16*
X177497500Y-91565000D02*
X181902500Y-91565000D01*
X177497500Y-91995000D02*
X177497500Y-91565000D01*
X177497500Y-95185000D02*
X177497500Y-94755000D01*
X181902500Y-91565000D02*
X181902500Y-91995000D01*
X181902500Y-94755000D02*
X181902500Y-95185000D01*
X181902500Y-95185000D02*
X177497500Y-95185000D01*
D12*
X183600000Y-93375000D02*
G75*
G02*
X183400000Y-93375000I-100000J0D01*
G01*
X183400000Y-93375000D02*
G75*
G02*
X183600000Y-93375000I100000J0D01*
G01*
%TO.C,LED1*%
D17*
X140925000Y-65465000D02*
X140925000Y-66935000D01*
X140925000Y-66935000D02*
X143210000Y-66935000D01*
X143210000Y-65465000D02*
X140925000Y-65465000D01*
%TO.C,T1*%
X135790000Y-137350000D02*
X140410000Y-137350000D01*
X135790000Y-140610000D02*
X137170000Y-140610000D01*
X135790000Y-144310000D02*
X137170000Y-144310000D01*
X135790000Y-147570000D02*
X135790000Y-137350000D01*
X137170000Y-147570000D02*
X137170000Y-137350000D01*
X140410000Y-137350000D02*
X140410000Y-147570000D01*
X140410000Y-147570000D02*
X135790000Y-147570000D01*
%TO.C,T3*%
X170090000Y-137490000D02*
X174710000Y-137490000D01*
X170090000Y-140750000D02*
X171470000Y-140750000D01*
X170090000Y-144450000D02*
X171470000Y-144450000D01*
X170090000Y-147710000D02*
X170090000Y-137490000D01*
X171470000Y-147710000D02*
X171470000Y-137490000D01*
X174710000Y-137490000D02*
X174710000Y-147710000D01*
X174710000Y-147710000D02*
X170090000Y-147710000D01*
%TO.C,R3*%
X155510436Y-100465000D02*
X159864564Y-100465000D01*
X155510436Y-103885000D02*
X159864564Y-103885000D01*
%TO.C,R28*%
X160627064Y-108990000D02*
X159172936Y-108990000D01*
X160627064Y-110810000D02*
X159172936Y-110810000D01*
%TO.C,C12*%
X174980000Y-129780000D02*
X182720000Y-129780000D01*
X174980000Y-131166000D02*
X174980000Y-129780000D01*
X174980000Y-135020000D02*
X174980000Y-133634000D01*
X182720000Y-129780000D02*
X182720000Y-131166000D01*
X182720000Y-133634000D02*
X182720000Y-135020000D01*
X182720000Y-135020000D02*
X174980000Y-135020000D01*
%TO.C,TP1*%
X140625000Y-80850000D02*
G75*
G02*
X138725000Y-80850000I-950000J0D01*
G01*
X138725000Y-80850000D02*
G75*
G02*
X140625000Y-80850000I950000J0D01*
G01*
%TO.C,S2*%
D12*
X136300000Y-67050000D02*
X136300000Y-64650000D01*
%TO.C,C7*%
D17*
X174720000Y-123760000D02*
X184880000Y-123760000D01*
X174720000Y-123800000D02*
X184880000Y-123800000D01*
X174721000Y-123680000D02*
X184879000Y-123680000D01*
X174721000Y-123720000D02*
X184879000Y-123720000D01*
X174723000Y-123640000D02*
X184877000Y-123640000D01*
X174724000Y-123600000D02*
X184876000Y-123600000D01*
X174726000Y-123560000D02*
X184874000Y-123560000D01*
X174728000Y-123520000D02*
X184872000Y-123520000D01*
X174730000Y-123480000D02*
X184870000Y-123480000D01*
X174733000Y-123440000D02*
X184867000Y-123440000D01*
X174736000Y-123400000D02*
X184864000Y-123400000D01*
X174739000Y-123360000D02*
X184861000Y-123360000D01*
X174743000Y-123320000D02*
X184857000Y-123320000D01*
X174746000Y-123280000D02*
X184854000Y-123280000D01*
X174751000Y-123240000D02*
X184849000Y-123240000D01*
X174755000Y-123200000D02*
X184845000Y-123200000D01*
X174760000Y-123160000D02*
X184840000Y-123160000D01*
X174765000Y-123120000D02*
X184835000Y-123120000D01*
X174771000Y-123080000D02*
X184829000Y-123080000D01*
X174777000Y-123040000D02*
X184823000Y-123040000D01*
X174783000Y-123000000D02*
X184817000Y-123000000D01*
X174789000Y-122960000D02*
X184811000Y-122960000D01*
X174796000Y-122920000D02*
X184804000Y-122920000D01*
X174803000Y-122880000D02*
X184797000Y-122880000D01*
X174811000Y-122840000D02*
X184789000Y-122840000D01*
X174819000Y-122800000D02*
X184781000Y-122800000D01*
X174827000Y-122760000D02*
X184773000Y-122760000D01*
X174835000Y-122720000D02*
X184765000Y-122720000D01*
X174844000Y-122680000D02*
X184756000Y-122680000D01*
X174853000Y-122640000D02*
X184747000Y-122640000D01*
X174863000Y-122600000D02*
X184737000Y-122600000D01*
X174872000Y-122560000D02*
X184728000Y-122560000D01*
X174883000Y-122520000D02*
X178560000Y-122520000D01*
X174893000Y-122480000D02*
X178560000Y-122480000D01*
X174904000Y-122440000D02*
X178560000Y-122440000D01*
X174915000Y-122400000D02*
X178560000Y-122400000D01*
X174927000Y-122360000D02*
X178560000Y-122360000D01*
X174939000Y-122320000D02*
X178560000Y-122320000D01*
X174951000Y-122280000D02*
X178560000Y-122280000D01*
X174963000Y-122240000D02*
X178560000Y-122240000D01*
X174976000Y-122200000D02*
X178560000Y-122200000D01*
X174990000Y-122160000D02*
X178560000Y-122160000D01*
X175003000Y-122120000D02*
X178560000Y-122120000D01*
X175018000Y-122080000D02*
X178560000Y-122080000D01*
X175032000Y-122040000D02*
X178560000Y-122040000D01*
X175047000Y-122000000D02*
X178560000Y-122000000D01*
X175062000Y-121960000D02*
X178560000Y-121960000D01*
X175078000Y-121920000D02*
X178560000Y-121920000D01*
X175094000Y-121880000D02*
X178560000Y-121880000D01*
X175110000Y-121840000D02*
X178560000Y-121840000D01*
X175127000Y-121800000D02*
X178560000Y-121800000D01*
X175144000Y-121760000D02*
X178560000Y-121760000D01*
X175162000Y-121720000D02*
X178560000Y-121720000D01*
X175180000Y-121680000D02*
X178560000Y-121680000D01*
X175198000Y-121640000D02*
X178560000Y-121640000D01*
X175217000Y-121600000D02*
X178560000Y-121600000D01*
X175236000Y-121560000D02*
X178560000Y-121560000D01*
X175256000Y-121520000D02*
X178560000Y-121520000D01*
X175276000Y-121480000D02*
X178560000Y-121480000D01*
X175296000Y-121440000D02*
X178560000Y-121440000D01*
X175317000Y-121400000D02*
X178560000Y-121400000D01*
X175339000Y-121360000D02*
X178560000Y-121360000D01*
X175361000Y-121320000D02*
X178560000Y-121320000D01*
X175383000Y-121280000D02*
X178560000Y-121280000D01*
X175406000Y-121240000D02*
X178560000Y-121240000D01*
X175429000Y-121200000D02*
X178560000Y-121200000D01*
X175453000Y-121160000D02*
X178560000Y-121160000D01*
X175477000Y-121120000D02*
X178560000Y-121120000D01*
X175502000Y-121080000D02*
X178560000Y-121080000D01*
X175528000Y-121040000D02*
X178560000Y-121040000D01*
X175553000Y-121000000D02*
X178560000Y-121000000D01*
X175580000Y-120960000D02*
X178560000Y-120960000D01*
X175607000Y-120920000D02*
X178560000Y-120920000D01*
X175634000Y-120880000D02*
X178560000Y-120880000D01*
X175662000Y-120840000D02*
X178560000Y-120840000D01*
X175691000Y-120800000D02*
X178560000Y-120800000D01*
X175720000Y-120760000D02*
X178560000Y-120760000D01*
X175750000Y-120720000D02*
X178560000Y-120720000D01*
X175780000Y-120680000D02*
X178560000Y-120680000D01*
X175812000Y-120640000D02*
X178560000Y-120640000D01*
X175843000Y-120600000D02*
X178560000Y-120600000D01*
X175876000Y-120560000D02*
X178560000Y-120560000D01*
X175909000Y-120520000D02*
X178560000Y-120520000D01*
X175942000Y-120480000D02*
X178560000Y-120480000D01*
X175977000Y-120440000D02*
X178560000Y-120440000D01*
X176012000Y-120400000D02*
X178560000Y-120400000D01*
X176048000Y-120360000D02*
X178560000Y-120360000D01*
X176084000Y-120320000D02*
X178560000Y-120320000D01*
X176122000Y-120280000D02*
X178560000Y-120280000D01*
X176160000Y-120240000D02*
X178560000Y-120240000D01*
X176199000Y-120200000D02*
X178560000Y-120200000D01*
X176239000Y-120160000D02*
X178560000Y-120160000D01*
X176280000Y-120120000D02*
X178560000Y-120120000D01*
X176322000Y-120080000D02*
X178560000Y-120080000D01*
X176365000Y-120040000D02*
X183235000Y-120040000D01*
X176409000Y-120000000D02*
X183191000Y-120000000D01*
X176425000Y-128779646D02*
X177425000Y-128779646D01*
X176453000Y-119960000D02*
X183147000Y-119960000D01*
X176499000Y-119920000D02*
X183101000Y-119920000D01*
X176546000Y-119880000D02*
X183054000Y-119880000D01*
X176595000Y-119840000D02*
X183005000Y-119840000D01*
X176644000Y-119800000D02*
X182956000Y-119800000D01*
X176695000Y-119760000D02*
X182905000Y-119760000D01*
X176747000Y-119720000D02*
X182853000Y-119720000D01*
X176800000Y-119680000D02*
X182800000Y-119680000D01*
X176855000Y-119640000D02*
X182745000Y-119640000D01*
X176912000Y-119600000D02*
X182688000Y-119600000D01*
X176925000Y-129279646D02*
X176925000Y-128279646D01*
X176970000Y-119560000D02*
X182630000Y-119560000D01*
X177030000Y-119520000D02*
X182570000Y-119520000D01*
X177092000Y-119480000D02*
X182508000Y-119480000D01*
X177156000Y-119440000D02*
X182444000Y-119440000D01*
X177222000Y-119400000D02*
X182378000Y-119400000D01*
X177290000Y-119360000D02*
X182310000Y-119360000D01*
X177361000Y-119320000D02*
X182239000Y-119320000D01*
X177435000Y-119280000D02*
X182165000Y-119280000D01*
X177512000Y-119240000D02*
X182088000Y-119240000D01*
X177592000Y-119200000D02*
X182008000Y-119200000D01*
X177676000Y-119160000D02*
X181924000Y-119160000D01*
X177763000Y-119120000D02*
X181837000Y-119120000D01*
X177856000Y-119080000D02*
X181744000Y-119080000D01*
X177954000Y-119040000D02*
X181646000Y-119040000D01*
X178058000Y-119000000D02*
X181542000Y-119000000D01*
X178170000Y-118960000D02*
X181430000Y-118960000D01*
X178291000Y-118920000D02*
X181309000Y-118920000D01*
X178423000Y-118880000D02*
X181177000Y-118880000D01*
X178570000Y-118840000D02*
X181030000Y-118840000D01*
X178738000Y-118800000D02*
X180862000Y-118800000D01*
X178938000Y-118760000D02*
X180662000Y-118760000D01*
X179201000Y-118720000D02*
X180399000Y-118720000D01*
X181040000Y-120080000D02*
X183278000Y-120080000D01*
X181040000Y-120120000D02*
X183320000Y-120120000D01*
X181040000Y-120160000D02*
X183361000Y-120160000D01*
X181040000Y-120200000D02*
X183401000Y-120200000D01*
X181040000Y-120240000D02*
X183440000Y-120240000D01*
X181040000Y-120280000D02*
X183478000Y-120280000D01*
X181040000Y-120320000D02*
X183516000Y-120320000D01*
X181040000Y-120360000D02*
X183552000Y-120360000D01*
X181040000Y-120400000D02*
X183588000Y-120400000D01*
X181040000Y-120440000D02*
X183623000Y-120440000D01*
X181040000Y-120480000D02*
X183658000Y-120480000D01*
X181040000Y-120520000D02*
X183691000Y-120520000D01*
X181040000Y-120560000D02*
X183724000Y-120560000D01*
X181040000Y-120600000D02*
X183757000Y-120600000D01*
X181040000Y-120640000D02*
X183788000Y-120640000D01*
X181040000Y-120680000D02*
X183820000Y-120680000D01*
X181040000Y-120720000D02*
X183850000Y-120720000D01*
X181040000Y-120760000D02*
X183880000Y-120760000D01*
X181040000Y-120800000D02*
X183909000Y-120800000D01*
X181040000Y-120840000D02*
X183938000Y-120840000D01*
X181040000Y-120880000D02*
X183966000Y-120880000D01*
X181040000Y-120920000D02*
X183993000Y-120920000D01*
X181040000Y-120960000D02*
X184020000Y-120960000D01*
X181040000Y-121000000D02*
X184047000Y-121000000D01*
X181040000Y-121040000D02*
X184072000Y-121040000D01*
X181040000Y-121080000D02*
X184098000Y-121080000D01*
X181040000Y-121120000D02*
X184123000Y-121120000D01*
X181040000Y-121160000D02*
X184147000Y-121160000D01*
X181040000Y-121200000D02*
X184171000Y-121200000D01*
X181040000Y-121240000D02*
X184194000Y-121240000D01*
X181040000Y-121280000D02*
X184217000Y-121280000D01*
X181040000Y-121320000D02*
X184239000Y-121320000D01*
X181040000Y-121360000D02*
X184261000Y-121360000D01*
X181040000Y-121400000D02*
X184283000Y-121400000D01*
X181040000Y-121440000D02*
X184304000Y-121440000D01*
X181040000Y-121480000D02*
X184324000Y-121480000D01*
X181040000Y-121520000D02*
X184344000Y-121520000D01*
X181040000Y-121560000D02*
X184364000Y-121560000D01*
X181040000Y-121600000D02*
X184383000Y-121600000D01*
X181040000Y-121640000D02*
X184402000Y-121640000D01*
X181040000Y-121680000D02*
X184420000Y-121680000D01*
X181040000Y-121720000D02*
X184438000Y-121720000D01*
X181040000Y-121760000D02*
X184456000Y-121760000D01*
X181040000Y-121800000D02*
X184473000Y-121800000D01*
X181040000Y-121840000D02*
X184490000Y-121840000D01*
X181040000Y-121880000D02*
X184506000Y-121880000D01*
X181040000Y-121920000D02*
X184522000Y-121920000D01*
X181040000Y-121960000D02*
X184538000Y-121960000D01*
X181040000Y-122000000D02*
X184553000Y-122000000D01*
X181040000Y-122040000D02*
X184568000Y-122040000D01*
X181040000Y-122080000D02*
X184582000Y-122080000D01*
X181040000Y-122120000D02*
X184597000Y-122120000D01*
X181040000Y-122160000D02*
X184610000Y-122160000D01*
X181040000Y-122200000D02*
X184624000Y-122200000D01*
X181040000Y-122240000D02*
X184637000Y-122240000D01*
X181040000Y-122280000D02*
X184649000Y-122280000D01*
X181040000Y-122320000D02*
X184661000Y-122320000D01*
X181040000Y-122360000D02*
X184673000Y-122360000D01*
X181040000Y-122400000D02*
X184685000Y-122400000D01*
X181040000Y-122440000D02*
X184696000Y-122440000D01*
X181040000Y-122480000D02*
X184707000Y-122480000D01*
X181040000Y-122520000D02*
X184717000Y-122520000D01*
X184920000Y-123800000D02*
G75*
G02*
X174680000Y-123800000I-5120000J0D01*
G01*
X174680000Y-123800000D02*
G75*
G02*
X184920000Y-123800000I5120000J0D01*
G01*
%TO.C,LF1*%
D15*
X146350000Y-118800000D02*
X160850000Y-118800000D01*
X160850000Y-136800000D01*
X146350000Y-136800000D01*
X146350000Y-118800000D01*
%TO.C,R9*%
D17*
X146090000Y-94472936D02*
X146090000Y-94927064D01*
X147560000Y-94472936D02*
X147560000Y-94927064D01*
%TO.C,C42*%
X140087836Y-83390000D02*
X139872164Y-83390000D01*
X140087836Y-84110000D02*
X139872164Y-84110000D01*
%TO.C,R7*%
X141890000Y-94927064D02*
X141890000Y-94472936D01*
X143360000Y-94927064D02*
X143360000Y-94472936D01*
%TD*%
M02*
