%TF.GenerationSoftware,KiCad,Pcbnew,10.0.5*%
%TF.CreationDate,2026-08-30T14:17:10-05:00*%
%TF.ProjectId,PelletPirate_V5,50656c6c-6574-4506-9972-6174655f5635,rev?*%
%TF.SameCoordinates,Original*%
%TF.FileFunction,Paste,Bot*%
%TF.FilePolarity,Positive*%
%FSLAX46Y46*%
G04 Gerber Fmt 4.6, Leading zero omitted, Abs format (unit mm)*
G04 Created by KiCad (PCBNEW 10.0.5) date 2026-08-30 14:17:10*
%MOMM*%
%LPD*%
G01*
G04 APERTURE LIST*
G04 Aperture macros list*
%AMRoundRect*
0 Rectangle with rounded corners*
0 $1 Rounding radius*
0 $2 $3 $4 $5 $6 $7 $8 $9 X,Y pos of 4 corners*
0 Add a 4 corners polygon primitive as box body*
4,1,4,$2,$3,$4,$5,$6,$7,$8,$9,$2,$3,0*
0 Add four circle primitives for the rounded corners*
1,1,$1+$1,$2,$3*
1,1,$1+$1,$4,$5*
1,1,$1+$1,$6,$7*
1,1,$1+$1,$8,$9*
0 Add four rect primitives between the rounded corners*
20,1,$1+$1,$2,$3,$4,$5,0*
20,1,$1+$1,$4,$5,$6,$7,0*
20,1,$1+$1,$6,$7,$8,$9,0*
20,1,$1+$1,$8,$9,$2,$3,0*%
G04 Aperture macros list end*
%ADD10C,0.203200*%
%ADD11C,0.010000*%
%ADD12RoundRect,0.140000X0.170000X-0.140000X0.170000X0.140000X-0.170000X0.140000X-0.170000X-0.140000X0*%
%ADD13RoundRect,0.250000X0.450000X-0.350000X0.450000X0.350000X-0.450000X0.350000X-0.450000X-0.350000X0*%
%ADD14RoundRect,0.140000X-0.170000X0.140000X-0.170000X-0.140000X0.170000X-0.140000X0.170000X0.140000X0*%
%ADD15R,0.650000X0.970000*%
%ADD16RoundRect,0.250000X0.400000X0.625000X-0.400000X0.625000X-0.400000X-0.625000X0.400000X-0.625000X0*%
%ADD17RoundRect,0.072500X0.217500X-0.532500X0.217500X0.532500X-0.217500X0.532500X-0.217500X-0.532500X0*%
%ADD18RoundRect,0.237500X0.250000X0.237500X-0.250000X0.237500X-0.250000X-0.237500X0.250000X-0.237500X0*%
%ADD19RoundRect,0.250000X0.475000X-0.250000X0.475000X0.250000X-0.475000X0.250000X-0.475000X-0.250000X0*%
%ADD20RoundRect,0.250000X0.325000X0.650000X-0.325000X0.650000X-0.325000X-0.650000X0.325000X-0.650000X0*%
%ADD21RoundRect,0.250000X0.250000X0.475000X-0.250000X0.475000X-0.250000X-0.475000X0.250000X-0.475000X0*%
%ADD22RoundRect,0.250000X0.650000X-0.325000X0.650000X0.325000X-0.650000X0.325000X-0.650000X-0.325000X0*%
%ADD23RoundRect,0.135000X0.185000X-0.135000X0.185000X0.135000X-0.185000X0.135000X-0.185000X-0.135000X0*%
%ADD24RoundRect,0.250000X-0.350000X-0.450000X0.350000X-0.450000X0.350000X0.450000X-0.350000X0.450000X0*%
%ADD25RoundRect,0.135000X-0.135000X-0.185000X0.135000X-0.185000X0.135000X0.185000X-0.135000X0.185000X0*%
%ADD26RoundRect,0.250000X-0.405000X0.405000X-0.405000X-0.405000X0.405000X-0.405000X0.405000X0.405000X0*%
%ADD27RoundRect,0.075000X-0.075000X0.337500X-0.075000X-0.337500X0.075000X-0.337500X0.075000X0.337500X0*%
%ADD28RoundRect,0.075000X-0.337500X0.075000X-0.337500X-0.075000X0.337500X-0.075000X0.337500X0.075000X0*%
%ADD29RoundRect,0.250000X-0.312500X-0.625000X0.312500X-0.625000X0.312500X0.625000X-0.312500X0.625000X0*%
%ADD30RoundRect,0.073750X0.221250X-0.551250X0.221250X0.551250X-0.221250X0.551250X-0.221250X-0.551250X0*%
%ADD31RoundRect,0.250000X-0.650000X0.325000X-0.650000X-0.325000X0.650000X-0.325000X0.650000X0.325000X0*%
%ADD32RoundRect,0.250000X0.475000X-0.337500X0.475000X0.337500X-0.475000X0.337500X-0.475000X-0.337500X0*%
%ADD33RoundRect,0.250000X0.262500X0.450000X-0.262500X0.450000X-0.262500X-0.450000X0.262500X-0.450000X0*%
%ADD34RoundRect,0.140000X0.140000X0.170000X-0.140000X0.170000X-0.140000X-0.170000X0.140000X-0.170000X0*%
%ADD35RoundRect,0.250000X-0.325000X-0.650000X0.325000X-0.650000X0.325000X0.650000X-0.325000X0.650000X0*%
%ADD36RoundRect,0.250000X0.337500X0.475000X-0.337500X0.475000X-0.337500X-0.475000X0.337500X-0.475000X0*%
G04 APERTURE END LIST*
D10*
%TO.C,L3*%
X176437500Y-83300000D02*
X176437500Y-87700000D01*
X177737500Y-87700000D01*
X177737500Y-87100000D01*
X177661500Y-87029000D01*
X177576500Y-86942000D01*
X177496500Y-86850000D01*
X177422500Y-86753000D01*
X177354500Y-86653000D01*
X177291500Y-86548000D01*
X177234500Y-86441000D01*
X177184500Y-86330000D01*
X177140500Y-86216000D01*
X177102500Y-86101000D01*
X177071500Y-85983000D01*
X177047500Y-85863000D01*
X177030500Y-85743000D01*
X177019500Y-85622000D01*
X177016500Y-85500000D01*
X177019500Y-85378000D01*
X177030500Y-85257000D01*
X177047500Y-85137000D01*
X177071500Y-85017000D01*
X177102500Y-84899000D01*
X177140500Y-84784000D01*
X177184500Y-84670000D01*
X177234500Y-84559000D01*
X177291500Y-84452000D01*
X177354500Y-84347000D01*
X177422500Y-84247000D01*
X177496500Y-84150000D01*
X177576500Y-84058000D01*
X177661500Y-83971000D01*
X177737500Y-83900000D01*
X177737500Y-83300000D01*
X176437500Y-83300000D01*
G36*
X177737500Y-83900000D02*
G01*
X177661500Y-83971000D01*
X177576500Y-84058000D01*
X177496500Y-84150000D01*
X177422500Y-84247000D01*
X177354500Y-84347000D01*
X177291500Y-84452000D01*
X177234500Y-84559000D01*
X177184500Y-84670000D01*
X177140500Y-84784000D01*
X177102500Y-84899000D01*
X177071500Y-85017000D01*
X177047500Y-85137000D01*
X177030500Y-85257000D01*
X177019500Y-85378000D01*
X177016500Y-85500000D01*
X177019500Y-85622000D01*
X177030500Y-85743000D01*
X177047500Y-85863000D01*
X177071500Y-85983000D01*
X177102500Y-86101000D01*
X177140500Y-86216000D01*
X177184500Y-86330000D01*
X177234500Y-86441000D01*
X177291500Y-86548000D01*
X177354500Y-86653000D01*
X177422500Y-86753000D01*
X177496500Y-86850000D01*
X177576500Y-86942000D01*
X177661500Y-87029000D01*
X177737500Y-87100000D01*
X177737500Y-87700000D01*
X176437500Y-87700000D01*
X176437500Y-83300000D01*
X177737500Y-83300000D01*
X177737500Y-83900000D01*
G37*
X181837500Y-87700000D02*
X181837500Y-83300000D01*
X180537500Y-83300000D01*
X180537500Y-83900000D01*
X180613500Y-83971000D01*
X180698500Y-84058000D01*
X180778500Y-84150000D01*
X180852500Y-84247000D01*
X180920500Y-84347000D01*
X180983500Y-84452000D01*
X181040500Y-84559000D01*
X181090500Y-84670000D01*
X181134500Y-84784000D01*
X181172500Y-84899000D01*
X181203500Y-85017000D01*
X181227500Y-85137000D01*
X181244500Y-85257000D01*
X181255500Y-85378000D01*
X181258500Y-85500000D01*
X181255500Y-85622000D01*
X181244500Y-85743000D01*
X181227500Y-85863000D01*
X181203500Y-85983000D01*
X181172500Y-86101000D01*
X181134500Y-86216000D01*
X181090500Y-86330000D01*
X181040500Y-86441000D01*
X180983500Y-86548000D01*
X180920500Y-86653000D01*
X180852500Y-86753000D01*
X180778500Y-86850000D01*
X180698500Y-86942000D01*
X180613500Y-87029000D01*
X180537500Y-87100000D01*
X180537500Y-87700000D01*
X181837500Y-87700000D01*
G36*
X181837500Y-87700000D02*
G01*
X180537500Y-87700000D01*
X180537500Y-87100000D01*
X180613500Y-87029000D01*
X180698500Y-86942000D01*
X180778500Y-86850000D01*
X180852500Y-86753000D01*
X180920500Y-86653000D01*
X180983500Y-86548000D01*
X181040500Y-86441000D01*
X181090500Y-86330000D01*
X181134500Y-86216000D01*
X181172500Y-86101000D01*
X181203500Y-85983000D01*
X181227500Y-85863000D01*
X181244500Y-85743000D01*
X181255500Y-85622000D01*
X181258500Y-85500000D01*
X181255500Y-85378000D01*
X181244500Y-85257000D01*
X181227500Y-85137000D01*
X181203500Y-85017000D01*
X181172500Y-84899000D01*
X181134500Y-84784000D01*
X181090500Y-84670000D01*
X181040500Y-84559000D01*
X180983500Y-84452000D01*
X180920500Y-84347000D01*
X180852500Y-84247000D01*
X180778500Y-84150000D01*
X180698500Y-84058000D01*
X180613500Y-83971000D01*
X180537500Y-83900000D01*
X180537500Y-83300000D01*
X181837500Y-83300000D01*
X181837500Y-87700000D01*
G37*
D11*
%TO.C,FPC1*%
X161850000Y-55575000D02*
X161550000Y-55575000D01*
X161550000Y-56275000D01*
X161850000Y-56275000D01*
X161850000Y-55575000D01*
G36*
X161850000Y-56275000D02*
G01*
X161550000Y-56275000D01*
X161550000Y-55575000D01*
X161850000Y-55575000D01*
X161850000Y-56275000D01*
G37*
X162565000Y-55825000D02*
X162335000Y-55825000D01*
X162335000Y-56475000D01*
X162565000Y-56475000D01*
X162565000Y-55825000D01*
G36*
X162565000Y-56475000D02*
G01*
X162335000Y-56475000D01*
X162335000Y-55825000D01*
X162565000Y-55825000D01*
X162565000Y-56475000D01*
G37*
X162865000Y-52875000D02*
X162635000Y-52875000D01*
X162635000Y-53425000D01*
X162865000Y-53425000D01*
X162865000Y-52875000D01*
G36*
X162865000Y-53425000D02*
G01*
X162635000Y-53425000D01*
X162635000Y-52875000D01*
X162865000Y-52875000D01*
X162865000Y-53425000D01*
G37*
X163165000Y-55825000D02*
X162935000Y-55825000D01*
X162935000Y-56475000D01*
X163165000Y-56475000D01*
X163165000Y-55825000D01*
G36*
X163165000Y-56475000D02*
G01*
X162935000Y-56475000D01*
X162935000Y-55825000D01*
X163165000Y-55825000D01*
X163165000Y-56475000D01*
G37*
X163465000Y-52875000D02*
X163235000Y-52875000D01*
X163235000Y-53425000D01*
X163465000Y-53425000D01*
X163465000Y-52875000D01*
G36*
X163465000Y-53425000D02*
G01*
X163235000Y-53425000D01*
X163235000Y-52875000D01*
X163465000Y-52875000D01*
X163465000Y-53425000D01*
G37*
X163765000Y-55825000D02*
X163535000Y-55825000D01*
X163535000Y-56475000D01*
X163765000Y-56475000D01*
X163765000Y-55825000D01*
G36*
X163765000Y-56475000D02*
G01*
X163535000Y-56475000D01*
X163535000Y-55825000D01*
X163765000Y-55825000D01*
X163765000Y-56475000D01*
G37*
X164065000Y-52875000D02*
X163835000Y-52875000D01*
X163835000Y-53425000D01*
X164065000Y-53425000D01*
X164065000Y-52875000D01*
G36*
X164065000Y-53425000D02*
G01*
X163835000Y-53425000D01*
X163835000Y-52875000D01*
X164065000Y-52875000D01*
X164065000Y-53425000D01*
G37*
X164365000Y-55825000D02*
X164135000Y-55825000D01*
X164135000Y-56475000D01*
X164365000Y-56475000D01*
X164365000Y-55825000D01*
G36*
X164365000Y-56475000D02*
G01*
X164135000Y-56475000D01*
X164135000Y-55825000D01*
X164365000Y-55825000D01*
X164365000Y-56475000D01*
G37*
X164665000Y-52875000D02*
X164435000Y-52875000D01*
X164435000Y-53425000D01*
X164665000Y-53425000D01*
X164665000Y-52875000D01*
G36*
X164665000Y-53425000D02*
G01*
X164435000Y-53425000D01*
X164435000Y-52875000D01*
X164665000Y-52875000D01*
X164665000Y-53425000D01*
G37*
X164965000Y-55825000D02*
X164735000Y-55825000D01*
X164735000Y-56475000D01*
X164965000Y-56475000D01*
X164965000Y-55825000D01*
G36*
X164965000Y-56475000D02*
G01*
X164735000Y-56475000D01*
X164735000Y-55825000D01*
X164965000Y-55825000D01*
X164965000Y-56475000D01*
G37*
X165265000Y-52875000D02*
X165035000Y-52875000D01*
X165035000Y-53425000D01*
X165265000Y-53425000D01*
X165265000Y-52875000D01*
G36*
X165265000Y-53425000D02*
G01*
X165035000Y-53425000D01*
X165035000Y-52875000D01*
X165265000Y-52875000D01*
X165265000Y-53425000D01*
G37*
X165565000Y-55825000D02*
X165335000Y-55825000D01*
X165335000Y-56475000D01*
X165565000Y-56475000D01*
X165565000Y-55825000D01*
G36*
X165565000Y-56475000D02*
G01*
X165335000Y-56475000D01*
X165335000Y-55825000D01*
X165565000Y-55825000D01*
X165565000Y-56475000D01*
G37*
X165865000Y-52875000D02*
X165635000Y-52875000D01*
X165635000Y-53425000D01*
X165865000Y-53425000D01*
X165865000Y-52875000D01*
G36*
X165865000Y-53425000D02*
G01*
X165635000Y-53425000D01*
X165635000Y-52875000D01*
X165865000Y-52875000D01*
X165865000Y-53425000D01*
G37*
X166165000Y-55825000D02*
X165935000Y-55825000D01*
X165935000Y-56475000D01*
X166165000Y-56475000D01*
X166165000Y-55825000D01*
G36*
X166165000Y-56475000D02*
G01*
X165935000Y-56475000D01*
X165935000Y-55825000D01*
X166165000Y-55825000D01*
X166165000Y-56475000D01*
G37*
X166465000Y-52875000D02*
X166235000Y-52875000D01*
X166235000Y-53425000D01*
X166465000Y-53425000D01*
X166465000Y-52875000D01*
G36*
X166465000Y-53425000D02*
G01*
X166235000Y-53425000D01*
X166235000Y-52875000D01*
X166465000Y-52875000D01*
X166465000Y-53425000D01*
G37*
X166765000Y-55825000D02*
X166535000Y-55825000D01*
X166535000Y-56475000D01*
X166765000Y-56475000D01*
X166765000Y-55825000D01*
G36*
X166765000Y-56475000D02*
G01*
X166535000Y-56475000D01*
X166535000Y-55825000D01*
X166765000Y-55825000D01*
X166765000Y-56475000D01*
G37*
X167065000Y-52875000D02*
X166835000Y-52875000D01*
X166835000Y-53425000D01*
X167065000Y-53425000D01*
X167065000Y-52875000D01*
G36*
X167065000Y-53425000D02*
G01*
X166835000Y-53425000D01*
X166835000Y-52875000D01*
X167065000Y-52875000D01*
X167065000Y-53425000D01*
G37*
X167365000Y-55825000D02*
X167135000Y-55825000D01*
X167135000Y-56475000D01*
X167365000Y-56475000D01*
X167365000Y-55825000D01*
G36*
X167365000Y-56475000D02*
G01*
X167135000Y-56475000D01*
X167135000Y-55825000D01*
X167365000Y-55825000D01*
X167365000Y-56475000D01*
G37*
X167665000Y-52875000D02*
X167435000Y-52875000D01*
X167435000Y-53425000D01*
X167665000Y-53425000D01*
X167665000Y-52875000D01*
G36*
X167665000Y-53425000D02*
G01*
X167435000Y-53425000D01*
X167435000Y-52875000D01*
X167665000Y-52875000D01*
X167665000Y-53425000D01*
G37*
X167965000Y-55825000D02*
X167735000Y-55825000D01*
X167735000Y-56475000D01*
X167965000Y-56475000D01*
X167965000Y-55825000D01*
G36*
X167965000Y-56475000D02*
G01*
X167735000Y-56475000D01*
X167735000Y-55825000D01*
X167965000Y-55825000D01*
X167965000Y-56475000D01*
G37*
X168265000Y-52875000D02*
X168035000Y-52875000D01*
X168035000Y-53425000D01*
X168265000Y-53425000D01*
X168265000Y-52875000D01*
G36*
X168265000Y-53425000D02*
G01*
X168035000Y-53425000D01*
X168035000Y-52875000D01*
X168265000Y-52875000D01*
X168265000Y-53425000D01*
G37*
X168565000Y-55825000D02*
X168335000Y-55825000D01*
X168335000Y-56475000D01*
X168565000Y-56475000D01*
X168565000Y-55825000D01*
G36*
X168565000Y-56475000D02*
G01*
X168335000Y-56475000D01*
X168335000Y-55825000D01*
X168565000Y-55825000D01*
X168565000Y-56475000D01*
G37*
X168865000Y-52875000D02*
X168635000Y-52875000D01*
X168635000Y-53425000D01*
X168865000Y-53425000D01*
X168865000Y-52875000D01*
G36*
X168865000Y-53425000D02*
G01*
X168635000Y-53425000D01*
X168635000Y-52875000D01*
X168865000Y-52875000D01*
X168865000Y-53425000D01*
G37*
X169165000Y-55825000D02*
X168935000Y-55825000D01*
X168935000Y-56475000D01*
X169165000Y-56475000D01*
X169165000Y-55825000D01*
G36*
X169165000Y-56475000D02*
G01*
X168935000Y-56475000D01*
X168935000Y-55825000D01*
X169165000Y-55825000D01*
X169165000Y-56475000D01*
G37*
X169465000Y-52875000D02*
X169235000Y-52875000D01*
X169235000Y-53425000D01*
X169465000Y-53425000D01*
X169465000Y-52875000D01*
G36*
X169465000Y-53425000D02*
G01*
X169235000Y-53425000D01*
X169235000Y-52875000D01*
X169465000Y-52875000D01*
X169465000Y-53425000D01*
G37*
X169765000Y-55825000D02*
X169535000Y-55825000D01*
X169535000Y-56475000D01*
X169765000Y-56475000D01*
X169765000Y-55825000D01*
G36*
X169765000Y-56475000D02*
G01*
X169535000Y-56475000D01*
X169535000Y-55825000D01*
X169765000Y-55825000D01*
X169765000Y-56475000D01*
G37*
X170065000Y-52875000D02*
X169835000Y-52875000D01*
X169835000Y-53425000D01*
X170065000Y-53425000D01*
X170065000Y-52875000D01*
G36*
X170065000Y-53425000D02*
G01*
X169835000Y-53425000D01*
X169835000Y-52875000D01*
X170065000Y-52875000D01*
X170065000Y-53425000D01*
G37*
X170365000Y-55825000D02*
X170135000Y-55825000D01*
X170135000Y-56475000D01*
X170365000Y-56475000D01*
X170365000Y-55825000D01*
G36*
X170365000Y-56475000D02*
G01*
X170135000Y-56475000D01*
X170135000Y-55825000D01*
X170365000Y-55825000D01*
X170365000Y-56475000D01*
G37*
X170665000Y-52875000D02*
X170435000Y-52875000D01*
X170435000Y-53425000D01*
X170665000Y-53425000D01*
X170665000Y-52875000D01*
G36*
X170665000Y-53425000D02*
G01*
X170435000Y-53425000D01*
X170435000Y-52875000D01*
X170665000Y-52875000D01*
X170665000Y-53425000D01*
G37*
X170965000Y-55825000D02*
X170735000Y-55825000D01*
X170735000Y-56475000D01*
X170965000Y-56475000D01*
X170965000Y-55825000D01*
G36*
X170965000Y-56475000D02*
G01*
X170735000Y-56475000D01*
X170735000Y-55825000D01*
X170965000Y-55825000D01*
X170965000Y-56475000D01*
G37*
X171265000Y-52875000D02*
X171035000Y-52875000D01*
X171035000Y-53425000D01*
X171265000Y-53425000D01*
X171265000Y-52875000D01*
G36*
X171265000Y-53425000D02*
G01*
X171035000Y-53425000D01*
X171035000Y-52875000D01*
X171265000Y-52875000D01*
X171265000Y-53425000D01*
G37*
X171565000Y-55825000D02*
X171335000Y-55825000D01*
X171335000Y-56475000D01*
X171565000Y-56475000D01*
X171565000Y-55825000D01*
G36*
X171565000Y-56475000D02*
G01*
X171335000Y-56475000D01*
X171335000Y-55825000D01*
X171565000Y-55825000D01*
X171565000Y-56475000D01*
G37*
X171865000Y-52875000D02*
X171635000Y-52875000D01*
X171635000Y-53425000D01*
X171865000Y-53425000D01*
X171865000Y-52875000D01*
G36*
X171865000Y-53425000D02*
G01*
X171635000Y-53425000D01*
X171635000Y-52875000D01*
X171865000Y-52875000D01*
X171865000Y-53425000D01*
G37*
X172165000Y-55825000D02*
X171935000Y-55825000D01*
X171935000Y-56475000D01*
X172165000Y-56475000D01*
X172165000Y-55825000D01*
G36*
X172165000Y-56475000D02*
G01*
X171935000Y-56475000D01*
X171935000Y-55825000D01*
X172165000Y-55825000D01*
X172165000Y-56475000D01*
G37*
X172465000Y-52875000D02*
X172235000Y-52875000D01*
X172235000Y-53425000D01*
X172465000Y-53425000D01*
X172465000Y-52875000D01*
G36*
X172465000Y-53425000D02*
G01*
X172235000Y-53425000D01*
X172235000Y-52875000D01*
X172465000Y-52875000D01*
X172465000Y-53425000D01*
G37*
X172765000Y-55825000D02*
X172535000Y-55825000D01*
X172535000Y-56475000D01*
X172765000Y-56475000D01*
X172765000Y-55825000D01*
G36*
X172765000Y-56475000D02*
G01*
X172535000Y-56475000D01*
X172535000Y-55825000D01*
X172765000Y-55825000D01*
X172765000Y-56475000D01*
G37*
X173065000Y-52875000D02*
X172835000Y-52875000D01*
X172835000Y-53425000D01*
X173065000Y-53425000D01*
X173065000Y-52875000D01*
G36*
X173065000Y-53425000D02*
G01*
X172835000Y-53425000D01*
X172835000Y-52875000D01*
X173065000Y-52875000D01*
X173065000Y-53425000D01*
G37*
X173365000Y-55825000D02*
X173135000Y-55825000D01*
X173135000Y-56475000D01*
X173365000Y-56475000D01*
X173365000Y-55825000D01*
G36*
X173365000Y-56475000D02*
G01*
X173135000Y-56475000D01*
X173135000Y-55825000D01*
X173365000Y-55825000D01*
X173365000Y-56475000D01*
G37*
X173665000Y-52875000D02*
X173435000Y-52875000D01*
X173435000Y-53425000D01*
X173665000Y-53425000D01*
X173665000Y-52875000D01*
G36*
X173665000Y-53425000D02*
G01*
X173435000Y-53425000D01*
X173435000Y-52875000D01*
X173665000Y-52875000D01*
X173665000Y-53425000D01*
G37*
X173965000Y-55825000D02*
X173735000Y-55825000D01*
X173735000Y-56475000D01*
X173965000Y-56475000D01*
X173965000Y-55825000D01*
G36*
X173965000Y-56475000D02*
G01*
X173735000Y-56475000D01*
X173735000Y-55825000D01*
X173965000Y-55825000D01*
X173965000Y-56475000D01*
G37*
X174750000Y-55575000D02*
X174450000Y-55575000D01*
X174450000Y-56275000D01*
X174750000Y-56275000D01*
X174750000Y-55575000D01*
G36*
X174750000Y-56275000D02*
G01*
X174450000Y-56275000D01*
X174450000Y-55575000D01*
X174750000Y-55575000D01*
X174750000Y-56275000D01*
G37*
%TO.C,L2*%
X169700000Y-82421250D02*
X172700000Y-82421250D01*
X172700000Y-80921250D01*
X171950000Y-80921250D01*
X171950000Y-79421250D01*
X170450000Y-79421250D01*
X170450000Y-80921250D01*
X169700000Y-80921250D01*
X169700000Y-82421250D01*
G36*
X171950000Y-80921250D02*
G01*
X172700000Y-80921250D01*
X172700000Y-82421250D01*
X169700000Y-82421250D01*
X169700000Y-80921250D01*
X170450000Y-80921250D01*
X170450000Y-79421250D01*
X171950000Y-79421250D01*
X171950000Y-80921250D01*
G37*
X172700000Y-83921250D02*
X169700000Y-83921250D01*
X169700000Y-85421250D01*
X170450000Y-85421250D01*
X170450000Y-86921250D01*
X171950000Y-86921250D01*
X171950000Y-85421250D01*
X172700000Y-85421250D01*
X172700000Y-83921250D01*
G36*
X172700000Y-85421250D02*
G01*
X171950000Y-85421250D01*
X171950000Y-86921250D01*
X170450000Y-86921250D01*
X170450000Y-85421250D01*
X169700000Y-85421250D01*
X169700000Y-83921250D01*
X172700000Y-83921250D01*
X172700000Y-85421250D01*
G37*
%TD*%
D12*
%TO.C,C21*%
X135040000Y-59050000D03*
X135040000Y-58090000D03*
%TD*%
D13*
%TO.C,R19*%
X171200000Y-77628750D03*
X171200000Y-75628750D03*
%TD*%
D12*
%TO.C,C17*%
X144025000Y-69630000D03*
X144025000Y-68670000D03*
%TD*%
D14*
%TO.C,C31*%
X135040000Y-56090000D03*
X135040000Y-57050000D03*
%TD*%
D15*
%TO.C,D2*%
X176150000Y-80780000D03*
X176150000Y-77300000D03*
%TD*%
D12*
%TO.C,C27*%
X155040000Y-59120000D03*
X155040000Y-58160000D03*
%TD*%
D14*
%TO.C,C35*%
X176625000Y-54575000D03*
X176625000Y-55535000D03*
%TD*%
D12*
%TO.C,C30*%
X183890000Y-57070000D03*
X183890000Y-56110000D03*
%TD*%
D16*
%TO.C,R17*%
X179300000Y-67475000D03*
X176200000Y-67475000D03*
%TD*%
D17*
%TO.C,PS3*%
X181950000Y-74762500D03*
X181000000Y-74762500D03*
X180050000Y-74762500D03*
X180050000Y-72252500D03*
X181000000Y-72252500D03*
X181950000Y-72252500D03*
%TD*%
D18*
%TO.C,R16*%
X180650000Y-76425000D03*
X178825000Y-76425000D03*
%TD*%
D19*
%TO.C,C37*%
X145550000Y-70900000D03*
X145550000Y-69000000D03*
%TD*%
D12*
%TO.C,C23*%
X157500000Y-63546250D03*
X157500000Y-62586250D03*
%TD*%
D20*
%TO.C,C8*%
X181900000Y-81500000D03*
X178950000Y-81500000D03*
%TD*%
D21*
%TO.C,C11*%
X165000000Y-91500000D03*
X163100000Y-91500000D03*
%TD*%
D22*
%TO.C,C45*%
X150175000Y-72050000D03*
X150175000Y-69100000D03*
%TD*%
D23*
%TO.C,R44*%
X143600000Y-73250000D03*
X143600000Y-72230000D03*
%TD*%
D21*
%TO.C,C14*%
X167012500Y-80666250D03*
X165112500Y-80666250D03*
%TD*%
D24*
%TO.C,R15*%
X167937500Y-88571250D03*
X169937500Y-88571250D03*
%TD*%
D25*
%TO.C,R50*%
X144150000Y-79025000D03*
X145170000Y-79025000D03*
%TD*%
D26*
%TO.C,MAX4*%
X171960000Y-62377500D03*
X170340000Y-62377500D03*
X171960000Y-63997500D03*
X170340000Y-63997500D03*
D27*
X169850000Y-60750000D03*
X170500000Y-60750000D03*
X171150000Y-60750000D03*
X171800000Y-60750000D03*
X172450000Y-60750000D03*
D28*
X173587500Y-61887500D03*
X173587500Y-62537500D03*
X173587500Y-63187500D03*
X173587500Y-63837500D03*
X173587500Y-64487500D03*
D27*
X172450000Y-65625000D03*
X171800000Y-65625000D03*
X171150000Y-65625000D03*
X170500000Y-65625000D03*
X169850000Y-65625000D03*
D28*
X168712500Y-64487500D03*
X168712500Y-63837500D03*
X168712500Y-63187500D03*
X168712500Y-62537500D03*
X168712500Y-61887500D03*
%TD*%
D29*
%TO.C,R23*%
X159477500Y-58766250D03*
X162402500Y-58766250D03*
%TD*%
D26*
%TO.C,MAX3*%
X162150000Y-62500000D03*
X160530000Y-62500000D03*
X162150000Y-64120000D03*
X160530000Y-64120000D03*
D27*
X160040000Y-60872500D03*
X160690000Y-60872500D03*
X161340000Y-60872500D03*
X161990000Y-60872500D03*
X162640000Y-60872500D03*
D28*
X163777500Y-62010000D03*
X163777500Y-62660000D03*
X163777500Y-63310000D03*
X163777500Y-63960000D03*
X163777500Y-64610000D03*
D27*
X162640000Y-65747500D03*
X161990000Y-65747500D03*
X161340000Y-65747500D03*
X160690000Y-65747500D03*
X160040000Y-65747500D03*
D28*
X158902500Y-64610000D03*
X158902500Y-63960000D03*
X158902500Y-63310000D03*
X158902500Y-62660000D03*
X158902500Y-62010000D03*
%TD*%
D29*
%TO.C,R41*%
X122875000Y-99600000D03*
X125800000Y-99600000D03*
%TD*%
D12*
%TO.C,C28*%
X165300000Y-63465000D03*
X165300000Y-62505000D03*
%TD*%
D30*
%TO.C,PS2*%
X166950000Y-86376250D03*
X166000000Y-86376250D03*
X165050000Y-86376250D03*
X165050000Y-83866250D03*
X166000000Y-83866250D03*
X166950000Y-83866250D03*
%TD*%
D20*
%TO.C,C18*%
X170250000Y-73066250D03*
X167300000Y-73066250D03*
%TD*%
D31*
%TO.C,C20*%
X174250000Y-70300000D03*
X174250000Y-73250000D03*
%TD*%
D32*
%TO.C,C16*%
X176887500Y-75487500D03*
X176887500Y-73412500D03*
%TD*%
D26*
%TO.C,MAX1*%
X139800000Y-57952500D03*
X138180000Y-57952500D03*
X139800000Y-59572500D03*
X138180000Y-59572500D03*
D27*
X137690000Y-56325000D03*
X138340000Y-56325000D03*
X138990000Y-56325000D03*
X139640000Y-56325000D03*
X140290000Y-56325000D03*
D28*
X141427500Y-57462500D03*
X141427500Y-58112500D03*
X141427500Y-58762500D03*
X141427500Y-59412500D03*
X141427500Y-60062500D03*
D27*
X140290000Y-61200000D03*
X139640000Y-61200000D03*
X138990000Y-61200000D03*
X138340000Y-61200000D03*
X137690000Y-61200000D03*
D28*
X136552500Y-60062500D03*
X136552500Y-59412500D03*
X136552500Y-58762500D03*
X136552500Y-58112500D03*
X136552500Y-57462500D03*
%TD*%
D12*
%TO.C,C24*%
X167462500Y-63290000D03*
X167462500Y-62330000D03*
%TD*%
%TO.C,C25*%
X176600000Y-57825000D03*
X176600000Y-56865000D03*
%TD*%
D14*
%TO.C,C33*%
X157500000Y-60656250D03*
X157500000Y-61616250D03*
%TD*%
D12*
%TO.C,C26*%
X142690000Y-59605000D03*
X142690000Y-58645000D03*
%TD*%
%TO.C,C29*%
X175012500Y-64110000D03*
X175012500Y-63150000D03*
%TD*%
D29*
%TO.C,R25*%
X178550000Y-51775000D03*
X181475000Y-51775000D03*
%TD*%
D33*
%TO.C,R20*%
X168050000Y-77366250D03*
X166225000Y-77366250D03*
%TD*%
D34*
%TO.C,C9*%
X181080000Y-79400000D03*
X180120000Y-79400000D03*
%TD*%
D22*
%TO.C,C44*%
X147775000Y-72050000D03*
X147775000Y-69100000D03*
%TD*%
D35*
%TO.C,C10*%
X166662500Y-91650000D03*
X169612500Y-91650000D03*
%TD*%
D29*
%TO.C,R22*%
X150000000Y-54060000D03*
X152925000Y-54060000D03*
%TD*%
D25*
%TO.C,R51*%
X144025000Y-81550000D03*
X145045000Y-81550000D03*
%TD*%
D14*
%TO.C,C34*%
X167720000Y-59990000D03*
X167720000Y-60950000D03*
%TD*%
D31*
%TO.C,C38*%
X145375000Y-72650000D03*
X145375000Y-75600000D03*
%TD*%
D26*
%TO.C,MAX2*%
X152000000Y-58000000D03*
X150380000Y-58000000D03*
X152000000Y-59620000D03*
X150380000Y-59620000D03*
D27*
X149890000Y-56372500D03*
X150540000Y-56372500D03*
X151190000Y-56372500D03*
X151840000Y-56372500D03*
X152490000Y-56372500D03*
D28*
X153627500Y-57510000D03*
X153627500Y-58160000D03*
X153627500Y-58810000D03*
X153627500Y-59460000D03*
X153627500Y-60110000D03*
D27*
X152490000Y-61247500D03*
X151840000Y-61247500D03*
X151190000Y-61247500D03*
X150540000Y-61247500D03*
X149890000Y-61247500D03*
D28*
X148752500Y-60110000D03*
X148752500Y-59460000D03*
X148752500Y-58810000D03*
X148752500Y-58160000D03*
X148752500Y-57510000D03*
%TD*%
D29*
%TO.C,R21*%
X137590000Y-54100000D03*
X140515000Y-54100000D03*
%TD*%
D26*
%TO.C,MAX5*%
X181050000Y-56040000D03*
X179430000Y-56040000D03*
X181050000Y-57660000D03*
X179430000Y-57660000D03*
D27*
X178940000Y-54412500D03*
X179590000Y-54412500D03*
X180240000Y-54412500D03*
X180890000Y-54412500D03*
X181540000Y-54412500D03*
D28*
X182677500Y-55550000D03*
X182677500Y-56200000D03*
X182677500Y-56850000D03*
X182677500Y-57500000D03*
X182677500Y-58150000D03*
D27*
X181540000Y-59287500D03*
X180890000Y-59287500D03*
X180240000Y-59287500D03*
X179590000Y-59287500D03*
X178940000Y-59287500D03*
D28*
X177802500Y-58150000D03*
X177802500Y-57500000D03*
X177802500Y-56850000D03*
X177802500Y-56200000D03*
X177802500Y-55550000D03*
%TD*%
D20*
%TO.C,C19*%
X170250000Y-70571250D03*
X167300000Y-70571250D03*
%TD*%
D29*
%TO.C,R24*%
X169485000Y-58697500D03*
X172410000Y-58697500D03*
%TD*%
D14*
%TO.C,C32*%
X147340000Y-55750000D03*
X147340000Y-56710000D03*
%TD*%
D12*
%TO.C,C22*%
X147340000Y-58958750D03*
X147340000Y-57998750D03*
%TD*%
D36*
%TO.C,C36*%
X180412500Y-70350000D03*
X178337500Y-70350000D03*
%TD*%
M02*
