M48
; DRILL file KiCad 10.0.5 date 2026-08-27T14:55:56
; FORMAT={-:-/ absolute / metric / decimal}
; #@! TF.CreationDate,2026-08-27T14:55:56-05:00
; #@! TF.GenerationSoftware,Kicad,Pcbnew,10.0.5
; #@! TF.FileFunction,MixedPlating,1,2
FMAT,2
METRIC
; #@! TA.AperFunction,Plated,PTH,ViaDrill
T1C0.300
; #@! TA.AperFunction,Plated,PTH,ComponentDrill
T2C0.300
; #@! TA.AperFunction,Plated,PTH,ViaDrill
T3C0.350
; #@! TA.AperFunction,Plated,PTH,ViaDrill
T4C0.400
; #@! TA.AperFunction,Plated,PTH,ViaDrill
T5C0.500
; #@! TA.AperFunction,Plated,PTH,ViaDrill
T6C0.600
; #@! TA.AperFunction,Plated,PTH,ComponentDrill
T7C0.600
; #@! TA.AperFunction,Plated,PTH,ComponentDrill
T8C0.700
; #@! TA.AperFunction,Plated,PTH,ComponentDrill
T9C0.740
; #@! TA.AperFunction,Plated,PTH,ViaDrill
T10C0.800
; #@! TA.AperFunction,Plated,PTH,ComponentDrill
T11C0.800
; #@! TA.AperFunction,Plated,PTH,ComponentDrill
T12C1.000
; #@! TA.AperFunction,Plated,PTH,ComponentDrill
T13C1.100
; #@! TA.AperFunction,Plated,PTH,ComponentDrill
T14C1.300
; #@! TA.AperFunction,Plated,PTH,ComponentDrill
T15C1.400
; #@! TA.AperFunction,Plated,PTH,ComponentDrill
T16C2.150
; #@! TA.AperFunction,NonPlated,NPTH,ComponentDrill
T17C0.710
; #@! TA.AperFunction,NonPlated,NPTH,ComponentDrill
T18C1.200
; #@! TA.AperFunction,NonPlated,NPTH,ComponentDrill
T19C3.200
%
G90
G05
T1
X120.8Y-101.25
X131.075Y-74.525
X131.075Y-76.95
X131.85Y-100.35
X132.0Y-83.1
X132.95Y-53.6
X133.0Y-54.5
X133.8Y-74.6
X133.85Y-76.45
X134.35Y-61.55
X136.05Y-126.6
X136.65Y-89.05
X137.15Y-76.8
X137.425Y-83.65
X137.7Y-62.65
X138.1Y-88.55
X138.125Y-85.05
X138.55Y-69.625
X139.15Y-94.375
X139.817Y-62.633
X140.1Y-74.15
X140.3Y-77.35
X140.5Y-90.7
X140.84Y-75.714
X142.0Y-124.0
X142.115Y-54.95
X142.75Y-87.25
X143.385Y-68.86
X143.385Y-70.11
X143.4Y-71.4
X143.6Y-59.6
X143.65Y-50.4
X143.95Y-80.275
X144.65Y-79.0
X145.05Y-90.15
X145.475Y-81.6
X145.5Y-100.15
X150.1Y-89.2
X150.4Y-62.575
X150.475Y-94.075
X150.85Y-65.45
X151.55Y-62.7
X152.1Y-65.45
X152.442Y-63.658
X152.75Y-93.0
X153.4Y-65.5
X153.4Y-76.45
X153.7Y-89.1
X153.9Y-80.275
X154.375Y-64.95
X154.522Y-123.028
X155.1Y-74.0
X155.6Y-77.55
X155.675Y-59.975
X155.95Y-90.425
X156.2Y-89.1
X156.35Y-51.8
X156.375Y-74.9
X156.4Y-55.874
X156.975Y-76.45
X157.0Y-77.65
X157.194Y-51.7
X157.75Y-85.1
X158.007Y-57.633
X158.27Y-56.825
X158.775Y-53.725
X159.525Y-66.725
X160.075Y-55.75
X160.775Y-76.47
X161.05Y-77.74
X161.325Y-79.01
X161.4Y-66.9
X162.125Y-53.75
X162.425Y-55.125
X164.1Y-80.666
X164.2Y-67.625
X164.475Y-66.35
X164.666Y-64.849
X165.0Y-82.366
X165.05Y-87.971
X165.15Y-64.15
X165.302Y-59.2
X165.5Y-70.725
X165.7Y-54.0
X165.779Y-68.475
X165.9Y-90.15
X166.0Y-82.766
X166.2Y-78.966
X166.425Y-66.35
X167.3Y-65.75
X167.397Y-64.353
X167.8Y-66.825
X167.9Y-82.171
X167.9Y-87.171
X168.15Y-91.175
X168.925Y-66.4
X171.175Y-46.4
X172.425Y-88.075
X172.625Y-91.325
X173.1Y-90.0
X173.522Y-59.205
X173.555Y-67.734
X173.8Y-60.325
X174.55Y-56.525
X174.8Y-66.6
X175.6Y-52.825
X175.9Y-62.275
X176.6Y-52.05
X176.65Y-58.3
X178.375Y-65.95
X178.425Y-79.4
X178.775Y-60.675
X178.975Y-48.8
X179.075Y-77.525
X180.085Y-62.4
X180.25Y-60.45
X181.065Y-60.125
X181.175Y-62.725
X181.925Y-63.35
X183.8Y-49.2
X183.89Y-57.95
T2
X147.835Y-75.87
X147.835Y-77.27
X148.535Y-75.17
X148.535Y-76.57
X148.535Y-77.97
X149.235Y-75.87
X149.235Y-77.27
X149.935Y-75.17
X149.935Y-76.57
X149.935Y-77.97
X150.635Y-75.87
X150.635Y-77.27
T3
X134.05Y-57.05
X138.375Y-71.525
X144.95Y-54.55
X150.9Y-72.05
X160.75Y-54.4
X169.8Y-54.7
X172.025Y-54.7
X172.4Y-71.8
X173.505Y-54.745
X175.45Y-68.6
X176.6Y-54.6
T4
X127.95Y-94.6
X138.3Y-104.8
X142.95Y-108.5
X149.286Y-102.882
X152.425Y-98.425
X152.75Y-103.575
X174.6Y-77.4
X174.6Y-82.9
X177.55Y-80.5
X178.65Y-75.1
X180.65Y-81.575
T5
X157.775Y-102.225
X179.15Y-90.9
T6
X137.25Y-119.25
X137.65Y-110.95
X142.675Y-104.914
X147.6Y-113.6
X149.0Y-124.35
X150.3Y-107.725
X151.675Y-114.025
X153.1Y-110.1
X159.025Y-108.025
T7
X132.85Y-91.35
X134.1Y-91.35
X135.35Y-91.35
X136.6Y-91.35
T8
X127.95Y-86.225
X139.675Y-80.85
T9
X129.3Y-98.98
X129.3Y-106.6
X131.84Y-98.98
X131.84Y-106.6
X134.38Y-98.98
X134.38Y-106.6
X141.6Y-99.7
X141.6Y-107.32
X144.14Y-99.7
X144.14Y-107.32
X146.68Y-99.7
X146.68Y-107.32
X155.2Y-98.5
X155.2Y-106.12
X157.74Y-98.5
X157.74Y-106.12
X160.28Y-98.5
X160.28Y-106.12
T10
X137.45Y-98.25
X145.4Y-104.2
T11
X122.97Y-89.1
X122.97Y-96.72
X125.51Y-89.1
X125.51Y-96.72
X128.05Y-89.1
X128.05Y-96.72
X177.9Y-133.4
X181.4Y-133.4
T12
X132.3Y-110.9
X132.4Y-116.4
X137.9Y-123.5
X137.9Y-131.0
X142.3Y-110.9
X142.4Y-116.4
X145.8Y-110.9
X148.6Y-121.3
X148.6Y-134.3
X150.5Y-116.2
X155.8Y-110.9
X158.6Y-121.3
X158.6Y-134.3
X160.5Y-116.2
X164.64Y-95.35
X165.1Y-127.3
X165.1Y-134.8
X167.18Y-95.35
X169.72Y-95.35
X170.9Y-127.3
X170.9Y-134.8
X172.26Y-95.35
X176.768Y-123.7
X177.3Y-97.55
X177.3Y-105.05
X179.2Y-110.2
X179.2Y-115.2
X181.768Y-123.7
T13
X139.05Y-139.92
X139.05Y-142.46
X139.05Y-145.0
X156.05Y-139.92
X156.05Y-142.46
X156.05Y-145.0
X173.35Y-140.06
X173.35Y-142.6
X173.35Y-145.14
T14
X125.3Y-109.65
X125.3Y-133.4
X126.95Y-67.875
X126.95Y-72.875
T16
X124.8Y-140.0
X132.0Y-140.0
X132.0Y-147.0
X148.0Y-140.2
X148.0Y-147.0
X166.0Y-139.0
X166.0Y-147.0
T17
X133.785Y-71.5
X133.785Y-79.5
T18
X122.1Y-54.0
X122.1Y-64.0
X124.6Y-54.0
X124.6Y-64.0
X128.4Y-42.1
X128.4Y-44.6
X129.6Y-59.0
X133.4Y-49.6
X138.4Y-42.1
X138.4Y-44.6
X141.0Y-42.1
X141.0Y-44.6
X146.0Y-49.6
X151.0Y-42.1
X151.0Y-44.6
X153.6Y-42.1
X153.6Y-44.6
X158.6Y-49.6
X163.6Y-42.1
X163.6Y-44.6
X166.2Y-42.1
X166.2Y-44.6
X171.2Y-49.6
X176.2Y-42.1
X176.2Y-44.6
T19
X123.2Y-43.2
X123.2Y-146.8
X181.8Y-43.2
X181.8Y-146.8
T7
X132.355Y-71.75G85X132.355Y-71.25
G05
X132.355Y-79.75G85X132.355Y-79.25
G05
X135.215Y-71.75G85X135.215Y-71.25
G05
X135.215Y-79.75G85X135.215Y-79.25
G05
T11
X124.6Y-58.65G85X124.6Y-59.35
G05
X128.4Y-49.25G85X128.4Y-49.95
G05
X129.25Y-54.0G85X129.95Y-54.0
G05
X129.25Y-64.0G85X129.95Y-64.0
G05
X133.75Y-44.6G85X133.05Y-44.6
G05
X138.4Y-49.25G85X138.4Y-49.95
G05
X141.0Y-49.25G85X141.0Y-49.95
G05
X146.35Y-44.6G85X145.65Y-44.6
G05
X151.0Y-49.25G85X151.0Y-49.95
G05
X153.6Y-49.25G85X153.6Y-49.95
G05
X158.95Y-44.6G85X158.25Y-44.6
G05
X163.6Y-49.25G85X163.6Y-49.95
G05
X166.2Y-49.25G85X166.2Y-49.95
G05
X171.55Y-44.6G85X170.85Y-44.6
G05
X176.2Y-49.25G85X176.2Y-49.95
G05
T15
X165.4Y-99.7G85X165.4Y-99.1
G05
X165.4Y-103.7G85X165.4Y-103.1
G05
X165.4Y-111.7G85X165.4Y-111.1
G05
X165.4Y-115.7G85X165.4Y-115.1
G05
X165.4Y-119.7G85X165.4Y-119.1
G05
X165.4Y-123.7G85X165.4Y-123.1
G05
M30
