%TF.GenerationSoftware,KiCad,Pcbnew,10.0.5*%
%TF.CreationDate,2026-08-16T21:57:37-05:00*%
%TF.ProjectId,PCB_to_LCD_FPC_REV_H,5043425f-746f-45f4-9c43-445f4650435f,rev?*%
%TF.SameCoordinates,Original*%
%TF.FileFunction,Legend,Top*%
%TF.FilePolarity,Positive*%
%FSLAX46Y46*%
G04 Gerber Fmt 4.6, Leading zero omitted, Abs format (unit mm)*
G04 Created by KiCad (PCBNEW 10.0.5) date 2026-08-16 21:57:37*
%MOMM*%
%LPD*%
G01*
G04 APERTURE LIST*
%ADD10C,0.100000*%
%ADD11C,0.150000*%
%ADD12C,0.127000*%
%ADD13C,0.200000*%
G04 APERTURE END LIST*
D10*
X128471427Y-108364895D02*
X128471427Y-107564895D01*
X128471427Y-107564895D02*
X128776189Y-107564895D01*
X128776189Y-107564895D02*
X128852379Y-107602990D01*
X128852379Y-107602990D02*
X128890474Y-107641085D01*
X128890474Y-107641085D02*
X128928570Y-107717276D01*
X128928570Y-107717276D02*
X128928570Y-107831561D01*
X128928570Y-107831561D02*
X128890474Y-107907752D01*
X128890474Y-107907752D02*
X128852379Y-107945847D01*
X128852379Y-107945847D02*
X128776189Y-107983942D01*
X128776189Y-107983942D02*
X128471427Y-107983942D01*
X129271427Y-107945847D02*
X129538093Y-107945847D01*
X129652379Y-108364895D02*
X129271427Y-108364895D01*
X129271427Y-108364895D02*
X129271427Y-107564895D01*
X129271427Y-107564895D02*
X129652379Y-107564895D01*
X130376189Y-108364895D02*
X129995237Y-108364895D01*
X129995237Y-108364895D02*
X129995237Y-107564895D01*
X131023808Y-108364895D02*
X130642856Y-108364895D01*
X130642856Y-108364895D02*
X130642856Y-107564895D01*
X131290475Y-107945847D02*
X131557141Y-107945847D01*
X131671427Y-108364895D02*
X131290475Y-108364895D01*
X131290475Y-108364895D02*
X131290475Y-107564895D01*
X131290475Y-107564895D02*
X131671427Y-107564895D01*
X131899999Y-107564895D02*
X132357142Y-107564895D01*
X132128570Y-108364895D02*
X132128570Y-107564895D01*
X132623809Y-108364895D02*
X132623809Y-107564895D01*
X132623809Y-107564895D02*
X132928571Y-107564895D01*
X132928571Y-107564895D02*
X133004761Y-107602990D01*
X133004761Y-107602990D02*
X133042856Y-107641085D01*
X133042856Y-107641085D02*
X133080952Y-107717276D01*
X133080952Y-107717276D02*
X133080952Y-107831561D01*
X133080952Y-107831561D02*
X133042856Y-107907752D01*
X133042856Y-107907752D02*
X133004761Y-107945847D01*
X133004761Y-107945847D02*
X132928571Y-107983942D01*
X132928571Y-107983942D02*
X132623809Y-107983942D01*
X133423809Y-108364895D02*
X133423809Y-107564895D01*
X134261904Y-108364895D02*
X133995237Y-107983942D01*
X133804761Y-108364895D02*
X133804761Y-107564895D01*
X133804761Y-107564895D02*
X134109523Y-107564895D01*
X134109523Y-107564895D02*
X134185713Y-107602990D01*
X134185713Y-107602990D02*
X134223808Y-107641085D01*
X134223808Y-107641085D02*
X134261904Y-107717276D01*
X134261904Y-107717276D02*
X134261904Y-107831561D01*
X134261904Y-107831561D02*
X134223808Y-107907752D01*
X134223808Y-107907752D02*
X134185713Y-107945847D01*
X134185713Y-107945847D02*
X134109523Y-107983942D01*
X134109523Y-107983942D02*
X133804761Y-107983942D01*
X134566665Y-108136323D02*
X134947618Y-108136323D01*
X134490475Y-108364895D02*
X134757142Y-107564895D01*
X134757142Y-107564895D02*
X135023808Y-108364895D01*
X135176189Y-107564895D02*
X135633332Y-107564895D01*
X135404760Y-108364895D02*
X135404760Y-107564895D01*
X135899999Y-107945847D02*
X136166665Y-107945847D01*
X136280951Y-108364895D02*
X135899999Y-108364895D01*
X135899999Y-108364895D02*
X135899999Y-107564895D01*
X135899999Y-107564895D02*
X136280951Y-107564895D01*
X137195237Y-107641085D02*
X137233333Y-107602990D01*
X137233333Y-107602990D02*
X137309523Y-107564895D01*
X137309523Y-107564895D02*
X137499999Y-107564895D01*
X137499999Y-107564895D02*
X137576190Y-107602990D01*
X137576190Y-107602990D02*
X137614285Y-107641085D01*
X137614285Y-107641085D02*
X137652380Y-107717276D01*
X137652380Y-107717276D02*
X137652380Y-107793466D01*
X137652380Y-107793466D02*
X137614285Y-107907752D01*
X137614285Y-107907752D02*
X137157142Y-108364895D01*
X137157142Y-108364895D02*
X137652380Y-108364895D01*
X138147619Y-107564895D02*
X138223809Y-107564895D01*
X138223809Y-107564895D02*
X138300000Y-107602990D01*
X138300000Y-107602990D02*
X138338095Y-107641085D01*
X138338095Y-107641085D02*
X138376190Y-107717276D01*
X138376190Y-107717276D02*
X138414285Y-107869657D01*
X138414285Y-107869657D02*
X138414285Y-108060133D01*
X138414285Y-108060133D02*
X138376190Y-108212514D01*
X138376190Y-108212514D02*
X138338095Y-108288704D01*
X138338095Y-108288704D02*
X138300000Y-108326800D01*
X138300000Y-108326800D02*
X138223809Y-108364895D01*
X138223809Y-108364895D02*
X138147619Y-108364895D01*
X138147619Y-108364895D02*
X138071428Y-108326800D01*
X138071428Y-108326800D02*
X138033333Y-108288704D01*
X138033333Y-108288704D02*
X137995238Y-108212514D01*
X137995238Y-108212514D02*
X137957142Y-108060133D01*
X137957142Y-108060133D02*
X137957142Y-107869657D01*
X137957142Y-107869657D02*
X137995238Y-107717276D01*
X137995238Y-107717276D02*
X138033333Y-107641085D01*
X138033333Y-107641085D02*
X138071428Y-107602990D01*
X138071428Y-107602990D02*
X138147619Y-107564895D01*
X138719047Y-107641085D02*
X138757143Y-107602990D01*
X138757143Y-107602990D02*
X138833333Y-107564895D01*
X138833333Y-107564895D02*
X139023809Y-107564895D01*
X139023809Y-107564895D02*
X139100000Y-107602990D01*
X139100000Y-107602990D02*
X139138095Y-107641085D01*
X139138095Y-107641085D02*
X139176190Y-107717276D01*
X139176190Y-107717276D02*
X139176190Y-107793466D01*
X139176190Y-107793466D02*
X139138095Y-107907752D01*
X139138095Y-107907752D02*
X138680952Y-108364895D01*
X138680952Y-108364895D02*
X139176190Y-108364895D01*
X139861905Y-107564895D02*
X139709524Y-107564895D01*
X139709524Y-107564895D02*
X139633333Y-107602990D01*
X139633333Y-107602990D02*
X139595238Y-107641085D01*
X139595238Y-107641085D02*
X139519048Y-107755371D01*
X139519048Y-107755371D02*
X139480952Y-107907752D01*
X139480952Y-107907752D02*
X139480952Y-108212514D01*
X139480952Y-108212514D02*
X139519048Y-108288704D01*
X139519048Y-108288704D02*
X139557143Y-108326800D01*
X139557143Y-108326800D02*
X139633333Y-108364895D01*
X139633333Y-108364895D02*
X139785714Y-108364895D01*
X139785714Y-108364895D02*
X139861905Y-108326800D01*
X139861905Y-108326800D02*
X139900000Y-108288704D01*
X139900000Y-108288704D02*
X139938095Y-108212514D01*
X139938095Y-108212514D02*
X139938095Y-108022038D01*
X139938095Y-108022038D02*
X139900000Y-107945847D01*
X139900000Y-107945847D02*
X139861905Y-107907752D01*
X139861905Y-107907752D02*
X139785714Y-107869657D01*
X139785714Y-107869657D02*
X139633333Y-107869657D01*
X139633333Y-107869657D02*
X139557143Y-107907752D01*
X139557143Y-107907752D02*
X139519048Y-107945847D01*
X139519048Y-107945847D02*
X139480952Y-108022038D01*
X140776191Y-107564895D02*
X141042858Y-108364895D01*
X141042858Y-108364895D02*
X141309524Y-107564895D01*
X141919048Y-107831561D02*
X141919048Y-108364895D01*
X141728572Y-107526800D02*
X141538095Y-108098228D01*
X141538095Y-108098228D02*
X142033334Y-108098228D01*
X143404763Y-108364895D02*
X143138096Y-107983942D01*
X142947620Y-108364895D02*
X142947620Y-107564895D01*
X142947620Y-107564895D02*
X143252382Y-107564895D01*
X143252382Y-107564895D02*
X143328572Y-107602990D01*
X143328572Y-107602990D02*
X143366667Y-107641085D01*
X143366667Y-107641085D02*
X143404763Y-107717276D01*
X143404763Y-107717276D02*
X143404763Y-107831561D01*
X143404763Y-107831561D02*
X143366667Y-107907752D01*
X143366667Y-107907752D02*
X143328572Y-107945847D01*
X143328572Y-107945847D02*
X143252382Y-107983942D01*
X143252382Y-107983942D02*
X142947620Y-107983942D01*
X143747620Y-107945847D02*
X144014286Y-107945847D01*
X144128572Y-108364895D02*
X143747620Y-108364895D01*
X143747620Y-108364895D02*
X143747620Y-107564895D01*
X143747620Y-107564895D02*
X144128572Y-107564895D01*
X144357144Y-107564895D02*
X144623811Y-108364895D01*
X144623811Y-108364895D02*
X144890477Y-107564895D01*
X145157144Y-108060133D02*
X145766668Y-108060133D01*
X146147620Y-108364895D02*
X146147620Y-107564895D01*
X146147620Y-107945847D02*
X146604763Y-107945847D01*
X146604763Y-108364895D02*
X146604763Y-107564895D01*
X147976191Y-108364895D02*
X147595239Y-108364895D01*
X147595239Y-108364895D02*
X147595239Y-107564895D01*
X148700001Y-108288704D02*
X148661905Y-108326800D01*
X148661905Y-108326800D02*
X148547620Y-108364895D01*
X148547620Y-108364895D02*
X148471429Y-108364895D01*
X148471429Y-108364895D02*
X148357143Y-108326800D01*
X148357143Y-108326800D02*
X148280953Y-108250609D01*
X148280953Y-108250609D02*
X148242858Y-108174419D01*
X148242858Y-108174419D02*
X148204762Y-108022038D01*
X148204762Y-108022038D02*
X148204762Y-107907752D01*
X148204762Y-107907752D02*
X148242858Y-107755371D01*
X148242858Y-107755371D02*
X148280953Y-107679180D01*
X148280953Y-107679180D02*
X148357143Y-107602990D01*
X148357143Y-107602990D02*
X148471429Y-107564895D01*
X148471429Y-107564895D02*
X148547620Y-107564895D01*
X148547620Y-107564895D02*
X148661905Y-107602990D01*
X148661905Y-107602990D02*
X148700001Y-107641085D01*
X149042858Y-108364895D02*
X149042858Y-107564895D01*
X149042858Y-107564895D02*
X149233334Y-107564895D01*
X149233334Y-107564895D02*
X149347620Y-107602990D01*
X149347620Y-107602990D02*
X149423810Y-107679180D01*
X149423810Y-107679180D02*
X149461905Y-107755371D01*
X149461905Y-107755371D02*
X149500001Y-107907752D01*
X149500001Y-107907752D02*
X149500001Y-108022038D01*
X149500001Y-108022038D02*
X149461905Y-108174419D01*
X149461905Y-108174419D02*
X149423810Y-108250609D01*
X149423810Y-108250609D02*
X149347620Y-108326800D01*
X149347620Y-108326800D02*
X149233334Y-108364895D01*
X149233334Y-108364895D02*
X149042858Y-108364895D01*
X150338096Y-107564895D02*
X150795239Y-107564895D01*
X150566667Y-108364895D02*
X150566667Y-107564895D01*
X151214287Y-107564895D02*
X151366668Y-107564895D01*
X151366668Y-107564895D02*
X151442858Y-107602990D01*
X151442858Y-107602990D02*
X151519049Y-107679180D01*
X151519049Y-107679180D02*
X151557144Y-107831561D01*
X151557144Y-107831561D02*
X151557144Y-108098228D01*
X151557144Y-108098228D02*
X151519049Y-108250609D01*
X151519049Y-108250609D02*
X151442858Y-108326800D01*
X151442858Y-108326800D02*
X151366668Y-108364895D01*
X151366668Y-108364895D02*
X151214287Y-108364895D01*
X151214287Y-108364895D02*
X151138096Y-108326800D01*
X151138096Y-108326800D02*
X151061906Y-108250609D01*
X151061906Y-108250609D02*
X151023810Y-108098228D01*
X151023810Y-108098228D02*
X151023810Y-107831561D01*
X151023810Y-107831561D02*
X151061906Y-107679180D01*
X151061906Y-107679180D02*
X151138096Y-107602990D01*
X151138096Y-107602990D02*
X151214287Y-107564895D01*
X152509525Y-108364895D02*
X152509525Y-107564895D01*
X152509525Y-107564895D02*
X152814287Y-107564895D01*
X152814287Y-107564895D02*
X152890477Y-107602990D01*
X152890477Y-107602990D02*
X152928572Y-107641085D01*
X152928572Y-107641085D02*
X152966668Y-107717276D01*
X152966668Y-107717276D02*
X152966668Y-107831561D01*
X152966668Y-107831561D02*
X152928572Y-107907752D01*
X152928572Y-107907752D02*
X152890477Y-107945847D01*
X152890477Y-107945847D02*
X152814287Y-107983942D01*
X152814287Y-107983942D02*
X152509525Y-107983942D01*
X153766668Y-108288704D02*
X153728572Y-108326800D01*
X153728572Y-108326800D02*
X153614287Y-108364895D01*
X153614287Y-108364895D02*
X153538096Y-108364895D01*
X153538096Y-108364895D02*
X153423810Y-108326800D01*
X153423810Y-108326800D02*
X153347620Y-108250609D01*
X153347620Y-108250609D02*
X153309525Y-108174419D01*
X153309525Y-108174419D02*
X153271429Y-108022038D01*
X153271429Y-108022038D02*
X153271429Y-107907752D01*
X153271429Y-107907752D02*
X153309525Y-107755371D01*
X153309525Y-107755371D02*
X153347620Y-107679180D01*
X153347620Y-107679180D02*
X153423810Y-107602990D01*
X153423810Y-107602990D02*
X153538096Y-107564895D01*
X153538096Y-107564895D02*
X153614287Y-107564895D01*
X153614287Y-107564895D02*
X153728572Y-107602990D01*
X153728572Y-107602990D02*
X153766668Y-107641085D01*
X154376191Y-107945847D02*
X154490477Y-107983942D01*
X154490477Y-107983942D02*
X154528572Y-108022038D01*
X154528572Y-108022038D02*
X154566668Y-108098228D01*
X154566668Y-108098228D02*
X154566668Y-108212514D01*
X154566668Y-108212514D02*
X154528572Y-108288704D01*
X154528572Y-108288704D02*
X154490477Y-108326800D01*
X154490477Y-108326800D02*
X154414287Y-108364895D01*
X154414287Y-108364895D02*
X154109525Y-108364895D01*
X154109525Y-108364895D02*
X154109525Y-107564895D01*
X154109525Y-107564895D02*
X154376191Y-107564895D01*
X154376191Y-107564895D02*
X154452382Y-107602990D01*
X154452382Y-107602990D02*
X154490477Y-107641085D01*
X154490477Y-107641085D02*
X154528572Y-107717276D01*
X154528572Y-107717276D02*
X154528572Y-107793466D01*
X154528572Y-107793466D02*
X154490477Y-107869657D01*
X154490477Y-107869657D02*
X154452382Y-107907752D01*
X154452382Y-107907752D02*
X154376191Y-107945847D01*
X154376191Y-107945847D02*
X154109525Y-107945847D01*
D11*
X107766666Y-95354819D02*
X107766666Y-96069104D01*
X107766666Y-96069104D02*
X107719047Y-96211961D01*
X107719047Y-96211961D02*
X107623809Y-96307200D01*
X107623809Y-96307200D02*
X107480952Y-96354819D01*
X107480952Y-96354819D02*
X107385714Y-96354819D01*
X108766666Y-96354819D02*
X108195238Y-96354819D01*
X108480952Y-96354819D02*
X108480952Y-95354819D01*
X108480952Y-95354819D02*
X108385714Y-95497676D01*
X108385714Y-95497676D02*
X108290476Y-95592914D01*
X108290476Y-95592914D02*
X108195238Y-95640533D01*
%TO.C,J1*%
D12*
X111525000Y-95075000D02*
X113075000Y-95075000D01*
X111525000Y-108275000D02*
X113075000Y-108275000D01*
X113075000Y-95075000D02*
X113075000Y-95675000D01*
X113075000Y-108275000D02*
X113075000Y-107675000D01*
D13*
X109525000Y-95925000D02*
G75*
G02*
X109325000Y-95925000I-100000J0D01*
G01*
X109325000Y-95925000D02*
G75*
G02*
X109525000Y-95925000I100000J0D01*
G01*
%TD*%
M02*
