%TF.GenerationSoftware,KiCad,Pcbnew,10.0.1*%
%TF.CreationDate,2026-06-30T13:23:00-05:00*%
%TF.ProjectId,PelletPirate_ESP,50656c6c-6574-4506-9972-6174655f4553,rev?*%
%TF.SameCoordinates,Original*%
%TF.FileFunction,Soldermask,Bot*%
%TF.FilePolarity,Negative*%
%FSLAX46Y46*%
G04 Gerber Fmt 4.6, Leading zero omitted, Abs format (unit mm)*
G04 Created by KiCad (PCBNEW 10.0.1) date 2026-06-30 13:23:00*
%MOMM*%
%LPD*%
G01*
G04 APERTURE LIST*
%ADD10C,0.650000*%
%ADD11O,1.204000X2.304000*%
%ADD12O,1.204000X2.004000*%
%ADD13C,1.804000*%
%ADD14R,1.700000X1.700000*%
%ADD15C,1.700000*%
G04 APERTURE END LIST*
D10*
%TO.C,J8*%
X107390000Y-128970000D03*
X113170000Y-128970000D03*
D11*
X105960000Y-128470000D03*
X114600000Y-128470000D03*
D12*
X105960000Y-132650000D03*
X114600000Y-132650000D03*
%TD*%
D13*
%TO.C,S1*%
X96890000Y-129330000D03*
X103390000Y-129330000D03*
X96890000Y-133830000D03*
X103390000Y-133830000D03*
%TD*%
%TO.C,S2*%
X117140000Y-129300000D03*
X123640000Y-129300000D03*
X117140000Y-133800000D03*
X123640000Y-133800000D03*
%TD*%
D14*
%TO.C,J1*%
X97600000Y-71505000D03*
D15*
X97600000Y-74045000D03*
X97600000Y-76585000D03*
X97600000Y-79125000D03*
X97600000Y-81665000D03*
X97600000Y-84205000D03*
X97600000Y-86745000D03*
X97600000Y-89285000D03*
X97600000Y-91825000D03*
X97600000Y-94365000D03*
X97600000Y-96905000D03*
X97600000Y-99445000D03*
X97600000Y-101985000D03*
X97600000Y-104525000D03*
X97600000Y-107065000D03*
X97600000Y-109605000D03*
X97600000Y-112145000D03*
X97600000Y-114685000D03*
X97600000Y-117225000D03*
X97600000Y-119765000D03*
%TD*%
D14*
%TO.C,J2*%
X122995000Y-71505000D03*
D15*
X122995000Y-74045000D03*
X122995000Y-76585000D03*
X122995000Y-79125000D03*
X122995000Y-81665000D03*
X122995000Y-84205000D03*
X122995000Y-86745000D03*
X122995000Y-89285000D03*
X122995000Y-91825000D03*
X122995000Y-94365000D03*
X122995000Y-96905000D03*
X122995000Y-99445000D03*
X122995000Y-101985000D03*
X122995000Y-104525000D03*
X122995000Y-107065000D03*
X122995000Y-109605000D03*
X122995000Y-112145000D03*
X122995000Y-114685000D03*
X122995000Y-117225000D03*
X122995000Y-119765000D03*
%TD*%
M02*
