%TF.GenerationSoftware,KiCad,Pcbnew,10.0.1*%
%TF.CreationDate,2026-06-30T13:23:00-05:00*%
%TF.ProjectId,PelletPirate_ESP,50656c6c-6574-4506-9972-6174655f4553,rev?*%
%TF.SameCoordinates,Original*%
%TF.FileFunction,Legend,Bot*%
%TF.FilePolarity,Positive*%
%FSLAX46Y46*%
G04 Gerber Fmt 4.6, Leading zero omitted, Abs format (unit mm)*
G04 Created by KiCad (PCBNEW 10.0.1) date 2026-06-30 13:23:00*
%MOMM*%
%LPD*%
G01*
G04 APERTURE LIST*
%ADD10C,0.150000*%
%ADD11C,0.120000*%
%ADD12C,0.650000*%
%ADD13O,1.204000X2.304000*%
%ADD14O,1.204000X2.004000*%
%ADD15C,1.804000*%
%ADD16R,1.700000X1.700000*%
%ADD17C,1.700000*%
G04 APERTURE END LIST*
D10*
X97933333Y-68579819D02*
X97933333Y-69294104D01*
X97933333Y-69294104D02*
X97980952Y-69436961D01*
X97980952Y-69436961D02*
X98076190Y-69532200D01*
X98076190Y-69532200D02*
X98219047Y-69579819D01*
X98219047Y-69579819D02*
X98314285Y-69579819D01*
X96933333Y-69579819D02*
X97504761Y-69579819D01*
X97219047Y-69579819D02*
X97219047Y-68579819D01*
X97219047Y-68579819D02*
X97314285Y-68722676D01*
X97314285Y-68722676D02*
X97409523Y-68817914D01*
X97409523Y-68817914D02*
X97504761Y-68865533D01*
X123233333Y-68454819D02*
X123233333Y-69169104D01*
X123233333Y-69169104D02*
X123280952Y-69311961D01*
X123280952Y-69311961D02*
X123376190Y-69407200D01*
X123376190Y-69407200D02*
X123519047Y-69454819D01*
X123519047Y-69454819D02*
X123614285Y-69454819D01*
X122804761Y-68550057D02*
X122757142Y-68502438D01*
X122757142Y-68502438D02*
X122661904Y-68454819D01*
X122661904Y-68454819D02*
X122423809Y-68454819D01*
X122423809Y-68454819D02*
X122328571Y-68502438D01*
X122328571Y-68502438D02*
X122280952Y-68550057D01*
X122280952Y-68550057D02*
X122233333Y-68645295D01*
X122233333Y-68645295D02*
X122233333Y-68740533D01*
X122233333Y-68740533D02*
X122280952Y-68883390D01*
X122280952Y-68883390D02*
X122852380Y-69454819D01*
X122852380Y-69454819D02*
X122233333Y-69454819D01*
%TO.C,J1*%
D11*
X96220000Y-72775000D02*
X96220000Y-121145000D01*
X98980000Y-70125000D02*
X97600000Y-70125000D01*
X98980000Y-71505000D02*
X98980000Y-70125000D01*
X98980000Y-72775000D02*
X96220000Y-72775000D01*
X98980000Y-72775000D02*
X98980000Y-121145000D01*
X98980000Y-121145000D02*
X96220000Y-121145000D01*
%TO.C,J2*%
X121615000Y-72775000D02*
X121615000Y-121145000D01*
X124375000Y-70125000D02*
X122995000Y-70125000D01*
X124375000Y-71505000D02*
X124375000Y-70125000D01*
X124375000Y-72775000D02*
X121615000Y-72775000D01*
X124375000Y-72775000D02*
X124375000Y-121145000D01*
X124375000Y-121145000D02*
X121615000Y-121145000D01*
%TD*%
%LPC*%
D12*
%TO.C,J8*%
X107390000Y-128970000D03*
X113170000Y-128970000D03*
D13*
X105960000Y-128470000D03*
X114600000Y-128470000D03*
D14*
X105960000Y-132650000D03*
X114600000Y-132650000D03*
%TD*%
D15*
%TO.C,S1*%
X96890000Y-129330000D03*
X103390000Y-129330000D03*
X96890000Y-133830000D03*
X103390000Y-133830000D03*
%TD*%
%TO.C,S2*%
X117140000Y-129300000D03*
X123640000Y-129300000D03*
X117140000Y-133800000D03*
X123640000Y-133800000D03*
%TD*%
D16*
%TO.C,J1*%
X97600000Y-71505000D03*
D17*
X97600000Y-74045000D03*
X97600000Y-76585000D03*
X97600000Y-79125000D03*
X97600000Y-81665000D03*
X97600000Y-84205000D03*
X97600000Y-86745000D03*
X97600000Y-89285000D03*
X97600000Y-91825000D03*
X97600000Y-94365000D03*
X97600000Y-96905000D03*
X97600000Y-99445000D03*
X97600000Y-101985000D03*
X97600000Y-104525000D03*
X97600000Y-107065000D03*
X97600000Y-109605000D03*
X97600000Y-112145000D03*
X97600000Y-114685000D03*
X97600000Y-117225000D03*
X97600000Y-119765000D03*
%TD*%
D16*
%TO.C,J2*%
X122995000Y-71505000D03*
D17*
X122995000Y-74045000D03*
X122995000Y-76585000D03*
X122995000Y-79125000D03*
X122995000Y-81665000D03*
X122995000Y-84205000D03*
X122995000Y-86745000D03*
X122995000Y-89285000D03*
X122995000Y-91825000D03*
X122995000Y-94365000D03*
X122995000Y-96905000D03*
X122995000Y-99445000D03*
X122995000Y-101985000D03*
X122995000Y-104525000D03*
X122995000Y-107065000D03*
X122995000Y-109605000D03*
X122995000Y-112145000D03*
X122995000Y-114685000D03*
X122995000Y-117225000D03*
X122995000Y-119765000D03*
%TD*%
%LPD*%
M02*
