%TF.GenerationSoftware,KiCad,Pcbnew,10.0.1*%
%TF.CreationDate,2026-06-30T13:23:00-05:00*%
%TF.ProjectId,PelletPirate_ESP,50656c6c-6574-4506-9972-6174655f4553,rev?*%
%TF.SameCoordinates,Original*%
%TF.FileFunction,Copper,L2,Bot*%
%TF.FilePolarity,Positive*%
%FSLAX46Y46*%
G04 Gerber Fmt 4.6, Leading zero omitted, Abs format (unit mm)*
G04 Created by KiCad (PCBNEW 10.0.1) date 2026-06-30 13:23:00*
%MOMM*%
%LPD*%
G01*
G04 APERTURE LIST*
%TA.AperFunction,ComponentPad*%
%ADD10O,1.000000X2.100000*%
%TD*%
%TA.AperFunction,ComponentPad*%
%ADD11O,1.000000X1.800000*%
%TD*%
%TA.AperFunction,ComponentPad*%
%ADD12C,1.600000*%
%TD*%
%TA.AperFunction,HeatsinkPad*%
%ADD13C,0.600000*%
%TD*%
%TA.AperFunction,ComponentPad*%
%ADD14R,1.700000X1.700000*%
%TD*%
%TA.AperFunction,ComponentPad*%
%ADD15C,1.700000*%
%TD*%
%TA.AperFunction,ViaPad*%
%ADD16C,0.600000*%
%TD*%
%TA.AperFunction,ViaPad*%
%ADD17C,0.800000*%
%TD*%
%TA.AperFunction,Conductor*%
%ADD18C,0.300000*%
%TD*%
%TA.AperFunction,Conductor*%
%ADD19C,0.500000*%
%TD*%
G04 APERTURE END LIST*
D10*
%TO.P,J8,SH1,GND_SH1*%
%TO.N,GND*%
X105960000Y-128470000D03*
%TO.P,J8,SH2,GND_SH2*%
X114600000Y-128470000D03*
D11*
%TO.P,J8,SH3,GND_SH3*%
X105960000Y-132650000D03*
%TO.P,J8,SH4,GND_SH4*%
X114600000Y-132650000D03*
%TD*%
D12*
%TO.P,S1,1,1_1*%
%TO.N,/EN_in*%
X96890000Y-129330000D03*
%TO.P,S1,2,2_2*%
X103390000Y-129330000D03*
%TO.P,S1,3,3_3*%
%TO.N,GND*%
X96890000Y-133830000D03*
%TO.P,S1,4,4_4*%
X103390000Y-133830000D03*
%TD*%
%TO.P,S2,1,1_1*%
%TO.N,/IO0*%
X117140000Y-129300000D03*
%TO.P,S2,2,2_2*%
X123640000Y-129300000D03*
%TO.P,S2,3,3_3*%
%TO.N,GND*%
X117140000Y-133800000D03*
%TO.P,S2,4,4_4*%
X123640000Y-133800000D03*
%TD*%
D13*
%TO.P,ESP1,41*%
%TO.N,N/C*%
X107340000Y-81360000D03*
X107340000Y-82760000D03*
X108040000Y-80660000D03*
X108040000Y-82060000D03*
X108040000Y-83460000D03*
X108740000Y-81360000D03*
X108740000Y-82760000D03*
X109440000Y-80660000D03*
X109440000Y-82060000D03*
X109440000Y-83460000D03*
X110140000Y-81360000D03*
X110140000Y-82760000D03*
%TD*%
D14*
%TO.P,J1,1,GND_1*%
%TO.N,GND*%
X97600000Y-71505000D03*
D15*
%TO.P,J1,2,3V3_2*%
%TO.N,+3.3V*%
X97600000Y-74045000D03*
%TO.P,J1,3,EN_3*%
%TO.N,/EN_in*%
X97600000Y-76585000D03*
%TO.P,J1,4,Pin_4_4*%
%TO.N,/IO4*%
X97600000Y-79125000D03*
%TO.P,J1,5,Pin_5_5*%
%TO.N,/IO5*%
X97600000Y-81665000D03*
%TO.P,J1,6,Pin_6_6*%
%TO.N,/IO6*%
X97600000Y-84205000D03*
%TO.P,J1,7,Pin_7_7*%
%TO.N,/IO7*%
X97600000Y-86745000D03*
%TO.P,J1,8,Pin_8_8*%
%TO.N,/IO15*%
X97600000Y-89285000D03*
%TO.P,J1,9,Pin_9_9*%
%TO.N,/IO16*%
X97600000Y-91825000D03*
%TO.P,J1,10,Pin_10_10*%
%TO.N,/IO17*%
X97600000Y-94365000D03*
%TO.P,J1,11,Pin_11_11*%
%TO.N,/IO18*%
X97600000Y-96905000D03*
%TO.P,J1,12,Pin_12_12*%
%TO.N,/IO8*%
X97600000Y-99445000D03*
%TO.P,J1,13,Pin_13_13*%
%TO.N,/USB_D-*%
X97600000Y-101985000D03*
%TO.P,J1,14,Pin_14_14*%
%TO.N,/USB_D+*%
X97600000Y-104525000D03*
%TO.P,J1,15,Pin_15_15*%
%TO.N,/IO3*%
X97600000Y-107065000D03*
%TO.P,J1,16,Pin_16_16*%
%TO.N,/IO46*%
X97600000Y-109605000D03*
%TO.P,J1,17,Pin_17_17*%
%TO.N,/IO9*%
X97600000Y-112145000D03*
%TO.P,J1,18,Pin_18_18*%
%TO.N,/IO10*%
X97600000Y-114685000D03*
%TO.P,J1,19,Pin_19_19*%
%TO.N,/IO11*%
X97600000Y-117225000D03*
%TO.P,J1,20,Pin_20_20*%
%TO.N,/IO12*%
X97600000Y-119765000D03*
%TD*%
D14*
%TO.P,J2,21,PIn_21_21*%
%TO.N,/IO13*%
X122995000Y-71505000D03*
D15*
%TO.P,J2,22,PIn_22_22*%
%TO.N,/IO14*%
X122995000Y-74045000D03*
%TO.P,J2,23,Pin_23_23*%
%TO.N,/IO21*%
X122995000Y-76585000D03*
%TO.P,J2,24,Pin_24_24*%
%TO.N,/IO47*%
X122995000Y-79125000D03*
%TO.P,J2,25,Pin_25_25*%
%TO.N,/IO48*%
X122995000Y-81665000D03*
%TO.P,J2,26,Pin_26_26*%
%TO.N,/IO45*%
X122995000Y-84205000D03*
%TO.P,J2,27,Pin_27_27*%
%TO.N,/IO0*%
X122995000Y-86745000D03*
%TO.P,J2,28,Pin_28_28*%
%TO.N,unconnected-(J2-Pin_28-Pad28)*%
X122995000Y-89285000D03*
%TO.P,J2,29,Pin_29_29*%
%TO.N,unconnected-(J2-Pin_29-Pad29)*%
X122995000Y-91825000D03*
%TO.P,J2,30,Pin_30_30*%
%TO.N,unconnected-(J2-Pin_30-Pad30)*%
X122995000Y-94365000D03*
%TO.P,J2,31,Pin_31_31*%
%TO.N,/IO38*%
X122995000Y-96905000D03*
%TO.P,J2,32,Pin_32_32*%
%TO.N,/IO39*%
X122995000Y-99445000D03*
%TO.P,J2,33,Pin_33_33*%
%TO.N,/IO40*%
X122995000Y-101985000D03*
%TO.P,J2,34,Pin_34_34*%
%TO.N,/IO41*%
X122995000Y-104525000D03*
%TO.P,J2,35,Pin_35_35*%
%TO.N,/IO42*%
X122995000Y-107065000D03*
%TO.P,J2,36,Pin_36_36*%
%TO.N,/RXD0*%
X122995000Y-109605000D03*
%TO.P,J2,37,Pin_37_37*%
%TO.N,/TXD0*%
X122995000Y-112145000D03*
%TO.P,J2,38,Pin_38_38*%
%TO.N,/IO2*%
X122995000Y-114685000D03*
%TO.P,J2,39,Pin_39_39*%
%TO.N,/IO1*%
X122995000Y-117225000D03*
%TO.P,J2,40,Pin_40_40*%
%TO.N,GND*%
X122995000Y-119765000D03*
%TD*%
D16*
%TO.N,GND*%
X119700000Y-110900000D03*
X107500000Y-123900000D03*
X96400000Y-131600000D03*
X103500000Y-94900000D03*
X99900000Y-73300000D03*
X115200000Y-108400000D03*
X110285000Y-68760000D03*
%TO.N,+3.3V*%
X107100000Y-103700000D03*
X103400000Y-77000000D03*
%TO.N,/USB_D-*%
X103300000Y-89600000D03*
X102500000Y-118500000D03*
X99200000Y-104500000D03*
%TO.N,VBUS*%
X107900000Y-126500000D03*
D17*
X113500000Y-123900000D03*
D16*
%TO.N,/USB_D+*%
X101700000Y-117400000D03*
X103300000Y-90700000D03*
%TO.N,Net-(J8-CC2)*%
X113500000Y-125400000D03*
X111700000Y-126300000D03*
%TO.N,/IO8*%
X103300000Y-88300000D03*
%TO.N,/IO48*%
X114900000Y-81600000D03*
%TO.N,/IO45*%
X115300000Y-82500000D03*
%TO.N,/IO38*%
X117200000Y-86000000D03*
%TO.N,/IO39*%
X117400000Y-84400000D03*
%TO.N,/IO40*%
X116500000Y-84100000D03*
%TO.N,/IO41*%
X116100000Y-83300000D03*
%TO.N,/IO42*%
X115100000Y-80700000D03*
%TO.N,/RXD0*%
X120600000Y-93800000D03*
X121000000Y-86300000D03*
%TO.N,/TXD0*%
X116600000Y-78100000D03*
%TO.N,/IO2*%
X121000000Y-83500000D03*
%TD*%
%TO.N,GND*%
D18*
X117700000Y-110900000D02*
X115200000Y-108400000D01*
X119700000Y-110900000D02*
X117700000Y-110900000D01*
%TO.N,+3.3V*%
X106400000Y-88700000D02*
X103400000Y-85700000D01*
X107100000Y-99600000D02*
X106400000Y-98900000D01*
X107100000Y-103700000D02*
X107100000Y-99600000D01*
X103400000Y-85700000D02*
X103400000Y-77000000D01*
X106400000Y-98900000D02*
X106400000Y-88700000D01*
%TO.N,/USB_D-*%
X102500000Y-118500000D02*
X102500000Y-106400000D01*
X100600000Y-104500000D02*
X99200000Y-104500000D01*
X102500000Y-106400000D02*
X100600000Y-104500000D01*
X99700000Y-88400000D02*
X99700000Y-99885000D01*
X102100000Y-88400000D02*
X99700000Y-88400000D01*
X99700000Y-99885000D02*
X97600000Y-101985000D01*
X103300000Y-89600000D02*
X102100000Y-88400000D01*
%TO.N,VBUS*%
D19*
X113500000Y-123900000D02*
X110500000Y-123900000D01*
X110500000Y-123900000D02*
X107900000Y-126500000D01*
%TO.N,/USB_D+*%
D18*
X103300000Y-90700000D02*
X102400000Y-89800000D01*
X100200000Y-89900000D02*
X100200000Y-101925000D01*
X101700000Y-108625000D02*
X97600000Y-104525000D01*
X102400000Y-89700000D02*
X100400000Y-89700000D01*
X100400000Y-89700000D02*
X100200000Y-89900000D01*
X100200000Y-101925000D02*
X97600000Y-104525000D01*
X102400000Y-89800000D02*
X102400000Y-89700000D01*
X101700000Y-117400000D02*
X101700000Y-108625000D01*
%TO.N,Net-(J8-CC2)*%
X112600000Y-125400000D02*
X111700000Y-126300000D01*
X113500000Y-125400000D02*
X112600000Y-125400000D01*
%TO.N,/IO8*%
X103300000Y-88300000D02*
X102600000Y-87600000D01*
X99100000Y-97945000D02*
X97600000Y-99445000D01*
X102600000Y-87600000D02*
X99100000Y-87600000D01*
X99100000Y-87600000D02*
X99100000Y-97945000D01*
%TO.N,/IO48*%
X114965000Y-81665000D02*
X122995000Y-81665000D01*
X114900000Y-81600000D02*
X114965000Y-81665000D01*
%TO.N,/IO45*%
X121290000Y-82500000D02*
X122995000Y-84205000D01*
X115300000Y-82500000D02*
X121290000Y-82500000D01*
%TO.N,/IO38*%
X117200000Y-86000000D02*
X117200000Y-86500000D01*
X114800000Y-96600000D02*
X115105000Y-96905000D01*
X117200000Y-86500000D02*
X114800000Y-88900000D01*
X115105000Y-96905000D02*
X122995000Y-96905000D01*
X114800000Y-88900000D02*
X114800000Y-96600000D01*
%TO.N,/IO39*%
X114200000Y-88300000D02*
X114600000Y-88300000D01*
X114600000Y-88300000D02*
X116300000Y-86600000D01*
X116300000Y-86600000D02*
X116300000Y-85900000D01*
X114200000Y-99700000D02*
X114200000Y-88300000D01*
X117100000Y-84700000D02*
X117400000Y-84400000D01*
X117100000Y-85100000D02*
X117100000Y-84700000D01*
X116300000Y-85900000D02*
X117100000Y-85100000D01*
X122995000Y-99445000D02*
X121540000Y-100900000D01*
X121540000Y-100900000D02*
X115600000Y-100900000D01*
X115500000Y-101000000D02*
X114200000Y-99700000D01*
X115600000Y-100900000D02*
X115500000Y-101000000D01*
%TO.N,/IO40*%
X116500000Y-84800000D02*
X113700000Y-87600000D01*
X113700000Y-100600000D02*
X115400000Y-102300000D01*
X115400000Y-102300000D02*
X120500000Y-102300000D01*
X116500000Y-84100000D02*
X116500000Y-84800000D01*
X120500000Y-102300000D02*
X120815000Y-101985000D01*
X120815000Y-101985000D02*
X122995000Y-101985000D01*
X113700000Y-87600000D02*
X113700000Y-100600000D01*
%TO.N,/IO41*%
X112700000Y-86700000D02*
X112700000Y-101900000D01*
X116100000Y-83300000D02*
X112700000Y-86700000D01*
X115600000Y-104800000D02*
X115875000Y-104525000D01*
X112700000Y-101900000D02*
X115600000Y-104800000D01*
X115875000Y-104525000D02*
X122995000Y-104525000D01*
%TO.N,/IO42*%
X116235000Y-107065000D02*
X122995000Y-107065000D01*
X111500000Y-102800000D02*
X116000000Y-107300000D01*
X115100000Y-80700000D02*
X112500000Y-80700000D01*
X112500000Y-80700000D02*
X111500000Y-81700000D01*
X111500000Y-81700000D02*
X111500000Y-102800000D01*
X116000000Y-107300000D02*
X116235000Y-107065000D01*
%TO.N,/RXD0*%
X121000000Y-86300000D02*
X121000000Y-93400000D01*
X121000000Y-93400000D02*
X120600000Y-93800000D01*
%TO.N,/TXD0*%
X111000000Y-105119239D02*
X111000000Y-81492894D01*
X118025761Y-112145000D02*
X111000000Y-105119239D01*
X113392894Y-79100000D02*
X115600000Y-79100000D01*
X111000000Y-81492894D02*
X113392894Y-79100000D01*
X115600000Y-79100000D02*
X116600000Y-78100000D01*
X122995000Y-112145000D02*
X118025761Y-112145000D01*
%TO.N,/IO2*%
X124395000Y-85405000D02*
X124400000Y-85400000D01*
X124400000Y-85400000D02*
X124400000Y-113280000D01*
X124400000Y-113280000D02*
X122995000Y-114685000D01*
X121000000Y-83500000D02*
X121000000Y-83907057D01*
X122497943Y-85405000D02*
X124395000Y-85405000D01*
X121000000Y-83907057D02*
X122497943Y-85405000D01*
%TD*%
%TA.AperFunction,Conductor*%
%TO.N,GND*%
G36*
X124682539Y-65880185D02*
G01*
X124728294Y-65932989D01*
X124739500Y-65984500D01*
X124739500Y-84653192D01*
X124734642Y-84669734D01*
X124734809Y-84686977D01*
X124725002Y-84702564D01*
X124719815Y-84720231D01*
X124706785Y-84731521D01*
X124697603Y-84746117D01*
X124680925Y-84753928D01*
X124667011Y-84765986D01*
X124649946Y-84768439D01*
X124634331Y-84775754D01*
X124599038Y-84776094D01*
X124590993Y-84775016D01*
X124589744Y-84774499D01*
X124464069Y-84749500D01*
X124400488Y-84749500D01*
X124392290Y-84748402D01*
X124367620Y-84737422D01*
X124341713Y-84729815D01*
X124336179Y-84723429D01*
X124328457Y-84719992D01*
X124313638Y-84697415D01*
X124295958Y-84677011D01*
X124294755Y-84668645D01*
X124290118Y-84661581D01*
X124289857Y-84634581D01*
X124286014Y-84607853D01*
X124289524Y-84600165D01*
X124289443Y-84591715D01*
X124290821Y-84587182D01*
X124312246Y-84521243D01*
X124345500Y-84311287D01*
X124345500Y-84098713D01*
X124312246Y-83888757D01*
X124246557Y-83686588D01*
X124150051Y-83497184D01*
X124150049Y-83497181D01*
X124150048Y-83497179D01*
X124025109Y-83325213D01*
X123874786Y-83174890D01*
X123702820Y-83049951D01*
X123702115Y-83049591D01*
X123694054Y-83045485D01*
X123643259Y-82997512D01*
X123626463Y-82929692D01*
X123648999Y-82863556D01*
X123694054Y-82824515D01*
X123702816Y-82820051D01*
X123821943Y-82733501D01*
X123874786Y-82695109D01*
X123874788Y-82695106D01*
X123874792Y-82695104D01*
X124025104Y-82544792D01*
X124025106Y-82544788D01*
X124025109Y-82544786D01*
X124150048Y-82372820D01*
X124150047Y-82372820D01*
X124150051Y-82372816D01*
X124246557Y-82183412D01*
X124312246Y-81981243D01*
X124345500Y-81771287D01*
X124345500Y-81558713D01*
X124312246Y-81348757D01*
X124246557Y-81146588D01*
X124150051Y-80957184D01*
X124150049Y-80957181D01*
X124150048Y-80957179D01*
X124025109Y-80785213D01*
X123874786Y-80634890D01*
X123702820Y-80509951D01*
X123702115Y-80509591D01*
X123694054Y-80505485D01*
X123643259Y-80457512D01*
X123626463Y-80389692D01*
X123648999Y-80323556D01*
X123694054Y-80284515D01*
X123702816Y-80280051D01*
X123724789Y-80264086D01*
X123874786Y-80155109D01*
X123874788Y-80155106D01*
X123874792Y-80155104D01*
X124025104Y-80004792D01*
X124025106Y-80004788D01*
X124025109Y-80004786D01*
X124150048Y-79832820D01*
X124150047Y-79832820D01*
X124150051Y-79832816D01*
X124246557Y-79643412D01*
X124312246Y-79441243D01*
X124345500Y-79231287D01*
X124345500Y-79018713D01*
X124312246Y-78808757D01*
X124246557Y-78606588D01*
X124150051Y-78417184D01*
X124150049Y-78417181D01*
X124150048Y-78417179D01*
X124025109Y-78245213D01*
X123874786Y-78094890D01*
X123702820Y-77969951D01*
X123702115Y-77969591D01*
X123694054Y-77965485D01*
X123643259Y-77917512D01*
X123626463Y-77849692D01*
X123648999Y-77783556D01*
X123694054Y-77744515D01*
X123702816Y-77740051D01*
X123729294Y-77720814D01*
X123874786Y-77615109D01*
X123874788Y-77615106D01*
X123874792Y-77615104D01*
X124025104Y-77464792D01*
X124025106Y-77464788D01*
X124025109Y-77464786D01*
X124150048Y-77292820D01*
X124150047Y-77292820D01*
X124150051Y-77292816D01*
X124246557Y-77103412D01*
X124312246Y-76901243D01*
X124345500Y-76691287D01*
X124345500Y-76478713D01*
X124312246Y-76268757D01*
X124246557Y-76066588D01*
X124150051Y-75877184D01*
X124150049Y-75877181D01*
X124150048Y-75877179D01*
X124025109Y-75705213D01*
X123874786Y-75554890D01*
X123702820Y-75429951D01*
X123702115Y-75429591D01*
X123694054Y-75425485D01*
X123643259Y-75377512D01*
X123626463Y-75309692D01*
X123648999Y-75243556D01*
X123694054Y-75204515D01*
X123702816Y-75200051D01*
X123724789Y-75184086D01*
X123874786Y-75075109D01*
X123874788Y-75075106D01*
X123874792Y-75075104D01*
X124025104Y-74924792D01*
X124025106Y-74924788D01*
X124025109Y-74924786D01*
X124150048Y-74752820D01*
X124150047Y-74752820D01*
X124150051Y-74752816D01*
X124246557Y-74563412D01*
X124312246Y-74361243D01*
X124345500Y-74151287D01*
X124345500Y-73938713D01*
X124312246Y-73728757D01*
X124246557Y-73526588D01*
X124150051Y-73337184D01*
X124150049Y-73337181D01*
X124150048Y-73337179D01*
X124025109Y-73165213D01*
X123911569Y-73051673D01*
X123878084Y-72990350D01*
X123883068Y-72920658D01*
X123924940Y-72864725D01*
X123955915Y-72847810D01*
X124087331Y-72798796D01*
X124202546Y-72712546D01*
X124288796Y-72597331D01*
X124339091Y-72462483D01*
X124345500Y-72402873D01*
X124345499Y-70607128D01*
X124339091Y-70547517D01*
X124288884Y-70412906D01*
X124288797Y-70412671D01*
X124288793Y-70412664D01*
X124202547Y-70297455D01*
X124202544Y-70297452D01*
X124087335Y-70211206D01*
X124087328Y-70211202D01*
X123952482Y-70160908D01*
X123952483Y-70160908D01*
X123892883Y-70154501D01*
X123892881Y-70154500D01*
X123892873Y-70154500D01*
X123892864Y-70154500D01*
X122097129Y-70154500D01*
X122097123Y-70154501D01*
X122037516Y-70160908D01*
X121902671Y-70211202D01*
X121902664Y-70211206D01*
X121787455Y-70297452D01*
X121787452Y-70297455D01*
X121701206Y-70412664D01*
X121701202Y-70412671D01*
X121650908Y-70547517D01*
X121644501Y-70607116D01*
X121644501Y-70607123D01*
X121644500Y-70607135D01*
X121644500Y-72402870D01*
X121644501Y-72402876D01*
X121650908Y-72462483D01*
X121701202Y-72597328D01*
X121701206Y-72597335D01*
X121787452Y-72712544D01*
X121787455Y-72712547D01*
X121902664Y-72798793D01*
X121902671Y-72798797D01*
X122034082Y-72847810D01*
X122090016Y-72889681D01*
X122114433Y-72955145D01*
X122099582Y-73023418D01*
X122078431Y-73051673D01*
X121964889Y-73165215D01*
X121839951Y-73337179D01*
X121743444Y-73526585D01*
X121677753Y-73728760D01*
X121644500Y-73938713D01*
X121644500Y-74151286D01*
X121677753Y-74361239D01*
X121743444Y-74563414D01*
X121839951Y-74752820D01*
X121964890Y-74924786D01*
X122115213Y-75075109D01*
X122287182Y-75200050D01*
X122295946Y-75204516D01*
X122346742Y-75252491D01*
X122363536Y-75320312D01*
X122340998Y-75386447D01*
X122295946Y-75425484D01*
X122287182Y-75429949D01*
X122115213Y-75554890D01*
X121964890Y-75705213D01*
X121839951Y-75877179D01*
X121743444Y-76066585D01*
X121677753Y-76268760D01*
X121644500Y-76478713D01*
X121644500Y-76691286D01*
X121676870Y-76895667D01*
X121677754Y-76901243D01*
X121735460Y-77078844D01*
X121743444Y-77103414D01*
X121839951Y-77292820D01*
X121964890Y-77464786D01*
X122115213Y-77615109D01*
X122287182Y-77740050D01*
X122295946Y-77744516D01*
X122346742Y-77792491D01*
X122363536Y-77860312D01*
X122340998Y-77926447D01*
X122295946Y-77965484D01*
X122287182Y-77969949D01*
X122115213Y-78094890D01*
X121964890Y-78245213D01*
X121839951Y-78417179D01*
X121743444Y-78606585D01*
X121743443Y-78606587D01*
X121743443Y-78606588D01*
X121710598Y-78707672D01*
X121677753Y-78808760D01*
X121644500Y-79018713D01*
X121644500Y-79231286D01*
X121677753Y-79441239D01*
X121743444Y-79643414D01*
X121839951Y-79832820D01*
X121964890Y-80004786D01*
X122115213Y-80155109D01*
X122287182Y-80280050D01*
X122295946Y-80284516D01*
X122346742Y-80332491D01*
X122363536Y-80400312D01*
X122340998Y-80466447D01*
X122295946Y-80505484D01*
X122287182Y-80509949D01*
X122115213Y-80634890D01*
X121964890Y-80785213D01*
X121837085Y-80961125D01*
X121835740Y-80960148D01*
X121789295Y-81002166D01*
X121735382Y-81014500D01*
X116004719Y-81014500D01*
X115937680Y-80994815D01*
X115891925Y-80942011D01*
X115881981Y-80872853D01*
X115883102Y-80866308D01*
X115900500Y-80778844D01*
X115900500Y-80621155D01*
X115900499Y-80621153D01*
X115894355Y-80590264D01*
X115869737Y-80466503D01*
X115866013Y-80457512D01*
X115809397Y-80320827D01*
X115809390Y-80320814D01*
X115721789Y-80189711D01*
X115721786Y-80189707D01*
X115610292Y-80078213D01*
X115610288Y-80078210D01*
X115479185Y-79990609D01*
X115479178Y-79990605D01*
X115475451Y-79989062D01*
X115421047Y-79945222D01*
X115398981Y-79878928D01*
X115416259Y-79811229D01*
X115467395Y-79763617D01*
X115522902Y-79750500D01*
X115664071Y-79750500D01*
X115748615Y-79733682D01*
X115789744Y-79725501D01*
X115908127Y-79676465D01*
X116014669Y-79605277D01*
X116702931Y-78917013D01*
X116764252Y-78883530D01*
X116766317Y-78883099D01*
X116833497Y-78869737D01*
X116979179Y-78809394D01*
X117110289Y-78721789D01*
X117221789Y-78610289D01*
X117309394Y-78479179D01*
X117369737Y-78333497D01*
X117400500Y-78178842D01*
X117400500Y-78021158D01*
X117400500Y-78021155D01*
X117400499Y-78021153D01*
X117383079Y-77933579D01*
X117369737Y-77866503D01*
X117357333Y-77836557D01*
X117309397Y-77720827D01*
X117309390Y-77720814D01*
X117221789Y-77589711D01*
X117221786Y-77589707D01*
X117110292Y-77478213D01*
X117110288Y-77478210D01*
X116979185Y-77390609D01*
X116979172Y-77390602D01*
X116833501Y-77330264D01*
X116833489Y-77330261D01*
X116678845Y-77299500D01*
X116678842Y-77299500D01*
X116521158Y-77299500D01*
X116521155Y-77299500D01*
X116366510Y-77330261D01*
X116366498Y-77330264D01*
X116220827Y-77390602D01*
X116220814Y-77390609D01*
X116089711Y-77478210D01*
X116089707Y-77478213D01*
X115978213Y-77589707D01*
X115978210Y-77589711D01*
X115890609Y-77720814D01*
X115890602Y-77720827D01*
X115830264Y-77866498D01*
X115830261Y-77866508D01*
X115816920Y-77933579D01*
X115784535Y-77995490D01*
X115782984Y-77997068D01*
X115366873Y-78413181D01*
X115305550Y-78446666D01*
X115279192Y-78449500D01*
X113328823Y-78449500D01*
X113203155Y-78474497D01*
X113203149Y-78474499D01*
X113084769Y-78523533D01*
X113084760Y-78523538D01*
X112978225Y-78594723D01*
X112978221Y-78594726D01*
X110830194Y-80742753D01*
X110768871Y-80776238D01*
X110699179Y-80771254D01*
X110654832Y-80742753D01*
X110650292Y-80738213D01*
X110650288Y-80738210D01*
X110519185Y-80650609D01*
X110519172Y-80650602D01*
X110373501Y-80590264D01*
X110373492Y-80590261D01*
X110318166Y-80579256D01*
X110256256Y-80546870D01*
X110221682Y-80486154D01*
X110220750Y-80481874D01*
X110209737Y-80426503D01*
X110189049Y-80376557D01*
X110149397Y-80280827D01*
X110149390Y-80280814D01*
X110061789Y-80149711D01*
X110061786Y-80149707D01*
X109950292Y-80038213D01*
X109950288Y-80038210D01*
X109819185Y-79950609D01*
X109819172Y-79950602D01*
X109673501Y-79890264D01*
X109673489Y-79890261D01*
X109518845Y-79859500D01*
X109518842Y-79859500D01*
X109361158Y-79859500D01*
X109361155Y-79859500D01*
X109206510Y-79890261D01*
X109206498Y-79890264D01*
X109060827Y-79950602D01*
X109060814Y-79950609D01*
X108929711Y-80038210D01*
X108929707Y-80038213D01*
X108827681Y-80140240D01*
X108766358Y-80173725D01*
X108696666Y-80168741D01*
X108652319Y-80140240D01*
X108550292Y-80038213D01*
X108550288Y-80038210D01*
X108419185Y-79950609D01*
X108419172Y-79950602D01*
X108273501Y-79890264D01*
X108273489Y-79890261D01*
X108118845Y-79859500D01*
X108118842Y-79859500D01*
X107961158Y-79859500D01*
X107961155Y-79859500D01*
X107806510Y-79890261D01*
X107806498Y-79890264D01*
X107660827Y-79950602D01*
X107660814Y-79950609D01*
X107529711Y-80038210D01*
X107529707Y-80038213D01*
X107418213Y-80149707D01*
X107418210Y-80149711D01*
X107330609Y-80280814D01*
X107330602Y-80280827D01*
X107270264Y-80426498D01*
X107270262Y-80426505D01*
X107259256Y-80481833D01*
X107226870Y-80543743D01*
X107166153Y-80578316D01*
X107161833Y-80579256D01*
X107106505Y-80590262D01*
X107106498Y-80590264D01*
X106960827Y-80650602D01*
X106960814Y-80650609D01*
X106829711Y-80738210D01*
X106829707Y-80738213D01*
X106718213Y-80849707D01*
X106718210Y-80849711D01*
X106630609Y-80980814D01*
X106630602Y-80980827D01*
X106570264Y-81126498D01*
X106570261Y-81126510D01*
X106539500Y-81281153D01*
X106539500Y-81438846D01*
X106570261Y-81593489D01*
X106570264Y-81593501D01*
X106630602Y-81739172D01*
X106630609Y-81739185D01*
X106718210Y-81870288D01*
X106718213Y-81870292D01*
X106820240Y-81972319D01*
X106853725Y-82033642D01*
X106848741Y-82103334D01*
X106820240Y-82147681D01*
X106718213Y-82249707D01*
X106718210Y-82249711D01*
X106630609Y-82380814D01*
X106630602Y-82380827D01*
X106570264Y-82526498D01*
X106570261Y-82526510D01*
X106539500Y-82681153D01*
X106539500Y-82838846D01*
X106570261Y-82993489D01*
X106570264Y-82993501D01*
X106630602Y-83139172D01*
X106630609Y-83139185D01*
X106718210Y-83270288D01*
X106718213Y-83270292D01*
X106829707Y-83381786D01*
X106829711Y-83381789D01*
X106960814Y-83469390D01*
X106960827Y-83469397D01*
X107070082Y-83514651D01*
X107106503Y-83529737D01*
X107161831Y-83540742D01*
X107223740Y-83573126D01*
X107258315Y-83633841D01*
X107259256Y-83638166D01*
X107270261Y-83693492D01*
X107270264Y-83693501D01*
X107330602Y-83839172D01*
X107330609Y-83839185D01*
X107418210Y-83970288D01*
X107418213Y-83970292D01*
X107529707Y-84081786D01*
X107529711Y-84081789D01*
X107660814Y-84169390D01*
X107660827Y-84169397D01*
X107806498Y-84229735D01*
X107806503Y-84229737D01*
X107961153Y-84260499D01*
X107961156Y-84260500D01*
X107961158Y-84260500D01*
X108118844Y-84260500D01*
X108118845Y-84260499D01*
X108273497Y-84229737D01*
X108419179Y-84169394D01*
X108550289Y-84081789D01*
X108557583Y-84074495D01*
X108652319Y-83979760D01*
X108713642Y-83946275D01*
X108783334Y-83951259D01*
X108827681Y-83979760D01*
X108929707Y-84081786D01*
X108929711Y-84081789D01*
X109060814Y-84169390D01*
X109060827Y-84169397D01*
X109206498Y-84229735D01*
X109206503Y-84229737D01*
X109361153Y-84260499D01*
X109361156Y-84260500D01*
X109361158Y-84260500D01*
X109518844Y-84260500D01*
X109518845Y-84260499D01*
X109673497Y-84229737D01*
X109819179Y-84169394D01*
X109950289Y-84081789D01*
X110061789Y-83970289D01*
X110115630Y-83889711D01*
X110122398Y-83879582D01*
X110176010Y-83834777D01*
X110245335Y-83826070D01*
X110308363Y-83856224D01*
X110345082Y-83915668D01*
X110349500Y-83948473D01*
X110349500Y-105183309D01*
X110372812Y-105300499D01*
X110372814Y-105300508D01*
X110374499Y-105308985D01*
X110423533Y-105427364D01*
X110494726Y-105533912D01*
X110494727Y-105533913D01*
X114249572Y-109288757D01*
X117611091Y-112650276D01*
X117630751Y-112663412D01*
X117717634Y-112721465D01*
X117836017Y-112770501D01*
X117836021Y-112770501D01*
X117836022Y-112770502D01*
X117961689Y-112795500D01*
X117961692Y-112795500D01*
X121735382Y-112795500D01*
X121802421Y-112815185D01*
X121836099Y-112849591D01*
X121837085Y-112848875D01*
X121964890Y-113024786D01*
X122115213Y-113175109D01*
X122287182Y-113300050D01*
X122295946Y-113304516D01*
X122346742Y-113352491D01*
X122363536Y-113420312D01*
X122340998Y-113486447D01*
X122295946Y-113525484D01*
X122287182Y-113529949D01*
X122115213Y-113654890D01*
X121964890Y-113805213D01*
X121839951Y-113977179D01*
X121743444Y-114166585D01*
X121677753Y-114368760D01*
X121644500Y-114578713D01*
X121644500Y-114791286D01*
X121677753Y-115001239D01*
X121743444Y-115203414D01*
X121839951Y-115392820D01*
X121964890Y-115564786D01*
X122115213Y-115715109D01*
X122287182Y-115840050D01*
X122295946Y-115844516D01*
X122346742Y-115892491D01*
X122363536Y-115960312D01*
X122340998Y-116026447D01*
X122295946Y-116065484D01*
X122287182Y-116069949D01*
X122115213Y-116194890D01*
X121964890Y-116345213D01*
X121839951Y-116517179D01*
X121743444Y-116706585D01*
X121677753Y-116908760D01*
X121644500Y-117118713D01*
X121644500Y-117331286D01*
X121667870Y-117478842D01*
X121677754Y-117541243D01*
X121707729Y-117633497D01*
X121743444Y-117743414D01*
X121839951Y-117932820D01*
X121964890Y-118104786D01*
X122115213Y-118255109D01*
X122287179Y-118380048D01*
X122287181Y-118380049D01*
X122287184Y-118380051D01*
X122296493Y-118384794D01*
X122347290Y-118432766D01*
X122364087Y-118500587D01*
X122341552Y-118566722D01*
X122296505Y-118605760D01*
X122287446Y-118610376D01*
X122287440Y-118610380D01*
X122233282Y-118649727D01*
X122233282Y-118649728D01*
X122865591Y-119282037D01*
X122802007Y-119299075D01*
X122687993Y-119364901D01*
X122594901Y-119457993D01*
X122529075Y-119572007D01*
X122512037Y-119635591D01*
X121879728Y-119003282D01*
X121879727Y-119003282D01*
X121840380Y-119057439D01*
X121743904Y-119246782D01*
X121678242Y-119448869D01*
X121678242Y-119448872D01*
X121645000Y-119658753D01*
X121645000Y-119871246D01*
X121678242Y-120081127D01*
X121678242Y-120081130D01*
X121743904Y-120283217D01*
X121840375Y-120472550D01*
X121879728Y-120526716D01*
X122512037Y-119894408D01*
X122529075Y-119957993D01*
X122594901Y-120072007D01*
X122687993Y-120165099D01*
X122802007Y-120230925D01*
X122865590Y-120247962D01*
X122233282Y-120880269D01*
X122233282Y-120880270D01*
X122287449Y-120919624D01*
X122476782Y-121016095D01*
X122678870Y-121081757D01*
X122888754Y-121115000D01*
X123101246Y-121115000D01*
X123311127Y-121081757D01*
X123311130Y-121081757D01*
X123513217Y-121016095D01*
X123702554Y-120919622D01*
X123756716Y-120880270D01*
X123756717Y-120880270D01*
X123124408Y-120247962D01*
X123187993Y-120230925D01*
X123302007Y-120165099D01*
X123395099Y-120072007D01*
X123460925Y-119957993D01*
X123477962Y-119894409D01*
X124110270Y-120526717D01*
X124110270Y-120526716D01*
X124149622Y-120472554D01*
X124246095Y-120283217D01*
X124311757Y-120081130D01*
X124311757Y-120081127D01*
X124345000Y-119871246D01*
X124345000Y-119658753D01*
X124311757Y-119448872D01*
X124311757Y-119448869D01*
X124246095Y-119246782D01*
X124149624Y-119057449D01*
X124110270Y-119003282D01*
X124110269Y-119003282D01*
X123477962Y-119635590D01*
X123460925Y-119572007D01*
X123395099Y-119457993D01*
X123302007Y-119364901D01*
X123187993Y-119299075D01*
X123124409Y-119282037D01*
X123756716Y-118649728D01*
X123702547Y-118610373D01*
X123702547Y-118610372D01*
X123693500Y-118605763D01*
X123642706Y-118557788D01*
X123625912Y-118489966D01*
X123648451Y-118423832D01*
X123693508Y-118384793D01*
X123702816Y-118380051D01*
X123822912Y-118292797D01*
X123874786Y-118255109D01*
X123874788Y-118255106D01*
X123874792Y-118255104D01*
X124025104Y-118104792D01*
X124025106Y-118104788D01*
X124025109Y-118104786D01*
X124150048Y-117932820D01*
X124150047Y-117932820D01*
X124150051Y-117932816D01*
X124246557Y-117743412D01*
X124312246Y-117541243D01*
X124345500Y-117331287D01*
X124345500Y-117118713D01*
X124312246Y-116908757D01*
X124246557Y-116706588D01*
X124150051Y-116517184D01*
X124150049Y-116517181D01*
X124150048Y-116517179D01*
X124025109Y-116345213D01*
X123874786Y-116194890D01*
X123702820Y-116069951D01*
X123702115Y-116069591D01*
X123694054Y-116065485D01*
X123643259Y-116017512D01*
X123626463Y-115949692D01*
X123648999Y-115883556D01*
X123694054Y-115844515D01*
X123702816Y-115840051D01*
X123724789Y-115824086D01*
X123874786Y-115715109D01*
X123874788Y-115715106D01*
X123874792Y-115715104D01*
X124025104Y-115564792D01*
X124025106Y-115564788D01*
X124025109Y-115564786D01*
X124150048Y-115392820D01*
X124150047Y-115392820D01*
X124150051Y-115392816D01*
X124246557Y-115203412D01*
X124312246Y-115001243D01*
X124345500Y-114791287D01*
X124345500Y-114578713D01*
X124311484Y-114363945D01*
X124313126Y-114363684D01*
X124316254Y-114301137D01*
X124345657Y-114254288D01*
X124514448Y-114085497D01*
X124527820Y-114072125D01*
X124589142Y-114038641D01*
X124658834Y-114043625D01*
X124714767Y-114085497D01*
X124739184Y-114150961D01*
X124739500Y-114159807D01*
X124739500Y-128260953D01*
X124719815Y-128327992D01*
X124667011Y-128373747D01*
X124597853Y-128383691D01*
X124534297Y-128354666D01*
X124527819Y-128348634D01*
X124487213Y-128308028D01*
X124321613Y-128187715D01*
X124321612Y-128187714D01*
X124321610Y-128187713D01*
X124264653Y-128158691D01*
X124139223Y-128094781D01*
X123944534Y-128031522D01*
X123769995Y-128003878D01*
X123742352Y-127999500D01*
X123537648Y-127999500D01*
X123513329Y-128003351D01*
X123335465Y-128031522D01*
X123140776Y-128094781D01*
X122958386Y-128187715D01*
X122792786Y-128308028D01*
X122648028Y-128452786D01*
X122527715Y-128618386D01*
X122434781Y-128800776D01*
X122371522Y-128995465D01*
X122339500Y-129197648D01*
X122339500Y-129402351D01*
X122371522Y-129604534D01*
X122434781Y-129799223D01*
X122498691Y-129924653D01*
X122527692Y-129981569D01*
X122527715Y-129981613D01*
X122648028Y-130147213D01*
X122792786Y-130291971D01*
X122947749Y-130404556D01*
X122958390Y-130412287D01*
X123074607Y-130471503D01*
X123140776Y-130505218D01*
X123140778Y-130505218D01*
X123140781Y-130505220D01*
X123245137Y-130539127D01*
X123335465Y-130568477D01*
X123436557Y-130584488D01*
X123537648Y-130600500D01*
X123537649Y-130600500D01*
X123742351Y-130600500D01*
X123742352Y-130600500D01*
X123944534Y-130568477D01*
X124139219Y-130505220D01*
X124321610Y-130412287D01*
X124434593Y-130330201D01*
X124487213Y-130291971D01*
X124487215Y-130291968D01*
X124487219Y-130291966D01*
X124527819Y-130251366D01*
X124589142Y-130217881D01*
X124658834Y-130222865D01*
X124714767Y-130264737D01*
X124739184Y-130330201D01*
X124739500Y-130339047D01*
X124739500Y-133002690D01*
X124719815Y-133069729D01*
X124703181Y-133090371D01*
X124122962Y-133670590D01*
X124105925Y-133607007D01*
X124040099Y-133492993D01*
X123947007Y-133399901D01*
X123832993Y-133334075D01*
X123769408Y-133317037D01*
X124365922Y-132720524D01*
X124365921Y-132720523D01*
X124321359Y-132688147D01*
X124321350Y-132688141D01*
X124139031Y-132595244D01*
X123944417Y-132532009D01*
X123742317Y-132500000D01*
X123537683Y-132500000D01*
X123335582Y-132532009D01*
X123140968Y-132595244D01*
X122958644Y-132688143D01*
X122914077Y-132720523D01*
X122914077Y-132720524D01*
X123510591Y-133317037D01*
X123447007Y-133334075D01*
X123332993Y-133399901D01*
X123239901Y-133492993D01*
X123174075Y-133607007D01*
X123157037Y-133670590D01*
X122560524Y-133074077D01*
X122560523Y-133074077D01*
X122528143Y-133118644D01*
X122435244Y-133300968D01*
X122372009Y-133495582D01*
X122340000Y-133697682D01*
X122340000Y-133902317D01*
X122372009Y-134104417D01*
X122435244Y-134299031D01*
X122528141Y-134481350D01*
X122528147Y-134481359D01*
X122560523Y-134525921D01*
X122560524Y-134525922D01*
X123157037Y-133929409D01*
X123174075Y-133992993D01*
X123239901Y-134107007D01*
X123332993Y-134200099D01*
X123447007Y-134265925D01*
X123510591Y-134282962D01*
X122970372Y-134823181D01*
X122909049Y-134856666D01*
X122882691Y-134859500D01*
X117897309Y-134859500D01*
X117830270Y-134839815D01*
X117809628Y-134823181D01*
X117269409Y-134282962D01*
X117332993Y-134265925D01*
X117447007Y-134200099D01*
X117540099Y-134107007D01*
X117605925Y-133992993D01*
X117622962Y-133929409D01*
X118219474Y-134525921D01*
X118251859Y-134481349D01*
X118344755Y-134299031D01*
X118407990Y-134104417D01*
X118440000Y-133902317D01*
X118440000Y-133697682D01*
X118407990Y-133495582D01*
X118344755Y-133300968D01*
X118251859Y-133118650D01*
X118219474Y-133074077D01*
X118219474Y-133074076D01*
X117622962Y-133670589D01*
X117605925Y-133607007D01*
X117540099Y-133492993D01*
X117447007Y-133399901D01*
X117332993Y-133334075D01*
X117269408Y-133317037D01*
X117865922Y-132720524D01*
X117865921Y-132720523D01*
X117821359Y-132688147D01*
X117821350Y-132688141D01*
X117639031Y-132595244D01*
X117444417Y-132532009D01*
X117242317Y-132500000D01*
X117037683Y-132500000D01*
X116835582Y-132532009D01*
X116640968Y-132595244D01*
X116458644Y-132688143D01*
X116414077Y-132720523D01*
X116414077Y-132720524D01*
X117010591Y-133317037D01*
X116947007Y-133334075D01*
X116832993Y-133399901D01*
X116739901Y-133492993D01*
X116674075Y-133607007D01*
X116657037Y-133670590D01*
X116060524Y-133074077D01*
X116060523Y-133074077D01*
X116028143Y-133118644D01*
X115935244Y-133300968D01*
X115872009Y-133495582D01*
X115840000Y-133697682D01*
X115840000Y-133902317D01*
X115872009Y-134104417D01*
X115935244Y-134299031D01*
X116028141Y-134481350D01*
X116028147Y-134481359D01*
X116060523Y-134525921D01*
X116060524Y-134525922D01*
X116657037Y-133929409D01*
X116674075Y-133992993D01*
X116739901Y-134107007D01*
X116832993Y-134200099D01*
X116947007Y-134265925D01*
X117010590Y-134282962D01*
X116470372Y-134823181D01*
X116409049Y-134856666D01*
X116382691Y-134859500D01*
X104492277Y-134859500D01*
X104425238Y-134839815D01*
X104379483Y-134787011D01*
X104369539Y-134717853D01*
X104391959Y-134662614D01*
X104501859Y-134511349D01*
X104594755Y-134329031D01*
X104657990Y-134134417D01*
X104690000Y-133932317D01*
X104690000Y-133727682D01*
X104657990Y-133525582D01*
X104594755Y-133330968D01*
X104501859Y-133148650D01*
X104469474Y-133104077D01*
X104469474Y-133104076D01*
X103872962Y-133700589D01*
X103855925Y-133637007D01*
X103790099Y-133522993D01*
X103697007Y-133429901D01*
X103582993Y-133364075D01*
X103519408Y-133347037D01*
X104094686Y-132771760D01*
X104110002Y-132746222D01*
X104071359Y-132718147D01*
X104071350Y-132718141D01*
X103889031Y-132625244D01*
X103694417Y-132562009D01*
X103492317Y-132530000D01*
X103287683Y-132530000D01*
X103085582Y-132562009D01*
X102890968Y-132625244D01*
X102708644Y-132718143D01*
X102664077Y-132750523D01*
X102664077Y-132750524D01*
X103260591Y-133347037D01*
X103197007Y-133364075D01*
X103082993Y-133429901D01*
X102989901Y-133522993D01*
X102924075Y-133637007D01*
X102907037Y-133700590D01*
X102310524Y-133104077D01*
X102310523Y-133104077D01*
X102278143Y-133148644D01*
X102185244Y-133330968D01*
X102122009Y-133525582D01*
X102090000Y-133727682D01*
X102090000Y-133932317D01*
X102122009Y-134134417D01*
X102185244Y-134329031D01*
X102278140Y-134511349D01*
X102388041Y-134662614D01*
X102411521Y-134728421D01*
X102395696Y-134796475D01*
X102345590Y-134845170D01*
X102287723Y-134859500D01*
X97992277Y-134859500D01*
X97925238Y-134839815D01*
X97879483Y-134787011D01*
X97869539Y-134717853D01*
X97891959Y-134662614D01*
X98001859Y-134511349D01*
X98094755Y-134329031D01*
X98157990Y-134134417D01*
X98190000Y-133932317D01*
X98190000Y-133727682D01*
X98157990Y-133525582D01*
X98094755Y-133330968D01*
X98001859Y-133148650D01*
X97969474Y-133104077D01*
X97969474Y-133104076D01*
X97372962Y-133700589D01*
X97355925Y-133637007D01*
X97290099Y-133522993D01*
X97197007Y-133429901D01*
X97082993Y-133364075D01*
X97019408Y-133347037D01*
X97615922Y-132750524D01*
X97615921Y-132750523D01*
X97571359Y-132718147D01*
X97571350Y-132718141D01*
X97389031Y-132625244D01*
X97194417Y-132562009D01*
X96992317Y-132530000D01*
X96787683Y-132530000D01*
X96585582Y-132562009D01*
X96390968Y-132625244D01*
X96208644Y-132718143D01*
X96164077Y-132750523D01*
X96164077Y-132750524D01*
X96760591Y-133347037D01*
X96697007Y-133364075D01*
X96582993Y-133429901D01*
X96489901Y-133522993D01*
X96424075Y-133637007D01*
X96407037Y-133700590D01*
X95776819Y-133070372D01*
X95762115Y-133043444D01*
X95745523Y-133017626D01*
X95744631Y-133011425D01*
X95743334Y-133009049D01*
X95740500Y-132982691D01*
X95740500Y-132151504D01*
X104960000Y-132151504D01*
X104960000Y-132400000D01*
X105660000Y-132400000D01*
X105660000Y-132900000D01*
X104960000Y-132900000D01*
X104960000Y-133148495D01*
X104998427Y-133341681D01*
X104998430Y-133341693D01*
X105073807Y-133523671D01*
X105073814Y-133523684D01*
X105183248Y-133687462D01*
X105183251Y-133687466D01*
X105322533Y-133826748D01*
X105322537Y-133826751D01*
X105486315Y-133936185D01*
X105486328Y-133936192D01*
X105668308Y-134011569D01*
X105710000Y-134019862D01*
X105710000Y-133216988D01*
X105719940Y-133234205D01*
X105775795Y-133290060D01*
X105844204Y-133329556D01*
X105920504Y-133350000D01*
X105999496Y-133350000D01*
X106075796Y-133329556D01*
X106144205Y-133290060D01*
X106200060Y-133234205D01*
X106210000Y-133216988D01*
X106210000Y-134019862D01*
X106251690Y-134011569D01*
X106251692Y-134011569D01*
X106433671Y-133936192D01*
X106433684Y-133936185D01*
X106597462Y-133826751D01*
X106597466Y-133826748D01*
X106736748Y-133687466D01*
X106736751Y-133687462D01*
X106846185Y-133523684D01*
X106846192Y-133523671D01*
X106921569Y-133341693D01*
X106921572Y-133341681D01*
X106959999Y-133148495D01*
X106960000Y-133148492D01*
X106960000Y-132900000D01*
X106260000Y-132900000D01*
X106260000Y-132400000D01*
X106960000Y-132400000D01*
X106960000Y-132151508D01*
X106959999Y-132151504D01*
X113600000Y-132151504D01*
X113600000Y-132400000D01*
X114300000Y-132400000D01*
X114300000Y-132900000D01*
X113600000Y-132900000D01*
X113600000Y-133148495D01*
X113638427Y-133341681D01*
X113638430Y-133341693D01*
X113713807Y-133523671D01*
X113713814Y-133523684D01*
X113823248Y-133687462D01*
X113823251Y-133687466D01*
X113962533Y-133826748D01*
X113962537Y-133826751D01*
X114126315Y-133936185D01*
X114126328Y-133936192D01*
X114308308Y-134011569D01*
X114350000Y-134019862D01*
X114350000Y-133216988D01*
X114359940Y-133234205D01*
X114415795Y-133290060D01*
X114484204Y-133329556D01*
X114560504Y-133350000D01*
X114639496Y-133350000D01*
X114715796Y-133329556D01*
X114784205Y-133290060D01*
X114840060Y-133234205D01*
X114850000Y-133216988D01*
X114850000Y-134019862D01*
X114891690Y-134011569D01*
X114891692Y-134011569D01*
X115073671Y-133936192D01*
X115073684Y-133936185D01*
X115237462Y-133826751D01*
X115237466Y-133826748D01*
X115376751Y-133687463D01*
X115419206Y-133623925D01*
X115486185Y-133523683D01*
X115486192Y-133523671D01*
X115561569Y-133341693D01*
X115561572Y-133341681D01*
X115599999Y-133148495D01*
X115600000Y-133148492D01*
X115600000Y-132900000D01*
X114900000Y-132900000D01*
X114900000Y-132400000D01*
X115600000Y-132400000D01*
X115600000Y-132151508D01*
X115599999Y-132151504D01*
X115561572Y-131958318D01*
X115561569Y-131958306D01*
X115486192Y-131776328D01*
X115486185Y-131776315D01*
X115376751Y-131612537D01*
X115376748Y-131612533D01*
X115237466Y-131473251D01*
X115237462Y-131473248D01*
X115073684Y-131363814D01*
X115073671Y-131363807D01*
X114891691Y-131288429D01*
X114891683Y-131288427D01*
X114850000Y-131280135D01*
X114850000Y-132083011D01*
X114840060Y-132065795D01*
X114784205Y-132009940D01*
X114715796Y-131970444D01*
X114639496Y-131950000D01*
X114560504Y-131950000D01*
X114484204Y-131970444D01*
X114415795Y-132009940D01*
X114359940Y-132065795D01*
X114350000Y-132083011D01*
X114350000Y-131280136D01*
X114349999Y-131280135D01*
X114308316Y-131288427D01*
X114308308Y-131288429D01*
X114126328Y-131363807D01*
X114126315Y-131363814D01*
X113962537Y-131473248D01*
X113962533Y-131473251D01*
X113823251Y-131612533D01*
X113823248Y-131612537D01*
X113713814Y-131776315D01*
X113713807Y-131776328D01*
X113638430Y-131958306D01*
X113638427Y-131958318D01*
X113600000Y-132151504D01*
X106959999Y-132151504D01*
X106921572Y-131958318D01*
X106921569Y-131958306D01*
X106846192Y-131776328D01*
X106846185Y-131776315D01*
X106736751Y-131612537D01*
X106736748Y-131612533D01*
X106597466Y-131473251D01*
X106597462Y-131473248D01*
X106433684Y-131363814D01*
X106433671Y-131363807D01*
X106251691Y-131288429D01*
X106251683Y-131288427D01*
X106210000Y-131280135D01*
X106210000Y-132083011D01*
X106200060Y-132065795D01*
X106144205Y-132009940D01*
X106075796Y-131970444D01*
X105999496Y-131950000D01*
X105920504Y-131950000D01*
X105844204Y-131970444D01*
X105775795Y-132009940D01*
X105719940Y-132065795D01*
X105710000Y-132083011D01*
X105710000Y-131280136D01*
X105709999Y-131280135D01*
X105668316Y-131288427D01*
X105668308Y-131288429D01*
X105486328Y-131363807D01*
X105486315Y-131363814D01*
X105322537Y-131473248D01*
X105322533Y-131473251D01*
X105183251Y-131612533D01*
X105183248Y-131612537D01*
X105073814Y-131776315D01*
X105073807Y-131776328D01*
X104998430Y-131958306D01*
X104998427Y-131958318D01*
X104960000Y-132151504D01*
X95740500Y-132151504D01*
X95740500Y-130319047D01*
X95760185Y-130252008D01*
X95812989Y-130206253D01*
X95882147Y-130196309D01*
X95945703Y-130225334D01*
X95952181Y-130231366D01*
X96042786Y-130321971D01*
X96167094Y-130412284D01*
X96208390Y-130442287D01*
X96324607Y-130501503D01*
X96390776Y-130535218D01*
X96390778Y-130535218D01*
X96390781Y-130535220D01*
X96493136Y-130568477D01*
X96585465Y-130598477D01*
X96686557Y-130614488D01*
X96787648Y-130630500D01*
X96787649Y-130630500D01*
X96992351Y-130630500D01*
X96992352Y-130630500D01*
X97194534Y-130598477D01*
X97389219Y-130535220D01*
X97571610Y-130442287D01*
X97713709Y-130339047D01*
X97737213Y-130321971D01*
X97737215Y-130321968D01*
X97737219Y-130321966D01*
X97881966Y-130177219D01*
X97881968Y-130177215D01*
X97881971Y-130177213D01*
X97934732Y-130104590D01*
X98002287Y-130011610D01*
X98095220Y-129829219D01*
X98158477Y-129634534D01*
X98190500Y-129432352D01*
X98190500Y-129227648D01*
X102089500Y-129227648D01*
X102089500Y-129432351D01*
X102121522Y-129634534D01*
X102184781Y-129829223D01*
X102240500Y-129938575D01*
X102271394Y-129999209D01*
X102277715Y-130011613D01*
X102398028Y-130177213D01*
X102542786Y-130321971D01*
X102667094Y-130412284D01*
X102708390Y-130442287D01*
X102824607Y-130501503D01*
X102890776Y-130535218D01*
X102890778Y-130535218D01*
X102890781Y-130535220D01*
X102993136Y-130568477D01*
X103085465Y-130598477D01*
X103186557Y-130614488D01*
X103287648Y-130630500D01*
X103287649Y-130630500D01*
X103492351Y-130630500D01*
X103492352Y-130630500D01*
X103694534Y-130598477D01*
X103889219Y-130535220D01*
X104071610Y-130442287D01*
X104213709Y-130339047D01*
X104237213Y-130321971D01*
X104237215Y-130321968D01*
X104237219Y-130321966D01*
X104381966Y-130177219D01*
X104381968Y-130177215D01*
X104381971Y-130177213D01*
X104434732Y-130104590D01*
X104502287Y-130011610D01*
X104595220Y-129829219D01*
X104658477Y-129634534D01*
X104690500Y-129432352D01*
X104690500Y-129227648D01*
X104658477Y-129025466D01*
X104648729Y-128995466D01*
X104595218Y-128830776D01*
X104541288Y-128724933D01*
X104512858Y-128669137D01*
X104502287Y-128648390D01*
X104467704Y-128600790D01*
X104381971Y-128482786D01*
X104237213Y-128338028D01*
X104071613Y-128217715D01*
X104071612Y-128217714D01*
X104071610Y-128217713D01*
X104012732Y-128187713D01*
X103889223Y-128124781D01*
X103694534Y-128061522D01*
X103519995Y-128033878D01*
X103492352Y-128029500D01*
X103287648Y-128029500D01*
X103263329Y-128033351D01*
X103085465Y-128061522D01*
X102890776Y-128124781D01*
X102708386Y-128217715D01*
X102542786Y-128338028D01*
X102398028Y-128482786D01*
X102277715Y-128648386D01*
X102184781Y-128830776D01*
X102121522Y-129025465D01*
X102089500Y-129227648D01*
X98190500Y-129227648D01*
X98158477Y-129025466D01*
X98148729Y-128995466D01*
X98095218Y-128830776D01*
X98061503Y-128764607D01*
X98002287Y-128648390D01*
X97967704Y-128600790D01*
X97881971Y-128482786D01*
X97737213Y-128338028D01*
X97571613Y-128217715D01*
X97571612Y-128217714D01*
X97571610Y-128217713D01*
X97512732Y-128187713D01*
X97389223Y-128124781D01*
X97194534Y-128061522D01*
X97019995Y-128033878D01*
X96992352Y-128029500D01*
X96787648Y-128029500D01*
X96763329Y-128033351D01*
X96585465Y-128061522D01*
X96390776Y-128124781D01*
X96208386Y-128217715D01*
X96042786Y-128338028D01*
X96042782Y-128338032D01*
X95952181Y-128428634D01*
X95890858Y-128462119D01*
X95821166Y-128457135D01*
X95765233Y-128415263D01*
X95740816Y-128349799D01*
X95740500Y-128340953D01*
X95740500Y-127821504D01*
X104960000Y-127821504D01*
X104960000Y-128220000D01*
X105660000Y-128220000D01*
X105660000Y-128720000D01*
X104960000Y-128720000D01*
X104960000Y-129118495D01*
X104998427Y-129311681D01*
X104998430Y-129311693D01*
X105073807Y-129493671D01*
X105073814Y-129493684D01*
X105183248Y-129657462D01*
X105183251Y-129657466D01*
X105322533Y-129796748D01*
X105322537Y-129796751D01*
X105486315Y-129906185D01*
X105486328Y-129906192D01*
X105668308Y-129981569D01*
X105710000Y-129989862D01*
X105710000Y-129186988D01*
X105719940Y-129204205D01*
X105775795Y-129260060D01*
X105844204Y-129299556D01*
X105920504Y-129320000D01*
X105999496Y-129320000D01*
X106075796Y-129299556D01*
X106144205Y-129260060D01*
X106200060Y-129204205D01*
X106210000Y-129186988D01*
X106210000Y-129989862D01*
X106251690Y-129981569D01*
X106251692Y-129981569D01*
X106433671Y-129906192D01*
X106433684Y-129906185D01*
X106597462Y-129796751D01*
X106597466Y-129796748D01*
X106736748Y-129657466D01*
X106736751Y-129657462D01*
X106846185Y-129493684D01*
X106846187Y-129493680D01*
X106880516Y-129410802D01*
X106924357Y-129356398D01*
X106990651Y-129334333D01*
X107058350Y-129351612D01*
X107080893Y-129369123D01*
X107082681Y-129370495D01*
X107082686Y-129370500D01*
X107152491Y-129410802D01*
X107189816Y-129432352D01*
X107196814Y-129436392D01*
X107324108Y-129470500D01*
X107324110Y-129470500D01*
X107455890Y-129470500D01*
X107455892Y-129470500D01*
X107583186Y-129436392D01*
X107697314Y-129370500D01*
X107790500Y-129277314D01*
X107856392Y-129163186D01*
X107890500Y-129035892D01*
X107890500Y-128904108D01*
X112669500Y-128904108D01*
X112669500Y-129035891D01*
X112703608Y-129163187D01*
X112727290Y-129204205D01*
X112769500Y-129277314D01*
X112862686Y-129370500D01*
X112932491Y-129410802D01*
X112969816Y-129432352D01*
X112976814Y-129436392D01*
X113104108Y-129470500D01*
X113104110Y-129470500D01*
X113235890Y-129470500D01*
X113235892Y-129470500D01*
X113363186Y-129436392D01*
X113477314Y-129370500D01*
X113477321Y-129370492D01*
X113483760Y-129365553D01*
X113484550Y-129366583D01*
X113538552Y-129337090D01*
X113608244Y-129342068D01*
X113664182Y-129383935D01*
X113679482Y-129410801D01*
X113713809Y-129493675D01*
X113713814Y-129493684D01*
X113823248Y-129657462D01*
X113823251Y-129657466D01*
X113962533Y-129796748D01*
X113962537Y-129796751D01*
X114126315Y-129906185D01*
X114126328Y-129906192D01*
X114308308Y-129981569D01*
X114350000Y-129989862D01*
X114350000Y-129186988D01*
X114359940Y-129204205D01*
X114415795Y-129260060D01*
X114484204Y-129299556D01*
X114560504Y-129320000D01*
X114639496Y-129320000D01*
X114715796Y-129299556D01*
X114784205Y-129260060D01*
X114840060Y-129204205D01*
X114850000Y-129186988D01*
X114850000Y-129989862D01*
X114891690Y-129981569D01*
X114891692Y-129981569D01*
X115073671Y-129906192D01*
X115073684Y-129906185D01*
X115237462Y-129796751D01*
X115237466Y-129796748D01*
X115376748Y-129657466D01*
X115376751Y-129657462D01*
X115486185Y-129493684D01*
X115486192Y-129493671D01*
X115561569Y-129311693D01*
X115561572Y-129311681D01*
X115584255Y-129197648D01*
X115839500Y-129197648D01*
X115839500Y-129402351D01*
X115871522Y-129604534D01*
X115934781Y-129799223D01*
X115998691Y-129924653D01*
X116027692Y-129981569D01*
X116027715Y-129981613D01*
X116148028Y-130147213D01*
X116292786Y-130291971D01*
X116447749Y-130404556D01*
X116458390Y-130412287D01*
X116574607Y-130471503D01*
X116640776Y-130505218D01*
X116640778Y-130505218D01*
X116640781Y-130505220D01*
X116745137Y-130539127D01*
X116835465Y-130568477D01*
X116936557Y-130584488D01*
X117037648Y-130600500D01*
X117037649Y-130600500D01*
X117242351Y-130600500D01*
X117242352Y-130600500D01*
X117444534Y-130568477D01*
X117639219Y-130505220D01*
X117821610Y-130412287D01*
X117934593Y-130330201D01*
X117987213Y-130291971D01*
X117987215Y-130291968D01*
X117987219Y-130291966D01*
X118131966Y-130147219D01*
X118131968Y-130147215D01*
X118131971Y-130147213D01*
X118184732Y-130074590D01*
X118252287Y-129981610D01*
X118345220Y-129799219D01*
X118408477Y-129604534D01*
X118440500Y-129402352D01*
X118440500Y-129197648D01*
X118413229Y-129025466D01*
X118408477Y-128995465D01*
X118378793Y-128904108D01*
X118345220Y-128800781D01*
X118345218Y-128800778D01*
X118345218Y-128800776D01*
X118306573Y-128724933D01*
X118252287Y-128618390D01*
X118216767Y-128569500D01*
X118131971Y-128452786D01*
X117987213Y-128308028D01*
X117821613Y-128187715D01*
X117821612Y-128187714D01*
X117821610Y-128187713D01*
X117764653Y-128158691D01*
X117639223Y-128094781D01*
X117444534Y-128031522D01*
X117269995Y-128003878D01*
X117242352Y-127999500D01*
X117037648Y-127999500D01*
X117013329Y-128003351D01*
X116835465Y-128031522D01*
X116640776Y-128094781D01*
X116458386Y-128187715D01*
X116292786Y-128308028D01*
X116148028Y-128452786D01*
X116027715Y-128618386D01*
X115934781Y-128800776D01*
X115871522Y-128995465D01*
X115839500Y-129197648D01*
X115584255Y-129197648D01*
X115590036Y-129168585D01*
X115590036Y-129168584D01*
X115599999Y-129118492D01*
X115600000Y-129118492D01*
X115600000Y-128720000D01*
X114900000Y-128720000D01*
X114900000Y-128220000D01*
X115600000Y-128220000D01*
X115600000Y-127821508D01*
X115599999Y-127821504D01*
X115561572Y-127628318D01*
X115561569Y-127628306D01*
X115486192Y-127446328D01*
X115486185Y-127446315D01*
X115376751Y-127282537D01*
X115376748Y-127282533D01*
X115237466Y-127143251D01*
X115237462Y-127143248D01*
X115073684Y-127033814D01*
X115073671Y-127033807D01*
X114891691Y-126958429D01*
X114891683Y-126958427D01*
X114850000Y-126950135D01*
X114850000Y-127753011D01*
X114840060Y-127735795D01*
X114784205Y-127679940D01*
X114715796Y-127640444D01*
X114639496Y-127620000D01*
X114560504Y-127620000D01*
X114484204Y-127640444D01*
X114415795Y-127679940D01*
X114359940Y-127735795D01*
X114350000Y-127753011D01*
X114350000Y-126950136D01*
X114349999Y-126950135D01*
X114308316Y-126958427D01*
X114308308Y-126958429D01*
X114126328Y-127033807D01*
X114126315Y-127033814D01*
X113962537Y-127143248D01*
X113962533Y-127143251D01*
X113823251Y-127282533D01*
X113823248Y-127282537D01*
X113713814Y-127446315D01*
X113713807Y-127446328D01*
X113638430Y-127628306D01*
X113638427Y-127628318D01*
X113600000Y-127821504D01*
X113600000Y-128220000D01*
X114300000Y-128220000D01*
X114300000Y-128720000D01*
X113675182Y-128720000D01*
X113608143Y-128700315D01*
X113577161Y-128667823D01*
X113575450Y-128669137D01*
X113570498Y-128662684D01*
X113477316Y-128569502D01*
X113477314Y-128569500D01*
X113420250Y-128536554D01*
X113363187Y-128503608D01*
X113285458Y-128482781D01*
X113235892Y-128469500D01*
X113104108Y-128469500D01*
X112976812Y-128503608D01*
X112862686Y-128569500D01*
X112862683Y-128569502D01*
X112769502Y-128662683D01*
X112769500Y-128662686D01*
X112703608Y-128776812D01*
X112669500Y-128904108D01*
X107890500Y-128904108D01*
X107856392Y-128776814D01*
X107790500Y-128662686D01*
X107697314Y-128569500D01*
X107640250Y-128536554D01*
X107583187Y-128503608D01*
X107505458Y-128482781D01*
X107455892Y-128469500D01*
X107324108Y-128469500D01*
X107196812Y-128503608D01*
X107082686Y-128569500D01*
X107082683Y-128569502D01*
X106989501Y-128662684D01*
X106984550Y-128669137D01*
X106982320Y-128667425D01*
X106941636Y-128706217D01*
X106884818Y-128720000D01*
X106260000Y-128720000D01*
X106260000Y-128220000D01*
X106960000Y-128220000D01*
X106960000Y-127821508D01*
X106959999Y-127821504D01*
X106921572Y-127628318D01*
X106921569Y-127628306D01*
X106846192Y-127446328D01*
X106846185Y-127446315D01*
X106736751Y-127282537D01*
X106736748Y-127282533D01*
X106597466Y-127143251D01*
X106597462Y-127143248D01*
X106433684Y-127033814D01*
X106433671Y-127033807D01*
X106251691Y-126958429D01*
X106251683Y-126958427D01*
X106210000Y-126950135D01*
X106210000Y-127753011D01*
X106200060Y-127735795D01*
X106144205Y-127679940D01*
X106075796Y-127640444D01*
X105999496Y-127620000D01*
X105920504Y-127620000D01*
X105844204Y-127640444D01*
X105775795Y-127679940D01*
X105719940Y-127735795D01*
X105710000Y-127753011D01*
X105710000Y-126950136D01*
X105709999Y-126950135D01*
X105668316Y-126958427D01*
X105668308Y-126958429D01*
X105486328Y-127033807D01*
X105486315Y-127033814D01*
X105322537Y-127143248D01*
X105322533Y-127143251D01*
X105183251Y-127282533D01*
X105183248Y-127282537D01*
X105073814Y-127446315D01*
X105073807Y-127446328D01*
X104998430Y-127628306D01*
X104998427Y-127628318D01*
X104960000Y-127821504D01*
X95740500Y-127821504D01*
X95740500Y-126421153D01*
X107099500Y-126421153D01*
X107099500Y-126578846D01*
X107130261Y-126733489D01*
X107130264Y-126733501D01*
X107190602Y-126879172D01*
X107190609Y-126879185D01*
X107278210Y-127010288D01*
X107278213Y-127010292D01*
X107389707Y-127121786D01*
X107389711Y-127121789D01*
X107520814Y-127209390D01*
X107520827Y-127209397D01*
X107666498Y-127269735D01*
X107666503Y-127269737D01*
X107821153Y-127300499D01*
X107821156Y-127300500D01*
X107821158Y-127300500D01*
X107978844Y-127300500D01*
X107978845Y-127300499D01*
X108133497Y-127269737D01*
X108279179Y-127209394D01*
X108410289Y-127121789D01*
X108521789Y-127010289D01*
X108609394Y-126879179D01*
X108619191Y-126855524D01*
X108646069Y-126815297D01*
X110774548Y-124686819D01*
X110835871Y-124653334D01*
X110862229Y-124650500D01*
X112142064Y-124650500D01*
X112209103Y-124670185D01*
X112254858Y-124722989D01*
X112264802Y-124792147D01*
X112235777Y-124855703D01*
X112210955Y-124877602D01*
X112185331Y-124894723D01*
X112185327Y-124894726D01*
X111597069Y-125482984D01*
X111535746Y-125516469D01*
X111533580Y-125516920D01*
X111466508Y-125530261D01*
X111466498Y-125530264D01*
X111320827Y-125590602D01*
X111320814Y-125590609D01*
X111189711Y-125678210D01*
X111189707Y-125678213D01*
X111078213Y-125789707D01*
X111078210Y-125789711D01*
X110990609Y-125920814D01*
X110990602Y-125920827D01*
X110930264Y-126066498D01*
X110930261Y-126066510D01*
X110899500Y-126221153D01*
X110899500Y-126378846D01*
X110930261Y-126533489D01*
X110930264Y-126533501D01*
X110990602Y-126679172D01*
X110990609Y-126679185D01*
X111078210Y-126810288D01*
X111078213Y-126810292D01*
X111189707Y-126921786D01*
X111189711Y-126921789D01*
X111320814Y-127009390D01*
X111320827Y-127009397D01*
X111466498Y-127069735D01*
X111466503Y-127069737D01*
X111621153Y-127100499D01*
X111621156Y-127100500D01*
X111621158Y-127100500D01*
X111778844Y-127100500D01*
X111778845Y-127100499D01*
X111933497Y-127069737D01*
X112079179Y-127009394D01*
X112210289Y-126921789D01*
X112321789Y-126810289D01*
X112409394Y-126679179D01*
X112469737Y-126533497D01*
X112483079Y-126466417D01*
X112515462Y-126404508D01*
X112516900Y-126403043D01*
X112833127Y-126086816D01*
X112860059Y-126072111D01*
X112885872Y-126055523D01*
X112892072Y-126054631D01*
X112894449Y-126053334D01*
X112920807Y-126050500D01*
X112995065Y-126050500D01*
X113062104Y-126070185D01*
X113063909Y-126071366D01*
X113120821Y-126109394D01*
X113120823Y-126109395D01*
X113120827Y-126109397D01*
X113266498Y-126169735D01*
X113266503Y-126169737D01*
X113421153Y-126200499D01*
X113421156Y-126200500D01*
X113421158Y-126200500D01*
X113578844Y-126200500D01*
X113578845Y-126200499D01*
X113733497Y-126169737D01*
X113851592Y-126120821D01*
X113879172Y-126109397D01*
X113879172Y-126109396D01*
X113879179Y-126109394D01*
X114010289Y-126021789D01*
X114121789Y-125910289D01*
X114209394Y-125779179D01*
X114269737Y-125633497D01*
X114300500Y-125478842D01*
X114300500Y-125321158D01*
X114300500Y-125321155D01*
X114300499Y-125321153D01*
X114269738Y-125166510D01*
X114269737Y-125166503D01*
X114269735Y-125166498D01*
X114209397Y-125020827D01*
X114209390Y-125020814D01*
X114121789Y-124889711D01*
X114121786Y-124889707D01*
X114035511Y-124803432D01*
X114002026Y-124742109D01*
X114007010Y-124672417D01*
X114048882Y-124616484D01*
X114054305Y-124612647D01*
X114074032Y-124599466D01*
X114074031Y-124599466D01*
X114074035Y-124599464D01*
X114199464Y-124474035D01*
X114298013Y-124326547D01*
X114365894Y-124162666D01*
X114400500Y-123988691D01*
X114400500Y-123811309D01*
X114400500Y-123811306D01*
X114400499Y-123811304D01*
X114365896Y-123637341D01*
X114365893Y-123637332D01*
X114298016Y-123473459D01*
X114298009Y-123473446D01*
X114199464Y-123325965D01*
X114199461Y-123325961D01*
X114074038Y-123200538D01*
X114074034Y-123200535D01*
X113926553Y-123101990D01*
X113926540Y-123101983D01*
X113762667Y-123034106D01*
X113762658Y-123034103D01*
X113588694Y-122999500D01*
X113588691Y-122999500D01*
X113411309Y-122999500D01*
X113411306Y-122999500D01*
X113237341Y-123034103D01*
X113237332Y-123034106D01*
X113073452Y-123101987D01*
X113073447Y-123101989D01*
X113033622Y-123128601D01*
X112966945Y-123149480D01*
X112964730Y-123149500D01*
X110426080Y-123149500D01*
X110281092Y-123178340D01*
X110281082Y-123178343D01*
X110144511Y-123234912D01*
X110144498Y-123234919D01*
X110021584Y-123317048D01*
X110021580Y-123317051D01*
X107584703Y-125753927D01*
X107544480Y-125780805D01*
X107520819Y-125790606D01*
X107520818Y-125790607D01*
X107389715Y-125878207D01*
X107389707Y-125878213D01*
X107278213Y-125989707D01*
X107278210Y-125989711D01*
X107190609Y-126120814D01*
X107190602Y-126120827D01*
X107130264Y-126266498D01*
X107130261Y-126266510D01*
X107099500Y-126421153D01*
X95740500Y-126421153D01*
X95740500Y-73938713D01*
X96249500Y-73938713D01*
X96249500Y-74151286D01*
X96282753Y-74361239D01*
X96348444Y-74563414D01*
X96444951Y-74752820D01*
X96569890Y-74924786D01*
X96720213Y-75075109D01*
X96892182Y-75200050D01*
X96900946Y-75204516D01*
X96951742Y-75252491D01*
X96968536Y-75320312D01*
X96945998Y-75386447D01*
X96900946Y-75425484D01*
X96892182Y-75429949D01*
X96720213Y-75554890D01*
X96569890Y-75705213D01*
X96444951Y-75877179D01*
X96348444Y-76066585D01*
X96282753Y-76268760D01*
X96249500Y-76478713D01*
X96249500Y-76691286D01*
X96281870Y-76895667D01*
X96282754Y-76901243D01*
X96340460Y-77078844D01*
X96348444Y-77103414D01*
X96444951Y-77292820D01*
X96569890Y-77464786D01*
X96720213Y-77615109D01*
X96892182Y-77740050D01*
X96900946Y-77744516D01*
X96951742Y-77792491D01*
X96968536Y-77860312D01*
X96945998Y-77926447D01*
X96900946Y-77965484D01*
X96892182Y-77969949D01*
X96720213Y-78094890D01*
X96569890Y-78245213D01*
X96444951Y-78417179D01*
X96348444Y-78606585D01*
X96348443Y-78606587D01*
X96348443Y-78606588D01*
X96315598Y-78707672D01*
X96282753Y-78808760D01*
X96249500Y-79018713D01*
X96249500Y-79231286D01*
X96282753Y-79441239D01*
X96348444Y-79643414D01*
X96444951Y-79832820D01*
X96569890Y-80004786D01*
X96720213Y-80155109D01*
X96892182Y-80280050D01*
X96900946Y-80284516D01*
X96951742Y-80332491D01*
X96968536Y-80400312D01*
X96945998Y-80466447D01*
X96900946Y-80505484D01*
X96892182Y-80509949D01*
X96720213Y-80634890D01*
X96569890Y-80785213D01*
X96444951Y-80957179D01*
X96348444Y-81146585D01*
X96282753Y-81348760D01*
X96249500Y-81558713D01*
X96249500Y-81771286D01*
X96281340Y-81972319D01*
X96282754Y-81981243D01*
X96336833Y-82147681D01*
X96348444Y-82183414D01*
X96444951Y-82372820D01*
X96569890Y-82544786D01*
X96720213Y-82695109D01*
X96892182Y-82820050D01*
X96900946Y-82824516D01*
X96951742Y-82872491D01*
X96968536Y-82940312D01*
X96945998Y-83006447D01*
X96900946Y-83045484D01*
X96892182Y-83049949D01*
X96720213Y-83174890D01*
X96569890Y-83325213D01*
X96444951Y-83497179D01*
X96348444Y-83686585D01*
X96348443Y-83686587D01*
X96348443Y-83686588D01*
X96346200Y-83693492D01*
X96282753Y-83888760D01*
X96249804Y-84096796D01*
X96249500Y-84098713D01*
X96249500Y-84311287D01*
X96251154Y-84321730D01*
X96282753Y-84521239D01*
X96282753Y-84521241D01*
X96282754Y-84521243D01*
X96347409Y-84720231D01*
X96348444Y-84723414D01*
X96444951Y-84912820D01*
X96569890Y-85084786D01*
X96720213Y-85235109D01*
X96892182Y-85360050D01*
X96900946Y-85364516D01*
X96951742Y-85412491D01*
X96968536Y-85480312D01*
X96945998Y-85546447D01*
X96900946Y-85585484D01*
X96892182Y-85589949D01*
X96720213Y-85714890D01*
X96569890Y-85865213D01*
X96444951Y-86037179D01*
X96348444Y-86226585D01*
X96282753Y-86428760D01*
X96249500Y-86638713D01*
X96249500Y-86851286D01*
X96276781Y-87023535D01*
X96282754Y-87061243D01*
X96293633Y-87094726D01*
X96348444Y-87263414D01*
X96444951Y-87452820D01*
X96569890Y-87624786D01*
X96720213Y-87775109D01*
X96892182Y-87900050D01*
X96900946Y-87904516D01*
X96951742Y-87952491D01*
X96968536Y-88020312D01*
X96945998Y-88086447D01*
X96900946Y-88125484D01*
X96892182Y-88129949D01*
X96720213Y-88254890D01*
X96569890Y-88405213D01*
X96444951Y-88577179D01*
X96348444Y-88766585D01*
X96282753Y-88968760D01*
X96256720Y-89133127D01*
X96249500Y-89178713D01*
X96249500Y-89391287D01*
X96282754Y-89601243D01*
X96307968Y-89678844D01*
X96348444Y-89803414D01*
X96444951Y-89992820D01*
X96569890Y-90164786D01*
X96720213Y-90315109D01*
X96892182Y-90440050D01*
X96900946Y-90444516D01*
X96951742Y-90492491D01*
X96968536Y-90560312D01*
X96945998Y-90626447D01*
X96900946Y-90665484D01*
X96892182Y-90669949D01*
X96720213Y-90794890D01*
X96569890Y-90945213D01*
X96444951Y-91117179D01*
X96348444Y-91306585D01*
X96282753Y-91508760D01*
X96249500Y-91718713D01*
X96249500Y-91931286D01*
X96282753Y-92141239D01*
X96348444Y-92343414D01*
X96444951Y-92532820D01*
X96569890Y-92704786D01*
X96720213Y-92855109D01*
X96892182Y-92980050D01*
X96900946Y-92984516D01*
X96951742Y-93032491D01*
X96968536Y-93100312D01*
X96945998Y-93166447D01*
X96900946Y-93205484D01*
X96892182Y-93209949D01*
X96720213Y-93334890D01*
X96569890Y-93485213D01*
X96444951Y-93657179D01*
X96348444Y-93846585D01*
X96282753Y-94048760D01*
X96249500Y-94258713D01*
X96249500Y-94471286D01*
X96282753Y-94681239D01*
X96348444Y-94883414D01*
X96444951Y-95072820D01*
X96569890Y-95244786D01*
X96720213Y-95395109D01*
X96892182Y-95520050D01*
X96900946Y-95524516D01*
X96951742Y-95572491D01*
X96968536Y-95640312D01*
X96945998Y-95706447D01*
X96900946Y-95745484D01*
X96892182Y-95749949D01*
X96720213Y-95874890D01*
X96569890Y-96025213D01*
X96444951Y-96197179D01*
X96348444Y-96386585D01*
X96282753Y-96588760D01*
X96249500Y-96798713D01*
X96249500Y-97011286D01*
X96282753Y-97221239D01*
X96348444Y-97423414D01*
X96444951Y-97612820D01*
X96569890Y-97784786D01*
X96720213Y-97935109D01*
X96892182Y-98060050D01*
X96900946Y-98064516D01*
X96951742Y-98112491D01*
X96968536Y-98180312D01*
X96945998Y-98246447D01*
X96900946Y-98285484D01*
X96892182Y-98289949D01*
X96720213Y-98414890D01*
X96569890Y-98565213D01*
X96444951Y-98737179D01*
X96348444Y-98926585D01*
X96282753Y-99128760D01*
X96249500Y-99338713D01*
X96249500Y-99551286D01*
X96280225Y-99745279D01*
X96282754Y-99761243D01*
X96317911Y-99869446D01*
X96348444Y-99963414D01*
X96444951Y-100152820D01*
X96569890Y-100324786D01*
X96720213Y-100475109D01*
X96892182Y-100600050D01*
X96900946Y-100604516D01*
X96951742Y-100652491D01*
X96968536Y-100720312D01*
X96945998Y-100786447D01*
X96900946Y-100825484D01*
X96892182Y-100829949D01*
X96720213Y-100954890D01*
X96569890Y-101105213D01*
X96444951Y-101277179D01*
X96348444Y-101466585D01*
X96282753Y-101668760D01*
X96249500Y-101878713D01*
X96249500Y-102091286D01*
X96280225Y-102285279D01*
X96282754Y-102301243D01*
X96295241Y-102339675D01*
X96348444Y-102503414D01*
X96444951Y-102692820D01*
X96569890Y-102864786D01*
X96720213Y-103015109D01*
X96892182Y-103140050D01*
X96900946Y-103144516D01*
X96951742Y-103192491D01*
X96968536Y-103260312D01*
X96945998Y-103326447D01*
X96900946Y-103365484D01*
X96892182Y-103369949D01*
X96720213Y-103494890D01*
X96569890Y-103645213D01*
X96444951Y-103817179D01*
X96348444Y-104006585D01*
X96282753Y-104208760D01*
X96249500Y-104418713D01*
X96249500Y-104631286D01*
X96282753Y-104841239D01*
X96348444Y-105043414D01*
X96444951Y-105232820D01*
X96569890Y-105404786D01*
X96720213Y-105555109D01*
X96892182Y-105680050D01*
X96900946Y-105684516D01*
X96951742Y-105732491D01*
X96968536Y-105800312D01*
X96945998Y-105866447D01*
X96900946Y-105905484D01*
X96892182Y-105909949D01*
X96720213Y-106034890D01*
X96569890Y-106185213D01*
X96444951Y-106357179D01*
X96348444Y-106546585D01*
X96282753Y-106748760D01*
X96249500Y-106958713D01*
X96249500Y-107171286D01*
X96282753Y-107381239D01*
X96348444Y-107583414D01*
X96444951Y-107772820D01*
X96569890Y-107944786D01*
X96720213Y-108095109D01*
X96892182Y-108220050D01*
X96900946Y-108224516D01*
X96951742Y-108272491D01*
X96968536Y-108340312D01*
X96945998Y-108406447D01*
X96900946Y-108445484D01*
X96892182Y-108449949D01*
X96720213Y-108574890D01*
X96569890Y-108725213D01*
X96444951Y-108897179D01*
X96348444Y-109086585D01*
X96282753Y-109288760D01*
X96249500Y-109498713D01*
X96249500Y-109711286D01*
X96282753Y-109921239D01*
X96348444Y-110123414D01*
X96444951Y-110312820D01*
X96569890Y-110484786D01*
X96720213Y-110635109D01*
X96892182Y-110760050D01*
X96900946Y-110764516D01*
X96951742Y-110812491D01*
X96968536Y-110880312D01*
X96945998Y-110946447D01*
X96900946Y-110985484D01*
X96892182Y-110989949D01*
X96720213Y-111114890D01*
X96569890Y-111265213D01*
X96444951Y-111437179D01*
X96348444Y-111626585D01*
X96282753Y-111828760D01*
X96249500Y-112038713D01*
X96249500Y-112251287D01*
X96282754Y-112461243D01*
X96348442Y-112663410D01*
X96348444Y-112663414D01*
X96444951Y-112852820D01*
X96569890Y-113024786D01*
X96720213Y-113175109D01*
X96892182Y-113300050D01*
X96900946Y-113304516D01*
X96951742Y-113352491D01*
X96968536Y-113420312D01*
X96945998Y-113486447D01*
X96900946Y-113525484D01*
X96892182Y-113529949D01*
X96720213Y-113654890D01*
X96569890Y-113805213D01*
X96444951Y-113977179D01*
X96348444Y-114166585D01*
X96282753Y-114368760D01*
X96249500Y-114578713D01*
X96249500Y-114791286D01*
X96282753Y-115001239D01*
X96348444Y-115203414D01*
X96444951Y-115392820D01*
X96569890Y-115564786D01*
X96720213Y-115715109D01*
X96892182Y-115840050D01*
X96900946Y-115844516D01*
X96951742Y-115892491D01*
X96968536Y-115960312D01*
X96945998Y-116026447D01*
X96900946Y-116065484D01*
X96892182Y-116069949D01*
X96720213Y-116194890D01*
X96569890Y-116345213D01*
X96444951Y-116517179D01*
X96348444Y-116706585D01*
X96282753Y-116908760D01*
X96249500Y-117118713D01*
X96249500Y-117331286D01*
X96272870Y-117478842D01*
X96282754Y-117541243D01*
X96312729Y-117633497D01*
X96348444Y-117743414D01*
X96444951Y-117932820D01*
X96569890Y-118104786D01*
X96720213Y-118255109D01*
X96892182Y-118380050D01*
X96900946Y-118384516D01*
X96951742Y-118432491D01*
X96968536Y-118500312D01*
X96945998Y-118566447D01*
X96900946Y-118605484D01*
X96892182Y-118609949D01*
X96720213Y-118734890D01*
X96569890Y-118885213D01*
X96444951Y-119057179D01*
X96348444Y-119246585D01*
X96282753Y-119448760D01*
X96249500Y-119658713D01*
X96249500Y-119871286D01*
X96282753Y-120081239D01*
X96348444Y-120283414D01*
X96444951Y-120472820D01*
X96569890Y-120644786D01*
X96720213Y-120795109D01*
X96892179Y-120920048D01*
X96892181Y-120920049D01*
X96892184Y-120920051D01*
X97081588Y-121016557D01*
X97283757Y-121082246D01*
X97493713Y-121115500D01*
X97493714Y-121115500D01*
X97706286Y-121115500D01*
X97706287Y-121115500D01*
X97916243Y-121082246D01*
X98118412Y-121016557D01*
X98307816Y-120920051D01*
X98362572Y-120880269D01*
X98479786Y-120795109D01*
X98479788Y-120795106D01*
X98479792Y-120795104D01*
X98630104Y-120644792D01*
X98630106Y-120644788D01*
X98630109Y-120644786D01*
X98755048Y-120472820D01*
X98755047Y-120472820D01*
X98755051Y-120472816D01*
X98851557Y-120283412D01*
X98917246Y-120081243D01*
X98950500Y-119871287D01*
X98950500Y-119658713D01*
X98917246Y-119448757D01*
X98851557Y-119246588D01*
X98755051Y-119057184D01*
X98755049Y-119057181D01*
X98755048Y-119057179D01*
X98630109Y-118885213D01*
X98479786Y-118734890D01*
X98307820Y-118609951D01*
X98299600Y-118605763D01*
X98299054Y-118605485D01*
X98248259Y-118557512D01*
X98231463Y-118489692D01*
X98253999Y-118423556D01*
X98299054Y-118384515D01*
X98307816Y-118380051D01*
X98427912Y-118292797D01*
X98479786Y-118255109D01*
X98479788Y-118255106D01*
X98479792Y-118255104D01*
X98630104Y-118104792D01*
X98630106Y-118104788D01*
X98630109Y-118104786D01*
X98755048Y-117932820D01*
X98755047Y-117932820D01*
X98755051Y-117932816D01*
X98851557Y-117743412D01*
X98917246Y-117541243D01*
X98950500Y-117331287D01*
X98950500Y-117118713D01*
X98917246Y-116908757D01*
X98851557Y-116706588D01*
X98755051Y-116517184D01*
X98755049Y-116517181D01*
X98755048Y-116517179D01*
X98630109Y-116345213D01*
X98479786Y-116194890D01*
X98307820Y-116069951D01*
X98307115Y-116069591D01*
X98299054Y-116065485D01*
X98248259Y-116017512D01*
X98231463Y-115949692D01*
X98253999Y-115883556D01*
X98299054Y-115844515D01*
X98307816Y-115840051D01*
X98329789Y-115824086D01*
X98479786Y-115715109D01*
X98479788Y-115715106D01*
X98479792Y-115715104D01*
X98630104Y-115564792D01*
X98630106Y-115564788D01*
X98630109Y-115564786D01*
X98755048Y-115392820D01*
X98755047Y-115392820D01*
X98755051Y-115392816D01*
X98851557Y-115203412D01*
X98917246Y-115001243D01*
X98950500Y-114791287D01*
X98950500Y-114578713D01*
X98917246Y-114368757D01*
X98851557Y-114166588D01*
X98755051Y-113977184D01*
X98755049Y-113977181D01*
X98755048Y-113977179D01*
X98630109Y-113805213D01*
X98479786Y-113654890D01*
X98307820Y-113529951D01*
X98307115Y-113529591D01*
X98299054Y-113525485D01*
X98248259Y-113477512D01*
X98231463Y-113409692D01*
X98253999Y-113343556D01*
X98299054Y-113304515D01*
X98307816Y-113300051D01*
X98329789Y-113284086D01*
X98479786Y-113175109D01*
X98479788Y-113175106D01*
X98479792Y-113175104D01*
X98630104Y-113024792D01*
X98630106Y-113024788D01*
X98630109Y-113024786D01*
X98755048Y-112852820D01*
X98755047Y-112852820D01*
X98755051Y-112852816D01*
X98851557Y-112663412D01*
X98917246Y-112461243D01*
X98950500Y-112251287D01*
X98950500Y-112038713D01*
X98917246Y-111828757D01*
X98851557Y-111626588D01*
X98755051Y-111437184D01*
X98755049Y-111437181D01*
X98755048Y-111437179D01*
X98630109Y-111265213D01*
X98479786Y-111114890D01*
X98307820Y-110989951D01*
X98307115Y-110989591D01*
X98299054Y-110985485D01*
X98248259Y-110937512D01*
X98231463Y-110869692D01*
X98253999Y-110803556D01*
X98299054Y-110764515D01*
X98307816Y-110760051D01*
X98329789Y-110744086D01*
X98479786Y-110635109D01*
X98479788Y-110635106D01*
X98479792Y-110635104D01*
X98630104Y-110484792D01*
X98630106Y-110484788D01*
X98630109Y-110484786D01*
X98755048Y-110312820D01*
X98755047Y-110312820D01*
X98755051Y-110312816D01*
X98851557Y-110123412D01*
X98917246Y-109921243D01*
X98950500Y-109711287D01*
X98950500Y-109498713D01*
X98917246Y-109288757D01*
X98851557Y-109086588D01*
X98755051Y-108897184D01*
X98755049Y-108897181D01*
X98755048Y-108897179D01*
X98630109Y-108725213D01*
X98479786Y-108574890D01*
X98307820Y-108449951D01*
X98307115Y-108449591D01*
X98299054Y-108445485D01*
X98248259Y-108397512D01*
X98231463Y-108329692D01*
X98253999Y-108263556D01*
X98299054Y-108224515D01*
X98307816Y-108220051D01*
X98329789Y-108204086D01*
X98479786Y-108095109D01*
X98479788Y-108095106D01*
X98479792Y-108095104D01*
X98630104Y-107944792D01*
X98630106Y-107944788D01*
X98630109Y-107944786D01*
X98755048Y-107772820D01*
X98755047Y-107772820D01*
X98755051Y-107772816D01*
X98851557Y-107583412D01*
X98917246Y-107381243D01*
X98950500Y-107171287D01*
X98950500Y-107094808D01*
X98970185Y-107027769D01*
X99022989Y-106982014D01*
X99092147Y-106972070D01*
X99155703Y-107001095D01*
X99162181Y-107007127D01*
X101013181Y-108858127D01*
X101046666Y-108919450D01*
X101049500Y-108945808D01*
X101049500Y-116895064D01*
X101029815Y-116962103D01*
X101028603Y-116963954D01*
X100990608Y-117020817D01*
X100990602Y-117020828D01*
X100930264Y-117166498D01*
X100930261Y-117166510D01*
X100899500Y-117321153D01*
X100899500Y-117478846D01*
X100930261Y-117633489D01*
X100930264Y-117633501D01*
X100990602Y-117779172D01*
X100990609Y-117779185D01*
X101078210Y-117910288D01*
X101078213Y-117910292D01*
X101189707Y-118021786D01*
X101189711Y-118021789D01*
X101320814Y-118109390D01*
X101320827Y-118109397D01*
X101466498Y-118169735D01*
X101466503Y-118169737D01*
X101611699Y-118198618D01*
X101617121Y-118199697D01*
X101679032Y-118232082D01*
X101713606Y-118292797D01*
X101714548Y-118345504D01*
X101699500Y-118421158D01*
X101699500Y-118578846D01*
X101730261Y-118733489D01*
X101730264Y-118733501D01*
X101790602Y-118879172D01*
X101790609Y-118879185D01*
X101878210Y-119010288D01*
X101878213Y-119010292D01*
X101989707Y-119121786D01*
X101989711Y-119121789D01*
X102120814Y-119209390D01*
X102120827Y-119209397D01*
X102211084Y-119246782D01*
X102266503Y-119269737D01*
X102413994Y-119299075D01*
X102421153Y-119300499D01*
X102421156Y-119300500D01*
X102421158Y-119300500D01*
X102578844Y-119300500D01*
X102578845Y-119300499D01*
X102733497Y-119269737D01*
X102879179Y-119209394D01*
X103010289Y-119121789D01*
X103121789Y-119010289D01*
X103209394Y-118879179D01*
X103269737Y-118733497D01*
X103300500Y-118578842D01*
X103300500Y-118421158D01*
X103300500Y-118421155D01*
X103300499Y-118421153D01*
X103269737Y-118266503D01*
X103269735Y-118266498D01*
X103209397Y-118120828D01*
X103209396Y-118120827D01*
X103209394Y-118120821D01*
X103171396Y-118063953D01*
X103150520Y-117997276D01*
X103150500Y-117995064D01*
X103150500Y-106335928D01*
X103125502Y-106210261D01*
X103125501Y-106210260D01*
X103125501Y-106210256D01*
X103076465Y-106091873D01*
X103076464Y-106091872D01*
X103076460Y-106091864D01*
X103058176Y-106064501D01*
X103058174Y-106064499D01*
X103005277Y-105985331D01*
X103005275Y-105985329D01*
X103005273Y-105985326D01*
X101014673Y-103994726D01*
X100923024Y-103933489D01*
X100908127Y-103923535D01*
X100845239Y-103897486D01*
X100789744Y-103874499D01*
X100789738Y-103874497D01*
X100664071Y-103849500D01*
X100664069Y-103849500D01*
X99704935Y-103849500D01*
X99690756Y-103845922D01*
X99679249Y-103846810D01*
X99656840Y-103837366D01*
X99646112Y-103834660D01*
X99640936Y-103831871D01*
X99579179Y-103790606D01*
X99515113Y-103764069D01*
X99509564Y-103761079D01*
X99489023Y-103740764D01*
X99466531Y-103722639D01*
X99464487Y-103716498D01*
X99459886Y-103711948D01*
X99453589Y-103683755D01*
X99444466Y-103656345D01*
X99446066Y-103650074D01*
X99444656Y-103643759D01*
X99454600Y-103616636D01*
X99461745Y-103588646D01*
X99467652Y-103581041D01*
X99468709Y-103578160D01*
X99471579Y-103575986D01*
X99480702Y-103564242D01*
X100705276Y-102339670D01*
X100776465Y-102233127D01*
X100825501Y-102114744D01*
X100831708Y-102083541D01*
X100839798Y-102042872D01*
X100850500Y-101989071D01*
X100850500Y-90474500D01*
X100870185Y-90407461D01*
X100922989Y-90361706D01*
X100974500Y-90350500D01*
X101979192Y-90350500D01*
X102046231Y-90370185D01*
X102066873Y-90386819D01*
X102482984Y-90802929D01*
X102516469Y-90864252D01*
X102516920Y-90866419D01*
X102530261Y-90933489D01*
X102530264Y-90933501D01*
X102590602Y-91079172D01*
X102590609Y-91079185D01*
X102678210Y-91210288D01*
X102678213Y-91210292D01*
X102789707Y-91321786D01*
X102789711Y-91321789D01*
X102920814Y-91409390D01*
X102920827Y-91409397D01*
X103066498Y-91469735D01*
X103066503Y-91469737D01*
X103221153Y-91500499D01*
X103221156Y-91500500D01*
X103221158Y-91500500D01*
X103378844Y-91500500D01*
X103378845Y-91500499D01*
X103533497Y-91469737D01*
X103679179Y-91409394D01*
X103810289Y-91321789D01*
X103921789Y-91210289D01*
X104009394Y-91079179D01*
X104069737Y-90933497D01*
X104100500Y-90778842D01*
X104100500Y-90621158D01*
X104100500Y-90621155D01*
X104100499Y-90621153D01*
X104087340Y-90555000D01*
X104069737Y-90466503D01*
X104026329Y-90361706D01*
X104009397Y-90320827D01*
X104009393Y-90320820D01*
X104005574Y-90315104D01*
X103941284Y-90218888D01*
X103920408Y-90152214D01*
X103938892Y-90084834D01*
X103941257Y-90081152D01*
X104009394Y-89979179D01*
X104069737Y-89833497D01*
X104100500Y-89678842D01*
X104100500Y-89521158D01*
X104100500Y-89521155D01*
X104100499Y-89521153D01*
X104074667Y-89391287D01*
X104069737Y-89366503D01*
X104069735Y-89366498D01*
X104009397Y-89220827D01*
X104009390Y-89220814D01*
X103921789Y-89089711D01*
X103921786Y-89089707D01*
X103869760Y-89037681D01*
X103836275Y-88976358D01*
X103841259Y-88906666D01*
X103869760Y-88862319D01*
X103921786Y-88810292D01*
X103921789Y-88810289D01*
X104009394Y-88679179D01*
X104069737Y-88533497D01*
X104100500Y-88378842D01*
X104100500Y-88221158D01*
X104100500Y-88221155D01*
X104100499Y-88221153D01*
X104069738Y-88066510D01*
X104069737Y-88066503D01*
X104022512Y-87952491D01*
X104009397Y-87920827D01*
X104009390Y-87920814D01*
X103921789Y-87789711D01*
X103921786Y-87789707D01*
X103810292Y-87678213D01*
X103810288Y-87678210D01*
X103679185Y-87590609D01*
X103679172Y-87590602D01*
X103533501Y-87530264D01*
X103533489Y-87530261D01*
X103466420Y-87516920D01*
X103404509Y-87484535D01*
X103402930Y-87482984D01*
X103014674Y-87094727D01*
X103014673Y-87094726D01*
X103014669Y-87094723D01*
X102908127Y-87023535D01*
X102789744Y-86974499D01*
X102789738Y-86974497D01*
X102664071Y-86949500D01*
X102664069Y-86949500D01*
X99164069Y-86949500D01*
X99074500Y-86949500D01*
X99007461Y-86929815D01*
X98961706Y-86877011D01*
X98950500Y-86825500D01*
X98950500Y-86638713D01*
X98929311Y-86504935D01*
X98917246Y-86428757D01*
X98851557Y-86226588D01*
X98755051Y-86037184D01*
X98755049Y-86037181D01*
X98755048Y-86037179D01*
X98630109Y-85865213D01*
X98479786Y-85714890D01*
X98307820Y-85589951D01*
X98307115Y-85589591D01*
X98299054Y-85585485D01*
X98248259Y-85537512D01*
X98231463Y-85469692D01*
X98253999Y-85403556D01*
X98299054Y-85364515D01*
X98307816Y-85360051D01*
X98329789Y-85344086D01*
X98479786Y-85235109D01*
X98479788Y-85235106D01*
X98479792Y-85235104D01*
X98630104Y-85084792D01*
X98630106Y-85084788D01*
X98630109Y-85084786D01*
X98755048Y-84912820D01*
X98755047Y-84912820D01*
X98755051Y-84912816D01*
X98851557Y-84723412D01*
X98917246Y-84521243D01*
X98950500Y-84311287D01*
X98950500Y-84098713D01*
X98917246Y-83888757D01*
X98851557Y-83686588D01*
X98755051Y-83497184D01*
X98755049Y-83497181D01*
X98755048Y-83497179D01*
X98630109Y-83325213D01*
X98479786Y-83174890D01*
X98307820Y-83049951D01*
X98307115Y-83049591D01*
X98299054Y-83045485D01*
X98248259Y-82997512D01*
X98231463Y-82929692D01*
X98253999Y-82863556D01*
X98299054Y-82824515D01*
X98307816Y-82820051D01*
X98426943Y-82733501D01*
X98479786Y-82695109D01*
X98479788Y-82695106D01*
X98479792Y-82695104D01*
X98630104Y-82544792D01*
X98630106Y-82544788D01*
X98630109Y-82544786D01*
X98755048Y-82372820D01*
X98755047Y-82372820D01*
X98755051Y-82372816D01*
X98851557Y-82183412D01*
X98917246Y-81981243D01*
X98950500Y-81771287D01*
X98950500Y-81558713D01*
X98917246Y-81348757D01*
X98851557Y-81146588D01*
X98755051Y-80957184D01*
X98755049Y-80957181D01*
X98755048Y-80957179D01*
X98630109Y-80785213D01*
X98479786Y-80634890D01*
X98307820Y-80509951D01*
X98307115Y-80509591D01*
X98299054Y-80505485D01*
X98248259Y-80457512D01*
X98231463Y-80389692D01*
X98253999Y-80323556D01*
X98299054Y-80284515D01*
X98307816Y-80280051D01*
X98329789Y-80264086D01*
X98479786Y-80155109D01*
X98479788Y-80155106D01*
X98479792Y-80155104D01*
X98630104Y-80004792D01*
X98630106Y-80004788D01*
X98630109Y-80004786D01*
X98755048Y-79832820D01*
X98755047Y-79832820D01*
X98755051Y-79832816D01*
X98851557Y-79643412D01*
X98917246Y-79441243D01*
X98950500Y-79231287D01*
X98950500Y-79018713D01*
X98917246Y-78808757D01*
X98851557Y-78606588D01*
X98755051Y-78417184D01*
X98755049Y-78417181D01*
X98755048Y-78417179D01*
X98630109Y-78245213D01*
X98479786Y-78094890D01*
X98307820Y-77969951D01*
X98307115Y-77969591D01*
X98299054Y-77965485D01*
X98248259Y-77917512D01*
X98231463Y-77849692D01*
X98253999Y-77783556D01*
X98299054Y-77744515D01*
X98307816Y-77740051D01*
X98334294Y-77720814D01*
X98479786Y-77615109D01*
X98479788Y-77615106D01*
X98479792Y-77615104D01*
X98630104Y-77464792D01*
X98630106Y-77464788D01*
X98630109Y-77464786D01*
X98755048Y-77292820D01*
X98755047Y-77292820D01*
X98755051Y-77292816D01*
X98851557Y-77103412D01*
X98910777Y-76921153D01*
X102599500Y-76921153D01*
X102599500Y-77078846D01*
X102630261Y-77233489D01*
X102630264Y-77233501D01*
X102690602Y-77379172D01*
X102690606Y-77379179D01*
X102728602Y-77436044D01*
X102749480Y-77502721D01*
X102749500Y-77504935D01*
X102749500Y-85764069D01*
X102749500Y-85764071D01*
X102749499Y-85764071D01*
X102773620Y-85885328D01*
X102774498Y-85889743D01*
X102823533Y-86008125D01*
X102894726Y-86114673D01*
X102894727Y-86114674D01*
X105713181Y-88933127D01*
X105746666Y-88994450D01*
X105749500Y-89020808D01*
X105749500Y-98964069D01*
X105749500Y-98964071D01*
X105749499Y-98964071D01*
X105774497Y-99089738D01*
X105774499Y-99089744D01*
X105823535Y-99208127D01*
X105894723Y-99314669D01*
X105894726Y-99314673D01*
X105894727Y-99314674D01*
X106413181Y-99833127D01*
X106446666Y-99894450D01*
X106449500Y-99920808D01*
X106449500Y-103195064D01*
X106429815Y-103262103D01*
X106428603Y-103263954D01*
X106390608Y-103320817D01*
X106390602Y-103320828D01*
X106330264Y-103466498D01*
X106330261Y-103466510D01*
X106299500Y-103621153D01*
X106299500Y-103778846D01*
X106330261Y-103933489D01*
X106330264Y-103933501D01*
X106390602Y-104079172D01*
X106390609Y-104079185D01*
X106478210Y-104210288D01*
X106478213Y-104210292D01*
X106589707Y-104321786D01*
X106589711Y-104321789D01*
X106720814Y-104409390D01*
X106720827Y-104409397D01*
X106866498Y-104469735D01*
X106866503Y-104469737D01*
X107021153Y-104500499D01*
X107021156Y-104500500D01*
X107021158Y-104500500D01*
X107178844Y-104500500D01*
X107178845Y-104500499D01*
X107333497Y-104469737D01*
X107479179Y-104409394D01*
X107610289Y-104321789D01*
X107721789Y-104210289D01*
X107809394Y-104079179D01*
X107810672Y-104076095D01*
X107844375Y-103994726D01*
X107869737Y-103933497D01*
X107900500Y-103778842D01*
X107900500Y-103621158D01*
X107900500Y-103621155D01*
X107900499Y-103621153D01*
X107869737Y-103466503D01*
X107809394Y-103320821D01*
X107771396Y-103263953D01*
X107750520Y-103197276D01*
X107750500Y-103195064D01*
X107750500Y-99535928D01*
X107725502Y-99410261D01*
X107725501Y-99410260D01*
X107725501Y-99410256D01*
X107676465Y-99291873D01*
X107676460Y-99291864D01*
X107672097Y-99285335D01*
X107672096Y-99285334D01*
X107672094Y-99285331D01*
X107605276Y-99185330D01*
X107605274Y-99185327D01*
X107086819Y-98666872D01*
X107053334Y-98605549D01*
X107050500Y-98579191D01*
X107050500Y-88635928D01*
X107025502Y-88510261D01*
X107025501Y-88510260D01*
X107025501Y-88510256D01*
X106976465Y-88391873D01*
X106976464Y-88391872D01*
X106976460Y-88391864D01*
X106957888Y-88364070D01*
X106957886Y-88364068D01*
X106905277Y-88285331D01*
X106905275Y-88285329D01*
X106905273Y-88285326D01*
X104086819Y-85466872D01*
X104053334Y-85405549D01*
X104050500Y-85379191D01*
X104050500Y-77504935D01*
X104070185Y-77437896D01*
X104071366Y-77436090D01*
X104109394Y-77379179D01*
X104169737Y-77233497D01*
X104200500Y-77078842D01*
X104200500Y-76921158D01*
X104200500Y-76921155D01*
X104200499Y-76921153D01*
X104169738Y-76766510D01*
X104169737Y-76766503D01*
X104138582Y-76691287D01*
X104109397Y-76620827D01*
X104109390Y-76620814D01*
X104021789Y-76489711D01*
X104021786Y-76489707D01*
X103910292Y-76378213D01*
X103910288Y-76378210D01*
X103779185Y-76290609D01*
X103779172Y-76290602D01*
X103633501Y-76230264D01*
X103633489Y-76230261D01*
X103478845Y-76199500D01*
X103478842Y-76199500D01*
X103321158Y-76199500D01*
X103321155Y-76199500D01*
X103166510Y-76230261D01*
X103166498Y-76230264D01*
X103020827Y-76290602D01*
X103020814Y-76290609D01*
X102889711Y-76378210D01*
X102889707Y-76378213D01*
X102778213Y-76489707D01*
X102778210Y-76489711D01*
X102690609Y-76620814D01*
X102690602Y-76620827D01*
X102630264Y-76766498D01*
X102630261Y-76766510D01*
X102599500Y-76921153D01*
X98910777Y-76921153D01*
X98917246Y-76901243D01*
X98950500Y-76691287D01*
X98950500Y-76478713D01*
X98917246Y-76268757D01*
X98851557Y-76066588D01*
X98755051Y-75877184D01*
X98755049Y-75877181D01*
X98755048Y-75877179D01*
X98630109Y-75705213D01*
X98479786Y-75554890D01*
X98307820Y-75429951D01*
X98307115Y-75429591D01*
X98299054Y-75425485D01*
X98248259Y-75377512D01*
X98231463Y-75309692D01*
X98253999Y-75243556D01*
X98299054Y-75204515D01*
X98307816Y-75200051D01*
X98329789Y-75184086D01*
X98479786Y-75075109D01*
X98479788Y-75075106D01*
X98479792Y-75075104D01*
X98630104Y-74924792D01*
X98630106Y-74924788D01*
X98630109Y-74924786D01*
X98755048Y-74752820D01*
X98755047Y-74752820D01*
X98755051Y-74752816D01*
X98851557Y-74563412D01*
X98917246Y-74361243D01*
X98950500Y-74151287D01*
X98950500Y-73938713D01*
X98917246Y-73728757D01*
X98851557Y-73526588D01*
X98755051Y-73337184D01*
X98755049Y-73337181D01*
X98755048Y-73337179D01*
X98630109Y-73165213D01*
X98516181Y-73051285D01*
X98482696Y-72989962D01*
X98487680Y-72920270D01*
X98529552Y-72864337D01*
X98560529Y-72847422D01*
X98692086Y-72798354D01*
X98692093Y-72798350D01*
X98807187Y-72712190D01*
X98807190Y-72712187D01*
X98893350Y-72597093D01*
X98893354Y-72597086D01*
X98943596Y-72462379D01*
X98943598Y-72462372D01*
X98949999Y-72402844D01*
X98950000Y-72402827D01*
X98950000Y-71755000D01*
X98033012Y-71755000D01*
X98065925Y-71697993D01*
X98100000Y-71570826D01*
X98100000Y-71439174D01*
X98065925Y-71312007D01*
X98033012Y-71255000D01*
X98950000Y-71255000D01*
X98950000Y-70607172D01*
X98949999Y-70607155D01*
X98943598Y-70547627D01*
X98943596Y-70547620D01*
X98893354Y-70412913D01*
X98893350Y-70412906D01*
X98807190Y-70297812D01*
X98807187Y-70297809D01*
X98692093Y-70211649D01*
X98692086Y-70211645D01*
X98557379Y-70161403D01*
X98557372Y-70161401D01*
X98497844Y-70155000D01*
X97850000Y-70155000D01*
X97850000Y-71071988D01*
X97792993Y-71039075D01*
X97665826Y-71005000D01*
X97534174Y-71005000D01*
X97407007Y-71039075D01*
X97350000Y-71071988D01*
X97350000Y-70155000D01*
X96702155Y-70155000D01*
X96642627Y-70161401D01*
X96642620Y-70161403D01*
X96507913Y-70211645D01*
X96507906Y-70211649D01*
X96392812Y-70297809D01*
X96392809Y-70297812D01*
X96306649Y-70412906D01*
X96306645Y-70412913D01*
X96256403Y-70547620D01*
X96256401Y-70547627D01*
X96250000Y-70607155D01*
X96250000Y-71255000D01*
X97166988Y-71255000D01*
X97134075Y-71312007D01*
X97100000Y-71439174D01*
X97100000Y-71570826D01*
X97134075Y-71697993D01*
X97166988Y-71755000D01*
X96250000Y-71755000D01*
X96250000Y-72402844D01*
X96256401Y-72462372D01*
X96256403Y-72462379D01*
X96306645Y-72597086D01*
X96306649Y-72597093D01*
X96392809Y-72712187D01*
X96392812Y-72712190D01*
X96507906Y-72798350D01*
X96507913Y-72798354D01*
X96639470Y-72847422D01*
X96695404Y-72889293D01*
X96719821Y-72954758D01*
X96704969Y-73023031D01*
X96683819Y-73051285D01*
X96569889Y-73165215D01*
X96444951Y-73337179D01*
X96348444Y-73526585D01*
X96282753Y-73728760D01*
X96249500Y-73938713D01*
X95740500Y-73938713D01*
X95740500Y-65984500D01*
X95760185Y-65917461D01*
X95812989Y-65871706D01*
X95864500Y-65860500D01*
X124615500Y-65860500D01*
X124682539Y-65880185D01*
G37*
%TD.AperFunction*%
%TA.AperFunction,Conductor*%
G36*
X111855703Y-104076095D02*
G01*
X111862181Y-104082127D01*
X115494723Y-107714669D01*
X115585331Y-107805277D01*
X115691873Y-107876465D01*
X115810256Y-107925501D01*
X115907240Y-107944792D01*
X115935926Y-107950498D01*
X115935930Y-107950499D01*
X115935931Y-107950499D01*
X116064070Y-107950499D01*
X116064071Y-107950498D01*
X116189744Y-107925501D01*
X116308127Y-107876465D01*
X116414669Y-107805277D01*
X116468126Y-107751820D01*
X116529449Y-107718334D01*
X116555808Y-107715500D01*
X121735382Y-107715500D01*
X121802421Y-107735185D01*
X121836099Y-107769591D01*
X121837085Y-107768875D01*
X121964890Y-107944786D01*
X122115213Y-108095109D01*
X122287182Y-108220050D01*
X122295946Y-108224516D01*
X122346742Y-108272491D01*
X122363536Y-108340312D01*
X122340998Y-108406447D01*
X122295946Y-108445484D01*
X122287182Y-108449949D01*
X122115213Y-108574890D01*
X121964890Y-108725213D01*
X121839951Y-108897179D01*
X121743444Y-109086585D01*
X121677753Y-109288760D01*
X121644500Y-109498713D01*
X121644500Y-109711286D01*
X121677753Y-109921239D01*
X121743444Y-110123414D01*
X121839951Y-110312820D01*
X121964890Y-110484786D01*
X122115213Y-110635109D01*
X122287182Y-110760050D01*
X122295946Y-110764516D01*
X122346742Y-110812491D01*
X122363536Y-110880312D01*
X122340998Y-110946447D01*
X122295946Y-110985484D01*
X122287182Y-110989949D01*
X122115213Y-111114890D01*
X121964890Y-111265213D01*
X121837085Y-111441125D01*
X121835740Y-111440148D01*
X121789295Y-111482166D01*
X121735382Y-111494500D01*
X118346569Y-111494500D01*
X118279530Y-111474815D01*
X118258888Y-111458181D01*
X111686819Y-104886112D01*
X111653334Y-104824789D01*
X111650500Y-104798431D01*
X111650500Y-104169808D01*
X111670185Y-104102769D01*
X111722989Y-104057014D01*
X111792147Y-104047070D01*
X111855703Y-104076095D01*
G37*
%TD.AperFunction*%
%TD*%
M02*
