%TF.GenerationSoftware,KiCad,Pcbnew,10.0.1*%
%TF.CreationDate,2026-06-30T13:23:00-05:00*%
%TF.ProjectId,PelletPirate_ESP,50656c6c-6574-4506-9972-6174655f4553,rev?*%
%TF.SameCoordinates,Original*%
%TF.FileFunction,Paste,Top*%
%TF.FilePolarity,Positive*%
%FSLAX46Y46*%
G04 Gerber Fmt 4.6, Leading zero omitted, Abs format (unit mm)*
G04 Created by KiCad (PCBNEW 10.0.1) date 2026-06-30 13:23:00*
%MOMM*%
%LPD*%
G01*
G04 APERTURE LIST*
G04 Aperture macros list*
%AMRoundRect*
0 Rectangle with rounded corners*
0 $1 Rounding radius*
0 $2 $3 $4 $5 $6 $7 $8 $9 X,Y pos of 4 corners*
0 Add a 4 corners polygon primitive as box body*
4,1,4,$2,$3,$4,$5,$6,$7,$8,$9,$2,$3,0*
0 Add four circle primitives for the rounded corners*
1,1,$1+$1,$2,$3*
1,1,$1+$1,$4,$5*
1,1,$1+$1,$6,$7*
1,1,$1+$1,$8,$9*
0 Add four rect primitives between the rounded corners*
20,1,$1+$1,$2,$3,$4,$5,0*
20,1,$1+$1,$4,$5,$6,$7,0*
20,1,$1+$1,$6,$7,$8,$9,0*
20,1,$1+$1,$8,$9,$2,$3,0*%
G04 Aperture macros list end*
%ADD10RoundRect,0.218750X-0.218750X-0.256250X0.218750X-0.256250X0.218750X0.256250X-0.218750X0.256250X0*%
%ADD11RoundRect,0.135000X0.185000X-0.135000X0.185000X0.135000X-0.185000X0.135000X-0.185000X-0.135000X0*%
%ADD12RoundRect,0.250000X0.650000X-0.325000X0.650000X0.325000X-0.650000X0.325000X-0.650000X-0.325000X0*%
%ADD13RoundRect,0.073750X-0.531250X-0.221250X0.531250X-0.221250X0.531250X0.221250X-0.531250X0.221250X0*%
%ADD14RoundRect,0.250000X0.475000X-0.250000X0.475000X0.250000X-0.475000X0.250000X-0.475000X-0.250000X0*%
%ADD15RoundRect,0.135000X0.135000X0.185000X-0.135000X0.185000X-0.135000X-0.185000X0.135000X-0.185000X0*%
%ADD16RoundRect,0.135000X-0.185000X0.135000X-0.185000X-0.135000X0.185000X-0.135000X0.185000X0.135000X0*%
%ADD17RoundRect,0.250000X-0.250000X-0.475000X0.250000X-0.475000X0.250000X0.475000X-0.250000X0.475000X0*%
%ADD18RoundRect,0.140000X0.170000X-0.140000X0.170000X0.140000X-0.170000X0.140000X-0.170000X-0.140000X0*%
%ADD19R,0.600000X1.150000*%
%ADD20R,0.300000X1.150000*%
%ADD21RoundRect,0.140000X-0.140000X-0.170000X0.140000X-0.170000X0.140000X0.170000X-0.140000X0.170000X0*%
%ADD22RoundRect,0.250000X0.250000X0.475000X-0.250000X0.475000X-0.250000X-0.475000X0.250000X-0.475000X0*%
%ADD23R,0.900000X0.900000*%
%ADD24R,1.500000X0.900000*%
%ADD25R,0.900000X1.500000*%
G04 APERTURE END LIST*
D10*
%TO.C,LED1*%
X100325000Y-71300000D03*
X101900000Y-71300000D03*
%TD*%
D11*
%TO.C,R37*%
X106610000Y-125920000D03*
X106610000Y-124900000D03*
%TD*%
D12*
%TO.C,C38*%
X108125000Y-71805000D03*
X108125000Y-68855000D03*
%TD*%
D13*
%TO.C,U1*%
X108890000Y-122905000D03*
X108890000Y-123855000D03*
X108890000Y-124805000D03*
X111400000Y-124805000D03*
X111400000Y-123855000D03*
X111400000Y-122905000D03*
%TD*%
D14*
%TO.C,C37*%
X105200000Y-71850000D03*
X105200000Y-69950000D03*
%TD*%
D15*
%TO.C,R31*%
X118220000Y-125500000D03*
X117200000Y-125500000D03*
%TD*%
D11*
%TO.C,R39*%
X103200000Y-72000000D03*
X103200000Y-70980000D03*
%TD*%
D16*
%TO.C,R38*%
X114800000Y-124980000D03*
X114800000Y-126000000D03*
%TD*%
D17*
%TO.C,C40*%
X113700000Y-122300000D03*
X115600000Y-122300000D03*
%TD*%
D18*
%TO.C,C17*%
X99900000Y-75780000D03*
X99900000Y-74820000D03*
%TD*%
D19*
%TO.C,J8*%
X107080000Y-127895000D03*
X107880000Y-127895000D03*
D20*
X109030000Y-127895000D03*
X110030000Y-127895000D03*
X110530000Y-127895000D03*
X111530000Y-127895000D03*
D19*
X113480000Y-127895000D03*
X112680000Y-127895000D03*
D20*
X112030000Y-127895000D03*
X111030000Y-127895000D03*
X109530000Y-127895000D03*
X108530000Y-127895000D03*
%TD*%
D11*
%TO.C,R30*%
X99900000Y-77720000D03*
X99900000Y-76700000D03*
%TD*%
D21*
%TO.C,C18*%
X120940000Y-125500000D03*
X121900000Y-125500000D03*
%TD*%
D16*
%TO.C,R35*%
X104500000Y-93900000D03*
X104500000Y-94920000D03*
%TD*%
D22*
%TO.C,C39*%
X100230000Y-125500000D03*
X98330000Y-125500000D03*
%TD*%
D23*
%TO.C,ESP1*%
X107335606Y-83460000D03*
X107340000Y-80660000D03*
X107340000Y-82060000D03*
X108735606Y-83460000D03*
X108740000Y-80660000D03*
X108740000Y-82060000D03*
X110135606Y-83460000D03*
X110140000Y-80660000D03*
X110140000Y-82060000D03*
D24*
X101490000Y-74340000D03*
X101490000Y-75610000D03*
X101490000Y-76880000D03*
X101490000Y-78150000D03*
X101490000Y-79420000D03*
X101490000Y-80690000D03*
X101490000Y-81960000D03*
X101490000Y-83230000D03*
X101490000Y-84500000D03*
X101490000Y-85770000D03*
X101490000Y-87040000D03*
X101490000Y-88310000D03*
X101490000Y-89580000D03*
X101490000Y-90850000D03*
D25*
X103255000Y-92100000D03*
X104525000Y-92100000D03*
X105795000Y-92100000D03*
X107065000Y-92100000D03*
X108335000Y-92100000D03*
X109605000Y-92100000D03*
X110875000Y-92100000D03*
X112145000Y-92100000D03*
X113415000Y-92100000D03*
X114685000Y-92100000D03*
X115955000Y-92100000D03*
X117225000Y-92100000D03*
D24*
X118990000Y-90850000D03*
X118990000Y-89580000D03*
X118990000Y-88310000D03*
X118990000Y-87040000D03*
X118990000Y-85770000D03*
X118990000Y-84500000D03*
X118990000Y-83230000D03*
X118990000Y-81960000D03*
X118990000Y-80690000D03*
X118990000Y-79420000D03*
X118990000Y-78150000D03*
X118990000Y-76880000D03*
X118990000Y-75610000D03*
X118990000Y-74340000D03*
%TD*%
D16*
%TO.C,R36*%
X117200000Y-93880000D03*
X117200000Y-94900000D03*
%TD*%
M02*
