G04 PCB_to_LCD_FPC B.Mask openings*
%FSLAX46Y46*%
%MOMM*%
%LPD*%
%ADD10C,0.100000*%
%ADD11R,0.100000X2.500000*%
%ADD12R,0.300000X0.650000*%
%ADD13R,0.300000X0.800000*%
%ADD14R,0.500000X0.700000*%
G01*
D13*
X94300000Y55150000D03*
D11*
X94300000Y123750000D03*
D12*
X94600000Y53000000D03*
D11*
X94600000Y123750000D03*
D13*
X94900000Y55150000D03*
D11*
X94900000Y123750000D03*
D12*
X95200000Y53000000D03*
D11*
X95200000Y123750000D03*
D13*
X95500000Y55150000D03*
D11*
X95500000Y123750000D03*
D12*
X95800000Y53000000D03*
D11*
X95800000Y123750000D03*
D13*
X96100000Y55150000D03*
D11*
X96100000Y123750000D03*
D12*
X96400000Y53000000D03*
D11*
X96400000Y123750000D03*
D13*
X96700000Y55150000D03*
D11*
X96700000Y123750000D03*
D12*
X97000000Y53000000D03*
D11*
X97000000Y123750000D03*
D13*
X97300000Y55150000D03*
D11*
X97300000Y123750000D03*
D12*
X97600000Y53000000D03*
D11*
X97600000Y123750000D03*
D13*
X97900000Y55150000D03*
D11*
X97900000Y123750000D03*
D12*
X98200000Y53000000D03*
D11*
X98200000Y123750000D03*
D13*
X98500000Y55150000D03*
D11*
X98500000Y123750000D03*
D12*
X98800000Y53000000D03*
D11*
X98800000Y123750000D03*
D13*
X99100000Y55150000D03*
D11*
X99100000Y123750000D03*
D12*
X99400000Y53000000D03*
D11*
X99400000Y123750000D03*
D13*
X99700000Y55150000D03*
D11*
X99700000Y123750000D03*
D12*
X100000000Y53000000D03*
D11*
X100000000Y123750000D03*
D13*
X100300000Y55150000D03*
D11*
X100300000Y123750000D03*
D12*
X100600000Y53000000D03*
D11*
X100600000Y123750000D03*
D13*
X100900000Y55150000D03*
D11*
X100900000Y123750000D03*
D12*
X101200000Y53000000D03*
D11*
X101200000Y123750000D03*
D13*
X101500000Y55150000D03*
D11*
X101500000Y123750000D03*
D12*
X101800000Y53000000D03*
D11*
X101800000Y123750000D03*
D13*
X102100000Y55150000D03*
D11*
X102100000Y123750000D03*
D12*
X102400000Y53000000D03*
D11*
X102400000Y123750000D03*
D13*
X102700000Y55150000D03*
D11*
X102700000Y123750000D03*
D12*
X103000000Y53000000D03*
D11*
X103000000Y123750000D03*
D13*
X103300000Y55150000D03*
D11*
X103300000Y123750000D03*
D12*
X103600000Y53000000D03*
D11*
X103600000Y123750000D03*
D13*
X103900000Y55150000D03*
D11*
X103900000Y123750000D03*
D12*
X104200000Y53000000D03*
D11*
X104200000Y123750000D03*
D13*
X104500000Y55150000D03*
D11*
X104500000Y123750000D03*
D12*
X104800000Y53000000D03*
D11*
X104800000Y123750000D03*
D13*
X105100000Y55150000D03*
D11*
X105100000Y123750000D03*
D12*
X105400000Y53000000D03*
D11*
X105400000Y123750000D03*
D13*
X105700000Y55150000D03*
D11*
X105700000Y123750000D03*
D14*
X93900000Y54950000D03*
D14*
X106100000Y54950000D03*
M02*