%TF.GenerationSoftware,KiCad,Pcbnew,10.0.5*%
%TF.CreationDate,2026-08-16T20:56:07-05:00*%
%TF.ProjectId,PCB_to_LCD_FPC_REV_G,5043425f-746f-45f4-9c43-445f4650435f,rev?*%
%TF.SameCoordinates,Original*%
%TF.FileFunction,Soldermask,Top*%
%TF.FilePolarity,Negative*%
%FSLAX46Y46*%
G04 Gerber Fmt 4.6, Leading zero omitted, Abs format (unit mm)*
G04 Created by KiCad (PCBNEW 10.0.5) date 2026-08-16 20:56:07*
%MOMM*%
%LPD*%
G01*
G04 APERTURE LIST*
G04 Aperture macros list*
%AMRoundRect*
0 Rectangle with rounded corners*
0 $1 Rounding radius*
0 $2 $3 $4 $5 $6 $7 $8 $9 X,Y pos of 4 corners*
0 Add a 4 corners polygon primitive as box body*
4,1,4,$2,$3,$4,$5,$6,$7,$8,$9,$2,$3,0*
0 Add four circle primitives for the rounded corners*
1,1,$1+$1,$2,$3*
1,1,$1+$1,$4,$5*
1,1,$1+$1,$6,$7*
1,1,$1+$1,$8,$9*
0 Add four rect primitives between the rounded corners*
20,1,$1+$1,$2,$3,$4,$5,0*
20,1,$1+$1,$4,$5,$6,$7,0*
20,1,$1+$1,$6,$7,$8,$9,0*
20,1,$1+$1,$8,$9,$2,$3,0*%
G04 Aperture macros list end*
%ADD10RoundRect,0.102000X-0.400000X0.150000X-0.400000X-0.150000X0.400000X-0.150000X0.400000X0.150000X0*%
%ADD11RoundRect,0.102000X-0.325000X0.150000X-0.325000X-0.150000X0.325000X-0.150000X0.325000X0.150000X0*%
%ADD12RoundRect,0.102000X-0.475000X0.200000X-0.475000X-0.200000X0.475000X-0.200000X0.475000X0.200000X0*%
G04 APERTURE END LIST*
D10*
%TO.C,J1*%
X110325000Y-95975000D03*
D11*
X113200000Y-96275000D03*
D10*
X110325000Y-96575000D03*
D11*
X113200000Y-96875000D03*
D10*
X110325000Y-97175000D03*
D11*
X113200000Y-97475000D03*
D10*
X110325000Y-97775000D03*
D11*
X113200000Y-98075000D03*
D10*
X110325000Y-98375000D03*
D11*
X113200000Y-98675000D03*
D10*
X110325000Y-98975000D03*
D11*
X113200000Y-99275000D03*
D10*
X110325000Y-99575000D03*
D11*
X113200000Y-99875000D03*
D10*
X110325000Y-100175000D03*
D11*
X113200000Y-100475000D03*
D10*
X110325000Y-100775000D03*
D11*
X113200000Y-101075000D03*
D10*
X110325000Y-101375000D03*
D11*
X113200000Y-101675000D03*
D10*
X110325000Y-101975000D03*
D11*
X113200000Y-102275000D03*
D10*
X110325000Y-102575000D03*
D11*
X113200000Y-102875000D03*
D10*
X110325000Y-103175000D03*
D11*
X113200000Y-103475000D03*
D10*
X110325000Y-103775000D03*
D11*
X113200000Y-104075000D03*
D10*
X110325000Y-104375000D03*
D11*
X113200000Y-104675000D03*
D10*
X110325000Y-104975000D03*
D11*
X113200000Y-105275000D03*
D10*
X110325000Y-105575000D03*
D11*
X113200000Y-105875000D03*
D10*
X110325000Y-106175000D03*
D11*
X113200000Y-106475000D03*
D10*
X110325000Y-106775000D03*
D11*
X113200000Y-107075000D03*
D10*
X110325000Y-107375000D03*
D12*
X110600000Y-95275000D03*
X110600000Y-108075000D03*
%TD*%
M02*
