M48
; DRILL file KiCad 10.0.5 date 2026-08-16T20:56:07
; FORMAT={-:-/ absolute / metric / decimal}
; #@! TF.CreationDate,2026-08-16T20:56:07-05:00
; #@! TF.GenerationSoftware,Kicad,Pcbnew,10.0.5
; #@! TF.FileFunction,MixedPlating,1,2
FMAT,2
METRIC
; #@! TA.AperFunction,Plated,PTH,ViaDrill
T1C0.100
%
G90
G05
T1
X114.6Y-95.975
X114.6Y-96.6
X114.6Y-97.2
X114.6Y-97.8
X114.6Y-98.4
X114.6Y-99.0
X114.6Y-99.6
X114.6Y-100.2
X114.6Y-100.8
X114.6Y-101.4
X114.6Y-102.0
X114.6Y-102.6
X114.6Y-103.2
X114.6Y-103.8
X114.6Y-104.4
X114.6Y-105.0
X114.6Y-105.6
X114.6Y-106.2
X114.6Y-106.8
X114.6Y-107.425
X115.3Y-96.3
X115.3Y-96.875
X115.3Y-97.5
X115.3Y-98.1
X115.3Y-98.7
X115.3Y-99.3
X115.3Y-99.9
X115.3Y-100.5
X115.3Y-101.1
X115.3Y-101.7
X115.3Y-102.3
X115.3Y-102.9
X115.3Y-103.5
X115.3Y-104.1
X115.3Y-104.7
X115.3Y-105.3
X115.3Y-105.9
X115.3Y-106.5
X115.3Y-107.1
M30
