%TF.GenerationSoftware,KiCad,Pcbnew,10.0.5*%
%TF.CreationDate,2026-08-16T20:56:07-05:00*%
%TF.ProjectId,PCB_to_LCD_FPC_REV_G,5043425f-746f-45f4-9c43-445f4650435f,rev?*%
%TF.SameCoordinates,Original*%
%TF.FileFunction,Copper,L2,Bot*%
%TF.FilePolarity,Positive*%
%FSLAX46Y46*%
G04 Gerber Fmt 4.6, Leading zero omitted, Abs format (unit mm)*
G04 Created by KiCad (PCBNEW 10.0.5) date 2026-08-16 20:56:07*
%MOMM*%
%LPD*%
G01*
G04 APERTURE LIST*
G04 Aperture macros list*
%AMFreePoly0*
4,1,9,2.600000,-0.150000,1.900000,-0.150000,1.800000,-0.050000,0.800000,-0.050000,0.650000,-0.100000,-0.100000,-0.100000,-0.100000,0.150000,2.600000,0.150000,2.600000,-0.150000,2.600000,-0.150000,$1*%
%AMFreePoly1*
4,1,11,1.900000,0.050000,1.900000,-0.050000,1.800000,-0.150000,0.800000,-0.150000,0.650000,-0.100000,-0.100000,-0.100000,-0.100000,0.100000,0.650000,0.100000,0.800000,0.150000,1.800000,0.150000,1.900000,0.050000,1.900000,0.050000,$1*%
%AMFreePoly2*
4,1,13,2.600000,-0.150000,1.900000,-0.150000,1.800000,-0.050000,0.800000,-0.050000,0.650000,-0.100000,-0.100000,-0.100000,-0.100000,0.100000,0.650000,0.100000,0.800000,0.050000,1.800000,0.050000,1.900000,0.150000,2.600000,0.150000,2.600000,-0.150000,2.600000,-0.150000,$1*%
%AMFreePoly3*
4,1,9,2.600000,-0.150000,-0.100000,-0.150000,-0.100000,0.100000,0.650000,0.100000,0.800000,0.050000,1.800000,0.050000,1.900000,0.150000,2.600000,0.150000,2.600000,-0.150000,2.600000,-0.150000,$1*%
G04 Aperture macros list end*
%TA.AperFunction,SMDPad,CuDef*%
%ADD10FreePoly0,0.000000*%
%TD*%
%TA.AperFunction,SMDPad,CuDef*%
%ADD11FreePoly1,0.000000*%
%TD*%
%TA.AperFunction,SMDPad,CuDef*%
%ADD12FreePoly2,0.000000*%
%TD*%
%TA.AperFunction,SMDPad,CuDef*%
%ADD13FreePoly3,0.000000*%
%TD*%
%TA.AperFunction,ViaPad*%
%ADD14C,0.250000*%
%TD*%
%TA.AperFunction,ViaPad*%
%ADD15C,0.200000*%
%TD*%
%TA.AperFunction,Conductor*%
%ADD16C,0.250000*%
%TD*%
%TA.AperFunction,Conductor*%
%ADD17C,0.200000*%
%TD*%
G04 APERTURE END LIST*
D10*
%TO.P,J2,1,Pin_1_1*%
%TO.N,Net-(J2-Pin_1)*%
X176900000Y-96000000D03*
D11*
%TO.P,J2,2,Pin_2_2*%
%TO.N,Net-(J2-Pin_2)*%
X176900000Y-96300000D03*
D12*
%TO.P,J2,3,Pin_3_3*%
%TO.N,Net-(J2-Pin_3)*%
X176900000Y-96600000D03*
D11*
%TO.P,J2,4,Pin_4_4*%
%TO.N,Net-(J2-Pin_4)*%
X176900000Y-96900000D03*
D12*
%TO.P,J2,5,Pin_5_5*%
%TO.N,Net-(J2-Pin_5)*%
X176900000Y-97200000D03*
D11*
%TO.P,J2,6,Pin_6_6*%
%TO.N,Net-(J2-Pin_6)*%
X176900000Y-97500000D03*
D12*
%TO.P,J2,7,Pin_7_7*%
%TO.N,Net-(J2-Pin_7)*%
X176900000Y-97800000D03*
D11*
%TO.P,J2,8,Pin_8_8*%
%TO.N,Net-(J2-Pin_8)*%
X176900000Y-98100000D03*
D12*
%TO.P,J2,9,Pin_9_9*%
%TO.N,Net-(J2-Pin_9)*%
X176900000Y-98400000D03*
D11*
%TO.P,J2,10,Pin_10_10*%
%TO.N,Net-(J2-Pin_10)*%
X176900000Y-98700000D03*
D12*
%TO.P,J2,11,Pin_11_11*%
%TO.N,Net-(J2-Pin_11)*%
X176900000Y-99000000D03*
D11*
%TO.P,J2,12,Pin_12_12*%
%TO.N,Net-(J2-Pin_12)*%
X176900000Y-99300000D03*
D12*
%TO.P,J2,13,Pin_13_13*%
%TO.N,Net-(J2-Pin_13)*%
X176900000Y-99600000D03*
D11*
%TO.P,J2,14,Pin_14_14*%
%TO.N,Net-(J2-Pin_14)*%
X176900000Y-99900000D03*
D12*
%TO.P,J2,15,Pin_15_15*%
%TO.N,Net-(J2-Pin_15)*%
X176900000Y-100200000D03*
D11*
%TO.P,J2,16,Pin_16_16*%
%TO.N,Net-(J2-Pin_16)*%
X176900000Y-100500000D03*
D12*
%TO.P,J2,17,Pin_17_17*%
%TO.N,Net-(J2-Pin_17)*%
X176900000Y-100800000D03*
D11*
%TO.P,J2,18,Pin_18_18*%
%TO.N,Net-(J2-Pin_18)*%
X176900000Y-101100000D03*
D12*
%TO.P,J2,19,Pin_19_19*%
%TO.N,Net-(J2-Pin_19)*%
X176900000Y-101400000D03*
D11*
%TO.P,J2,20,Pin_20_20*%
%TO.N,Net-(J2-Pin_20)*%
X176900000Y-101700000D03*
D12*
%TO.P,J2,21,Pin_21_21*%
%TO.N,Net-(J2-Pin_21)*%
X176900000Y-102000000D03*
D11*
%TO.P,J2,22,Pin_22_22*%
%TO.N,Net-(J2-Pin_22)*%
X176900000Y-102300000D03*
D12*
%TO.P,J2,23,Pin_23_23*%
%TO.N,Net-(J2-Pin_23)*%
X176900000Y-102600000D03*
D11*
%TO.P,J2,24,Pin_24_24*%
%TO.N,Net-(J2-Pin_24)*%
X176900000Y-102900000D03*
D12*
%TO.P,J2,25,Pin_25_25*%
%TO.N,Net-(J2-Pin_25)*%
X176900000Y-103200000D03*
D11*
%TO.P,J2,26,Pin_26_26*%
%TO.N,Net-(J2-Pin_26)*%
X176900000Y-103500000D03*
D12*
%TO.P,J2,27,Pin_27_27*%
%TO.N,Net-(J2-Pin_27)*%
X176900000Y-103800000D03*
D11*
%TO.P,J2,28,Pin_28_28*%
%TO.N,Net-(J2-Pin_28)*%
X176900000Y-104100000D03*
D12*
%TO.P,J2,29,Pin_29_29*%
%TO.N,Net-(J2-Pin_29)*%
X176900000Y-104400000D03*
D11*
%TO.P,J2,30,Pin_30_30*%
%TO.N,Net-(J2-Pin_30)*%
X176900000Y-104700000D03*
D12*
%TO.P,J2,31,Pin_31_31*%
%TO.N,Net-(J2-Pin_31)*%
X176900000Y-105000000D03*
D11*
%TO.P,J2,32,Pin_32_32*%
%TO.N,Net-(J2-Pin_32)*%
X176900000Y-105300000D03*
D12*
%TO.P,J2,33,Pin_33_33*%
%TO.N,Net-(J2-Pin_33)*%
X176900000Y-105600000D03*
D11*
%TO.P,J2,34,Pin_34_34*%
%TO.N,Net-(J2-Pin_34)*%
X176900000Y-105900000D03*
D12*
%TO.P,J2,35,Pin_35_35*%
%TO.N,Net-(J2-Pin_35)*%
X176900000Y-106200000D03*
D11*
%TO.P,J2,36,Pin_36_36*%
%TO.N,Net-(J2-Pin_36)*%
X176900000Y-106500000D03*
D12*
%TO.P,J2,37,Pin_37_37*%
%TO.N,Net-(J2-Pin_37)*%
X176900000Y-106800000D03*
D11*
%TO.P,J2,38,Pin_38_38*%
%TO.N,Net-(J2-Pin_38)*%
X176900000Y-107100000D03*
D13*
%TO.P,J2,39,Pin_39_39*%
%TO.N,Net-(J2-Pin_39)*%
X176900000Y-107400000D03*
%TD*%
D14*
%TO.N,Net-(J2-Pin_1)*%
X114600000Y-95975000D03*
D15*
%TO.N,Net-(J2-Pin_2)*%
X115300000Y-96300000D03*
%TO.N,Net-(J2-Pin_3)*%
X114600000Y-96600000D03*
%TO.N,Net-(J2-Pin_4)*%
X115300000Y-96875000D03*
%TO.N,Net-(J2-Pin_5)*%
X114600000Y-97200000D03*
%TO.N,Net-(J2-Pin_6)*%
X115300000Y-97500000D03*
%TO.N,Net-(J2-Pin_7)*%
X114600000Y-97800000D03*
%TO.N,Net-(J2-Pin_8)*%
X115300000Y-98100000D03*
%TO.N,Net-(J2-Pin_9)*%
X114600000Y-98400000D03*
%TO.N,Net-(J2-Pin_10)*%
X115300000Y-98700000D03*
%TO.N,Net-(J2-Pin_11)*%
X114600000Y-99000000D03*
%TO.N,Net-(J2-Pin_12)*%
X115300000Y-99300000D03*
%TO.N,Net-(J2-Pin_13)*%
X114600000Y-99600000D03*
%TO.N,Net-(J2-Pin_14)*%
X115300000Y-99900000D03*
%TO.N,Net-(J2-Pin_15)*%
X114600000Y-100200000D03*
%TO.N,Net-(J2-Pin_16)*%
X115300000Y-100500000D03*
%TO.N,Net-(J2-Pin_17)*%
X114600000Y-100800000D03*
%TO.N,Net-(J2-Pin_18)*%
X115300000Y-101100000D03*
%TO.N,Net-(J2-Pin_19)*%
X114600000Y-101400000D03*
%TO.N,Net-(J2-Pin_20)*%
X115300000Y-101700000D03*
%TO.N,Net-(J2-Pin_21)*%
X114600000Y-102000000D03*
%TO.N,Net-(J2-Pin_22)*%
X115300000Y-102300000D03*
%TO.N,Net-(J2-Pin_23)*%
X114600000Y-102600000D03*
%TO.N,Net-(J2-Pin_24)*%
X115300000Y-102900000D03*
%TO.N,Net-(J2-Pin_25)*%
X114600000Y-103200000D03*
%TO.N,Net-(J2-Pin_26)*%
X115300000Y-103500000D03*
%TO.N,Net-(J2-Pin_27)*%
X114600000Y-103800000D03*
%TO.N,Net-(J2-Pin_28)*%
X115300000Y-104100000D03*
%TO.N,Net-(J2-Pin_29)*%
X114600000Y-104400000D03*
%TO.N,Net-(J2-Pin_30)*%
X115300000Y-104700000D03*
%TO.N,Net-(J2-Pin_31)*%
X114600000Y-105000000D03*
%TO.N,Net-(J2-Pin_32)*%
X115300000Y-105300000D03*
%TO.N,Net-(J2-Pin_33)*%
X114600000Y-105600000D03*
%TO.N,Net-(J2-Pin_34)*%
X115300000Y-105900000D03*
%TO.N,Net-(J2-Pin_35)*%
X114600000Y-106200000D03*
%TO.N,Net-(J2-Pin_36)*%
X115300000Y-106500000D03*
%TO.N,Net-(J2-Pin_37)*%
X114600000Y-106800000D03*
%TO.N,Net-(J2-Pin_38)*%
X115300000Y-107100000D03*
D14*
%TO.N,Net-(J2-Pin_39)*%
X114600000Y-107425000D03*
%TD*%
%TO.N,Net-(J2-Pin_1)*%
D16*
X176900000Y-95975000D02*
X114625000Y-95975000D01*
D17*
X114625000Y-96000000D02*
X114600000Y-95975000D01*
%TO.N,Net-(J2-Pin_2)*%
X176900000Y-96300000D02*
X115300000Y-96300000D01*
%TO.N,Net-(J2-Pin_3)*%
X176900000Y-96600000D02*
X114600000Y-96600000D01*
%TO.N,Net-(J2-Pin_4)*%
X176900000Y-96900000D02*
X115325000Y-96900000D01*
X115325000Y-96900000D02*
X115300000Y-96875000D01*
%TO.N,Net-(J2-Pin_5)*%
X176900000Y-97200000D02*
X114600000Y-97200000D01*
%TO.N,Net-(J2-Pin_6)*%
X176900000Y-97500000D02*
X115300000Y-97500000D01*
%TO.N,Net-(J2-Pin_7)*%
X176900000Y-97800000D02*
X114600000Y-97800000D01*
%TO.N,Net-(J2-Pin_8)*%
X176900000Y-98100000D02*
X115300000Y-98100000D01*
%TO.N,Net-(J2-Pin_9)*%
X176900000Y-98400000D02*
X114600000Y-98400000D01*
%TO.N,Net-(J2-Pin_10)*%
X176900000Y-98700000D02*
X115300000Y-98700000D01*
%TO.N,Net-(J2-Pin_11)*%
X176900000Y-99000000D02*
X114600000Y-99000000D01*
%TO.N,Net-(J2-Pin_12)*%
X176900000Y-99300000D02*
X115300000Y-99300000D01*
%TO.N,Net-(J2-Pin_13)*%
X176900000Y-99600000D02*
X114600000Y-99600000D01*
%TO.N,Net-(J2-Pin_14)*%
X176900000Y-99900000D02*
X115300000Y-99900000D01*
%TO.N,Net-(J2-Pin_15)*%
X176900000Y-100200000D02*
X114600000Y-100200000D01*
%TO.N,Net-(J2-Pin_16)*%
X176900000Y-100500000D02*
X115300000Y-100500000D01*
%TO.N,Net-(J2-Pin_17)*%
X176900000Y-100800000D02*
X114600000Y-100800000D01*
%TO.N,Net-(J2-Pin_18)*%
X176900000Y-101100000D02*
X115300000Y-101100000D01*
%TO.N,Net-(J2-Pin_19)*%
X176900000Y-101400000D02*
X114600000Y-101400000D01*
%TO.N,Net-(J2-Pin_20)*%
X176900000Y-101700000D02*
X115300000Y-101700000D01*
%TO.N,Net-(J2-Pin_21)*%
X176900000Y-102000000D02*
X114600000Y-102000000D01*
%TO.N,Net-(J2-Pin_22)*%
X176900000Y-102300000D02*
X115300000Y-102300000D01*
%TO.N,Net-(J2-Pin_23)*%
X176900000Y-102600000D02*
X114600000Y-102600000D01*
%TO.N,Net-(J2-Pin_24)*%
X176900000Y-102900000D02*
X115300000Y-102900000D01*
%TO.N,Net-(J2-Pin_25)*%
X176900000Y-103200000D02*
X114600000Y-103200000D01*
%TO.N,Net-(J2-Pin_26)*%
X176900000Y-103500000D02*
X115300000Y-103500000D01*
%TO.N,Net-(J2-Pin_27)*%
X176900000Y-103800000D02*
X114600000Y-103800000D01*
%TO.N,Net-(J2-Pin_28)*%
X176900000Y-104100000D02*
X115300000Y-104100000D01*
%TO.N,Net-(J2-Pin_29)*%
X176900000Y-104400000D02*
X114600000Y-104400000D01*
%TO.N,Net-(J2-Pin_30)*%
X176900000Y-104700000D02*
X115300000Y-104700000D01*
%TO.N,Net-(J2-Pin_31)*%
X176900000Y-105000000D02*
X114600000Y-105000000D01*
%TO.N,Net-(J2-Pin_32)*%
X176900000Y-105300000D02*
X115300000Y-105300000D01*
%TO.N,Net-(J2-Pin_33)*%
X176900000Y-105600000D02*
X114600000Y-105600000D01*
%TO.N,Net-(J2-Pin_34)*%
X176900000Y-105900000D02*
X115300000Y-105900000D01*
%TO.N,Net-(J2-Pin_35)*%
X176900000Y-106200000D02*
X114600000Y-106200000D01*
%TO.N,Net-(J2-Pin_36)*%
X176900000Y-106500000D02*
X115300000Y-106500000D01*
%TO.N,Net-(J2-Pin_37)*%
X176900000Y-106800000D02*
X114600000Y-106800000D01*
%TO.N,Net-(J2-Pin_38)*%
X176900000Y-107100000D02*
X115300000Y-107100000D01*
%TO.N,Net-(J2-Pin_39)*%
D16*
X176900000Y-107425000D02*
X114600000Y-107425000D01*
%TD*%
M02*
