%TF.GenerationSoftware,KiCad,Pcbnew,10.0.5*%
%TF.CreationDate,2026-08-16T20:56:07-05:00*%
%TF.ProjectId,PCB_to_LCD_FPC_REV_G,5043425f-746f-45f4-9c43-445f4650435f,rev?*%
%TF.SameCoordinates,Original*%
%TF.FileFunction,Copper,L1,Top*%
%TF.FilePolarity,Positive*%
%FSLAX46Y46*%
G04 Gerber Fmt 4.6, Leading zero omitted, Abs format (unit mm)*
G04 Created by KiCad (PCBNEW 10.0.5) date 2026-08-16 20:56:07*
%MOMM*%
%LPD*%
G01*
G04 APERTURE LIST*
%TA.AperFunction,SMDPad,CuDef*%
%ADD10R,0.800000X0.300000*%
%TD*%
%TA.AperFunction,SMDPad,CuDef*%
%ADD11R,0.650000X0.300000*%
%TD*%
%TA.AperFunction,SMDPad,CuDef*%
%ADD12R,0.950000X0.400000*%
%TD*%
%TA.AperFunction,ViaPad*%
%ADD13C,0.250000*%
%TD*%
%TA.AperFunction,ViaPad*%
%ADD14C,0.200000*%
%TD*%
%TA.AperFunction,Conductor*%
%ADD15C,0.070000*%
%TD*%
G04 APERTURE END LIST*
D10*
%TO.P,J1,1,1_1*%
%TO.N,Net-(J2-Pin_1)*%
X110325000Y-95975000D03*
D11*
%TO.P,J1,2,2_2*%
%TO.N,Net-(J2-Pin_2)*%
X113200000Y-96275000D03*
D10*
%TO.P,J1,3,3_3*%
%TO.N,Net-(J2-Pin_3)*%
X110325000Y-96575000D03*
D11*
%TO.P,J1,4,4_4*%
%TO.N,Net-(J2-Pin_4)*%
X113200000Y-96875000D03*
D10*
%TO.P,J1,5,5_5*%
%TO.N,Net-(J2-Pin_5)*%
X110325000Y-97175000D03*
D11*
%TO.P,J1,6,6_6*%
%TO.N,Net-(J2-Pin_6)*%
X113200000Y-97475000D03*
D10*
%TO.P,J1,7,7_7*%
%TO.N,Net-(J2-Pin_7)*%
X110325000Y-97775000D03*
D11*
%TO.P,J1,8,8_8*%
%TO.N,Net-(J2-Pin_8)*%
X113200000Y-98075000D03*
D10*
%TO.P,J1,9,9_9*%
%TO.N,Net-(J2-Pin_9)*%
X110325000Y-98375000D03*
D11*
%TO.P,J1,10,10_10*%
%TO.N,Net-(J2-Pin_10)*%
X113200000Y-98675000D03*
D10*
%TO.P,J1,11,11_11*%
%TO.N,Net-(J2-Pin_11)*%
X110325000Y-98975000D03*
D11*
%TO.P,J1,12,12_12*%
%TO.N,Net-(J2-Pin_12)*%
X113200000Y-99275000D03*
D10*
%TO.P,J1,13,13_13*%
%TO.N,Net-(J2-Pin_13)*%
X110325000Y-99575000D03*
D11*
%TO.P,J1,14,14_14*%
%TO.N,Net-(J2-Pin_14)*%
X113200000Y-99875000D03*
D10*
%TO.P,J1,15,15_15*%
%TO.N,Net-(J2-Pin_15)*%
X110325000Y-100175000D03*
D11*
%TO.P,J1,16,16_16*%
%TO.N,Net-(J2-Pin_16)*%
X113200000Y-100475000D03*
D10*
%TO.P,J1,17,17_17*%
%TO.N,Net-(J2-Pin_17)*%
X110325000Y-100775000D03*
D11*
%TO.P,J1,18,18_18*%
%TO.N,Net-(J2-Pin_18)*%
X113200000Y-101075000D03*
D10*
%TO.P,J1,19,19_19*%
%TO.N,Net-(J2-Pin_19)*%
X110325000Y-101375000D03*
D11*
%TO.P,J1,20,20_20*%
%TO.N,Net-(J2-Pin_20)*%
X113200000Y-101675000D03*
D10*
%TO.P,J1,21,21_21*%
%TO.N,Net-(J2-Pin_21)*%
X110325000Y-101975000D03*
D11*
%TO.P,J1,22,22_22*%
%TO.N,Net-(J2-Pin_22)*%
X113200000Y-102275000D03*
D10*
%TO.P,J1,23,23_23*%
%TO.N,Net-(J2-Pin_23)*%
X110325000Y-102575000D03*
D11*
%TO.P,J1,24,24_24*%
%TO.N,Net-(J2-Pin_24)*%
X113200000Y-102875000D03*
D10*
%TO.P,J1,25,25_25*%
%TO.N,Net-(J2-Pin_25)*%
X110325000Y-103175000D03*
D11*
%TO.P,J1,26,26_26*%
%TO.N,Net-(J2-Pin_26)*%
X113200000Y-103475000D03*
D10*
%TO.P,J1,27,27_27*%
%TO.N,Net-(J2-Pin_27)*%
X110325000Y-103775000D03*
D11*
%TO.P,J1,28,28_28*%
%TO.N,Net-(J2-Pin_28)*%
X113200000Y-104075000D03*
D10*
%TO.P,J1,29,29_29*%
%TO.N,Net-(J2-Pin_29)*%
X110325000Y-104375000D03*
D11*
%TO.P,J1,30,30_30*%
%TO.N,Net-(J2-Pin_30)*%
X113200000Y-104675000D03*
D10*
%TO.P,J1,31,31_31*%
%TO.N,Net-(J2-Pin_31)*%
X110325000Y-104975000D03*
D11*
%TO.P,J1,32,32_32*%
%TO.N,Net-(J2-Pin_32)*%
X113200000Y-105275000D03*
D10*
%TO.P,J1,33,33_33*%
%TO.N,Net-(J2-Pin_33)*%
X110325000Y-105575000D03*
D11*
%TO.P,J1,34,34_34*%
%TO.N,Net-(J2-Pin_34)*%
X113200000Y-105875000D03*
D10*
%TO.P,J1,35,35_35*%
%TO.N,Net-(J2-Pin_35)*%
X110325000Y-106175000D03*
D11*
%TO.P,J1,36,36_36*%
%TO.N,Net-(J2-Pin_36)*%
X113200000Y-106475000D03*
D10*
%TO.P,J1,37,37_37*%
%TO.N,Net-(J2-Pin_37)*%
X110325000Y-106775000D03*
D11*
%TO.P,J1,38,38_38*%
%TO.N,Net-(J2-Pin_38)*%
X113200000Y-107075000D03*
D10*
%TO.P,J1,39,39_39*%
%TO.N,Net-(J2-Pin_39)*%
X110325000Y-107375000D03*
D12*
%TO.P,J1,S1*%
%TO.N,N/C*%
X110600000Y-95275000D03*
%TO.P,J1,S2*%
X110600000Y-108075000D03*
%TD*%
D13*
%TO.N,Net-(J2-Pin_1)*%
X114600000Y-95975000D03*
D14*
%TO.N,Net-(J2-Pin_2)*%
X115300000Y-96300000D03*
%TO.N,Net-(J2-Pin_3)*%
X114600000Y-96600000D03*
%TO.N,Net-(J2-Pin_4)*%
X115300000Y-96875000D03*
%TO.N,Net-(J2-Pin_5)*%
X114600000Y-97200000D03*
%TO.N,Net-(J2-Pin_6)*%
X115300000Y-97500000D03*
%TO.N,Net-(J2-Pin_7)*%
X114600000Y-97800000D03*
%TO.N,Net-(J2-Pin_8)*%
X115300000Y-98100000D03*
%TO.N,Net-(J2-Pin_9)*%
X114600000Y-98400000D03*
%TO.N,Net-(J2-Pin_10)*%
X115300000Y-98700000D03*
%TO.N,Net-(J2-Pin_11)*%
X114600000Y-99000000D03*
%TO.N,Net-(J2-Pin_12)*%
X115300000Y-99300000D03*
%TO.N,Net-(J2-Pin_13)*%
X114600000Y-99600000D03*
%TO.N,Net-(J2-Pin_14)*%
X115300000Y-99900000D03*
%TO.N,Net-(J2-Pin_15)*%
X114600000Y-100200000D03*
%TO.N,Net-(J2-Pin_16)*%
X115300000Y-100500000D03*
%TO.N,Net-(J2-Pin_17)*%
X114600000Y-100800000D03*
%TO.N,Net-(J2-Pin_18)*%
X115300000Y-101100000D03*
%TO.N,Net-(J2-Pin_19)*%
X114600000Y-101400000D03*
%TO.N,Net-(J2-Pin_20)*%
X115300000Y-101700000D03*
%TO.N,Net-(J2-Pin_21)*%
X114600000Y-102000000D03*
%TO.N,Net-(J2-Pin_22)*%
X115300000Y-102300000D03*
%TO.N,Net-(J2-Pin_23)*%
X114600000Y-102600000D03*
%TO.N,Net-(J2-Pin_24)*%
X115300000Y-102900000D03*
%TO.N,Net-(J2-Pin_25)*%
X114600000Y-103200000D03*
%TO.N,Net-(J2-Pin_26)*%
X115300000Y-103500000D03*
%TO.N,Net-(J2-Pin_27)*%
X114600000Y-103800000D03*
%TO.N,Net-(J2-Pin_28)*%
X115300000Y-104100000D03*
%TO.N,Net-(J2-Pin_29)*%
X114600000Y-104400000D03*
%TO.N,Net-(J2-Pin_30)*%
X115300000Y-104700000D03*
%TO.N,Net-(J2-Pin_31)*%
X114600000Y-105000000D03*
%TO.N,Net-(J2-Pin_32)*%
X115300000Y-105300000D03*
%TO.N,Net-(J2-Pin_33)*%
X114600000Y-105600000D03*
%TO.N,Net-(J2-Pin_34)*%
X115300000Y-105900000D03*
%TO.N,Net-(J2-Pin_35)*%
X114600000Y-106200000D03*
%TO.N,Net-(J2-Pin_36)*%
X115300000Y-106500000D03*
%TO.N,Net-(J2-Pin_37)*%
X114600000Y-106800000D03*
%TO.N,Net-(J2-Pin_38)*%
X115300000Y-107100000D03*
D13*
%TO.N,Net-(J2-Pin_39)*%
X114600000Y-107425000D03*
%TD*%
%TO.N,Net-(J2-Pin_1)*%
D15*
X114600000Y-95975000D02*
X110325000Y-95975000D01*
%TO.N,Net-(J2-Pin_2)*%
X113175000Y-96300000D02*
X115300000Y-96300000D01*
%TO.N,Net-(J2-Pin_3)*%
X110300000Y-96570000D02*
X114600000Y-96570000D01*
%TO.N,Net-(J2-Pin_4)*%
X115300000Y-96875000D02*
X113200000Y-96875000D01*
%TO.N,Net-(J2-Pin_5)*%
X110300000Y-97180000D02*
X114600000Y-97180000D01*
%TO.N,Net-(J2-Pin_6)*%
X113175000Y-97500000D02*
X115300000Y-97500000D01*
%TO.N,Net-(J2-Pin_7)*%
X110300000Y-97770000D02*
X114600000Y-97770000D01*
%TO.N,Net-(J2-Pin_8)*%
X113175000Y-98100000D02*
X115300000Y-98100000D01*
%TO.N,Net-(J2-Pin_9)*%
X110300000Y-98370000D02*
X114600000Y-98370000D01*
%TO.N,Net-(J2-Pin_10)*%
X113175000Y-98700000D02*
X115300000Y-98700000D01*
%TO.N,Net-(J2-Pin_11)*%
X110300000Y-98970000D02*
X114600000Y-98970000D01*
%TO.N,Net-(J2-Pin_12)*%
X113175000Y-99300000D02*
X115300000Y-99300000D01*
%TO.N,Net-(J2-Pin_13)*%
X114600000Y-99570000D02*
X110350000Y-99570000D01*
X110350000Y-99600000D02*
X110325000Y-99575000D01*
%TO.N,Net-(J2-Pin_14)*%
X113175000Y-99900000D02*
X115300000Y-99900000D01*
%TO.N,Net-(J2-Pin_15)*%
X114600000Y-100170000D02*
X110350000Y-100170000D01*
X110350000Y-100200000D02*
X110325000Y-100175000D01*
%TO.N,Net-(J2-Pin_16)*%
X113175000Y-100500000D02*
X115300000Y-100500000D01*
%TO.N,Net-(J2-Pin_17)*%
X114575000Y-100775000D02*
X110325000Y-100775000D01*
X110300000Y-100800000D02*
X110325000Y-100775000D01*
X114600000Y-100800000D02*
X114575000Y-100775000D01*
%TO.N,Net-(J2-Pin_18)*%
X113175000Y-101100000D02*
X115300000Y-101100000D01*
%TO.N,Net-(J2-Pin_19)*%
X110350000Y-101400000D02*
X110325000Y-101375000D01*
X114600000Y-101370000D02*
X110350000Y-101370000D01*
%TO.N,Net-(J2-Pin_20)*%
X113175000Y-101700000D02*
X115300000Y-101700000D01*
%TO.N,Net-(J2-Pin_21)*%
X111900000Y-101970000D02*
X111895000Y-101975000D01*
X110300000Y-102000000D02*
X110325000Y-101975000D01*
X111895000Y-101975000D02*
X110325000Y-101975000D01*
X114600000Y-101970000D02*
X111900000Y-101970000D01*
%TO.N,Net-(J2-Pin_22)*%
X113175000Y-102300000D02*
X115300000Y-102300000D01*
%TO.N,Net-(J2-Pin_23)*%
X110300000Y-102570000D02*
X114600000Y-102570000D01*
%TO.N,Net-(J2-Pin_24)*%
X113175000Y-102900000D02*
X115300000Y-102900000D01*
%TO.N,Net-(J2-Pin_25)*%
X110300000Y-103170000D02*
X114600000Y-103170000D01*
%TO.N,Net-(J2-Pin_26)*%
X113175000Y-103500000D02*
X115300000Y-103500000D01*
%TO.N,Net-(J2-Pin_27)*%
X114300000Y-103770000D02*
X114600000Y-103770000D01*
X110300000Y-103770000D02*
X114300000Y-103770000D01*
X114300000Y-103770000D02*
X114570000Y-103770000D01*
X114570000Y-103770000D02*
X114600000Y-103800000D01*
%TO.N,Net-(J2-Pin_28)*%
X113175000Y-104100000D02*
X115300000Y-104100000D01*
%TO.N,Net-(J2-Pin_29)*%
X110300000Y-104370000D02*
X114600000Y-104370000D01*
%TO.N,Net-(J2-Pin_30)*%
X113175000Y-104700000D02*
X115300000Y-104700000D01*
%TO.N,Net-(J2-Pin_31)*%
X110300000Y-104970000D02*
X114600000Y-104970000D01*
%TO.N,Net-(J2-Pin_32)*%
X113175000Y-105300000D02*
X115300000Y-105300000D01*
%TO.N,Net-(J2-Pin_33)*%
X110300000Y-105570000D02*
X114600000Y-105570000D01*
%TO.N,Net-(J2-Pin_34)*%
X113175000Y-105900000D02*
X115300000Y-105900000D01*
%TO.N,Net-(J2-Pin_35)*%
X110300000Y-106170000D02*
X114600000Y-106170000D01*
%TO.N,Net-(J2-Pin_36)*%
X113175000Y-106500000D02*
X115300000Y-106500000D01*
%TO.N,Net-(J2-Pin_37)*%
X110300000Y-106770000D02*
X114600000Y-106770000D01*
%TO.N,Net-(J2-Pin_38)*%
X113175000Y-107100000D02*
X115300000Y-107100000D01*
%TO.N,Net-(J2-Pin_39)*%
X114575000Y-107400000D02*
X114600000Y-107425000D01*
X110300000Y-107400000D02*
X114575000Y-107400000D01*
%TD*%
M02*
