%TF.GenerationSoftware,KiCad,Pcbnew,10.0.1*%
%TF.CreationDate,2026-05-08T16:03:16-05:00*%
%TF.ProjectId,PelletPirate_V2,50656c6c-6574-4506-9972-6174655f5632,rev?*%
%TF.SameCoordinates,Original*%
%TF.FileFunction,Paste,Bot*%
%TF.FilePolarity,Positive*%
%FSLAX46Y46*%
G04 Gerber Fmt 4.6, Leading zero omitted, Abs format (unit mm)*
G04 Created by KiCad (PCBNEW 10.0.1) date 2026-05-08 16:03:16*
%MOMM*%
%LPD*%
G01*
G04 APERTURE LIST*
G04 Aperture macros list*
%AMRoundRect*
0 Rectangle with rounded corners*
0 $1 Rounding radius*
0 $2 $3 $4 $5 $6 $7 $8 $9 X,Y pos of 4 corners*
0 Add a 4 corners polygon primitive as box body*
4,1,4,$2,$3,$4,$5,$6,$7,$8,$9,$2,$3,0*
0 Add four circle primitives for the rounded corners*
1,1,$1+$1,$2,$3*
1,1,$1+$1,$4,$5*
1,1,$1+$1,$6,$7*
1,1,$1+$1,$8,$9*
0 Add four rect primitives between the rounded corners*
20,1,$1+$1,$2,$3,$4,$5,0*
20,1,$1+$1,$4,$5,$6,$7,0*
20,1,$1+$1,$6,$7,$8,$9,0*
20,1,$1+$1,$8,$9,$2,$3,0*%
G04 Aperture macros list end*
%ADD10C,0.203200*%
%ADD11C,0.010000*%
%ADD12RoundRect,0.250000X0.475000X-0.250000X0.475000X0.250000X-0.475000X0.250000X-0.475000X-0.250000X0*%
%ADD13RoundRect,0.250000X0.350000X0.450000X-0.350000X0.450000X-0.350000X-0.450000X0.350000X-0.450000X0*%
%ADD14RoundRect,0.250000X-0.475000X0.250000X-0.475000X-0.250000X0.475000X-0.250000X0.475000X0.250000X0*%
%ADD15R,0.970000X0.650000*%
%ADD16RoundRect,0.250000X-0.625000X0.400000X-0.625000X-0.400000X0.625000X-0.400000X0.625000X0.400000X0*%
%ADD17RoundRect,0.072500X0.532500X0.217500X-0.532500X0.217500X-0.532500X-0.217500X0.532500X-0.217500X0*%
%ADD18RoundRect,0.237500X-0.237500X0.250000X-0.237500X-0.250000X0.237500X-0.250000X0.237500X0.250000X0*%
%ADD19RoundRect,0.250000X-0.650000X0.325000X-0.650000X-0.325000X0.650000X-0.325000X0.650000X0.325000X0*%
%ADD20RoundRect,0.250000X0.450000X-0.350000X0.450000X0.350000X-0.450000X0.350000X-0.450000X-0.350000X0*%
%ADD21RoundRect,0.250000X0.405000X-0.405000X0.405000X0.405000X-0.405000X0.405000X-0.405000X-0.405000X0*%
%ADD22RoundRect,0.075000X0.075000X-0.337500X0.075000X0.337500X-0.075000X0.337500X-0.075000X-0.337500X0*%
%ADD23RoundRect,0.075000X0.337500X-0.075000X0.337500X0.075000X-0.337500X0.075000X-0.337500X-0.075000X0*%
%ADD24RoundRect,0.250000X0.312500X0.625000X-0.312500X0.625000X-0.312500X-0.625000X0.312500X-0.625000X0*%
%ADD25RoundRect,0.073750X0.551250X0.221250X-0.551250X0.221250X-0.551250X-0.221250X0.551250X-0.221250X0*%
%ADD26RoundRect,0.250000X-0.475000X0.337500X-0.475000X-0.337500X0.475000X-0.337500X0.475000X0.337500X0*%
%ADD27RoundRect,0.250000X-0.405000X0.405000X-0.405000X-0.405000X0.405000X-0.405000X0.405000X0.405000X0*%
%ADD28RoundRect,0.075000X-0.075000X0.337500X-0.075000X-0.337500X0.075000X-0.337500X0.075000X0.337500X0*%
%ADD29RoundRect,0.075000X-0.337500X0.075000X-0.337500X-0.075000X0.337500X-0.075000X0.337500X0.075000X0*%
%ADD30RoundRect,0.250000X-0.450000X0.350000X-0.450000X-0.350000X0.450000X-0.350000X0.450000X0.350000X0*%
%ADD31RoundRect,0.250000X0.650000X-0.325000X0.650000X0.325000X-0.650000X0.325000X-0.650000X-0.325000X0*%
%ADD32RoundRect,0.250000X-0.312500X-0.625000X0.312500X-0.625000X0.312500X0.625000X-0.312500X0.625000X0*%
G04 APERTURE END LIST*
D10*
%TO.C,L3*%
X149250000Y-60700000D02*
X149174000Y-60771000D01*
X149089000Y-60858000D01*
X149009000Y-60950000D01*
X148935000Y-61047000D01*
X148867000Y-61147000D01*
X148804000Y-61252000D01*
X148747000Y-61359000D01*
X148697000Y-61470000D01*
X148653000Y-61584000D01*
X148615000Y-61699000D01*
X148584000Y-61817000D01*
X148560000Y-61937000D01*
X148543000Y-62057000D01*
X148532000Y-62178000D01*
X148529000Y-62300000D01*
X148532000Y-62422000D01*
X148543000Y-62543000D01*
X148560000Y-62663000D01*
X148584000Y-62783000D01*
X148615000Y-62901000D01*
X148653000Y-63016000D01*
X148697000Y-63130000D01*
X148747000Y-63241000D01*
X148804000Y-63348000D01*
X148867000Y-63453000D01*
X148935000Y-63553000D01*
X149009000Y-63650000D01*
X149089000Y-63742000D01*
X149174000Y-63829000D01*
X149250000Y-63900000D01*
X149250000Y-64500000D01*
X147950000Y-64500000D01*
X147950000Y-60100000D01*
X149250000Y-60100000D01*
X149250000Y-60700000D01*
G36*
X149250000Y-60700000D02*
G01*
X149174000Y-60771000D01*
X149089000Y-60858000D01*
X149009000Y-60950000D01*
X148935000Y-61047000D01*
X148867000Y-61147000D01*
X148804000Y-61252000D01*
X148747000Y-61359000D01*
X148697000Y-61470000D01*
X148653000Y-61584000D01*
X148615000Y-61699000D01*
X148584000Y-61817000D01*
X148560000Y-61937000D01*
X148543000Y-62057000D01*
X148532000Y-62178000D01*
X148529000Y-62300000D01*
X148532000Y-62422000D01*
X148543000Y-62543000D01*
X148560000Y-62663000D01*
X148584000Y-62783000D01*
X148615000Y-62901000D01*
X148653000Y-63016000D01*
X148697000Y-63130000D01*
X148747000Y-63241000D01*
X148804000Y-63348000D01*
X148867000Y-63453000D01*
X148935000Y-63553000D01*
X149009000Y-63650000D01*
X149089000Y-63742000D01*
X149174000Y-63829000D01*
X149250000Y-63900000D01*
X149250000Y-64500000D01*
X147950000Y-64500000D01*
X147950000Y-60100000D01*
X149250000Y-60100000D01*
X149250000Y-60700000D01*
G37*
X153350000Y-64500000D02*
X152050000Y-64500000D01*
X152050000Y-63900000D01*
X152126000Y-63829000D01*
X152211000Y-63742000D01*
X152291000Y-63650000D01*
X152365000Y-63553000D01*
X152433000Y-63453000D01*
X152496000Y-63348000D01*
X152553000Y-63241000D01*
X152603000Y-63130000D01*
X152647000Y-63016000D01*
X152685000Y-62901000D01*
X152716000Y-62783000D01*
X152740000Y-62663000D01*
X152757000Y-62543000D01*
X152768000Y-62422000D01*
X152771000Y-62300000D01*
X152768000Y-62178000D01*
X152757000Y-62057000D01*
X152740000Y-61937000D01*
X152716000Y-61817000D01*
X152685000Y-61699000D01*
X152647000Y-61584000D01*
X152603000Y-61470000D01*
X152553000Y-61359000D01*
X152496000Y-61252000D01*
X152433000Y-61147000D01*
X152365000Y-61047000D01*
X152291000Y-60950000D01*
X152211000Y-60858000D01*
X152126000Y-60771000D01*
X152050000Y-60700000D01*
X152050000Y-60100000D01*
X153350000Y-60100000D01*
X153350000Y-64500000D01*
G36*
X153350000Y-64500000D02*
G01*
X152050000Y-64500000D01*
X152050000Y-63900000D01*
X152126000Y-63829000D01*
X152211000Y-63742000D01*
X152291000Y-63650000D01*
X152365000Y-63553000D01*
X152433000Y-63453000D01*
X152496000Y-63348000D01*
X152553000Y-63241000D01*
X152603000Y-63130000D01*
X152647000Y-63016000D01*
X152685000Y-62901000D01*
X152716000Y-62783000D01*
X152740000Y-62663000D01*
X152757000Y-62543000D01*
X152768000Y-62422000D01*
X152771000Y-62300000D01*
X152768000Y-62178000D01*
X152757000Y-62057000D01*
X152740000Y-61937000D01*
X152716000Y-61817000D01*
X152685000Y-61699000D01*
X152647000Y-61584000D01*
X152603000Y-61470000D01*
X152553000Y-61359000D01*
X152496000Y-61252000D01*
X152433000Y-61147000D01*
X152365000Y-61047000D01*
X152291000Y-60950000D01*
X152211000Y-60858000D01*
X152126000Y-60771000D01*
X152050000Y-60700000D01*
X152050000Y-60100000D01*
X153350000Y-60100000D01*
X153350000Y-64500000D01*
G37*
D11*
%TO.C,FPC1*%
X131900000Y-143225000D02*
X131600000Y-143225000D01*
X131600000Y-142525000D01*
X131900000Y-142525000D01*
X131900000Y-143225000D01*
G36*
X131900000Y-143225000D02*
G01*
X131600000Y-143225000D01*
X131600000Y-142525000D01*
X131900000Y-142525000D01*
X131900000Y-143225000D01*
G37*
X132615000Y-142975000D02*
X132385000Y-142975000D01*
X132385000Y-142325000D01*
X132615000Y-142325000D01*
X132615000Y-142975000D01*
G36*
X132615000Y-142975000D02*
G01*
X132385000Y-142975000D01*
X132385000Y-142325000D01*
X132615000Y-142325000D01*
X132615000Y-142975000D01*
G37*
X132915000Y-145925000D02*
X132685000Y-145925000D01*
X132685000Y-145375000D01*
X132915000Y-145375000D01*
X132915000Y-145925000D01*
G36*
X132915000Y-145925000D02*
G01*
X132685000Y-145925000D01*
X132685000Y-145375000D01*
X132915000Y-145375000D01*
X132915000Y-145925000D01*
G37*
X133215000Y-142975000D02*
X132985000Y-142975000D01*
X132985000Y-142325000D01*
X133215000Y-142325000D01*
X133215000Y-142975000D01*
G36*
X133215000Y-142975000D02*
G01*
X132985000Y-142975000D01*
X132985000Y-142325000D01*
X133215000Y-142325000D01*
X133215000Y-142975000D01*
G37*
X133515000Y-145925000D02*
X133285000Y-145925000D01*
X133285000Y-145375000D01*
X133515000Y-145375000D01*
X133515000Y-145925000D01*
G36*
X133515000Y-145925000D02*
G01*
X133285000Y-145925000D01*
X133285000Y-145375000D01*
X133515000Y-145375000D01*
X133515000Y-145925000D01*
G37*
X133815000Y-142975000D02*
X133585000Y-142975000D01*
X133585000Y-142325000D01*
X133815000Y-142325000D01*
X133815000Y-142975000D01*
G36*
X133815000Y-142975000D02*
G01*
X133585000Y-142975000D01*
X133585000Y-142325000D01*
X133815000Y-142325000D01*
X133815000Y-142975000D01*
G37*
X134115000Y-145925000D02*
X133885000Y-145925000D01*
X133885000Y-145375000D01*
X134115000Y-145375000D01*
X134115000Y-145925000D01*
G36*
X134115000Y-145925000D02*
G01*
X133885000Y-145925000D01*
X133885000Y-145375000D01*
X134115000Y-145375000D01*
X134115000Y-145925000D01*
G37*
X134415000Y-142975000D02*
X134185000Y-142975000D01*
X134185000Y-142325000D01*
X134415000Y-142325000D01*
X134415000Y-142975000D01*
G36*
X134415000Y-142975000D02*
G01*
X134185000Y-142975000D01*
X134185000Y-142325000D01*
X134415000Y-142325000D01*
X134415000Y-142975000D01*
G37*
X134715000Y-145925000D02*
X134485000Y-145925000D01*
X134485000Y-145375000D01*
X134715000Y-145375000D01*
X134715000Y-145925000D01*
G36*
X134715000Y-145925000D02*
G01*
X134485000Y-145925000D01*
X134485000Y-145375000D01*
X134715000Y-145375000D01*
X134715000Y-145925000D01*
G37*
X135015000Y-142975000D02*
X134785000Y-142975000D01*
X134785000Y-142325000D01*
X135015000Y-142325000D01*
X135015000Y-142975000D01*
G36*
X135015000Y-142975000D02*
G01*
X134785000Y-142975000D01*
X134785000Y-142325000D01*
X135015000Y-142325000D01*
X135015000Y-142975000D01*
G37*
X135315000Y-145925000D02*
X135085000Y-145925000D01*
X135085000Y-145375000D01*
X135315000Y-145375000D01*
X135315000Y-145925000D01*
G36*
X135315000Y-145925000D02*
G01*
X135085000Y-145925000D01*
X135085000Y-145375000D01*
X135315000Y-145375000D01*
X135315000Y-145925000D01*
G37*
X135615000Y-142975000D02*
X135385000Y-142975000D01*
X135385000Y-142325000D01*
X135615000Y-142325000D01*
X135615000Y-142975000D01*
G36*
X135615000Y-142975000D02*
G01*
X135385000Y-142975000D01*
X135385000Y-142325000D01*
X135615000Y-142325000D01*
X135615000Y-142975000D01*
G37*
X135915000Y-145925000D02*
X135685000Y-145925000D01*
X135685000Y-145375000D01*
X135915000Y-145375000D01*
X135915000Y-145925000D01*
G36*
X135915000Y-145925000D02*
G01*
X135685000Y-145925000D01*
X135685000Y-145375000D01*
X135915000Y-145375000D01*
X135915000Y-145925000D01*
G37*
X136215000Y-142975000D02*
X135985000Y-142975000D01*
X135985000Y-142325000D01*
X136215000Y-142325000D01*
X136215000Y-142975000D01*
G36*
X136215000Y-142975000D02*
G01*
X135985000Y-142975000D01*
X135985000Y-142325000D01*
X136215000Y-142325000D01*
X136215000Y-142975000D01*
G37*
X136515000Y-145925000D02*
X136285000Y-145925000D01*
X136285000Y-145375000D01*
X136515000Y-145375000D01*
X136515000Y-145925000D01*
G36*
X136515000Y-145925000D02*
G01*
X136285000Y-145925000D01*
X136285000Y-145375000D01*
X136515000Y-145375000D01*
X136515000Y-145925000D01*
G37*
X136815000Y-142975000D02*
X136585000Y-142975000D01*
X136585000Y-142325000D01*
X136815000Y-142325000D01*
X136815000Y-142975000D01*
G36*
X136815000Y-142975000D02*
G01*
X136585000Y-142975000D01*
X136585000Y-142325000D01*
X136815000Y-142325000D01*
X136815000Y-142975000D01*
G37*
X137115000Y-145925000D02*
X136885000Y-145925000D01*
X136885000Y-145375000D01*
X137115000Y-145375000D01*
X137115000Y-145925000D01*
G36*
X137115000Y-145925000D02*
G01*
X136885000Y-145925000D01*
X136885000Y-145375000D01*
X137115000Y-145375000D01*
X137115000Y-145925000D01*
G37*
X137415000Y-142975000D02*
X137185000Y-142975000D01*
X137185000Y-142325000D01*
X137415000Y-142325000D01*
X137415000Y-142975000D01*
G36*
X137415000Y-142975000D02*
G01*
X137185000Y-142975000D01*
X137185000Y-142325000D01*
X137415000Y-142325000D01*
X137415000Y-142975000D01*
G37*
X137715000Y-145925000D02*
X137485000Y-145925000D01*
X137485000Y-145375000D01*
X137715000Y-145375000D01*
X137715000Y-145925000D01*
G36*
X137715000Y-145925000D02*
G01*
X137485000Y-145925000D01*
X137485000Y-145375000D01*
X137715000Y-145375000D01*
X137715000Y-145925000D01*
G37*
X138015000Y-142975000D02*
X137785000Y-142975000D01*
X137785000Y-142325000D01*
X138015000Y-142325000D01*
X138015000Y-142975000D01*
G36*
X138015000Y-142975000D02*
G01*
X137785000Y-142975000D01*
X137785000Y-142325000D01*
X138015000Y-142325000D01*
X138015000Y-142975000D01*
G37*
X138315000Y-145925000D02*
X138085000Y-145925000D01*
X138085000Y-145375000D01*
X138315000Y-145375000D01*
X138315000Y-145925000D01*
G36*
X138315000Y-145925000D02*
G01*
X138085000Y-145925000D01*
X138085000Y-145375000D01*
X138315000Y-145375000D01*
X138315000Y-145925000D01*
G37*
X138615000Y-142975000D02*
X138385000Y-142975000D01*
X138385000Y-142325000D01*
X138615000Y-142325000D01*
X138615000Y-142975000D01*
G36*
X138615000Y-142975000D02*
G01*
X138385000Y-142975000D01*
X138385000Y-142325000D01*
X138615000Y-142325000D01*
X138615000Y-142975000D01*
G37*
X138915000Y-145925000D02*
X138685000Y-145925000D01*
X138685000Y-145375000D01*
X138915000Y-145375000D01*
X138915000Y-145925000D01*
G36*
X138915000Y-145925000D02*
G01*
X138685000Y-145925000D01*
X138685000Y-145375000D01*
X138915000Y-145375000D01*
X138915000Y-145925000D01*
G37*
X139215000Y-142975000D02*
X138985000Y-142975000D01*
X138985000Y-142325000D01*
X139215000Y-142325000D01*
X139215000Y-142975000D01*
G36*
X139215000Y-142975000D02*
G01*
X138985000Y-142975000D01*
X138985000Y-142325000D01*
X139215000Y-142325000D01*
X139215000Y-142975000D01*
G37*
X139515000Y-145925000D02*
X139285000Y-145925000D01*
X139285000Y-145375000D01*
X139515000Y-145375000D01*
X139515000Y-145925000D01*
G36*
X139515000Y-145925000D02*
G01*
X139285000Y-145925000D01*
X139285000Y-145375000D01*
X139515000Y-145375000D01*
X139515000Y-145925000D01*
G37*
X139815000Y-142975000D02*
X139585000Y-142975000D01*
X139585000Y-142325000D01*
X139815000Y-142325000D01*
X139815000Y-142975000D01*
G36*
X139815000Y-142975000D02*
G01*
X139585000Y-142975000D01*
X139585000Y-142325000D01*
X139815000Y-142325000D01*
X139815000Y-142975000D01*
G37*
X140115000Y-145925000D02*
X139885000Y-145925000D01*
X139885000Y-145375000D01*
X140115000Y-145375000D01*
X140115000Y-145925000D01*
G36*
X140115000Y-145925000D02*
G01*
X139885000Y-145925000D01*
X139885000Y-145375000D01*
X140115000Y-145375000D01*
X140115000Y-145925000D01*
G37*
X140415000Y-142975000D02*
X140185000Y-142975000D01*
X140185000Y-142325000D01*
X140415000Y-142325000D01*
X140415000Y-142975000D01*
G36*
X140415000Y-142975000D02*
G01*
X140185000Y-142975000D01*
X140185000Y-142325000D01*
X140415000Y-142325000D01*
X140415000Y-142975000D01*
G37*
X140715000Y-145925000D02*
X140485000Y-145925000D01*
X140485000Y-145375000D01*
X140715000Y-145375000D01*
X140715000Y-145925000D01*
G36*
X140715000Y-145925000D02*
G01*
X140485000Y-145925000D01*
X140485000Y-145375000D01*
X140715000Y-145375000D01*
X140715000Y-145925000D01*
G37*
X141015000Y-142975000D02*
X140785000Y-142975000D01*
X140785000Y-142325000D01*
X141015000Y-142325000D01*
X141015000Y-142975000D01*
G36*
X141015000Y-142975000D02*
G01*
X140785000Y-142975000D01*
X140785000Y-142325000D01*
X141015000Y-142325000D01*
X141015000Y-142975000D01*
G37*
X141315000Y-145925000D02*
X141085000Y-145925000D01*
X141085000Y-145375000D01*
X141315000Y-145375000D01*
X141315000Y-145925000D01*
G36*
X141315000Y-145925000D02*
G01*
X141085000Y-145925000D01*
X141085000Y-145375000D01*
X141315000Y-145375000D01*
X141315000Y-145925000D01*
G37*
X141615000Y-142975000D02*
X141385000Y-142975000D01*
X141385000Y-142325000D01*
X141615000Y-142325000D01*
X141615000Y-142975000D01*
G36*
X141615000Y-142975000D02*
G01*
X141385000Y-142975000D01*
X141385000Y-142325000D01*
X141615000Y-142325000D01*
X141615000Y-142975000D01*
G37*
X141915000Y-145925000D02*
X141685000Y-145925000D01*
X141685000Y-145375000D01*
X141915000Y-145375000D01*
X141915000Y-145925000D01*
G36*
X141915000Y-145925000D02*
G01*
X141685000Y-145925000D01*
X141685000Y-145375000D01*
X141915000Y-145375000D01*
X141915000Y-145925000D01*
G37*
X142215000Y-142975000D02*
X141985000Y-142975000D01*
X141985000Y-142325000D01*
X142215000Y-142325000D01*
X142215000Y-142975000D01*
G36*
X142215000Y-142975000D02*
G01*
X141985000Y-142975000D01*
X141985000Y-142325000D01*
X142215000Y-142325000D01*
X142215000Y-142975000D01*
G37*
X142515000Y-145925000D02*
X142285000Y-145925000D01*
X142285000Y-145375000D01*
X142515000Y-145375000D01*
X142515000Y-145925000D01*
G36*
X142515000Y-145925000D02*
G01*
X142285000Y-145925000D01*
X142285000Y-145375000D01*
X142515000Y-145375000D01*
X142515000Y-145925000D01*
G37*
X142815000Y-142975000D02*
X142585000Y-142975000D01*
X142585000Y-142325000D01*
X142815000Y-142325000D01*
X142815000Y-142975000D01*
G36*
X142815000Y-142975000D02*
G01*
X142585000Y-142975000D01*
X142585000Y-142325000D01*
X142815000Y-142325000D01*
X142815000Y-142975000D01*
G37*
X143115000Y-145925000D02*
X142885000Y-145925000D01*
X142885000Y-145375000D01*
X143115000Y-145375000D01*
X143115000Y-145925000D01*
G36*
X143115000Y-145925000D02*
G01*
X142885000Y-145925000D01*
X142885000Y-145375000D01*
X143115000Y-145375000D01*
X143115000Y-145925000D01*
G37*
X143415000Y-142975000D02*
X143185000Y-142975000D01*
X143185000Y-142325000D01*
X143415000Y-142325000D01*
X143415000Y-142975000D01*
G36*
X143415000Y-142975000D02*
G01*
X143185000Y-142975000D01*
X143185000Y-142325000D01*
X143415000Y-142325000D01*
X143415000Y-142975000D01*
G37*
X143715000Y-145925000D02*
X143485000Y-145925000D01*
X143485000Y-145375000D01*
X143715000Y-145375000D01*
X143715000Y-145925000D01*
G36*
X143715000Y-145925000D02*
G01*
X143485000Y-145925000D01*
X143485000Y-145375000D01*
X143715000Y-145375000D01*
X143715000Y-145925000D01*
G37*
X144015000Y-142975000D02*
X143785000Y-142975000D01*
X143785000Y-142325000D01*
X144015000Y-142325000D01*
X144015000Y-142975000D01*
G36*
X144015000Y-142975000D02*
G01*
X143785000Y-142975000D01*
X143785000Y-142325000D01*
X144015000Y-142325000D01*
X144015000Y-142975000D01*
G37*
X144800000Y-143225000D02*
X144500000Y-143225000D01*
X144500000Y-142525000D01*
X144800000Y-142525000D01*
X144800000Y-143225000D01*
G36*
X144800000Y-143225000D02*
G01*
X144500000Y-143225000D01*
X144500000Y-142525000D01*
X144800000Y-142525000D01*
X144800000Y-143225000D01*
G37*
%TO.C,L2*%
X169250000Y-56300000D02*
X167750000Y-56300000D01*
X167750000Y-55550000D01*
X166250000Y-55550000D01*
X166250000Y-54050000D01*
X167750000Y-54050000D01*
X167750000Y-53300000D01*
X169250000Y-53300000D01*
X169250000Y-56300000D01*
G36*
X169250000Y-56300000D02*
G01*
X167750000Y-56300000D01*
X167750000Y-55550000D01*
X166250000Y-55550000D01*
X166250000Y-54050000D01*
X167750000Y-54050000D01*
X167750000Y-53300000D01*
X169250000Y-53300000D01*
X169250000Y-56300000D01*
G37*
X172250000Y-54050000D02*
X173750000Y-54050000D01*
X173750000Y-55550000D01*
X172250000Y-55550000D01*
X172250000Y-56300000D01*
X170750000Y-56300000D01*
X170750000Y-53300000D01*
X172250000Y-53300000D01*
X172250000Y-54050000D01*
G36*
X172250000Y-54050000D02*
G01*
X173750000Y-54050000D01*
X173750000Y-55550000D01*
X172250000Y-55550000D01*
X172250000Y-56300000D01*
X170750000Y-56300000D01*
X170750000Y-53300000D01*
X172250000Y-53300000D01*
X172250000Y-54050000D01*
G37*
%TD*%
D12*
%TO.C,C21*%
X138510000Y-88097500D03*
X138510000Y-86197500D03*
%TD*%
D13*
%TO.C,R19*%
X164457500Y-54800000D03*
X162457500Y-54800000D03*
%TD*%
D14*
%TO.C,C31*%
X138610000Y-82197500D03*
X138610000Y-84097500D03*
%TD*%
D15*
%TO.C,D2*%
X150380000Y-58400000D03*
X146900000Y-58400000D03*
%TD*%
D12*
%TO.C,C27*%
X169120000Y-87437500D03*
X169120000Y-85537500D03*
%TD*%
%TO.C,C35*%
X143137500Y-75815000D03*
X143137500Y-73915000D03*
%TD*%
D14*
%TO.C,C30*%
X133637500Y-71377500D03*
X133637500Y-73277500D03*
%TD*%
D16*
%TO.C,R17*%
X137300000Y-53912500D03*
X137300000Y-57012500D03*
%TD*%
D17*
%TO.C,PS3*%
X144362500Y-54762500D03*
X144362500Y-55712500D03*
X144362500Y-56662500D03*
X141852500Y-56662500D03*
X141852500Y-55712500D03*
X141852500Y-54762500D03*
%TD*%
D18*
%TO.C,R16*%
X146300000Y-54800000D03*
X146300000Y-56625000D03*
%TD*%
D14*
%TO.C,C23*%
X172563750Y-69731250D03*
X172563750Y-71631250D03*
%TD*%
D19*
%TO.C,C8*%
X150500000Y-53900000D03*
X150500000Y-56850000D03*
%TD*%
D14*
%TO.C,C11*%
X179200000Y-56150000D03*
X179200000Y-58050000D03*
%TD*%
%TO.C,C14*%
X167495000Y-58987500D03*
X167495000Y-60887500D03*
%TD*%
D20*
%TO.C,R15*%
X175400000Y-58062500D03*
X175400000Y-56062500D03*
%TD*%
D21*
%TO.C,MAX4*%
X152200000Y-73200000D03*
X153820000Y-73200000D03*
X152200000Y-71580000D03*
X153820000Y-71580000D03*
D22*
X154310000Y-74827500D03*
X153660000Y-74827500D03*
X153010000Y-74827500D03*
X152360000Y-74827500D03*
X151710000Y-74827500D03*
D23*
X150572500Y-73690000D03*
X150572500Y-73040000D03*
X150572500Y-72390000D03*
X150572500Y-71740000D03*
X150572500Y-71090000D03*
D22*
X151710000Y-69952500D03*
X152360000Y-69952500D03*
X153010000Y-69952500D03*
X153660000Y-69952500D03*
X154310000Y-69952500D03*
D23*
X155447500Y-71090000D03*
X155447500Y-71740000D03*
X155447500Y-72390000D03*
X155447500Y-73040000D03*
X155447500Y-73690000D03*
%TD*%
D24*
%TO.C,R23*%
X170026250Y-77100000D03*
X167101250Y-77100000D03*
%TD*%
D21*
%TO.C,MAX3*%
X167353750Y-72966250D03*
X168973750Y-72966250D03*
X167353750Y-71346250D03*
X168973750Y-71346250D03*
D22*
X169463750Y-74593750D03*
X168813750Y-74593750D03*
X168163750Y-74593750D03*
X167513750Y-74593750D03*
X166863750Y-74593750D03*
D23*
X165726250Y-73456250D03*
X165726250Y-72806250D03*
X165726250Y-72156250D03*
X165726250Y-71506250D03*
X165726250Y-70856250D03*
D22*
X166863750Y-69718750D03*
X167513750Y-69718750D03*
X168163750Y-69718750D03*
X168813750Y-69718750D03*
X169463750Y-69718750D03*
D23*
X170601250Y-70856250D03*
X170601250Y-71506250D03*
X170601250Y-72156250D03*
X170601250Y-72806250D03*
X170601250Y-73456250D03*
%TD*%
D14*
%TO.C,C28*%
X163263750Y-71531250D03*
X163263750Y-73431250D03*
%TD*%
D13*
%TO.C,R30*%
X134800000Y-80500000D03*
X132800000Y-80500000D03*
%TD*%
D25*
%TO.C,PS2*%
X173205000Y-59050000D03*
X173205000Y-60000000D03*
X173205000Y-60950000D03*
X170695000Y-60950000D03*
X170695000Y-60000000D03*
X170695000Y-59050000D03*
%TD*%
D19*
%TO.C,C18*%
X159895000Y-55762500D03*
X159895000Y-58712500D03*
%TD*%
%TO.C,C20*%
X154100000Y-53887500D03*
X154100000Y-56837500D03*
%TD*%
D26*
%TO.C,C16*%
X145400000Y-61262500D03*
X145400000Y-63337500D03*
%TD*%
D13*
%TO.C,R31*%
X135100000Y-78300000D03*
X133100000Y-78300000D03*
%TD*%
D27*
%TO.C,MAX1*%
X143720000Y-86000000D03*
X142100000Y-86000000D03*
X143720000Y-87620000D03*
X142100000Y-87620000D03*
D28*
X141610000Y-84372500D03*
X142260000Y-84372500D03*
X142910000Y-84372500D03*
X143560000Y-84372500D03*
X144210000Y-84372500D03*
D29*
X145347500Y-85510000D03*
X145347500Y-86160000D03*
X145347500Y-86810000D03*
X145347500Y-87460000D03*
X145347500Y-88110000D03*
D28*
X144210000Y-89247500D03*
X143560000Y-89247500D03*
X142910000Y-89247500D03*
X142260000Y-89247500D03*
X141610000Y-89247500D03*
D29*
X140472500Y-88110000D03*
X140472500Y-87460000D03*
X140472500Y-86810000D03*
X140472500Y-86160000D03*
X140472500Y-85510000D03*
%TD*%
D14*
%TO.C,C24*%
X157320000Y-69712500D03*
X157320000Y-71612500D03*
%TD*%
%TO.C,C25*%
X143137500Y-70015000D03*
X143137500Y-71915000D03*
%TD*%
D12*
%TO.C,C33*%
X172563750Y-75731250D03*
X172563750Y-73831250D03*
%TD*%
%TO.C,C26*%
X148472500Y-88122500D03*
X148472500Y-86222500D03*
%TD*%
D14*
%TO.C,C29*%
X148120000Y-71812500D03*
X148120000Y-73712500D03*
%TD*%
D24*
%TO.C,R25*%
X140500000Y-77565000D03*
X137575000Y-77565000D03*
%TD*%
D13*
%TO.C,R29*%
X134500000Y-82800000D03*
X132500000Y-82800000D03*
%TD*%
D30*
%TO.C,R20*%
X164195000Y-58600000D03*
X164195000Y-60600000D03*
%TD*%
D14*
%TO.C,C9*%
X148300000Y-54662500D03*
X148300000Y-56562500D03*
%TD*%
D31*
%TO.C,C10*%
X181400000Y-58775000D03*
X181400000Y-55825000D03*
%TD*%
D32*
%TO.C,R22*%
X163080000Y-82100000D03*
X166005000Y-82100000D03*
%TD*%
D12*
%TO.C,C34*%
X157320000Y-75687500D03*
X157320000Y-73787500D03*
%TD*%
D27*
%TO.C,MAX2*%
X165080000Y-86040000D03*
X163460000Y-86040000D03*
X165080000Y-87660000D03*
X163460000Y-87660000D03*
D28*
X162970000Y-84412500D03*
X163620000Y-84412500D03*
X164270000Y-84412500D03*
X164920000Y-84412500D03*
X165570000Y-84412500D03*
D29*
X166707500Y-85550000D03*
X166707500Y-86200000D03*
X166707500Y-86850000D03*
X166707500Y-87500000D03*
X166707500Y-88150000D03*
D28*
X165570000Y-89287500D03*
X164920000Y-89287500D03*
X164270000Y-89287500D03*
X163620000Y-89287500D03*
X162970000Y-89287500D03*
D29*
X161832500Y-88150000D03*
X161832500Y-87500000D03*
X161832500Y-86850000D03*
X161832500Y-86200000D03*
X161832500Y-85550000D03*
%TD*%
D32*
%TO.C,R21*%
X141510000Y-81410000D03*
X144435000Y-81410000D03*
%TD*%
D21*
%TO.C,MAX5*%
X138000000Y-73300000D03*
X139620000Y-73300000D03*
X138000000Y-71680000D03*
X139620000Y-71680000D03*
D22*
X140110000Y-74927500D03*
X139460000Y-74927500D03*
X138810000Y-74927500D03*
X138160000Y-74927500D03*
X137510000Y-74927500D03*
D23*
X136372500Y-73790000D03*
X136372500Y-73140000D03*
X136372500Y-72490000D03*
X136372500Y-71840000D03*
X136372500Y-71190000D03*
D22*
X137510000Y-70052500D03*
X138160000Y-70052500D03*
X138810000Y-70052500D03*
X139460000Y-70052500D03*
X140110000Y-70052500D03*
D23*
X141247500Y-71190000D03*
X141247500Y-71840000D03*
X141247500Y-72490000D03*
X141247500Y-73140000D03*
X141247500Y-73790000D03*
%TD*%
D19*
%TO.C,C19*%
X156995000Y-55700000D03*
X156995000Y-58650000D03*
%TD*%
D24*
%TO.C,R24*%
X154825000Y-77100000D03*
X151900000Y-77100000D03*
%TD*%
D14*
%TO.C,C32*%
X159870000Y-82131250D03*
X159870000Y-84031250D03*
%TD*%
D12*
%TO.C,C22*%
X159870000Y-88068750D03*
X159870000Y-86168750D03*
%TD*%
D26*
%TO.C,C36*%
X139600000Y-55037500D03*
X139600000Y-57112500D03*
%TD*%
M02*
