M48
METRIC
T1C0.300
T2C0.500
T3C0.600
T4C0.600
T5C0.740
T6C0.800
T7C1.000
T8C1.100
T9C1.300
T10C1.400
T11C3.000
T12C1.200
T13C3.200
%
G90
G05
T1
X122.6Y-99.9
X123.3Y-119.3
X124.7Y-107.9
X126.3Y-123.8
X126.9Y-99.5
X127.2Y-97.85
X127.4Y-90.2
X127.4Y-96.4
X127.5Y-145.2
X127.7Y-64.3
X128.0Y-114.6
X128.1Y-96.3
X128.392Y-65.1
X128.5Y-108.8
X128.6Y-60.0
X129.4Y-61.5
X130.026Y-96.6
X130.6Y-69.0
X130.7Y-103.6
X130.842Y-101.293
X131.9Y-96.6
X132.4Y-75.9
X133.4Y-61.8
X133.4Y-88.8
X133.425Y-86.725
X133.5Y-85.8
X133.5Y-141.4
X133.6Y-69.9
X133.9Y-74.6
X133.9Y-76.8
X134.4Y-108.1
X134.8Y-64.4
X135.0Y-62.9
X135.519Y-88.727
X135.7Y-94.5
X135.8Y-84.6
X136.2Y-89.3
X136.3Y-63.4
X136.7Y-104.5
X137.5Y-83.6
X137.6Y-134.5
X138.0Y-91.35
X138.2Y-144.6
X139.7Y-140.6
X139.9Y-89.2
X140.6Y-63.9
X140.6Y-144.8
X141.032Y-139.2
X141.032Y-144.127
X141.3Y-61.1
X141.8Y-63.3
X141.8Y-143.9
X142.0Y-95.8
X142.0Y-124.0
X142.1Y-59.4
X142.2Y-90.5
X142.2Y-139.8
X142.338Y-98.246
X142.4Y-57.5
X142.7Y-61.4
X143.0Y-146.7
X143.6Y-89.9
X143.9Y-104.9
X144.6Y-57.6
X144.6Y-74.3
X144.6Y-98.0
X145.2Y-60.0
X145.3Y-94.2
X145.3Y-121.7
X145.4Y-90.1
X146.5Y-73.7
X146.6Y-69.8
X146.6Y-136.8
X146.9Y-140.5
X147.1Y-68.0
X147.2Y-109.2
X147.6Y-113.6
X147.8Y-68.0
X147.8Y-70.5
X148.0Y-94.4
X148.2Y-90.4
X148.5Y-58.1
X148.8Y-124.3
X149.4Y-77.7
X150.3Y-109.2
X150.5Y-76.9
X150.7Y-68.0
X151.344Y-65.444
X151.8Y-121.1
X152.31Y-68.624
X152.5Y-107.9
X153.1Y-82.8
X153.109Y-68.314
X153.3Y-91.2
X153.9Y-68.264
X154.1Y-122.5
X154.4Y-61.2
X154.5Y-64.2
X154.6Y-89.75
X154.9Y-81.7
X155.2Y-60.4
X155.8Y-65.9
X156.1Y-78.0
X156.1Y-120.7
X156.7Y-88.3
X156.8Y-113.1
X157.1Y-94.1
X157.7Y-79.7
X157.7Y-82.6
X158.0Y-68.2
X158.1Y-98.2
X158.2Y-89.5
X158.3Y-85.7
X158.8Y-77.1
X159.0Y-71.7
X159.2Y-73.7
X159.35Y-69.3
X159.9Y-60.9
X160.3Y-46.1
X160.8Y-79.0
X161.0Y-72.4
X161.1Y-78.2
X161.109Y-82.381
X161.3Y-89.55
X161.4Y-81.8
X161.7Y-71.3
X161.8Y-44.3
X161.8Y-82.4
X161.8Y-120.0
X162.0Y-62.8
X162.0Y-98.2
X162.1Y-76.0
X162.2Y-59.5
X162.3Y-79.7
X162.9Y-67.8
X162.9Y-134.6
X163.207Y-74.793
X163.5Y-90.6
X164.0Y-79.4
X164.424Y-77.424
X165.126Y-67.874
X165.6Y-77.4
X165.795Y-59.8
X166.4Y-89.95
X167.495Y-62.5
X167.514Y-69.0
X167.7Y-132.4
X167.9Y-83.6
X168.2Y-68.2
X169.0Y-58.1
X169.0Y-63.2
X169.0Y-84.0
X169.195Y-61.0
X169.3Y-68.5
X169.595Y-60.0
X170.4Y-79.2
X170.7Y-87.5
X170.8Y-117.6
X171.0Y-76.1
X171.3Y-74.4
X171.9Y-77.1
X172.0Y-118.7
X172.7Y-51.4
X172.7Y-80.3
X172.7Y-81.7
X173.4Y-101.0
X173.9Y-68.2
X174.0Y-58.1
X174.8Y-60.95
X174.9Y-69.0
X175.1Y-68.3
X175.5Y-71.2
X176.9Y-70.1
X177.2Y-53.4
X178.3Y-60.1
X179.0Y-82.6
X179.7Y-63.9
X179.8Y-50.1
X180.0Y-102.2
X181.7Y-64.8
X182.4Y-89.7
X183.3Y-64.6
X183.6Y-129.6
T2
X169.8Y-103.2
X172.7Y-103.2
T3
X138.5Y-118.4
T4
X125.5Y-92.9
X125.5Y-94.15
X125.5Y-95.4
X125.5Y-96.65
T5
X129.3Y-98.98
X129.3Y-106.6
X131.84Y-98.98
X131.84Y-106.6
X134.38Y-98.98
X134.38Y-106.6
X141.6Y-99.7
X141.6Y-107.32
X144.14Y-99.7
X144.14Y-107.32
X146.68Y-99.7
X146.68Y-107.32
X155.2Y-99.7
X155.2Y-107.32
X157.74Y-99.7
X157.74Y-107.32
X160.28Y-99.7
X160.28Y-107.32
T6
X177.9Y-133.4
X181.4Y-133.4
T7
X129.12Y-66.6
X129.12Y-92.0
X131.66Y-66.6
X131.66Y-92.0
X132.3Y-110.9
X132.4Y-116.4
X134.2Y-66.6
X134.2Y-92.0
X136.74Y-66.6
X136.74Y-92.0
X137.9Y-123.5
X137.9Y-131.0
X139.28Y-66.6
X139.28Y-92.0
X141.82Y-66.6
X141.82Y-92.0
X142.3Y-110.9
X142.4Y-116.4
X144.36Y-66.6
X144.36Y-92.0
X145.8Y-110.9
X146.9Y-66.6
X146.9Y-92.0
X148.6Y-121.3
X148.6Y-134.3
X149.44Y-66.6
X149.44Y-92.0
X150.5Y-116.2
X151.98Y-66.6
X151.98Y-92.0
X154.52Y-66.6
X154.52Y-92.0
X155.8Y-110.9
X157.06Y-66.6
X157.06Y-92.0
X158.6Y-121.3
X158.6Y-134.3
X159.6Y-66.6
X159.6Y-92.0
X160.5Y-116.2
X162.14Y-66.6
X162.14Y-92.0
X164.68Y-66.6
X164.68Y-92.0
X165.1Y-127.3
X165.1Y-134.8
X167.22Y-66.6
X167.22Y-92.0
X169.76Y-66.6
X169.76Y-92.0
X170.9Y-127.3
X170.9Y-134.8
X172.3Y-66.6
X172.3Y-92.0
X174.84Y-66.6
X174.84Y-92.0
X175.1Y-103.8
X176.768Y-123.7
X179.2Y-110.2
X179.2Y-115.2
X181.768Y-123.7
X182.6Y-103.8
T8
X150.75Y-141.8
X150.75Y-144.34
X150.75Y-146.88
X164.45Y-141.72
X164.45Y-144.26
X164.45Y-146.8
X175.8Y-141.72
X175.8Y-144.26
X175.8Y-146.8
T9
X125.3Y-109.65
X125.3Y-133.4
T10
X165.4Y-102.9
X165.4Y-112.0
T11
X124.3Y-103.8
X125.2Y-139.3
X156.9Y-147.1
X157.0Y-139.6
X169.3Y-147.0
X169.375Y-139.425
X180.5Y-140.5
T12
X122.5Y-54.0
X122.5Y-64.0
X125.0Y-54.0
X125.0Y-64.0
X128.4Y-42.5
X128.4Y-45.0
X130.0Y-59.0
X133.4Y-50.0
X138.4Y-42.5
X138.4Y-45.0
X141.0Y-42.5
X141.0Y-45.0
X146.0Y-50.0
X151.0Y-42.5
X151.0Y-45.0
X153.6Y-42.5
X153.6Y-45.0
X158.6Y-50.0
X163.6Y-42.5
X163.6Y-45.0
X166.2Y-42.5
X166.2Y-45.0
X171.2Y-50.0
X176.2Y-42.5
X176.2Y-45.0
T13
X123.2Y-43.2
X123.2Y-146.8
X181.8Y-43.2
X181.8Y-146.8
T6
G00X125.0Y-58.65
M15
G01X125.0Y-59.35
M16
G05
G00X128.4Y-49.65
M15
G01X128.4Y-50.35
M16
G05
G00X129.65Y-54.0
M15
G01X130.35Y-54.0
M16
G05
G00X129.65Y-64.0
M15
G01X130.35Y-64.0
M16
G05
G00X133.75Y-45.0
M15
G01X133.05Y-45.0
M16
G05
G00X138.4Y-49.65
M15
G01X138.4Y-50.35
M16
G05
G00X141.0Y-49.65
M15
G01X141.0Y-50.35
M16
G05
G00X146.35Y-45.0
M15
G01X145.65Y-45.0
M16
G05
G00X151.0Y-49.65
M15
G01X151.0Y-50.35
M16
G05
G00X153.6Y-49.65
M15
G01X153.6Y-50.35
M16
G05
G00X158.95Y-45.0
M15
G01X158.25Y-45.0
M16
G05
G00X163.6Y-49.65
M15
G01X163.6Y-50.35
M16
G05
G00X166.2Y-49.65
M15
G01X166.2Y-50.35
M16
G05
G00X171.55Y-45.0
M15
G01X170.85Y-45.0
M16
G05
G00X176.2Y-49.65
M15
G01X176.2Y-50.35
M16
G05
T10
G00X165.4Y-99.7
M15
G01X165.4Y-99.1
M16
G05
G00X165.4Y-115.7
M15
G01X165.4Y-115.1
M16
G05
G00X165.4Y-119.7
M15
G01X165.4Y-119.1
M16
G05
G00X165.4Y-123.7
M15
G01X165.4Y-123.1
M16
G05
M30
