%TF.GenerationSoftware,KiCad,Pcbnew,10.0.1*%
%TF.CreationDate,2026-05-20T18:33:21-05:00*%
%TF.ProjectId,LCD_FFC_FPC_to_DIP_Breakout,4c43445f-4646-4435-9f46-50435f746f5f,rev?*%
%TF.SameCoordinates,Original*%
%TF.FileFunction,Copper,L1,Top*%
%TF.FilePolarity,Positive*%
%FSLAX46Y46*%
G04 Gerber Fmt 4.6, Leading zero omitted, Abs format (unit mm)*
G04 Created by KiCad (PCBNEW 10.0.1) date 2026-05-20 18:33:21*
%MOMM*%
%LPD*%
G01*
G04 APERTURE LIST*
%TA.AperFunction,ComponentPad*%
%ADD10C,5.400000*%
%TD*%
%TA.AperFunction,ComponentPad*%
%ADD11C,1.700000*%
%TD*%
%TA.AperFunction,ComponentPad*%
%ADD12R,1.700000X1.700000*%
%TD*%
%TA.AperFunction,SMDPad,CuDef*%
%ADD13R,0.950000X0.400000*%
%TD*%
%TA.AperFunction,SMDPad,CuDef*%
%ADD14R,0.800000X0.300000*%
%TD*%
%TA.AperFunction,SMDPad,CuDef*%
%ADD15R,0.650000X0.300000*%
%TD*%
%TA.AperFunction,ViaPad*%
%ADD16C,0.600000*%
%TD*%
%TA.AperFunction,Conductor*%
%ADD17C,0.200000*%
%TD*%
%TA.AperFunction,Conductor*%
%ADD18C,0.400000*%
%TD*%
G04 APERTURE END LIST*
D10*
%TO.P,REF\u002A\u002A,1*%
%TO.N,N/C*%
X166750000Y-103100000D03*
%TD*%
%TO.P,REF\u002A\u002A,1*%
%TO.N,N/C*%
X103500000Y-103500000D03*
%TD*%
%TO.P,REF\u002A\u002A,1*%
%TO.N,N/C*%
X103500000Y-131750000D03*
%TD*%
%TO.P,REF\u002A\u002A,1*%
%TO.N,N/C*%
X166750000Y-131750000D03*
%TD*%
D11*
%TO.P,J1_Odd1,39,Pin_39_39*%
%TO.N,/Pin39*%
X163600000Y-121630000D03*
%TO.P,J1_Odd1,37,Pin_37_37*%
%TO.N,/Pin37*%
X161060000Y-121630000D03*
%TO.P,J1_Odd1,35,Pin_35_35*%
%TO.N,/Pin35*%
X158520000Y-121630000D03*
%TO.P,J1_Odd1,33,Pin_33_33*%
%TO.N,/Pin33*%
X155980000Y-121630000D03*
%TO.P,J1_Odd1,31,Pin_31_31*%
%TO.N,/Pin31*%
X153440000Y-121630000D03*
%TO.P,J1_Odd1,29,Pin_29_29*%
%TO.N,/Pin29*%
X150900000Y-121630000D03*
%TO.P,J1_Odd1,27,Pin_27_27*%
%TO.N,/Pin27*%
X148360000Y-121630000D03*
%TO.P,J1_Odd1,25,Pin_25_25*%
%TO.N,/Pin25*%
X145820000Y-121630000D03*
%TO.P,J1_Odd1,23,Pin_23_23*%
%TO.N,/Pin23*%
X143280000Y-121630000D03*
%TO.P,J1_Odd1,21,Pin_21_21*%
%TO.N,/Pin21*%
X140740000Y-121630000D03*
%TO.P,J1_Odd1,19,Pin_19_19*%
%TO.N,/Pin19*%
X138200000Y-121630000D03*
%TO.P,J1_Odd1,17,Pin_17_17*%
%TO.N,/Pin17*%
X135660000Y-121630000D03*
%TO.P,J1_Odd1,15,Pin_15_15*%
%TO.N,/Pin15*%
X133120000Y-121630000D03*
%TO.P,J1_Odd1,13,Pin_13_13*%
%TO.N,/Pin13*%
X130580000Y-121630000D03*
%TO.P,J1_Odd1,11,Pin_11_11*%
%TO.N,/Pin11*%
X128040000Y-121630000D03*
%TO.P,J1_Odd1,9,Pin_9_9*%
%TO.N,/Pin9*%
X125500000Y-121630000D03*
%TO.P,J1_Odd1,7,Pin_7_7*%
%TO.N,/Pin7*%
X122960000Y-121630000D03*
%TO.P,J1_Odd1,5,Pin_5_5*%
%TO.N,/Pin5*%
X120420000Y-121630000D03*
%TO.P,J1_Odd1,3,Pin_3_3*%
%TO.N,/Pin3*%
X117880000Y-121630000D03*
D12*
%TO.P,J1_Odd1,1,Pin_1_1*%
%TO.N,/Pin1*%
X115340000Y-121630000D03*
%TD*%
D11*
%TO.P,J1_Even1,40,Pin_40_40*%
%TO.N,GND*%
X163600000Y-114010000D03*
%TO.P,J1_Even1,38,Pin_38_38*%
%TO.N,/Pin38*%
X161060000Y-114010000D03*
%TO.P,J1_Even1,36,Pin_36_36*%
%TO.N,/Pin36*%
X158520000Y-114010000D03*
%TO.P,J1_Even1,34,Pin_34_34*%
%TO.N,/Pin34*%
X155980000Y-114010000D03*
%TO.P,J1_Even1,32,Pin_32_32*%
%TO.N,/Pin32*%
X153440000Y-114010000D03*
%TO.P,J1_Even1,30,Pin_30_30*%
%TO.N,/Pin30*%
X150900000Y-114010000D03*
%TO.P,J1_Even1,28,Pin_28_28*%
%TO.N,/Pin28*%
X148360000Y-114010000D03*
%TO.P,J1_Even1,26,Pin_26_26*%
%TO.N,/Pin26*%
X145820000Y-114010000D03*
%TO.P,J1_Even1,24,Pin_24_24*%
%TO.N,/Pin24*%
X143280000Y-114010000D03*
%TO.P,J1_Even1,22,Pin_22_22*%
%TO.N,/Pin22*%
X140740000Y-114010000D03*
%TO.P,J1_Even1,20,Pin_20_20*%
%TO.N,/Pin20*%
X138200000Y-114010000D03*
%TO.P,J1_Even1,18,Pin_18_18*%
%TO.N,/Pin18*%
X135660000Y-114010000D03*
%TO.P,J1_Even1,16,Pin_16_16*%
%TO.N,/Pin16*%
X133120000Y-114010000D03*
%TO.P,J1_Even1,14,Pin_14_14*%
%TO.N,/Pin14*%
X130580000Y-114010000D03*
%TO.P,J1_Even1,12,Pin_12_12*%
%TO.N,/Pin12*%
X128040000Y-114010000D03*
%TO.P,J1_Even1,10,Pin_10_10*%
%TO.N,/Pin10*%
X125500000Y-114010000D03*
%TO.P,J1_Even1,8,Pin_8_8*%
%TO.N,/Pin8*%
X122960000Y-114010000D03*
%TO.P,J1_Even1,6,Pin_6_6*%
%TO.N,/Pin6*%
X120420000Y-114010000D03*
%TO.P,J1_Even1,4,Pin_4_4*%
%TO.N,/Pin4*%
X117880000Y-114010000D03*
D12*
%TO.P,J1_Even1,2,Pin_2_2*%
%TO.N,/Pin2*%
X115340000Y-114010000D03*
%TD*%
D13*
%TO.P,FPC1,SH2,SH2_SH2*%
%TO.N,GND*%
X103375000Y-123900000D03*
%TO.P,FPC1,SH1,SH1_SH1*%
X103375000Y-111100000D03*
D14*
%TO.P,FPC1,39,39_39*%
%TO.N,/Pin39*%
X103100000Y-123200000D03*
D15*
%TO.P,FPC1,38,38_38*%
%TO.N,/Pin38*%
X105975000Y-122900000D03*
D14*
%TO.P,FPC1,37,37_37*%
%TO.N,/Pin37*%
X103100000Y-122600000D03*
D15*
%TO.P,FPC1,36,36_36*%
%TO.N,/Pin36*%
X105975000Y-122300000D03*
D14*
%TO.P,FPC1,35,35_35*%
%TO.N,/Pin35*%
X103100000Y-122000000D03*
D15*
%TO.P,FPC1,34,34_34*%
%TO.N,/Pin34*%
X105975000Y-121700000D03*
D14*
%TO.P,FPC1,33,33_33*%
%TO.N,/Pin33*%
X103100000Y-121400000D03*
D15*
%TO.P,FPC1,32,32_32*%
%TO.N,/Pin32*%
X105975000Y-121100000D03*
D14*
%TO.P,FPC1,31,31_31*%
%TO.N,/Pin31*%
X103100000Y-120800000D03*
D15*
%TO.P,FPC1,30,30_30*%
%TO.N,/Pin30*%
X105975000Y-120500000D03*
D14*
%TO.P,FPC1,29,29_29*%
%TO.N,/Pin29*%
X103100000Y-120200000D03*
D15*
%TO.P,FPC1,28,28_28*%
%TO.N,/Pin28*%
X105975000Y-119900000D03*
D14*
%TO.P,FPC1,27,27_27*%
%TO.N,/Pin27*%
X103100000Y-119600000D03*
D15*
%TO.P,FPC1,26,26_26*%
%TO.N,/Pin26*%
X105975000Y-119300000D03*
D14*
%TO.P,FPC1,25,25_25*%
%TO.N,/Pin25*%
X103100000Y-119000000D03*
D15*
%TO.P,FPC1,24,24_24*%
%TO.N,/Pin24*%
X105975000Y-118700000D03*
D14*
%TO.P,FPC1,23,23_23*%
%TO.N,/Pin23*%
X103100000Y-118400000D03*
D15*
%TO.P,FPC1,22,22_22*%
%TO.N,/Pin22*%
X105975000Y-118100000D03*
D14*
%TO.P,FPC1,21,21_21*%
%TO.N,/Pin21*%
X103100000Y-117800000D03*
D15*
%TO.P,FPC1,20,20_20*%
%TO.N,/Pin20*%
X105975000Y-117500000D03*
D14*
%TO.P,FPC1,19,19_19*%
%TO.N,/Pin19*%
X103100000Y-117200000D03*
D15*
%TO.P,FPC1,18,18_18*%
%TO.N,/Pin18*%
X105975000Y-116900000D03*
D14*
%TO.P,FPC1,17,17_17*%
%TO.N,/Pin17*%
X103100000Y-116600000D03*
D15*
%TO.P,FPC1,16,16_16*%
%TO.N,/Pin16*%
X105975000Y-116300000D03*
D14*
%TO.P,FPC1,15,15_15*%
%TO.N,/Pin15*%
X103100000Y-116000000D03*
D15*
%TO.P,FPC1,14,14_14*%
%TO.N,/Pin14*%
X105975000Y-115700000D03*
D14*
%TO.P,FPC1,13,13_13*%
%TO.N,/Pin13*%
X103100000Y-115400000D03*
D15*
%TO.P,FPC1,12,12_12*%
%TO.N,/Pin12*%
X105975000Y-115100000D03*
D14*
%TO.P,FPC1,11,11_11*%
%TO.N,/Pin11*%
X103100000Y-114800000D03*
D15*
%TO.P,FPC1,10,10_10*%
%TO.N,/Pin10*%
X105975000Y-114500000D03*
D14*
%TO.P,FPC1,9,9_9*%
%TO.N,/Pin9*%
X103100000Y-114200000D03*
D15*
%TO.P,FPC1,8,8_8*%
%TO.N,/Pin8*%
X105975000Y-113900000D03*
D14*
%TO.P,FPC1,7,7_7*%
%TO.N,/Pin7*%
X103100000Y-113600000D03*
D15*
%TO.P,FPC1,6,6_6*%
%TO.N,/Pin6*%
X105975000Y-113300000D03*
D14*
%TO.P,FPC1,5,5_5*%
%TO.N,/Pin5*%
X103100000Y-113000000D03*
D15*
%TO.P,FPC1,4,4_4*%
%TO.N,/Pin4*%
X105975000Y-112700000D03*
D14*
%TO.P,FPC1,3,3_3*%
%TO.N,/Pin3*%
X103100000Y-112400000D03*
D15*
%TO.P,FPC1,2,2_2*%
%TO.N,/Pin2*%
X105975000Y-112100000D03*
D14*
%TO.P,FPC1,1,1_1*%
%TO.N,/Pin1*%
X103100000Y-111800000D03*
%TD*%
D16*
%TO.N,/Pin3*%
X104948167Y-112128846D03*
%TO.N,/Pin1*%
X104600000Y-111200000D03*
%TO.N,/Pin9*%
X104143707Y-114106678D03*
%TO.N,/Pin5*%
X104199283Y-112900000D03*
%TO.N,/Pin23*%
X101549999Y-118325173D03*
%TO.N,/Pin29*%
X106000000Y-129400000D03*
%TO.N,GND*%
X103500000Y-126800000D03*
%TO.N,/Pin11*%
X104814682Y-114786351D03*
%TO.N,/Pin7*%
X104794631Y-113531674D03*
%TO.N,/Pin13*%
X104179719Y-115306678D03*
%TO.N,/Pin19*%
X104008698Y-120285504D03*
%TO.N,/Pin21*%
X101993660Y-117659464D03*
%TO.N,/Pin27*%
X101200000Y-127100000D03*
%TO.N,/Pin17*%
X104274265Y-116925735D03*
%TO.N,/Pin15*%
X104349616Y-116088432D03*
%TO.N,/Pin25*%
X101200000Y-119267892D03*
%TO.N,GND*%
X166400000Y-114100000D03*
X103400000Y-109800000D03*
X102000000Y-127700000D03*
%TD*%
%TO.N,/Pin25*%
D17*
X101200000Y-119267892D02*
X101467892Y-119000000D01*
%TO.N,/Pin24*%
X105975000Y-118700000D02*
X106665685Y-118700000D01*
%TO.N,/Pin25*%
X101467892Y-119000000D02*
X103100000Y-119000000D01*
%TO.N,/Pin21*%
X102134196Y-117800000D02*
X101993660Y-117659464D01*
%TO.N,/Pin20*%
X105975000Y-117500000D02*
X106600000Y-117500000D01*
X129430000Y-126570000D02*
X129430000Y-121153654D01*
%TO.N,/Pin22*%
X131970000Y-121153654D02*
X132923654Y-120200000D01*
X116400488Y-128800000D02*
X130300000Y-128800000D01*
%TO.N,/Pin20*%
X116566174Y-128400000D02*
X127600000Y-128400000D01*
%TO.N,/Pin22*%
X130300000Y-128800000D02*
X131970000Y-127130000D01*
X131970000Y-127130000D02*
X131970000Y-121153654D01*
X111050244Y-122518874D02*
X111050244Y-123449756D01*
X106631370Y-118100000D02*
X111050244Y-122518874D01*
%TO.N,/Pin20*%
X111450244Y-122350244D02*
X111450244Y-123284070D01*
%TO.N,/Pin22*%
X111050244Y-123449756D02*
X116400488Y-128800000D01*
X132923654Y-120200000D02*
X134550000Y-120200000D01*
%TO.N,/Pin23*%
X103100000Y-118400000D02*
X101624826Y-118400000D01*
X101624826Y-118400000D02*
X101549999Y-118325173D01*
%TO.N,/Pin24*%
X138263654Y-117400000D02*
X141300000Y-117400000D01*
X134510000Y-127690000D02*
X134510000Y-121153654D01*
%TO.N,/Pin22*%
X105975000Y-118100000D02*
X106631370Y-118100000D01*
X134550000Y-120200000D02*
X140740000Y-114010000D01*
%TO.N,/Pin24*%
X110467401Y-123432599D02*
X116234802Y-129200000D01*
%TO.N,/Pin20*%
X129430000Y-121153654D02*
X130583654Y-120000000D01*
%TO.N,/Pin24*%
X133000000Y-129200000D02*
X134510000Y-127690000D01*
X134510000Y-121153654D02*
X138263654Y-117400000D01*
X141300000Y-117400000D02*
X143280000Y-115420000D01*
X116234802Y-129200000D02*
X133000000Y-129200000D01*
X106665685Y-118700000D02*
X110467401Y-122501716D01*
%TO.N,/Pin21*%
X103100000Y-117800000D02*
X102134196Y-117800000D01*
%TO.N,/Pin24*%
X110467401Y-122501716D02*
X110467401Y-123432599D01*
X143280000Y-115420000D02*
X143280000Y-114010000D01*
%TO.N,/Pin28*%
X115903430Y-130000000D02*
X137600000Y-130000000D01*
%TO.N,/Pin27*%
X101834314Y-119600000D02*
X103100000Y-119600000D01*
%TO.N,/Pin26*%
X137050000Y-119179340D02*
X138429340Y-117800000D01*
%TO.N,/Pin28*%
X140443654Y-120300000D02*
X142000000Y-120300000D01*
X143008984Y-119361016D02*
X148360000Y-114010000D01*
X139590000Y-121153654D02*
X140443654Y-120300000D01*
%TO.N,/Pin26*%
X141500000Y-117800000D02*
X145270000Y-114030000D01*
%TO.N,/Pin28*%
X142000000Y-120300000D02*
X142938984Y-119361016D01*
%TO.N,/Pin26*%
X145270000Y-114030000D02*
X145800000Y-114030000D01*
X116069117Y-129600000D02*
X136000000Y-129600000D01*
%TO.N,/Pin27*%
X101200000Y-120234314D02*
X101834314Y-119600000D01*
%TO.N,/Pin26*%
X105975000Y-119300000D02*
X106700000Y-119300000D01*
X145800000Y-114030000D02*
X145820000Y-114010000D01*
X110051715Y-123582599D02*
X116069117Y-129600000D01*
X110051715Y-122651715D02*
X110051715Y-123582599D01*
X106700000Y-119300000D02*
X110051715Y-122651715D01*
X138429340Y-117800000D02*
X141500000Y-117800000D01*
%TO.N,/Pin27*%
X101200000Y-127100000D02*
X101200000Y-120234314D01*
%TO.N,/Pin26*%
X136000000Y-129600000D02*
X137050000Y-128550000D01*
%TO.N,/Pin28*%
X109651715Y-123748285D02*
X115903430Y-130000000D01*
X139590000Y-128010000D02*
X139590000Y-121153654D01*
X142938984Y-119361016D02*
X143008984Y-119361016D01*
%TO.N,/Pin26*%
X137050000Y-128550000D02*
X137050000Y-119179340D01*
%TO.N,/Pin30*%
X115737745Y-130400000D02*
X140500000Y-130400000D01*
X143300000Y-119900000D02*
X143300000Y-119635686D01*
%TO.N,/Pin28*%
X137600000Y-130000000D02*
X139590000Y-128010000D01*
%TO.N,/Pin31*%
X110300000Y-132368628D02*
X110431372Y-132500000D01*
%TO.N,/Pin29*%
X105500000Y-128900000D02*
X105500000Y-128400000D01*
%TO.N,/Pin30*%
X141890000Y-121310000D02*
X143300000Y-119900000D01*
%TO.N,/Pin28*%
X106500000Y-119900000D02*
X109651715Y-123051715D01*
%TO.N,/Pin29*%
X101600000Y-126400000D02*
X101600000Y-120400000D01*
%TO.N,/Pin30*%
X108568872Y-123231128D02*
X115737745Y-130400000D01*
X108568872Y-122568872D02*
X108568872Y-123231128D01*
X105975000Y-120500000D02*
X106500000Y-120500000D01*
X149510000Y-114010000D02*
X150900000Y-114010000D01*
%TO.N,/Pin31*%
X151800000Y-132500000D02*
X153500000Y-130800000D01*
%TO.N,/Pin29*%
X106000000Y-129400000D02*
X105500000Y-128900000D01*
%TO.N,/Pin30*%
X143300000Y-119635686D02*
X147829670Y-115106016D01*
X147883654Y-115160000D02*
X148836346Y-115160000D01*
%TO.N,/Pin31*%
X106665686Y-125100000D02*
X110300000Y-128734314D01*
X153500000Y-130800000D02*
X153500000Y-127400000D01*
%TO.N,/Pin28*%
X105975000Y-119900000D02*
X106500000Y-119900000D01*
%TO.N,/Pin29*%
X101600000Y-120400000D02*
X101800000Y-120200000D01*
%TO.N,/Pin30*%
X140500000Y-130400000D02*
X141890000Y-129010000D01*
X149510000Y-114486346D02*
X149510000Y-114010000D01*
%TO.N,/Pin28*%
X109651715Y-123051715D02*
X109651715Y-123748285D01*
%TO.N,/Pin30*%
X147829670Y-115106016D02*
X147883654Y-115160000D01*
X106500000Y-120500000D02*
X108568872Y-122568872D01*
%TO.N,/Pin29*%
X105500000Y-128400000D02*
X103600000Y-128400000D01*
X103600000Y-128400000D02*
X101600000Y-126400000D01*
%TO.N,/Pin31*%
X105400000Y-125100000D02*
X106665686Y-125100000D01*
X103100000Y-120800000D02*
X103700000Y-120800000D01*
X103700000Y-120800000D02*
X105350000Y-122450000D01*
X110431372Y-132500000D02*
X151800000Y-132500000D01*
X153440000Y-127340000D02*
X153440000Y-121630000D01*
X110300000Y-128734314D02*
X110300000Y-132368628D01*
X105350000Y-125050000D02*
X105400000Y-125100000D01*
%TO.N,/Pin30*%
X141890000Y-129010000D02*
X141890000Y-121310000D01*
%TO.N,/Pin31*%
X153500000Y-127400000D02*
X153440000Y-127340000D01*
X105350000Y-122450000D02*
X105350000Y-125050000D01*
%TO.N,/Pin29*%
X101800000Y-120200000D02*
X103100000Y-120200000D01*
%TO.N,/Pin30*%
X148836346Y-115160000D02*
X149510000Y-114486346D01*
%TO.N,/Pin34*%
X107303186Y-123096814D02*
X115506372Y-131300000D01*
%TO.N,/Pin35*%
X104500000Y-124700000D02*
X104499998Y-125031367D01*
X104550000Y-122884315D02*
X104550000Y-124649998D01*
X104499998Y-125031367D02*
X104500000Y-125031369D01*
%TO.N,/Pin32*%
X153000000Y-119000000D02*
X153440000Y-118560000D01*
%TO.N,/Pin34*%
X146970000Y-121393654D02*
X148963654Y-119400000D01*
X115506372Y-131300000D02*
X140900000Y-131300000D01*
%TO.N,/Pin33*%
X104950000Y-122718630D02*
X104950000Y-124815686D01*
X103631370Y-121400000D02*
X103781370Y-121550000D01*
%TO.N,/Pin34*%
X140900000Y-131300000D02*
X146970000Y-125230000D01*
X148963654Y-119400000D02*
X153165686Y-119400000D01*
%TO.N,/Pin33*%
X103800000Y-121568630D02*
X104950000Y-122718630D01*
%TO.N,/Pin34*%
X153165686Y-119400000D02*
X155980000Y-116585686D01*
%TO.N,/Pin33*%
X110265686Y-132900000D02*
X155700000Y-132900000D01*
%TO.N,/Pin32*%
X146823654Y-119000000D02*
X153000000Y-119000000D01*
%TO.N,/Pin34*%
X146970000Y-125230000D02*
X146970000Y-121393654D01*
%TO.N,/Pin32*%
X140734314Y-130900000D02*
X144670000Y-126964314D01*
%TO.N,/Pin33*%
X109800000Y-132434314D02*
X110265686Y-132900000D01*
%TO.N,/Pin35*%
X103665685Y-122000000D02*
X104550000Y-122884315D01*
%TO.N,/Pin32*%
X105975000Y-121100000D02*
X106465685Y-121100000D01*
%TO.N,/Pin35*%
X104500000Y-125665685D02*
X104734315Y-125900000D01*
%TO.N,/Pin34*%
X107303186Y-122503186D02*
X107303186Y-123096814D01*
%TO.N,/Pin32*%
X153440000Y-118560000D02*
X153440000Y-114010000D01*
X144670000Y-126964314D02*
X144670000Y-121153654D01*
%TO.N,/Pin34*%
X105975000Y-121700000D02*
X106500000Y-121700000D01*
%TO.N,/Pin33*%
X104950000Y-124815686D02*
X104900000Y-124865685D01*
X155700000Y-132900000D02*
X155980000Y-132620000D01*
X109800000Y-128800000D02*
X109800000Y-132434314D01*
%TO.N,/Pin32*%
X106465685Y-121100000D02*
X107736029Y-122370344D01*
%TO.N,/Pin33*%
X104900000Y-124865685D02*
X104900000Y-125500000D01*
%TO.N,/Pin32*%
X115672058Y-130900000D02*
X140734314Y-130900000D01*
X144670000Y-121153654D02*
X146823654Y-119000000D01*
%TO.N,/Pin33*%
X103800000Y-121550000D02*
X103800000Y-121568630D01*
%TO.N,/Pin34*%
X155980000Y-116585686D02*
X155980000Y-114010000D01*
%TO.N,/Pin33*%
X103781370Y-121550000D02*
X103800000Y-121550000D01*
%TO.N,/Pin35*%
X158400000Y-133300000D02*
X158520000Y-133180000D01*
X104550000Y-124649998D02*
X104500002Y-124699995D01*
X104500002Y-124699995D02*
X104500000Y-124700000D01*
X103100000Y-122000000D02*
X103665685Y-122000000D01*
X106300000Y-125900000D02*
X109300000Y-128900000D01*
X109300000Y-128900000D02*
X109300000Y-132500000D01*
X110100001Y-133300000D02*
X158400000Y-133300000D01*
%TO.N,/Pin33*%
X106500000Y-125500000D02*
X109800000Y-128800000D01*
X103100000Y-121400000D02*
X103631370Y-121400000D01*
%TO.N,/Pin35*%
X104734315Y-125900000D02*
X106300000Y-125900000D01*
%TO.N,/Pin32*%
X107736029Y-122963971D02*
X115672058Y-130900000D01*
%TO.N,/Pin33*%
X155980000Y-132620000D02*
X155980000Y-121630000D01*
%TO.N,/Pin34*%
X106500000Y-121700000D02*
X107303186Y-122503186D01*
%TO.N,/Pin32*%
X107736029Y-122370344D02*
X107736029Y-122963971D01*
%TO.N,/Pin33*%
X104900000Y-125500000D02*
X106500000Y-125500000D01*
%TO.N,/Pin36*%
X105975000Y-122300000D02*
X106500000Y-122300000D01*
%TO.N,/Pin37*%
X104150000Y-124400000D02*
X104050000Y-124500000D01*
X104100000Y-124500000D02*
X104100000Y-124534311D01*
%TO.N,/Pin36*%
X149595330Y-121304670D02*
X151100000Y-119800000D01*
%TO.N,/Pin37*%
X104100000Y-126300000D02*
X104167157Y-126367157D01*
X104100000Y-124534311D02*
X104099997Y-124534314D01*
%TO.N,/Pin36*%
X158400000Y-119600000D02*
X158520000Y-119480000D01*
%TO.N,/Pin37*%
X104099997Y-124534314D02*
X104099998Y-125197053D01*
X161060000Y-126540000D02*
X161060000Y-121630000D01*
%TO.N,/Pin38*%
X115175000Y-132100000D02*
X146200000Y-132100000D01*
X105975000Y-122900000D02*
X115175000Y-132100000D01*
%TO.N,/Pin36*%
X106700000Y-122500000D02*
X106700000Y-123059314D01*
X106700000Y-123059314D02*
X115340686Y-131700000D01*
%TO.N,/Pin35*%
X158520000Y-133180000D02*
X158520000Y-121630000D01*
%TO.N,/Pin36*%
X115340686Y-131700000D02*
X144600000Y-131700000D01*
X149595330Y-126704670D02*
X149595330Y-121304670D01*
X144600000Y-131700000D02*
X149595330Y-126704670D01*
%TO.N,/Pin37*%
X160267157Y-133167157D02*
X160267157Y-127332843D01*
X108900000Y-133700000D02*
X159734314Y-133700000D01*
X104050000Y-124500000D02*
X104100000Y-124500000D01*
%TO.N,/Pin38*%
X152290000Y-120610000D02*
X152600000Y-120300000D01*
%TO.N,/Pin37*%
X104099998Y-125197053D02*
X104100000Y-125197055D01*
X104150000Y-123050000D02*
X104150000Y-124400000D01*
X106067157Y-126367157D02*
X108900000Y-129200000D01*
%TO.N,/Pin38*%
X152290000Y-126010000D02*
X152290000Y-120610000D01*
X146200000Y-132100000D02*
X152290000Y-126010000D01*
%TO.N,/Pin39*%
X108500000Y-134100000D02*
X159900000Y-134100000D01*
%TO.N,/Pin37*%
X159734314Y-133700000D02*
X160267157Y-133167157D01*
%TO.N,/Pin38*%
X152600000Y-120300000D02*
X160100000Y-120300000D01*
%TO.N,/Pin37*%
X104167157Y-126367157D02*
X106067157Y-126367157D01*
%TO.N,/Pin39*%
X160700000Y-133300000D02*
X160700000Y-129700000D01*
%TO.N,/Pin37*%
X103700000Y-122600000D02*
X104150000Y-123050000D01*
%TO.N,/Pin38*%
X160100000Y-114970000D02*
X161060000Y-114010000D01*
%TO.N,/Pin35*%
X109300000Y-132500000D02*
X110100001Y-133300000D01*
X104500000Y-125031369D02*
X104500000Y-125665685D01*
%TO.N,/Pin36*%
X158400000Y-119800000D02*
X158400000Y-119600000D01*
%TO.N,/Pin37*%
X104100000Y-125197055D02*
X104100000Y-126300000D01*
X160267157Y-127332843D02*
X161060000Y-126540000D01*
X103100000Y-122600000D02*
X103700000Y-122600000D01*
%TO.N,/Pin36*%
X106500000Y-122300000D02*
X106700000Y-122500000D01*
X158520000Y-119480000D02*
X158520000Y-114010000D01*
%TO.N,/Pin38*%
X160100000Y-120300000D02*
X160100000Y-114970000D01*
%TO.N,/Pin37*%
X108900000Y-129200000D02*
X108900000Y-133700000D01*
%TO.N,/Pin36*%
X151100000Y-119800000D02*
X158400000Y-119800000D01*
%TO.N,GND*%
X103375000Y-123900000D02*
X103375000Y-126675000D01*
%TO.N,/Pin39*%
X102500000Y-126734314D02*
X103365686Y-127600000D01*
X164200000Y-126200000D02*
X163600000Y-125600000D01*
%TO.N,GND*%
X103375000Y-111100000D02*
X103375000Y-109825000D01*
%TO.N,/Pin39*%
X163600000Y-125600000D02*
X163600000Y-121630000D01*
X106856855Y-128000000D02*
X108500000Y-129643145D01*
X105300000Y-128000000D02*
X106856855Y-128000000D01*
X102500000Y-123500000D02*
X102500000Y-126734314D01*
X108500000Y-129643145D02*
X108500000Y-134100000D01*
%TO.N,GND*%
X163600000Y-114010000D02*
X166310000Y-114010000D01*
%TO.N,/Pin39*%
X103365686Y-127600000D02*
X104900000Y-127600000D01*
X159900000Y-134100000D02*
X160700000Y-133300000D01*
%TO.N,GND*%
X103375000Y-126675000D02*
X103500000Y-126800000D01*
%TO.N,/Pin39*%
X104900000Y-127600000D02*
X105300000Y-128000000D01*
%TO.N,GND*%
X103375000Y-109825000D02*
X103400000Y-109800000D01*
X166310000Y-114010000D02*
X166400000Y-114100000D01*
%TO.N,/Pin39*%
X103100000Y-123200000D02*
X102800000Y-123200000D01*
X102800000Y-123200000D02*
X102500000Y-123500000D01*
X160700000Y-129700000D02*
X164200000Y-126200000D01*
%TO.N,/Pin1*%
D18*
X104600000Y-111200000D02*
X104000000Y-111800000D01*
X104000000Y-111800000D02*
X103100000Y-111800000D01*
%TO.N,/Pin3*%
D17*
X103100000Y-112400000D02*
X103850754Y-112400000D01*
%TO.N,/Pin4*%
X117880000Y-114520000D02*
X117880000Y-114010000D01*
X112800000Y-115300000D02*
X116500000Y-115300000D01*
X116800000Y-115000000D02*
X117400000Y-115000000D01*
X105975000Y-112700000D02*
X110200000Y-112700000D01*
%TO.N,/Pin5*%
X103200000Y-112900000D02*
X103100000Y-113000000D01*
%TO.N,/Pin4*%
X116500000Y-115300000D02*
X116800000Y-115000000D01*
X110200000Y-112700000D02*
X112800000Y-115300000D01*
%TO.N,/Pin5*%
X104199283Y-112900000D02*
X103200000Y-112900000D01*
%TO.N,/Pin2*%
D18*
X112410000Y-114010000D02*
X115340000Y-114010000D01*
X110500000Y-112100000D02*
X112410000Y-114010000D01*
%TO.N,/Pin3*%
D17*
X103950754Y-112300000D02*
X104777013Y-112300000D01*
%TO.N,/Pin4*%
X117400000Y-115000000D02*
X117880000Y-114520000D01*
%TO.N,/Pin3*%
X104777013Y-112300000D02*
X104948167Y-112128846D01*
%TO.N,/Pin2*%
D18*
X105975000Y-112100000D02*
X110500000Y-112100000D01*
%TO.N,/Pin3*%
D17*
X103850754Y-112400000D02*
X103950754Y-112300000D01*
%TO.N,/Pin7*%
X103100000Y-113600000D02*
X103500000Y-113600000D01*
%TO.N,/Pin8*%
X114402942Y-117000000D02*
X114402942Y-116362744D01*
X119665686Y-115200000D02*
X121600000Y-115200000D01*
%TO.N,/Pin6*%
X114400000Y-115800000D02*
X118500000Y-115800000D01*
%TO.N,/Pin7*%
X103600000Y-113500000D02*
X104762957Y-113500000D01*
%TO.N,/Pin6*%
X118500000Y-115800000D02*
X120290000Y-114010000D01*
%TO.N,/Pin8*%
X118665686Y-116200000D02*
X119665686Y-115200000D01*
X114402942Y-116362744D02*
X114565686Y-116200000D01*
%TO.N,/Pin9*%
X103900000Y-114128525D02*
X103171475Y-114128525D01*
%TO.N,/Pin8*%
X113801471Y-117601471D02*
X114402942Y-117000000D01*
%TO.N,/Pin6*%
X105975000Y-113300000D02*
X110065686Y-113300000D01*
%TO.N,/Pin8*%
X121700000Y-115270000D02*
X122960000Y-114010000D01*
X105975000Y-113900000D02*
X110100000Y-113900000D01*
%TO.N,/Pin6*%
X120290000Y-114010000D02*
X120420000Y-114010000D01*
%TO.N,/Pin7*%
X104762957Y-113500000D02*
X104794631Y-113531674D01*
%TO.N,/Pin8*%
X121600000Y-115200000D02*
X121700000Y-115300000D01*
%TO.N,/Pin9*%
X104143707Y-114106678D02*
X103921847Y-114106678D01*
X103171475Y-114128525D02*
X103100000Y-114200000D01*
%TO.N,/Pin8*%
X121700000Y-115300000D02*
X121700000Y-115270000D01*
X114565686Y-116200000D02*
X118665686Y-116200000D01*
%TO.N,/Pin7*%
X103500000Y-113600000D02*
X103600000Y-113500000D01*
%TO.N,/Pin9*%
X103921847Y-114106678D02*
X103900000Y-114128525D01*
%TO.N,/Pin6*%
X110065686Y-113300000D02*
X113482843Y-116717157D01*
X113482843Y-116717157D02*
X114400000Y-115800000D01*
%TO.N,/Pin8*%
X110100000Y-113900000D02*
X113801471Y-117601471D01*
%TO.N,/Pin12*%
X126600000Y-117800000D02*
X128040000Y-116360000D01*
%TO.N,/Pin11*%
X104521570Y-114800000D02*
X104801033Y-114800000D01*
X104801033Y-114800000D02*
X104814682Y-114786351D01*
%TO.N,/Pin12*%
X114734314Y-117800000D02*
X126600000Y-117800000D01*
%TO.N,/Pin10*%
X123000000Y-117400000D02*
X124300000Y-116100000D01*
%TO.N,/Pin11*%
X103931190Y-114706678D02*
X104428248Y-114706678D01*
X103100000Y-114800000D02*
X103837868Y-114800000D01*
%TO.N,/Pin13*%
X104179719Y-115306678D02*
X103882508Y-115306678D01*
%TO.N,/Pin10*%
X124300000Y-114900000D02*
X124890000Y-114310000D01*
%TO.N,/Pin11*%
X103837868Y-114800000D02*
X103931190Y-114706678D01*
%TO.N,/Pin13*%
X103882508Y-115306678D02*
X103789186Y-115400000D01*
%TO.N,/Pin10*%
X113784314Y-118184314D02*
X114568628Y-117400000D01*
X125200000Y-114310000D02*
X125500000Y-114010000D01*
X114568628Y-117400000D02*
X123000000Y-117400000D01*
X124300000Y-116100000D02*
X124300000Y-114900000D01*
X105975000Y-114500000D02*
X110100000Y-114500000D01*
%TO.N,/Pin11*%
X104428248Y-114706678D02*
X104521570Y-114800000D01*
%TO.N,/Pin12*%
X113667157Y-118867157D02*
X114734314Y-117800000D01*
%TO.N,/Pin10*%
X124890000Y-114310000D02*
X125200000Y-114310000D01*
%TO.N,/Pin12*%
X105975000Y-115100000D02*
X109900000Y-115100000D01*
X128040000Y-116360000D02*
X128040000Y-114010000D01*
%TO.N,/Pin13*%
X103789186Y-115400000D02*
X103100000Y-115400000D01*
%TO.N,/Pin10*%
X110100000Y-114500000D02*
X113784314Y-118184314D01*
%TO.N,/Pin12*%
X109900000Y-115100000D02*
X113667157Y-118867157D01*
%TO.N,/Pin14*%
X113600000Y-119500000D02*
X114900000Y-118200000D01*
X105975000Y-115700000D02*
X109800000Y-115700000D01*
X129400000Y-117100000D02*
X130800000Y-115700000D01*
%TO.N,/Pin16*%
X106565685Y-116300000D02*
X112700000Y-122434315D01*
X130400000Y-119200000D02*
X133500000Y-116100000D01*
X124300000Y-127000000D02*
X124300000Y-120800000D01*
X125100000Y-120000000D02*
X126834314Y-120000000D01*
%TO.N,/Pin14*%
X129400000Y-118200000D02*
X129400000Y-117100000D01*
%TO.N,/Pin16*%
X133500000Y-116100000D02*
X133120000Y-115720000D01*
%TO.N,/Pin15*%
X104349616Y-116088432D02*
X104236249Y-116088432D01*
%TO.N,/Pin16*%
X124300000Y-120800000D02*
X125100000Y-120000000D01*
X126834314Y-120000000D02*
X126934315Y-119900000D01*
%TO.N,/Pin14*%
X114900000Y-118200000D02*
X129400000Y-118200000D01*
%TO.N,/Pin15*%
X104236249Y-116088432D02*
X104147817Y-116000000D01*
%TO.N,/Pin16*%
X133120000Y-115720000D02*
X133120000Y-114010000D01*
%TO.N,/Pin14*%
X130660000Y-115700000D02*
X130580000Y-115620000D01*
X130800000Y-115700000D02*
X130660000Y-115700000D01*
%TO.N,/Pin16*%
X123800000Y-127500000D02*
X124300000Y-127000000D01*
X126934315Y-119900000D02*
X129552282Y-119900000D01*
X130252284Y-119200000D02*
X130400000Y-119200000D01*
X105975000Y-116300000D02*
X106565685Y-116300000D01*
%TO.N,/Pin14*%
X130580000Y-115620000D02*
X130580000Y-114010000D01*
%TO.N,/Pin15*%
X104147817Y-116000000D02*
X103100000Y-116000000D01*
%TO.N,/Pin14*%
X109800000Y-115700000D02*
X113600000Y-119500000D01*
%TO.N,/Pin20*%
X111450244Y-123284070D02*
X116566174Y-128400000D01*
X106600000Y-117500000D02*
X111450244Y-122350244D01*
X132757969Y-119800000D02*
X134384314Y-119800000D01*
%TO.N,/Pin17*%
X104274265Y-116925735D02*
X104205656Y-116925735D01*
X103879921Y-116600000D02*
X103100000Y-116600000D01*
%TO.N,/Pin18*%
X127100000Y-120300000D02*
X129717968Y-120300000D01*
X126890000Y-127010000D02*
X126890000Y-120510000D01*
X129717968Y-120300000D02*
X130417969Y-119600000D01*
X134500000Y-115200000D02*
X135660000Y-114040000D01*
X106600000Y-116900000D02*
X112065930Y-122365930D01*
X112065930Y-122365930D02*
X112065930Y-123334070D01*
X134500000Y-115800000D02*
X134500000Y-115200000D01*
%TO.N,/Pin16*%
X112700000Y-122434315D02*
X112700000Y-123300000D01*
%TO.N,/Pin18*%
X116731860Y-128000000D02*
X125900000Y-128000000D01*
X131000000Y-119600000D02*
X134300000Y-116300000D01*
%TO.N,/Pin16*%
X129552282Y-119900000D02*
X130252284Y-119200000D01*
X112700000Y-123300000D02*
X116900000Y-127500000D01*
%TO.N,/Pin18*%
X135660000Y-114040000D02*
X135660000Y-114010000D01*
%TO.N,/Pin19*%
X103700000Y-117200000D02*
X104008698Y-117508698D01*
X103100000Y-117200000D02*
X103700000Y-117200000D01*
X104008698Y-117508698D02*
X104008698Y-120285504D01*
%TO.N,/Pin20*%
X132557968Y-120000000D02*
X132757969Y-119800000D01*
X134384314Y-119800000D02*
X138200000Y-115984314D01*
%TO.N,/Pin18*%
X134300000Y-116300000D02*
X134300000Y-116000000D01*
%TO.N,/Pin20*%
X138200000Y-115984314D02*
X138200000Y-114010000D01*
%TO.N,/Pin18*%
X126890000Y-120510000D02*
X127100000Y-120300000D01*
X105975000Y-116900000D02*
X106600000Y-116900000D01*
%TO.N,/Pin16*%
X116900000Y-127500000D02*
X123800000Y-127500000D01*
%TO.N,/Pin18*%
X112065930Y-123334070D02*
X116731860Y-128000000D01*
%TO.N,/Pin20*%
X127600000Y-128400000D02*
X129430000Y-126570000D01*
%TO.N,/Pin17*%
X104205656Y-116925735D02*
X103879921Y-116600000D01*
%TO.N,/Pin18*%
X130417969Y-119600000D02*
X131000000Y-119600000D01*
%TO.N,/Pin20*%
X130583654Y-120000000D02*
X132557968Y-120000000D01*
%TO.N,/Pin18*%
X134300000Y-116000000D02*
X134500000Y-115800000D01*
X125900000Y-128000000D02*
X126890000Y-127010000D01*
%TD*%
%TA.AperFunction,Conductor*%
%TO.N,GND*%
G36*
X165120992Y-100073593D02*
G01*
X165187947Y-100093558D01*
X165233480Y-100146553D01*
X165243134Y-100215753D01*
X165213843Y-100279187D01*
X165186443Y-100302586D01*
X164895045Y-100485684D01*
X164613997Y-100709811D01*
X164359811Y-100963997D01*
X164135684Y-101245045D01*
X163944432Y-101549420D01*
X163788465Y-101873288D01*
X163669741Y-102212580D01*
X163669737Y-102212592D01*
X163589748Y-102563048D01*
X163589746Y-102563064D01*
X163549500Y-102920259D01*
X163549500Y-103279740D01*
X163589746Y-103636935D01*
X163589748Y-103636951D01*
X163669737Y-103987407D01*
X163669741Y-103987419D01*
X163788465Y-104326711D01*
X163944432Y-104650579D01*
X163944434Y-104650582D01*
X164135685Y-104954956D01*
X164359812Y-105236003D01*
X164613997Y-105490188D01*
X164895044Y-105714315D01*
X165199418Y-105905566D01*
X165523292Y-106061536D01*
X165778119Y-106150703D01*
X165862580Y-106180258D01*
X165862592Y-106180262D01*
X166213052Y-106260252D01*
X166570260Y-106300499D01*
X166570261Y-106300500D01*
X166570264Y-106300500D01*
X166929739Y-106300500D01*
X166929739Y-106300499D01*
X167286948Y-106260252D01*
X167637408Y-106180262D01*
X167976708Y-106061536D01*
X168300582Y-105905566D01*
X168604956Y-105714315D01*
X168886003Y-105490188D01*
X169140188Y-105236003D01*
X169364315Y-104954956D01*
X169555566Y-104650582D01*
X169711536Y-104326708D01*
X169713046Y-104323573D01*
X169714190Y-104324123D01*
X169754760Y-104273759D01*
X169821050Y-104251682D01*
X169888753Y-104268948D01*
X169936373Y-104320076D01*
X169949500Y-104375602D01*
X169949500Y-130474397D01*
X169929815Y-130541436D01*
X169877011Y-130587191D01*
X169807853Y-130597135D01*
X169744297Y-130568110D01*
X169713931Y-130526000D01*
X169713046Y-130526427D01*
X169555567Y-130199420D01*
X169555566Y-130199418D01*
X169364315Y-129895044D01*
X169140188Y-129613997D01*
X168886003Y-129359812D01*
X168604956Y-129135685D01*
X168380481Y-128994638D01*
X168300579Y-128944432D01*
X167976711Y-128788465D01*
X167637419Y-128669741D01*
X167637407Y-128669737D01*
X167286951Y-128589748D01*
X167286935Y-128589746D01*
X166929740Y-128549500D01*
X166929736Y-128549500D01*
X166570264Y-128549500D01*
X166570259Y-128549500D01*
X166213064Y-128589746D01*
X166213048Y-128589748D01*
X165862592Y-128669737D01*
X165862580Y-128669741D01*
X165523288Y-128788465D01*
X165199420Y-128944432D01*
X164895045Y-129135684D01*
X164613997Y-129359811D01*
X164359811Y-129613997D01*
X164135684Y-129895045D01*
X163944432Y-130199420D01*
X163788465Y-130523288D01*
X163669741Y-130862580D01*
X163669737Y-130862592D01*
X163589748Y-131213048D01*
X163589746Y-131213064D01*
X163549500Y-131570259D01*
X163549500Y-131929740D01*
X163589746Y-132286935D01*
X163589748Y-132286951D01*
X163669737Y-132637407D01*
X163669741Y-132637419D01*
X163788465Y-132976711D01*
X163944432Y-133300579D01*
X163944434Y-133300582D01*
X164135685Y-133604956D01*
X164359812Y-133886003D01*
X164613997Y-134140188D01*
X164895044Y-134364315D01*
X165061199Y-134468717D01*
X165199420Y-134555567D01*
X165526427Y-134713046D01*
X165525876Y-134714190D01*
X165576241Y-134754760D01*
X165598318Y-134821050D01*
X165581052Y-134888753D01*
X165529924Y-134936373D01*
X165474398Y-134949500D01*
X104775602Y-134949500D01*
X104708563Y-134929815D01*
X104662808Y-134877011D01*
X104652864Y-134807853D01*
X104681889Y-134744297D01*
X104724001Y-134713935D01*
X104723573Y-134713046D01*
X104843839Y-134655128D01*
X105050582Y-134555566D01*
X105354956Y-134364315D01*
X105636003Y-134140188D01*
X105890188Y-133886003D01*
X106114315Y-133604956D01*
X106305566Y-133300582D01*
X106461536Y-132976708D01*
X106580262Y-132637408D01*
X106660252Y-132286948D01*
X106700500Y-131929736D01*
X106700500Y-131570264D01*
X106660252Y-131213052D01*
X106580262Y-130862592D01*
X106461536Y-130523292D01*
X106337426Y-130265577D01*
X106326075Y-130196637D01*
X106353797Y-130132502D01*
X106380257Y-130108674D01*
X106440838Y-130068194D01*
X106510289Y-130021789D01*
X106621789Y-129910289D01*
X106709394Y-129779179D01*
X106769737Y-129633497D01*
X106800500Y-129478842D01*
X106800500Y-129321158D01*
X106800500Y-129321155D01*
X106800499Y-129321153D01*
X106769738Y-129166510D01*
X106769737Y-129166503D01*
X106756972Y-129135685D01*
X106722354Y-129052109D01*
X106714885Y-128982640D01*
X106746160Y-128920161D01*
X106806249Y-128884509D01*
X106876074Y-128887003D01*
X106924596Y-128916976D01*
X107863181Y-129855561D01*
X107896666Y-129916884D01*
X107899500Y-129943242D01*
X107899500Y-134179056D01*
X107940423Y-134331783D01*
X107940426Y-134331790D01*
X108019475Y-134468709D01*
X108019478Y-134468713D01*
X108019480Y-134468716D01*
X108131284Y-134580520D01*
X108131286Y-134580521D01*
X108131290Y-134580524D01*
X108268209Y-134659573D01*
X108268216Y-134659577D01*
X108420943Y-134700500D01*
X108579057Y-134700500D01*
X159813331Y-134700500D01*
X159813347Y-134700501D01*
X159820943Y-134700501D01*
X159979054Y-134700501D01*
X159979057Y-134700501D01*
X160131785Y-134659577D01*
X160181904Y-134630639D01*
X160268716Y-134580520D01*
X160380520Y-134468716D01*
X160380520Y-134468714D01*
X160390728Y-134458507D01*
X160390730Y-134458504D01*
X161058506Y-133790728D01*
X161058511Y-133790724D01*
X161068714Y-133780520D01*
X161068716Y-133780520D01*
X161180520Y-133668716D01*
X161238184Y-133568838D01*
X161259577Y-133531785D01*
X161300501Y-133379057D01*
X161300501Y-133220943D01*
X161300501Y-133213348D01*
X161300500Y-133213330D01*
X161300500Y-130000097D01*
X161320185Y-129933058D01*
X161336819Y-129912416D01*
X163007450Y-128241785D01*
X164680519Y-126568716D01*
X164703161Y-126529499D01*
X164759577Y-126431785D01*
X164800500Y-126279057D01*
X164800500Y-126120943D01*
X164759577Y-125968215D01*
X164680519Y-125831284D01*
X164236819Y-125387584D01*
X164203334Y-125326261D01*
X164200500Y-125299903D01*
X164200500Y-122915718D01*
X164220185Y-122848679D01*
X164268207Y-122805233D01*
X164307815Y-122785052D01*
X164307815Y-122785051D01*
X164307816Y-122785051D01*
X164399193Y-122718661D01*
X164479786Y-122660109D01*
X164479788Y-122660106D01*
X164479792Y-122660104D01*
X164630104Y-122509792D01*
X164630106Y-122509788D01*
X164630109Y-122509786D01*
X164742379Y-122355258D01*
X164755051Y-122337816D01*
X164851557Y-122148412D01*
X164917246Y-121946243D01*
X164950500Y-121736287D01*
X164950500Y-121523713D01*
X164917246Y-121313757D01*
X164851557Y-121111588D01*
X164755051Y-120922184D01*
X164755049Y-120922181D01*
X164755048Y-120922179D01*
X164630109Y-120750213D01*
X164479786Y-120599890D01*
X164307820Y-120474951D01*
X164118414Y-120378444D01*
X164118413Y-120378443D01*
X164118412Y-120378443D01*
X163916243Y-120312754D01*
X163916241Y-120312753D01*
X163916240Y-120312753D01*
X163754957Y-120287208D01*
X163706287Y-120279500D01*
X163493713Y-120279500D01*
X163445042Y-120287208D01*
X163283760Y-120312753D01*
X163081585Y-120378444D01*
X162892179Y-120474951D01*
X162720213Y-120599890D01*
X162569890Y-120750213D01*
X162444949Y-120922182D01*
X162440484Y-120930946D01*
X162392509Y-120981742D01*
X162324688Y-120998536D01*
X162258553Y-120975998D01*
X162219516Y-120930946D01*
X162215050Y-120922182D01*
X162090109Y-120750213D01*
X161939786Y-120599890D01*
X161767820Y-120474951D01*
X161578414Y-120378444D01*
X161578413Y-120378443D01*
X161578412Y-120378443D01*
X161376243Y-120312754D01*
X161376241Y-120312753D01*
X161376240Y-120312753D01*
X161214957Y-120287208D01*
X161166287Y-120279500D01*
X160953713Y-120279500D01*
X160900438Y-120287938D01*
X160843898Y-120296893D01*
X160774604Y-120287938D01*
X160721152Y-120242942D01*
X160700513Y-120176191D01*
X160700500Y-120174420D01*
X160700500Y-115465579D01*
X160720185Y-115398540D01*
X160772989Y-115352785D01*
X160842147Y-115342841D01*
X160843752Y-115343083D01*
X160953713Y-115360500D01*
X160953715Y-115360500D01*
X161166286Y-115360500D01*
X161166287Y-115360500D01*
X161376243Y-115327246D01*
X161578412Y-115261557D01*
X161767816Y-115165051D01*
X161857352Y-115100000D01*
X161939786Y-115040109D01*
X161939788Y-115040106D01*
X161939792Y-115040104D01*
X162090104Y-114889792D01*
X162090106Y-114889788D01*
X162090109Y-114889786D01*
X162175890Y-114771717D01*
X162215051Y-114717816D01*
X162219793Y-114708508D01*
X162267763Y-114657711D01*
X162335583Y-114640911D01*
X162401719Y-114663445D01*
X162440763Y-114708500D01*
X162445373Y-114717547D01*
X162484728Y-114771716D01*
X163117037Y-114139408D01*
X163134075Y-114202993D01*
X163199901Y-114317007D01*
X163292993Y-114410099D01*
X163407007Y-114475925D01*
X163470590Y-114492962D01*
X162838282Y-115125269D01*
X162838282Y-115125270D01*
X162892449Y-115164624D01*
X163081782Y-115261095D01*
X163283870Y-115326757D01*
X163493754Y-115360000D01*
X163706246Y-115360000D01*
X163916127Y-115326757D01*
X163916130Y-115326757D01*
X164118217Y-115261095D01*
X164307554Y-115164622D01*
X164361716Y-115125270D01*
X164361717Y-115125270D01*
X163729408Y-114492962D01*
X163792993Y-114475925D01*
X163907007Y-114410099D01*
X164000099Y-114317007D01*
X164065925Y-114202993D01*
X164082962Y-114139408D01*
X164715270Y-114771717D01*
X164715270Y-114771716D01*
X164754622Y-114717554D01*
X164851095Y-114528217D01*
X164916757Y-114326130D01*
X164916757Y-114326127D01*
X164950000Y-114116246D01*
X164950000Y-113903753D01*
X164916757Y-113693872D01*
X164916757Y-113693869D01*
X164851095Y-113491782D01*
X164754624Y-113302449D01*
X164715270Y-113248282D01*
X164715269Y-113248282D01*
X164082962Y-113880590D01*
X164065925Y-113817007D01*
X164000099Y-113702993D01*
X163907007Y-113609901D01*
X163792993Y-113544075D01*
X163729409Y-113527037D01*
X164361716Y-112894728D01*
X164307550Y-112855375D01*
X164118217Y-112758904D01*
X163916129Y-112693242D01*
X163706246Y-112660000D01*
X163493754Y-112660000D01*
X163283872Y-112693242D01*
X163283869Y-112693242D01*
X163081782Y-112758904D01*
X162892439Y-112855380D01*
X162838282Y-112894727D01*
X162838282Y-112894728D01*
X163470591Y-113527037D01*
X163407007Y-113544075D01*
X163292993Y-113609901D01*
X163199901Y-113702993D01*
X163134075Y-113817007D01*
X163117037Y-113880591D01*
X162484728Y-113248282D01*
X162484727Y-113248282D01*
X162445380Y-113302440D01*
X162445376Y-113302446D01*
X162440760Y-113311505D01*
X162392781Y-113362297D01*
X162324959Y-113379087D01*
X162258826Y-113356543D01*
X162219794Y-113311493D01*
X162215051Y-113302184D01*
X162215049Y-113302181D01*
X162215048Y-113302179D01*
X162090109Y-113130213D01*
X161939786Y-112979890D01*
X161767820Y-112854951D01*
X161578414Y-112758444D01*
X161578413Y-112758443D01*
X161578412Y-112758443D01*
X161376243Y-112692754D01*
X161376241Y-112692753D01*
X161376240Y-112692753D01*
X161214957Y-112667208D01*
X161166287Y-112659500D01*
X160953713Y-112659500D01*
X160905042Y-112667208D01*
X160743760Y-112692753D01*
X160541585Y-112758444D01*
X160352179Y-112854951D01*
X160180213Y-112979890D01*
X160029890Y-113130213D01*
X159904949Y-113302182D01*
X159900484Y-113310946D01*
X159852509Y-113361742D01*
X159784688Y-113378536D01*
X159718553Y-113355998D01*
X159679516Y-113310946D01*
X159675050Y-113302182D01*
X159550109Y-113130213D01*
X159399786Y-112979890D01*
X159227820Y-112854951D01*
X159038414Y-112758444D01*
X159038413Y-112758443D01*
X159038412Y-112758443D01*
X158836243Y-112692754D01*
X158836241Y-112692753D01*
X158836240Y-112692753D01*
X158674957Y-112667208D01*
X158626287Y-112659500D01*
X158413713Y-112659500D01*
X158365042Y-112667208D01*
X158203760Y-112692753D01*
X158001585Y-112758444D01*
X157812179Y-112854951D01*
X157640213Y-112979890D01*
X157489890Y-113130213D01*
X157364949Y-113302182D01*
X157360484Y-113310946D01*
X157312509Y-113361742D01*
X157244688Y-113378536D01*
X157178553Y-113355998D01*
X157139516Y-113310946D01*
X157135050Y-113302182D01*
X157010109Y-113130213D01*
X156859786Y-112979890D01*
X156687820Y-112854951D01*
X156498414Y-112758444D01*
X156498413Y-112758443D01*
X156498412Y-112758443D01*
X156296243Y-112692754D01*
X156296241Y-112692753D01*
X156296240Y-112692753D01*
X156134957Y-112667208D01*
X156086287Y-112659500D01*
X155873713Y-112659500D01*
X155825042Y-112667208D01*
X155663760Y-112692753D01*
X155461585Y-112758444D01*
X155272179Y-112854951D01*
X155100213Y-112979890D01*
X154949890Y-113130213D01*
X154824949Y-113302182D01*
X154820484Y-113310946D01*
X154772509Y-113361742D01*
X154704688Y-113378536D01*
X154638553Y-113355998D01*
X154599516Y-113310946D01*
X154595050Y-113302182D01*
X154470109Y-113130213D01*
X154319786Y-112979890D01*
X154147820Y-112854951D01*
X153958414Y-112758444D01*
X153958413Y-112758443D01*
X153958412Y-112758443D01*
X153756243Y-112692754D01*
X153756241Y-112692753D01*
X153756240Y-112692753D01*
X153594957Y-112667208D01*
X153546287Y-112659500D01*
X153333713Y-112659500D01*
X153285042Y-112667208D01*
X153123760Y-112692753D01*
X152921585Y-112758444D01*
X152732179Y-112854951D01*
X152560213Y-112979890D01*
X152409890Y-113130213D01*
X152284949Y-113302182D01*
X152280484Y-113310946D01*
X152232509Y-113361742D01*
X152164688Y-113378536D01*
X152098553Y-113355998D01*
X152059516Y-113310946D01*
X152055050Y-113302182D01*
X151930109Y-113130213D01*
X151779786Y-112979890D01*
X151607820Y-112854951D01*
X151418414Y-112758444D01*
X151418413Y-112758443D01*
X151418412Y-112758443D01*
X151216243Y-112692754D01*
X151216241Y-112692753D01*
X151216240Y-112692753D01*
X151054957Y-112667208D01*
X151006287Y-112659500D01*
X150793713Y-112659500D01*
X150745042Y-112667208D01*
X150583760Y-112692753D01*
X150381585Y-112758444D01*
X150192179Y-112854951D01*
X150020213Y-112979890D01*
X149869890Y-113130213D01*
X149744949Y-113302182D01*
X149740484Y-113310946D01*
X149692509Y-113361742D01*
X149624688Y-113378536D01*
X149558553Y-113355998D01*
X149519516Y-113310946D01*
X149515050Y-113302182D01*
X149390109Y-113130213D01*
X149239786Y-112979890D01*
X149067820Y-112854951D01*
X148878414Y-112758444D01*
X148878413Y-112758443D01*
X148878412Y-112758443D01*
X148676243Y-112692754D01*
X148676241Y-112692753D01*
X148676240Y-112692753D01*
X148514957Y-112667208D01*
X148466287Y-112659500D01*
X148253713Y-112659500D01*
X148205042Y-112667208D01*
X148043760Y-112692753D01*
X147841585Y-112758444D01*
X147652179Y-112854951D01*
X147480213Y-112979890D01*
X147329890Y-113130213D01*
X147204949Y-113302182D01*
X147200484Y-113310946D01*
X147152509Y-113361742D01*
X147084688Y-113378536D01*
X147018553Y-113355998D01*
X146979516Y-113310946D01*
X146975050Y-113302182D01*
X146850109Y-113130213D01*
X146699786Y-112979890D01*
X146527820Y-112854951D01*
X146338414Y-112758444D01*
X146338413Y-112758443D01*
X146338412Y-112758443D01*
X146136243Y-112692754D01*
X146136241Y-112692753D01*
X146136240Y-112692753D01*
X145974957Y-112667208D01*
X145926287Y-112659500D01*
X145713713Y-112659500D01*
X145665042Y-112667208D01*
X145503760Y-112692753D01*
X145301585Y-112758444D01*
X145112179Y-112854951D01*
X144940213Y-112979890D01*
X144789890Y-113130213D01*
X144664949Y-113302182D01*
X144660484Y-113310946D01*
X144612509Y-113361742D01*
X144544688Y-113378536D01*
X144478553Y-113355998D01*
X144439516Y-113310946D01*
X144435050Y-113302182D01*
X144310109Y-113130213D01*
X144159786Y-112979890D01*
X143987820Y-112854951D01*
X143798414Y-112758444D01*
X143798413Y-112758443D01*
X143798412Y-112758443D01*
X143596243Y-112692754D01*
X143596241Y-112692753D01*
X143596240Y-112692753D01*
X143434957Y-112667208D01*
X143386287Y-112659500D01*
X143173713Y-112659500D01*
X143125042Y-112667208D01*
X142963760Y-112692753D01*
X142761585Y-112758444D01*
X142572179Y-112854951D01*
X142400213Y-112979890D01*
X142249890Y-113130213D01*
X142124949Y-113302182D01*
X142120484Y-113310946D01*
X142072509Y-113361742D01*
X142004688Y-113378536D01*
X141938553Y-113355998D01*
X141899516Y-113310946D01*
X141895050Y-113302182D01*
X141770109Y-113130213D01*
X141619786Y-112979890D01*
X141447820Y-112854951D01*
X141258414Y-112758444D01*
X141258413Y-112758443D01*
X141258412Y-112758443D01*
X141056243Y-112692754D01*
X141056241Y-112692753D01*
X141056240Y-112692753D01*
X140894957Y-112667208D01*
X140846287Y-112659500D01*
X140633713Y-112659500D01*
X140585042Y-112667208D01*
X140423760Y-112692753D01*
X140221585Y-112758444D01*
X140032179Y-112854951D01*
X139860213Y-112979890D01*
X139709890Y-113130213D01*
X139584949Y-113302182D01*
X139580484Y-113310946D01*
X139532509Y-113361742D01*
X139464688Y-113378536D01*
X139398553Y-113355998D01*
X139359516Y-113310946D01*
X139355050Y-113302182D01*
X139230109Y-113130213D01*
X139079786Y-112979890D01*
X138907820Y-112854951D01*
X138718414Y-112758444D01*
X138718413Y-112758443D01*
X138718412Y-112758443D01*
X138516243Y-112692754D01*
X138516241Y-112692753D01*
X138516240Y-112692753D01*
X138354957Y-112667208D01*
X138306287Y-112659500D01*
X138093713Y-112659500D01*
X138045042Y-112667208D01*
X137883760Y-112692753D01*
X137681585Y-112758444D01*
X137492179Y-112854951D01*
X137320213Y-112979890D01*
X137169890Y-113130213D01*
X137044949Y-113302182D01*
X137040484Y-113310946D01*
X136992509Y-113361742D01*
X136924688Y-113378536D01*
X136858553Y-113355998D01*
X136819516Y-113310946D01*
X136815050Y-113302182D01*
X136690109Y-113130213D01*
X136539786Y-112979890D01*
X136367820Y-112854951D01*
X136178414Y-112758444D01*
X136178413Y-112758443D01*
X136178412Y-112758443D01*
X135976243Y-112692754D01*
X135976241Y-112692753D01*
X135976240Y-112692753D01*
X135814957Y-112667208D01*
X135766287Y-112659500D01*
X135553713Y-112659500D01*
X135505042Y-112667208D01*
X135343760Y-112692753D01*
X135141585Y-112758444D01*
X134952179Y-112854951D01*
X134780213Y-112979890D01*
X134629890Y-113130213D01*
X134504949Y-113302182D01*
X134500484Y-113310946D01*
X134452509Y-113361742D01*
X134384688Y-113378536D01*
X134318553Y-113355998D01*
X134279516Y-113310946D01*
X134275050Y-113302182D01*
X134150109Y-113130213D01*
X133999786Y-112979890D01*
X133827820Y-112854951D01*
X133638414Y-112758444D01*
X133638413Y-112758443D01*
X133638412Y-112758443D01*
X133436243Y-112692754D01*
X133436241Y-112692753D01*
X133436240Y-112692753D01*
X133274957Y-112667208D01*
X133226287Y-112659500D01*
X133013713Y-112659500D01*
X132965042Y-112667208D01*
X132803760Y-112692753D01*
X132601585Y-112758444D01*
X132412179Y-112854951D01*
X132240213Y-112979890D01*
X132089890Y-113130213D01*
X131964949Y-113302182D01*
X131960484Y-113310946D01*
X131912509Y-113361742D01*
X131844688Y-113378536D01*
X131778553Y-113355998D01*
X131739516Y-113310946D01*
X131735050Y-113302182D01*
X131610109Y-113130213D01*
X131459786Y-112979890D01*
X131287820Y-112854951D01*
X131098414Y-112758444D01*
X131098413Y-112758443D01*
X131098412Y-112758443D01*
X130896243Y-112692754D01*
X130896241Y-112692753D01*
X130896240Y-112692753D01*
X130734957Y-112667208D01*
X130686287Y-112659500D01*
X130473713Y-112659500D01*
X130425042Y-112667208D01*
X130263760Y-112692753D01*
X130061585Y-112758444D01*
X129872179Y-112854951D01*
X129700213Y-112979890D01*
X129549890Y-113130213D01*
X129424949Y-113302182D01*
X129420484Y-113310946D01*
X129372509Y-113361742D01*
X129304688Y-113378536D01*
X129238553Y-113355998D01*
X129199516Y-113310946D01*
X129195050Y-113302182D01*
X129070109Y-113130213D01*
X128919786Y-112979890D01*
X128747820Y-112854951D01*
X128558414Y-112758444D01*
X128558413Y-112758443D01*
X128558412Y-112758443D01*
X128356243Y-112692754D01*
X128356241Y-112692753D01*
X128356240Y-112692753D01*
X128194957Y-112667208D01*
X128146287Y-112659500D01*
X127933713Y-112659500D01*
X127885042Y-112667208D01*
X127723760Y-112692753D01*
X127521585Y-112758444D01*
X127332179Y-112854951D01*
X127160213Y-112979890D01*
X127009890Y-113130213D01*
X126884949Y-113302182D01*
X126880484Y-113310946D01*
X126832509Y-113361742D01*
X126764688Y-113378536D01*
X126698553Y-113355998D01*
X126659516Y-113310946D01*
X126655050Y-113302182D01*
X126530109Y-113130213D01*
X126379786Y-112979890D01*
X126207820Y-112854951D01*
X126018414Y-112758444D01*
X126018413Y-112758443D01*
X126018412Y-112758443D01*
X125816243Y-112692754D01*
X125816241Y-112692753D01*
X125816240Y-112692753D01*
X125654957Y-112667208D01*
X125606287Y-112659500D01*
X125393713Y-112659500D01*
X125345042Y-112667208D01*
X125183760Y-112692753D01*
X124981585Y-112758444D01*
X124792179Y-112854951D01*
X124620213Y-112979890D01*
X124469890Y-113130213D01*
X124344949Y-113302182D01*
X124340484Y-113310946D01*
X124292509Y-113361742D01*
X124224688Y-113378536D01*
X124158553Y-113355998D01*
X124119516Y-113310946D01*
X124115050Y-113302182D01*
X123990109Y-113130213D01*
X123839786Y-112979890D01*
X123667820Y-112854951D01*
X123478414Y-112758444D01*
X123478413Y-112758443D01*
X123478412Y-112758443D01*
X123276243Y-112692754D01*
X123276241Y-112692753D01*
X123276240Y-112692753D01*
X123114957Y-112667208D01*
X123066287Y-112659500D01*
X122853713Y-112659500D01*
X122805042Y-112667208D01*
X122643760Y-112692753D01*
X122441585Y-112758444D01*
X122252179Y-112854951D01*
X122080213Y-112979890D01*
X121929890Y-113130213D01*
X121804949Y-113302182D01*
X121800484Y-113310946D01*
X121752509Y-113361742D01*
X121684688Y-113378536D01*
X121618553Y-113355998D01*
X121579516Y-113310946D01*
X121575050Y-113302182D01*
X121450109Y-113130213D01*
X121299786Y-112979890D01*
X121127820Y-112854951D01*
X120938414Y-112758444D01*
X120938413Y-112758443D01*
X120938412Y-112758443D01*
X120736243Y-112692754D01*
X120736241Y-112692753D01*
X120736240Y-112692753D01*
X120574957Y-112667208D01*
X120526287Y-112659500D01*
X120313713Y-112659500D01*
X120265042Y-112667208D01*
X120103760Y-112692753D01*
X119901585Y-112758444D01*
X119712179Y-112854951D01*
X119540213Y-112979890D01*
X119389890Y-113130213D01*
X119264949Y-113302182D01*
X119260484Y-113310946D01*
X119212509Y-113361742D01*
X119144688Y-113378536D01*
X119078553Y-113355998D01*
X119039516Y-113310946D01*
X119035050Y-113302182D01*
X118910109Y-113130213D01*
X118759786Y-112979890D01*
X118587820Y-112854951D01*
X118398414Y-112758444D01*
X118398413Y-112758443D01*
X118398412Y-112758443D01*
X118196243Y-112692754D01*
X118196241Y-112692753D01*
X118196240Y-112692753D01*
X118034957Y-112667208D01*
X117986287Y-112659500D01*
X117773713Y-112659500D01*
X117725042Y-112667208D01*
X117563760Y-112692753D01*
X117361585Y-112758444D01*
X117172179Y-112854951D01*
X117000215Y-112979889D01*
X116886673Y-113093431D01*
X116825350Y-113126915D01*
X116755658Y-113121931D01*
X116699725Y-113080059D01*
X116682810Y-113049082D01*
X116633797Y-112917671D01*
X116633793Y-112917664D01*
X116547547Y-112802455D01*
X116547544Y-112802452D01*
X116432335Y-112716206D01*
X116432328Y-112716202D01*
X116297482Y-112665908D01*
X116297483Y-112665908D01*
X116237883Y-112659501D01*
X116237881Y-112659500D01*
X116237873Y-112659500D01*
X116237864Y-112659500D01*
X114442129Y-112659500D01*
X114442123Y-112659501D01*
X114382516Y-112665908D01*
X114247671Y-112716202D01*
X114247664Y-112716206D01*
X114132455Y-112802452D01*
X114132452Y-112802455D01*
X114046206Y-112917664D01*
X114046202Y-112917671D01*
X113995908Y-113052517D01*
X113989501Y-113112116D01*
X113989500Y-113112135D01*
X113989500Y-113185500D01*
X113969815Y-113252539D01*
X113917011Y-113298294D01*
X113865500Y-113309500D01*
X112751519Y-113309500D01*
X112684480Y-113289815D01*
X112663838Y-113273181D01*
X110946546Y-111555888D01*
X110946545Y-111555887D01*
X110831807Y-111479222D01*
X110704332Y-111426421D01*
X110704322Y-111426418D01*
X110568996Y-111399500D01*
X110568994Y-111399500D01*
X110568993Y-111399500D01*
X105906007Y-111399500D01*
X105906005Y-111399500D01*
X105770674Y-111426419D01*
X105770667Y-111426421D01*
X105737734Y-111440062D01*
X105733475Y-111441027D01*
X105731506Y-111442447D01*
X105714028Y-111445437D01*
X105696889Y-111449324D01*
X105693585Y-111449500D01*
X105602128Y-111449501D01*
X105542517Y-111455909D01*
X105537357Y-111457833D01*
X105522402Y-111458631D01*
X105498775Y-111453041D01*
X105474530Y-111451739D01*
X105465382Y-111445141D01*
X105454409Y-111442545D01*
X105437555Y-111425069D01*
X105417863Y-111410866D01*
X105413735Y-111400370D01*
X105405906Y-111392253D01*
X105401175Y-111368438D01*
X105392289Y-111345845D01*
X105393224Y-111328412D01*
X105392293Y-111323722D01*
X105393663Y-111320242D01*
X105394180Y-111310614D01*
X105400500Y-111278843D01*
X105400500Y-111121155D01*
X105400499Y-111121153D01*
X105386724Y-111051901D01*
X105369737Y-110966503D01*
X105353873Y-110928203D01*
X105309397Y-110820827D01*
X105309390Y-110820814D01*
X105221789Y-110689711D01*
X105221786Y-110689707D01*
X105110292Y-110578213D01*
X105110288Y-110578210D01*
X104979185Y-110490609D01*
X104979172Y-110490602D01*
X104833501Y-110430264D01*
X104833489Y-110430261D01*
X104678845Y-110399500D01*
X104678842Y-110399500D01*
X104521158Y-110399500D01*
X104521155Y-110399500D01*
X104366510Y-110430261D01*
X104366498Y-110430264D01*
X104232385Y-110485815D01*
X104162915Y-110493284D01*
X104110622Y-110470520D01*
X104092093Y-110456649D01*
X104092086Y-110456645D01*
X103957379Y-110406403D01*
X103957372Y-110406401D01*
X103897844Y-110400000D01*
X103575000Y-110400000D01*
X103575000Y-110975500D01*
X103555315Y-111042539D01*
X103502511Y-111088294D01*
X103451000Y-111099500D01*
X103274862Y-111099500D01*
X103207823Y-111079815D01*
X103162068Y-111027011D01*
X103152124Y-110957853D01*
X103175000Y-110907761D01*
X103175000Y-110400000D01*
X102852155Y-110400000D01*
X102792627Y-110406401D01*
X102792620Y-110406403D01*
X102657913Y-110456645D01*
X102657906Y-110456649D01*
X102542812Y-110542809D01*
X102542809Y-110542812D01*
X102456649Y-110657906D01*
X102456645Y-110657913D01*
X102406403Y-110792620D01*
X102406401Y-110792627D01*
X102400000Y-110852155D01*
X102400000Y-110900000D01*
X102818906Y-110900000D01*
X102829722Y-110903176D01*
X102840931Y-110901972D01*
X102862646Y-110912843D01*
X102885945Y-110919685D01*
X102893326Y-110928203D01*
X102903408Y-110933251D01*
X102915799Y-110954138D01*
X102931700Y-110972489D01*
X102933304Y-110983646D01*
X102939056Y-110993342D01*
X102938187Y-111017610D01*
X102941644Y-111041647D01*
X102936961Y-111051901D01*
X102936558Y-111063167D01*
X102922706Y-111083113D01*
X102912619Y-111105203D01*
X102902102Y-111112785D01*
X102896706Y-111120557D01*
X102866351Y-111138564D01*
X102862729Y-111140064D01*
X102815285Y-111149500D01*
X102652130Y-111149500D01*
X102652123Y-111149501D01*
X102592516Y-111155908D01*
X102457671Y-111206202D01*
X102457664Y-111206206D01*
X102342455Y-111292452D01*
X102342452Y-111292455D01*
X102256206Y-111407664D01*
X102256202Y-111407671D01*
X102205910Y-111542513D01*
X102205909Y-111542517D01*
X102199500Y-111602127D01*
X102199500Y-111602134D01*
X102199500Y-111602135D01*
X102199500Y-111997870D01*
X102199501Y-111997876D01*
X102205908Y-112057479D01*
X102207692Y-112065026D01*
X102206229Y-112065371D01*
X102210585Y-112126371D01*
X102206173Y-112141396D01*
X102205908Y-112142517D01*
X102199501Y-112202117D01*
X102199500Y-112202136D01*
X102199500Y-112597870D01*
X102199501Y-112597876D01*
X102205908Y-112657479D01*
X102207692Y-112665026D01*
X102206229Y-112665371D01*
X102210585Y-112726371D01*
X102206173Y-112741396D01*
X102205908Y-112742517D01*
X102199501Y-112802117D01*
X102199500Y-112802136D01*
X102199500Y-113197870D01*
X102199501Y-113197876D01*
X102205908Y-113257479D01*
X102207692Y-113265026D01*
X102206229Y-113265371D01*
X102210585Y-113326371D01*
X102206173Y-113341396D01*
X102205908Y-113342517D01*
X102199501Y-113402117D01*
X102199500Y-113402136D01*
X102199500Y-113797870D01*
X102199501Y-113797876D01*
X102205908Y-113857479D01*
X102207692Y-113865026D01*
X102206229Y-113865371D01*
X102210585Y-113926371D01*
X102206173Y-113941396D01*
X102205908Y-113942517D01*
X102199501Y-114002117D01*
X102199500Y-114002136D01*
X102199500Y-114397870D01*
X102199501Y-114397876D01*
X102205908Y-114457479D01*
X102207692Y-114465026D01*
X102206229Y-114465371D01*
X102210585Y-114526371D01*
X102206173Y-114541396D01*
X102205908Y-114542517D01*
X102199501Y-114602117D01*
X102199500Y-114602136D01*
X102199500Y-114997870D01*
X102199501Y-114997876D01*
X102205908Y-115057479D01*
X102207692Y-115065026D01*
X102206229Y-115065371D01*
X102210585Y-115126371D01*
X102206173Y-115141396D01*
X102205908Y-115142517D01*
X102199501Y-115202117D01*
X102199500Y-115202136D01*
X102199500Y-115597870D01*
X102199501Y-115597876D01*
X102205908Y-115657479D01*
X102207692Y-115665026D01*
X102206229Y-115665371D01*
X102210585Y-115726371D01*
X102206173Y-115741396D01*
X102205908Y-115742517D01*
X102199501Y-115802117D01*
X102199500Y-115802136D01*
X102199500Y-116197870D01*
X102199501Y-116197876D01*
X102205908Y-116257479D01*
X102207692Y-116265026D01*
X102206229Y-116265371D01*
X102210585Y-116326371D01*
X102206173Y-116341396D01*
X102205908Y-116342517D01*
X102199501Y-116402117D01*
X102199500Y-116402127D01*
X102199500Y-116598349D01*
X102199501Y-116734964D01*
X102179817Y-116802003D01*
X102127013Y-116847758D01*
X102075501Y-116858964D01*
X101914815Y-116858964D01*
X101760170Y-116889725D01*
X101760158Y-116889728D01*
X101614487Y-116950066D01*
X101614474Y-116950073D01*
X101483371Y-117037674D01*
X101483367Y-117037677D01*
X101371873Y-117149171D01*
X101371870Y-117149175D01*
X101284269Y-117280278D01*
X101284262Y-117280291D01*
X101223924Y-117425962D01*
X101223921Y-117425972D01*
X101198538Y-117553578D01*
X101166152Y-117615489D01*
X101145812Y-117632488D01*
X101039710Y-117703383D01*
X101039706Y-117703386D01*
X100928212Y-117814880D01*
X100928209Y-117814884D01*
X100840608Y-117945987D01*
X100840601Y-117946000D01*
X100780263Y-118091671D01*
X100780260Y-118091683D01*
X100749499Y-118246326D01*
X100749499Y-118404019D01*
X100768825Y-118501177D01*
X100762598Y-118570768D01*
X100719735Y-118625946D01*
X100716100Y-118628469D01*
X100689714Y-118646100D01*
X100689707Y-118646105D01*
X100578213Y-118757599D01*
X100578210Y-118757603D01*
X100490609Y-118888706D01*
X100490602Y-118888719D01*
X100430264Y-119034390D01*
X100430261Y-119034402D01*
X100399500Y-119189045D01*
X100399500Y-119346738D01*
X100430261Y-119501381D01*
X100430264Y-119501393D01*
X100490602Y-119647064D01*
X100490609Y-119647077D01*
X100578210Y-119778180D01*
X100578213Y-119778184D01*
X100632488Y-119832459D01*
X100665973Y-119893782D01*
X100660989Y-119963474D01*
X100652196Y-119982137D01*
X100641594Y-120000500D01*
X100640423Y-120002529D01*
X100599499Y-120155257D01*
X100599499Y-120155259D01*
X100599499Y-120323360D01*
X100599500Y-120323373D01*
X100599500Y-126520234D01*
X100579815Y-126587273D01*
X100578602Y-126589125D01*
X100490609Y-126720814D01*
X100490602Y-126720827D01*
X100430264Y-126866498D01*
X100430261Y-126866510D01*
X100399500Y-127021153D01*
X100399500Y-127178846D01*
X100430261Y-127333489D01*
X100430264Y-127333501D01*
X100490602Y-127479172D01*
X100490609Y-127479185D01*
X100578210Y-127610288D01*
X100578213Y-127610292D01*
X100689707Y-127721786D01*
X100689711Y-127721789D01*
X100820814Y-127809390D01*
X100820827Y-127809397D01*
X100966498Y-127869735D01*
X100966503Y-127869737D01*
X101121153Y-127900499D01*
X101121156Y-127900500D01*
X101121158Y-127900500D01*
X101278844Y-127900500D01*
X101278845Y-127900499D01*
X101433497Y-127869737D01*
X101579179Y-127809394D01*
X101710289Y-127721789D01*
X101722175Y-127709903D01*
X101803741Y-127628338D01*
X101865064Y-127594853D01*
X101934756Y-127599837D01*
X101979103Y-127628338D01*
X102786053Y-128435288D01*
X102819538Y-128496611D01*
X102814554Y-128566303D01*
X102772682Y-128622236D01*
X102725966Y-128643860D01*
X102612589Y-128669738D01*
X102612580Y-128669741D01*
X102273288Y-128788465D01*
X101949420Y-128944432D01*
X101645045Y-129135684D01*
X101363997Y-129359811D01*
X101109811Y-129613997D01*
X100885684Y-129895045D01*
X100694432Y-130199420D01*
X100538465Y-130523288D01*
X100419741Y-130862580D01*
X100419737Y-130862592D01*
X100339748Y-131213048D01*
X100339746Y-131213064D01*
X100299500Y-131570259D01*
X100299500Y-131929740D01*
X100339746Y-132286935D01*
X100339748Y-132286951D01*
X100419737Y-132637407D01*
X100419741Y-132637419D01*
X100538465Y-132976711D01*
X100694432Y-133300579D01*
X100694434Y-133300582D01*
X100885685Y-133604956D01*
X101109812Y-133886003D01*
X101363997Y-134140188D01*
X101645044Y-134364315D01*
X101811199Y-134468717D01*
X101949420Y-134555567D01*
X102276427Y-134713046D01*
X102275876Y-134714190D01*
X102326241Y-134754760D01*
X102348318Y-134821050D01*
X102331052Y-134888753D01*
X102279924Y-134936373D01*
X102224398Y-134949500D01*
X100174500Y-134949500D01*
X100107461Y-134929815D01*
X100061706Y-134877011D01*
X100050500Y-134825500D01*
X100050500Y-103320259D01*
X100299500Y-103320259D01*
X100299500Y-103679740D01*
X100339746Y-104036935D01*
X100339748Y-104036951D01*
X100419737Y-104387407D01*
X100419741Y-104387419D01*
X100538465Y-104726711D01*
X100694432Y-105050579D01*
X100694434Y-105050582D01*
X100885685Y-105354956D01*
X101109812Y-105636003D01*
X101363997Y-105890188D01*
X101645044Y-106114315D01*
X101949418Y-106305566D01*
X102273292Y-106461536D01*
X102528119Y-106550703D01*
X102612580Y-106580258D01*
X102612592Y-106580262D01*
X102963052Y-106660252D01*
X103320260Y-106700499D01*
X103320261Y-106700500D01*
X103320264Y-106700500D01*
X103679739Y-106700500D01*
X103679739Y-106700499D01*
X104036948Y-106660252D01*
X104387408Y-106580262D01*
X104726708Y-106461536D01*
X105050582Y-106305566D01*
X105354956Y-106114315D01*
X105636003Y-105890188D01*
X105890188Y-105636003D01*
X106114315Y-105354956D01*
X106305566Y-105050582D01*
X106461536Y-104726708D01*
X106580262Y-104387408D01*
X106660252Y-104036948D01*
X106700500Y-103679736D01*
X106700500Y-103320264D01*
X106660252Y-102963052D01*
X106580262Y-102612592D01*
X106562931Y-102563064D01*
X106550703Y-102528119D01*
X106461536Y-102273292D01*
X106305566Y-101949418D01*
X106114315Y-101645044D01*
X105890188Y-101363997D01*
X105636003Y-101109812D01*
X105354956Y-100885685D01*
X105050582Y-100694434D01*
X105050579Y-100694432D01*
X104726711Y-100538465D01*
X104387419Y-100419741D01*
X104387407Y-100419737D01*
X104036951Y-100339748D01*
X104036935Y-100339746D01*
X103679740Y-100299500D01*
X103679736Y-100299500D01*
X103320264Y-100299500D01*
X103320259Y-100299500D01*
X102963064Y-100339746D01*
X102963048Y-100339748D01*
X102612592Y-100419737D01*
X102612580Y-100419741D01*
X102273288Y-100538465D01*
X101949420Y-100694432D01*
X101645045Y-100885684D01*
X101363997Y-101109811D01*
X101109811Y-101363997D01*
X100885684Y-101645045D01*
X100694432Y-101949420D01*
X100538465Y-102273288D01*
X100419741Y-102612580D01*
X100419737Y-102612592D01*
X100339748Y-102963048D01*
X100339746Y-102963064D01*
X100299500Y-103320259D01*
X100050500Y-103320259D01*
X100050500Y-100174500D01*
X100070185Y-100107461D01*
X100122989Y-100061706D01*
X100174500Y-100050500D01*
X159607559Y-100050500D01*
X165120992Y-100073593D01*
G37*
%TD.AperFunction*%
%TA.AperFunction,Conductor*%
G36*
X103492539Y-123919685D02*
G01*
X103538294Y-123972489D01*
X103549500Y-124024000D01*
X103549500Y-124132665D01*
X103532887Y-124194665D01*
X103490424Y-124268211D01*
X103490423Y-124268215D01*
X103449499Y-124420943D01*
X103449499Y-124420945D01*
X103449499Y-124579054D01*
X103449498Y-124579054D01*
X103449499Y-124579057D01*
X103490423Y-124731785D01*
X103490423Y-124731786D01*
X103492527Y-124739635D01*
X103491039Y-124740033D01*
X103492120Y-124750089D01*
X103499072Y-124768093D01*
X103499497Y-124778356D01*
X103499497Y-125284353D01*
X103499500Y-125284398D01*
X103499500Y-126213330D01*
X103499499Y-126213348D01*
X103499499Y-126379054D01*
X103499498Y-126379054D01*
X103540423Y-126531785D01*
X103561746Y-126568718D01*
X103562731Y-126570423D01*
X103573529Y-126589125D01*
X103607314Y-126647644D01*
X103623785Y-126715544D01*
X103600933Y-126781571D01*
X103546011Y-126824761D01*
X103476458Y-126831402D01*
X103414355Y-126799385D01*
X103412245Y-126797324D01*
X103136819Y-126521898D01*
X103103334Y-126460575D01*
X103100500Y-126434217D01*
X103100500Y-124724000D01*
X103108951Y-124695217D01*
X103114994Y-124665824D01*
X103118694Y-124662038D01*
X103120185Y-124656961D01*
X103141153Y-124638791D01*
X103138681Y-124636319D01*
X103175000Y-124600000D01*
X103175000Y-124024000D01*
X103194685Y-123956961D01*
X103247489Y-123911206D01*
X103299000Y-123900000D01*
X103425500Y-123900000D01*
X103492539Y-123919685D01*
G37*
%TD.AperFunction*%
%TD*%
M02*
