%TF.GenerationSoftware,KiCad,Pcbnew,10.0.1*%
%TF.CreationDate,2026-05-20T18:33:21-05:00*%
%TF.ProjectId,LCD_FFC_FPC_to_DIP_Breakout,4c43445f-4646-4435-9f46-50435f746f5f,rev?*%
%TF.SameCoordinates,Original*%
%TF.FileFunction,Legend,Top*%
%TF.FilePolarity,Positive*%
%FSLAX46Y46*%
G04 Gerber Fmt 4.6, Leading zero omitted, Abs format (unit mm)*
G04 Created by KiCad (PCBNEW 10.0.1) date 2026-05-20 18:33:21*
%MOMM*%
%LPD*%
G01*
G04 APERTURE LIST*
%ADD10C,0.150000*%
%ADD11C,0.115000*%
%ADD12C,0.120000*%
%ADD13C,0.200000*%
G04 APERTURE END LIST*
D10*
X117612969Y-123594295D02*
X118108207Y-123594295D01*
X118108207Y-123594295D02*
X117841541Y-123899057D01*
X117841541Y-123899057D02*
X117955826Y-123899057D01*
X117955826Y-123899057D02*
X118032017Y-123937152D01*
X118032017Y-123937152D02*
X118070112Y-123975247D01*
X118070112Y-123975247D02*
X118108207Y-124051438D01*
X118108207Y-124051438D02*
X118108207Y-124241914D01*
X118108207Y-124241914D02*
X118070112Y-124318104D01*
X118070112Y-124318104D02*
X118032017Y-124356200D01*
X118032017Y-124356200D02*
X117955826Y-124394295D01*
X117955826Y-124394295D02*
X117727255Y-124394295D01*
X117727255Y-124394295D02*
X117651064Y-124356200D01*
X117651064Y-124356200D02*
X117612969Y-124318104D01*
X115051064Y-111290485D02*
X115089160Y-111252390D01*
X115089160Y-111252390D02*
X115165350Y-111214295D01*
X115165350Y-111214295D02*
X115355826Y-111214295D01*
X115355826Y-111214295D02*
X115432017Y-111252390D01*
X115432017Y-111252390D02*
X115470112Y-111290485D01*
X115470112Y-111290485D02*
X115508207Y-111366676D01*
X115508207Y-111366676D02*
X115508207Y-111442866D01*
X115508207Y-111442866D02*
X115470112Y-111557152D01*
X115470112Y-111557152D02*
X115012969Y-112014295D01*
X115012969Y-112014295D02*
X115508207Y-112014295D01*
X135508207Y-124394295D02*
X135051064Y-124394295D01*
X135279636Y-124394295D02*
X135279636Y-123594295D01*
X135279636Y-123594295D02*
X135203445Y-123708580D01*
X135203445Y-123708580D02*
X135127255Y-123784771D01*
X135127255Y-123784771D02*
X135051064Y-123822866D01*
X135774874Y-123594295D02*
X136308208Y-123594295D01*
X136308208Y-123594295D02*
X135965350Y-124394295D01*
X120532017Y-111214295D02*
X120379636Y-111214295D01*
X120379636Y-111214295D02*
X120303445Y-111252390D01*
X120303445Y-111252390D02*
X120265350Y-111290485D01*
X120265350Y-111290485D02*
X120189160Y-111404771D01*
X120189160Y-111404771D02*
X120151064Y-111557152D01*
X120151064Y-111557152D02*
X120151064Y-111861914D01*
X120151064Y-111861914D02*
X120189160Y-111938104D01*
X120189160Y-111938104D02*
X120227255Y-111976200D01*
X120227255Y-111976200D02*
X120303445Y-112014295D01*
X120303445Y-112014295D02*
X120455826Y-112014295D01*
X120455826Y-112014295D02*
X120532017Y-111976200D01*
X120532017Y-111976200D02*
X120570112Y-111938104D01*
X120570112Y-111938104D02*
X120608207Y-111861914D01*
X120608207Y-111861914D02*
X120608207Y-111671438D01*
X120608207Y-111671438D02*
X120570112Y-111595247D01*
X120570112Y-111595247D02*
X120532017Y-111557152D01*
X120532017Y-111557152D02*
X120455826Y-111519057D01*
X120455826Y-111519057D02*
X120303445Y-111519057D01*
X120303445Y-111519057D02*
X120227255Y-111557152D01*
X120227255Y-111557152D02*
X120189160Y-111595247D01*
X120189160Y-111595247D02*
X120151064Y-111671438D01*
X122903445Y-111557152D02*
X122827255Y-111519057D01*
X122827255Y-111519057D02*
X122789160Y-111480961D01*
X122789160Y-111480961D02*
X122751064Y-111404771D01*
X122751064Y-111404771D02*
X122751064Y-111366676D01*
X122751064Y-111366676D02*
X122789160Y-111290485D01*
X122789160Y-111290485D02*
X122827255Y-111252390D01*
X122827255Y-111252390D02*
X122903445Y-111214295D01*
X122903445Y-111214295D02*
X123055826Y-111214295D01*
X123055826Y-111214295D02*
X123132017Y-111252390D01*
X123132017Y-111252390D02*
X123170112Y-111290485D01*
X123170112Y-111290485D02*
X123208207Y-111366676D01*
X123208207Y-111366676D02*
X123208207Y-111404771D01*
X123208207Y-111404771D02*
X123170112Y-111480961D01*
X123170112Y-111480961D02*
X123132017Y-111519057D01*
X123132017Y-111519057D02*
X123055826Y-111557152D01*
X123055826Y-111557152D02*
X122903445Y-111557152D01*
X122903445Y-111557152D02*
X122827255Y-111595247D01*
X122827255Y-111595247D02*
X122789160Y-111633342D01*
X122789160Y-111633342D02*
X122751064Y-111709533D01*
X122751064Y-111709533D02*
X122751064Y-111861914D01*
X122751064Y-111861914D02*
X122789160Y-111938104D01*
X122789160Y-111938104D02*
X122827255Y-111976200D01*
X122827255Y-111976200D02*
X122903445Y-112014295D01*
X122903445Y-112014295D02*
X123055826Y-112014295D01*
X123055826Y-112014295D02*
X123132017Y-111976200D01*
X123132017Y-111976200D02*
X123170112Y-111938104D01*
X123170112Y-111938104D02*
X123208207Y-111861914D01*
X123208207Y-111861914D02*
X123208207Y-111709533D01*
X123208207Y-111709533D02*
X123170112Y-111633342D01*
X123170112Y-111633342D02*
X123132017Y-111595247D01*
X123132017Y-111595247D02*
X123055826Y-111557152D01*
X122712969Y-123594295D02*
X123246303Y-123594295D01*
X123246303Y-123594295D02*
X122903445Y-124394295D01*
X130408207Y-112014295D02*
X129951064Y-112014295D01*
X130179636Y-112014295D02*
X130179636Y-111214295D01*
X130179636Y-111214295D02*
X130103445Y-111328580D01*
X130103445Y-111328580D02*
X130027255Y-111404771D01*
X130027255Y-111404771D02*
X129951064Y-111442866D01*
X131093922Y-111480961D02*
X131093922Y-112014295D01*
X130903446Y-111176200D02*
X130712969Y-111747628D01*
X130712969Y-111747628D02*
X131208208Y-111747628D01*
X132908207Y-112014295D02*
X132451064Y-112014295D01*
X132679636Y-112014295D02*
X132679636Y-111214295D01*
X132679636Y-111214295D02*
X132603445Y-111328580D01*
X132603445Y-111328580D02*
X132527255Y-111404771D01*
X132527255Y-111404771D02*
X132451064Y-111442866D01*
X133593922Y-111214295D02*
X133441541Y-111214295D01*
X133441541Y-111214295D02*
X133365350Y-111252390D01*
X133365350Y-111252390D02*
X133327255Y-111290485D01*
X133327255Y-111290485D02*
X133251065Y-111404771D01*
X133251065Y-111404771D02*
X133212969Y-111557152D01*
X133212969Y-111557152D02*
X133212969Y-111861914D01*
X133212969Y-111861914D02*
X133251065Y-111938104D01*
X133251065Y-111938104D02*
X133289160Y-111976200D01*
X133289160Y-111976200D02*
X133365350Y-112014295D01*
X133365350Y-112014295D02*
X133517731Y-112014295D01*
X133517731Y-112014295D02*
X133593922Y-111976200D01*
X133593922Y-111976200D02*
X133632017Y-111938104D01*
X133632017Y-111938104D02*
X133670112Y-111861914D01*
X133670112Y-111861914D02*
X133670112Y-111671438D01*
X133670112Y-111671438D02*
X133632017Y-111595247D01*
X133632017Y-111595247D02*
X133593922Y-111557152D01*
X133593922Y-111557152D02*
X133517731Y-111519057D01*
X133517731Y-111519057D02*
X133365350Y-111519057D01*
X133365350Y-111519057D02*
X133289160Y-111557152D01*
X133289160Y-111557152D02*
X133251065Y-111595247D01*
X133251065Y-111595247D02*
X133212969Y-111671438D01*
X133008207Y-124394295D02*
X132551064Y-124394295D01*
X132779636Y-124394295D02*
X132779636Y-123594295D01*
X132779636Y-123594295D02*
X132703445Y-123708580D01*
X132703445Y-123708580D02*
X132627255Y-123784771D01*
X132627255Y-123784771D02*
X132551064Y-123822866D01*
X133732017Y-123594295D02*
X133351065Y-123594295D01*
X133351065Y-123594295D02*
X133312969Y-123975247D01*
X133312969Y-123975247D02*
X133351065Y-123937152D01*
X133351065Y-123937152D02*
X133427255Y-123899057D01*
X133427255Y-123899057D02*
X133617731Y-123899057D01*
X133617731Y-123899057D02*
X133693922Y-123937152D01*
X133693922Y-123937152D02*
X133732017Y-123975247D01*
X133732017Y-123975247D02*
X133770112Y-124051438D01*
X133770112Y-124051438D02*
X133770112Y-124241914D01*
X133770112Y-124241914D02*
X133732017Y-124318104D01*
X133732017Y-124318104D02*
X133693922Y-124356200D01*
X133693922Y-124356200D02*
X133617731Y-124394295D01*
X133617731Y-124394295D02*
X133427255Y-124394295D01*
X133427255Y-124394295D02*
X133351065Y-124356200D01*
X133351065Y-124356200D02*
X133312969Y-124318104D01*
X115608207Y-124394295D02*
X115151064Y-124394295D01*
X115379636Y-124394295D02*
X115379636Y-123594295D01*
X115379636Y-123594295D02*
X115303445Y-123708580D01*
X115303445Y-123708580D02*
X115227255Y-123784771D01*
X115227255Y-123784771D02*
X115151064Y-123822866D01*
X118032017Y-111480961D02*
X118032017Y-112014295D01*
X117841541Y-111176200D02*
X117651064Y-111747628D01*
X117651064Y-111747628D02*
X118146303Y-111747628D01*
X125308207Y-112014295D02*
X124851064Y-112014295D01*
X125079636Y-112014295D02*
X125079636Y-111214295D01*
X125079636Y-111214295D02*
X125003445Y-111328580D01*
X125003445Y-111328580D02*
X124927255Y-111404771D01*
X124927255Y-111404771D02*
X124851064Y-111442866D01*
X125803446Y-111214295D02*
X125879636Y-111214295D01*
X125879636Y-111214295D02*
X125955827Y-111252390D01*
X125955827Y-111252390D02*
X125993922Y-111290485D01*
X125993922Y-111290485D02*
X126032017Y-111366676D01*
X126032017Y-111366676D02*
X126070112Y-111519057D01*
X126070112Y-111519057D02*
X126070112Y-111709533D01*
X126070112Y-111709533D02*
X126032017Y-111861914D01*
X126032017Y-111861914D02*
X125993922Y-111938104D01*
X125993922Y-111938104D02*
X125955827Y-111976200D01*
X125955827Y-111976200D02*
X125879636Y-112014295D01*
X125879636Y-112014295D02*
X125803446Y-112014295D01*
X125803446Y-112014295D02*
X125727255Y-111976200D01*
X125727255Y-111976200D02*
X125689160Y-111938104D01*
X125689160Y-111938104D02*
X125651065Y-111861914D01*
X125651065Y-111861914D02*
X125612969Y-111709533D01*
X125612969Y-111709533D02*
X125612969Y-111519057D01*
X125612969Y-111519057D02*
X125651065Y-111366676D01*
X125651065Y-111366676D02*
X125689160Y-111290485D01*
X125689160Y-111290485D02*
X125727255Y-111252390D01*
X125727255Y-111252390D02*
X125803446Y-111214295D01*
X125427255Y-124394295D02*
X125579636Y-124394295D01*
X125579636Y-124394295D02*
X125655826Y-124356200D01*
X125655826Y-124356200D02*
X125693922Y-124318104D01*
X125693922Y-124318104D02*
X125770112Y-124203819D01*
X125770112Y-124203819D02*
X125808207Y-124051438D01*
X125808207Y-124051438D02*
X125808207Y-123746676D01*
X125808207Y-123746676D02*
X125770112Y-123670485D01*
X125770112Y-123670485D02*
X125732017Y-123632390D01*
X125732017Y-123632390D02*
X125655826Y-123594295D01*
X125655826Y-123594295D02*
X125503445Y-123594295D01*
X125503445Y-123594295D02*
X125427255Y-123632390D01*
X125427255Y-123632390D02*
X125389160Y-123670485D01*
X125389160Y-123670485D02*
X125351064Y-123746676D01*
X125351064Y-123746676D02*
X125351064Y-123937152D01*
X125351064Y-123937152D02*
X125389160Y-124013342D01*
X125389160Y-124013342D02*
X125427255Y-124051438D01*
X125427255Y-124051438D02*
X125503445Y-124089533D01*
X125503445Y-124089533D02*
X125655826Y-124089533D01*
X125655826Y-124089533D02*
X125732017Y-124051438D01*
X125732017Y-124051438D02*
X125770112Y-124013342D01*
X125770112Y-124013342D02*
X125808207Y-123937152D01*
X130508207Y-124394295D02*
X130051064Y-124394295D01*
X130279636Y-124394295D02*
X130279636Y-123594295D01*
X130279636Y-123594295D02*
X130203445Y-123708580D01*
X130203445Y-123708580D02*
X130127255Y-123784771D01*
X130127255Y-123784771D02*
X130051064Y-123822866D01*
X130774874Y-123594295D02*
X131270112Y-123594295D01*
X131270112Y-123594295D02*
X131003446Y-123899057D01*
X131003446Y-123899057D02*
X131117731Y-123899057D01*
X131117731Y-123899057D02*
X131193922Y-123937152D01*
X131193922Y-123937152D02*
X131232017Y-123975247D01*
X131232017Y-123975247D02*
X131270112Y-124051438D01*
X131270112Y-124051438D02*
X131270112Y-124241914D01*
X131270112Y-124241914D02*
X131232017Y-124318104D01*
X131232017Y-124318104D02*
X131193922Y-124356200D01*
X131193922Y-124356200D02*
X131117731Y-124394295D01*
X131117731Y-124394295D02*
X130889160Y-124394295D01*
X130889160Y-124394295D02*
X130812969Y-124356200D01*
X130812969Y-124356200D02*
X130774874Y-124318104D01*
X135508207Y-112014295D02*
X135051064Y-112014295D01*
X135279636Y-112014295D02*
X135279636Y-111214295D01*
X135279636Y-111214295D02*
X135203445Y-111328580D01*
X135203445Y-111328580D02*
X135127255Y-111404771D01*
X135127255Y-111404771D02*
X135051064Y-111442866D01*
X135965350Y-111557152D02*
X135889160Y-111519057D01*
X135889160Y-111519057D02*
X135851065Y-111480961D01*
X135851065Y-111480961D02*
X135812969Y-111404771D01*
X135812969Y-111404771D02*
X135812969Y-111366676D01*
X135812969Y-111366676D02*
X135851065Y-111290485D01*
X135851065Y-111290485D02*
X135889160Y-111252390D01*
X135889160Y-111252390D02*
X135965350Y-111214295D01*
X135965350Y-111214295D02*
X136117731Y-111214295D01*
X136117731Y-111214295D02*
X136193922Y-111252390D01*
X136193922Y-111252390D02*
X136232017Y-111290485D01*
X136232017Y-111290485D02*
X136270112Y-111366676D01*
X136270112Y-111366676D02*
X136270112Y-111404771D01*
X136270112Y-111404771D02*
X136232017Y-111480961D01*
X136232017Y-111480961D02*
X136193922Y-111519057D01*
X136193922Y-111519057D02*
X136117731Y-111557152D01*
X136117731Y-111557152D02*
X135965350Y-111557152D01*
X135965350Y-111557152D02*
X135889160Y-111595247D01*
X135889160Y-111595247D02*
X135851065Y-111633342D01*
X135851065Y-111633342D02*
X135812969Y-111709533D01*
X135812969Y-111709533D02*
X135812969Y-111861914D01*
X135812969Y-111861914D02*
X135851065Y-111938104D01*
X135851065Y-111938104D02*
X135889160Y-111976200D01*
X135889160Y-111976200D02*
X135965350Y-112014295D01*
X135965350Y-112014295D02*
X136117731Y-112014295D01*
X136117731Y-112014295D02*
X136193922Y-111976200D01*
X136193922Y-111976200D02*
X136232017Y-111938104D01*
X136232017Y-111938104D02*
X136270112Y-111861914D01*
X136270112Y-111861914D02*
X136270112Y-111709533D01*
X136270112Y-111709533D02*
X136232017Y-111633342D01*
X136232017Y-111633342D02*
X136193922Y-111595247D01*
X136193922Y-111595247D02*
X136117731Y-111557152D01*
X137551064Y-111290485D02*
X137589160Y-111252390D01*
X137589160Y-111252390D02*
X137665350Y-111214295D01*
X137665350Y-111214295D02*
X137855826Y-111214295D01*
X137855826Y-111214295D02*
X137932017Y-111252390D01*
X137932017Y-111252390D02*
X137970112Y-111290485D01*
X137970112Y-111290485D02*
X138008207Y-111366676D01*
X138008207Y-111366676D02*
X138008207Y-111442866D01*
X138008207Y-111442866D02*
X137970112Y-111557152D01*
X137970112Y-111557152D02*
X137512969Y-112014295D01*
X137512969Y-112014295D02*
X138008207Y-112014295D01*
X138503446Y-111214295D02*
X138579636Y-111214295D01*
X138579636Y-111214295D02*
X138655827Y-111252390D01*
X138655827Y-111252390D02*
X138693922Y-111290485D01*
X138693922Y-111290485D02*
X138732017Y-111366676D01*
X138732017Y-111366676D02*
X138770112Y-111519057D01*
X138770112Y-111519057D02*
X138770112Y-111709533D01*
X138770112Y-111709533D02*
X138732017Y-111861914D01*
X138732017Y-111861914D02*
X138693922Y-111938104D01*
X138693922Y-111938104D02*
X138655827Y-111976200D01*
X138655827Y-111976200D02*
X138579636Y-112014295D01*
X138579636Y-112014295D02*
X138503446Y-112014295D01*
X138503446Y-112014295D02*
X138427255Y-111976200D01*
X138427255Y-111976200D02*
X138389160Y-111938104D01*
X138389160Y-111938104D02*
X138351065Y-111861914D01*
X138351065Y-111861914D02*
X138312969Y-111709533D01*
X138312969Y-111709533D02*
X138312969Y-111519057D01*
X138312969Y-111519057D02*
X138351065Y-111366676D01*
X138351065Y-111366676D02*
X138389160Y-111290485D01*
X138389160Y-111290485D02*
X138427255Y-111252390D01*
X138427255Y-111252390D02*
X138503446Y-111214295D01*
X120670112Y-123594295D02*
X120289160Y-123594295D01*
X120289160Y-123594295D02*
X120251064Y-123975247D01*
X120251064Y-123975247D02*
X120289160Y-123937152D01*
X120289160Y-123937152D02*
X120365350Y-123899057D01*
X120365350Y-123899057D02*
X120555826Y-123899057D01*
X120555826Y-123899057D02*
X120632017Y-123937152D01*
X120632017Y-123937152D02*
X120670112Y-123975247D01*
X120670112Y-123975247D02*
X120708207Y-124051438D01*
X120708207Y-124051438D02*
X120708207Y-124241914D01*
X120708207Y-124241914D02*
X120670112Y-124318104D01*
X120670112Y-124318104D02*
X120632017Y-124356200D01*
X120632017Y-124356200D02*
X120555826Y-124394295D01*
X120555826Y-124394295D02*
X120365350Y-124394295D01*
X120365350Y-124394295D02*
X120289160Y-124356200D01*
X120289160Y-124356200D02*
X120251064Y-124318104D01*
X127908207Y-112014295D02*
X127451064Y-112014295D01*
X127679636Y-112014295D02*
X127679636Y-111214295D01*
X127679636Y-111214295D02*
X127603445Y-111328580D01*
X127603445Y-111328580D02*
X127527255Y-111404771D01*
X127527255Y-111404771D02*
X127451064Y-111442866D01*
X128212969Y-111290485D02*
X128251065Y-111252390D01*
X128251065Y-111252390D02*
X128327255Y-111214295D01*
X128327255Y-111214295D02*
X128517731Y-111214295D01*
X128517731Y-111214295D02*
X128593922Y-111252390D01*
X128593922Y-111252390D02*
X128632017Y-111290485D01*
X128632017Y-111290485D02*
X128670112Y-111366676D01*
X128670112Y-111366676D02*
X128670112Y-111442866D01*
X128670112Y-111442866D02*
X128632017Y-111557152D01*
X128632017Y-111557152D02*
X128174874Y-112014295D01*
X128174874Y-112014295D02*
X128670112Y-112014295D01*
X128008207Y-124394295D02*
X127551064Y-124394295D01*
X127779636Y-124394295D02*
X127779636Y-123594295D01*
X127779636Y-123594295D02*
X127703445Y-123708580D01*
X127703445Y-123708580D02*
X127627255Y-123784771D01*
X127627255Y-123784771D02*
X127551064Y-123822866D01*
X128770112Y-124394295D02*
X128312969Y-124394295D01*
X128541541Y-124394295D02*
X128541541Y-123594295D01*
X128541541Y-123594295D02*
X128465350Y-123708580D01*
X128465350Y-123708580D02*
X128389160Y-123784771D01*
X128389160Y-123784771D02*
X128312969Y-123822866D01*
X140151064Y-111290485D02*
X140189160Y-111252390D01*
X140189160Y-111252390D02*
X140265350Y-111214295D01*
X140265350Y-111214295D02*
X140455826Y-111214295D01*
X140455826Y-111214295D02*
X140532017Y-111252390D01*
X140532017Y-111252390D02*
X140570112Y-111290485D01*
X140570112Y-111290485D02*
X140608207Y-111366676D01*
X140608207Y-111366676D02*
X140608207Y-111442866D01*
X140608207Y-111442866D02*
X140570112Y-111557152D01*
X140570112Y-111557152D02*
X140112969Y-112014295D01*
X140112969Y-112014295D02*
X140608207Y-112014295D01*
X140912969Y-111290485D02*
X140951065Y-111252390D01*
X140951065Y-111252390D02*
X141027255Y-111214295D01*
X141027255Y-111214295D02*
X141217731Y-111214295D01*
X141217731Y-111214295D02*
X141293922Y-111252390D01*
X141293922Y-111252390D02*
X141332017Y-111290485D01*
X141332017Y-111290485D02*
X141370112Y-111366676D01*
X141370112Y-111366676D02*
X141370112Y-111442866D01*
X141370112Y-111442866D02*
X141332017Y-111557152D01*
X141332017Y-111557152D02*
X140874874Y-112014295D01*
X140874874Y-112014295D02*
X141370112Y-112014295D01*
X142651064Y-111290485D02*
X142689160Y-111252390D01*
X142689160Y-111252390D02*
X142765350Y-111214295D01*
X142765350Y-111214295D02*
X142955826Y-111214295D01*
X142955826Y-111214295D02*
X143032017Y-111252390D01*
X143032017Y-111252390D02*
X143070112Y-111290485D01*
X143070112Y-111290485D02*
X143108207Y-111366676D01*
X143108207Y-111366676D02*
X143108207Y-111442866D01*
X143108207Y-111442866D02*
X143070112Y-111557152D01*
X143070112Y-111557152D02*
X142612969Y-112014295D01*
X142612969Y-112014295D02*
X143108207Y-112014295D01*
X143793922Y-111480961D02*
X143793922Y-112014295D01*
X143603446Y-111176200D02*
X143412969Y-111747628D01*
X143412969Y-111747628D02*
X143908208Y-111747628D01*
X138108207Y-124394295D02*
X137651064Y-124394295D01*
X137879636Y-124394295D02*
X137879636Y-123594295D01*
X137879636Y-123594295D02*
X137803445Y-123708580D01*
X137803445Y-123708580D02*
X137727255Y-123784771D01*
X137727255Y-123784771D02*
X137651064Y-123822866D01*
X138489160Y-124394295D02*
X138641541Y-124394295D01*
X138641541Y-124394295D02*
X138717731Y-124356200D01*
X138717731Y-124356200D02*
X138755827Y-124318104D01*
X138755827Y-124318104D02*
X138832017Y-124203819D01*
X138832017Y-124203819D02*
X138870112Y-124051438D01*
X138870112Y-124051438D02*
X138870112Y-123746676D01*
X138870112Y-123746676D02*
X138832017Y-123670485D01*
X138832017Y-123670485D02*
X138793922Y-123632390D01*
X138793922Y-123632390D02*
X138717731Y-123594295D01*
X138717731Y-123594295D02*
X138565350Y-123594295D01*
X138565350Y-123594295D02*
X138489160Y-123632390D01*
X138489160Y-123632390D02*
X138451065Y-123670485D01*
X138451065Y-123670485D02*
X138412969Y-123746676D01*
X138412969Y-123746676D02*
X138412969Y-123937152D01*
X138412969Y-123937152D02*
X138451065Y-124013342D01*
X138451065Y-124013342D02*
X138489160Y-124051438D01*
X138489160Y-124051438D02*
X138565350Y-124089533D01*
X138565350Y-124089533D02*
X138717731Y-124089533D01*
X138717731Y-124089533D02*
X138793922Y-124051438D01*
X138793922Y-124051438D02*
X138832017Y-124013342D01*
X138832017Y-124013342D02*
X138870112Y-123937152D01*
X140151064Y-123670485D02*
X140189160Y-123632390D01*
X140189160Y-123632390D02*
X140265350Y-123594295D01*
X140265350Y-123594295D02*
X140455826Y-123594295D01*
X140455826Y-123594295D02*
X140532017Y-123632390D01*
X140532017Y-123632390D02*
X140570112Y-123670485D01*
X140570112Y-123670485D02*
X140608207Y-123746676D01*
X140608207Y-123746676D02*
X140608207Y-123822866D01*
X140608207Y-123822866D02*
X140570112Y-123937152D01*
X140570112Y-123937152D02*
X140112969Y-124394295D01*
X140112969Y-124394295D02*
X140608207Y-124394295D01*
X141370112Y-124394295D02*
X140912969Y-124394295D01*
X141141541Y-124394295D02*
X141141541Y-123594295D01*
X141141541Y-123594295D02*
X141065350Y-123708580D01*
X141065350Y-123708580D02*
X140989160Y-123784771D01*
X140989160Y-123784771D02*
X140912969Y-123822866D01*
X150351064Y-123670485D02*
X150389160Y-123632390D01*
X150389160Y-123632390D02*
X150465350Y-123594295D01*
X150465350Y-123594295D02*
X150655826Y-123594295D01*
X150655826Y-123594295D02*
X150732017Y-123632390D01*
X150732017Y-123632390D02*
X150770112Y-123670485D01*
X150770112Y-123670485D02*
X150808207Y-123746676D01*
X150808207Y-123746676D02*
X150808207Y-123822866D01*
X150808207Y-123822866D02*
X150770112Y-123937152D01*
X150770112Y-123937152D02*
X150312969Y-124394295D01*
X150312969Y-124394295D02*
X150808207Y-124394295D01*
X151189160Y-124394295D02*
X151341541Y-124394295D01*
X151341541Y-124394295D02*
X151417731Y-124356200D01*
X151417731Y-124356200D02*
X151455827Y-124318104D01*
X151455827Y-124318104D02*
X151532017Y-124203819D01*
X151532017Y-124203819D02*
X151570112Y-124051438D01*
X151570112Y-124051438D02*
X151570112Y-123746676D01*
X151570112Y-123746676D02*
X151532017Y-123670485D01*
X151532017Y-123670485D02*
X151493922Y-123632390D01*
X151493922Y-123632390D02*
X151417731Y-123594295D01*
X151417731Y-123594295D02*
X151265350Y-123594295D01*
X151265350Y-123594295D02*
X151189160Y-123632390D01*
X151189160Y-123632390D02*
X151151065Y-123670485D01*
X151151065Y-123670485D02*
X151112969Y-123746676D01*
X151112969Y-123746676D02*
X151112969Y-123937152D01*
X151112969Y-123937152D02*
X151151065Y-124013342D01*
X151151065Y-124013342D02*
X151189160Y-124051438D01*
X151189160Y-124051438D02*
X151265350Y-124089533D01*
X151265350Y-124089533D02*
X151417731Y-124089533D01*
X151417731Y-124089533D02*
X151493922Y-124051438D01*
X151493922Y-124051438D02*
X151532017Y-124013342D01*
X151532017Y-124013342D02*
X151570112Y-123937152D01*
X163432017Y-111480961D02*
X163432017Y-112014295D01*
X163241541Y-111176200D02*
X163051064Y-111747628D01*
X163051064Y-111747628D02*
X163546303Y-111747628D01*
X164003446Y-111214295D02*
X164079636Y-111214295D01*
X164079636Y-111214295D02*
X164155827Y-111252390D01*
X164155827Y-111252390D02*
X164193922Y-111290485D01*
X164193922Y-111290485D02*
X164232017Y-111366676D01*
X164232017Y-111366676D02*
X164270112Y-111519057D01*
X164270112Y-111519057D02*
X164270112Y-111709533D01*
X164270112Y-111709533D02*
X164232017Y-111861914D01*
X164232017Y-111861914D02*
X164193922Y-111938104D01*
X164193922Y-111938104D02*
X164155827Y-111976200D01*
X164155827Y-111976200D02*
X164079636Y-112014295D01*
X164079636Y-112014295D02*
X164003446Y-112014295D01*
X164003446Y-112014295D02*
X163927255Y-111976200D01*
X163927255Y-111976200D02*
X163889160Y-111938104D01*
X163889160Y-111938104D02*
X163851065Y-111861914D01*
X163851065Y-111861914D02*
X163812969Y-111709533D01*
X163812969Y-111709533D02*
X163812969Y-111519057D01*
X163812969Y-111519057D02*
X163851065Y-111366676D01*
X163851065Y-111366676D02*
X163889160Y-111290485D01*
X163889160Y-111290485D02*
X163927255Y-111252390D01*
X163927255Y-111252390D02*
X164003446Y-111214295D01*
X160512969Y-111214295D02*
X161008207Y-111214295D01*
X161008207Y-111214295D02*
X160741541Y-111519057D01*
X160741541Y-111519057D02*
X160855826Y-111519057D01*
X160855826Y-111519057D02*
X160932017Y-111557152D01*
X160932017Y-111557152D02*
X160970112Y-111595247D01*
X160970112Y-111595247D02*
X161008207Y-111671438D01*
X161008207Y-111671438D02*
X161008207Y-111861914D01*
X161008207Y-111861914D02*
X160970112Y-111938104D01*
X160970112Y-111938104D02*
X160932017Y-111976200D01*
X160932017Y-111976200D02*
X160855826Y-112014295D01*
X160855826Y-112014295D02*
X160627255Y-112014295D01*
X160627255Y-112014295D02*
X160551064Y-111976200D01*
X160551064Y-111976200D02*
X160512969Y-111938104D01*
X161465350Y-111557152D02*
X161389160Y-111519057D01*
X161389160Y-111519057D02*
X161351065Y-111480961D01*
X161351065Y-111480961D02*
X161312969Y-111404771D01*
X161312969Y-111404771D02*
X161312969Y-111366676D01*
X161312969Y-111366676D02*
X161351065Y-111290485D01*
X161351065Y-111290485D02*
X161389160Y-111252390D01*
X161389160Y-111252390D02*
X161465350Y-111214295D01*
X161465350Y-111214295D02*
X161617731Y-111214295D01*
X161617731Y-111214295D02*
X161693922Y-111252390D01*
X161693922Y-111252390D02*
X161732017Y-111290485D01*
X161732017Y-111290485D02*
X161770112Y-111366676D01*
X161770112Y-111366676D02*
X161770112Y-111404771D01*
X161770112Y-111404771D02*
X161732017Y-111480961D01*
X161732017Y-111480961D02*
X161693922Y-111519057D01*
X161693922Y-111519057D02*
X161617731Y-111557152D01*
X161617731Y-111557152D02*
X161465350Y-111557152D01*
X161465350Y-111557152D02*
X161389160Y-111595247D01*
X161389160Y-111595247D02*
X161351065Y-111633342D01*
X161351065Y-111633342D02*
X161312969Y-111709533D01*
X161312969Y-111709533D02*
X161312969Y-111861914D01*
X161312969Y-111861914D02*
X161351065Y-111938104D01*
X161351065Y-111938104D02*
X161389160Y-111976200D01*
X161389160Y-111976200D02*
X161465350Y-112014295D01*
X161465350Y-112014295D02*
X161617731Y-112014295D01*
X161617731Y-112014295D02*
X161693922Y-111976200D01*
X161693922Y-111976200D02*
X161732017Y-111938104D01*
X161732017Y-111938104D02*
X161770112Y-111861914D01*
X161770112Y-111861914D02*
X161770112Y-111709533D01*
X161770112Y-111709533D02*
X161732017Y-111633342D01*
X161732017Y-111633342D02*
X161693922Y-111595247D01*
X161693922Y-111595247D02*
X161617731Y-111557152D01*
X157912969Y-123594295D02*
X158408207Y-123594295D01*
X158408207Y-123594295D02*
X158141541Y-123899057D01*
X158141541Y-123899057D02*
X158255826Y-123899057D01*
X158255826Y-123899057D02*
X158332017Y-123937152D01*
X158332017Y-123937152D02*
X158370112Y-123975247D01*
X158370112Y-123975247D02*
X158408207Y-124051438D01*
X158408207Y-124051438D02*
X158408207Y-124241914D01*
X158408207Y-124241914D02*
X158370112Y-124318104D01*
X158370112Y-124318104D02*
X158332017Y-124356200D01*
X158332017Y-124356200D02*
X158255826Y-124394295D01*
X158255826Y-124394295D02*
X158027255Y-124394295D01*
X158027255Y-124394295D02*
X157951064Y-124356200D01*
X157951064Y-124356200D02*
X157912969Y-124318104D01*
X159132017Y-123594295D02*
X158751065Y-123594295D01*
X158751065Y-123594295D02*
X158712969Y-123975247D01*
X158712969Y-123975247D02*
X158751065Y-123937152D01*
X158751065Y-123937152D02*
X158827255Y-123899057D01*
X158827255Y-123899057D02*
X159017731Y-123899057D01*
X159017731Y-123899057D02*
X159093922Y-123937152D01*
X159093922Y-123937152D02*
X159132017Y-123975247D01*
X159132017Y-123975247D02*
X159170112Y-124051438D01*
X159170112Y-124051438D02*
X159170112Y-124241914D01*
X159170112Y-124241914D02*
X159132017Y-124318104D01*
X159132017Y-124318104D02*
X159093922Y-124356200D01*
X159093922Y-124356200D02*
X159017731Y-124394295D01*
X159017731Y-124394295D02*
X158827255Y-124394295D01*
X158827255Y-124394295D02*
X158751065Y-124356200D01*
X158751065Y-124356200D02*
X158712969Y-124318104D01*
X150212969Y-111214295D02*
X150708207Y-111214295D01*
X150708207Y-111214295D02*
X150441541Y-111519057D01*
X150441541Y-111519057D02*
X150555826Y-111519057D01*
X150555826Y-111519057D02*
X150632017Y-111557152D01*
X150632017Y-111557152D02*
X150670112Y-111595247D01*
X150670112Y-111595247D02*
X150708207Y-111671438D01*
X150708207Y-111671438D02*
X150708207Y-111861914D01*
X150708207Y-111861914D02*
X150670112Y-111938104D01*
X150670112Y-111938104D02*
X150632017Y-111976200D01*
X150632017Y-111976200D02*
X150555826Y-112014295D01*
X150555826Y-112014295D02*
X150327255Y-112014295D01*
X150327255Y-112014295D02*
X150251064Y-111976200D01*
X150251064Y-111976200D02*
X150212969Y-111938104D01*
X151203446Y-111214295D02*
X151279636Y-111214295D01*
X151279636Y-111214295D02*
X151355827Y-111252390D01*
X151355827Y-111252390D02*
X151393922Y-111290485D01*
X151393922Y-111290485D02*
X151432017Y-111366676D01*
X151432017Y-111366676D02*
X151470112Y-111519057D01*
X151470112Y-111519057D02*
X151470112Y-111709533D01*
X151470112Y-111709533D02*
X151432017Y-111861914D01*
X151432017Y-111861914D02*
X151393922Y-111938104D01*
X151393922Y-111938104D02*
X151355827Y-111976200D01*
X151355827Y-111976200D02*
X151279636Y-112014295D01*
X151279636Y-112014295D02*
X151203446Y-112014295D01*
X151203446Y-112014295D02*
X151127255Y-111976200D01*
X151127255Y-111976200D02*
X151089160Y-111938104D01*
X151089160Y-111938104D02*
X151051065Y-111861914D01*
X151051065Y-111861914D02*
X151012969Y-111709533D01*
X151012969Y-111709533D02*
X151012969Y-111519057D01*
X151012969Y-111519057D02*
X151051065Y-111366676D01*
X151051065Y-111366676D02*
X151089160Y-111290485D01*
X151089160Y-111290485D02*
X151127255Y-111252390D01*
X151127255Y-111252390D02*
X151203446Y-111214295D01*
X155412969Y-111214295D02*
X155908207Y-111214295D01*
X155908207Y-111214295D02*
X155641541Y-111519057D01*
X155641541Y-111519057D02*
X155755826Y-111519057D01*
X155755826Y-111519057D02*
X155832017Y-111557152D01*
X155832017Y-111557152D02*
X155870112Y-111595247D01*
X155870112Y-111595247D02*
X155908207Y-111671438D01*
X155908207Y-111671438D02*
X155908207Y-111861914D01*
X155908207Y-111861914D02*
X155870112Y-111938104D01*
X155870112Y-111938104D02*
X155832017Y-111976200D01*
X155832017Y-111976200D02*
X155755826Y-112014295D01*
X155755826Y-112014295D02*
X155527255Y-112014295D01*
X155527255Y-112014295D02*
X155451064Y-111976200D01*
X155451064Y-111976200D02*
X155412969Y-111938104D01*
X156593922Y-111480961D02*
X156593922Y-112014295D01*
X156403446Y-111176200D02*
X156212969Y-111747628D01*
X156212969Y-111747628D02*
X156708208Y-111747628D01*
X152812969Y-111214295D02*
X153308207Y-111214295D01*
X153308207Y-111214295D02*
X153041541Y-111519057D01*
X153041541Y-111519057D02*
X153155826Y-111519057D01*
X153155826Y-111519057D02*
X153232017Y-111557152D01*
X153232017Y-111557152D02*
X153270112Y-111595247D01*
X153270112Y-111595247D02*
X153308207Y-111671438D01*
X153308207Y-111671438D02*
X153308207Y-111861914D01*
X153308207Y-111861914D02*
X153270112Y-111938104D01*
X153270112Y-111938104D02*
X153232017Y-111976200D01*
X153232017Y-111976200D02*
X153155826Y-112014295D01*
X153155826Y-112014295D02*
X152927255Y-112014295D01*
X152927255Y-112014295D02*
X152851064Y-111976200D01*
X152851064Y-111976200D02*
X152812969Y-111938104D01*
X153612969Y-111290485D02*
X153651065Y-111252390D01*
X153651065Y-111252390D02*
X153727255Y-111214295D01*
X153727255Y-111214295D02*
X153917731Y-111214295D01*
X153917731Y-111214295D02*
X153993922Y-111252390D01*
X153993922Y-111252390D02*
X154032017Y-111290485D01*
X154032017Y-111290485D02*
X154070112Y-111366676D01*
X154070112Y-111366676D02*
X154070112Y-111442866D01*
X154070112Y-111442866D02*
X154032017Y-111557152D01*
X154032017Y-111557152D02*
X153574874Y-112014295D01*
X153574874Y-112014295D02*
X154070112Y-112014295D01*
X157812969Y-111214295D02*
X158308207Y-111214295D01*
X158308207Y-111214295D02*
X158041541Y-111519057D01*
X158041541Y-111519057D02*
X158155826Y-111519057D01*
X158155826Y-111519057D02*
X158232017Y-111557152D01*
X158232017Y-111557152D02*
X158270112Y-111595247D01*
X158270112Y-111595247D02*
X158308207Y-111671438D01*
X158308207Y-111671438D02*
X158308207Y-111861914D01*
X158308207Y-111861914D02*
X158270112Y-111938104D01*
X158270112Y-111938104D02*
X158232017Y-111976200D01*
X158232017Y-111976200D02*
X158155826Y-112014295D01*
X158155826Y-112014295D02*
X157927255Y-112014295D01*
X157927255Y-112014295D02*
X157851064Y-111976200D01*
X157851064Y-111976200D02*
X157812969Y-111938104D01*
X158993922Y-111214295D02*
X158841541Y-111214295D01*
X158841541Y-111214295D02*
X158765350Y-111252390D01*
X158765350Y-111252390D02*
X158727255Y-111290485D01*
X158727255Y-111290485D02*
X158651065Y-111404771D01*
X158651065Y-111404771D02*
X158612969Y-111557152D01*
X158612969Y-111557152D02*
X158612969Y-111861914D01*
X158612969Y-111861914D02*
X158651065Y-111938104D01*
X158651065Y-111938104D02*
X158689160Y-111976200D01*
X158689160Y-111976200D02*
X158765350Y-112014295D01*
X158765350Y-112014295D02*
X158917731Y-112014295D01*
X158917731Y-112014295D02*
X158993922Y-111976200D01*
X158993922Y-111976200D02*
X159032017Y-111938104D01*
X159032017Y-111938104D02*
X159070112Y-111861914D01*
X159070112Y-111861914D02*
X159070112Y-111671438D01*
X159070112Y-111671438D02*
X159032017Y-111595247D01*
X159032017Y-111595247D02*
X158993922Y-111557152D01*
X158993922Y-111557152D02*
X158917731Y-111519057D01*
X158917731Y-111519057D02*
X158765350Y-111519057D01*
X158765350Y-111519057D02*
X158689160Y-111557152D01*
X158689160Y-111557152D02*
X158651065Y-111595247D01*
X158651065Y-111595247D02*
X158612969Y-111671438D01*
X147751064Y-111290485D02*
X147789160Y-111252390D01*
X147789160Y-111252390D02*
X147865350Y-111214295D01*
X147865350Y-111214295D02*
X148055826Y-111214295D01*
X148055826Y-111214295D02*
X148132017Y-111252390D01*
X148132017Y-111252390D02*
X148170112Y-111290485D01*
X148170112Y-111290485D02*
X148208207Y-111366676D01*
X148208207Y-111366676D02*
X148208207Y-111442866D01*
X148208207Y-111442866D02*
X148170112Y-111557152D01*
X148170112Y-111557152D02*
X147712969Y-112014295D01*
X147712969Y-112014295D02*
X148208207Y-112014295D01*
X148665350Y-111557152D02*
X148589160Y-111519057D01*
X148589160Y-111519057D02*
X148551065Y-111480961D01*
X148551065Y-111480961D02*
X148512969Y-111404771D01*
X148512969Y-111404771D02*
X148512969Y-111366676D01*
X148512969Y-111366676D02*
X148551065Y-111290485D01*
X148551065Y-111290485D02*
X148589160Y-111252390D01*
X148589160Y-111252390D02*
X148665350Y-111214295D01*
X148665350Y-111214295D02*
X148817731Y-111214295D01*
X148817731Y-111214295D02*
X148893922Y-111252390D01*
X148893922Y-111252390D02*
X148932017Y-111290485D01*
X148932017Y-111290485D02*
X148970112Y-111366676D01*
X148970112Y-111366676D02*
X148970112Y-111404771D01*
X148970112Y-111404771D02*
X148932017Y-111480961D01*
X148932017Y-111480961D02*
X148893922Y-111519057D01*
X148893922Y-111519057D02*
X148817731Y-111557152D01*
X148817731Y-111557152D02*
X148665350Y-111557152D01*
X148665350Y-111557152D02*
X148589160Y-111595247D01*
X148589160Y-111595247D02*
X148551065Y-111633342D01*
X148551065Y-111633342D02*
X148512969Y-111709533D01*
X148512969Y-111709533D02*
X148512969Y-111861914D01*
X148512969Y-111861914D02*
X148551065Y-111938104D01*
X148551065Y-111938104D02*
X148589160Y-111976200D01*
X148589160Y-111976200D02*
X148665350Y-112014295D01*
X148665350Y-112014295D02*
X148817731Y-112014295D01*
X148817731Y-112014295D02*
X148893922Y-111976200D01*
X148893922Y-111976200D02*
X148932017Y-111938104D01*
X148932017Y-111938104D02*
X148970112Y-111861914D01*
X148970112Y-111861914D02*
X148970112Y-111709533D01*
X148970112Y-111709533D02*
X148932017Y-111633342D01*
X148932017Y-111633342D02*
X148893922Y-111595247D01*
X148893922Y-111595247D02*
X148817731Y-111557152D01*
X147851064Y-123670485D02*
X147889160Y-123632390D01*
X147889160Y-123632390D02*
X147965350Y-123594295D01*
X147965350Y-123594295D02*
X148155826Y-123594295D01*
X148155826Y-123594295D02*
X148232017Y-123632390D01*
X148232017Y-123632390D02*
X148270112Y-123670485D01*
X148270112Y-123670485D02*
X148308207Y-123746676D01*
X148308207Y-123746676D02*
X148308207Y-123822866D01*
X148308207Y-123822866D02*
X148270112Y-123937152D01*
X148270112Y-123937152D02*
X147812969Y-124394295D01*
X147812969Y-124394295D02*
X148308207Y-124394295D01*
X148574874Y-123594295D02*
X149108208Y-123594295D01*
X149108208Y-123594295D02*
X148765350Y-124394295D01*
X164289160Y-107194295D02*
X164289160Y-106394295D01*
X164289160Y-106394295D02*
X164555826Y-106965723D01*
X164555826Y-106965723D02*
X164822493Y-106394295D01*
X164822493Y-106394295D02*
X164822493Y-107194295D01*
X165165350Y-106470485D02*
X165203446Y-106432390D01*
X165203446Y-106432390D02*
X165279636Y-106394295D01*
X165279636Y-106394295D02*
X165470112Y-106394295D01*
X165470112Y-106394295D02*
X165546303Y-106432390D01*
X165546303Y-106432390D02*
X165584398Y-106470485D01*
X165584398Y-106470485D02*
X165622493Y-106546676D01*
X165622493Y-106546676D02*
X165622493Y-106622866D01*
X165622493Y-106622866D02*
X165584398Y-106737152D01*
X165584398Y-106737152D02*
X165127255Y-107194295D01*
X165127255Y-107194295D02*
X165622493Y-107194295D01*
X166536779Y-107156200D02*
X166651065Y-107194295D01*
X166651065Y-107194295D02*
X166841541Y-107194295D01*
X166841541Y-107194295D02*
X166917732Y-107156200D01*
X166917732Y-107156200D02*
X166955827Y-107118104D01*
X166955827Y-107118104D02*
X166993922Y-107041914D01*
X166993922Y-107041914D02*
X166993922Y-106965723D01*
X166993922Y-106965723D02*
X166955827Y-106889533D01*
X166955827Y-106889533D02*
X166917732Y-106851438D01*
X166917732Y-106851438D02*
X166841541Y-106813342D01*
X166841541Y-106813342D02*
X166689160Y-106775247D01*
X166689160Y-106775247D02*
X166612970Y-106737152D01*
X166612970Y-106737152D02*
X166574875Y-106699057D01*
X166574875Y-106699057D02*
X166536779Y-106622866D01*
X166536779Y-106622866D02*
X166536779Y-106546676D01*
X166536779Y-106546676D02*
X166574875Y-106470485D01*
X166574875Y-106470485D02*
X166612970Y-106432390D01*
X166612970Y-106432390D02*
X166689160Y-106394295D01*
X166689160Y-106394295D02*
X166879637Y-106394295D01*
X166879637Y-106394295D02*
X166993922Y-106432390D01*
X167679637Y-107156200D02*
X167603446Y-107194295D01*
X167603446Y-107194295D02*
X167451065Y-107194295D01*
X167451065Y-107194295D02*
X167374875Y-107156200D01*
X167374875Y-107156200D02*
X167336780Y-107118104D01*
X167336780Y-107118104D02*
X167298684Y-107041914D01*
X167298684Y-107041914D02*
X167298684Y-106813342D01*
X167298684Y-106813342D02*
X167336780Y-106737152D01*
X167336780Y-106737152D02*
X167374875Y-106699057D01*
X167374875Y-106699057D02*
X167451065Y-106660961D01*
X167451065Y-106660961D02*
X167603446Y-106660961D01*
X167603446Y-106660961D02*
X167679637Y-106699057D01*
X168022494Y-107194295D02*
X168022494Y-106660961D01*
X168022494Y-106813342D02*
X168060589Y-106737152D01*
X168060589Y-106737152D02*
X168098684Y-106699057D01*
X168098684Y-106699057D02*
X168174875Y-106660961D01*
X168174875Y-106660961D02*
X168251065Y-106660961D01*
X168822494Y-107156200D02*
X168746303Y-107194295D01*
X168746303Y-107194295D02*
X168593922Y-107194295D01*
X168593922Y-107194295D02*
X168517732Y-107156200D01*
X168517732Y-107156200D02*
X168479636Y-107080009D01*
X168479636Y-107080009D02*
X168479636Y-106775247D01*
X168479636Y-106775247D02*
X168517732Y-106699057D01*
X168517732Y-106699057D02*
X168593922Y-106660961D01*
X168593922Y-106660961D02*
X168746303Y-106660961D01*
X168746303Y-106660961D02*
X168822494Y-106699057D01*
X168822494Y-106699057D02*
X168860589Y-106775247D01*
X168860589Y-106775247D02*
X168860589Y-106851438D01*
X168860589Y-106851438D02*
X168479636Y-106927628D01*
X169127255Y-106660961D02*
X169279636Y-107194295D01*
X169279636Y-107194295D02*
X169432017Y-106813342D01*
X169432017Y-106813342D02*
X169584398Y-107194295D01*
X169584398Y-107194295D02*
X169736779Y-106660961D01*
X152812969Y-123594295D02*
X153308207Y-123594295D01*
X153308207Y-123594295D02*
X153041541Y-123899057D01*
X153041541Y-123899057D02*
X153155826Y-123899057D01*
X153155826Y-123899057D02*
X153232017Y-123937152D01*
X153232017Y-123937152D02*
X153270112Y-123975247D01*
X153270112Y-123975247D02*
X153308207Y-124051438D01*
X153308207Y-124051438D02*
X153308207Y-124241914D01*
X153308207Y-124241914D02*
X153270112Y-124318104D01*
X153270112Y-124318104D02*
X153232017Y-124356200D01*
X153232017Y-124356200D02*
X153155826Y-124394295D01*
X153155826Y-124394295D02*
X152927255Y-124394295D01*
X152927255Y-124394295D02*
X152851064Y-124356200D01*
X152851064Y-124356200D02*
X152812969Y-124318104D01*
X154070112Y-124394295D02*
X153612969Y-124394295D01*
X153841541Y-124394295D02*
X153841541Y-123594295D01*
X153841541Y-123594295D02*
X153765350Y-123708580D01*
X153765350Y-123708580D02*
X153689160Y-123784771D01*
X153689160Y-123784771D02*
X153612969Y-123822866D01*
X116627255Y-103082057D02*
X117184398Y-103082057D01*
X117184398Y-103082057D02*
X116884398Y-103424914D01*
X116884398Y-103424914D02*
X117012969Y-103424914D01*
X117012969Y-103424914D02*
X117098684Y-103467771D01*
X117098684Y-103467771D02*
X117141541Y-103510628D01*
X117141541Y-103510628D02*
X117184398Y-103596342D01*
X117184398Y-103596342D02*
X117184398Y-103810628D01*
X117184398Y-103810628D02*
X117141541Y-103896342D01*
X117141541Y-103896342D02*
X117098684Y-103939200D01*
X117098684Y-103939200D02*
X117012969Y-103982057D01*
X117012969Y-103982057D02*
X116755826Y-103982057D01*
X116755826Y-103982057D02*
X116670112Y-103939200D01*
X116670112Y-103939200D02*
X116627255Y-103896342D01*
X117612969Y-103982057D02*
X117784398Y-103982057D01*
X117784398Y-103982057D02*
X117870112Y-103939200D01*
X117870112Y-103939200D02*
X117912969Y-103896342D01*
X117912969Y-103896342D02*
X117998684Y-103767771D01*
X117998684Y-103767771D02*
X118041541Y-103596342D01*
X118041541Y-103596342D02*
X118041541Y-103253485D01*
X118041541Y-103253485D02*
X117998684Y-103167771D01*
X117998684Y-103167771D02*
X117955827Y-103124914D01*
X117955827Y-103124914D02*
X117870112Y-103082057D01*
X117870112Y-103082057D02*
X117698684Y-103082057D01*
X117698684Y-103082057D02*
X117612969Y-103124914D01*
X117612969Y-103124914D02*
X117570112Y-103167771D01*
X117570112Y-103167771D02*
X117527255Y-103253485D01*
X117527255Y-103253485D02*
X117527255Y-103467771D01*
X117527255Y-103467771D02*
X117570112Y-103553485D01*
X117570112Y-103553485D02*
X117612969Y-103596342D01*
X117612969Y-103596342D02*
X117698684Y-103639200D01*
X117698684Y-103639200D02*
X117870112Y-103639200D01*
X117870112Y-103639200D02*
X117955827Y-103596342D01*
X117955827Y-103596342D02*
X117998684Y-103553485D01*
X117998684Y-103553485D02*
X118041541Y-103467771D01*
X119112969Y-103382057D02*
X119112969Y-104282057D01*
X119112969Y-103424914D02*
X119198684Y-103382057D01*
X119198684Y-103382057D02*
X119370112Y-103382057D01*
X119370112Y-103382057D02*
X119455826Y-103424914D01*
X119455826Y-103424914D02*
X119498684Y-103467771D01*
X119498684Y-103467771D02*
X119541541Y-103553485D01*
X119541541Y-103553485D02*
X119541541Y-103810628D01*
X119541541Y-103810628D02*
X119498684Y-103896342D01*
X119498684Y-103896342D02*
X119455826Y-103939200D01*
X119455826Y-103939200D02*
X119370112Y-103982057D01*
X119370112Y-103982057D02*
X119198684Y-103982057D01*
X119198684Y-103982057D02*
X119112969Y-103939200D01*
X119927255Y-103982057D02*
X119927255Y-103382057D01*
X119927255Y-103082057D02*
X119884398Y-103124914D01*
X119884398Y-103124914D02*
X119927255Y-103167771D01*
X119927255Y-103167771D02*
X119970112Y-103124914D01*
X119970112Y-103124914D02*
X119927255Y-103082057D01*
X119927255Y-103082057D02*
X119927255Y-103167771D01*
X120355826Y-103382057D02*
X120355826Y-103982057D01*
X120355826Y-103467771D02*
X120398683Y-103424914D01*
X120398683Y-103424914D02*
X120484398Y-103382057D01*
X120484398Y-103382057D02*
X120612969Y-103382057D01*
X120612969Y-103382057D02*
X120698683Y-103424914D01*
X120698683Y-103424914D02*
X120741541Y-103510628D01*
X120741541Y-103510628D02*
X120741541Y-103982057D01*
X122027255Y-103082057D02*
X122112969Y-103082057D01*
X122112969Y-103082057D02*
X122198683Y-103124914D01*
X122198683Y-103124914D02*
X122241541Y-103167771D01*
X122241541Y-103167771D02*
X122284398Y-103253485D01*
X122284398Y-103253485D02*
X122327255Y-103424914D01*
X122327255Y-103424914D02*
X122327255Y-103639200D01*
X122327255Y-103639200D02*
X122284398Y-103810628D01*
X122284398Y-103810628D02*
X122241541Y-103896342D01*
X122241541Y-103896342D02*
X122198683Y-103939200D01*
X122198683Y-103939200D02*
X122112969Y-103982057D01*
X122112969Y-103982057D02*
X122027255Y-103982057D01*
X122027255Y-103982057D02*
X121941541Y-103939200D01*
X121941541Y-103939200D02*
X121898683Y-103896342D01*
X121898683Y-103896342D02*
X121855826Y-103810628D01*
X121855826Y-103810628D02*
X121812969Y-103639200D01*
X121812969Y-103639200D02*
X121812969Y-103424914D01*
X121812969Y-103424914D02*
X121855826Y-103253485D01*
X121855826Y-103253485D02*
X121898683Y-103167771D01*
X121898683Y-103167771D02*
X121941541Y-103124914D01*
X121941541Y-103124914D02*
X122027255Y-103082057D01*
X122712969Y-103896342D02*
X122755826Y-103939200D01*
X122755826Y-103939200D02*
X122712969Y-103982057D01*
X122712969Y-103982057D02*
X122670112Y-103939200D01*
X122670112Y-103939200D02*
X122712969Y-103896342D01*
X122712969Y-103896342D02*
X122712969Y-103982057D01*
X123055826Y-103082057D02*
X123612969Y-103082057D01*
X123612969Y-103082057D02*
X123312969Y-103424914D01*
X123312969Y-103424914D02*
X123441540Y-103424914D01*
X123441540Y-103424914D02*
X123527255Y-103467771D01*
X123527255Y-103467771D02*
X123570112Y-103510628D01*
X123570112Y-103510628D02*
X123612969Y-103596342D01*
X123612969Y-103596342D02*
X123612969Y-103810628D01*
X123612969Y-103810628D02*
X123570112Y-103896342D01*
X123570112Y-103896342D02*
X123527255Y-103939200D01*
X123527255Y-103939200D02*
X123441540Y-103982057D01*
X123441540Y-103982057D02*
X123184397Y-103982057D01*
X123184397Y-103982057D02*
X123098683Y-103939200D01*
X123098683Y-103939200D02*
X123055826Y-103896342D01*
X123998683Y-103982057D02*
X123998683Y-103382057D01*
X123998683Y-103467771D02*
X124041540Y-103424914D01*
X124041540Y-103424914D02*
X124127255Y-103382057D01*
X124127255Y-103382057D02*
X124255826Y-103382057D01*
X124255826Y-103382057D02*
X124341540Y-103424914D01*
X124341540Y-103424914D02*
X124384398Y-103510628D01*
X124384398Y-103510628D02*
X124384398Y-103982057D01*
X124384398Y-103510628D02*
X124427255Y-103424914D01*
X124427255Y-103424914D02*
X124512969Y-103382057D01*
X124512969Y-103382057D02*
X124641540Y-103382057D01*
X124641540Y-103382057D02*
X124727255Y-103424914D01*
X124727255Y-103424914D02*
X124770112Y-103510628D01*
X124770112Y-103510628D02*
X124770112Y-103982057D01*
X125198683Y-103982057D02*
X125198683Y-103382057D01*
X125198683Y-103467771D02*
X125241540Y-103424914D01*
X125241540Y-103424914D02*
X125327255Y-103382057D01*
X125327255Y-103382057D02*
X125455826Y-103382057D01*
X125455826Y-103382057D02*
X125541540Y-103424914D01*
X125541540Y-103424914D02*
X125584398Y-103510628D01*
X125584398Y-103510628D02*
X125584398Y-103982057D01*
X125584398Y-103510628D02*
X125627255Y-103424914D01*
X125627255Y-103424914D02*
X125712969Y-103382057D01*
X125712969Y-103382057D02*
X125841540Y-103382057D01*
X125841540Y-103382057D02*
X125927255Y-103424914D01*
X125927255Y-103424914D02*
X125970112Y-103510628D01*
X125970112Y-103510628D02*
X125970112Y-103982057D01*
X127384397Y-103510628D02*
X127084397Y-103510628D01*
X127084397Y-103982057D02*
X127084397Y-103082057D01*
X127084397Y-103082057D02*
X127512969Y-103082057D01*
X128155826Y-103510628D02*
X127855826Y-103510628D01*
X127855826Y-103982057D02*
X127855826Y-103082057D01*
X127855826Y-103082057D02*
X128284398Y-103082057D01*
X129141541Y-103896342D02*
X129098684Y-103939200D01*
X129098684Y-103939200D02*
X128970112Y-103982057D01*
X128970112Y-103982057D02*
X128884398Y-103982057D01*
X128884398Y-103982057D02*
X128755827Y-103939200D01*
X128755827Y-103939200D02*
X128670112Y-103853485D01*
X128670112Y-103853485D02*
X128627255Y-103767771D01*
X128627255Y-103767771D02*
X128584398Y-103596342D01*
X128584398Y-103596342D02*
X128584398Y-103467771D01*
X128584398Y-103467771D02*
X128627255Y-103296342D01*
X128627255Y-103296342D02*
X128670112Y-103210628D01*
X128670112Y-103210628D02*
X128755827Y-103124914D01*
X128755827Y-103124914D02*
X128884398Y-103082057D01*
X128884398Y-103082057D02*
X128970112Y-103082057D01*
X128970112Y-103082057D02*
X129098684Y-103124914D01*
X129098684Y-103124914D02*
X129141541Y-103167771D01*
X130170112Y-103039200D02*
X129398684Y-104196342D01*
X130770112Y-103510628D02*
X130470112Y-103510628D01*
X130470112Y-103982057D02*
X130470112Y-103082057D01*
X130470112Y-103082057D02*
X130898684Y-103082057D01*
X131241541Y-103982057D02*
X131241541Y-103082057D01*
X131241541Y-103082057D02*
X131584398Y-103082057D01*
X131584398Y-103082057D02*
X131670113Y-103124914D01*
X131670113Y-103124914D02*
X131712970Y-103167771D01*
X131712970Y-103167771D02*
X131755827Y-103253485D01*
X131755827Y-103253485D02*
X131755827Y-103382057D01*
X131755827Y-103382057D02*
X131712970Y-103467771D01*
X131712970Y-103467771D02*
X131670113Y-103510628D01*
X131670113Y-103510628D02*
X131584398Y-103553485D01*
X131584398Y-103553485D02*
X131241541Y-103553485D01*
X132655827Y-103896342D02*
X132612970Y-103939200D01*
X132612970Y-103939200D02*
X132484398Y-103982057D01*
X132484398Y-103982057D02*
X132398684Y-103982057D01*
X132398684Y-103982057D02*
X132270113Y-103939200D01*
X132270113Y-103939200D02*
X132184398Y-103853485D01*
X132184398Y-103853485D02*
X132141541Y-103767771D01*
X132141541Y-103767771D02*
X132098684Y-103596342D01*
X132098684Y-103596342D02*
X132098684Y-103467771D01*
X132098684Y-103467771D02*
X132141541Y-103296342D01*
X132141541Y-103296342D02*
X132184398Y-103210628D01*
X132184398Y-103210628D02*
X132270113Y-103124914D01*
X132270113Y-103124914D02*
X132398684Y-103082057D01*
X132398684Y-103082057D02*
X132484398Y-103082057D01*
X132484398Y-103082057D02*
X132612970Y-103124914D01*
X132612970Y-103124914D02*
X132655827Y-103167771D01*
X133598684Y-103382057D02*
X133941541Y-103382057D01*
X133727255Y-103082057D02*
X133727255Y-103853485D01*
X133727255Y-103853485D02*
X133770112Y-103939200D01*
X133770112Y-103939200D02*
X133855827Y-103982057D01*
X133855827Y-103982057D02*
X133941541Y-103982057D01*
X134370113Y-103982057D02*
X134284398Y-103939200D01*
X134284398Y-103939200D02*
X134241541Y-103896342D01*
X134241541Y-103896342D02*
X134198684Y-103810628D01*
X134198684Y-103810628D02*
X134198684Y-103553485D01*
X134198684Y-103553485D02*
X134241541Y-103467771D01*
X134241541Y-103467771D02*
X134284398Y-103424914D01*
X134284398Y-103424914D02*
X134370113Y-103382057D01*
X134370113Y-103382057D02*
X134498684Y-103382057D01*
X134498684Y-103382057D02*
X134584398Y-103424914D01*
X134584398Y-103424914D02*
X134627256Y-103467771D01*
X134627256Y-103467771D02*
X134670113Y-103553485D01*
X134670113Y-103553485D02*
X134670113Y-103810628D01*
X134670113Y-103810628D02*
X134627256Y-103896342D01*
X134627256Y-103896342D02*
X134584398Y-103939200D01*
X134584398Y-103939200D02*
X134498684Y-103982057D01*
X134498684Y-103982057D02*
X134370113Y-103982057D01*
X135698684Y-103167771D02*
X135741541Y-103124914D01*
X135741541Y-103124914D02*
X135827256Y-103082057D01*
X135827256Y-103082057D02*
X136041541Y-103082057D01*
X136041541Y-103082057D02*
X136127256Y-103124914D01*
X136127256Y-103124914D02*
X136170113Y-103167771D01*
X136170113Y-103167771D02*
X136212970Y-103253485D01*
X136212970Y-103253485D02*
X136212970Y-103339200D01*
X136212970Y-103339200D02*
X136170113Y-103467771D01*
X136170113Y-103467771D02*
X135655827Y-103982057D01*
X135655827Y-103982057D02*
X136212970Y-103982057D01*
X136598684Y-103896342D02*
X136641541Y-103939200D01*
X136641541Y-103939200D02*
X136598684Y-103982057D01*
X136598684Y-103982057D02*
X136555827Y-103939200D01*
X136555827Y-103939200D02*
X136598684Y-103896342D01*
X136598684Y-103896342D02*
X136598684Y-103982057D01*
X137455827Y-103082057D02*
X137027255Y-103082057D01*
X137027255Y-103082057D02*
X136984398Y-103510628D01*
X136984398Y-103510628D02*
X137027255Y-103467771D01*
X137027255Y-103467771D02*
X137112970Y-103424914D01*
X137112970Y-103424914D02*
X137327255Y-103424914D01*
X137327255Y-103424914D02*
X137412970Y-103467771D01*
X137412970Y-103467771D02*
X137455827Y-103510628D01*
X137455827Y-103510628D02*
X137498684Y-103596342D01*
X137498684Y-103596342D02*
X137498684Y-103810628D01*
X137498684Y-103810628D02*
X137455827Y-103896342D01*
X137455827Y-103896342D02*
X137412970Y-103939200D01*
X137412970Y-103939200D02*
X137327255Y-103982057D01*
X137327255Y-103982057D02*
X137112970Y-103982057D01*
X137112970Y-103982057D02*
X137027255Y-103939200D01*
X137027255Y-103939200D02*
X136984398Y-103896342D01*
X138270113Y-103382057D02*
X138270113Y-103982057D01*
X138055827Y-103039200D02*
X137841541Y-103682057D01*
X137841541Y-103682057D02*
X138398684Y-103682057D01*
X138741541Y-103982057D02*
X138741541Y-103382057D01*
X138741541Y-103467771D02*
X138784398Y-103424914D01*
X138784398Y-103424914D02*
X138870113Y-103382057D01*
X138870113Y-103382057D02*
X138998684Y-103382057D01*
X138998684Y-103382057D02*
X139084398Y-103424914D01*
X139084398Y-103424914D02*
X139127256Y-103510628D01*
X139127256Y-103510628D02*
X139127256Y-103982057D01*
X139127256Y-103510628D02*
X139170113Y-103424914D01*
X139170113Y-103424914D02*
X139255827Y-103382057D01*
X139255827Y-103382057D02*
X139384398Y-103382057D01*
X139384398Y-103382057D02*
X139470113Y-103424914D01*
X139470113Y-103424914D02*
X139512970Y-103510628D01*
X139512970Y-103510628D02*
X139512970Y-103982057D01*
X139941541Y-103982057D02*
X139941541Y-103382057D01*
X139941541Y-103467771D02*
X139984398Y-103424914D01*
X139984398Y-103424914D02*
X140070113Y-103382057D01*
X140070113Y-103382057D02*
X140198684Y-103382057D01*
X140198684Y-103382057D02*
X140284398Y-103424914D01*
X140284398Y-103424914D02*
X140327256Y-103510628D01*
X140327256Y-103510628D02*
X140327256Y-103982057D01*
X140327256Y-103510628D02*
X140370113Y-103424914D01*
X140370113Y-103424914D02*
X140455827Y-103382057D01*
X140455827Y-103382057D02*
X140584398Y-103382057D01*
X140584398Y-103382057D02*
X140670113Y-103424914D01*
X140670113Y-103424914D02*
X140712970Y-103510628D01*
X140712970Y-103510628D02*
X140712970Y-103982057D01*
X142127255Y-103510628D02*
X142255827Y-103553485D01*
X142255827Y-103553485D02*
X142298684Y-103596342D01*
X142298684Y-103596342D02*
X142341541Y-103682057D01*
X142341541Y-103682057D02*
X142341541Y-103810628D01*
X142341541Y-103810628D02*
X142298684Y-103896342D01*
X142298684Y-103896342D02*
X142255827Y-103939200D01*
X142255827Y-103939200D02*
X142170112Y-103982057D01*
X142170112Y-103982057D02*
X141827255Y-103982057D01*
X141827255Y-103982057D02*
X141827255Y-103082057D01*
X141827255Y-103082057D02*
X142127255Y-103082057D01*
X142127255Y-103082057D02*
X142212970Y-103124914D01*
X142212970Y-103124914D02*
X142255827Y-103167771D01*
X142255827Y-103167771D02*
X142298684Y-103253485D01*
X142298684Y-103253485D02*
X142298684Y-103339200D01*
X142298684Y-103339200D02*
X142255827Y-103424914D01*
X142255827Y-103424914D02*
X142212970Y-103467771D01*
X142212970Y-103467771D02*
X142127255Y-103510628D01*
X142127255Y-103510628D02*
X141827255Y-103510628D01*
X142727255Y-103982057D02*
X142727255Y-103382057D01*
X142727255Y-103553485D02*
X142770112Y-103467771D01*
X142770112Y-103467771D02*
X142812970Y-103424914D01*
X142812970Y-103424914D02*
X142898684Y-103382057D01*
X142898684Y-103382057D02*
X142984398Y-103382057D01*
X143627255Y-103939200D02*
X143541541Y-103982057D01*
X143541541Y-103982057D02*
X143370113Y-103982057D01*
X143370113Y-103982057D02*
X143284398Y-103939200D01*
X143284398Y-103939200D02*
X143241541Y-103853485D01*
X143241541Y-103853485D02*
X143241541Y-103510628D01*
X143241541Y-103510628D02*
X143284398Y-103424914D01*
X143284398Y-103424914D02*
X143370113Y-103382057D01*
X143370113Y-103382057D02*
X143541541Y-103382057D01*
X143541541Y-103382057D02*
X143627255Y-103424914D01*
X143627255Y-103424914D02*
X143670113Y-103510628D01*
X143670113Y-103510628D02*
X143670113Y-103596342D01*
X143670113Y-103596342D02*
X143241541Y-103682057D01*
X144441542Y-103982057D02*
X144441542Y-103510628D01*
X144441542Y-103510628D02*
X144398684Y-103424914D01*
X144398684Y-103424914D02*
X144312970Y-103382057D01*
X144312970Y-103382057D02*
X144141542Y-103382057D01*
X144141542Y-103382057D02*
X144055827Y-103424914D01*
X144441542Y-103939200D02*
X144355827Y-103982057D01*
X144355827Y-103982057D02*
X144141542Y-103982057D01*
X144141542Y-103982057D02*
X144055827Y-103939200D01*
X144055827Y-103939200D02*
X144012970Y-103853485D01*
X144012970Y-103853485D02*
X144012970Y-103767771D01*
X144012970Y-103767771D02*
X144055827Y-103682057D01*
X144055827Y-103682057D02*
X144141542Y-103639200D01*
X144141542Y-103639200D02*
X144355827Y-103639200D01*
X144355827Y-103639200D02*
X144441542Y-103596342D01*
X145255828Y-103982057D02*
X145255828Y-103082057D01*
X145255828Y-103939200D02*
X145170113Y-103982057D01*
X145170113Y-103982057D02*
X144998685Y-103982057D01*
X144998685Y-103982057D02*
X144912970Y-103939200D01*
X144912970Y-103939200D02*
X144870113Y-103896342D01*
X144870113Y-103896342D02*
X144827256Y-103810628D01*
X144827256Y-103810628D02*
X144827256Y-103553485D01*
X144827256Y-103553485D02*
X144870113Y-103467771D01*
X144870113Y-103467771D02*
X144912970Y-103424914D01*
X144912970Y-103424914D02*
X144998685Y-103382057D01*
X144998685Y-103382057D02*
X145170113Y-103382057D01*
X145170113Y-103382057D02*
X145255828Y-103424914D01*
X145684399Y-103982057D02*
X145684399Y-103082057D01*
X145684399Y-103424914D02*
X145770114Y-103382057D01*
X145770114Y-103382057D02*
X145941542Y-103382057D01*
X145941542Y-103382057D02*
X146027256Y-103424914D01*
X146027256Y-103424914D02*
X146070114Y-103467771D01*
X146070114Y-103467771D02*
X146112971Y-103553485D01*
X146112971Y-103553485D02*
X146112971Y-103810628D01*
X146112971Y-103810628D02*
X146070114Y-103896342D01*
X146070114Y-103896342D02*
X146027256Y-103939200D01*
X146027256Y-103939200D02*
X145941542Y-103982057D01*
X145941542Y-103982057D02*
X145770114Y-103982057D01*
X145770114Y-103982057D02*
X145684399Y-103939200D01*
X146627257Y-103982057D02*
X146541542Y-103939200D01*
X146541542Y-103939200D02*
X146498685Y-103896342D01*
X146498685Y-103896342D02*
X146455828Y-103810628D01*
X146455828Y-103810628D02*
X146455828Y-103553485D01*
X146455828Y-103553485D02*
X146498685Y-103467771D01*
X146498685Y-103467771D02*
X146541542Y-103424914D01*
X146541542Y-103424914D02*
X146627257Y-103382057D01*
X146627257Y-103382057D02*
X146755828Y-103382057D01*
X146755828Y-103382057D02*
X146841542Y-103424914D01*
X146841542Y-103424914D02*
X146884400Y-103467771D01*
X146884400Y-103467771D02*
X146927257Y-103553485D01*
X146927257Y-103553485D02*
X146927257Y-103810628D01*
X146927257Y-103810628D02*
X146884400Y-103896342D01*
X146884400Y-103896342D02*
X146841542Y-103939200D01*
X146841542Y-103939200D02*
X146755828Y-103982057D01*
X146755828Y-103982057D02*
X146627257Y-103982057D01*
X147698686Y-103982057D02*
X147698686Y-103510628D01*
X147698686Y-103510628D02*
X147655828Y-103424914D01*
X147655828Y-103424914D02*
X147570114Y-103382057D01*
X147570114Y-103382057D02*
X147398686Y-103382057D01*
X147398686Y-103382057D02*
X147312971Y-103424914D01*
X147698686Y-103939200D02*
X147612971Y-103982057D01*
X147612971Y-103982057D02*
X147398686Y-103982057D01*
X147398686Y-103982057D02*
X147312971Y-103939200D01*
X147312971Y-103939200D02*
X147270114Y-103853485D01*
X147270114Y-103853485D02*
X147270114Y-103767771D01*
X147270114Y-103767771D02*
X147312971Y-103682057D01*
X147312971Y-103682057D02*
X147398686Y-103639200D01*
X147398686Y-103639200D02*
X147612971Y-103639200D01*
X147612971Y-103639200D02*
X147698686Y-103596342D01*
X148127257Y-103982057D02*
X148127257Y-103382057D01*
X148127257Y-103553485D02*
X148170114Y-103467771D01*
X148170114Y-103467771D02*
X148212972Y-103424914D01*
X148212972Y-103424914D02*
X148298686Y-103382057D01*
X148298686Y-103382057D02*
X148384400Y-103382057D01*
X149070115Y-103982057D02*
X149070115Y-103082057D01*
X149070115Y-103939200D02*
X148984400Y-103982057D01*
X148984400Y-103982057D02*
X148812972Y-103982057D01*
X148812972Y-103982057D02*
X148727257Y-103939200D01*
X148727257Y-103939200D02*
X148684400Y-103896342D01*
X148684400Y-103896342D02*
X148641543Y-103810628D01*
X148641543Y-103810628D02*
X148641543Y-103553485D01*
X148641543Y-103553485D02*
X148684400Y-103467771D01*
X148684400Y-103467771D02*
X148727257Y-103424914D01*
X148727257Y-103424914D02*
X148812972Y-103382057D01*
X148812972Y-103382057D02*
X148984400Y-103382057D01*
X148984400Y-103382057D02*
X149070115Y-103424914D01*
X150141543Y-103724914D02*
X150570115Y-103724914D01*
X150055829Y-103982057D02*
X150355829Y-103082057D01*
X150355829Y-103082057D02*
X150655829Y-103982057D01*
X151341544Y-103982057D02*
X151341544Y-103082057D01*
X151341544Y-103939200D02*
X151255829Y-103982057D01*
X151255829Y-103982057D02*
X151084401Y-103982057D01*
X151084401Y-103982057D02*
X150998686Y-103939200D01*
X150998686Y-103939200D02*
X150955829Y-103896342D01*
X150955829Y-103896342D02*
X150912972Y-103810628D01*
X150912972Y-103810628D02*
X150912972Y-103553485D01*
X150912972Y-103553485D02*
X150955829Y-103467771D01*
X150955829Y-103467771D02*
X150998686Y-103424914D01*
X150998686Y-103424914D02*
X151084401Y-103382057D01*
X151084401Y-103382057D02*
X151255829Y-103382057D01*
X151255829Y-103382057D02*
X151341544Y-103424914D01*
X152155830Y-103982057D02*
X152155830Y-103510628D01*
X152155830Y-103510628D02*
X152112972Y-103424914D01*
X152112972Y-103424914D02*
X152027258Y-103382057D01*
X152027258Y-103382057D02*
X151855830Y-103382057D01*
X151855830Y-103382057D02*
X151770115Y-103424914D01*
X152155830Y-103939200D02*
X152070115Y-103982057D01*
X152070115Y-103982057D02*
X151855830Y-103982057D01*
X151855830Y-103982057D02*
X151770115Y-103939200D01*
X151770115Y-103939200D02*
X151727258Y-103853485D01*
X151727258Y-103853485D02*
X151727258Y-103767771D01*
X151727258Y-103767771D02*
X151770115Y-103682057D01*
X151770115Y-103682057D02*
X151855830Y-103639200D01*
X151855830Y-103639200D02*
X152070115Y-103639200D01*
X152070115Y-103639200D02*
X152155830Y-103596342D01*
X152584401Y-103382057D02*
X152584401Y-104282057D01*
X152584401Y-103424914D02*
X152670116Y-103382057D01*
X152670116Y-103382057D02*
X152841544Y-103382057D01*
X152841544Y-103382057D02*
X152927258Y-103424914D01*
X152927258Y-103424914D02*
X152970116Y-103467771D01*
X152970116Y-103467771D02*
X153012973Y-103553485D01*
X153012973Y-103553485D02*
X153012973Y-103810628D01*
X153012973Y-103810628D02*
X152970116Y-103896342D01*
X152970116Y-103896342D02*
X152927258Y-103939200D01*
X152927258Y-103939200D02*
X152841544Y-103982057D01*
X152841544Y-103982057D02*
X152670116Y-103982057D01*
X152670116Y-103982057D02*
X152584401Y-103939200D01*
X153270116Y-103382057D02*
X153612973Y-103382057D01*
X153398687Y-103082057D02*
X153398687Y-103853485D01*
X153398687Y-103853485D02*
X153441544Y-103939200D01*
X153441544Y-103939200D02*
X153527259Y-103982057D01*
X153527259Y-103982057D02*
X153612973Y-103982057D01*
X154255830Y-103939200D02*
X154170116Y-103982057D01*
X154170116Y-103982057D02*
X153998688Y-103982057D01*
X153998688Y-103982057D02*
X153912973Y-103939200D01*
X153912973Y-103939200D02*
X153870116Y-103853485D01*
X153870116Y-103853485D02*
X153870116Y-103510628D01*
X153870116Y-103510628D02*
X153912973Y-103424914D01*
X153912973Y-103424914D02*
X153998688Y-103382057D01*
X153998688Y-103382057D02*
X154170116Y-103382057D01*
X154170116Y-103382057D02*
X154255830Y-103424914D01*
X154255830Y-103424914D02*
X154298688Y-103510628D01*
X154298688Y-103510628D02*
X154298688Y-103596342D01*
X154298688Y-103596342D02*
X153870116Y-103682057D01*
X154684402Y-103982057D02*
X154684402Y-103382057D01*
X154684402Y-103553485D02*
X154727259Y-103467771D01*
X154727259Y-103467771D02*
X154770117Y-103424914D01*
X154770117Y-103424914D02*
X154855831Y-103382057D01*
X154855831Y-103382057D02*
X154941545Y-103382057D01*
X145251064Y-111290485D02*
X145289160Y-111252390D01*
X145289160Y-111252390D02*
X145365350Y-111214295D01*
X145365350Y-111214295D02*
X145555826Y-111214295D01*
X145555826Y-111214295D02*
X145632017Y-111252390D01*
X145632017Y-111252390D02*
X145670112Y-111290485D01*
X145670112Y-111290485D02*
X145708207Y-111366676D01*
X145708207Y-111366676D02*
X145708207Y-111442866D01*
X145708207Y-111442866D02*
X145670112Y-111557152D01*
X145670112Y-111557152D02*
X145212969Y-112014295D01*
X145212969Y-112014295D02*
X145708207Y-112014295D01*
X146393922Y-111214295D02*
X146241541Y-111214295D01*
X146241541Y-111214295D02*
X146165350Y-111252390D01*
X146165350Y-111252390D02*
X146127255Y-111290485D01*
X146127255Y-111290485D02*
X146051065Y-111404771D01*
X146051065Y-111404771D02*
X146012969Y-111557152D01*
X146012969Y-111557152D02*
X146012969Y-111861914D01*
X146012969Y-111861914D02*
X146051065Y-111938104D01*
X146051065Y-111938104D02*
X146089160Y-111976200D01*
X146089160Y-111976200D02*
X146165350Y-112014295D01*
X146165350Y-112014295D02*
X146317731Y-112014295D01*
X146317731Y-112014295D02*
X146393922Y-111976200D01*
X146393922Y-111976200D02*
X146432017Y-111938104D01*
X146432017Y-111938104D02*
X146470112Y-111861914D01*
X146470112Y-111861914D02*
X146470112Y-111671438D01*
X146470112Y-111671438D02*
X146432017Y-111595247D01*
X146432017Y-111595247D02*
X146393922Y-111557152D01*
X146393922Y-111557152D02*
X146317731Y-111519057D01*
X146317731Y-111519057D02*
X146165350Y-111519057D01*
X146165350Y-111519057D02*
X146089160Y-111557152D01*
X146089160Y-111557152D02*
X146051065Y-111595247D01*
X146051065Y-111595247D02*
X146012969Y-111671438D01*
X142751064Y-123670485D02*
X142789160Y-123632390D01*
X142789160Y-123632390D02*
X142865350Y-123594295D01*
X142865350Y-123594295D02*
X143055826Y-123594295D01*
X143055826Y-123594295D02*
X143132017Y-123632390D01*
X143132017Y-123632390D02*
X143170112Y-123670485D01*
X143170112Y-123670485D02*
X143208207Y-123746676D01*
X143208207Y-123746676D02*
X143208207Y-123822866D01*
X143208207Y-123822866D02*
X143170112Y-123937152D01*
X143170112Y-123937152D02*
X142712969Y-124394295D01*
X142712969Y-124394295D02*
X143208207Y-124394295D01*
X143474874Y-123594295D02*
X143970112Y-123594295D01*
X143970112Y-123594295D02*
X143703446Y-123899057D01*
X143703446Y-123899057D02*
X143817731Y-123899057D01*
X143817731Y-123899057D02*
X143893922Y-123937152D01*
X143893922Y-123937152D02*
X143932017Y-123975247D01*
X143932017Y-123975247D02*
X143970112Y-124051438D01*
X143970112Y-124051438D02*
X143970112Y-124241914D01*
X143970112Y-124241914D02*
X143932017Y-124318104D01*
X143932017Y-124318104D02*
X143893922Y-124356200D01*
X143893922Y-124356200D02*
X143817731Y-124394295D01*
X143817731Y-124394295D02*
X143589160Y-124394295D01*
X143589160Y-124394295D02*
X143512969Y-124356200D01*
X143512969Y-124356200D02*
X143474874Y-124318104D01*
X163012969Y-123594295D02*
X163508207Y-123594295D01*
X163508207Y-123594295D02*
X163241541Y-123899057D01*
X163241541Y-123899057D02*
X163355826Y-123899057D01*
X163355826Y-123899057D02*
X163432017Y-123937152D01*
X163432017Y-123937152D02*
X163470112Y-123975247D01*
X163470112Y-123975247D02*
X163508207Y-124051438D01*
X163508207Y-124051438D02*
X163508207Y-124241914D01*
X163508207Y-124241914D02*
X163470112Y-124318104D01*
X163470112Y-124318104D02*
X163432017Y-124356200D01*
X163432017Y-124356200D02*
X163355826Y-124394295D01*
X163355826Y-124394295D02*
X163127255Y-124394295D01*
X163127255Y-124394295D02*
X163051064Y-124356200D01*
X163051064Y-124356200D02*
X163012969Y-124318104D01*
X163889160Y-124394295D02*
X164041541Y-124394295D01*
X164041541Y-124394295D02*
X164117731Y-124356200D01*
X164117731Y-124356200D02*
X164155827Y-124318104D01*
X164155827Y-124318104D02*
X164232017Y-124203819D01*
X164232017Y-124203819D02*
X164270112Y-124051438D01*
X164270112Y-124051438D02*
X164270112Y-123746676D01*
X164270112Y-123746676D02*
X164232017Y-123670485D01*
X164232017Y-123670485D02*
X164193922Y-123632390D01*
X164193922Y-123632390D02*
X164117731Y-123594295D01*
X164117731Y-123594295D02*
X163965350Y-123594295D01*
X163965350Y-123594295D02*
X163889160Y-123632390D01*
X163889160Y-123632390D02*
X163851065Y-123670485D01*
X163851065Y-123670485D02*
X163812969Y-123746676D01*
X163812969Y-123746676D02*
X163812969Y-123937152D01*
X163812969Y-123937152D02*
X163851065Y-124013342D01*
X163851065Y-124013342D02*
X163889160Y-124051438D01*
X163889160Y-124051438D02*
X163965350Y-124089533D01*
X163965350Y-124089533D02*
X164117731Y-124089533D01*
X164117731Y-124089533D02*
X164193922Y-124051438D01*
X164193922Y-124051438D02*
X164232017Y-124013342D01*
X164232017Y-124013342D02*
X164270112Y-123937152D01*
X160412969Y-123594295D02*
X160908207Y-123594295D01*
X160908207Y-123594295D02*
X160641541Y-123899057D01*
X160641541Y-123899057D02*
X160755826Y-123899057D01*
X160755826Y-123899057D02*
X160832017Y-123937152D01*
X160832017Y-123937152D02*
X160870112Y-123975247D01*
X160870112Y-123975247D02*
X160908207Y-124051438D01*
X160908207Y-124051438D02*
X160908207Y-124241914D01*
X160908207Y-124241914D02*
X160870112Y-124318104D01*
X160870112Y-124318104D02*
X160832017Y-124356200D01*
X160832017Y-124356200D02*
X160755826Y-124394295D01*
X160755826Y-124394295D02*
X160527255Y-124394295D01*
X160527255Y-124394295D02*
X160451064Y-124356200D01*
X160451064Y-124356200D02*
X160412969Y-124318104D01*
X161174874Y-123594295D02*
X161708208Y-123594295D01*
X161708208Y-123594295D02*
X161365350Y-124394295D01*
X102105704Y-122712969D02*
X102105704Y-123208207D01*
X102105704Y-123208207D02*
X101800942Y-122941541D01*
X101800942Y-122941541D02*
X101800942Y-123055826D01*
X101800942Y-123055826D02*
X101762847Y-123132017D01*
X101762847Y-123132017D02*
X101724752Y-123170112D01*
X101724752Y-123170112D02*
X101648561Y-123208207D01*
X101648561Y-123208207D02*
X101458085Y-123208207D01*
X101458085Y-123208207D02*
X101381895Y-123170112D01*
X101381895Y-123170112D02*
X101343800Y-123132017D01*
X101343800Y-123132017D02*
X101305704Y-123055826D01*
X101305704Y-123055826D02*
X101305704Y-122827255D01*
X101305704Y-122827255D02*
X101343800Y-122751064D01*
X101343800Y-122751064D02*
X101381895Y-122712969D01*
X101305704Y-123589160D02*
X101305704Y-123741541D01*
X101305704Y-123741541D02*
X101343800Y-123817731D01*
X101343800Y-123817731D02*
X101381895Y-123855827D01*
X101381895Y-123855827D02*
X101496180Y-123932017D01*
X101496180Y-123932017D02*
X101648561Y-123970112D01*
X101648561Y-123970112D02*
X101953323Y-123970112D01*
X101953323Y-123970112D02*
X102029514Y-123932017D01*
X102029514Y-123932017D02*
X102067609Y-123893922D01*
X102067609Y-123893922D02*
X102105704Y-123817731D01*
X102105704Y-123817731D02*
X102105704Y-123665350D01*
X102105704Y-123665350D02*
X102067609Y-123589160D01*
X102067609Y-123589160D02*
X102029514Y-123551065D01*
X102029514Y-123551065D02*
X101953323Y-123512969D01*
X101953323Y-123512969D02*
X101762847Y-123512969D01*
X101762847Y-123512969D02*
X101686657Y-123551065D01*
X101686657Y-123551065D02*
X101648561Y-123589160D01*
X101648561Y-123589160D02*
X101610466Y-123665350D01*
X101610466Y-123665350D02*
X101610466Y-123817731D01*
X101610466Y-123817731D02*
X101648561Y-123893922D01*
X101648561Y-123893922D02*
X101686657Y-123932017D01*
X101686657Y-123932017D02*
X101762847Y-123970112D01*
X117912969Y-102010628D02*
X117612969Y-102010628D01*
X117612969Y-102482057D02*
X117612969Y-101582057D01*
X117612969Y-101582057D02*
X118041541Y-101582057D01*
X118512970Y-102482057D02*
X118427255Y-102439200D01*
X118427255Y-102439200D02*
X118384398Y-102353485D01*
X118384398Y-102353485D02*
X118384398Y-101582057D01*
X118770113Y-101882057D02*
X118984399Y-102482057D01*
X119198684Y-101882057D02*
X118984399Y-102482057D01*
X118984399Y-102482057D02*
X118898684Y-102696342D01*
X118898684Y-102696342D02*
X118855827Y-102739200D01*
X118855827Y-102739200D02*
X118770113Y-102782057D01*
X119541541Y-102482057D02*
X119541541Y-101882057D01*
X119541541Y-101967771D02*
X119584398Y-101924914D01*
X119584398Y-101924914D02*
X119670113Y-101882057D01*
X119670113Y-101882057D02*
X119798684Y-101882057D01*
X119798684Y-101882057D02*
X119884398Y-101924914D01*
X119884398Y-101924914D02*
X119927256Y-102010628D01*
X119927256Y-102010628D02*
X119927256Y-102482057D01*
X119927256Y-102010628D02*
X119970113Y-101924914D01*
X119970113Y-101924914D02*
X120055827Y-101882057D01*
X120055827Y-101882057D02*
X120184398Y-101882057D01*
X120184398Y-101882057D02*
X120270113Y-101924914D01*
X120270113Y-101924914D02*
X120312970Y-102010628D01*
X120312970Y-102010628D02*
X120312970Y-102482057D01*
X121127256Y-102482057D02*
X121127256Y-102010628D01*
X121127256Y-102010628D02*
X121084398Y-101924914D01*
X121084398Y-101924914D02*
X120998684Y-101882057D01*
X120998684Y-101882057D02*
X120827256Y-101882057D01*
X120827256Y-101882057D02*
X120741541Y-101924914D01*
X121127256Y-102439200D02*
X121041541Y-102482057D01*
X121041541Y-102482057D02*
X120827256Y-102482057D01*
X120827256Y-102482057D02*
X120741541Y-102439200D01*
X120741541Y-102439200D02*
X120698684Y-102353485D01*
X120698684Y-102353485D02*
X120698684Y-102267771D01*
X120698684Y-102267771D02*
X120741541Y-102182057D01*
X120741541Y-102182057D02*
X120827256Y-102139200D01*
X120827256Y-102139200D02*
X121041541Y-102139200D01*
X121041541Y-102139200D02*
X121127256Y-102096342D01*
X121555827Y-101882057D02*
X121555827Y-102482057D01*
X121555827Y-101967771D02*
X121598684Y-101924914D01*
X121598684Y-101924914D02*
X121684399Y-101882057D01*
X121684399Y-101882057D02*
X121812970Y-101882057D01*
X121812970Y-101882057D02*
X121898684Y-101924914D01*
X121898684Y-101924914D02*
X121941542Y-102010628D01*
X121941542Y-102010628D02*
X121941542Y-102482057D01*
X123055827Y-102482057D02*
X123055827Y-101582057D01*
X123055827Y-101582057D02*
X123398684Y-101582057D01*
X123398684Y-101582057D02*
X123484399Y-101624914D01*
X123484399Y-101624914D02*
X123527256Y-101667771D01*
X123527256Y-101667771D02*
X123570113Y-101753485D01*
X123570113Y-101753485D02*
X123570113Y-101882057D01*
X123570113Y-101882057D02*
X123527256Y-101967771D01*
X123527256Y-101967771D02*
X123484399Y-102010628D01*
X123484399Y-102010628D02*
X123398684Y-102053485D01*
X123398684Y-102053485D02*
X123055827Y-102053485D01*
X124470113Y-102396342D02*
X124427256Y-102439200D01*
X124427256Y-102439200D02*
X124298684Y-102482057D01*
X124298684Y-102482057D02*
X124212970Y-102482057D01*
X124212970Y-102482057D02*
X124084399Y-102439200D01*
X124084399Y-102439200D02*
X123998684Y-102353485D01*
X123998684Y-102353485D02*
X123955827Y-102267771D01*
X123955827Y-102267771D02*
X123912970Y-102096342D01*
X123912970Y-102096342D02*
X123912970Y-101967771D01*
X123912970Y-101967771D02*
X123955827Y-101796342D01*
X123955827Y-101796342D02*
X123998684Y-101710628D01*
X123998684Y-101710628D02*
X124084399Y-101624914D01*
X124084399Y-101624914D02*
X124212970Y-101582057D01*
X124212970Y-101582057D02*
X124298684Y-101582057D01*
X124298684Y-101582057D02*
X124427256Y-101624914D01*
X124427256Y-101624914D02*
X124470113Y-101667771D01*
X125155827Y-102010628D02*
X125284399Y-102053485D01*
X125284399Y-102053485D02*
X125327256Y-102096342D01*
X125327256Y-102096342D02*
X125370113Y-102182057D01*
X125370113Y-102182057D02*
X125370113Y-102310628D01*
X125370113Y-102310628D02*
X125327256Y-102396342D01*
X125327256Y-102396342D02*
X125284399Y-102439200D01*
X125284399Y-102439200D02*
X125198684Y-102482057D01*
X125198684Y-102482057D02*
X124855827Y-102482057D01*
X124855827Y-102482057D02*
X124855827Y-101582057D01*
X124855827Y-101582057D02*
X125155827Y-101582057D01*
X125155827Y-101582057D02*
X125241542Y-101624914D01*
X125241542Y-101624914D02*
X125284399Y-101667771D01*
X125284399Y-101667771D02*
X125327256Y-101753485D01*
X125327256Y-101753485D02*
X125327256Y-101839200D01*
X125327256Y-101839200D02*
X125284399Y-101924914D01*
X125284399Y-101924914D02*
X125241542Y-101967771D01*
X125241542Y-101967771D02*
X125155827Y-102010628D01*
X125155827Y-102010628D02*
X124855827Y-102010628D01*
X125712970Y-102439200D02*
X125798684Y-102482057D01*
X125798684Y-102482057D02*
X125970113Y-102482057D01*
X125970113Y-102482057D02*
X126055827Y-102439200D01*
X126055827Y-102439200D02*
X126098684Y-102353485D01*
X126098684Y-102353485D02*
X126098684Y-102310628D01*
X126098684Y-102310628D02*
X126055827Y-102224914D01*
X126055827Y-102224914D02*
X125970113Y-102182057D01*
X125970113Y-102182057D02*
X125841542Y-102182057D01*
X125841542Y-102182057D02*
X125755827Y-102139200D01*
X125755827Y-102139200D02*
X125712970Y-102053485D01*
X125712970Y-102053485D02*
X125712970Y-102010628D01*
X125712970Y-102010628D02*
X125755827Y-101924914D01*
X125755827Y-101924914D02*
X125841542Y-101882057D01*
X125841542Y-101882057D02*
X125970113Y-101882057D01*
X125970113Y-101882057D02*
X126055827Y-101924914D01*
X127684398Y-102396342D02*
X127641541Y-102439200D01*
X127641541Y-102439200D02*
X127512969Y-102482057D01*
X127512969Y-102482057D02*
X127427255Y-102482057D01*
X127427255Y-102482057D02*
X127298684Y-102439200D01*
X127298684Y-102439200D02*
X127212969Y-102353485D01*
X127212969Y-102353485D02*
X127170112Y-102267771D01*
X127170112Y-102267771D02*
X127127255Y-102096342D01*
X127127255Y-102096342D02*
X127127255Y-101967771D01*
X127127255Y-101967771D02*
X127170112Y-101796342D01*
X127170112Y-101796342D02*
X127212969Y-101710628D01*
X127212969Y-101710628D02*
X127298684Y-101624914D01*
X127298684Y-101624914D02*
X127427255Y-101582057D01*
X127427255Y-101582057D02*
X127512969Y-101582057D01*
X127512969Y-101582057D02*
X127641541Y-101624914D01*
X127641541Y-101624914D02*
X127684398Y-101667771D01*
X128198684Y-102482057D02*
X128112969Y-102439200D01*
X128112969Y-102439200D02*
X128070112Y-102396342D01*
X128070112Y-102396342D02*
X128027255Y-102310628D01*
X128027255Y-102310628D02*
X128027255Y-102053485D01*
X128027255Y-102053485D02*
X128070112Y-101967771D01*
X128070112Y-101967771D02*
X128112969Y-101924914D01*
X128112969Y-101924914D02*
X128198684Y-101882057D01*
X128198684Y-101882057D02*
X128327255Y-101882057D01*
X128327255Y-101882057D02*
X128412969Y-101924914D01*
X128412969Y-101924914D02*
X128455827Y-101967771D01*
X128455827Y-101967771D02*
X128498684Y-102053485D01*
X128498684Y-102053485D02*
X128498684Y-102310628D01*
X128498684Y-102310628D02*
X128455827Y-102396342D01*
X128455827Y-102396342D02*
X128412969Y-102439200D01*
X128412969Y-102439200D02*
X128327255Y-102482057D01*
X128327255Y-102482057D02*
X128198684Y-102482057D01*
X128884398Y-101882057D02*
X128884398Y-102782057D01*
X128884398Y-101924914D02*
X128970113Y-101882057D01*
X128970113Y-101882057D02*
X129141541Y-101882057D01*
X129141541Y-101882057D02*
X129227255Y-101924914D01*
X129227255Y-101924914D02*
X129270113Y-101967771D01*
X129270113Y-101967771D02*
X129312970Y-102053485D01*
X129312970Y-102053485D02*
X129312970Y-102310628D01*
X129312970Y-102310628D02*
X129270113Y-102396342D01*
X129270113Y-102396342D02*
X129227255Y-102439200D01*
X129227255Y-102439200D02*
X129141541Y-102482057D01*
X129141541Y-102482057D02*
X128970113Y-102482057D01*
X128970113Y-102482057D02*
X128884398Y-102439200D01*
X129612970Y-101882057D02*
X129827256Y-102482057D01*
X130041541Y-101882057D02*
X129827256Y-102482057D01*
X129827256Y-102482057D02*
X129741541Y-102696342D01*
X129741541Y-102696342D02*
X129698684Y-102739200D01*
X129698684Y-102739200D02*
X129612970Y-102782057D01*
X130384398Y-102482057D02*
X130384398Y-101882057D01*
X130384398Y-102053485D02*
X130427255Y-101967771D01*
X130427255Y-101967771D02*
X130470113Y-101924914D01*
X130470113Y-101924914D02*
X130555827Y-101882057D01*
X130555827Y-101882057D02*
X130641541Y-101882057D01*
X130941541Y-102482057D02*
X130941541Y-101882057D01*
X130941541Y-101582057D02*
X130898684Y-101624914D01*
X130898684Y-101624914D02*
X130941541Y-101667771D01*
X130941541Y-101667771D02*
X130984398Y-101624914D01*
X130984398Y-101624914D02*
X130941541Y-101582057D01*
X130941541Y-101582057D02*
X130941541Y-101667771D01*
X131755827Y-101882057D02*
X131755827Y-102610628D01*
X131755827Y-102610628D02*
X131712969Y-102696342D01*
X131712969Y-102696342D02*
X131670112Y-102739200D01*
X131670112Y-102739200D02*
X131584398Y-102782057D01*
X131584398Y-102782057D02*
X131455827Y-102782057D01*
X131455827Y-102782057D02*
X131370112Y-102739200D01*
X131755827Y-102439200D02*
X131670112Y-102482057D01*
X131670112Y-102482057D02*
X131498684Y-102482057D01*
X131498684Y-102482057D02*
X131412969Y-102439200D01*
X131412969Y-102439200D02*
X131370112Y-102396342D01*
X131370112Y-102396342D02*
X131327255Y-102310628D01*
X131327255Y-102310628D02*
X131327255Y-102053485D01*
X131327255Y-102053485D02*
X131370112Y-101967771D01*
X131370112Y-101967771D02*
X131412969Y-101924914D01*
X131412969Y-101924914D02*
X131498684Y-101882057D01*
X131498684Y-101882057D02*
X131670112Y-101882057D01*
X131670112Y-101882057D02*
X131755827Y-101924914D01*
X132184398Y-102482057D02*
X132184398Y-101582057D01*
X132570113Y-102482057D02*
X132570113Y-102010628D01*
X132570113Y-102010628D02*
X132527255Y-101924914D01*
X132527255Y-101924914D02*
X132441541Y-101882057D01*
X132441541Y-101882057D02*
X132312970Y-101882057D01*
X132312970Y-101882057D02*
X132227255Y-101924914D01*
X132227255Y-101924914D02*
X132184398Y-101967771D01*
X132870113Y-101882057D02*
X133212970Y-101882057D01*
X132998684Y-101582057D02*
X132998684Y-102353485D01*
X132998684Y-102353485D02*
X133041541Y-102439200D01*
X133041541Y-102439200D02*
X133127256Y-102482057D01*
X133127256Y-102482057D02*
X133212970Y-102482057D01*
X134155827Y-101667771D02*
X134198684Y-101624914D01*
X134198684Y-101624914D02*
X134284399Y-101582057D01*
X134284399Y-101582057D02*
X134498684Y-101582057D01*
X134498684Y-101582057D02*
X134584399Y-101624914D01*
X134584399Y-101624914D02*
X134627256Y-101667771D01*
X134627256Y-101667771D02*
X134670113Y-101753485D01*
X134670113Y-101753485D02*
X134670113Y-101839200D01*
X134670113Y-101839200D02*
X134627256Y-101967771D01*
X134627256Y-101967771D02*
X134112970Y-102482057D01*
X134112970Y-102482057D02*
X134670113Y-102482057D01*
X135227256Y-101582057D02*
X135312970Y-101582057D01*
X135312970Y-101582057D02*
X135398684Y-101624914D01*
X135398684Y-101624914D02*
X135441542Y-101667771D01*
X135441542Y-101667771D02*
X135484399Y-101753485D01*
X135484399Y-101753485D02*
X135527256Y-101924914D01*
X135527256Y-101924914D02*
X135527256Y-102139200D01*
X135527256Y-102139200D02*
X135484399Y-102310628D01*
X135484399Y-102310628D02*
X135441542Y-102396342D01*
X135441542Y-102396342D02*
X135398684Y-102439200D01*
X135398684Y-102439200D02*
X135312970Y-102482057D01*
X135312970Y-102482057D02*
X135227256Y-102482057D01*
X135227256Y-102482057D02*
X135141542Y-102439200D01*
X135141542Y-102439200D02*
X135098684Y-102396342D01*
X135098684Y-102396342D02*
X135055827Y-102310628D01*
X135055827Y-102310628D02*
X135012970Y-102139200D01*
X135012970Y-102139200D02*
X135012970Y-101924914D01*
X135012970Y-101924914D02*
X135055827Y-101753485D01*
X135055827Y-101753485D02*
X135098684Y-101667771D01*
X135098684Y-101667771D02*
X135141542Y-101624914D01*
X135141542Y-101624914D02*
X135227256Y-101582057D01*
X135870113Y-101667771D02*
X135912970Y-101624914D01*
X135912970Y-101624914D02*
X135998685Y-101582057D01*
X135998685Y-101582057D02*
X136212970Y-101582057D01*
X136212970Y-101582057D02*
X136298685Y-101624914D01*
X136298685Y-101624914D02*
X136341542Y-101667771D01*
X136341542Y-101667771D02*
X136384399Y-101753485D01*
X136384399Y-101753485D02*
X136384399Y-101839200D01*
X136384399Y-101839200D02*
X136341542Y-101967771D01*
X136341542Y-101967771D02*
X135827256Y-102482057D01*
X135827256Y-102482057D02*
X136384399Y-102482057D01*
X137155828Y-101582057D02*
X136984399Y-101582057D01*
X136984399Y-101582057D02*
X136898685Y-101624914D01*
X136898685Y-101624914D02*
X136855828Y-101667771D01*
X136855828Y-101667771D02*
X136770113Y-101796342D01*
X136770113Y-101796342D02*
X136727256Y-101967771D01*
X136727256Y-101967771D02*
X136727256Y-102310628D01*
X136727256Y-102310628D02*
X136770113Y-102396342D01*
X136770113Y-102396342D02*
X136812970Y-102439200D01*
X136812970Y-102439200D02*
X136898685Y-102482057D01*
X136898685Y-102482057D02*
X137070113Y-102482057D01*
X137070113Y-102482057D02*
X137155828Y-102439200D01*
X137155828Y-102439200D02*
X137198685Y-102396342D01*
X137198685Y-102396342D02*
X137241542Y-102310628D01*
X137241542Y-102310628D02*
X137241542Y-102096342D01*
X137241542Y-102096342D02*
X137198685Y-102010628D01*
X137198685Y-102010628D02*
X137155828Y-101967771D01*
X137155828Y-101967771D02*
X137070113Y-101924914D01*
X137070113Y-101924914D02*
X136898685Y-101924914D01*
X136898685Y-101924914D02*
X136812970Y-101967771D01*
X136812970Y-101967771D02*
X136770113Y-102010628D01*
X136770113Y-102010628D02*
X136727256Y-102096342D01*
X138270113Y-102224914D02*
X138698685Y-102224914D01*
X138184399Y-102482057D02*
X138484399Y-101582057D01*
X138484399Y-101582057D02*
X138784399Y-102482057D01*
X139212971Y-102482057D02*
X139127256Y-102439200D01*
X139127256Y-102439200D02*
X139084399Y-102353485D01*
X139084399Y-102353485D02*
X139084399Y-101582057D01*
X139684400Y-102482057D02*
X139598685Y-102439200D01*
X139598685Y-102439200D02*
X139555828Y-102353485D01*
X139555828Y-102353485D02*
X139555828Y-101582057D01*
X141227257Y-102482057D02*
X140927257Y-102053485D01*
X140712971Y-102482057D02*
X140712971Y-101582057D01*
X140712971Y-101582057D02*
X141055828Y-101582057D01*
X141055828Y-101582057D02*
X141141543Y-101624914D01*
X141141543Y-101624914D02*
X141184400Y-101667771D01*
X141184400Y-101667771D02*
X141227257Y-101753485D01*
X141227257Y-101753485D02*
X141227257Y-101882057D01*
X141227257Y-101882057D02*
X141184400Y-101967771D01*
X141184400Y-101967771D02*
X141141543Y-102010628D01*
X141141543Y-102010628D02*
X141055828Y-102053485D01*
X141055828Y-102053485D02*
X140712971Y-102053485D01*
X141612971Y-102482057D02*
X141612971Y-101882057D01*
X141612971Y-101582057D02*
X141570114Y-101624914D01*
X141570114Y-101624914D02*
X141612971Y-101667771D01*
X141612971Y-101667771D02*
X141655828Y-101624914D01*
X141655828Y-101624914D02*
X141612971Y-101582057D01*
X141612971Y-101582057D02*
X141612971Y-101667771D01*
X142427257Y-101882057D02*
X142427257Y-102610628D01*
X142427257Y-102610628D02*
X142384399Y-102696342D01*
X142384399Y-102696342D02*
X142341542Y-102739200D01*
X142341542Y-102739200D02*
X142255828Y-102782057D01*
X142255828Y-102782057D02*
X142127257Y-102782057D01*
X142127257Y-102782057D02*
X142041542Y-102739200D01*
X142427257Y-102439200D02*
X142341542Y-102482057D01*
X142341542Y-102482057D02*
X142170114Y-102482057D01*
X142170114Y-102482057D02*
X142084399Y-102439200D01*
X142084399Y-102439200D02*
X142041542Y-102396342D01*
X142041542Y-102396342D02*
X141998685Y-102310628D01*
X141998685Y-102310628D02*
X141998685Y-102053485D01*
X141998685Y-102053485D02*
X142041542Y-101967771D01*
X142041542Y-101967771D02*
X142084399Y-101924914D01*
X142084399Y-101924914D02*
X142170114Y-101882057D01*
X142170114Y-101882057D02*
X142341542Y-101882057D01*
X142341542Y-101882057D02*
X142427257Y-101924914D01*
X142855828Y-102482057D02*
X142855828Y-101582057D01*
X143241543Y-102482057D02*
X143241543Y-102010628D01*
X143241543Y-102010628D02*
X143198685Y-101924914D01*
X143198685Y-101924914D02*
X143112971Y-101882057D01*
X143112971Y-101882057D02*
X142984400Y-101882057D01*
X142984400Y-101882057D02*
X142898685Y-101924914D01*
X142898685Y-101924914D02*
X142855828Y-101967771D01*
X143541543Y-101882057D02*
X143884400Y-101882057D01*
X143670114Y-101582057D02*
X143670114Y-102353485D01*
X143670114Y-102353485D02*
X143712971Y-102439200D01*
X143712971Y-102439200D02*
X143798686Y-102482057D01*
X143798686Y-102482057D02*
X143884400Y-102482057D01*
X144141543Y-102439200D02*
X144227257Y-102482057D01*
X144227257Y-102482057D02*
X144398686Y-102482057D01*
X144398686Y-102482057D02*
X144484400Y-102439200D01*
X144484400Y-102439200D02*
X144527257Y-102353485D01*
X144527257Y-102353485D02*
X144527257Y-102310628D01*
X144527257Y-102310628D02*
X144484400Y-102224914D01*
X144484400Y-102224914D02*
X144398686Y-102182057D01*
X144398686Y-102182057D02*
X144270115Y-102182057D01*
X144270115Y-102182057D02*
X144184400Y-102139200D01*
X144184400Y-102139200D02*
X144141543Y-102053485D01*
X144141543Y-102053485D02*
X144141543Y-102010628D01*
X144141543Y-102010628D02*
X144184400Y-101924914D01*
X144184400Y-101924914D02*
X144270115Y-101882057D01*
X144270115Y-101882057D02*
X144398686Y-101882057D01*
X144398686Y-101882057D02*
X144484400Y-101924914D01*
X146112971Y-102482057D02*
X145812971Y-102053485D01*
X145598685Y-102482057D02*
X145598685Y-101582057D01*
X145598685Y-101582057D02*
X145941542Y-101582057D01*
X145941542Y-101582057D02*
X146027257Y-101624914D01*
X146027257Y-101624914D02*
X146070114Y-101667771D01*
X146070114Y-101667771D02*
X146112971Y-101753485D01*
X146112971Y-101753485D02*
X146112971Y-101882057D01*
X146112971Y-101882057D02*
X146070114Y-101967771D01*
X146070114Y-101967771D02*
X146027257Y-102010628D01*
X146027257Y-102010628D02*
X145941542Y-102053485D01*
X145941542Y-102053485D02*
X145598685Y-102053485D01*
X146841542Y-102439200D02*
X146755828Y-102482057D01*
X146755828Y-102482057D02*
X146584400Y-102482057D01*
X146584400Y-102482057D02*
X146498685Y-102439200D01*
X146498685Y-102439200D02*
X146455828Y-102353485D01*
X146455828Y-102353485D02*
X146455828Y-102010628D01*
X146455828Y-102010628D02*
X146498685Y-101924914D01*
X146498685Y-101924914D02*
X146584400Y-101882057D01*
X146584400Y-101882057D02*
X146755828Y-101882057D01*
X146755828Y-101882057D02*
X146841542Y-101924914D01*
X146841542Y-101924914D02*
X146884400Y-102010628D01*
X146884400Y-102010628D02*
X146884400Y-102096342D01*
X146884400Y-102096342D02*
X146455828Y-102182057D01*
X147227257Y-102439200D02*
X147312971Y-102482057D01*
X147312971Y-102482057D02*
X147484400Y-102482057D01*
X147484400Y-102482057D02*
X147570114Y-102439200D01*
X147570114Y-102439200D02*
X147612971Y-102353485D01*
X147612971Y-102353485D02*
X147612971Y-102310628D01*
X147612971Y-102310628D02*
X147570114Y-102224914D01*
X147570114Y-102224914D02*
X147484400Y-102182057D01*
X147484400Y-102182057D02*
X147355829Y-102182057D01*
X147355829Y-102182057D02*
X147270114Y-102139200D01*
X147270114Y-102139200D02*
X147227257Y-102053485D01*
X147227257Y-102053485D02*
X147227257Y-102010628D01*
X147227257Y-102010628D02*
X147270114Y-101924914D01*
X147270114Y-101924914D02*
X147355829Y-101882057D01*
X147355829Y-101882057D02*
X147484400Y-101882057D01*
X147484400Y-101882057D02*
X147570114Y-101924914D01*
X148341542Y-102439200D02*
X148255828Y-102482057D01*
X148255828Y-102482057D02*
X148084400Y-102482057D01*
X148084400Y-102482057D02*
X147998685Y-102439200D01*
X147998685Y-102439200D02*
X147955828Y-102353485D01*
X147955828Y-102353485D02*
X147955828Y-102010628D01*
X147955828Y-102010628D02*
X147998685Y-101924914D01*
X147998685Y-101924914D02*
X148084400Y-101882057D01*
X148084400Y-101882057D02*
X148255828Y-101882057D01*
X148255828Y-101882057D02*
X148341542Y-101924914D01*
X148341542Y-101924914D02*
X148384400Y-102010628D01*
X148384400Y-102010628D02*
X148384400Y-102096342D01*
X148384400Y-102096342D02*
X147955828Y-102182057D01*
X148770114Y-102482057D02*
X148770114Y-101882057D01*
X148770114Y-102053485D02*
X148812971Y-101967771D01*
X148812971Y-101967771D02*
X148855829Y-101924914D01*
X148855829Y-101924914D02*
X148941543Y-101882057D01*
X148941543Y-101882057D02*
X149027257Y-101882057D01*
X149241543Y-101882057D02*
X149455829Y-102482057D01*
X149455829Y-102482057D02*
X149670114Y-101882057D01*
X150355828Y-102439200D02*
X150270114Y-102482057D01*
X150270114Y-102482057D02*
X150098686Y-102482057D01*
X150098686Y-102482057D02*
X150012971Y-102439200D01*
X150012971Y-102439200D02*
X149970114Y-102353485D01*
X149970114Y-102353485D02*
X149970114Y-102010628D01*
X149970114Y-102010628D02*
X150012971Y-101924914D01*
X150012971Y-101924914D02*
X150098686Y-101882057D01*
X150098686Y-101882057D02*
X150270114Y-101882057D01*
X150270114Y-101882057D02*
X150355828Y-101924914D01*
X150355828Y-101924914D02*
X150398686Y-102010628D01*
X150398686Y-102010628D02*
X150398686Y-102096342D01*
X150398686Y-102096342D02*
X149970114Y-102182057D01*
X151170115Y-102482057D02*
X151170115Y-101582057D01*
X151170115Y-102439200D02*
X151084400Y-102482057D01*
X151084400Y-102482057D02*
X150912972Y-102482057D01*
X150912972Y-102482057D02*
X150827257Y-102439200D01*
X150827257Y-102439200D02*
X150784400Y-102396342D01*
X150784400Y-102396342D02*
X150741543Y-102310628D01*
X150741543Y-102310628D02*
X150741543Y-102053485D01*
X150741543Y-102053485D02*
X150784400Y-101967771D01*
X150784400Y-101967771D02*
X150827257Y-101924914D01*
X150827257Y-101924914D02*
X150912972Y-101882057D01*
X150912972Y-101882057D02*
X151084400Y-101882057D01*
X151084400Y-101882057D02*
X151170115Y-101924914D01*
X145251064Y-123670485D02*
X145289160Y-123632390D01*
X145289160Y-123632390D02*
X145365350Y-123594295D01*
X145365350Y-123594295D02*
X145555826Y-123594295D01*
X145555826Y-123594295D02*
X145632017Y-123632390D01*
X145632017Y-123632390D02*
X145670112Y-123670485D01*
X145670112Y-123670485D02*
X145708207Y-123746676D01*
X145708207Y-123746676D02*
X145708207Y-123822866D01*
X145708207Y-123822866D02*
X145670112Y-123937152D01*
X145670112Y-123937152D02*
X145212969Y-124394295D01*
X145212969Y-124394295D02*
X145708207Y-124394295D01*
X146432017Y-123594295D02*
X146051065Y-123594295D01*
X146051065Y-123594295D02*
X146012969Y-123975247D01*
X146012969Y-123975247D02*
X146051065Y-123937152D01*
X146051065Y-123937152D02*
X146127255Y-123899057D01*
X146127255Y-123899057D02*
X146317731Y-123899057D01*
X146317731Y-123899057D02*
X146393922Y-123937152D01*
X146393922Y-123937152D02*
X146432017Y-123975247D01*
X146432017Y-123975247D02*
X146470112Y-124051438D01*
X146470112Y-124051438D02*
X146470112Y-124241914D01*
X146470112Y-124241914D02*
X146432017Y-124318104D01*
X146432017Y-124318104D02*
X146393922Y-124356200D01*
X146393922Y-124356200D02*
X146317731Y-124394295D01*
X146317731Y-124394295D02*
X146127255Y-124394295D01*
X146127255Y-124394295D02*
X146051065Y-124356200D01*
X146051065Y-124356200D02*
X146012969Y-124318104D01*
X101305704Y-112108207D02*
X101305704Y-111651064D01*
X101305704Y-111879636D02*
X102105704Y-111879636D01*
X102105704Y-111879636D02*
X101991419Y-111803445D01*
X101991419Y-111803445D02*
X101915228Y-111727255D01*
X101915228Y-111727255D02*
X101877133Y-111651064D01*
X155312969Y-123594295D02*
X155808207Y-123594295D01*
X155808207Y-123594295D02*
X155541541Y-123899057D01*
X155541541Y-123899057D02*
X155655826Y-123899057D01*
X155655826Y-123899057D02*
X155732017Y-123937152D01*
X155732017Y-123937152D02*
X155770112Y-123975247D01*
X155770112Y-123975247D02*
X155808207Y-124051438D01*
X155808207Y-124051438D02*
X155808207Y-124241914D01*
X155808207Y-124241914D02*
X155770112Y-124318104D01*
X155770112Y-124318104D02*
X155732017Y-124356200D01*
X155732017Y-124356200D02*
X155655826Y-124394295D01*
X155655826Y-124394295D02*
X155427255Y-124394295D01*
X155427255Y-124394295D02*
X155351064Y-124356200D01*
X155351064Y-124356200D02*
X155312969Y-124318104D01*
X156074874Y-123594295D02*
X156570112Y-123594295D01*
X156570112Y-123594295D02*
X156303446Y-123899057D01*
X156303446Y-123899057D02*
X156417731Y-123899057D01*
X156417731Y-123899057D02*
X156493922Y-123937152D01*
X156493922Y-123937152D02*
X156532017Y-123975247D01*
X156532017Y-123975247D02*
X156570112Y-124051438D01*
X156570112Y-124051438D02*
X156570112Y-124241914D01*
X156570112Y-124241914D02*
X156532017Y-124318104D01*
X156532017Y-124318104D02*
X156493922Y-124356200D01*
X156493922Y-124356200D02*
X156417731Y-124394295D01*
X156417731Y-124394295D02*
X156189160Y-124394295D01*
X156189160Y-124394295D02*
X156112969Y-124356200D01*
X156112969Y-124356200D02*
X156074874Y-124318104D01*
D11*
X104445067Y-109666666D02*
X104445067Y-109933332D01*
X104864115Y-109933332D02*
X104064115Y-109933332D01*
X104064115Y-109933332D02*
X104064115Y-109552380D01*
X104864115Y-109247618D02*
X104064115Y-109247618D01*
X104064115Y-109247618D02*
X104064115Y-108942856D01*
X104064115Y-108942856D02*
X104102210Y-108866666D01*
X104102210Y-108866666D02*
X104140305Y-108828571D01*
X104140305Y-108828571D02*
X104216496Y-108790475D01*
X104216496Y-108790475D02*
X104330781Y-108790475D01*
X104330781Y-108790475D02*
X104406972Y-108828571D01*
X104406972Y-108828571D02*
X104445067Y-108866666D01*
X104445067Y-108866666D02*
X104483162Y-108942856D01*
X104483162Y-108942856D02*
X104483162Y-109247618D01*
X104787924Y-107990475D02*
X104826020Y-108028571D01*
X104826020Y-108028571D02*
X104864115Y-108142856D01*
X104864115Y-108142856D02*
X104864115Y-108219047D01*
X104864115Y-108219047D02*
X104826020Y-108333333D01*
X104826020Y-108333333D02*
X104749829Y-108409523D01*
X104749829Y-108409523D02*
X104673639Y-108447618D01*
X104673639Y-108447618D02*
X104521258Y-108485714D01*
X104521258Y-108485714D02*
X104406972Y-108485714D01*
X104406972Y-108485714D02*
X104254591Y-108447618D01*
X104254591Y-108447618D02*
X104178400Y-108409523D01*
X104178400Y-108409523D02*
X104102210Y-108333333D01*
X104102210Y-108333333D02*
X104064115Y-108219047D01*
X104064115Y-108219047D02*
X104064115Y-108142856D01*
X104064115Y-108142856D02*
X104102210Y-108028571D01*
X104102210Y-108028571D02*
X104140305Y-107990475D01*
X104864115Y-107228571D02*
X104864115Y-107685714D01*
X104864115Y-107457142D02*
X104064115Y-107457142D01*
X104064115Y-107457142D02*
X104178400Y-107533333D01*
X104178400Y-107533333D02*
X104254591Y-107609523D01*
X104254591Y-107609523D02*
X104292686Y-107685714D01*
%TO.C,J1_Odd1*%
D12*
X164980000Y-123010000D02*
X164980000Y-120250000D01*
X116610000Y-123010000D02*
X164980000Y-123010000D01*
X116610000Y-123010000D02*
X116610000Y-120250000D01*
X116610000Y-120250000D02*
X164980000Y-120250000D01*
X115340000Y-123010000D02*
X113960000Y-123010000D01*
X113960000Y-123010000D02*
X113960000Y-121630000D01*
%TO.C,J1_Even1*%
X164980000Y-115390000D02*
X164980000Y-112630000D01*
X116610000Y-115390000D02*
X164980000Y-115390000D01*
X116610000Y-115390000D02*
X116610000Y-112630000D01*
X116610000Y-112630000D02*
X164980000Y-112630000D01*
X115340000Y-115390000D02*
X113960000Y-115390000D01*
X113960000Y-115390000D02*
X113960000Y-114010000D01*
%TO.C,FPC1*%
D13*
X102400000Y-111250000D02*
G75*
G02*
X102200000Y-111250000I-100000J0D01*
G01*
X102200000Y-111250000D02*
G75*
G02*
X102400000Y-111250000I100000J0D01*
G01*
%TD*%
M02*
