M48
METRIC
T1C0.300
T2C1.000
T3C2.700
%
G90
G05
T1
X101.2Y-119.268
X101.2Y-127.1
X101.55Y-118.325
X101.994Y-117.659
X102.0Y-127.7
X103.4Y-109.8
X103.5Y-126.8
X104.009Y-120.286
X104.144Y-114.107
X104.18Y-115.307
X104.199Y-112.9
X104.274Y-116.926
X104.35Y-116.088
X104.6Y-111.2
X104.795Y-113.532
X104.815Y-114.786
X104.948Y-112.129
X106.0Y-129.4
X166.4Y-114.1
T2
X115.34Y-114.01
X115.34Y-121.63
X117.88Y-114.01
X117.88Y-121.63
X120.42Y-114.01
X120.42Y-121.63
X122.96Y-114.01
X122.96Y-121.63
X125.5Y-114.01
X125.5Y-121.63
X128.04Y-114.01
X128.04Y-121.63
X130.58Y-114.01
X130.58Y-121.63
X133.12Y-114.01
X133.12Y-121.63
X135.66Y-114.01
X135.66Y-121.63
X138.2Y-114.01
X138.2Y-121.63
X140.74Y-114.01
X140.74Y-121.63
X143.28Y-114.01
X143.28Y-121.63
X145.82Y-114.01
X145.82Y-121.63
X148.36Y-114.01
X148.36Y-121.63
X150.9Y-114.01
X150.9Y-121.63
X153.44Y-114.01
X153.44Y-121.63
X155.98Y-114.01
X155.98Y-121.63
X158.52Y-114.01
X158.52Y-121.63
X161.06Y-114.01
X161.06Y-121.63
X163.6Y-114.01
X163.6Y-121.63
T3
X103.5Y-103.5
X103.5Y-131.75
X166.75Y-103.1
X166.75Y-131.75
M30
