%TF.GenerationSoftware,KiCad,Pcbnew,10.0.1*%
%TF.CreationDate,2026-05-20T18:33:21-05:00*%
%TF.ProjectId,LCD_FFC_FPC_to_DIP_Breakout,4c43445f-4646-4435-9f46-50435f746f5f,rev?*%
%TF.SameCoordinates,Original*%
%TF.FileFunction,Paste,Top*%
%TF.FilePolarity,Positive*%
%FSLAX46Y46*%
G04 Gerber Fmt 4.6, Leading zero omitted, Abs format (unit mm)*
G04 Created by KiCad (PCBNEW 10.0.1) date 2026-05-20 18:33:21*
%MOMM*%
%LPD*%
G01*
G04 APERTURE LIST*
%ADD10R,0.950000X0.400000*%
%ADD11R,0.800000X0.300000*%
%ADD12R,0.650000X0.300000*%
G04 APERTURE END LIST*
D10*
%TO.C,FPC1*%
X103375000Y-123900000D03*
X103375000Y-111100000D03*
D11*
X103100000Y-123200000D03*
D12*
X105975000Y-122900000D03*
D11*
X103100000Y-122600000D03*
D12*
X105975000Y-122300000D03*
D11*
X103100000Y-122000000D03*
D12*
X105975000Y-121700000D03*
D11*
X103100000Y-121400000D03*
D12*
X105975000Y-121100000D03*
D11*
X103100000Y-120800000D03*
D12*
X105975000Y-120500000D03*
D11*
X103100000Y-120200000D03*
D12*
X105975000Y-119900000D03*
D11*
X103100000Y-119600000D03*
D12*
X105975000Y-119300000D03*
D11*
X103100000Y-119000000D03*
D12*
X105975000Y-118700000D03*
D11*
X103100000Y-118400000D03*
D12*
X105975000Y-118100000D03*
D11*
X103100000Y-117800000D03*
D12*
X105975000Y-117500000D03*
D11*
X103100000Y-117200000D03*
D12*
X105975000Y-116900000D03*
D11*
X103100000Y-116600000D03*
D12*
X105975000Y-116300000D03*
D11*
X103100000Y-116000000D03*
D12*
X105975000Y-115700000D03*
D11*
X103100000Y-115400000D03*
D12*
X105975000Y-115100000D03*
D11*
X103100000Y-114800000D03*
D12*
X105975000Y-114500000D03*
D11*
X103100000Y-114200000D03*
D12*
X105975000Y-113900000D03*
D11*
X103100000Y-113600000D03*
D12*
X105975000Y-113300000D03*
D11*
X103100000Y-113000000D03*
D12*
X105975000Y-112700000D03*
D11*
X103100000Y-112400000D03*
D12*
X105975000Y-112100000D03*
D11*
X103100000Y-111800000D03*
%TD*%
M02*
