%TF.GenerationSoftware,KiCad,Pcbnew,10.0.1*%
%TF.CreationDate,2026-05-20T18:33:21-05:00*%
%TF.ProjectId,LCD_FFC_FPC_to_DIP_Breakout,4c43445f-4646-4435-9f46-50435f746f5f,rev?*%
%TF.SameCoordinates,Original*%
%TF.FileFunction,Soldermask,Top*%
%TF.FilePolarity,Negative*%
%FSLAX46Y46*%
G04 Gerber Fmt 4.6, Leading zero omitted, Abs format (unit mm)*
G04 Created by KiCad (PCBNEW 10.0.1) date 2026-05-20 18:33:21*
%MOMM*%
%LPD*%
G01*
G04 APERTURE LIST*
G04 Aperture macros list*
%AMRoundRect*
0 Rectangle with rounded corners*
0 $1 Rounding radius*
0 $2 $3 $4 $5 $6 $7 $8 $9 X,Y pos of 4 corners*
0 Add a 4 corners polygon primitive as box body*
4,1,4,$2,$3,$4,$5,$6,$7,$8,$9,$2,$3,0*
0 Add four circle primitives for the rounded corners*
1,1,$1+$1,$2,$3*
1,1,$1+$1,$4,$5*
1,1,$1+$1,$6,$7*
1,1,$1+$1,$8,$9*
0 Add four rect primitives between the rounded corners*
20,1,$1+$1,$2,$3,$4,$5,0*
20,1,$1+$1,$4,$5,$6,$7,0*
20,1,$1+$1,$6,$7,$8,$9,0*
20,1,$1+$1,$8,$9,$2,$3,0*%
G04 Aperture macros list end*
%ADD10C,5.400000*%
%ADD11C,1.700000*%
%ADD12R,1.700000X1.700000*%
%ADD13RoundRect,0.102000X-0.475000X0.200000X-0.475000X-0.200000X0.475000X-0.200000X0.475000X0.200000X0*%
%ADD14RoundRect,0.102000X-0.400000X0.150000X-0.400000X-0.150000X0.400000X-0.150000X0.400000X0.150000X0*%
%ADD15RoundRect,0.102000X-0.325000X0.150000X-0.325000X-0.150000X0.325000X-0.150000X0.325000X0.150000X0*%
G04 APERTURE END LIST*
D10*
%TO.C,REF\u002A\u002A*%
X166750000Y-103100000D03*
%TD*%
%TO.C,REF\u002A\u002A*%
X103500000Y-103500000D03*
%TD*%
%TO.C,REF\u002A\u002A*%
X103500000Y-131750000D03*
%TD*%
%TO.C,REF\u002A\u002A*%
X166750000Y-131750000D03*
%TD*%
D11*
%TO.C,J1_Odd1*%
X163600000Y-121630000D03*
X161060000Y-121630000D03*
X158520000Y-121630000D03*
X155980000Y-121630000D03*
X153440000Y-121630000D03*
X150900000Y-121630000D03*
X148360000Y-121630000D03*
X145820000Y-121630000D03*
X143280000Y-121630000D03*
X140740000Y-121630000D03*
X138200000Y-121630000D03*
X135660000Y-121630000D03*
X133120000Y-121630000D03*
X130580000Y-121630000D03*
X128040000Y-121630000D03*
X125500000Y-121630000D03*
X122960000Y-121630000D03*
X120420000Y-121630000D03*
X117880000Y-121630000D03*
D12*
X115340000Y-121630000D03*
%TD*%
D11*
%TO.C,J1_Even1*%
X163600000Y-114010000D03*
X161060000Y-114010000D03*
X158520000Y-114010000D03*
X155980000Y-114010000D03*
X153440000Y-114010000D03*
X150900000Y-114010000D03*
X148360000Y-114010000D03*
X145820000Y-114010000D03*
X143280000Y-114010000D03*
X140740000Y-114010000D03*
X138200000Y-114010000D03*
X135660000Y-114010000D03*
X133120000Y-114010000D03*
X130580000Y-114010000D03*
X128040000Y-114010000D03*
X125500000Y-114010000D03*
X122960000Y-114010000D03*
X120420000Y-114010000D03*
X117880000Y-114010000D03*
D12*
X115340000Y-114010000D03*
%TD*%
D13*
%TO.C,FPC1*%
X103375000Y-123900000D03*
X103375000Y-111100000D03*
D14*
X103100000Y-123200000D03*
D15*
X105975000Y-122900000D03*
D14*
X103100000Y-122600000D03*
D15*
X105975000Y-122300000D03*
D14*
X103100000Y-122000000D03*
D15*
X105975000Y-121700000D03*
D14*
X103100000Y-121400000D03*
D15*
X105975000Y-121100000D03*
D14*
X103100000Y-120800000D03*
D15*
X105975000Y-120500000D03*
D14*
X103100000Y-120200000D03*
D15*
X105975000Y-119900000D03*
D14*
X103100000Y-119600000D03*
D15*
X105975000Y-119300000D03*
D14*
X103100000Y-119000000D03*
D15*
X105975000Y-118700000D03*
D14*
X103100000Y-118400000D03*
D15*
X105975000Y-118100000D03*
D14*
X103100000Y-117800000D03*
D15*
X105975000Y-117500000D03*
D14*
X103100000Y-117200000D03*
D15*
X105975000Y-116900000D03*
D14*
X103100000Y-116600000D03*
D15*
X105975000Y-116300000D03*
D14*
X103100000Y-116000000D03*
D15*
X105975000Y-115700000D03*
D14*
X103100000Y-115400000D03*
D15*
X105975000Y-115100000D03*
D14*
X103100000Y-114800000D03*
D15*
X105975000Y-114500000D03*
D14*
X103100000Y-114200000D03*
D15*
X105975000Y-113900000D03*
D14*
X103100000Y-113600000D03*
D15*
X105975000Y-113300000D03*
D14*
X103100000Y-113000000D03*
D15*
X105975000Y-112700000D03*
D14*
X103100000Y-112400000D03*
D15*
X105975000Y-112100000D03*
D14*
X103100000Y-111800000D03*
%TD*%
M02*
