%TF.GenerationSoftware,KiCad,Pcbnew,10.0.1*%
%TF.CreationDate,2026-05-20T18:33:21-05:00*%
%TF.ProjectId,LCD_FFC_FPC_to_DIP_Breakout,4c43445f-4646-4435-9f46-50435f746f5f,rev?*%
%TF.SameCoordinates,Original*%
%TF.FileFunction,Copper,L2,Bot*%
%TF.FilePolarity,Positive*%
%FSLAX46Y46*%
G04 Gerber Fmt 4.6, Leading zero omitted, Abs format (unit mm)*
G04 Created by KiCad (PCBNEW 10.0.1) date 2026-05-20 18:33:21*
%MOMM*%
%LPD*%
G01*
G04 APERTURE LIST*
%TA.AperFunction,ComponentPad*%
%ADD10C,5.400000*%
%TD*%
%TA.AperFunction,ComponentPad*%
%ADD11C,1.700000*%
%TD*%
%TA.AperFunction,ComponentPad*%
%ADD12R,1.700000X1.700000*%
%TD*%
%TA.AperFunction,ViaPad*%
%ADD13C,0.600000*%
%TD*%
%TA.AperFunction,Conductor*%
%ADD14C,0.200000*%
%TD*%
%TA.AperFunction,Conductor*%
%ADD15C,0.400000*%
%TD*%
G04 APERTURE END LIST*
D10*
%TO.P,REF\u002A\u002A,1*%
%TO.N,N/C*%
X166750000Y-103100000D03*
%TD*%
%TO.P,REF\u002A\u002A,1*%
%TO.N,N/C*%
X103500000Y-103500000D03*
%TD*%
%TO.P,REF\u002A\u002A,1*%
%TO.N,N/C*%
X103500000Y-131750000D03*
%TD*%
%TO.P,REF\u002A\u002A,1*%
%TO.N,N/C*%
X166750000Y-131750000D03*
%TD*%
D11*
%TO.P,J1_Odd1,39,Pin_39_39*%
%TO.N,/Pin39*%
X163600000Y-121630000D03*
%TO.P,J1_Odd1,37,Pin_37_37*%
%TO.N,/Pin37*%
X161060000Y-121630000D03*
%TO.P,J1_Odd1,35,Pin_35_35*%
%TO.N,/Pin35*%
X158520000Y-121630000D03*
%TO.P,J1_Odd1,33,Pin_33_33*%
%TO.N,/Pin33*%
X155980000Y-121630000D03*
%TO.P,J1_Odd1,31,Pin_31_31*%
%TO.N,/Pin31*%
X153440000Y-121630000D03*
%TO.P,J1_Odd1,29,Pin_29_29*%
%TO.N,/Pin29*%
X150900000Y-121630000D03*
%TO.P,J1_Odd1,27,Pin_27_27*%
%TO.N,/Pin27*%
X148360000Y-121630000D03*
%TO.P,J1_Odd1,25,Pin_25_25*%
%TO.N,/Pin25*%
X145820000Y-121630000D03*
%TO.P,J1_Odd1,23,Pin_23_23*%
%TO.N,/Pin23*%
X143280000Y-121630000D03*
%TO.P,J1_Odd1,21,Pin_21_21*%
%TO.N,/Pin21*%
X140740000Y-121630000D03*
%TO.P,J1_Odd1,19,Pin_19_19*%
%TO.N,/Pin19*%
X138200000Y-121630000D03*
%TO.P,J1_Odd1,17,Pin_17_17*%
%TO.N,/Pin17*%
X135660000Y-121630000D03*
%TO.P,J1_Odd1,15,Pin_15_15*%
%TO.N,/Pin15*%
X133120000Y-121630000D03*
%TO.P,J1_Odd1,13,Pin_13_13*%
%TO.N,/Pin13*%
X130580000Y-121630000D03*
%TO.P,J1_Odd1,11,Pin_11_11*%
%TO.N,/Pin11*%
X128040000Y-121630000D03*
%TO.P,J1_Odd1,9,Pin_9_9*%
%TO.N,/Pin9*%
X125500000Y-121630000D03*
%TO.P,J1_Odd1,7,Pin_7_7*%
%TO.N,/Pin7*%
X122960000Y-121630000D03*
%TO.P,J1_Odd1,5,Pin_5_5*%
%TO.N,/Pin5*%
X120420000Y-121630000D03*
%TO.P,J1_Odd1,3,Pin_3_3*%
%TO.N,/Pin3*%
X117880000Y-121630000D03*
D12*
%TO.P,J1_Odd1,1,Pin_1_1*%
%TO.N,/Pin1*%
X115340000Y-121630000D03*
%TD*%
D11*
%TO.P,J1_Even1,40,Pin_40_40*%
%TO.N,GND*%
X163600000Y-114010000D03*
%TO.P,J1_Even1,38,Pin_38_38*%
%TO.N,/Pin38*%
X161060000Y-114010000D03*
%TO.P,J1_Even1,36,Pin_36_36*%
%TO.N,/Pin36*%
X158520000Y-114010000D03*
%TO.P,J1_Even1,34,Pin_34_34*%
%TO.N,/Pin34*%
X155980000Y-114010000D03*
%TO.P,J1_Even1,32,Pin_32_32*%
%TO.N,/Pin32*%
X153440000Y-114010000D03*
%TO.P,J1_Even1,30,Pin_30_30*%
%TO.N,/Pin30*%
X150900000Y-114010000D03*
%TO.P,J1_Even1,28,Pin_28_28*%
%TO.N,/Pin28*%
X148360000Y-114010000D03*
%TO.P,J1_Even1,26,Pin_26_26*%
%TO.N,/Pin26*%
X145820000Y-114010000D03*
%TO.P,J1_Even1,24,Pin_24_24*%
%TO.N,/Pin24*%
X143280000Y-114010000D03*
%TO.P,J1_Even1,22,Pin_22_22*%
%TO.N,/Pin22*%
X140740000Y-114010000D03*
%TO.P,J1_Even1,20,Pin_20_20*%
%TO.N,/Pin20*%
X138200000Y-114010000D03*
%TO.P,J1_Even1,18,Pin_18_18*%
%TO.N,/Pin18*%
X135660000Y-114010000D03*
%TO.P,J1_Even1,16,Pin_16_16*%
%TO.N,/Pin16*%
X133120000Y-114010000D03*
%TO.P,J1_Even1,14,Pin_14_14*%
%TO.N,/Pin14*%
X130580000Y-114010000D03*
%TO.P,J1_Even1,12,Pin_12_12*%
%TO.N,/Pin12*%
X128040000Y-114010000D03*
%TO.P,J1_Even1,10,Pin_10_10*%
%TO.N,/Pin10*%
X125500000Y-114010000D03*
%TO.P,J1_Even1,8,Pin_8_8*%
%TO.N,/Pin8*%
X122960000Y-114010000D03*
%TO.P,J1_Even1,6,Pin_6_6*%
%TO.N,/Pin6*%
X120420000Y-114010000D03*
%TO.P,J1_Even1,4,Pin_4_4*%
%TO.N,/Pin4*%
X117880000Y-114010000D03*
D12*
%TO.P,J1_Even1,2,Pin_2_2*%
%TO.N,/Pin2*%
X115340000Y-114010000D03*
%TD*%
D13*
%TO.N,/Pin3*%
X104948167Y-112128846D03*
%TO.N,/Pin1*%
X104600000Y-111200000D03*
%TO.N,/Pin9*%
X104143707Y-114106678D03*
%TO.N,/Pin5*%
X104199283Y-112900000D03*
%TO.N,/Pin23*%
X101549999Y-118325173D03*
%TO.N,/Pin29*%
X106000000Y-129400000D03*
%TO.N,GND*%
X103500000Y-126800000D03*
%TO.N,/Pin11*%
X104814682Y-114786351D03*
%TO.N,/Pin7*%
X104794631Y-113531674D03*
%TO.N,/Pin13*%
X104179719Y-115306678D03*
%TO.N,/Pin19*%
X104008698Y-120285504D03*
%TO.N,/Pin21*%
X101993660Y-117659464D03*
%TO.N,/Pin27*%
X101200000Y-127100000D03*
%TO.N,/Pin17*%
X104274265Y-116925735D03*
%TO.N,/Pin15*%
X104349616Y-116088432D03*
%TO.N,/Pin25*%
X101200000Y-119267892D03*
%TO.N,GND*%
X166400000Y-114100000D03*
X103400000Y-109800000D03*
X102000000Y-127700000D03*
%TD*%
%TO.N,/Pin21*%
D14*
X110100000Y-132400000D02*
X139000000Y-132400000D01*
%TO.N,/Pin23*%
X102600000Y-125600000D02*
X106200000Y-125600000D01*
%TO.N,/Pin25*%
X145820000Y-131720000D02*
X145820000Y-121630000D01*
%TO.N,/Pin21*%
X140740000Y-129560000D02*
X140740000Y-121630000D01*
X103700000Y-124965685D02*
X103934315Y-125200000D01*
X140500000Y-129800000D02*
X140740000Y-129560000D01*
X103700000Y-124900000D02*
X103700000Y-124965685D01*
X102200000Y-117865804D02*
X102200000Y-124600000D01*
X140500000Y-130900000D02*
X140500000Y-129800000D01*
X101993660Y-117659464D02*
X102200000Y-117865804D01*
%TO.N,/Pin23*%
X141800000Y-132800000D02*
X143500000Y-131100000D01*
X109700000Y-129100000D02*
X109700000Y-132800000D01*
X101549999Y-118325173D02*
X101800000Y-118575174D01*
X143500000Y-131100000D02*
X143500000Y-125700000D01*
X106200000Y-125600000D02*
X109700000Y-129100000D01*
%TO.N,/Pin21*%
X102200000Y-124600000D02*
X102500000Y-124900000D01*
X103934315Y-125200000D02*
X106365685Y-125200000D01*
X102500000Y-124900000D02*
X103700000Y-124900000D01*
X106365685Y-125200000D02*
X110100000Y-128934315D01*
%TO.N,/Pin23*%
X101800000Y-118575174D02*
X101800000Y-124800000D01*
X109700000Y-132800000D02*
X141800000Y-132800000D01*
%TO.N,/Pin21*%
X110100000Y-128934315D02*
X110100000Y-132400000D01*
%TO.N,/Pin23*%
X143280000Y-125480000D02*
X143280000Y-121630000D01*
X143500000Y-125700000D02*
X143280000Y-125480000D01*
%TO.N,/Pin21*%
X139000000Y-132400000D02*
X140500000Y-130900000D01*
%TO.N,/Pin23*%
X101800000Y-124800000D02*
X102600000Y-125600000D01*
%TO.N,/Pin27*%
X108700000Y-129700000D02*
X108800000Y-129800000D01*
X102200000Y-128500000D02*
X103800000Y-128500000D01*
X108700000Y-129400000D02*
X108700000Y-129700000D01*
%TO.N,/Pin25*%
X109300000Y-129300000D02*
X109300000Y-133200000D01*
X146100000Y-132000000D02*
X145820000Y-131720000D01*
X102300000Y-126000000D02*
X106000000Y-126000000D01*
X101350000Y-119417892D02*
X101350000Y-125050000D01*
%TO.N,/Pin27*%
X104000000Y-128700000D02*
X108000000Y-128700000D01*
%TO.N,/Pin25*%
X109300000Y-133200000D02*
X144900000Y-133200000D01*
X101200000Y-119267892D02*
X101350000Y-119417892D01*
%TO.N,/Pin27*%
X148360000Y-128260000D02*
X148360000Y-121630000D01*
%TO.N,/Pin25*%
X106000000Y-126000000D02*
X109300000Y-129300000D01*
%TO.N,/Pin27*%
X148600000Y-128500000D02*
X148360000Y-128260000D01*
X146900000Y-133600000D02*
X147000000Y-133700000D01*
X101200000Y-128400000D02*
X102100000Y-128400000D01*
X101200000Y-127100000D02*
X101200000Y-128400000D01*
X108800000Y-129800000D02*
X108800000Y-133600000D01*
%TO.N,/Pin25*%
X101350000Y-125050000D02*
X102300000Y-126000000D01*
X144900000Y-133200000D02*
X146100000Y-132000000D01*
%TO.N,/Pin27*%
X148600000Y-132100000D02*
X148600000Y-128500000D01*
X108800000Y-133600000D02*
X146900000Y-133600000D01*
X102100000Y-128400000D02*
X102200000Y-128500000D01*
X103800000Y-128500000D02*
X104000000Y-128700000D01*
X108000000Y-128700000D02*
X108700000Y-129400000D01*
X147000000Y-133700000D02*
X148600000Y-132100000D01*
%TO.N,/Pin29*%
X148400000Y-134100000D02*
X148400000Y-133500000D01*
X108400000Y-134100000D02*
X148400000Y-134100000D01*
X108400000Y-130200000D02*
X108400000Y-134100000D01*
X150900000Y-131000000D02*
X150900000Y-121630000D01*
X107600000Y-129400000D02*
X108400000Y-130200000D01*
X106000000Y-129400000D02*
X107600000Y-129400000D01*
X148400000Y-133500000D02*
X150900000Y-131000000D01*
%TO.N,GND*%
X103500000Y-126800000D02*
X102900000Y-126800000D01*
X102900000Y-126800000D02*
X102000000Y-127700000D01*
%TO.N,/Pin5*%
X104199283Y-112900000D02*
X105100000Y-112900000D01*
%TO.N,/Pin1*%
D15*
X108200000Y-114629357D02*
X108200000Y-120500000D01*
%TO.N,/Pin3*%
D14*
X107700000Y-121500000D02*
X108194115Y-121500000D01*
X107700000Y-114934315D02*
X107700000Y-121500000D01*
%TO.N,/Pin5*%
X105100000Y-112900000D02*
X107200000Y-115000000D01*
X107200000Y-121900000D02*
X108028429Y-121900000D01*
%TO.N,/Pin3*%
X104948167Y-112182482D02*
X107700000Y-114934315D01*
%TO.N,/Pin5*%
X113700000Y-128900000D02*
X120200000Y-128900000D01*
X107200000Y-115000000D02*
X107200000Y-121900000D01*
%TO.N,/Pin1*%
D15*
X104600000Y-111100000D02*
X104800000Y-110900000D01*
%TO.N,/Pin5*%
D14*
X113700000Y-127571571D02*
X113700000Y-128900000D01*
%TO.N,/Pin3*%
X104948167Y-112128846D02*
X104948167Y-112182482D01*
X114100000Y-128500000D02*
X117500000Y-128500000D01*
%TO.N,/Pin1*%
D15*
X105441978Y-111341978D02*
X107841978Y-111341978D01*
%TO.N,/Pin3*%
D14*
X117880000Y-128120000D02*
X117880000Y-121630000D01*
%TO.N,/Pin1*%
D15*
X104600000Y-111200000D02*
X104600000Y-111100000D01*
%TO.N,/Pin5*%
D14*
X108028429Y-121900000D02*
X113700000Y-127571571D01*
%TO.N,/Pin1*%
D15*
X115340000Y-122860000D02*
X115340000Y-121630000D01*
X108600000Y-114229357D02*
X108200000Y-114629357D01*
X104800000Y-110900000D02*
X105000000Y-110900000D01*
X108600000Y-112100000D02*
X108600000Y-114229357D01*
%TO.N,/Pin3*%
D14*
X117500000Y-128500000D02*
X117880000Y-128120000D01*
%TO.N,/Pin1*%
D15*
X105000000Y-110900000D02*
X105441978Y-111341978D01*
X108200000Y-120500000D02*
X112200000Y-124500000D01*
X112200000Y-124500000D02*
X113700000Y-124500000D01*
%TO.N,/Pin3*%
D14*
X108194115Y-121500000D02*
X114100000Y-127405885D01*
X114100000Y-127405885D02*
X114100000Y-128500000D01*
%TO.N,/Pin1*%
D15*
X113700000Y-124500000D02*
X115340000Y-122860000D01*
X107841978Y-111341978D02*
X108600000Y-112100000D01*
%TO.N,/Pin7*%
D14*
X104974219Y-113531674D02*
X106800000Y-115357455D01*
%TO.N,/Pin5*%
X120420000Y-128680000D02*
X120420000Y-121630000D01*
X120200000Y-128900000D02*
X120420000Y-128680000D01*
%TO.N,/Pin7*%
X107962744Y-122400000D02*
X113300000Y-127737256D01*
X123200000Y-128200000D02*
X122960000Y-127960000D01*
X122960000Y-127960000D02*
X122960000Y-121630000D01*
%TO.N,/Pin9*%
X106300000Y-122800000D02*
X107797058Y-122800000D01*
X104406678Y-114106678D02*
X104486351Y-114186351D01*
X112900000Y-127902942D02*
X112900000Y-129700000D01*
X106300000Y-115423140D02*
X106300000Y-122800000D01*
%TO.N,/Pin7*%
X113300000Y-129300000D02*
X122100000Y-129300000D01*
X106800000Y-115357455D02*
X106800000Y-122400000D01*
X104794631Y-113531674D02*
X104974219Y-113531674D01*
X106800000Y-122400000D02*
X107962744Y-122400000D01*
X122100000Y-129300000D02*
X123200000Y-128200000D01*
X113300000Y-127737256D02*
X113300000Y-129300000D01*
%TO.N,/Pin9*%
X104486351Y-114186351D02*
X105063211Y-114186351D01*
%TO.N,/Pin11*%
X126500000Y-130100000D02*
X126500000Y-123170000D01*
X126500000Y-123170000D02*
X128040000Y-121630000D01*
%TO.N,/Pin13*%
X130200000Y-130500000D02*
X130580000Y-130120000D01*
X104948480Y-115768678D02*
X104948480Y-116051521D01*
%TO.N,/Pin9*%
X112900000Y-129700000D02*
X124300000Y-129700000D01*
X104143707Y-114106678D02*
X104406678Y-114106678D01*
X105063211Y-114186351D02*
X106300000Y-115423140D01*
%TO.N,/Pin11*%
X112500000Y-128068629D02*
X112500000Y-130100000D01*
%TO.N,/Pin9*%
X124500000Y-129500000D02*
X124500000Y-122630000D01*
X107797058Y-122800000D02*
X112900000Y-127902942D01*
%TO.N,/Pin11*%
X105808698Y-123200000D02*
X107631372Y-123200000D01*
X107631372Y-123200000D02*
X112500000Y-128068629D01*
X112500000Y-130100000D02*
X126500000Y-130100000D01*
%TO.N,/Pin9*%
X124300000Y-129700000D02*
X124500000Y-129500000D01*
X124500000Y-122630000D02*
X125500000Y-121630000D01*
%TO.N,/Pin11*%
X104814682Y-114786351D02*
X104814682Y-114914682D01*
X105808698Y-115908698D02*
X105808698Y-123200000D01*
%TO.N,/Pin13*%
X105408698Y-123600000D02*
X107465686Y-123600000D01*
%TO.N,/Pin11*%
X104814682Y-114914682D02*
X105808698Y-115908698D01*
%TO.N,/Pin13*%
X104948480Y-116051521D02*
X105408698Y-116511740D01*
X130580000Y-130120000D02*
X130580000Y-121630000D01*
%TO.N,/Pin15*%
X111600000Y-128300000D02*
X111600000Y-130900000D01*
X132000000Y-130200000D02*
X132000000Y-122750000D01*
X105008698Y-124000000D02*
X107300000Y-124000000D01*
X107300000Y-124000000D02*
X111600000Y-128300000D01*
X104349616Y-116088432D02*
X104419705Y-116088432D01*
X132000000Y-122750000D02*
X133120000Y-121630000D01*
%TO.N,/Pin13*%
X112100000Y-128234314D02*
X112100000Y-130500000D01*
%TO.N,/Pin15*%
X104419705Y-116088432D02*
X105008698Y-116677425D01*
%TO.N,/Pin13*%
X105408698Y-116511740D02*
X105408698Y-123600000D01*
X104179719Y-115306678D02*
X104486480Y-115306678D01*
X104486480Y-115306678D02*
X104948480Y-115768678D01*
X112100000Y-130500000D02*
X130200000Y-130500000D01*
%TO.N,/Pin15*%
X131300000Y-130900000D02*
X132000000Y-130200000D01*
%TO.N,/Pin13*%
X107465686Y-123600000D02*
X112100000Y-128234314D01*
%TO.N,/Pin15*%
X111600000Y-130900000D02*
X131300000Y-130900000D01*
X105008698Y-116677425D02*
X105008698Y-124000000D01*
%TO.N,/Pin17*%
X111200000Y-131600000D02*
X133700000Y-131600000D01*
X104608698Y-124400000D02*
X107065686Y-124400000D01*
X104274265Y-116994344D02*
X104608698Y-117328777D01*
X133700000Y-131600000D02*
X135500000Y-129800000D01*
X107065686Y-124400000D02*
X111200000Y-128534314D01*
X135500000Y-129800000D02*
X135500000Y-126600000D01*
%TO.N,/Pin19*%
X106900000Y-124800000D02*
X110800000Y-128700000D01*
X104100000Y-120376806D02*
X104100000Y-124800000D01*
X137000000Y-132000000D02*
X138200000Y-130800000D01*
%TO.N,/Pin17*%
X111200000Y-128534314D02*
X111200000Y-131600000D01*
X135500000Y-126600000D02*
X135660000Y-126440000D01*
X135660000Y-126440000D02*
X135660000Y-121630000D01*
%TO.N,/Pin19*%
X104100000Y-124800000D02*
X106900000Y-124800000D01*
%TO.N,/Pin17*%
X104608698Y-117328777D02*
X104608698Y-124400000D01*
X104274265Y-116925735D02*
X104274265Y-116994344D01*
%TO.N,/Pin19*%
X138200000Y-130800000D02*
X138200000Y-121630000D01*
X110800000Y-132000000D02*
X137000000Y-132000000D01*
X104008698Y-120285504D02*
X104100000Y-120376806D01*
X110800000Y-128700000D02*
X110800000Y-132000000D01*
%TD*%
%TA.AperFunction,Conductor*%
%TO.N,GND*%
G36*
X165120992Y-100073593D02*
G01*
X165187947Y-100093558D01*
X165233480Y-100146553D01*
X165243134Y-100215753D01*
X165213843Y-100279187D01*
X165186443Y-100302586D01*
X164895045Y-100485684D01*
X164613997Y-100709811D01*
X164359811Y-100963997D01*
X164135684Y-101245045D01*
X163944432Y-101549420D01*
X163788465Y-101873288D01*
X163669741Y-102212580D01*
X163669737Y-102212592D01*
X163589748Y-102563048D01*
X163589746Y-102563064D01*
X163549500Y-102920259D01*
X163549500Y-103279740D01*
X163589746Y-103636935D01*
X163589748Y-103636951D01*
X163669737Y-103987407D01*
X163669741Y-103987419D01*
X163788465Y-104326711D01*
X163944432Y-104650579D01*
X163944434Y-104650582D01*
X164135685Y-104954956D01*
X164359812Y-105236003D01*
X164613997Y-105490188D01*
X164895044Y-105714315D01*
X165199418Y-105905566D01*
X165523292Y-106061536D01*
X165778119Y-106150703D01*
X165862580Y-106180258D01*
X165862592Y-106180262D01*
X166213052Y-106260252D01*
X166570260Y-106300499D01*
X166570261Y-106300500D01*
X166570264Y-106300500D01*
X166929739Y-106300500D01*
X166929739Y-106300499D01*
X167286948Y-106260252D01*
X167637408Y-106180262D01*
X167976708Y-106061536D01*
X168300582Y-105905566D01*
X168604956Y-105714315D01*
X168886003Y-105490188D01*
X169140188Y-105236003D01*
X169364315Y-104954956D01*
X169555566Y-104650582D01*
X169711536Y-104326708D01*
X169713046Y-104323573D01*
X169714190Y-104324123D01*
X169754760Y-104273759D01*
X169821050Y-104251682D01*
X169888753Y-104268948D01*
X169936373Y-104320076D01*
X169949500Y-104375602D01*
X169949500Y-130474397D01*
X169929815Y-130541436D01*
X169877011Y-130587191D01*
X169807853Y-130597135D01*
X169744297Y-130568110D01*
X169713931Y-130526000D01*
X169713046Y-130526427D01*
X169555567Y-130199420D01*
X169555566Y-130199418D01*
X169364315Y-129895044D01*
X169140188Y-129613997D01*
X168886003Y-129359812D01*
X168604956Y-129135685D01*
X168300582Y-128944434D01*
X168300579Y-128944432D01*
X167976711Y-128788465D01*
X167637419Y-128669741D01*
X167637407Y-128669737D01*
X167286951Y-128589748D01*
X167286935Y-128589746D01*
X166929740Y-128549500D01*
X166929736Y-128549500D01*
X166570264Y-128549500D01*
X166570259Y-128549500D01*
X166213064Y-128589746D01*
X166213048Y-128589748D01*
X165862592Y-128669737D01*
X165862580Y-128669741D01*
X165523288Y-128788465D01*
X165199420Y-128944432D01*
X164895045Y-129135684D01*
X164613997Y-129359811D01*
X164359811Y-129613997D01*
X164135684Y-129895045D01*
X163944432Y-130199420D01*
X163788465Y-130523288D01*
X163669741Y-130862580D01*
X163669737Y-130862592D01*
X163589748Y-131213048D01*
X163589746Y-131213064D01*
X163549500Y-131570259D01*
X163549500Y-131929740D01*
X163589746Y-132286935D01*
X163589748Y-132286951D01*
X163669737Y-132637407D01*
X163669741Y-132637419D01*
X163788465Y-132976711D01*
X163944432Y-133300579D01*
X163944434Y-133300582D01*
X164135685Y-133604956D01*
X164359812Y-133886003D01*
X164613997Y-134140188D01*
X164895044Y-134364315D01*
X165061199Y-134468717D01*
X165199420Y-134555567D01*
X165526427Y-134713046D01*
X165525876Y-134714190D01*
X165576241Y-134754760D01*
X165598318Y-134821050D01*
X165581052Y-134888753D01*
X165529924Y-134936373D01*
X165474398Y-134949500D01*
X104775602Y-134949500D01*
X104708563Y-134929815D01*
X104662808Y-134877011D01*
X104652864Y-134807853D01*
X104681889Y-134744297D01*
X104724001Y-134713935D01*
X104723573Y-134713046D01*
X104998756Y-134580524D01*
X105050582Y-134555566D01*
X105354956Y-134364315D01*
X105636003Y-134140188D01*
X105890188Y-133886003D01*
X106114315Y-133604956D01*
X106305566Y-133300582D01*
X106461536Y-132976708D01*
X106580262Y-132637408D01*
X106660252Y-132286948D01*
X106700500Y-131929736D01*
X106700500Y-131570264D01*
X106660252Y-131213052D01*
X106580262Y-130862592D01*
X106565688Y-130820943D01*
X106523335Y-130699903D01*
X106461536Y-130523292D01*
X106337426Y-130265577D01*
X106337400Y-130265414D01*
X106337290Y-130265292D01*
X106331731Y-130230990D01*
X106326075Y-130196637D01*
X106326140Y-130196485D01*
X106326114Y-130196322D01*
X106340030Y-130164351D01*
X106353797Y-130132502D01*
X106353956Y-130132358D01*
X106354000Y-130132258D01*
X106380253Y-130108675D01*
X106493422Y-130033059D01*
X106510876Y-130021397D01*
X106577553Y-130000520D01*
X106579766Y-130000500D01*
X107299903Y-130000500D01*
X107366942Y-130020185D01*
X107387584Y-130036819D01*
X107763181Y-130412416D01*
X107796666Y-130473739D01*
X107799500Y-130500097D01*
X107799500Y-134179056D01*
X107840423Y-134331783D01*
X107840426Y-134331790D01*
X107919475Y-134468709D01*
X107919479Y-134468714D01*
X107919480Y-134468716D01*
X108031284Y-134580520D01*
X108031286Y-134580521D01*
X108031290Y-134580524D01*
X108168209Y-134659573D01*
X108168216Y-134659577D01*
X108320943Y-134700500D01*
X108320945Y-134700500D01*
X148479055Y-134700500D01*
X148479057Y-134700500D01*
X148631784Y-134659577D01*
X148768716Y-134580520D01*
X148880520Y-134468716D01*
X148959577Y-134331784D01*
X149000500Y-134179057D01*
X149000500Y-133800096D01*
X149020185Y-133733057D01*
X149036814Y-133712420D01*
X151258506Y-131490727D01*
X151258511Y-131490724D01*
X151268714Y-131480520D01*
X151268716Y-131480520D01*
X151380520Y-131368716D01*
X151431440Y-131280520D01*
X151459577Y-131231785D01*
X151500501Y-131079057D01*
X151500501Y-130920943D01*
X151500501Y-130913348D01*
X151500500Y-130913330D01*
X151500500Y-122915718D01*
X151520185Y-122848679D01*
X151568207Y-122805233D01*
X151607815Y-122785052D01*
X151607815Y-122785051D01*
X151607816Y-122785051D01*
X151699193Y-122718661D01*
X151779786Y-122660109D01*
X151779788Y-122660106D01*
X151779792Y-122660104D01*
X151930104Y-122509792D01*
X151930106Y-122509788D01*
X151930109Y-122509786D01*
X152055048Y-122337820D01*
X152055047Y-122337820D01*
X152055051Y-122337816D01*
X152059514Y-122329054D01*
X152107488Y-122278259D01*
X152175308Y-122261463D01*
X152241444Y-122283999D01*
X152280486Y-122329056D01*
X152284951Y-122337820D01*
X152409890Y-122509786D01*
X152560213Y-122660109D01*
X152732179Y-122785048D01*
X152732181Y-122785049D01*
X152732184Y-122785051D01*
X152921588Y-122881557D01*
X153123757Y-122947246D01*
X153333713Y-122980500D01*
X153333714Y-122980500D01*
X153546286Y-122980500D01*
X153546287Y-122980500D01*
X153756243Y-122947246D01*
X153958412Y-122881557D01*
X154147816Y-122785051D01*
X154200968Y-122746434D01*
X154319786Y-122660109D01*
X154319788Y-122660106D01*
X154319792Y-122660104D01*
X154470104Y-122509792D01*
X154470106Y-122509788D01*
X154470109Y-122509786D01*
X154595048Y-122337820D01*
X154595047Y-122337820D01*
X154595051Y-122337816D01*
X154599514Y-122329054D01*
X154647488Y-122278259D01*
X154715308Y-122261463D01*
X154781444Y-122283999D01*
X154820486Y-122329056D01*
X154824951Y-122337820D01*
X154949890Y-122509786D01*
X155100213Y-122660109D01*
X155272179Y-122785048D01*
X155272181Y-122785049D01*
X155272184Y-122785051D01*
X155461588Y-122881557D01*
X155663757Y-122947246D01*
X155873713Y-122980500D01*
X155873714Y-122980500D01*
X156086286Y-122980500D01*
X156086287Y-122980500D01*
X156296243Y-122947246D01*
X156498412Y-122881557D01*
X156687816Y-122785051D01*
X156740968Y-122746434D01*
X156859786Y-122660109D01*
X156859788Y-122660106D01*
X156859792Y-122660104D01*
X157010104Y-122509792D01*
X157010106Y-122509788D01*
X157010109Y-122509786D01*
X157135048Y-122337820D01*
X157135047Y-122337820D01*
X157135051Y-122337816D01*
X157139514Y-122329054D01*
X157187488Y-122278259D01*
X157255308Y-122261463D01*
X157321444Y-122283999D01*
X157360486Y-122329056D01*
X157364951Y-122337820D01*
X157489890Y-122509786D01*
X157640213Y-122660109D01*
X157812179Y-122785048D01*
X157812181Y-122785049D01*
X157812184Y-122785051D01*
X158001588Y-122881557D01*
X158203757Y-122947246D01*
X158413713Y-122980500D01*
X158413714Y-122980500D01*
X158626286Y-122980500D01*
X158626287Y-122980500D01*
X158836243Y-122947246D01*
X159038412Y-122881557D01*
X159227816Y-122785051D01*
X159280968Y-122746434D01*
X159399786Y-122660109D01*
X159399788Y-122660106D01*
X159399792Y-122660104D01*
X159550104Y-122509792D01*
X159550106Y-122509788D01*
X159550109Y-122509786D01*
X159675048Y-122337820D01*
X159675047Y-122337820D01*
X159675051Y-122337816D01*
X159679514Y-122329054D01*
X159727488Y-122278259D01*
X159795308Y-122261463D01*
X159861444Y-122283999D01*
X159900486Y-122329056D01*
X159904951Y-122337820D01*
X160029890Y-122509786D01*
X160180213Y-122660109D01*
X160352179Y-122785048D01*
X160352181Y-122785049D01*
X160352184Y-122785051D01*
X160541588Y-122881557D01*
X160743757Y-122947246D01*
X160953713Y-122980500D01*
X160953714Y-122980500D01*
X161166286Y-122980500D01*
X161166287Y-122980500D01*
X161376243Y-122947246D01*
X161578412Y-122881557D01*
X161767816Y-122785051D01*
X161820968Y-122746434D01*
X161939786Y-122660109D01*
X161939788Y-122660106D01*
X161939792Y-122660104D01*
X162090104Y-122509792D01*
X162090106Y-122509788D01*
X162090109Y-122509786D01*
X162215048Y-122337820D01*
X162215047Y-122337820D01*
X162215051Y-122337816D01*
X162219514Y-122329054D01*
X162267488Y-122278259D01*
X162335308Y-122261463D01*
X162401444Y-122283999D01*
X162440486Y-122329056D01*
X162444951Y-122337820D01*
X162569890Y-122509786D01*
X162720213Y-122660109D01*
X162892179Y-122785048D01*
X162892181Y-122785049D01*
X162892184Y-122785051D01*
X163081588Y-122881557D01*
X163283757Y-122947246D01*
X163493713Y-122980500D01*
X163493714Y-122980500D01*
X163706286Y-122980500D01*
X163706287Y-122980500D01*
X163916243Y-122947246D01*
X164118412Y-122881557D01*
X164307816Y-122785051D01*
X164360968Y-122746434D01*
X164479786Y-122660109D01*
X164479788Y-122660106D01*
X164479792Y-122660104D01*
X164630104Y-122509792D01*
X164630106Y-122509788D01*
X164630109Y-122509786D01*
X164755048Y-122337820D01*
X164755047Y-122337820D01*
X164755051Y-122337816D01*
X164851557Y-122148412D01*
X164917246Y-121946243D01*
X164950500Y-121736287D01*
X164950500Y-121523713D01*
X164917246Y-121313757D01*
X164851557Y-121111588D01*
X164755051Y-120922184D01*
X164755049Y-120922181D01*
X164755048Y-120922179D01*
X164630109Y-120750213D01*
X164479786Y-120599890D01*
X164307820Y-120474951D01*
X164118414Y-120378444D01*
X164118413Y-120378443D01*
X164118412Y-120378443D01*
X163916243Y-120312754D01*
X163916241Y-120312753D01*
X163916240Y-120312753D01*
X163754957Y-120287208D01*
X163706287Y-120279500D01*
X163493713Y-120279500D01*
X163445042Y-120287208D01*
X163283760Y-120312753D01*
X163081585Y-120378444D01*
X162892179Y-120474951D01*
X162720213Y-120599890D01*
X162569890Y-120750213D01*
X162444949Y-120922182D01*
X162440484Y-120930946D01*
X162392509Y-120981742D01*
X162324688Y-120998536D01*
X162258553Y-120975998D01*
X162219516Y-120930946D01*
X162215050Y-120922182D01*
X162090109Y-120750213D01*
X161939786Y-120599890D01*
X161767820Y-120474951D01*
X161578414Y-120378444D01*
X161578413Y-120378443D01*
X161578412Y-120378443D01*
X161376243Y-120312754D01*
X161376241Y-120312753D01*
X161376240Y-120312753D01*
X161214957Y-120287208D01*
X161166287Y-120279500D01*
X160953713Y-120279500D01*
X160905042Y-120287208D01*
X160743760Y-120312753D01*
X160541585Y-120378444D01*
X160352179Y-120474951D01*
X160180213Y-120599890D01*
X160029890Y-120750213D01*
X159904949Y-120922182D01*
X159900484Y-120930946D01*
X159852509Y-120981742D01*
X159784688Y-120998536D01*
X159718553Y-120975998D01*
X159679516Y-120930946D01*
X159675050Y-120922182D01*
X159550109Y-120750213D01*
X159399786Y-120599890D01*
X159227820Y-120474951D01*
X159038414Y-120378444D01*
X159038413Y-120378443D01*
X159038412Y-120378443D01*
X158836243Y-120312754D01*
X158836241Y-120312753D01*
X158836240Y-120312753D01*
X158674957Y-120287208D01*
X158626287Y-120279500D01*
X158413713Y-120279500D01*
X158365042Y-120287208D01*
X158203760Y-120312753D01*
X158001585Y-120378444D01*
X157812179Y-120474951D01*
X157640213Y-120599890D01*
X157489890Y-120750213D01*
X157364949Y-120922182D01*
X157360484Y-120930946D01*
X157312509Y-120981742D01*
X157244688Y-120998536D01*
X157178553Y-120975998D01*
X157139516Y-120930946D01*
X157135050Y-120922182D01*
X157010109Y-120750213D01*
X156859786Y-120599890D01*
X156687820Y-120474951D01*
X156498414Y-120378444D01*
X156498413Y-120378443D01*
X156498412Y-120378443D01*
X156296243Y-120312754D01*
X156296241Y-120312753D01*
X156296240Y-120312753D01*
X156134957Y-120287208D01*
X156086287Y-120279500D01*
X155873713Y-120279500D01*
X155825042Y-120287208D01*
X155663760Y-120312753D01*
X155461585Y-120378444D01*
X155272179Y-120474951D01*
X155100213Y-120599890D01*
X154949890Y-120750213D01*
X154824949Y-120922182D01*
X154820484Y-120930946D01*
X154772509Y-120981742D01*
X154704688Y-120998536D01*
X154638553Y-120975998D01*
X154599516Y-120930946D01*
X154595050Y-120922182D01*
X154470109Y-120750213D01*
X154319786Y-120599890D01*
X154147820Y-120474951D01*
X153958414Y-120378444D01*
X153958413Y-120378443D01*
X153958412Y-120378443D01*
X153756243Y-120312754D01*
X153756241Y-120312753D01*
X153756240Y-120312753D01*
X153594957Y-120287208D01*
X153546287Y-120279500D01*
X153333713Y-120279500D01*
X153285042Y-120287208D01*
X153123760Y-120312753D01*
X152921585Y-120378444D01*
X152732179Y-120474951D01*
X152560213Y-120599890D01*
X152409890Y-120750213D01*
X152284949Y-120922182D01*
X152280484Y-120930946D01*
X152232509Y-120981742D01*
X152164688Y-120998536D01*
X152098553Y-120975998D01*
X152059516Y-120930946D01*
X152055050Y-120922182D01*
X151930109Y-120750213D01*
X151779786Y-120599890D01*
X151607820Y-120474951D01*
X151418414Y-120378444D01*
X151418413Y-120378443D01*
X151418412Y-120378443D01*
X151216243Y-120312754D01*
X151216241Y-120312753D01*
X151216240Y-120312753D01*
X151054957Y-120287208D01*
X151006287Y-120279500D01*
X150793713Y-120279500D01*
X150745042Y-120287208D01*
X150583760Y-120312753D01*
X150381585Y-120378444D01*
X150192179Y-120474951D01*
X150020213Y-120599890D01*
X149869890Y-120750213D01*
X149744949Y-120922182D01*
X149740484Y-120930946D01*
X149692509Y-120981742D01*
X149624688Y-120998536D01*
X149558553Y-120975998D01*
X149519516Y-120930946D01*
X149515050Y-120922182D01*
X149390109Y-120750213D01*
X149239786Y-120599890D01*
X149067820Y-120474951D01*
X148878414Y-120378444D01*
X148878413Y-120378443D01*
X148878412Y-120378443D01*
X148676243Y-120312754D01*
X148676241Y-120312753D01*
X148676240Y-120312753D01*
X148514957Y-120287208D01*
X148466287Y-120279500D01*
X148253713Y-120279500D01*
X148205042Y-120287208D01*
X148043760Y-120312753D01*
X147841585Y-120378444D01*
X147652179Y-120474951D01*
X147480213Y-120599890D01*
X147329890Y-120750213D01*
X147204949Y-120922182D01*
X147200484Y-120930946D01*
X147152509Y-120981742D01*
X147084688Y-120998536D01*
X147018553Y-120975998D01*
X146979516Y-120930946D01*
X146975050Y-120922182D01*
X146850109Y-120750213D01*
X146699786Y-120599890D01*
X146527820Y-120474951D01*
X146338414Y-120378444D01*
X146338413Y-120378443D01*
X146338412Y-120378443D01*
X146136243Y-120312754D01*
X146136241Y-120312753D01*
X146136240Y-120312753D01*
X145974957Y-120287208D01*
X145926287Y-120279500D01*
X145713713Y-120279500D01*
X145665042Y-120287208D01*
X145503760Y-120312753D01*
X145301585Y-120378444D01*
X145112179Y-120474951D01*
X144940213Y-120599890D01*
X144789890Y-120750213D01*
X144664949Y-120922182D01*
X144660484Y-120930946D01*
X144612509Y-120981742D01*
X144544688Y-120998536D01*
X144478553Y-120975998D01*
X144439516Y-120930946D01*
X144435050Y-120922182D01*
X144310109Y-120750213D01*
X144159786Y-120599890D01*
X143987820Y-120474951D01*
X143798414Y-120378444D01*
X143798413Y-120378443D01*
X143798412Y-120378443D01*
X143596243Y-120312754D01*
X143596241Y-120312753D01*
X143596240Y-120312753D01*
X143434957Y-120287208D01*
X143386287Y-120279500D01*
X143173713Y-120279500D01*
X143125042Y-120287208D01*
X142963760Y-120312753D01*
X142761585Y-120378444D01*
X142572179Y-120474951D01*
X142400213Y-120599890D01*
X142249890Y-120750213D01*
X142124949Y-120922182D01*
X142120484Y-120930946D01*
X142072509Y-120981742D01*
X142004688Y-120998536D01*
X141938553Y-120975998D01*
X141899516Y-120930946D01*
X141895050Y-120922182D01*
X141770109Y-120750213D01*
X141619786Y-120599890D01*
X141447820Y-120474951D01*
X141258414Y-120378444D01*
X141258413Y-120378443D01*
X141258412Y-120378443D01*
X141056243Y-120312754D01*
X141056241Y-120312753D01*
X141056240Y-120312753D01*
X140894957Y-120287208D01*
X140846287Y-120279500D01*
X140633713Y-120279500D01*
X140585042Y-120287208D01*
X140423760Y-120312753D01*
X140221585Y-120378444D01*
X140032179Y-120474951D01*
X139860213Y-120599890D01*
X139709890Y-120750213D01*
X139584949Y-120922182D01*
X139580484Y-120930946D01*
X139532509Y-120981742D01*
X139464688Y-120998536D01*
X139398553Y-120975998D01*
X139359516Y-120930946D01*
X139355050Y-120922182D01*
X139230109Y-120750213D01*
X139079786Y-120599890D01*
X138907820Y-120474951D01*
X138718414Y-120378444D01*
X138718413Y-120378443D01*
X138718412Y-120378443D01*
X138516243Y-120312754D01*
X138516241Y-120312753D01*
X138516240Y-120312753D01*
X138354957Y-120287208D01*
X138306287Y-120279500D01*
X138093713Y-120279500D01*
X138045042Y-120287208D01*
X137883760Y-120312753D01*
X137681585Y-120378444D01*
X137492179Y-120474951D01*
X137320213Y-120599890D01*
X137169890Y-120750213D01*
X137044949Y-120922182D01*
X137040484Y-120930946D01*
X136992509Y-120981742D01*
X136924688Y-120998536D01*
X136858553Y-120975998D01*
X136819516Y-120930946D01*
X136815050Y-120922182D01*
X136690109Y-120750213D01*
X136539786Y-120599890D01*
X136367820Y-120474951D01*
X136178414Y-120378444D01*
X136178413Y-120378443D01*
X136178412Y-120378443D01*
X135976243Y-120312754D01*
X135976241Y-120312753D01*
X135976240Y-120312753D01*
X135814957Y-120287208D01*
X135766287Y-120279500D01*
X135553713Y-120279500D01*
X135505042Y-120287208D01*
X135343760Y-120312753D01*
X135141585Y-120378444D01*
X134952179Y-120474951D01*
X134780213Y-120599890D01*
X134629890Y-120750213D01*
X134504949Y-120922182D01*
X134500484Y-120930946D01*
X134452509Y-120981742D01*
X134384688Y-120998536D01*
X134318553Y-120975998D01*
X134279516Y-120930946D01*
X134275050Y-120922182D01*
X134150109Y-120750213D01*
X133999786Y-120599890D01*
X133827820Y-120474951D01*
X133638414Y-120378444D01*
X133638413Y-120378443D01*
X133638412Y-120378443D01*
X133436243Y-120312754D01*
X133436241Y-120312753D01*
X133436240Y-120312753D01*
X133274957Y-120287208D01*
X133226287Y-120279500D01*
X133013713Y-120279500D01*
X132965042Y-120287208D01*
X132803760Y-120312753D01*
X132601585Y-120378444D01*
X132412179Y-120474951D01*
X132240213Y-120599890D01*
X132089890Y-120750213D01*
X131964949Y-120922182D01*
X131960484Y-120930946D01*
X131912509Y-120981742D01*
X131844688Y-120998536D01*
X131778553Y-120975998D01*
X131739516Y-120930946D01*
X131735050Y-120922182D01*
X131610109Y-120750213D01*
X131459786Y-120599890D01*
X131287820Y-120474951D01*
X131098414Y-120378444D01*
X131098413Y-120378443D01*
X131098412Y-120378443D01*
X130896243Y-120312754D01*
X130896241Y-120312753D01*
X130896240Y-120312753D01*
X130734957Y-120287208D01*
X130686287Y-120279500D01*
X130473713Y-120279500D01*
X130425042Y-120287208D01*
X130263760Y-120312753D01*
X130061585Y-120378444D01*
X129872179Y-120474951D01*
X129700213Y-120599890D01*
X129549890Y-120750213D01*
X129424949Y-120922182D01*
X129420484Y-120930946D01*
X129372509Y-120981742D01*
X129304688Y-120998536D01*
X129238553Y-120975998D01*
X129199516Y-120930946D01*
X129195050Y-120922182D01*
X129070109Y-120750213D01*
X128919786Y-120599890D01*
X128747820Y-120474951D01*
X128558414Y-120378444D01*
X128558413Y-120378443D01*
X128558412Y-120378443D01*
X128356243Y-120312754D01*
X128356241Y-120312753D01*
X128356240Y-120312753D01*
X128194957Y-120287208D01*
X128146287Y-120279500D01*
X127933713Y-120279500D01*
X127885042Y-120287208D01*
X127723760Y-120312753D01*
X127521585Y-120378444D01*
X127332179Y-120474951D01*
X127160213Y-120599890D01*
X127009890Y-120750213D01*
X126884949Y-120922182D01*
X126880484Y-120930946D01*
X126832509Y-120981742D01*
X126764688Y-120998536D01*
X126698553Y-120975998D01*
X126659516Y-120930946D01*
X126655050Y-120922182D01*
X126530109Y-120750213D01*
X126379786Y-120599890D01*
X126207820Y-120474951D01*
X126018414Y-120378444D01*
X126018413Y-120378443D01*
X126018412Y-120378443D01*
X125816243Y-120312754D01*
X125816241Y-120312753D01*
X125816240Y-120312753D01*
X125654957Y-120287208D01*
X125606287Y-120279500D01*
X125393713Y-120279500D01*
X125345042Y-120287208D01*
X125183760Y-120312753D01*
X124981585Y-120378444D01*
X124792179Y-120474951D01*
X124620213Y-120599890D01*
X124469890Y-120750213D01*
X124344949Y-120922182D01*
X124340484Y-120930946D01*
X124292509Y-120981742D01*
X124224688Y-120998536D01*
X124158553Y-120975998D01*
X124119516Y-120930946D01*
X124115050Y-120922182D01*
X123990109Y-120750213D01*
X123839786Y-120599890D01*
X123667820Y-120474951D01*
X123478414Y-120378444D01*
X123478413Y-120378443D01*
X123478412Y-120378443D01*
X123276243Y-120312754D01*
X123276241Y-120312753D01*
X123276240Y-120312753D01*
X123114957Y-120287208D01*
X123066287Y-120279500D01*
X122853713Y-120279500D01*
X122805042Y-120287208D01*
X122643760Y-120312753D01*
X122441585Y-120378444D01*
X122252179Y-120474951D01*
X122080213Y-120599890D01*
X121929890Y-120750213D01*
X121804949Y-120922182D01*
X121800484Y-120930946D01*
X121752509Y-120981742D01*
X121684688Y-120998536D01*
X121618553Y-120975998D01*
X121579516Y-120930946D01*
X121575050Y-120922182D01*
X121450109Y-120750213D01*
X121299786Y-120599890D01*
X121127820Y-120474951D01*
X120938414Y-120378444D01*
X120938413Y-120378443D01*
X120938412Y-120378443D01*
X120736243Y-120312754D01*
X120736241Y-120312753D01*
X120736240Y-120312753D01*
X120574957Y-120287208D01*
X120526287Y-120279500D01*
X120313713Y-120279500D01*
X120265042Y-120287208D01*
X120103760Y-120312753D01*
X119901585Y-120378444D01*
X119712179Y-120474951D01*
X119540213Y-120599890D01*
X119389890Y-120750213D01*
X119264949Y-120922182D01*
X119260484Y-120930946D01*
X119212509Y-120981742D01*
X119144688Y-120998536D01*
X119078553Y-120975998D01*
X119039516Y-120930946D01*
X119035050Y-120922182D01*
X118910109Y-120750213D01*
X118759786Y-120599890D01*
X118587820Y-120474951D01*
X118398414Y-120378444D01*
X118398413Y-120378443D01*
X118398412Y-120378443D01*
X118196243Y-120312754D01*
X118196241Y-120312753D01*
X118196240Y-120312753D01*
X118034957Y-120287208D01*
X117986287Y-120279500D01*
X117773713Y-120279500D01*
X117725042Y-120287208D01*
X117563760Y-120312753D01*
X117361585Y-120378444D01*
X117172179Y-120474951D01*
X117000215Y-120599889D01*
X116886673Y-120713431D01*
X116825350Y-120746915D01*
X116755658Y-120741931D01*
X116699725Y-120700059D01*
X116682810Y-120669082D01*
X116633797Y-120537671D01*
X116633793Y-120537664D01*
X116547547Y-120422455D01*
X116547544Y-120422452D01*
X116432335Y-120336206D01*
X116432328Y-120336202D01*
X116297482Y-120285908D01*
X116297483Y-120285908D01*
X116237883Y-120279501D01*
X116237881Y-120279500D01*
X116237873Y-120279500D01*
X116237864Y-120279500D01*
X114442129Y-120279500D01*
X114442123Y-120279501D01*
X114382516Y-120285908D01*
X114247671Y-120336202D01*
X114247664Y-120336206D01*
X114132455Y-120422452D01*
X114132452Y-120422455D01*
X114046206Y-120537664D01*
X114046202Y-120537671D01*
X113995908Y-120672517D01*
X113989501Y-120732116D01*
X113989500Y-120732135D01*
X113989500Y-122527870D01*
X113989501Y-122527876D01*
X113995908Y-122587483D01*
X114046202Y-122722328D01*
X114046206Y-122722335D01*
X114132452Y-122837544D01*
X114132455Y-122837547D01*
X114154771Y-122854253D01*
X114196642Y-122910187D01*
X114201626Y-122979878D01*
X114168141Y-123041200D01*
X113446162Y-123763181D01*
X113384839Y-123796666D01*
X113358481Y-123799500D01*
X112541519Y-123799500D01*
X112474480Y-123779815D01*
X112453838Y-123763181D01*
X108936819Y-120246162D01*
X108903334Y-120184839D01*
X108900500Y-120158481D01*
X108900500Y-114970875D01*
X108920185Y-114903836D01*
X108936819Y-114883194D01*
X109144107Y-114675906D01*
X109144113Y-114675900D01*
X109179752Y-114622562D01*
X109186842Y-114611953D01*
X109195268Y-114599342D01*
X109220775Y-114561168D01*
X109273580Y-114433685D01*
X109277336Y-114414805D01*
X109285913Y-114371682D01*
X109300500Y-114298350D01*
X109300500Y-113112135D01*
X113989500Y-113112135D01*
X113989500Y-114907870D01*
X113989501Y-114907876D01*
X113995908Y-114967483D01*
X114046202Y-115102328D01*
X114046206Y-115102335D01*
X114132452Y-115217544D01*
X114132455Y-115217547D01*
X114247664Y-115303793D01*
X114247671Y-115303797D01*
X114382517Y-115354091D01*
X114382516Y-115354091D01*
X114389444Y-115354835D01*
X114442127Y-115360500D01*
X116237872Y-115360499D01*
X116297483Y-115354091D01*
X116432331Y-115303796D01*
X116547546Y-115217546D01*
X116633796Y-115102331D01*
X116682810Y-114970916D01*
X116724681Y-114914984D01*
X116790145Y-114890566D01*
X116858418Y-114905417D01*
X116886673Y-114926569D01*
X117000213Y-115040109D01*
X117172179Y-115165048D01*
X117172181Y-115165049D01*
X117172184Y-115165051D01*
X117361588Y-115261557D01*
X117563757Y-115327246D01*
X117773713Y-115360500D01*
X117773714Y-115360500D01*
X117986286Y-115360500D01*
X117986287Y-115360500D01*
X118196243Y-115327246D01*
X118398412Y-115261557D01*
X118587816Y-115165051D01*
X118674138Y-115102335D01*
X118759786Y-115040109D01*
X118759788Y-115040106D01*
X118759792Y-115040104D01*
X118910104Y-114889792D01*
X118910106Y-114889788D01*
X118910109Y-114889786D01*
X119035048Y-114717820D01*
X119035047Y-114717820D01*
X119035051Y-114717816D01*
X119039514Y-114709054D01*
X119087488Y-114658259D01*
X119155308Y-114641463D01*
X119221444Y-114663999D01*
X119260486Y-114709056D01*
X119264951Y-114717820D01*
X119389890Y-114889786D01*
X119540213Y-115040109D01*
X119712179Y-115165048D01*
X119712181Y-115165049D01*
X119712184Y-115165051D01*
X119901588Y-115261557D01*
X120103757Y-115327246D01*
X120313713Y-115360500D01*
X120313714Y-115360500D01*
X120526286Y-115360500D01*
X120526287Y-115360500D01*
X120736243Y-115327246D01*
X120938412Y-115261557D01*
X121127816Y-115165051D01*
X121214138Y-115102335D01*
X121299786Y-115040109D01*
X121299788Y-115040106D01*
X121299792Y-115040104D01*
X121450104Y-114889792D01*
X121450106Y-114889788D01*
X121450109Y-114889786D01*
X121575048Y-114717820D01*
X121575047Y-114717820D01*
X121575051Y-114717816D01*
X121579514Y-114709054D01*
X121627488Y-114658259D01*
X121695308Y-114641463D01*
X121761444Y-114663999D01*
X121800486Y-114709056D01*
X121804951Y-114717820D01*
X121929890Y-114889786D01*
X122080213Y-115040109D01*
X122252179Y-115165048D01*
X122252181Y-115165049D01*
X122252184Y-115165051D01*
X122441588Y-115261557D01*
X122643757Y-115327246D01*
X122853713Y-115360500D01*
X122853714Y-115360500D01*
X123066286Y-115360500D01*
X123066287Y-115360500D01*
X123276243Y-115327246D01*
X123478412Y-115261557D01*
X123667816Y-115165051D01*
X123754138Y-115102335D01*
X123839786Y-115040109D01*
X123839788Y-115040106D01*
X123839792Y-115040104D01*
X123990104Y-114889792D01*
X123990106Y-114889788D01*
X123990109Y-114889786D01*
X124115048Y-114717820D01*
X124115047Y-114717820D01*
X124115051Y-114717816D01*
X124119514Y-114709054D01*
X124167488Y-114658259D01*
X124235308Y-114641463D01*
X124301444Y-114663999D01*
X124340486Y-114709056D01*
X124344951Y-114717820D01*
X124469890Y-114889786D01*
X124620213Y-115040109D01*
X124792179Y-115165048D01*
X124792181Y-115165049D01*
X124792184Y-115165051D01*
X124981588Y-115261557D01*
X125183757Y-115327246D01*
X125393713Y-115360500D01*
X125393714Y-115360500D01*
X125606286Y-115360500D01*
X125606287Y-115360500D01*
X125816243Y-115327246D01*
X126018412Y-115261557D01*
X126207816Y-115165051D01*
X126294138Y-115102335D01*
X126379786Y-115040109D01*
X126379788Y-115040106D01*
X126379792Y-115040104D01*
X126530104Y-114889792D01*
X126530106Y-114889788D01*
X126530109Y-114889786D01*
X126655048Y-114717820D01*
X126655047Y-114717820D01*
X126655051Y-114717816D01*
X126659514Y-114709054D01*
X126707488Y-114658259D01*
X126775308Y-114641463D01*
X126841444Y-114663999D01*
X126880486Y-114709056D01*
X126884951Y-114717820D01*
X127009890Y-114889786D01*
X127160213Y-115040109D01*
X127332179Y-115165048D01*
X127332181Y-115165049D01*
X127332184Y-115165051D01*
X127521588Y-115261557D01*
X127723757Y-115327246D01*
X127933713Y-115360500D01*
X127933714Y-115360500D01*
X128146286Y-115360500D01*
X128146287Y-115360500D01*
X128356243Y-115327246D01*
X128558412Y-115261557D01*
X128747816Y-115165051D01*
X128834138Y-115102335D01*
X128919786Y-115040109D01*
X128919788Y-115040106D01*
X128919792Y-115040104D01*
X129070104Y-114889792D01*
X129070106Y-114889788D01*
X129070109Y-114889786D01*
X129195048Y-114717820D01*
X129195047Y-114717820D01*
X129195051Y-114717816D01*
X129199514Y-114709054D01*
X129247488Y-114658259D01*
X129315308Y-114641463D01*
X129381444Y-114663999D01*
X129420486Y-114709056D01*
X129424951Y-114717820D01*
X129549890Y-114889786D01*
X129700213Y-115040109D01*
X129872179Y-115165048D01*
X129872181Y-115165049D01*
X129872184Y-115165051D01*
X130061588Y-115261557D01*
X130263757Y-115327246D01*
X130473713Y-115360500D01*
X130473714Y-115360500D01*
X130686286Y-115360500D01*
X130686287Y-115360500D01*
X130896243Y-115327246D01*
X131098412Y-115261557D01*
X131287816Y-115165051D01*
X131374138Y-115102335D01*
X131459786Y-115040109D01*
X131459788Y-115040106D01*
X131459792Y-115040104D01*
X131610104Y-114889792D01*
X131610106Y-114889788D01*
X131610109Y-114889786D01*
X131735048Y-114717820D01*
X131735047Y-114717820D01*
X131735051Y-114717816D01*
X131739514Y-114709054D01*
X131787488Y-114658259D01*
X131855308Y-114641463D01*
X131921444Y-114663999D01*
X131960486Y-114709056D01*
X131964951Y-114717820D01*
X132089890Y-114889786D01*
X132240213Y-115040109D01*
X132412179Y-115165048D01*
X132412181Y-115165049D01*
X132412184Y-115165051D01*
X132601588Y-115261557D01*
X132803757Y-115327246D01*
X133013713Y-115360500D01*
X133013714Y-115360500D01*
X133226286Y-115360500D01*
X133226287Y-115360500D01*
X133436243Y-115327246D01*
X133638412Y-115261557D01*
X133827816Y-115165051D01*
X133914138Y-115102335D01*
X133999786Y-115040109D01*
X133999788Y-115040106D01*
X133999792Y-115040104D01*
X134150104Y-114889792D01*
X134150106Y-114889788D01*
X134150109Y-114889786D01*
X134275048Y-114717820D01*
X134275047Y-114717820D01*
X134275051Y-114717816D01*
X134279514Y-114709054D01*
X134327488Y-114658259D01*
X134395308Y-114641463D01*
X134461444Y-114663999D01*
X134500486Y-114709056D01*
X134504951Y-114717820D01*
X134629890Y-114889786D01*
X134780213Y-115040109D01*
X134952179Y-115165048D01*
X134952181Y-115165049D01*
X134952184Y-115165051D01*
X135141588Y-115261557D01*
X135343757Y-115327246D01*
X135553713Y-115360500D01*
X135553714Y-115360500D01*
X135766286Y-115360500D01*
X135766287Y-115360500D01*
X135976243Y-115327246D01*
X136178412Y-115261557D01*
X136367816Y-115165051D01*
X136454138Y-115102335D01*
X136539786Y-115040109D01*
X136539788Y-115040106D01*
X136539792Y-115040104D01*
X136690104Y-114889792D01*
X136690106Y-114889788D01*
X136690109Y-114889786D01*
X136815048Y-114717820D01*
X136815047Y-114717820D01*
X136815051Y-114717816D01*
X136819514Y-114709054D01*
X136867488Y-114658259D01*
X136935308Y-114641463D01*
X137001444Y-114663999D01*
X137040486Y-114709056D01*
X137044951Y-114717820D01*
X137169890Y-114889786D01*
X137320213Y-115040109D01*
X137492179Y-115165048D01*
X137492181Y-115165049D01*
X137492184Y-115165051D01*
X137681588Y-115261557D01*
X137883757Y-115327246D01*
X138093713Y-115360500D01*
X138093714Y-115360500D01*
X138306286Y-115360500D01*
X138306287Y-115360500D01*
X138516243Y-115327246D01*
X138718412Y-115261557D01*
X138907816Y-115165051D01*
X138994138Y-115102335D01*
X139079786Y-115040109D01*
X139079788Y-115040106D01*
X139079792Y-115040104D01*
X139230104Y-114889792D01*
X139230106Y-114889788D01*
X139230109Y-114889786D01*
X139355048Y-114717820D01*
X139355047Y-114717820D01*
X139355051Y-114717816D01*
X139359514Y-114709054D01*
X139407488Y-114658259D01*
X139475308Y-114641463D01*
X139541444Y-114663999D01*
X139580486Y-114709056D01*
X139584951Y-114717820D01*
X139709890Y-114889786D01*
X139860213Y-115040109D01*
X140032179Y-115165048D01*
X140032181Y-115165049D01*
X140032184Y-115165051D01*
X140221588Y-115261557D01*
X140423757Y-115327246D01*
X140633713Y-115360500D01*
X140633714Y-115360500D01*
X140846286Y-115360500D01*
X140846287Y-115360500D01*
X141056243Y-115327246D01*
X141258412Y-115261557D01*
X141447816Y-115165051D01*
X141534138Y-115102335D01*
X141619786Y-115040109D01*
X141619788Y-115040106D01*
X141619792Y-115040104D01*
X141770104Y-114889792D01*
X141770106Y-114889788D01*
X141770109Y-114889786D01*
X141895048Y-114717820D01*
X141895047Y-114717820D01*
X141895051Y-114717816D01*
X141899514Y-114709054D01*
X141947488Y-114658259D01*
X142015308Y-114641463D01*
X142081444Y-114663999D01*
X142120486Y-114709056D01*
X142124951Y-114717820D01*
X142249890Y-114889786D01*
X142400213Y-115040109D01*
X142572179Y-115165048D01*
X142572181Y-115165049D01*
X142572184Y-115165051D01*
X142761588Y-115261557D01*
X142963757Y-115327246D01*
X143173713Y-115360500D01*
X143173714Y-115360500D01*
X143386286Y-115360500D01*
X143386287Y-115360500D01*
X143596243Y-115327246D01*
X143798412Y-115261557D01*
X143987816Y-115165051D01*
X144074138Y-115102335D01*
X144159786Y-115040109D01*
X144159788Y-115040106D01*
X144159792Y-115040104D01*
X144310104Y-114889792D01*
X144310106Y-114889788D01*
X144310109Y-114889786D01*
X144435048Y-114717820D01*
X144435047Y-114717820D01*
X144435051Y-114717816D01*
X144439514Y-114709054D01*
X144487488Y-114658259D01*
X144555308Y-114641463D01*
X144621444Y-114663999D01*
X144660486Y-114709056D01*
X144664951Y-114717820D01*
X144789890Y-114889786D01*
X144940213Y-115040109D01*
X145112179Y-115165048D01*
X145112181Y-115165049D01*
X145112184Y-115165051D01*
X145301588Y-115261557D01*
X145503757Y-115327246D01*
X145713713Y-115360500D01*
X145713714Y-115360500D01*
X145926286Y-115360500D01*
X145926287Y-115360500D01*
X146136243Y-115327246D01*
X146338412Y-115261557D01*
X146527816Y-115165051D01*
X146614138Y-115102335D01*
X146699786Y-115040109D01*
X146699788Y-115040106D01*
X146699792Y-115040104D01*
X146850104Y-114889792D01*
X146850106Y-114889788D01*
X146850109Y-114889786D01*
X146975048Y-114717820D01*
X146975047Y-114717820D01*
X146975051Y-114717816D01*
X146979514Y-114709054D01*
X147027488Y-114658259D01*
X147095308Y-114641463D01*
X147161444Y-114663999D01*
X147200486Y-114709056D01*
X147204951Y-114717820D01*
X147329890Y-114889786D01*
X147480213Y-115040109D01*
X147652179Y-115165048D01*
X147652181Y-115165049D01*
X147652184Y-115165051D01*
X147841588Y-115261557D01*
X148043757Y-115327246D01*
X148253713Y-115360500D01*
X148253714Y-115360500D01*
X148466286Y-115360500D01*
X148466287Y-115360500D01*
X148676243Y-115327246D01*
X148878412Y-115261557D01*
X149067816Y-115165051D01*
X149154138Y-115102335D01*
X149239786Y-115040109D01*
X149239788Y-115040106D01*
X149239792Y-115040104D01*
X149390104Y-114889792D01*
X149390106Y-114889788D01*
X149390109Y-114889786D01*
X149515048Y-114717820D01*
X149515047Y-114717820D01*
X149515051Y-114717816D01*
X149519514Y-114709054D01*
X149567488Y-114658259D01*
X149635308Y-114641463D01*
X149701444Y-114663999D01*
X149740486Y-114709056D01*
X149744951Y-114717820D01*
X149869890Y-114889786D01*
X150020213Y-115040109D01*
X150192179Y-115165048D01*
X150192181Y-115165049D01*
X150192184Y-115165051D01*
X150381588Y-115261557D01*
X150583757Y-115327246D01*
X150793713Y-115360500D01*
X150793714Y-115360500D01*
X151006286Y-115360500D01*
X151006287Y-115360500D01*
X151216243Y-115327246D01*
X151418412Y-115261557D01*
X151607816Y-115165051D01*
X151694138Y-115102335D01*
X151779786Y-115040109D01*
X151779788Y-115040106D01*
X151779792Y-115040104D01*
X151930104Y-114889792D01*
X151930106Y-114889788D01*
X151930109Y-114889786D01*
X152055048Y-114717820D01*
X152055047Y-114717820D01*
X152055051Y-114717816D01*
X152059514Y-114709054D01*
X152107488Y-114658259D01*
X152175308Y-114641463D01*
X152241444Y-114663999D01*
X152280486Y-114709056D01*
X152284951Y-114717820D01*
X152409890Y-114889786D01*
X152560213Y-115040109D01*
X152732179Y-115165048D01*
X152732181Y-115165049D01*
X152732184Y-115165051D01*
X152921588Y-115261557D01*
X153123757Y-115327246D01*
X153333713Y-115360500D01*
X153333714Y-115360500D01*
X153546286Y-115360500D01*
X153546287Y-115360500D01*
X153756243Y-115327246D01*
X153958412Y-115261557D01*
X154147816Y-115165051D01*
X154234138Y-115102335D01*
X154319786Y-115040109D01*
X154319788Y-115040106D01*
X154319792Y-115040104D01*
X154470104Y-114889792D01*
X154470106Y-114889788D01*
X154470109Y-114889786D01*
X154595048Y-114717820D01*
X154595047Y-114717820D01*
X154595051Y-114717816D01*
X154599514Y-114709054D01*
X154647488Y-114658259D01*
X154715308Y-114641463D01*
X154781444Y-114663999D01*
X154820486Y-114709056D01*
X154824951Y-114717820D01*
X154949890Y-114889786D01*
X155100213Y-115040109D01*
X155272179Y-115165048D01*
X155272181Y-115165049D01*
X155272184Y-115165051D01*
X155461588Y-115261557D01*
X155663757Y-115327246D01*
X155873713Y-115360500D01*
X155873714Y-115360500D01*
X156086286Y-115360500D01*
X156086287Y-115360500D01*
X156296243Y-115327246D01*
X156498412Y-115261557D01*
X156687816Y-115165051D01*
X156774138Y-115102335D01*
X156859786Y-115040109D01*
X156859788Y-115040106D01*
X156859792Y-115040104D01*
X157010104Y-114889792D01*
X157010106Y-114889788D01*
X157010109Y-114889786D01*
X157135048Y-114717820D01*
X157135047Y-114717820D01*
X157135051Y-114717816D01*
X157139514Y-114709054D01*
X157187488Y-114658259D01*
X157255308Y-114641463D01*
X157321444Y-114663999D01*
X157360486Y-114709056D01*
X157364951Y-114717820D01*
X157489890Y-114889786D01*
X157640213Y-115040109D01*
X157812179Y-115165048D01*
X157812181Y-115165049D01*
X157812184Y-115165051D01*
X158001588Y-115261557D01*
X158203757Y-115327246D01*
X158413713Y-115360500D01*
X158413714Y-115360500D01*
X158626286Y-115360500D01*
X158626287Y-115360500D01*
X158836243Y-115327246D01*
X159038412Y-115261557D01*
X159227816Y-115165051D01*
X159314138Y-115102335D01*
X159399786Y-115040109D01*
X159399788Y-115040106D01*
X159399792Y-115040104D01*
X159550104Y-114889792D01*
X159550106Y-114889788D01*
X159550109Y-114889786D01*
X159675048Y-114717820D01*
X159675047Y-114717820D01*
X159675051Y-114717816D01*
X159679514Y-114709054D01*
X159727488Y-114658259D01*
X159795308Y-114641463D01*
X159861444Y-114663999D01*
X159900486Y-114709056D01*
X159904951Y-114717820D01*
X160029890Y-114889786D01*
X160180213Y-115040109D01*
X160352179Y-115165048D01*
X160352181Y-115165049D01*
X160352184Y-115165051D01*
X160541588Y-115261557D01*
X160743757Y-115327246D01*
X160953713Y-115360500D01*
X160953714Y-115360500D01*
X161166286Y-115360500D01*
X161166287Y-115360500D01*
X161376243Y-115327246D01*
X161578412Y-115261557D01*
X161767816Y-115165051D01*
X161854138Y-115102335D01*
X161939786Y-115040109D01*
X161939788Y-115040106D01*
X161939792Y-115040104D01*
X162090104Y-114889792D01*
X162090106Y-114889788D01*
X162090109Y-114889786D01*
X162157965Y-114796389D01*
X162215051Y-114717816D01*
X162219793Y-114708508D01*
X162267763Y-114657711D01*
X162335583Y-114640911D01*
X162401719Y-114663445D01*
X162440763Y-114708500D01*
X162445373Y-114717547D01*
X162484728Y-114771716D01*
X163117037Y-114139408D01*
X163134075Y-114202993D01*
X163199901Y-114317007D01*
X163292993Y-114410099D01*
X163407007Y-114475925D01*
X163470590Y-114492962D01*
X162838282Y-115125269D01*
X162838282Y-115125270D01*
X162892449Y-115164624D01*
X163081782Y-115261095D01*
X163283870Y-115326757D01*
X163493754Y-115360000D01*
X163706246Y-115360000D01*
X163916127Y-115326757D01*
X163916130Y-115326757D01*
X164118217Y-115261095D01*
X164307554Y-115164622D01*
X164361716Y-115125270D01*
X164361717Y-115125270D01*
X163729408Y-114492962D01*
X163792993Y-114475925D01*
X163907007Y-114410099D01*
X164000099Y-114317007D01*
X164065925Y-114202993D01*
X164082962Y-114139408D01*
X164715270Y-114771717D01*
X164715270Y-114771716D01*
X164754622Y-114717554D01*
X164851095Y-114528217D01*
X164916757Y-114326130D01*
X164916757Y-114326127D01*
X164950000Y-114116246D01*
X164950000Y-113903753D01*
X164916757Y-113693872D01*
X164916757Y-113693869D01*
X164851095Y-113491782D01*
X164754624Y-113302449D01*
X164715270Y-113248282D01*
X164715269Y-113248282D01*
X164082962Y-113880590D01*
X164065925Y-113817007D01*
X164000099Y-113702993D01*
X163907007Y-113609901D01*
X163792993Y-113544075D01*
X163729409Y-113527037D01*
X164361716Y-112894728D01*
X164307550Y-112855375D01*
X164118217Y-112758904D01*
X163916129Y-112693242D01*
X163706246Y-112660000D01*
X163493754Y-112660000D01*
X163283872Y-112693242D01*
X163283869Y-112693242D01*
X163081782Y-112758904D01*
X162892439Y-112855380D01*
X162838282Y-112894727D01*
X162838282Y-112894728D01*
X163470591Y-113527037D01*
X163407007Y-113544075D01*
X163292993Y-113609901D01*
X163199901Y-113702993D01*
X163134075Y-113817007D01*
X163117037Y-113880591D01*
X162484728Y-113248282D01*
X162484727Y-113248282D01*
X162445380Y-113302440D01*
X162445376Y-113302446D01*
X162440760Y-113311505D01*
X162392781Y-113362297D01*
X162324959Y-113379087D01*
X162258826Y-113356543D01*
X162219794Y-113311493D01*
X162215051Y-113302184D01*
X162215049Y-113302181D01*
X162215048Y-113302179D01*
X162090109Y-113130213D01*
X161939786Y-112979890D01*
X161767820Y-112854951D01*
X161578414Y-112758444D01*
X161578413Y-112758443D01*
X161578412Y-112758443D01*
X161376243Y-112692754D01*
X161376241Y-112692753D01*
X161376240Y-112692753D01*
X161210470Y-112666498D01*
X161166287Y-112659500D01*
X160953713Y-112659500D01*
X160909530Y-112666498D01*
X160743760Y-112692753D01*
X160541585Y-112758444D01*
X160352179Y-112854951D01*
X160180213Y-112979890D01*
X160029890Y-113130213D01*
X159904949Y-113302182D01*
X159900484Y-113310946D01*
X159852509Y-113361742D01*
X159784688Y-113378536D01*
X159718553Y-113355998D01*
X159679516Y-113310946D01*
X159675050Y-113302182D01*
X159550109Y-113130213D01*
X159399786Y-112979890D01*
X159227820Y-112854951D01*
X159038414Y-112758444D01*
X159038413Y-112758443D01*
X159038412Y-112758443D01*
X158836243Y-112692754D01*
X158836241Y-112692753D01*
X158836240Y-112692753D01*
X158670470Y-112666498D01*
X158626287Y-112659500D01*
X158413713Y-112659500D01*
X158369530Y-112666498D01*
X158203760Y-112692753D01*
X158001585Y-112758444D01*
X157812179Y-112854951D01*
X157640213Y-112979890D01*
X157489890Y-113130213D01*
X157364949Y-113302182D01*
X157360484Y-113310946D01*
X157312509Y-113361742D01*
X157244688Y-113378536D01*
X157178553Y-113355998D01*
X157139516Y-113310946D01*
X157135050Y-113302182D01*
X157010109Y-113130213D01*
X156859786Y-112979890D01*
X156687820Y-112854951D01*
X156498414Y-112758444D01*
X156498413Y-112758443D01*
X156498412Y-112758443D01*
X156296243Y-112692754D01*
X156296241Y-112692753D01*
X156296240Y-112692753D01*
X156130470Y-112666498D01*
X156086287Y-112659500D01*
X155873713Y-112659500D01*
X155829530Y-112666498D01*
X155663760Y-112692753D01*
X155461585Y-112758444D01*
X155272179Y-112854951D01*
X155100213Y-112979890D01*
X154949890Y-113130213D01*
X154824949Y-113302182D01*
X154820484Y-113310946D01*
X154772509Y-113361742D01*
X154704688Y-113378536D01*
X154638553Y-113355998D01*
X154599516Y-113310946D01*
X154595050Y-113302182D01*
X154470109Y-113130213D01*
X154319786Y-112979890D01*
X154147820Y-112854951D01*
X153958414Y-112758444D01*
X153958413Y-112758443D01*
X153958412Y-112758443D01*
X153756243Y-112692754D01*
X153756241Y-112692753D01*
X153756240Y-112692753D01*
X153590470Y-112666498D01*
X153546287Y-112659500D01*
X153333713Y-112659500D01*
X153289530Y-112666498D01*
X153123760Y-112692753D01*
X152921585Y-112758444D01*
X152732179Y-112854951D01*
X152560213Y-112979890D01*
X152409890Y-113130213D01*
X152284949Y-113302182D01*
X152280484Y-113310946D01*
X152232509Y-113361742D01*
X152164688Y-113378536D01*
X152098553Y-113355998D01*
X152059516Y-113310946D01*
X152055050Y-113302182D01*
X151930109Y-113130213D01*
X151779786Y-112979890D01*
X151607820Y-112854951D01*
X151418414Y-112758444D01*
X151418413Y-112758443D01*
X151418412Y-112758443D01*
X151216243Y-112692754D01*
X151216241Y-112692753D01*
X151216240Y-112692753D01*
X151050470Y-112666498D01*
X151006287Y-112659500D01*
X150793713Y-112659500D01*
X150749530Y-112666498D01*
X150583760Y-112692753D01*
X150381585Y-112758444D01*
X150192179Y-112854951D01*
X150020213Y-112979890D01*
X149869890Y-113130213D01*
X149744949Y-113302182D01*
X149740484Y-113310946D01*
X149692509Y-113361742D01*
X149624688Y-113378536D01*
X149558553Y-113355998D01*
X149519516Y-113310946D01*
X149515050Y-113302182D01*
X149390109Y-113130213D01*
X149239786Y-112979890D01*
X149067820Y-112854951D01*
X148878414Y-112758444D01*
X148878413Y-112758443D01*
X148878412Y-112758443D01*
X148676243Y-112692754D01*
X148676241Y-112692753D01*
X148676240Y-112692753D01*
X148510470Y-112666498D01*
X148466287Y-112659500D01*
X148253713Y-112659500D01*
X148209530Y-112666498D01*
X148043760Y-112692753D01*
X147841585Y-112758444D01*
X147652179Y-112854951D01*
X147480213Y-112979890D01*
X147329890Y-113130213D01*
X147204949Y-113302182D01*
X147200484Y-113310946D01*
X147152509Y-113361742D01*
X147084688Y-113378536D01*
X147018553Y-113355998D01*
X146979516Y-113310946D01*
X146975050Y-113302182D01*
X146850109Y-113130213D01*
X146699786Y-112979890D01*
X146527820Y-112854951D01*
X146338414Y-112758444D01*
X146338413Y-112758443D01*
X146338412Y-112758443D01*
X146136243Y-112692754D01*
X146136241Y-112692753D01*
X146136240Y-112692753D01*
X145970470Y-112666498D01*
X145926287Y-112659500D01*
X145713713Y-112659500D01*
X145669530Y-112666498D01*
X145503760Y-112692753D01*
X145301585Y-112758444D01*
X145112179Y-112854951D01*
X144940213Y-112979890D01*
X144789890Y-113130213D01*
X144664949Y-113302182D01*
X144660484Y-113310946D01*
X144612509Y-113361742D01*
X144544688Y-113378536D01*
X144478553Y-113355998D01*
X144439516Y-113310946D01*
X144435050Y-113302182D01*
X144310109Y-113130213D01*
X144159786Y-112979890D01*
X143987820Y-112854951D01*
X143798414Y-112758444D01*
X143798413Y-112758443D01*
X143798412Y-112758443D01*
X143596243Y-112692754D01*
X143596241Y-112692753D01*
X143596240Y-112692753D01*
X143430470Y-112666498D01*
X143386287Y-112659500D01*
X143173713Y-112659500D01*
X143129530Y-112666498D01*
X142963760Y-112692753D01*
X142761585Y-112758444D01*
X142572179Y-112854951D01*
X142400213Y-112979890D01*
X142249890Y-113130213D01*
X142124949Y-113302182D01*
X142120484Y-113310946D01*
X142072509Y-113361742D01*
X142004688Y-113378536D01*
X141938553Y-113355998D01*
X141899516Y-113310946D01*
X141895050Y-113302182D01*
X141770109Y-113130213D01*
X141619786Y-112979890D01*
X141447820Y-112854951D01*
X141258414Y-112758444D01*
X141258413Y-112758443D01*
X141258412Y-112758443D01*
X141056243Y-112692754D01*
X141056241Y-112692753D01*
X141056240Y-112692753D01*
X140890470Y-112666498D01*
X140846287Y-112659500D01*
X140633713Y-112659500D01*
X140589530Y-112666498D01*
X140423760Y-112692753D01*
X140221585Y-112758444D01*
X140032179Y-112854951D01*
X139860213Y-112979890D01*
X139709890Y-113130213D01*
X139584949Y-113302182D01*
X139580484Y-113310946D01*
X139532509Y-113361742D01*
X139464688Y-113378536D01*
X139398553Y-113355998D01*
X139359516Y-113310946D01*
X139355050Y-113302182D01*
X139230109Y-113130213D01*
X139079786Y-112979890D01*
X138907820Y-112854951D01*
X138718414Y-112758444D01*
X138718413Y-112758443D01*
X138718412Y-112758443D01*
X138516243Y-112692754D01*
X138516241Y-112692753D01*
X138516240Y-112692753D01*
X138350470Y-112666498D01*
X138306287Y-112659500D01*
X138093713Y-112659500D01*
X138049530Y-112666498D01*
X137883760Y-112692753D01*
X137681585Y-112758444D01*
X137492179Y-112854951D01*
X137320213Y-112979890D01*
X137169890Y-113130213D01*
X137044949Y-113302182D01*
X137040484Y-113310946D01*
X136992509Y-113361742D01*
X136924688Y-113378536D01*
X136858553Y-113355998D01*
X136819516Y-113310946D01*
X136815050Y-113302182D01*
X136690109Y-113130213D01*
X136539786Y-112979890D01*
X136367820Y-112854951D01*
X136178414Y-112758444D01*
X136178413Y-112758443D01*
X136178412Y-112758443D01*
X135976243Y-112692754D01*
X135976241Y-112692753D01*
X135976240Y-112692753D01*
X135810470Y-112666498D01*
X135766287Y-112659500D01*
X135553713Y-112659500D01*
X135509530Y-112666498D01*
X135343760Y-112692753D01*
X135141585Y-112758444D01*
X134952179Y-112854951D01*
X134780213Y-112979890D01*
X134629890Y-113130213D01*
X134504949Y-113302182D01*
X134500484Y-113310946D01*
X134452509Y-113361742D01*
X134384688Y-113378536D01*
X134318553Y-113355998D01*
X134279516Y-113310946D01*
X134275050Y-113302182D01*
X134150109Y-113130213D01*
X133999786Y-112979890D01*
X133827820Y-112854951D01*
X133638414Y-112758444D01*
X133638413Y-112758443D01*
X133638412Y-112758443D01*
X133436243Y-112692754D01*
X133436241Y-112692753D01*
X133436240Y-112692753D01*
X133270470Y-112666498D01*
X133226287Y-112659500D01*
X133013713Y-112659500D01*
X132969530Y-112666498D01*
X132803760Y-112692753D01*
X132601585Y-112758444D01*
X132412179Y-112854951D01*
X132240213Y-112979890D01*
X132089890Y-113130213D01*
X131964949Y-113302182D01*
X131960484Y-113310946D01*
X131912509Y-113361742D01*
X131844688Y-113378536D01*
X131778553Y-113355998D01*
X131739516Y-113310946D01*
X131735050Y-113302182D01*
X131610109Y-113130213D01*
X131459786Y-112979890D01*
X131287820Y-112854951D01*
X131098414Y-112758444D01*
X131098413Y-112758443D01*
X131098412Y-112758443D01*
X130896243Y-112692754D01*
X130896241Y-112692753D01*
X130896240Y-112692753D01*
X130730470Y-112666498D01*
X130686287Y-112659500D01*
X130473713Y-112659500D01*
X130429530Y-112666498D01*
X130263760Y-112692753D01*
X130061585Y-112758444D01*
X129872179Y-112854951D01*
X129700213Y-112979890D01*
X129549890Y-113130213D01*
X129424949Y-113302182D01*
X129420484Y-113310946D01*
X129372509Y-113361742D01*
X129304688Y-113378536D01*
X129238553Y-113355998D01*
X129199516Y-113310946D01*
X129195050Y-113302182D01*
X129070109Y-113130213D01*
X128919786Y-112979890D01*
X128747820Y-112854951D01*
X128558414Y-112758444D01*
X128558413Y-112758443D01*
X128558412Y-112758443D01*
X128356243Y-112692754D01*
X128356241Y-112692753D01*
X128356240Y-112692753D01*
X128190470Y-112666498D01*
X128146287Y-112659500D01*
X127933713Y-112659500D01*
X127889530Y-112666498D01*
X127723760Y-112692753D01*
X127521585Y-112758444D01*
X127332179Y-112854951D01*
X127160213Y-112979890D01*
X127009890Y-113130213D01*
X126884949Y-113302182D01*
X126880484Y-113310946D01*
X126832509Y-113361742D01*
X126764688Y-113378536D01*
X126698553Y-113355998D01*
X126659516Y-113310946D01*
X126655050Y-113302182D01*
X126530109Y-113130213D01*
X126379786Y-112979890D01*
X126207820Y-112854951D01*
X126018414Y-112758444D01*
X126018413Y-112758443D01*
X126018412Y-112758443D01*
X125816243Y-112692754D01*
X125816241Y-112692753D01*
X125816240Y-112692753D01*
X125650470Y-112666498D01*
X125606287Y-112659500D01*
X125393713Y-112659500D01*
X125349530Y-112666498D01*
X125183760Y-112692753D01*
X124981585Y-112758444D01*
X124792179Y-112854951D01*
X124620213Y-112979890D01*
X124469890Y-113130213D01*
X124344949Y-113302182D01*
X124340484Y-113310946D01*
X124292509Y-113361742D01*
X124224688Y-113378536D01*
X124158553Y-113355998D01*
X124119516Y-113310946D01*
X124115050Y-113302182D01*
X123990109Y-113130213D01*
X123839786Y-112979890D01*
X123667820Y-112854951D01*
X123478414Y-112758444D01*
X123478413Y-112758443D01*
X123478412Y-112758443D01*
X123276243Y-112692754D01*
X123276241Y-112692753D01*
X123276240Y-112692753D01*
X123110470Y-112666498D01*
X123066287Y-112659500D01*
X122853713Y-112659500D01*
X122809530Y-112666498D01*
X122643760Y-112692753D01*
X122441585Y-112758444D01*
X122252179Y-112854951D01*
X122080213Y-112979890D01*
X121929890Y-113130213D01*
X121804949Y-113302182D01*
X121800484Y-113310946D01*
X121752509Y-113361742D01*
X121684688Y-113378536D01*
X121618553Y-113355998D01*
X121579516Y-113310946D01*
X121575050Y-113302182D01*
X121450109Y-113130213D01*
X121299786Y-112979890D01*
X121127820Y-112854951D01*
X120938414Y-112758444D01*
X120938413Y-112758443D01*
X120938412Y-112758443D01*
X120736243Y-112692754D01*
X120736241Y-112692753D01*
X120736240Y-112692753D01*
X120570470Y-112666498D01*
X120526287Y-112659500D01*
X120313713Y-112659500D01*
X120269530Y-112666498D01*
X120103760Y-112692753D01*
X119901585Y-112758444D01*
X119712179Y-112854951D01*
X119540213Y-112979890D01*
X119389890Y-113130213D01*
X119264949Y-113302182D01*
X119260484Y-113310946D01*
X119212509Y-113361742D01*
X119144688Y-113378536D01*
X119078553Y-113355998D01*
X119039516Y-113310946D01*
X119035050Y-113302182D01*
X118910109Y-113130213D01*
X118759786Y-112979890D01*
X118587820Y-112854951D01*
X118398414Y-112758444D01*
X118398413Y-112758443D01*
X118398412Y-112758443D01*
X118196243Y-112692754D01*
X118196241Y-112692753D01*
X118196240Y-112692753D01*
X118030470Y-112666498D01*
X117986287Y-112659500D01*
X117773713Y-112659500D01*
X117729530Y-112666498D01*
X117563760Y-112692753D01*
X117361585Y-112758444D01*
X117172179Y-112854951D01*
X117000215Y-112979889D01*
X116886673Y-113093431D01*
X116825350Y-113126915D01*
X116755658Y-113121931D01*
X116699725Y-113080059D01*
X116682810Y-113049082D01*
X116633797Y-112917671D01*
X116633793Y-112917664D01*
X116547547Y-112802455D01*
X116547544Y-112802452D01*
X116432335Y-112716206D01*
X116432328Y-112716202D01*
X116297482Y-112665908D01*
X116297483Y-112665908D01*
X116237883Y-112659501D01*
X116237881Y-112659500D01*
X116237873Y-112659500D01*
X116237864Y-112659500D01*
X114442129Y-112659500D01*
X114442123Y-112659501D01*
X114382516Y-112665908D01*
X114247671Y-112716202D01*
X114247664Y-112716206D01*
X114132455Y-112802452D01*
X114132452Y-112802455D01*
X114046206Y-112917664D01*
X114046202Y-112917671D01*
X113995908Y-113052517D01*
X113989501Y-113112116D01*
X113989500Y-113112135D01*
X109300500Y-113112135D01*
X109300500Y-112031007D01*
X109300500Y-112031004D01*
X109276309Y-111909394D01*
X109276307Y-111909386D01*
X109273580Y-111895672D01*
X109220775Y-111768189D01*
X109144114Y-111653457D01*
X109144112Y-111653454D01*
X108288523Y-110797865D01*
X108173785Y-110721200D01*
X108046310Y-110668399D01*
X108046300Y-110668396D01*
X107910974Y-110641478D01*
X107910972Y-110641478D01*
X107910971Y-110641478D01*
X105783497Y-110641478D01*
X105716458Y-110621793D01*
X105695816Y-110605159D01*
X105446546Y-110355888D01*
X105446545Y-110355887D01*
X105331807Y-110279222D01*
X105204332Y-110226421D01*
X105204322Y-110226418D01*
X105068996Y-110199500D01*
X105068994Y-110199500D01*
X105068993Y-110199500D01*
X104868994Y-110199500D01*
X104731006Y-110199500D01*
X104731004Y-110199500D01*
X104595677Y-110226418D01*
X104595667Y-110226421D01*
X104468191Y-110279223D01*
X104353457Y-110355885D01*
X104353453Y-110355889D01*
X104223173Y-110486167D01*
X104204385Y-110501587D01*
X104089707Y-110578213D01*
X103978213Y-110689707D01*
X103978210Y-110689711D01*
X103890609Y-110820814D01*
X103890602Y-110820827D01*
X103830264Y-110966498D01*
X103830261Y-110966510D01*
X103799500Y-111121153D01*
X103799500Y-111278846D01*
X103830261Y-111433489D01*
X103830264Y-111433501D01*
X103890602Y-111579172D01*
X103890609Y-111579185D01*
X103978210Y-111710288D01*
X103978213Y-111710292D01*
X104089707Y-111821786D01*
X104089715Y-111821792D01*
X104112045Y-111836713D01*
X104124862Y-111852049D01*
X104141080Y-111863744D01*
X104146812Y-111878313D01*
X104156851Y-111890325D01*
X104159342Y-111910160D01*
X104166661Y-111928762D01*
X104165170Y-111956566D01*
X104165558Y-111959650D01*
X104164772Y-111964006D01*
X104154701Y-112014637D01*
X104122317Y-112076548D01*
X104061601Y-112111122D01*
X104057277Y-112112063D01*
X103965790Y-112130261D01*
X103965781Y-112130264D01*
X103820110Y-112190602D01*
X103820097Y-112190609D01*
X103688994Y-112278210D01*
X103688990Y-112278213D01*
X103577496Y-112389707D01*
X103577493Y-112389711D01*
X103489892Y-112520814D01*
X103489885Y-112520827D01*
X103429547Y-112666498D01*
X103429544Y-112666510D01*
X103398783Y-112821153D01*
X103398783Y-112978846D01*
X103429544Y-113133489D01*
X103429547Y-113133501D01*
X103489885Y-113279172D01*
X103489892Y-113279185D01*
X103573236Y-113403918D01*
X103594114Y-113470596D01*
X103575629Y-113537976D01*
X103557816Y-113560489D01*
X103521921Y-113596384D01*
X103521917Y-113596389D01*
X103434316Y-113727492D01*
X103434309Y-113727505D01*
X103373971Y-113873176D01*
X103373968Y-113873188D01*
X103343207Y-114027831D01*
X103343207Y-114185524D01*
X103373968Y-114340167D01*
X103373971Y-114340179D01*
X103434309Y-114485850D01*
X103434316Y-114485863D01*
X103521917Y-114616966D01*
X103521920Y-114616970D01*
X103543413Y-114638463D01*
X103576898Y-114699786D01*
X103571914Y-114769478D01*
X103558834Y-114795035D01*
X103470328Y-114927492D01*
X103470321Y-114927505D01*
X103409983Y-115073176D01*
X103409980Y-115073188D01*
X103379219Y-115227831D01*
X103379219Y-115385524D01*
X103409980Y-115540167D01*
X103409983Y-115540179D01*
X103470321Y-115685850D01*
X103470328Y-115685863D01*
X103552128Y-115808284D01*
X103573006Y-115874961D01*
X103570643Y-115901367D01*
X103549116Y-116009587D01*
X103549116Y-116167278D01*
X103579876Y-116321920D01*
X103579878Y-116321925D01*
X103579879Y-116321929D01*
X103606209Y-116385496D01*
X103613676Y-116454965D01*
X103594751Y-116501835D01*
X103564875Y-116546549D01*
X103564867Y-116546563D01*
X103504529Y-116692233D01*
X103504526Y-116692245D01*
X103473765Y-116846888D01*
X103473765Y-117004581D01*
X103504526Y-117159224D01*
X103504529Y-117159236D01*
X103564867Y-117304907D01*
X103564874Y-117304920D01*
X103652475Y-117436023D01*
X103652478Y-117436027D01*
X103763972Y-117547521D01*
X103763976Y-117547524D01*
X103895079Y-117635125D01*
X103895081Y-117635126D01*
X103895086Y-117635129D01*
X103931652Y-117650275D01*
X103986053Y-117694114D01*
X104008119Y-117760408D01*
X104008198Y-117764835D01*
X104008198Y-119367656D01*
X103988513Y-119434695D01*
X103935709Y-119480450D01*
X103908390Y-119489273D01*
X103775206Y-119515765D01*
X103775196Y-119515768D01*
X103629525Y-119576106D01*
X103629512Y-119576113D01*
X103498409Y-119663714D01*
X103498405Y-119663717D01*
X103386911Y-119775211D01*
X103386908Y-119775215D01*
X103299307Y-119906318D01*
X103299300Y-119906331D01*
X103238962Y-120052002D01*
X103238959Y-120052014D01*
X103208198Y-120206657D01*
X103208198Y-120364350D01*
X103238959Y-120518993D01*
X103238962Y-120519005D01*
X103299300Y-120664676D01*
X103299307Y-120664689D01*
X103386907Y-120795791D01*
X103386908Y-120795792D01*
X103386909Y-120795793D01*
X103463182Y-120872066D01*
X103496666Y-120933387D01*
X103499500Y-120959746D01*
X103499500Y-124175500D01*
X103479815Y-124242539D01*
X103427011Y-124288294D01*
X103375500Y-124299500D01*
X102924500Y-124299500D01*
X102857461Y-124279815D01*
X102811706Y-124227011D01*
X102800500Y-124175500D01*
X102800500Y-117956805D01*
X102800500Y-117944864D01*
X102800501Y-117944861D01*
X102800501Y-117786747D01*
X102794496Y-117764339D01*
X102794049Y-117749990D01*
X102795464Y-117744546D01*
X102795453Y-117744399D01*
X102794160Y-117744399D01*
X102794160Y-117580619D01*
X102794159Y-117580617D01*
X102763398Y-117425974D01*
X102763398Y-117425972D01*
X102763397Y-117425967D01*
X102763395Y-117425962D01*
X102703057Y-117280291D01*
X102703050Y-117280278D01*
X102615449Y-117149175D01*
X102615446Y-117149171D01*
X102503952Y-117037677D01*
X102503948Y-117037674D01*
X102372845Y-116950073D01*
X102372832Y-116950066D01*
X102227161Y-116889728D01*
X102227149Y-116889725D01*
X102072505Y-116858964D01*
X102072502Y-116858964D01*
X101914818Y-116858964D01*
X101914815Y-116858964D01*
X101760170Y-116889725D01*
X101760158Y-116889728D01*
X101614487Y-116950066D01*
X101614474Y-116950073D01*
X101483371Y-117037674D01*
X101483367Y-117037677D01*
X101371873Y-117149171D01*
X101371870Y-117149175D01*
X101284269Y-117280278D01*
X101284262Y-117280291D01*
X101223924Y-117425962D01*
X101223921Y-117425972D01*
X101198538Y-117553578D01*
X101166152Y-117615489D01*
X101145812Y-117632488D01*
X101039710Y-117703383D01*
X101039706Y-117703386D01*
X100928212Y-117814880D01*
X100928209Y-117814884D01*
X100840608Y-117945987D01*
X100840601Y-117946000D01*
X100780263Y-118091671D01*
X100780260Y-118091683D01*
X100749499Y-118246326D01*
X100749499Y-118404019D01*
X100768825Y-118501177D01*
X100762598Y-118570768D01*
X100719735Y-118625946D01*
X100716100Y-118628469D01*
X100689714Y-118646100D01*
X100689707Y-118646105D01*
X100578213Y-118757599D01*
X100578210Y-118757603D01*
X100490609Y-118888706D01*
X100490602Y-118888719D01*
X100430264Y-119034390D01*
X100430261Y-119034402D01*
X100399500Y-119189045D01*
X100399500Y-119346738D01*
X100430261Y-119501381D01*
X100430264Y-119501393D01*
X100490602Y-119647064D01*
X100490609Y-119647077D01*
X100578210Y-119778180D01*
X100578213Y-119778184D01*
X100689706Y-119889677D01*
X100689709Y-119889679D01*
X100689711Y-119889681D01*
X100694386Y-119892805D01*
X100739193Y-119946413D01*
X100749500Y-119995909D01*
X100749500Y-124963330D01*
X100749499Y-124963348D01*
X100749499Y-125129054D01*
X100749498Y-125129054D01*
X100790423Y-125281785D01*
X100819000Y-125331280D01*
X100819001Y-125331284D01*
X100819002Y-125331284D01*
X100869479Y-125418714D01*
X100869481Y-125418717D01*
X100988349Y-125537585D01*
X100988355Y-125537590D01*
X101585966Y-126135201D01*
X101619451Y-126196524D01*
X101614467Y-126266216D01*
X101572595Y-126322149D01*
X101507131Y-126346566D01*
X101450835Y-126337444D01*
X101433501Y-126330264D01*
X101433489Y-126330261D01*
X101278845Y-126299500D01*
X101278842Y-126299500D01*
X101121158Y-126299500D01*
X101121155Y-126299500D01*
X100966510Y-126330261D01*
X100966498Y-126330264D01*
X100820827Y-126390602D01*
X100820814Y-126390609D01*
X100689711Y-126478210D01*
X100689707Y-126478213D01*
X100578213Y-126589707D01*
X100578210Y-126589711D01*
X100490609Y-126720814D01*
X100490602Y-126720827D01*
X100430264Y-126866498D01*
X100430261Y-126866510D01*
X100399500Y-127021153D01*
X100399500Y-127178846D01*
X100430261Y-127333489D01*
X100430264Y-127333501D01*
X100490602Y-127479172D01*
X100490609Y-127479185D01*
X100578602Y-127610874D01*
X100599480Y-127677551D01*
X100599500Y-127679765D01*
X100599500Y-128479057D01*
X100638260Y-128623709D01*
X100640423Y-128631783D01*
X100640426Y-128631790D01*
X100719475Y-128768709D01*
X100719479Y-128768714D01*
X100719480Y-128768716D01*
X100831284Y-128880520D01*
X100831286Y-128880521D01*
X100831290Y-128880524D01*
X100941984Y-128944432D01*
X100968216Y-128959577D01*
X101120943Y-129000500D01*
X101279057Y-129000500D01*
X101460189Y-129000500D01*
X101527228Y-129020185D01*
X101572983Y-129072989D01*
X101582927Y-129142147D01*
X101553902Y-129205703D01*
X101537501Y-129221447D01*
X101364003Y-129359805D01*
X101109811Y-129613997D01*
X100885684Y-129895045D01*
X100694432Y-130199420D01*
X100538465Y-130523288D01*
X100419741Y-130862580D01*
X100419737Y-130862592D01*
X100339748Y-131213048D01*
X100339746Y-131213064D01*
X100299500Y-131570259D01*
X100299500Y-131929740D01*
X100339746Y-132286935D01*
X100339748Y-132286951D01*
X100419737Y-132637407D01*
X100419741Y-132637419D01*
X100538465Y-132976711D01*
X100694432Y-133300579D01*
X100694434Y-133300582D01*
X100885685Y-133604956D01*
X101109812Y-133886003D01*
X101363997Y-134140188D01*
X101645044Y-134364315D01*
X101811199Y-134468717D01*
X101949420Y-134555567D01*
X102276427Y-134713046D01*
X102275876Y-134714190D01*
X102326241Y-134754760D01*
X102348318Y-134821050D01*
X102331052Y-134888753D01*
X102279924Y-134936373D01*
X102224398Y-134949500D01*
X100174500Y-134949500D01*
X100107461Y-134929815D01*
X100061706Y-134877011D01*
X100050500Y-134825500D01*
X100050500Y-103320259D01*
X100299500Y-103320259D01*
X100299500Y-103679740D01*
X100339746Y-104036935D01*
X100339748Y-104036951D01*
X100419737Y-104387407D01*
X100419741Y-104387419D01*
X100538465Y-104726711D01*
X100694432Y-105050579D01*
X100694434Y-105050582D01*
X100885685Y-105354956D01*
X101109812Y-105636003D01*
X101363997Y-105890188D01*
X101645044Y-106114315D01*
X101949418Y-106305566D01*
X102273292Y-106461536D01*
X102528119Y-106550703D01*
X102612580Y-106580258D01*
X102612592Y-106580262D01*
X102963052Y-106660252D01*
X103320260Y-106700499D01*
X103320261Y-106700500D01*
X103320264Y-106700500D01*
X103679739Y-106700500D01*
X103679739Y-106700499D01*
X104036948Y-106660252D01*
X104387408Y-106580262D01*
X104726708Y-106461536D01*
X105050582Y-106305566D01*
X105354956Y-106114315D01*
X105636003Y-105890188D01*
X105890188Y-105636003D01*
X106114315Y-105354956D01*
X106305566Y-105050582D01*
X106461536Y-104726708D01*
X106580262Y-104387408D01*
X106660252Y-104036948D01*
X106700500Y-103679736D01*
X106700500Y-103320264D01*
X106660252Y-102963052D01*
X106580262Y-102612592D01*
X106562931Y-102563064D01*
X106550703Y-102528119D01*
X106461536Y-102273292D01*
X106305566Y-101949418D01*
X106114315Y-101645044D01*
X105890188Y-101363997D01*
X105636003Y-101109812D01*
X105354956Y-100885685D01*
X105050582Y-100694434D01*
X105050579Y-100694432D01*
X104726711Y-100538465D01*
X104387419Y-100419741D01*
X104387407Y-100419737D01*
X104036951Y-100339748D01*
X104036935Y-100339746D01*
X103679740Y-100299500D01*
X103679736Y-100299500D01*
X103320264Y-100299500D01*
X103320259Y-100299500D01*
X102963064Y-100339746D01*
X102963048Y-100339748D01*
X102612592Y-100419737D01*
X102612580Y-100419741D01*
X102273288Y-100538465D01*
X101949420Y-100694432D01*
X101645045Y-100885684D01*
X101363997Y-101109811D01*
X101109811Y-101363997D01*
X100885684Y-101645045D01*
X100694432Y-101949420D01*
X100538465Y-102273288D01*
X100419741Y-102612580D01*
X100419737Y-102612592D01*
X100339748Y-102963048D01*
X100339746Y-102963064D01*
X100299500Y-103320259D01*
X100050500Y-103320259D01*
X100050500Y-100174500D01*
X100070185Y-100107461D01*
X100122989Y-100061706D01*
X100174500Y-100050500D01*
X159607559Y-100050500D01*
X165120992Y-100073593D01*
G37*
%TD.AperFunction*%
%TA.AperFunction,Conductor*%
G36*
X102060197Y-126558097D02*
G01*
X102060365Y-126557473D01*
X102063079Y-126558200D01*
X102064161Y-126558239D01*
X102066551Y-126559130D01*
X102068211Y-126559574D01*
X102068215Y-126559577D01*
X102220943Y-126600501D01*
X102220946Y-126600501D01*
X102386653Y-126600501D01*
X102386669Y-126600500D01*
X105699903Y-126600500D01*
X105766942Y-126620185D01*
X105787584Y-126636819D01*
X107038583Y-127887819D01*
X107072068Y-127949142D01*
X107067084Y-128018834D01*
X107025212Y-128074767D01*
X106959748Y-128099184D01*
X106950902Y-128099500D01*
X104300098Y-128099500D01*
X104233059Y-128079815D01*
X104227602Y-128076100D01*
X104219490Y-128070254D01*
X104168716Y-128019480D01*
X104075153Y-127965462D01*
X104031785Y-127940423D01*
X104031784Y-127940422D01*
X104031783Y-127940422D01*
X103975881Y-127925443D01*
X103879057Y-127899499D01*
X103720943Y-127899499D01*
X103713347Y-127899499D01*
X103713331Y-127899500D01*
X102467334Y-127899500D01*
X102451843Y-127895349D01*
X102438099Y-127896004D01*
X102405337Y-127882888D01*
X102375389Y-127865598D01*
X102375386Y-127865596D01*
X102375385Y-127865595D01*
X102331790Y-127840425D01*
X102331789Y-127840424D01*
X102297678Y-127831284D01*
X102179057Y-127799499D01*
X102020943Y-127799499D01*
X102013347Y-127799499D01*
X102013331Y-127799500D01*
X101927350Y-127799500D01*
X101860311Y-127779815D01*
X101814556Y-127727011D01*
X101804612Y-127657853D01*
X101824248Y-127606609D01*
X101909390Y-127479185D01*
X101909390Y-127479184D01*
X101909394Y-127479179D01*
X101969737Y-127333497D01*
X102000500Y-127178842D01*
X102000500Y-127021158D01*
X102000500Y-127021155D01*
X102000499Y-127021153D01*
X101969737Y-126866503D01*
X101945801Y-126808716D01*
X101910440Y-126723345D01*
X101902971Y-126653876D01*
X101934246Y-126591397D01*
X101994336Y-126555745D01*
X102060197Y-126558097D01*
G37*
%TD.AperFunction*%
%TD*%
M02*
