%TF.GenerationSoftware,KiCad,Pcbnew,10.0.1*%
%TF.CreationDate,2026-05-20T18:33:21-05:00*%
%TF.ProjectId,LCD_FFC_FPC_to_DIP_Breakout,4c43445f-4646-4435-9f46-50435f746f5f,rev?*%
%TF.SameCoordinates,Original*%
%TF.FileFunction,Soldermask,Bot*%
%TF.FilePolarity,Negative*%
%FSLAX46Y46*%
G04 Gerber Fmt 4.6, Leading zero omitted, Abs format (unit mm)*
G04 Created by KiCad (PCBNEW 10.0.1) date 2026-05-20 18:33:21*
%MOMM*%
%LPD*%
G01*
G04 APERTURE LIST*
%ADD10C,5.400000*%
%ADD11C,1.700000*%
%ADD12R,1.700000X1.700000*%
G04 APERTURE END LIST*
D10*
%TO.C,REF\u002A\u002A*%
X166750000Y-103100000D03*
%TD*%
%TO.C,REF\u002A\u002A*%
X103500000Y-103500000D03*
%TD*%
%TO.C,REF\u002A\u002A*%
X103500000Y-131750000D03*
%TD*%
%TO.C,REF\u002A\u002A*%
X166750000Y-131750000D03*
%TD*%
D11*
%TO.C,J1_Odd1*%
X163600000Y-121630000D03*
X161060000Y-121630000D03*
X158520000Y-121630000D03*
X155980000Y-121630000D03*
X153440000Y-121630000D03*
X150900000Y-121630000D03*
X148360000Y-121630000D03*
X145820000Y-121630000D03*
X143280000Y-121630000D03*
X140740000Y-121630000D03*
X138200000Y-121630000D03*
X135660000Y-121630000D03*
X133120000Y-121630000D03*
X130580000Y-121630000D03*
X128040000Y-121630000D03*
X125500000Y-121630000D03*
X122960000Y-121630000D03*
X120420000Y-121630000D03*
X117880000Y-121630000D03*
D12*
X115340000Y-121630000D03*
%TD*%
D11*
%TO.C,J1_Even1*%
X163600000Y-114010000D03*
X161060000Y-114010000D03*
X158520000Y-114010000D03*
X155980000Y-114010000D03*
X153440000Y-114010000D03*
X150900000Y-114010000D03*
X148360000Y-114010000D03*
X145820000Y-114010000D03*
X143280000Y-114010000D03*
X140740000Y-114010000D03*
X138200000Y-114010000D03*
X135660000Y-114010000D03*
X133120000Y-114010000D03*
X130580000Y-114010000D03*
X128040000Y-114010000D03*
X125500000Y-114010000D03*
X122960000Y-114010000D03*
X120420000Y-114010000D03*
X117880000Y-114010000D03*
D12*
X115340000Y-114010000D03*
%TD*%
M02*
