  0
SECTION
  2
HEADER
  9
$ACADVER
  1
AC1018
  9
$HANDSEED
  5
FFFFFFFF
  9
$ANGBASE
  50
0.0
  9
$ANGDIR
  70
1
  9
$MEASUREMENT
  70
1
  9
$INSUNITS
  70
4
  0
ENDSEC
  0
SECTION
  2
TABLES
  0
TABLE
  2
APPID
  5
1
330
0
100
AcDbSymbolTable
 70
1
  0
APPID
  5
2
330
1
100
AcDbSymbolTableRecord
100
AcDbRegAppTableRecord
  2
ACAD
 70
0
  0
ENDTAB
  0
TABLE
  2
LTYPE
  5
3
330
0
100
AcDbSymbolTable
 70
6
  0
LTYPE
  5
4
330
3
100
AcDbSymbolTableRecord
100
AcDbLinetypeTableRecord
  2
ByBlock
 70
0
  3

 72
65
 73
0
 40
0
  0
LTYPE
  5
5
330
3
100
AcDbSymbolTableRecord
100
AcDbLinetypeTableRecord
  2
ByLayer
 70
0
  3

 72
65
 73
0
 40
0
  0
LTYPE
  5
6
330
3
100
AcDbSymbolTableRecord
100
AcDbLinetypeTableRecord
  2
CONTINUOUS
 70
0
  3
Solid line
 72
65
 73
0
 40
0
  0
LTYPE
  5
7
330
3
100
AcDbSymbolTableRecord
100
AcDbLinetypeTableRecord
  2
DASHDOT
 70
0
  3
Dash Dot ____ _ ____ _
 72
65
 73
4
 40
2
 49
1.25
 74
0
 49
-0.25
 74
0
 49
0.25
 74
0
 49
-0.25
 74
0
  0
LTYPE
  5
8
330
3
100
AcDbSymbolTableRecord
100
AcDbLinetypeTableRecord
  2
DASHED
 70
0
  3
Dashed __ __ __ __ __
 72
65
 73
2
 40
0.75
 49
0.5
 74
0
 49
-0.25
 74
0
  0
LTYPE
  5
9
330
3
100
AcDbSymbolTableRecord
100
AcDbLinetypeTableRecord
  2
DOTTED
 70
0
  3
Dotted .  .  .  .
 72
65
 73
2
 40
0.2
 49
0.0
 74
0
 49
-0.2
 74
0
  0
ENDTAB
  0
TABLE
  2
STYLE
  5
A
330
0
100
AcDbSymbolTable
 70
4
  0
STYLE
  5
B
330
A
100
AcDbSymbolTableRecord
100
AcDbTextStyleTableRecord
  2
KICAD
 70
0
 40
0
 41
1
 42
1
 50
0
 71
0
  3
isocp.shx
  0
STYLE
  5
C
330
A
100
AcDbSymbolTableRecord
100
AcDbTextStyleTableRecord
  2
KICADB
 70
0
 40
0
 41
1
 42
1
 50
0
 71
0
  3
isocp.shx
  0
STYLE
  5
D
330
A
100
AcDbSymbolTableRecord
100
AcDbTextStyleTableRecord
  2
KICADI
 70
0
 40
0
 41
1
 42
1
 50
15
 71
0
  3
isocp.shx
  0
STYLE
  5
E
330
A
100
AcDbSymbolTableRecord
100
AcDbTextStyleTableRecord
  2
KICADBI
 70
0
 40
0
 41
1
 42
1
 50
15
 71
0
  3
isocp.shx
  0
ENDTAB
  0
TABLE
  2
LAYER
  5
F
330
0
100
AcDbSymbolTable
 70
4
  0
LAYER
  5
12
330
F
100
AcDbSymbolTableRecord
100
AcDbLayerTableRecord
  2
0
 70
0
 62
7
  6
CONTINUOUS
390
10
  0
LAYER
  5
13
330
F
100
AcDbSymbolTableRecord
100
AcDbLayerTableRecord
  2
B.Cu
 70
0
 62
153
420
5078980
  6
CONTINUOUS
390
10
  0
LAYER
  5
14
330
F
100
AcDbSymbolTableRecord
100
AcDbLayerTableRecord
  2
Edge.Cuts
 70
0
 62
254
420
13685453
  6
CONTINUOUS
390
10
  0
LAYER
  5
15
330
F
100
AcDbSymbolTableRecord
100
AcDbLayerTableRecord
  2
B.Mask
 70
0
 62
4
420
196590
  6
CONTINUOUS
390
10
  0
ENDTAB
  0
TABLE
  2
VPORT
  5
16
330
0
100
AcDbSymbolTable
 70
0
  0
ENDTAB
  0
TABLE
  2
VIEW
  5
17
330
0
100
AcDbSymbolTable
 70
0
  0
ENDTAB
  0
TABLE
  2
UCS
  5
18
330
0
100
AcDbSymbolTable
 70
0
  0
ENDTAB
  0
TABLE
  2
DIMSTYLE
  5
19
330
0
100
AcDbSymbolTable
 70
1
100
AcDbDimStyleTable
 71
0
  0
DIMSTYLE
105
1A
330
19
100
AcDbSymbolTableRecord
100
AcDbDimStyleTableRecord
  2
Standard
 70
0
  0
ENDTAB
  0
TABLE
  2
BLOCK_RECORD
  5
1B
330
0
100
AcDbSymbolTable
 70
3
  0
BLOCK_RECORD
  5
1C
330
1B
100
AcDbSymbolTableRecord
100
AcDbBlockTableRecord
  2
*Model_Space
340
1F
 70
0
280
1
281
0
  0
BLOCK_RECORD
  5
1D
330
1B
100
AcDbSymbolTableRecord
100
AcDbBlockTableRecord
  2
*Paper_Space
340
20
 70
0
280
1
281
0
  0
BLOCK_RECORD
  5
1E
330
1B
100
AcDbSymbolTableRecord
100
AcDbBlockTableRecord
  2
*Paper_Space0
340
21
 70
0
280
1
281
0
  0
ENDTAB
  0
ENDSEC
  0
SECTION
  2
BLOCKS
  0
BLOCK
  5
25
330
1C
100
AcDbEntity
  8
0
100
AcDbBlockBegin
  2
*Model_Space
 70
0
 10
0.0
 20
0.0
 30
0.0
  3
*Model_Space
  1

  0
ENDBLK
  5
24
330
1C
100
AcDbEntity
  8
0
100
AcDbBlockEnd
  0
BLOCK
  5
27
330
1D
100
AcDbEntity
 67
1
  8
0
100
AcDbBlockBegin
  2
*Paper_Space
 70
0
 10
0.0
 20
0.0
 30
0.0
  3
*Paper_Space
  1

  0
ENDBLK
  5
26
330
1D
100
AcDbEntity
 67
1
  8
0
100
AcDbBlockEnd
  0
BLOCK
  5
29
330
1E
100
AcDbEntity
 67
1
  8
0
100
AcDbBlockBegin
  2
*Paper_Space0
 70
0
 10
0.0
 20
0.0
 30
0.0
  3
*Paper_Space0
  1

  0
ENDBLK
  5
28
330
1E
100
AcDbEntity
 67
1
  8
0
100
AcDbBlockEnd
  0
ENDSEC
  0
SECTION
  2
ENTITIES
  0
LINE
  5
2A
330
1C
100
AcDbEntity
  8
B.Cu
  6
CONTINUOUS
100
AcDbLine
 10
179.5
 20
-107.5499999999999972
 30
0
 11
176.7999999999999829
 21
-107.5499999999999972
 31
0
  0
LINE
  5
2B
330
1C
100
AcDbEntity
  8
B.Cu
  6
CONTINUOUS
100
AcDbLine
 10
176.7999999999999829
 20
-107.5499999999999972
 30
0
 11
114.5999999999999943
 21
-107.5499999999999972
 31
0
  0
LINE
  5
2C
330
1C
100
AcDbEntity
  8
B.Cu
  6
CONTINUOUS
100
AcDbLine
 10
114.5999999999999943
 20
-107.5499999999999972
 30
0
 11
114.5756140000000016
 21
-107.5475979999999936
 31
0
  0
LINE
  5
2D
330
1C
100
AcDbEntity
  8
B.Cu
  6
CONTINUOUS
100
AcDbLine
 10
114.5756140000000016
 20
-107.5475979999999936
 30
0
 11
114.5305539999999951
 21
-107.5289339999999925
 31
0
  0
LINE
  5
2E
330
1C
100
AcDbEntity
  8
B.Cu
  6
CONTINUOUS
100
AcDbLine
 10
114.5305539999999951
 20
-107.5289339999999925
 30
0
 11
114.496065999999999
 21
-107.4944459999999964
 31
0
  0
LINE
  5
2F
330
1C
100
AcDbEntity
  8
B.Cu
  6
CONTINUOUS
100
AcDbLine
 10
114.496065999999999
 20
-107.4944459999999964
 30
0
 11
114.4774019999999979
 21
-107.4493859999999898
 31
0
  0
LINE
  5
30
330
1C
100
AcDbEntity
  8
B.Cu
  6
CONTINUOUS
100
AcDbLine
 10
114.4774019999999979
 20
-107.4493859999999898
 30
0
 11
114.4774019999999979
 21
-107.4006139999999903
 31
0
  0
LINE
  5
31
330
1C
100
AcDbEntity
  8
B.Cu
  6
CONTINUOUS
100
AcDbLine
 10
114.4774019999999979
 20
-107.4006139999999903
 30
0
 11
114.496065999999999
 21
-107.3555539999999979
 31
0
  0
LINE
  5
32
330
1C
100
AcDbEntity
  8
B.Cu
  6
CONTINUOUS
100
AcDbLine
 10
114.496065999999999
 20
-107.3555539999999979
 30
0
 11
114.5305539999999951
 21
-107.3210660000000018
 31
0
  0
LINE
  5
33
330
1C
100
AcDbEntity
  8
B.Cu
  6
CONTINUOUS
100
AcDbLine
 10
114.5305539999999951
 20
-107.3210660000000018
 30
0
 11
114.5756140000000016
 21
-107.3024020000000007
 31
0
  0
LINE
  5
34
330
1C
100
AcDbEntity
  8
B.Cu
  6
CONTINUOUS
100
AcDbLine
 10
114.5756140000000016
 20
-107.3024020000000007
 30
0
 11
114.5999999999999943
 21
-107.2999999999999972
 31
0
  0
LINE
  5
35
330
1C
100
AcDbEntity
  8
B.Cu
  6
CONTINUOUS
100
AcDbLine
 10
114.5999999999999943
 20
-107.2999999999999972
 30
0
 11
176.9000000000000057
 21
-107.2999999999999972
 31
0
  0
LINE
  5
36
330
1C
100
AcDbEntity
  8
B.Cu
  6
CONTINUOUS
100
AcDbLine
 10
176.9000000000000057
 20
-107.2999999999999972
 30
0
 11
177.5499999999999829
 21
-107.2999999999999972
 31
0
  0
LINE
  5
37
330
1C
100
AcDbEntity
  8
B.Cu
  6
CONTINUOUS
100
AcDbLine
 10
177.5499999999999829
 20
-107.2999999999999972
 30
0
 11
177.6999999999999886
 21
-107.3499999999999943
 31
0
  0
LINE
  5
38
330
1C
100
AcDbEntity
  8
B.Cu
  6
CONTINUOUS
100
AcDbLine
 10
177.6999999999999886
 20
-107.3499999999999943
 30
0
 11
178.6999999999999886
 21
-107.3499999999999943
 31
0
  0
LINE
  5
39
330
1C
100
AcDbEntity
  8
B.Cu
  6
CONTINUOUS
100
AcDbLine
 10
178.6999999999999886
 20
-107.3499999999999943
 30
0
 11
178.7999999999999829
 21
-107.25
 31
0
  0
LINE
  5
3A
330
1C
100
AcDbEntity
  8
B.Cu
  6
CONTINUOUS
100
AcDbLine
 10
178.7999999999999829
 20
-107.25
 30
0
 11
179.5
 21
-107.25
 31
0
  0
LINE
  5
3B
330
1C
100
AcDbEntity
  8
B.Cu
  6
CONTINUOUS
100
AcDbLine
 10
179.5
 20
-107.25
 30
0
 11
179.5
 21
-107.5499999999999972
 31
0
  0
LINE
  5
3C
330
1C
100
AcDbEntity
  8
B.Cu
  6
CONTINUOUS
100
AcDbLine
 10
178.7999999999999829
 20
-107.0499999999999972
 30
0
 11
178.7999999999999829
 21
-107.1499999999999915
 31
0
  0
LINE
  5
3D
330
1C
100
AcDbEntity
  8
B.Cu
  6
CONTINUOUS
100
AcDbLine
 10
178.7999999999999829
 20
-107.1499999999999915
 30
0
 11
178.6999999999999886
 21
-107.25
 31
0
  0
LINE
  5
3E
330
1C
100
AcDbEntity
  8
B.Cu
  6
CONTINUOUS
100
AcDbLine
 10
178.6999999999999886
 20
-107.25
 30
0
 11
177.6999999999999886
 21
-107.25
 31
0
  0
LINE
  5
3F
330
1C
100
AcDbEntity
  8
B.Cu
  6
CONTINUOUS
100
AcDbLine
 10
177.6999999999999886
 20
-107.25
 30
0
 11
177.5499999999999829
 21
-107.1999999999999886
 31
0
  0
LINE
  5
40
330
1C
100
AcDbEntity
  8
B.Cu
  6
CONTINUOUS
100
AcDbLine
 10
177.5499999999999829
 20
-107.1999999999999886
 30
0
 11
176.7999999999999829
 21
-107.1999999999999886
 31
0
  0
LINE
  5
41
330
1C
100
AcDbEntity
  8
B.Cu
  6
CONTINUOUS
100
AcDbLine
 10
176.7999999999999829
 20
-107.1999999999999886
 30
0
 11
115.2999999999999972
 21
-107.1999999999999886
 31
0
  0
LINE
  5
42
330
1C
100
AcDbEntity
  8
B.Cu
  6
CONTINUOUS
100
AcDbLine
 10
115.2999999999999972
 20
-107.1999999999999886
 30
0
 11
115.2804909999999978
 21
-107.1980789999999928
 31
0
  0
LINE
  5
43
330
1C
100
AcDbEntity
  8
B.Cu
  6
CONTINUOUS
100
AcDbLine
 10
115.2804909999999978
 20
-107.1980789999999928
 30
0
 11
115.2444429999999898
 21
-107.1831469999999911
 31
0
  0
LINE
  5
44
330
1C
100
AcDbEntity
  8
B.Cu
  6
CONTINUOUS
100
AcDbLine
 10
115.2444429999999898
 20
-107.1831469999999911
 30
0
 11
115.2168530000000004
 21
-107.1555570000000017
 31
0
  0
LINE
  5
45
330
1C
100
AcDbEntity
  8
B.Cu
  6
CONTINUOUS
100
AcDbLine
 10
115.2168530000000004
 20
-107.1555570000000017
 30
0
 11
115.2019209999999987
 21
-107.1195089999999936
 31
0
  0
LINE
  5
46
330
1C
100
AcDbEntity
  8
B.Cu
  6
CONTINUOUS
100
AcDbLine
 10
115.2019209999999987
 20
-107.1195089999999936
 30
0
 11
115.2019209999999987
 21
-107.080490999999995
 31
0
  0
LINE
  5
47
330
1C
100
AcDbEntity
  8
B.Cu
  6
CONTINUOUS
100
AcDbLine
 10
115.2019209999999987
 20
-107.080490999999995
 30
0
 11
115.2168530000000004
 21
-107.0444430000000011
 31
0
  0
LINE
  5
48
330
1C
100
AcDbEntity
  8
B.Cu
  6
CONTINUOUS
100
AcDbLine
 10
115.2168530000000004
 20
-107.0444430000000011
 30
0
 11
115.2444429999999898
 21
-107.0168529999999976
 31
0
  0
LINE
  5
49
330
1C
100
AcDbEntity
  8
B.Cu
  6
CONTINUOUS
100
AcDbLine
 10
115.2444429999999898
 20
-107.0168529999999976
 30
0
 11
115.2804909999999978
 21
-107.0019209999999958
 31
0
  0
LINE
  5
4A
330
1C
100
AcDbEntity
  8
B.Cu
  6
CONTINUOUS
100
AcDbLine
 10
115.2804909999999978
 20
-107.0019209999999958
 30
0
 11
115.2999999999999972
 21
-107.
 31
0
  0
LINE
  5
4B
330
1C
100
AcDbEntity
  8
B.Cu
  6
CONTINUOUS
100
AcDbLine
 10
115.2999999999999972
 20
-107.
 30
0
 11
176.9000000000000057
 21
-107.
 31
0
  0
LINE
  5
4C
330
1C
100
AcDbEntity
  8
B.Cu
  6
CONTINUOUS
100
AcDbLine
 10
176.9000000000000057
 20
-107.
 30
0
 11
177.5499999999999829
 21
-107.
 31
0
  0
LINE
  5
4D
330
1C
100
AcDbEntity
  8
B.Cu
  6
CONTINUOUS
100
AcDbLine
 10
177.5499999999999829
 20
-107.
 30
0
 11
177.6999999999999886
 21
-106.9499999999999886
 31
0
  0
LINE
  5
4E
330
1C
100
AcDbEntity
  8
B.Cu
  6
CONTINUOUS
100
AcDbLine
 10
177.6999999999999886
 20
-106.9499999999999886
 30
0
 11
178.6999999999999886
 21
-106.9499999999999886
 31
0
  0
LINE
  5
4F
330
1C
100
AcDbEntity
  8
B.Cu
  6
CONTINUOUS
100
AcDbLine
 10
178.6999999999999886
 20
-106.9499999999999886
 30
0
 11
178.7999999999999829
 21
-107.0499999999999972
 31
0
  0
LINE
  5
50
330
1C
100
AcDbEntity
  8
B.Cu
  6
CONTINUOUS
100
AcDbLine
 10
179.5
 20
-106.9499999999999886
 30
0
 11
178.7999999999999829
 21
-106.9499999999999886
 31
0
  0
LINE
  5
51
330
1C
100
AcDbEntity
  8
B.Cu
  6
CONTINUOUS
100
AcDbLine
 10
178.7999999999999829
 20
-106.9499999999999886
 30
0
 11
178.6999999999999886
 21
-106.8499999999999943
 31
0
  0
LINE
  5
52
330
1C
100
AcDbEntity
  8
B.Cu
  6
CONTINUOUS
100
AcDbLine
 10
178.6999999999999886
 20
-106.8499999999999943
 30
0
 11
177.6999999999999886
 21
-106.8499999999999943
 31
0
  0
LINE
  5
53
330
1C
100
AcDbEntity
  8
B.Cu
  6
CONTINUOUS
100
AcDbLine
 10
177.6999999999999886
 20
-106.8499999999999943
 30
0
 11
177.5499999999999829
 21
-106.8999999999999915
 31
0
  0
LINE
  5
54
330
1C
100
AcDbEntity
  8
B.Cu
  6
CONTINUOUS
100
AcDbLine
 10
177.5499999999999829
 20
-106.8999999999999915
 30
0
 11
176.7999999999999829
 21
-106.8999999999999915
 31
0
  0
LINE
  5
55
330
1C
100
AcDbEntity
  8
B.Cu
  6
CONTINUOUS
100
AcDbLine
 10
176.7999999999999829
 20
-106.8999999999999915
 30
0
 11
114.5999999999999943
 21
-106.8999999999999915
 31
0
  0
LINE
  5
56
330
1C
100
AcDbEntity
  8
B.Cu
  6
CONTINUOUS
100
AcDbLine
 10
114.5999999999999943
 20
-106.8999999999999915
 30
0
 11
114.580490999999995
 21
-106.8980789999999956
 31
0
  0
LINE
  5
57
330
1C
100
AcDbEntity
  8
B.Cu
  6
CONTINUOUS
100
AcDbLine
 10
114.580490999999995
 20
-106.8980789999999956
 30
0
 11
114.5444430000000011
 21
-106.8831469999999939
 31
0
  0
LINE
  5
58
330
1C
100
AcDbEntity
  8
B.Cu
  6
CONTINUOUS
100
AcDbLine
 10
114.5444430000000011
 20
-106.8831469999999939
 30
0
 11
114.5168529999999976
 21
-106.8555569999999904
 31
0
  0
LINE
  5
59
330
1C
100
AcDbEntity
  8
B.Cu
  6
CONTINUOUS
100
AcDbLine
 10
114.5168529999999976
 20
-106.8555569999999904
 30
0
 11
114.5019209999999958
 21
-106.8195089999999965
 31
0
  0
LINE
  5
5A
330
1C
100
AcDbEntity
  8
B.Cu
  6
CONTINUOUS
100
AcDbLine
 10
114.5019209999999958
 20
-106.8195089999999965
 30
0
 11
114.5019209999999958
 21
-106.7804909999999978
 31
0
  0
LINE
  5
5B
330
1C
100
AcDbEntity
  8
B.Cu
  6
CONTINUOUS
100
AcDbLine
 10
114.5019209999999958
 20
-106.7804909999999978
 30
0
 11
114.5168529999999976
 21
-106.7444429999999898
 31
0
  0
LINE
  5
5C
330
1C
100
AcDbEntity
  8
B.Cu
  6
CONTINUOUS
100
AcDbLine
 10
114.5168529999999976
 20
-106.7444429999999898
 30
0
 11
114.5444430000000011
 21
-106.7168530000000004
 31
0
  0
LINE
  5
5D
330
1C
100
AcDbEntity
  8
B.Cu
  6
CONTINUOUS
100
AcDbLine
 10
114.5444430000000011
 20
-106.7168530000000004
 30
0
 11
114.580490999999995
 21
-106.7019209999999987
 31
0
  0
LINE
  5
5E
330
1C
100
AcDbEntity
  8
B.Cu
  6
CONTINUOUS
100
AcDbLine
 10
114.580490999999995
 20
-106.7019209999999987
 30
0
 11
114.5999999999999943
 21
-106.6999999999999886
 31
0
  0
LINE
  5
5F
330
1C
100
AcDbEntity
  8
B.Cu
  6
CONTINUOUS
100
AcDbLine
 10
114.5999999999999943
 20
-106.6999999999999886
 30
0
 11
176.9000000000000057
 21
-106.6999999999999886
 31
0
  0
LINE
  5
60
330
1C
100
AcDbEntity
  8
B.Cu
  6
CONTINUOUS
100
AcDbLine
 10
176.9000000000000057
 20
-106.6999999999999886
 30
0
 11
177.5499999999999829
 21
-106.6999999999999886
 31
0
  0
LINE
  5
61
330
1C
100
AcDbEntity
  8
B.Cu
  6
CONTINUOUS
100
AcDbLine
 10
177.5499999999999829
 20
-106.6999999999999886
 30
0
 11
177.6999999999999886
 21
-106.75
 31
0
  0
LINE
  5
62
330
1C
100
AcDbEntity
  8
B.Cu
  6
CONTINUOUS
100
AcDbLine
 10
177.6999999999999886
 20
-106.75
 30
0
 11
178.6999999999999886
 21
-106.75
 31
0
  0
LINE
  5
63
330
1C
100
AcDbEntity
  8
B.Cu
  6
CONTINUOUS
100
AcDbLine
 10
178.6999999999999886
 20
-106.75
 30
0
 11
178.7999999999999829
 21
-106.6499999999999915
 31
0
  0
LINE
  5
64
330
1C
100
AcDbEntity
  8
B.Cu
  6
CONTINUOUS
100
AcDbLine
 10
178.7999999999999829
 20
-106.6499999999999915
 30
0
 11
179.5
 21
-106.6499999999999915
 31
0
  0
LINE
  5
65
330
1C
100
AcDbEntity
  8
B.Cu
  6
CONTINUOUS
100
AcDbLine
 10
179.5
 20
-106.6499999999999915
 30
0
 11
179.5
 21
-106.9499999999999886
 31
0
  0
LINE
  5
66
330
1C
100
AcDbEntity
  8
B.Cu
  6
CONTINUOUS
100
AcDbLine
 10
178.7999999999999829
 20
-106.4499999999999886
 30
0
 11
178.7999999999999829
 21
-106.5499999999999972
 31
0
  0
LINE
  5
67
330
1C
100
AcDbEntity
  8
B.Cu
  6
CONTINUOUS
100
AcDbLine
 10
178.7999999999999829
 20
-106.5499999999999972
 30
0
 11
178.6999999999999886
 21
-106.6499999999999915
 31
0
  0
LINE
  5
68
330
1C
100
AcDbEntity
  8
B.Cu
  6
CONTINUOUS
100
AcDbLine
 10
178.6999999999999886
 20
-106.6499999999999915
 30
0
 11
177.6999999999999886
 21
-106.6499999999999915
 31
0
  0
LINE
  5
69
330
1C
100
AcDbEntity
  8
B.Cu
  6
CONTINUOUS
100
AcDbLine
 10
177.6999999999999886
 20
-106.6499999999999915
 30
0
 11
177.5499999999999829
 21
-106.5999999999999943
 31
0
  0
LINE
  5
6A
330
1C
100
AcDbEntity
  8
B.Cu
  6
CONTINUOUS
100
AcDbLine
 10
177.5499999999999829
 20
-106.5999999999999943
 30
0
 11
176.7999999999999829
 21
-106.5999999999999943
 31
0
  0
LINE
  5
6B
330
1C
100
AcDbEntity
  8
B.Cu
  6
CONTINUOUS
100
AcDbLine
 10
176.7999999999999829
 20
-106.5999999999999943
 30
0
 11
115.2999999999999972
 21
-106.5999999999999943
 31
0
  0
LINE
  5
6C
330
1C
100
AcDbEntity
  8
B.Cu
  6
CONTINUOUS
100
AcDbLine
 10
115.2999999999999972
 20
-106.5999999999999943
 30
0
 11
115.2804909999999978
 21
-106.5980789999999985
 31
0
  0
LINE
  5
6D
330
1C
100
AcDbEntity
  8
B.Cu
  6
CONTINUOUS
100
AcDbLine
 10
115.2804909999999978
 20
-106.5980789999999985
 30
0
 11
115.2444429999999898
 21
-106.5831469999999968
 31
0
  0
LINE
  5
6E
330
1C
100
AcDbEntity
  8
B.Cu
  6
CONTINUOUS
100
AcDbLine
 10
115.2444429999999898
 20
-106.5831469999999968
 30
0
 11
115.2168530000000004
 21
-106.5555569999999932
 31
0
  0
LINE
  5
6F
330
1C
100
AcDbEntity
  8
B.Cu
  6
CONTINUOUS
100
AcDbLine
 10
115.2168530000000004
 20
-106.5555569999999932
 30
0
 11
115.2019209999999987
 21
-106.5195089999999993
 31
0
  0
LINE
  5
70
330
1C
100
AcDbEntity
  8
B.Cu
  6
CONTINUOUS
100
AcDbLine
 10
115.2019209999999987
 20
-106.5195089999999993
 30
0
 11
115.2019209999999987
 21
-106.4804910000000007
 31
0
  0
LINE
  5
71
330
1C
100
AcDbEntity
  8
B.Cu
  6
CONTINUOUS
100
AcDbLine
 10
115.2019209999999987
 20
-106.4804910000000007
 30
0
 11
115.2168530000000004
 21
-106.4444429999999926
 31
0
  0
LINE
  5
72
330
1C
100
AcDbEntity
  8
B.Cu
  6
CONTINUOUS
100
AcDbLine
 10
115.2168530000000004
 20
-106.4444429999999926
 30
0
 11
115.2444429999999898
 21
-106.416852999999989
 31
0
  0
LINE
  5
73
330
1C
100
AcDbEntity
  8
B.Cu
  6
CONTINUOUS
100
AcDbLine
 10
115.2444429999999898
 20
-106.416852999999989
 30
0
 11
115.2804909999999978
 21
-106.4019210000000015
 31
0
  0
LINE
  5
74
330
1C
100
AcDbEntity
  8
B.Cu
  6
CONTINUOUS
100
AcDbLine
 10
115.2804909999999978
 20
-106.4019210000000015
 30
0
 11
115.2999999999999972
 21
-106.3999999999999915
 31
0
  0
LINE
  5
75
330
1C
100
AcDbEntity
  8
B.Cu
  6
CONTINUOUS
100
AcDbLine
 10
115.2999999999999972
 20
-106.3999999999999915
 30
0
 11
176.9000000000000057
 21
-106.3999999999999915
 31
0
  0
LINE
  5
76
330
1C
100
AcDbEntity
  8
B.Cu
  6
CONTINUOUS
100
AcDbLine
 10
176.9000000000000057
 20
-106.3999999999999915
 30
0
 11
177.5499999999999829
 21
-106.3999999999999915
 31
0
  0
LINE
  5
77
330
1C
100
AcDbEntity
  8
B.Cu
  6
CONTINUOUS
100
AcDbLine
 10
177.5499999999999829
 20
-106.3999999999999915
 30
0
 11
177.6999999999999886
 21
-106.3499999999999943
 31
0
  0
LINE
  5
78
330
1C
100
AcDbEntity
  8
B.Cu
  6
CONTINUOUS
100
AcDbLine
 10
177.6999999999999886
 20
-106.3499999999999943
 30
0
 11
178.6999999999999886
 21
-106.3499999999999943
 31
0
  0
LINE
  5
79
330
1C
100
AcDbEntity
  8
B.Cu
  6
CONTINUOUS
100
AcDbLine
 10
178.6999999999999886
 20
-106.3499999999999943
 30
0
 11
178.7999999999999829
 21
-106.4499999999999886
 31
0
  0
LINE
  5
7A
330
1C
100
AcDbEntity
  8
B.Cu
  6
CONTINUOUS
100
AcDbLine
 10
179.5
 20
-106.3499999999999943
 30
0
 11
178.7999999999999829
 21
-106.3499999999999943
 31
0
  0
LINE
  5
7B
330
1C
100
AcDbEntity
  8
B.Cu
  6
CONTINUOUS
100
AcDbLine
 10
178.7999999999999829
 20
-106.3499999999999943
 30
0
 11
178.6999999999999886
 21
-106.25
 31
0
  0
LINE
  5
7C
330
1C
100
AcDbEntity
  8
B.Cu
  6
CONTINUOUS
100
AcDbLine
 10
178.6999999999999886
 20
-106.25
 30
0
 11
177.6999999999999886
 21
-106.25
 31
0
  0
LINE
  5
7D
330
1C
100
AcDbEntity
  8
B.Cu
  6
CONTINUOUS
100
AcDbLine
 10
177.6999999999999886
 20
-106.25
 30
0
 11
177.5499999999999829
 21
-106.2999999999999972
 31
0
  0
LINE
  5
7E
330
1C
100
AcDbEntity
  8
B.Cu
  6
CONTINUOUS
100
AcDbLine
 10
177.5499999999999829
 20
-106.2999999999999972
 30
0
 11
176.7999999999999829
 21
-106.2999999999999972
 31
0
  0
LINE
  5
7F
330
1C
100
AcDbEntity
  8
B.Cu
  6
CONTINUOUS
100
AcDbLine
 10
176.7999999999999829
 20
-106.2999999999999972
 30
0
 11
114.5999999999999943
 21
-106.2999999999999972
 31
0
  0
LINE
  5
80
330
1C
100
AcDbEntity
  8
B.Cu
  6
CONTINUOUS
100
AcDbLine
 10
114.5999999999999943
 20
-106.2999999999999972
 30
0
 11
114.580490999999995
 21
-106.2980790000000013
 31
0
  0
LINE
  5
81
330
1C
100
AcDbEntity
  8
B.Cu
  6
CONTINUOUS
100
AcDbLine
 10
114.580490999999995
 20
-106.2980790000000013
 30
0
 11
114.5444430000000011
 21
-106.2831469999999996
 31
0
  0
LINE
  5
82
330
1C
100
AcDbEntity
  8
B.Cu
  6
CONTINUOUS
100
AcDbLine
 10
114.5444430000000011
 20
-106.2831469999999996
 30
0
 11
114.5168529999999976
 21
-106.255556999999996
 31
0
  0
LINE
  5
83
330
1C
100
AcDbEntity
  8
B.Cu
  6
CONTINUOUS
100
AcDbLine
 10
114.5168529999999976
 20
-106.255556999999996
 30
0
 11
114.5019209999999958
 21
-106.2195090000000022
 31
0
  0
LINE
  5
84
330
1C
100
AcDbEntity
  8
B.Cu
  6
CONTINUOUS
100
AcDbLine
 10
114.5019209999999958
 20
-106.2195090000000022
 30
0
 11
114.5019209999999958
 21
-106.1804909999999893
 31
0
  0
LINE
  5
85
330
1C
100
AcDbEntity
  8
B.Cu
  6
CONTINUOUS
100
AcDbLine
 10
114.5019209999999958
 20
-106.1804909999999893
 30
0
 11
114.5168529999999976
 21
-106.1444429999999954
 31
0
  0
LINE
  5
86
330
1C
100
AcDbEntity
  8
B.Cu
  6
CONTINUOUS
100
AcDbLine
 10
114.5168529999999976
 20
-106.1444429999999954
 30
0
 11
114.5444430000000011
 21
-106.1168529999999919
 31
0
  0
LINE
  5
87
330
1C
100
AcDbEntity
  8
B.Cu
  6
CONTINUOUS
100
AcDbLine
 10
114.5444430000000011
 20
-106.1168529999999919
 30
0
 11
114.580490999999995
 21
-106.1019209999999902
 31
0
  0
LINE
  5
88
330
1C
100
AcDbEntity
  8
B.Cu
  6
CONTINUOUS
100
AcDbLine
 10
114.580490999999995
 20
-106.1019209999999902
 30
0
 11
114.5999999999999943
 21
-106.0999999999999943
 31
0
  0
LINE
  5
89
330
1C
100
AcDbEntity
  8
B.Cu
  6
CONTINUOUS
100
AcDbLine
 10
114.5999999999999943
 20
-106.0999999999999943
 30
0
 11
176.9000000000000057
 21
-106.0999999999999943
 31
0
  0
LINE
  5
8A
330
1C
100
AcDbEntity
  8
B.Cu
  6
CONTINUOUS
100
AcDbLine
 10
176.9000000000000057
 20
-106.0999999999999943
 30
0
 11
177.5499999999999829
 21
-106.0999999999999943
 31
0
  0
LINE
  5
8B
330
1C
100
AcDbEntity
  8
B.Cu
  6
CONTINUOUS
100
AcDbLine
 10
177.5499999999999829
 20
-106.0999999999999943
 30
0
 11
177.6999999999999886
 21
-106.1499999999999915
 31
0
  0
LINE
  5
8C
330
1C
100
AcDbEntity
  8
B.Cu
  6
CONTINUOUS
100
AcDbLine
 10
177.6999999999999886
 20
-106.1499999999999915
 30
0
 11
178.6999999999999886
 21
-106.1499999999999915
 31
0
  0
LINE
  5
8D
330
1C
100
AcDbEntity
  8
B.Cu
  6
CONTINUOUS
100
AcDbLine
 10
178.6999999999999886
 20
-106.1499999999999915
 30
0
 11
178.7999999999999829
 21
-106.0499999999999972
 31
0
  0
LINE
  5
8E
330
1C
100
AcDbEntity
  8
B.Cu
  6
CONTINUOUS
100
AcDbLine
 10
178.7999999999999829
 20
-106.0499999999999972
 30
0
 11
179.5
 21
-106.0499999999999972
 31
0
  0
LINE
  5
8F
330
1C
100
AcDbEntity
  8
B.Cu
  6
CONTINUOUS
100
AcDbLine
 10
179.5
 20
-106.0499999999999972
 30
0
 11
179.5
 21
-106.3499999999999943
 31
0
  0
LINE
  5
90
330
1C
100
AcDbEntity
  8
B.Cu
  6
CONTINUOUS
100
AcDbLine
 10
178.7999999999999829
 20
-105.8499999999999943
 30
0
 11
178.7999999999999829
 21
-105.9499999999999886
 31
0
  0
LINE
  5
91
330
1C
100
AcDbEntity
  8
B.Cu
  6
CONTINUOUS
100
AcDbLine
 10
178.7999999999999829
 20
-105.9499999999999886
 30
0
 11
178.6999999999999886
 21
-106.0499999999999972
 31
0
  0
LINE
  5
92
330
1C
100
AcDbEntity
  8
B.Cu
  6
CONTINUOUS
100
AcDbLine
 10
178.6999999999999886
 20
-106.0499999999999972
 30
0
 11
177.6999999999999886
 21
-106.0499999999999972
 31
0
  0
LINE
  5
93
330
1C
100
AcDbEntity
  8
B.Cu
  6
CONTINUOUS
100
AcDbLine
 10
177.6999999999999886
 20
-106.0499999999999972
 30
0
 11
177.5499999999999829
 21
-106.
 31
0
  0
LINE
  5
94
330
1C
100
AcDbEntity
  8
B.Cu
  6
CONTINUOUS
100
AcDbLine
 10
177.5499999999999829
 20
-106.
 30
0
 11
176.7999999999999829
 21
-106.
 31
0
  0
LINE
  5
95
330
1C
100
AcDbEntity
  8
B.Cu
  6
CONTINUOUS
100
AcDbLine
 10
176.7999999999999829
 20
-106.
 30
0
 11
115.2999999999999972
 21
-106.
 31
0
  0
LINE
  5
96
330
1C
100
AcDbEntity
  8
B.Cu
  6
CONTINUOUS
100
AcDbLine
 10
115.2999999999999972
 20
-106.
 30
0
 11
115.2804909999999978
 21
-105.9980789999999899
 31
0
  0
LINE
  5
97
330
1C
100
AcDbEntity
  8
B.Cu
  6
CONTINUOUS
100
AcDbLine
 10
115.2804909999999978
 20
-105.9980789999999899
 30
0
 11
115.2444429999999898
 21
-105.9831469999999882
 31
0
  0
LINE
  5
98
330
1C
100
AcDbEntity
  8
B.Cu
  6
CONTINUOUS
100
AcDbLine
 10
115.2444429999999898
 20
-105.9831469999999882
 30
0
 11
115.2168530000000004
 21
-105.9555569999999989
 31
0
  0
LINE
  5
99
330
1C
100
AcDbEntity
  8
B.Cu
  6
CONTINUOUS
100
AcDbLine
 10
115.2168530000000004
 20
-105.9555569999999989
 30
0
 11
115.2019209999999987
 21
-105.9195089999999908
 31
0
  0
LINE
  5
9A
330
1C
100
AcDbEntity
  8
B.Cu
  6
CONTINUOUS
100
AcDbLine
 10
115.2019209999999987
 20
-105.9195089999999908
 30
0
 11
115.2019209999999987
 21
-105.8804909999999921
 31
0
  0
LINE
  5
9B
330
1C
100
AcDbEntity
  8
B.Cu
  6
CONTINUOUS
100
AcDbLine
 10
115.2019209999999987
 20
-105.8804909999999921
 30
0
 11
115.2168530000000004
 21
-105.8444429999999983
 31
0
  0
LINE
  5
9C
330
1C
100
AcDbEntity
  8
B.Cu
  6
CONTINUOUS
100
AcDbLine
 10
115.2168530000000004
 20
-105.8444429999999983
 30
0
 11
115.2444429999999898
 21
-105.8168529999999947
 31
0
  0
LINE
  5
9D
330
1C
100
AcDbEntity
  8
B.Cu
  6
CONTINUOUS
100
AcDbLine
 10
115.2444429999999898
 20
-105.8168529999999947
 30
0
 11
115.2804909999999978
 21
-105.801920999999993
 31
0
  0
LINE
  5
9E
330
1C
100
AcDbEntity
  8
B.Cu
  6
CONTINUOUS
100
AcDbLine
 10
115.2804909999999978
 20
-105.801920999999993
 30
0
 11
115.2999999999999972
 21
-105.7999999999999972
 31
0
  0
LINE
  5
9F
330
1C
100
AcDbEntity
  8
B.Cu
  6
CONTINUOUS
100
AcDbLine
 10
115.2999999999999972
 20
-105.7999999999999972
 30
0
 11
176.9000000000000057
 21
-105.7999999999999972
 31
0
  0
LINE
  5
A0
330
1C
100
AcDbEntity
  8
B.Cu
  6
CONTINUOUS
100
AcDbLine
 10
176.9000000000000057
 20
-105.7999999999999972
 30
0
 11
177.5499999999999829
 21
-105.7999999999999972
 31
0
  0
LINE
  5
A1
330
1C
100
AcDbEntity
  8
B.Cu
  6
CONTINUOUS
100
AcDbLine
 10
177.5499999999999829
 20
-105.7999999999999972
 30
0
 11
177.6999999999999886
 21
-105.75
 31
0
  0
LINE
  5
A2
330
1C
100
AcDbEntity
  8
B.Cu
  6
CONTINUOUS
100
AcDbLine
 10
177.6999999999999886
 20
-105.75
 30
0
 11
178.6999999999999886
 21
-105.75
 31
0
  0
LINE
  5
A3
330
1C
100
AcDbEntity
  8
B.Cu
  6
CONTINUOUS
100
AcDbLine
 10
178.6999999999999886
 20
-105.75
 30
0
 11
178.7999999999999829
 21
-105.8499999999999943
 31
0
  0
LINE
  5
A4
330
1C
100
AcDbEntity
  8
B.Cu
  6
CONTINUOUS
100
AcDbLine
 10
179.5
 20
-105.75
 30
0
 11
178.7999999999999829
 21
-105.75
 31
0
  0
LINE
  5
A5
330
1C
100
AcDbEntity
  8
B.Cu
  6
CONTINUOUS
100
AcDbLine
 10
178.7999999999999829
 20
-105.75
 30
0
 11
178.6999999999999886
 21
-105.6499999999999915
 31
0
  0
LINE
  5
A6
330
1C
100
AcDbEntity
  8
B.Cu
  6
CONTINUOUS
100
AcDbLine
 10
178.6999999999999886
 20
-105.6499999999999915
 30
0
 11
177.6999999999999886
 21
-105.6499999999999915
 31
0
  0
LINE
  5
A7
330
1C
100
AcDbEntity
  8
B.Cu
  6
CONTINUOUS
100
AcDbLine
 10
177.6999999999999886
 20
-105.6499999999999915
 30
0
 11
177.5499999999999829
 21
-105.6999999999999886
 31
0
  0
LINE
  5
A8
330
1C
100
AcDbEntity
  8
B.Cu
  6
CONTINUOUS
100
AcDbLine
 10
177.5499999999999829
 20
-105.6999999999999886
 30
0
 11
176.7999999999999829
 21
-105.6999999999999886
 31
0
  0
LINE
  5
A9
330
1C
100
AcDbEntity
  8
B.Cu
  6
CONTINUOUS
100
AcDbLine
 10
176.7999999999999829
 20
-105.6999999999999886
 30
0
 11
114.5999999999999943
 21
-105.6999999999999886
 31
0
  0
LINE
  5
AA
330
1C
100
AcDbEntity
  8
B.Cu
  6
CONTINUOUS
100
AcDbLine
 10
114.5999999999999943
 20
-105.6999999999999886
 30
0
 11
114.580490999999995
 21
-105.6980789999999928
 31
0
  0
LINE
  5
AB
330
1C
100
AcDbEntity
  8
B.Cu
  6
CONTINUOUS
100
AcDbLine
 10
114.580490999999995
 20
-105.6980789999999928
 30
0
 11
114.5444430000000011
 21
-105.6831469999999911
 31
0
  0
LINE
  5
AC
330
1C
100
AcDbEntity
  8
B.Cu
  6
CONTINUOUS
100
AcDbLine
 10
114.5444430000000011
 20
-105.6831469999999911
 30
0
 11
114.5168529999999976
 21
-105.6555570000000017
 31
0
  0
LINE
  5
AD
330
1C
100
AcDbEntity
  8
B.Cu
  6
CONTINUOUS
100
AcDbLine
 10
114.5168529999999976
 20
-105.6555570000000017
 30
0
 11
114.5019209999999958
 21
-105.6195089999999936
 31
0
  0
LINE
  5
AE
330
1C
100
AcDbEntity
  8
B.Cu
  6
CONTINUOUS
100
AcDbLine
 10
114.5019209999999958
 20
-105.6195089999999936
 30
0
 11
114.5019209999999958
 21
-105.580490999999995
 31
0
  0
LINE
  5
AF
330
1C
100
AcDbEntity
  8
B.Cu
  6
CONTINUOUS
100
AcDbLine
 10
114.5019209999999958
 20
-105.580490999999995
 30
0
 11
114.5168529999999976
 21
-105.5444430000000011
 31
0
  0
LINE
  5
B0
330
1C
100
AcDbEntity
  8
B.Cu
  6
CONTINUOUS
100
AcDbLine
 10
114.5168529999999976
 20
-105.5444430000000011
 30
0
 11
114.5444430000000011
 21
-105.5168529999999976
 31
0
  0
LINE
  5
B1
330
1C
100
AcDbEntity
  8
B.Cu
  6
CONTINUOUS
100
AcDbLine
 10
114.5444430000000011
 20
-105.5168529999999976
 30
0
 11
114.580490999999995
 21
-105.5019209999999958
 31
0
  0
LINE
  5
B2
330
1C
100
AcDbEntity
  8
B.Cu
  6
CONTINUOUS
100
AcDbLine
 10
114.580490999999995
 20
-105.5019209999999958
 30
0
 11
114.5999999999999943
 21
-105.5
 31
0
  0
LINE
  5
B3
330
1C
100
AcDbEntity
  8
B.Cu
  6
CONTINUOUS
100
AcDbLine
 10
114.5999999999999943
 20
-105.5
 30
0
 11
176.9000000000000057
 21
-105.5
 31
0
  0
LINE
  5
B4
330
1C
100
AcDbEntity
  8
B.Cu
  6
CONTINUOUS
100
AcDbLine
 10
176.9000000000000057
 20
-105.5
 30
0
 11
177.5499999999999829
 21
-105.5
 31
0
  0
LINE
  5
B5
330
1C
100
AcDbEntity
  8
B.Cu
  6
CONTINUOUS
100
AcDbLine
 10
177.5499999999999829
 20
-105.5
 30
0
 11
177.6999999999999886
 21
-105.5499999999999972
 31
0
  0
LINE
  5
B6
330
1C
100
AcDbEntity
  8
B.Cu
  6
CONTINUOUS
100
AcDbLine
 10
177.6999999999999886
 20
-105.5499999999999972
 30
0
 11
178.6999999999999886
 21
-105.5499999999999972
 31
0
  0
LINE
  5
B7
330
1C
100
AcDbEntity
  8
B.Cu
  6
CONTINUOUS
100
AcDbLine
 10
178.6999999999999886
 20
-105.5499999999999972
 30
0
 11
178.7999999999999829
 21
-105.4499999999999886
 31
0
  0
LINE
  5
B8
330
1C
100
AcDbEntity
  8
B.Cu
  6
CONTINUOUS
100
AcDbLine
 10
178.7999999999999829
 20
-105.4499999999999886
 30
0
 11
179.5
 21
-105.4499999999999886
 31
0
  0
LINE
  5
B9
330
1C
100
AcDbEntity
  8
B.Cu
  6
CONTINUOUS
100
AcDbLine
 10
179.5
 20
-105.4499999999999886
 30
0
 11
179.5
 21
-105.75
 31
0
  0
LINE
  5
BA
330
1C
100
AcDbEntity
  8
B.Cu
  6
CONTINUOUS
100
AcDbLine
 10
178.7999999999999829
 20
-105.25
 30
0
 11
178.7999999999999829
 21
-105.3499999999999943
 31
0
  0
LINE
  5
BB
330
1C
100
AcDbEntity
  8
B.Cu
  6
CONTINUOUS
100
AcDbLine
 10
178.7999999999999829
 20
-105.3499999999999943
 30
0
 11
178.6999999999999886
 21
-105.4499999999999886
 31
0
  0
LINE
  5
BC
330
1C
100
AcDbEntity
  8
B.Cu
  6
CONTINUOUS
100
AcDbLine
 10
178.6999999999999886
 20
-105.4499999999999886
 30
0
 11
177.6999999999999886
 21
-105.4499999999999886
 31
0
  0
LINE
  5
BD
330
1C
100
AcDbEntity
  8
B.Cu
  6
CONTINUOUS
100
AcDbLine
 10
177.6999999999999886
 20
-105.4499999999999886
 30
0
 11
177.5499999999999829
 21
-105.3999999999999915
 31
0
  0
LINE
  5
BE
330
1C
100
AcDbEntity
  8
B.Cu
  6
CONTINUOUS
100
AcDbLine
 10
177.5499999999999829
 20
-105.3999999999999915
 30
0
 11
176.7999999999999829
 21
-105.3999999999999915
 31
0
  0
LINE
  5
BF
330
1C
100
AcDbEntity
  8
B.Cu
  6
CONTINUOUS
100
AcDbLine
 10
176.7999999999999829
 20
-105.3999999999999915
 30
0
 11
115.2999999999999972
 21
-105.3999999999999915
 31
0
  0
LINE
  5
C0
330
1C
100
AcDbEntity
  8
B.Cu
  6
CONTINUOUS
100
AcDbLine
 10
115.2999999999999972
 20
-105.3999999999999915
 30
0
 11
115.2804909999999978
 21
-105.3980789999999956
 31
0
  0
LINE
  5
C1
330
1C
100
AcDbEntity
  8
B.Cu
  6
CONTINUOUS
100
AcDbLine
 10
115.2804909999999978
 20
-105.3980789999999956
 30
0
 11
115.2444429999999898
 21
-105.3831469999999939
 31
0
  0
LINE
  5
C2
330
1C
100
AcDbEntity
  8
B.Cu
  6
CONTINUOUS
100
AcDbLine
 10
115.2444429999999898
 20
-105.3831469999999939
 30
0
 11
115.2168530000000004
 21
-105.3555569999999904
 31
0
  0
LINE
  5
C3
330
1C
100
AcDbEntity
  8
B.Cu
  6
CONTINUOUS
100
AcDbLine
 10
115.2168530000000004
 20
-105.3555569999999904
 30
0
 11
115.2019209999999987
 21
-105.3195089999999965
 31
0
  0
LINE
  5
C4
330
1C
100
AcDbEntity
  8
B.Cu
  6
CONTINUOUS
100
AcDbLine
 10
115.2019209999999987
 20
-105.3195089999999965
 30
0
 11
115.2019209999999987
 21
-105.2804909999999978
 31
0
  0
LINE
  5
C5
330
1C
100
AcDbEntity
  8
B.Cu
  6
CONTINUOUS
100
AcDbLine
 10
115.2019209999999987
 20
-105.2804909999999978
 30
0
 11
115.2168530000000004
 21
-105.2444429999999898
 31
0
  0
LINE
  5
C6
330
1C
100
AcDbEntity
  8
B.Cu
  6
CONTINUOUS
100
AcDbLine
 10
115.2168530000000004
 20
-105.2444429999999898
 30
0
 11
115.2444429999999898
 21
-105.2168530000000004
 31
0
  0
LINE
  5
C7
330
1C
100
AcDbEntity
  8
B.Cu
  6
CONTINUOUS
100
AcDbLine
 10
115.2444429999999898
 20
-105.2168530000000004
 30
0
 11
115.2804909999999978
 21
-105.2019209999999987
 31
0
  0
LINE
  5
C8
330
1C
100
AcDbEntity
  8
B.Cu
  6
CONTINUOUS
100
AcDbLine
 10
115.2804909999999978
 20
-105.2019209999999987
 30
0
 11
115.2999999999999972
 21
-105.1999999999999886
 31
0
  0
LINE
  5
C9
330
1C
100
AcDbEntity
  8
B.Cu
  6
CONTINUOUS
100
AcDbLine
 10
115.2999999999999972
 20
-105.1999999999999886
 30
0
 11
176.9000000000000057
 21
-105.1999999999999886
 31
0
  0
LINE
  5
CA
330
1C
100
AcDbEntity
  8
B.Cu
  6
CONTINUOUS
100
AcDbLine
 10
176.9000000000000057
 20
-105.1999999999999886
 30
0
 11
177.5499999999999829
 21
-105.1999999999999886
 31
0
  0
LINE
  5
CB
330
1C
100
AcDbEntity
  8
B.Cu
  6
CONTINUOUS
100
AcDbLine
 10
177.5499999999999829
 20
-105.1999999999999886
 30
0
 11
177.6999999999999886
 21
-105.1499999999999915
 31
0
  0
LINE
  5
CC
330
1C
100
AcDbEntity
  8
B.Cu
  6
CONTINUOUS
100
AcDbLine
 10
177.6999999999999886
 20
-105.1499999999999915
 30
0
 11
178.6999999999999886
 21
-105.1499999999999915
 31
0
  0
LINE
  5
CD
330
1C
100
AcDbEntity
  8
B.Cu
  6
CONTINUOUS
100
AcDbLine
 10
178.6999999999999886
 20
-105.1499999999999915
 30
0
 11
178.7999999999999829
 21
-105.25
 31
0
  0
LINE
  5
CE
330
1C
100
AcDbEntity
  8
B.Cu
  6
CONTINUOUS
100
AcDbLine
 10
179.5
 20
-105.1499999999999915
 30
0
 11
178.7999999999999829
 21
-105.1499999999999915
 31
0
  0
LINE
  5
CF
330
1C
100
AcDbEntity
  8
B.Cu
  6
CONTINUOUS
100
AcDbLine
 10
178.7999999999999829
 20
-105.1499999999999915
 30
0
 11
178.6999999999999886
 21
-105.0499999999999972
 31
0
  0
LINE
  5
D0
330
1C
100
AcDbEntity
  8
B.Cu
  6
CONTINUOUS
100
AcDbLine
 10
178.6999999999999886
 20
-105.0499999999999972
 30
0
 11
177.6999999999999886
 21
-105.0499999999999972
 31
0
  0
LINE
  5
D1
330
1C
100
AcDbEntity
  8
B.Cu
  6
CONTINUOUS
100
AcDbLine
 10
177.6999999999999886
 20
-105.0499999999999972
 30
0
 11
177.5499999999999829
 21
-105.0999999999999943
 31
0
  0
LINE
  5
D2
330
1C
100
AcDbEntity
  8
B.Cu
  6
CONTINUOUS
100
AcDbLine
 10
177.5499999999999829
 20
-105.0999999999999943
 30
0
 11
176.7999999999999829
 21
-105.0999999999999943
 31
0
  0
LINE
  5
D3
330
1C
100
AcDbEntity
  8
B.Cu
  6
CONTINUOUS
100
AcDbLine
 10
176.7999999999999829
 20
-105.0999999999999943
 30
0
 11
114.5999999999999943
 21
-105.0999999999999943
 31
0
  0
LINE
  5
D4
330
1C
100
AcDbEntity
  8
B.Cu
  6
CONTINUOUS
100
AcDbLine
 10
114.5999999999999943
 20
-105.0999999999999943
 30
0
 11
114.580490999999995
 21
-105.0980789999999985
 31
0
  0
LINE
  5
D5
330
1C
100
AcDbEntity
  8
B.Cu
  6
CONTINUOUS
100
AcDbLine
 10
114.580490999999995
 20
-105.0980789999999985
 30
0
 11
114.5444430000000011
 21
-105.0831469999999968
 31
0
  0
LINE
  5
D6
330
1C
100
AcDbEntity
  8
B.Cu
  6
CONTINUOUS
100
AcDbLine
 10
114.5444430000000011
 20
-105.0831469999999968
 30
0
 11
114.5168529999999976
 21
-105.0555569999999932
 31
0
  0
LINE
  5
D7
330
1C
100
AcDbEntity
  8
B.Cu
  6
CONTINUOUS
100
AcDbLine
 10
114.5168529999999976
 20
-105.0555569999999932
 30
0
 11
114.5019209999999958
 21
-105.0195089999999993
 31
0
  0
LINE
  5
D8
330
1C
100
AcDbEntity
  8
B.Cu
  6
CONTINUOUS
100
AcDbLine
 10
114.5019209999999958
 20
-105.0195089999999993
 30
0
 11
114.5019209999999958
 21
-104.9804910000000007
 31
0
  0
LINE
  5
D9
330
1C
100
AcDbEntity
  8
B.Cu
  6
CONTINUOUS
100
AcDbLine
 10
114.5019209999999958
 20
-104.9804910000000007
 30
0
 11
114.5168529999999976
 21
-104.9444429999999926
 31
0
  0
LINE
  5
DA
330
1C
100
AcDbEntity
  8
B.Cu
  6
CONTINUOUS
100
AcDbLine
 10
114.5168529999999976
 20
-104.9444429999999926
 30
0
 11
114.5444430000000011
 21
-104.916852999999989
 31
0
  0
LINE
  5
DB
330
1C
100
AcDbEntity
  8
B.Cu
  6
CONTINUOUS
100
AcDbLine
 10
114.5444430000000011
 20
-104.916852999999989
 30
0
 11
114.580490999999995
 21
-104.9019210000000015
 31
0
  0
LINE
  5
DC
330
1C
100
AcDbEntity
  8
B.Cu
  6
CONTINUOUS
100
AcDbLine
 10
114.580490999999995
 20
-104.9019210000000015
 30
0
 11
114.5999999999999943
 21
-104.8999999999999915
 31
0
  0
LINE
  5
DD
330
1C
100
AcDbEntity
  8
B.Cu
  6
CONTINUOUS
100
AcDbLine
 10
114.5999999999999943
 20
-104.8999999999999915
 30
0
 11
176.9000000000000057
 21
-104.8999999999999915
 31
0
  0
LINE
  5
DE
330
1C
100
AcDbEntity
  8
B.Cu
  6
CONTINUOUS
100
AcDbLine
 10
176.9000000000000057
 20
-104.8999999999999915
 30
0
 11
177.5499999999999829
 21
-104.8999999999999915
 31
0
  0
LINE
  5
DF
330
1C
100
AcDbEntity
  8
B.Cu
  6
CONTINUOUS
100
AcDbLine
 10
177.5499999999999829
 20
-104.8999999999999915
 30
0
 11
177.6999999999999886
 21
-104.9499999999999886
 31
0
  0
LINE
  5
E0
330
1C
100
AcDbEntity
  8
B.Cu
  6
CONTINUOUS
100
AcDbLine
 10
177.6999999999999886
 20
-104.9499999999999886
 30
0
 11
178.6999999999999886
 21
-104.9499999999999886
 31
0
  0
LINE
  5
E1
330
1C
100
AcDbEntity
  8
B.Cu
  6
CONTINUOUS
100
AcDbLine
 10
178.6999999999999886
 20
-104.9499999999999886
 30
0
 11
178.7999999999999829
 21
-104.8499999999999943
 31
0
  0
LINE
  5
E2
330
1C
100
AcDbEntity
  8
B.Cu
  6
CONTINUOUS
100
AcDbLine
 10
178.7999999999999829
 20
-104.8499999999999943
 30
0
 11
179.5
 21
-104.8499999999999943
 31
0
  0
LINE
  5
E3
330
1C
100
AcDbEntity
  8
B.Cu
  6
CONTINUOUS
100
AcDbLine
 10
179.5
 20
-104.8499999999999943
 30
0
 11
179.5
 21
-105.1499999999999915
 31
0
  0
LINE
  5
E4
330
1C
100
AcDbEntity
  8
B.Cu
  6
CONTINUOUS
100
AcDbLine
 10
178.7999999999999829
 20
-104.6499999999999915
 30
0
 11
178.7999999999999829
 21
-104.75
 31
0
  0
LINE
  5
E5
330
1C
100
AcDbEntity
  8
B.Cu
  6
CONTINUOUS
100
AcDbLine
 10
178.7999999999999829
 20
-104.75
 30
0
 11
178.6999999999999886
 21
-104.8499999999999943
 31
0
  0
LINE
  5
E6
330
1C
100
AcDbEntity
  8
B.Cu
  6
CONTINUOUS
100
AcDbLine
 10
178.6999999999999886
 20
-104.8499999999999943
 30
0
 11
177.6999999999999886
 21
-104.8499999999999943
 31
0
  0
LINE
  5
E7
330
1C
100
AcDbEntity
  8
B.Cu
  6
CONTINUOUS
100
AcDbLine
 10
177.6999999999999886
 20
-104.8499999999999943
 30
0
 11
177.5499999999999829
 21
-104.7999999999999972
 31
0
  0
LINE
  5
E8
330
1C
100
AcDbEntity
  8
B.Cu
  6
CONTINUOUS
100
AcDbLine
 10
177.5499999999999829
 20
-104.7999999999999972
 30
0
 11
176.7999999999999829
 21
-104.7999999999999972
 31
0
  0
LINE
  5
E9
330
1C
100
AcDbEntity
  8
B.Cu
  6
CONTINUOUS
100
AcDbLine
 10
176.7999999999999829
 20
-104.7999999999999972
 30
0
 11
115.2999999999999972
 21
-104.7999999999999972
 31
0
  0
LINE
  5
EA
330
1C
100
AcDbEntity
  8
B.Cu
  6
CONTINUOUS
100
AcDbLine
 10
115.2999999999999972
 20
-104.7999999999999972
 30
0
 11
115.2804909999999978
 21
-104.7980790000000013
 31
0
  0
LINE
  5
EB
330
1C
100
AcDbEntity
  8
B.Cu
  6
CONTINUOUS
100
AcDbLine
 10
115.2804909999999978
 20
-104.7980790000000013
 30
0
 11
115.2444429999999898
 21
-104.7831469999999996
 31
0
  0
LINE
  5
EC
330
1C
100
AcDbEntity
  8
B.Cu
  6
CONTINUOUS
100
AcDbLine
 10
115.2444429999999898
 20
-104.7831469999999996
 30
0
 11
115.2168530000000004
 21
-104.755556999999996
 31
0
  0
LINE
  5
ED
330
1C
100
AcDbEntity
  8
B.Cu
  6
CONTINUOUS
100
AcDbLine
 10
115.2168530000000004
 20
-104.755556999999996
 30
0
 11
115.2019209999999987
 21
-104.7195090000000022
 31
0
  0
LINE
  5
EE
330
1C
100
AcDbEntity
  8
B.Cu
  6
CONTINUOUS
100
AcDbLine
 10
115.2019209999999987
 20
-104.7195090000000022
 30
0
 11
115.2019209999999987
 21
-104.6804909999999893
 31
0
  0
LINE
  5
EF
330
1C
100
AcDbEntity
  8
B.Cu
  6
CONTINUOUS
100
AcDbLine
 10
115.2019209999999987
 20
-104.6804909999999893
 30
0
 11
115.2168530000000004
 21
-104.6444429999999954
 31
0
  0
LINE
  5
F0
330
1C
100
AcDbEntity
  8
B.Cu
  6
CONTINUOUS
100
AcDbLine
 10
115.2168530000000004
 20
-104.6444429999999954
 30
0
 11
115.2444429999999898
 21
-104.6168529999999919
 31
0
  0
LINE
  5
F1
330
1C
100
AcDbEntity
  8
B.Cu
  6
CONTINUOUS
100
AcDbLine
 10
115.2444429999999898
 20
-104.6168529999999919
 30
0
 11
115.2804909999999978
 21
-104.6019209999999902
 31
0
  0
LINE
  5
F2
330
1C
100
AcDbEntity
  8
B.Cu
  6
CONTINUOUS
100
AcDbLine
 10
115.2804909999999978
 20
-104.6019209999999902
 30
0
 11
115.2999999999999972
 21
-104.5999999999999943
 31
0
  0
LINE
  5
F3
330
1C
100
AcDbEntity
  8
B.Cu
  6
CONTINUOUS
100
AcDbLine
 10
115.2999999999999972
 20
-104.5999999999999943
 30
0
 11
176.9000000000000057
 21
-104.5999999999999943
 31
0
  0
LINE
  5
F4
330
1C
100
AcDbEntity
  8
B.Cu
  6
CONTINUOUS
100
AcDbLine
 10
176.9000000000000057
 20
-104.5999999999999943
 30
0
 11
177.5499999999999829
 21
-104.5999999999999943
 31
0
  0
LINE
  5
F5
330
1C
100
AcDbEntity
  8
B.Cu
  6
CONTINUOUS
100
AcDbLine
 10
177.5499999999999829
 20
-104.5999999999999943
 30
0
 11
177.6999999999999886
 21
-104.5499999999999972
 31
0
  0
LINE
  5
F6
330
1C
100
AcDbEntity
  8
B.Cu
  6
CONTINUOUS
100
AcDbLine
 10
177.6999999999999886
 20
-104.5499999999999972
 30
0
 11
178.6999999999999886
 21
-104.5499999999999972
 31
0
  0
LINE
  5
F7
330
1C
100
AcDbEntity
  8
B.Cu
  6
CONTINUOUS
100
AcDbLine
 10
178.6999999999999886
 20
-104.5499999999999972
 30
0
 11
178.7999999999999829
 21
-104.6499999999999915
 31
0
  0
LINE
  5
F8
330
1C
100
AcDbEntity
  8
B.Cu
  6
CONTINUOUS
100
AcDbLine
 10
179.5
 20
-104.5499999999999972
 30
0
 11
178.7999999999999829
 21
-104.5499999999999972
 31
0
  0
LINE
  5
F9
330
1C
100
AcDbEntity
  8
B.Cu
  6
CONTINUOUS
100
AcDbLine
 10
178.7999999999999829
 20
-104.5499999999999972
 30
0
 11
178.6999999999999886
 21
-104.4499999999999886
 31
0
  0
LINE
  5
FA
330
1C
100
AcDbEntity
  8
B.Cu
  6
CONTINUOUS
100
AcDbLine
 10
178.6999999999999886
 20
-104.4499999999999886
 30
0
 11
177.6999999999999886
 21
-104.4499999999999886
 31
0
  0
LINE
  5
FB
330
1C
100
AcDbEntity
  8
B.Cu
  6
CONTINUOUS
100
AcDbLine
 10
177.6999999999999886
 20
-104.4499999999999886
 30
0
 11
177.5499999999999829
 21
-104.5
 31
0
  0
LINE
  5
FC
330
1C
100
AcDbEntity
  8
B.Cu
  6
CONTINUOUS
100
AcDbLine
 10
177.5499999999999829
 20
-104.5
 30
0
 11
176.7999999999999829
 21
-104.5
 31
0
  0
LINE
  5
FD
330
1C
100
AcDbEntity
  8
B.Cu
  6
CONTINUOUS
100
AcDbLine
 10
176.7999999999999829
 20
-104.5
 30
0
 11
114.5999999999999943
 21
-104.5
 31
0
  0
LINE
  5
FE
330
1C
100
AcDbEntity
  8
B.Cu
  6
CONTINUOUS
100
AcDbLine
 10
114.5999999999999943
 20
-104.5
 30
0
 11
114.580490999999995
 21
-104.4980789999999899
 31
0
  0
LINE
  5
FF
330
1C
100
AcDbEntity
  8
B.Cu
  6
CONTINUOUS
100
AcDbLine
 10
114.580490999999995
 20
-104.4980789999999899
 30
0
 11
114.5444430000000011
 21
-104.4831469999999882
 31
0
  0
LINE
  5
100
330
1C
100
AcDbEntity
  8
B.Cu
  6
CONTINUOUS
100
AcDbLine
 10
114.5444430000000011
 20
-104.4831469999999882
 30
0
 11
114.5168529999999976
 21
-104.4555569999999989
 31
0
  0
LINE
  5
101
330
1C
100
AcDbEntity
  8
B.Cu
  6
CONTINUOUS
100
AcDbLine
 10
114.5168529999999976
 20
-104.4555569999999989
 30
0
 11
114.5019209999999958
 21
-104.4195089999999908
 31
0
  0
LINE
  5
102
330
1C
100
AcDbEntity
  8
B.Cu
  6
CONTINUOUS
100
AcDbLine
 10
114.5019209999999958
 20
-104.4195089999999908
 30
0
 11
114.5019209999999958
 21
-104.3804909999999921
 31
0
  0
LINE
  5
103
330
1C
100
AcDbEntity
  8
B.Cu
  6
CONTINUOUS
100
AcDbLine
 10
114.5019209999999958
 20
-104.3804909999999921
 30
0
 11
114.5168529999999976
 21
-104.3444429999999983
 31
0
  0
LINE
  5
104
330
1C
100
AcDbEntity
  8
B.Cu
  6
CONTINUOUS
100
AcDbLine
 10
114.5168529999999976
 20
-104.3444429999999983
 30
0
 11
114.5444430000000011
 21
-104.3168529999999947
 31
0
  0
LINE
  5
105
330
1C
100
AcDbEntity
  8
B.Cu
  6
CONTINUOUS
100
AcDbLine
 10
114.5444430000000011
 20
-104.3168529999999947
 30
0
 11
114.580490999999995
 21
-104.301920999999993
 31
0
  0
LINE
  5
106
330
1C
100
AcDbEntity
  8
B.Cu
  6
CONTINUOUS
100
AcDbLine
 10
114.580490999999995
 20
-104.301920999999993
 30
0
 11
114.5999999999999943
 21
-104.2999999999999972
 31
0
  0
LINE
  5
107
330
1C
100
AcDbEntity
  8
B.Cu
  6
CONTINUOUS
100
AcDbLine
 10
114.5999999999999943
 20
-104.2999999999999972
 30
0
 11
176.9000000000000057
 21
-104.2999999999999972
 31
0
  0
LINE
  5
108
330
1C
100
AcDbEntity
  8
B.Cu
  6
CONTINUOUS
100
AcDbLine
 10
176.9000000000000057
 20
-104.2999999999999972
 30
0
 11
177.5499999999999829
 21
-104.2999999999999972
 31
0
  0
LINE
  5
109
330
1C
100
AcDbEntity
  8
B.Cu
  6
CONTINUOUS
100
AcDbLine
 10
177.5499999999999829
 20
-104.2999999999999972
 30
0
 11
177.6999999999999886
 21
-104.3499999999999943
 31
0
  0
LINE
  5
10A
330
1C
100
AcDbEntity
  8
B.Cu
  6
CONTINUOUS
100
AcDbLine
 10
177.6999999999999886
 20
-104.3499999999999943
 30
0
 11
178.6999999999999886
 21
-104.3499999999999943
 31
0
  0
LINE
  5
10B
330
1C
100
AcDbEntity
  8
B.Cu
  6
CONTINUOUS
100
AcDbLine
 10
178.6999999999999886
 20
-104.3499999999999943
 30
0
 11
178.7999999999999829
 21
-104.25
 31
0
  0
LINE
  5
10C
330
1C
100
AcDbEntity
  8
B.Cu
  6
CONTINUOUS
100
AcDbLine
 10
178.7999999999999829
 20
-104.25
 30
0
 11
179.5
 21
-104.25
 31
0
  0
LINE
  5
10D
330
1C
100
AcDbEntity
  8
B.Cu
  6
CONTINUOUS
100
AcDbLine
 10
179.5
 20
-104.25
 30
0
 11
179.5
 21
-104.5499999999999972
 31
0
  0
LINE
  5
10E
330
1C
100
AcDbEntity
  8
B.Cu
  6
CONTINUOUS
100
AcDbLine
 10
178.7999999999999829
 20
-104.0499999999999972
 30
0
 11
178.7999999999999829
 21
-104.1499999999999915
 31
0
  0
LINE
  5
10F
330
1C
100
AcDbEntity
  8
B.Cu
  6
CONTINUOUS
100
AcDbLine
 10
178.7999999999999829
 20
-104.1499999999999915
 30
0
 11
178.6999999999999886
 21
-104.25
 31
0
  0
LINE
  5
110
330
1C
100
AcDbEntity
  8
B.Cu
  6
CONTINUOUS
100
AcDbLine
 10
178.6999999999999886
 20
-104.25
 30
0
 11
177.6999999999999886
 21
-104.25
 31
0
  0
LINE
  5
111
330
1C
100
AcDbEntity
  8
B.Cu
  6
CONTINUOUS
100
AcDbLine
 10
177.6999999999999886
 20
-104.25
 30
0
 11
177.5499999999999829
 21
-104.1999999999999886
 31
0
  0
LINE
  5
112
330
1C
100
AcDbEntity
  8
B.Cu
  6
CONTINUOUS
100
AcDbLine
 10
177.5499999999999829
 20
-104.1999999999999886
 30
0
 11
176.7999999999999829
 21
-104.1999999999999886
 31
0
  0
LINE
  5
113
330
1C
100
AcDbEntity
  8
B.Cu
  6
CONTINUOUS
100
AcDbLine
 10
176.7999999999999829
 20
-104.1999999999999886
 30
0
 11
115.2999999999999972
 21
-104.1999999999999886
 31
0
  0
LINE
  5
114
330
1C
100
AcDbEntity
  8
B.Cu
  6
CONTINUOUS
100
AcDbLine
 10
115.2999999999999972
 20
-104.1999999999999886
 30
0
 11
115.2804909999999978
 21
-104.1980789999999928
 31
0
  0
LINE
  5
115
330
1C
100
AcDbEntity
  8
B.Cu
  6
CONTINUOUS
100
AcDbLine
 10
115.2804909999999978
 20
-104.1980789999999928
 30
0
 11
115.2444429999999898
 21
-104.1831469999999911
 31
0
  0
LINE
  5
116
330
1C
100
AcDbEntity
  8
B.Cu
  6
CONTINUOUS
100
AcDbLine
 10
115.2444429999999898
 20
-104.1831469999999911
 30
0
 11
115.2168530000000004
 21
-104.1555570000000017
 31
0
  0
LINE
  5
117
330
1C
100
AcDbEntity
  8
B.Cu
  6
CONTINUOUS
100
AcDbLine
 10
115.2168530000000004
 20
-104.1555570000000017
 30
0
 11
115.2019209999999987
 21
-104.1195089999999936
 31
0
  0
LINE
  5
118
330
1C
100
AcDbEntity
  8
B.Cu
  6
CONTINUOUS
100
AcDbLine
 10
115.2019209999999987
 20
-104.1195089999999936
 30
0
 11
115.2019209999999987
 21
-104.080490999999995
 31
0
  0
LINE
  5
119
330
1C
100
AcDbEntity
  8
B.Cu
  6
CONTINUOUS
100
AcDbLine
 10
115.2019209999999987
 20
-104.080490999999995
 30
0
 11
115.2168530000000004
 21
-104.0444430000000011
 31
0
  0
LINE
  5
11A
330
1C
100
AcDbEntity
  8
B.Cu
  6
CONTINUOUS
100
AcDbLine
 10
115.2168530000000004
 20
-104.0444430000000011
 30
0
 11
115.2444429999999898
 21
-104.0168529999999976
 31
0
  0
LINE
  5
11B
330
1C
100
AcDbEntity
  8
B.Cu
  6
CONTINUOUS
100
AcDbLine
 10
115.2444429999999898
 20
-104.0168529999999976
 30
0
 11
115.2804909999999978
 21
-104.0019209999999958
 31
0
  0
LINE
  5
11C
330
1C
100
AcDbEntity
  8
B.Cu
  6
CONTINUOUS
100
AcDbLine
 10
115.2804909999999978
 20
-104.0019209999999958
 30
0
 11
115.2999999999999972
 21
-104.
 31
0
  0
LINE
  5
11D
330
1C
100
AcDbEntity
  8
B.Cu
  6
CONTINUOUS
100
AcDbLine
 10
115.2999999999999972
 20
-104.
 30
0
 11
176.9000000000000057
 21
-104.
 31
0
  0
LINE
  5
11E
330
1C
100
AcDbEntity
  8
B.Cu
  6
CONTINUOUS
100
AcDbLine
 10
176.9000000000000057
 20
-104.
 30
0
 11
177.5499999999999829
 21
-104.
 31
0
  0
LINE
  5
11F
330
1C
100
AcDbEntity
  8
B.Cu
  6
CONTINUOUS
100
AcDbLine
 10
177.5499999999999829
 20
-104.
 30
0
 11
177.6999999999999886
 21
-103.9499999999999886
 31
0
  0
LINE
  5
120
330
1C
100
AcDbEntity
  8
B.Cu
  6
CONTINUOUS
100
AcDbLine
 10
177.6999999999999886
 20
-103.9499999999999886
 30
0
 11
178.6999999999999886
 21
-103.9499999999999886
 31
0
  0
LINE
  5
121
330
1C
100
AcDbEntity
  8
B.Cu
  6
CONTINUOUS
100
AcDbLine
 10
178.6999999999999886
 20
-103.9499999999999886
 30
0
 11
178.7999999999999829
 21
-104.0499999999999972
 31
0
  0
LINE
  5
122
330
1C
100
AcDbEntity
  8
B.Cu
  6
CONTINUOUS
100
AcDbLine
 10
179.5
 20
-103.9499999999999886
 30
0
 11
178.7999999999999829
 21
-103.9499999999999886
 31
0
  0
LINE
  5
123
330
1C
100
AcDbEntity
  8
B.Cu
  6
CONTINUOUS
100
AcDbLine
 10
178.7999999999999829
 20
-103.9499999999999886
 30
0
 11
178.6999999999999886
 21
-103.8499999999999943
 31
0
  0
LINE
  5
124
330
1C
100
AcDbEntity
  8
B.Cu
  6
CONTINUOUS
100
AcDbLine
 10
178.6999999999999886
 20
-103.8499999999999943
 30
0
 11
177.6999999999999886
 21
-103.8499999999999943
 31
0
  0
LINE
  5
125
330
1C
100
AcDbEntity
  8
B.Cu
  6
CONTINUOUS
100
AcDbLine
 10
177.6999999999999886
 20
-103.8499999999999943
 30
0
 11
177.5499999999999829
 21
-103.8999999999999915
 31
0
  0
LINE
  5
126
330
1C
100
AcDbEntity
  8
B.Cu
  6
CONTINUOUS
100
AcDbLine
 10
177.5499999999999829
 20
-103.8999999999999915
 30
0
 11
176.7999999999999829
 21
-103.8999999999999915
 31
0
  0
LINE
  5
127
330
1C
100
AcDbEntity
  8
B.Cu
  6
CONTINUOUS
100
AcDbLine
 10
176.7999999999999829
 20
-103.8999999999999915
 30
0
 11
114.5999999999999943
 21
-103.8999999999999915
 31
0
  0
LINE
  5
128
330
1C
100
AcDbEntity
  8
B.Cu
  6
CONTINUOUS
100
AcDbLine
 10
114.5999999999999943
 20
-103.8999999999999915
 30
0
 11
114.580490999999995
 21
-103.8980789999999956
 31
0
  0
LINE
  5
129
330
1C
100
AcDbEntity
  8
B.Cu
  6
CONTINUOUS
100
AcDbLine
 10
114.580490999999995
 20
-103.8980789999999956
 30
0
 11
114.5444430000000011
 21
-103.8831469999999939
 31
0
  0
LINE
  5
12A
330
1C
100
AcDbEntity
  8
B.Cu
  6
CONTINUOUS
100
AcDbLine
 10
114.5444430000000011
 20
-103.8831469999999939
 30
0
 11
114.5168529999999976
 21
-103.8555569999999904
 31
0
  0
LINE
  5
12B
330
1C
100
AcDbEntity
  8
B.Cu
  6
CONTINUOUS
100
AcDbLine
 10
114.5168529999999976
 20
-103.8555569999999904
 30
0
 11
114.5019209999999958
 21
-103.8195089999999965
 31
0
  0
LINE
  5
12C
330
1C
100
AcDbEntity
  8
B.Cu
  6
CONTINUOUS
100
AcDbLine
 10
114.5019209999999958
 20
-103.8195089999999965
 30
0
 11
114.5019209999999958
 21
-103.7804909999999978
 31
0
  0
LINE
  5
12D
330
1C
100
AcDbEntity
  8
B.Cu
  6
CONTINUOUS
100
AcDbLine
 10
114.5019209999999958
 20
-103.7804909999999978
 30
0
 11
114.5168529999999976
 21
-103.7444429999999898
 31
0
  0
LINE
  5
12E
330
1C
100
AcDbEntity
  8
B.Cu
  6
CONTINUOUS
100
AcDbLine
 10
114.5168529999999976
 20
-103.7444429999999898
 30
0
 11
114.5444430000000011
 21
-103.7168530000000004
 31
0
  0
LINE
  5
12F
330
1C
100
AcDbEntity
  8
B.Cu
  6
CONTINUOUS
100
AcDbLine
 10
114.5444430000000011
 20
-103.7168530000000004
 30
0
 11
114.580490999999995
 21
-103.7019209999999987
 31
0
  0
LINE
  5
130
330
1C
100
AcDbEntity
  8
B.Cu
  6
CONTINUOUS
100
AcDbLine
 10
114.580490999999995
 20
-103.7019209999999987
 30
0
 11
114.5999999999999943
 21
-103.6999999999999886
 31
0
  0
LINE
  5
131
330
1C
100
AcDbEntity
  8
B.Cu
  6
CONTINUOUS
100
AcDbLine
 10
114.5999999999999943
 20
-103.6999999999999886
 30
0
 11
176.9000000000000057
 21
-103.6999999999999886
 31
0
  0
LINE
  5
132
330
1C
100
AcDbEntity
  8
B.Cu
  6
CONTINUOUS
100
AcDbLine
 10
176.9000000000000057
 20
-103.6999999999999886
 30
0
 11
177.5499999999999829
 21
-103.6999999999999886
 31
0
  0
LINE
  5
133
330
1C
100
AcDbEntity
  8
B.Cu
  6
CONTINUOUS
100
AcDbLine
 10
177.5499999999999829
 20
-103.6999999999999886
 30
0
 11
177.6999999999999886
 21
-103.75
 31
0
  0
LINE
  5
134
330
1C
100
AcDbEntity
  8
B.Cu
  6
CONTINUOUS
100
AcDbLine
 10
177.6999999999999886
 20
-103.75
 30
0
 11
178.6999999999999886
 21
-103.75
 31
0
  0
LINE
  5
135
330
1C
100
AcDbEntity
  8
B.Cu
  6
CONTINUOUS
100
AcDbLine
 10
178.6999999999999886
 20
-103.75
 30
0
 11
178.7999999999999829
 21
-103.6499999999999915
 31
0
  0
LINE
  5
136
330
1C
100
AcDbEntity
  8
B.Cu
  6
CONTINUOUS
100
AcDbLine
 10
178.7999999999999829
 20
-103.6499999999999915
 30
0
 11
179.5
 21
-103.6499999999999915
 31
0
  0
LINE
  5
137
330
1C
100
AcDbEntity
  8
B.Cu
  6
CONTINUOUS
100
AcDbLine
 10
179.5
 20
-103.6499999999999915
 30
0
 11
179.5
 21
-103.9499999999999886
 31
0
  0
LINE
  5
138
330
1C
100
AcDbEntity
  8
B.Cu
  6
CONTINUOUS
100
AcDbLine
 10
178.7999999999999829
 20
-103.4499999999999886
 30
0
 11
178.7999999999999829
 21
-103.5499999999999972
 31
0
  0
LINE
  5
139
330
1C
100
AcDbEntity
  8
B.Cu
  6
CONTINUOUS
100
AcDbLine
 10
178.7999999999999829
 20
-103.5499999999999972
 30
0
 11
178.6999999999999886
 21
-103.6499999999999915
 31
0
  0
LINE
  5
13A
330
1C
100
AcDbEntity
  8
B.Cu
  6
CONTINUOUS
100
AcDbLine
 10
178.6999999999999886
 20
-103.6499999999999915
 30
0
 11
177.6999999999999886
 21
-103.6499999999999915
 31
0
  0
LINE
  5
13B
330
1C
100
AcDbEntity
  8
B.Cu
  6
CONTINUOUS
100
AcDbLine
 10
177.6999999999999886
 20
-103.6499999999999915
 30
0
 11
177.5499999999999829
 21
-103.5999999999999943
 31
0
  0
LINE
  5
13C
330
1C
100
AcDbEntity
  8
B.Cu
  6
CONTINUOUS
100
AcDbLine
 10
177.5499999999999829
 20
-103.5999999999999943
 30
0
 11
176.7999999999999829
 21
-103.5999999999999943
 31
0
  0
LINE
  5
13D
330
1C
100
AcDbEntity
  8
B.Cu
  6
CONTINUOUS
100
AcDbLine
 10
176.7999999999999829
 20
-103.5999999999999943
 30
0
 11
115.2999999999999972
 21
-103.5999999999999943
 31
0
  0
LINE
  5
13E
330
1C
100
AcDbEntity
  8
B.Cu
  6
CONTINUOUS
100
AcDbLine
 10
115.2999999999999972
 20
-103.5999999999999943
 30
0
 11
115.2804909999999978
 21
-103.5980789999999985
 31
0
  0
LINE
  5
13F
330
1C
100
AcDbEntity
  8
B.Cu
  6
CONTINUOUS
100
AcDbLine
 10
115.2804909999999978
 20
-103.5980789999999985
 30
0
 11
115.2444429999999898
 21
-103.5831469999999968
 31
0
  0
LINE
  5
140
330
1C
100
AcDbEntity
  8
B.Cu
  6
CONTINUOUS
100
AcDbLine
 10
115.2444429999999898
 20
-103.5831469999999968
 30
0
 11
115.2168530000000004
 21
-103.5555569999999932
 31
0
  0
LINE
  5
141
330
1C
100
AcDbEntity
  8
B.Cu
  6
CONTINUOUS
100
AcDbLine
 10
115.2168530000000004
 20
-103.5555569999999932
 30
0
 11
115.2019209999999987
 21
-103.5195089999999993
 31
0
  0
LINE
  5
142
330
1C
100
AcDbEntity
  8
B.Cu
  6
CONTINUOUS
100
AcDbLine
 10
115.2019209999999987
 20
-103.5195089999999993
 30
0
 11
115.2019209999999987
 21
-103.4804910000000007
 31
0
  0
LINE
  5
143
330
1C
100
AcDbEntity
  8
B.Cu
  6
CONTINUOUS
100
AcDbLine
 10
115.2019209999999987
 20
-103.4804910000000007
 30
0
 11
115.2168530000000004
 21
-103.4444429999999926
 31
0
  0
LINE
  5
144
330
1C
100
AcDbEntity
  8
B.Cu
  6
CONTINUOUS
100
AcDbLine
 10
115.2168530000000004
 20
-103.4444429999999926
 30
0
 11
115.2444429999999898
 21
-103.416852999999989
 31
0
  0
LINE
  5
145
330
1C
100
AcDbEntity
  8
B.Cu
  6
CONTINUOUS
100
AcDbLine
 10
115.2444429999999898
 20
-103.416852999999989
 30
0
 11
115.2804909999999978
 21
-103.4019210000000015
 31
0
  0
LINE
  5
146
330
1C
100
AcDbEntity
  8
B.Cu
  6
CONTINUOUS
100
AcDbLine
 10
115.2804909999999978
 20
-103.4019210000000015
 30
0
 11
115.2999999999999972
 21
-103.3999999999999915
 31
0
  0
LINE
  5
147
330
1C
100
AcDbEntity
  8
B.Cu
  6
CONTINUOUS
100
AcDbLine
 10
115.2999999999999972
 20
-103.3999999999999915
 30
0
 11
176.9000000000000057
 21
-103.3999999999999915
 31
0
  0
LINE
  5
148
330
1C
100
AcDbEntity
  8
B.Cu
  6
CONTINUOUS
100
AcDbLine
 10
176.9000000000000057
 20
-103.3999999999999915
 30
0
 11
177.5499999999999829
 21
-103.3999999999999915
 31
0
  0
LINE
  5
149
330
1C
100
AcDbEntity
  8
B.Cu
  6
CONTINUOUS
100
AcDbLine
 10
177.5499999999999829
 20
-103.3999999999999915
 30
0
 11
177.6999999999999886
 21
-103.3499999999999943
 31
0
  0
LINE
  5
14A
330
1C
100
AcDbEntity
  8
B.Cu
  6
CONTINUOUS
100
AcDbLine
 10
177.6999999999999886
 20
-103.3499999999999943
 30
0
 11
178.6999999999999886
 21
-103.3499999999999943
 31
0
  0
LINE
  5
14B
330
1C
100
AcDbEntity
  8
B.Cu
  6
CONTINUOUS
100
AcDbLine
 10
178.6999999999999886
 20
-103.3499999999999943
 30
0
 11
178.7999999999999829
 21
-103.4499999999999886
 31
0
  0
LINE
  5
14C
330
1C
100
AcDbEntity
  8
B.Cu
  6
CONTINUOUS
100
AcDbLine
 10
179.5
 20
-103.3499999999999943
 30
0
 11
178.7999999999999829
 21
-103.3499999999999943
 31
0
  0
LINE
  5
14D
330
1C
100
AcDbEntity
  8
B.Cu
  6
CONTINUOUS
100
AcDbLine
 10
178.7999999999999829
 20
-103.3499999999999943
 30
0
 11
178.6999999999999886
 21
-103.25
 31
0
  0
LINE
  5
14E
330
1C
100
AcDbEntity
  8
B.Cu
  6
CONTINUOUS
100
AcDbLine
 10
178.6999999999999886
 20
-103.25
 30
0
 11
177.6999999999999886
 21
-103.25
 31
0
  0
LINE
  5
14F
330
1C
100
AcDbEntity
  8
B.Cu
  6
CONTINUOUS
100
AcDbLine
 10
177.6999999999999886
 20
-103.25
 30
0
 11
177.5499999999999829
 21
-103.2999999999999972
 31
0
  0
LINE
  5
150
330
1C
100
AcDbEntity
  8
B.Cu
  6
CONTINUOUS
100
AcDbLine
 10
177.5499999999999829
 20
-103.2999999999999972
 30
0
 11
176.7999999999999829
 21
-103.2999999999999972
 31
0
  0
LINE
  5
151
330
1C
100
AcDbEntity
  8
B.Cu
  6
CONTINUOUS
100
AcDbLine
 10
176.7999999999999829
 20
-103.2999999999999972
 30
0
 11
114.5999999999999943
 21
-103.2999999999999972
 31
0
  0
LINE
  5
152
330
1C
100
AcDbEntity
  8
B.Cu
  6
CONTINUOUS
100
AcDbLine
 10
114.5999999999999943
 20
-103.2999999999999972
 30
0
 11
114.580490999999995
 21
-103.2980790000000013
 31
0
  0
LINE
  5
153
330
1C
100
AcDbEntity
  8
B.Cu
  6
CONTINUOUS
100
AcDbLine
 10
114.580490999999995
 20
-103.2980790000000013
 30
0
 11
114.5444430000000011
 21
-103.2831469999999996
 31
0
  0
LINE
  5
154
330
1C
100
AcDbEntity
  8
B.Cu
  6
CONTINUOUS
100
AcDbLine
 10
114.5444430000000011
 20
-103.2831469999999996
 30
0
 11
114.5168529999999976
 21
-103.255556999999996
 31
0
  0
LINE
  5
155
330
1C
100
AcDbEntity
  8
B.Cu
  6
CONTINUOUS
100
AcDbLine
 10
114.5168529999999976
 20
-103.255556999999996
 30
0
 11
114.5019209999999958
 21
-103.2195090000000022
 31
0
  0
LINE
  5
156
330
1C
100
AcDbEntity
  8
B.Cu
  6
CONTINUOUS
100
AcDbLine
 10
114.5019209999999958
 20
-103.2195090000000022
 30
0
 11
114.5019209999999958
 21
-103.1804909999999893
 31
0
  0
LINE
  5
157
330
1C
100
AcDbEntity
  8
B.Cu
  6
CONTINUOUS
100
AcDbLine
 10
114.5019209999999958
 20
-103.1804909999999893
 30
0
 11
114.5168529999999976
 21
-103.1444429999999954
 31
0
  0
LINE
  5
158
330
1C
100
AcDbEntity
  8
B.Cu
  6
CONTINUOUS
100
AcDbLine
 10
114.5168529999999976
 20
-103.1444429999999954
 30
0
 11
114.5444430000000011
 21
-103.1168529999999919
 31
0
  0
LINE
  5
159
330
1C
100
AcDbEntity
  8
B.Cu
  6
CONTINUOUS
100
AcDbLine
 10
114.5444430000000011
 20
-103.1168529999999919
 30
0
 11
114.580490999999995
 21
-103.1019209999999902
 31
0
  0
LINE
  5
15A
330
1C
100
AcDbEntity
  8
B.Cu
  6
CONTINUOUS
100
AcDbLine
 10
114.580490999999995
 20
-103.1019209999999902
 30
0
 11
114.5999999999999943
 21
-103.0999999999999943
 31
0
  0
LINE
  5
15B
330
1C
100
AcDbEntity
  8
B.Cu
  6
CONTINUOUS
100
AcDbLine
 10
114.5999999999999943
 20
-103.0999999999999943
 30
0
 11
176.9000000000000057
 21
-103.0999999999999943
 31
0
  0
LINE
  5
15C
330
1C
100
AcDbEntity
  8
B.Cu
  6
CONTINUOUS
100
AcDbLine
 10
176.9000000000000057
 20
-103.0999999999999943
 30
0
 11
177.5499999999999829
 21
-103.0999999999999943
 31
0
  0
LINE
  5
15D
330
1C
100
AcDbEntity
  8
B.Cu
  6
CONTINUOUS
100
AcDbLine
 10
177.5499999999999829
 20
-103.0999999999999943
 30
0
 11
177.6999999999999886
 21
-103.1499999999999915
 31
0
  0
LINE
  5
15E
330
1C
100
AcDbEntity
  8
B.Cu
  6
CONTINUOUS
100
AcDbLine
 10
177.6999999999999886
 20
-103.1499999999999915
 30
0
 11
178.6999999999999886
 21
-103.1499999999999915
 31
0
  0
LINE
  5
15F
330
1C
100
AcDbEntity
  8
B.Cu
  6
CONTINUOUS
100
AcDbLine
 10
178.6999999999999886
 20
-103.1499999999999915
 30
0
 11
178.7999999999999829
 21
-103.0499999999999972
 31
0
  0
LINE
  5
160
330
1C
100
AcDbEntity
  8
B.Cu
  6
CONTINUOUS
100
AcDbLine
 10
178.7999999999999829
 20
-103.0499999999999972
 30
0
 11
179.5
 21
-103.0499999999999972
 31
0
  0
LINE
  5
161
330
1C
100
AcDbEntity
  8
B.Cu
  6
CONTINUOUS
100
AcDbLine
 10
179.5
 20
-103.0499999999999972
 30
0
 11
179.5
 21
-103.3499999999999943
 31
0
  0
LINE
  5
162
330
1C
100
AcDbEntity
  8
B.Cu
  6
CONTINUOUS
100
AcDbLine
 10
178.7999999999999829
 20
-102.8499999999999943
 30
0
 11
178.7999999999999829
 21
-102.9499999999999886
 31
0
  0
LINE
  5
163
330
1C
100
AcDbEntity
  8
B.Cu
  6
CONTINUOUS
100
AcDbLine
 10
178.7999999999999829
 20
-102.9499999999999886
 30
0
 11
178.6999999999999886
 21
-103.0499999999999972
 31
0
  0
LINE
  5
164
330
1C
100
AcDbEntity
  8
B.Cu
  6
CONTINUOUS
100
AcDbLine
 10
178.6999999999999886
 20
-103.0499999999999972
 30
0
 11
177.6999999999999886
 21
-103.0499999999999972
 31
0
  0
LINE
  5
165
330
1C
100
AcDbEntity
  8
B.Cu
  6
CONTINUOUS
100
AcDbLine
 10
177.6999999999999886
 20
-103.0499999999999972
 30
0
 11
177.5499999999999829
 21
-103.
 31
0
  0
LINE
  5
166
330
1C
100
AcDbEntity
  8
B.Cu
  6
CONTINUOUS
100
AcDbLine
 10
177.5499999999999829
 20
-103.
 30
0
 11
176.7999999999999829
 21
-103.
 31
0
  0
LINE
  5
167
330
1C
100
AcDbEntity
  8
B.Cu
  6
CONTINUOUS
100
AcDbLine
 10
176.7999999999999829
 20
-103.
 30
0
 11
115.2999999999999972
 21
-103.
 31
0
  0
LINE
  5
168
330
1C
100
AcDbEntity
  8
B.Cu
  6
CONTINUOUS
100
AcDbLine
 10
115.2999999999999972
 20
-103.
 30
0
 11
115.2804909999999978
 21
-102.9980789999999899
 31
0
  0
LINE
  5
169
330
1C
100
AcDbEntity
  8
B.Cu
  6
CONTINUOUS
100
AcDbLine
 10
115.2804909999999978
 20
-102.9980789999999899
 30
0
 11
115.2444429999999898
 21
-102.9831470000000024
 31
0
  0
LINE
  5
16A
330
1C
100
AcDbEntity
  8
B.Cu
  6
CONTINUOUS
100
AcDbLine
 10
115.2444429999999898
 20
-102.9831470000000024
 30
0
 11
115.2168530000000004
 21
-102.9555569999999989
 31
0
  0
LINE
  5
16B
330
1C
100
AcDbEntity
  8
B.Cu
  6
CONTINUOUS
100
AcDbLine
 10
115.2168530000000004
 20
-102.9555569999999989
 30
0
 11
115.2019209999999987
 21
-102.9195089999999908
 31
0
  0
LINE
  5
16C
330
1C
100
AcDbEntity
  8
B.Cu
  6
CONTINUOUS
100
AcDbLine
 10
115.2019209999999987
 20
-102.9195089999999908
 30
0
 11
115.2019209999999987
 21
-102.8804909999999921
 31
0
  0
LINE
  5
16D
330
1C
100
AcDbEntity
  8
B.Cu
  6
CONTINUOUS
100
AcDbLine
 10
115.2019209999999987
 20
-102.8804909999999921
 30
0
 11
115.2168530000000004
 21
-102.8444429999999983
 31
0
  0
LINE
  5
16E
330
1C
100
AcDbEntity
  8
B.Cu
  6
CONTINUOUS
100
AcDbLine
 10
115.2168530000000004
 20
-102.8444429999999983
 30
0
 11
115.2444429999999898
 21
-102.8168529999999947
 31
0
  0
LINE
  5
16F
330
1C
100
AcDbEntity
  8
B.Cu
  6
CONTINUOUS
100
AcDbLine
 10
115.2444429999999898
 20
-102.8168529999999947
 30
0
 11
115.2804909999999978
 21
-102.801920999999993
 31
0
  0
LINE
  5
170
330
1C
100
AcDbEntity
  8
B.Cu
  6
CONTINUOUS
100
AcDbLine
 10
115.2804909999999978
 20
-102.801920999999993
 30
0
 11
115.2999999999999972
 21
-102.7999999999999972
 31
0
  0
LINE
  5
171
330
1C
100
AcDbEntity
  8
B.Cu
  6
CONTINUOUS
100
AcDbLine
 10
115.2999999999999972
 20
-102.7999999999999972
 30
0
 11
176.9000000000000057
 21
-102.7999999999999972
 31
0
  0
LINE
  5
172
330
1C
100
AcDbEntity
  8
B.Cu
  6
CONTINUOUS
100
AcDbLine
 10
176.9000000000000057
 20
-102.7999999999999972
 30
0
 11
177.5499999999999829
 21
-102.7999999999999972
 31
0
  0
LINE
  5
173
330
1C
100
AcDbEntity
  8
B.Cu
  6
CONTINUOUS
100
AcDbLine
 10
177.5499999999999829
 20
-102.7999999999999972
 30
0
 11
177.6999999999999886
 21
-102.75
 31
0
  0
LINE
  5
174
330
1C
100
AcDbEntity
  8
B.Cu
  6
CONTINUOUS
100
AcDbLine
 10
177.6999999999999886
 20
-102.75
 30
0
 11
178.6999999999999886
 21
-102.75
 31
0
  0
LINE
  5
175
330
1C
100
AcDbEntity
  8
B.Cu
  6
CONTINUOUS
100
AcDbLine
 10
178.6999999999999886
 20
-102.75
 30
0
 11
178.7999999999999829
 21
-102.8499999999999943
 31
0
  0
LINE
  5
176
330
1C
100
AcDbEntity
  8
B.Cu
  6
CONTINUOUS
100
AcDbLine
 10
179.5
 20
-102.75
 30
0
 11
178.7999999999999829
 21
-102.75
 31
0
  0
LINE
  5
177
330
1C
100
AcDbEntity
  8
B.Cu
  6
CONTINUOUS
100
AcDbLine
 10
178.7999999999999829
 20
-102.75
 30
0
 11
178.6999999999999886
 21
-102.6499999999999915
 31
0
  0
LINE
  5
178
330
1C
100
AcDbEntity
  8
B.Cu
  6
CONTINUOUS
100
AcDbLine
 10
178.6999999999999886
 20
-102.6499999999999915
 30
0
 11
177.6999999999999886
 21
-102.6499999999999915
 31
0
  0
LINE
  5
179
330
1C
100
AcDbEntity
  8
B.Cu
  6
CONTINUOUS
100
AcDbLine
 10
177.6999999999999886
 20
-102.6499999999999915
 30
0
 11
177.5499999999999829
 21
-102.6999999999999886
 31
0
  0
LINE
  5
17A
330
1C
100
AcDbEntity
  8
B.Cu
  6
CONTINUOUS
100
AcDbLine
 10
177.5499999999999829
 20
-102.6999999999999886
 30
0
 11
176.7999999999999829
 21
-102.6999999999999886
 31
0
  0
LINE
  5
17B
330
1C
100
AcDbEntity
  8
B.Cu
  6
CONTINUOUS
100
AcDbLine
 10
176.7999999999999829
 20
-102.6999999999999886
 30
0
 11
114.5999999999999943
 21
-102.6999999999999886
 31
0
  0
LINE
  5
17C
330
1C
100
AcDbEntity
  8
B.Cu
  6
CONTINUOUS
100
AcDbLine
 10
114.5999999999999943
 20
-102.6999999999999886
 30
0
 11
114.580490999999995
 21
-102.6980789999999928
 31
0
  0
LINE
  5
17D
330
1C
100
AcDbEntity
  8
B.Cu
  6
CONTINUOUS
100
AcDbLine
 10
114.580490999999995
 20
-102.6980789999999928
 30
0
 11
114.5444430000000011
 21
-102.6831469999999911
 31
0
  0
LINE
  5
17E
330
1C
100
AcDbEntity
  8
B.Cu
  6
CONTINUOUS
100
AcDbLine
 10
114.5444430000000011
 20
-102.6831469999999911
 30
0
 11
114.5168529999999976
 21
-102.6555570000000017
 31
0
  0
LINE
  5
17F
330
1C
100
AcDbEntity
  8
B.Cu
  6
CONTINUOUS
100
AcDbLine
 10
114.5168529999999976
 20
-102.6555570000000017
 30
0
 11
114.5019209999999958
 21
-102.6195089999999936
 31
0
  0
LINE
  5
180
330
1C
100
AcDbEntity
  8
B.Cu
  6
CONTINUOUS
100
AcDbLine
 10
114.5019209999999958
 20
-102.6195089999999936
 30
0
 11
114.5019209999999958
 21
-102.580490999999995
 31
0
  0
LINE
  5
181
330
1C
100
AcDbEntity
  8
B.Cu
  6
CONTINUOUS
100
AcDbLine
 10
114.5019209999999958
 20
-102.580490999999995
 30
0
 11
114.5168529999999976
 21
-102.5444430000000011
 31
0
  0
LINE
  5
182
330
1C
100
AcDbEntity
  8
B.Cu
  6
CONTINUOUS
100
AcDbLine
 10
114.5168529999999976
 20
-102.5444430000000011
 30
0
 11
114.5444430000000011
 21
-102.5168529999999976
 31
0
  0
LINE
  5
183
330
1C
100
AcDbEntity
  8
B.Cu
  6
CONTINUOUS
100
AcDbLine
 10
114.5444430000000011
 20
-102.5168529999999976
 30
0
 11
114.580490999999995
 21
-102.5019209999999958
 31
0
  0
LINE
  5
184
330
1C
100
AcDbEntity
  8
B.Cu
  6
CONTINUOUS
100
AcDbLine
 10
114.580490999999995
 20
-102.5019209999999958
 30
0
 11
114.5999999999999943
 21
-102.5
 31
0
  0
LINE
  5
185
330
1C
100
AcDbEntity
  8
B.Cu
  6
CONTINUOUS
100
AcDbLine
 10
114.5999999999999943
 20
-102.5
 30
0
 11
176.9000000000000057
 21
-102.5
 31
0
  0
LINE
  5
186
330
1C
100
AcDbEntity
  8
B.Cu
  6
CONTINUOUS
100
AcDbLine
 10
176.9000000000000057
 20
-102.5
 30
0
 11
177.5499999999999829
 21
-102.5
 31
0
  0
LINE
  5
187
330
1C
100
AcDbEntity
  8
B.Cu
  6
CONTINUOUS
100
AcDbLine
 10
177.5499999999999829
 20
-102.5
 30
0
 11
177.6999999999999886
 21
-102.5499999999999972
 31
0
  0
LINE
  5
188
330
1C
100
AcDbEntity
  8
B.Cu
  6
CONTINUOUS
100
AcDbLine
 10
177.6999999999999886
 20
-102.5499999999999972
 30
0
 11
178.6999999999999886
 21
-102.5499999999999972
 31
0
  0
LINE
  5
189
330
1C
100
AcDbEntity
  8
B.Cu
  6
CONTINUOUS
100
AcDbLine
 10
178.6999999999999886
 20
-102.5499999999999972
 30
0
 11
178.7999999999999829
 21
-102.4499999999999886
 31
0
  0
LINE
  5
18A
330
1C
100
AcDbEntity
  8
B.Cu
  6
CONTINUOUS
100
AcDbLine
 10
178.7999999999999829
 20
-102.4499999999999886
 30
0
 11
179.5
 21
-102.4499999999999886
 31
0
  0
LINE
  5
18B
330
1C
100
AcDbEntity
  8
B.Cu
  6
CONTINUOUS
100
AcDbLine
 10
179.5
 20
-102.4499999999999886
 30
0
 11
179.5
 21
-102.75
 31
0
  0
LINE
  5
18C
330
1C
100
AcDbEntity
  8
B.Cu
  6
CONTINUOUS
100
AcDbLine
 10
178.7999999999999829
 20
-102.25
 30
0
 11
178.7999999999999829
 21
-102.3499999999999943
 31
0
  0
LINE
  5
18D
330
1C
100
AcDbEntity
  8
B.Cu
  6
CONTINUOUS
100
AcDbLine
 10
178.7999999999999829
 20
-102.3499999999999943
 30
0
 11
178.6999999999999886
 21
-102.4499999999999886
 31
0
  0
LINE
  5
18E
330
1C
100
AcDbEntity
  8
B.Cu
  6
CONTINUOUS
100
AcDbLine
 10
178.6999999999999886
 20
-102.4499999999999886
 30
0
 11
177.6999999999999886
 21
-102.4499999999999886
 31
0
  0
LINE
  5
18F
330
1C
100
AcDbEntity
  8
B.Cu
  6
CONTINUOUS
100
AcDbLine
 10
177.6999999999999886
 20
-102.4499999999999886
 30
0
 11
177.5499999999999829
 21
-102.3999999999999915
 31
0
  0
LINE
  5
190
330
1C
100
AcDbEntity
  8
B.Cu
  6
CONTINUOUS
100
AcDbLine
 10
177.5499999999999829
 20
-102.3999999999999915
 30
0
 11
176.7999999999999829
 21
-102.3999999999999915
 31
0
  0
LINE
  5
191
330
1C
100
AcDbEntity
  8
B.Cu
  6
CONTINUOUS
100
AcDbLine
 10
176.7999999999999829
 20
-102.3999999999999915
 30
0
 11
115.2999999999999972
 21
-102.3999999999999915
 31
0
  0
LINE
  5
192
330
1C
100
AcDbEntity
  8
B.Cu
  6
CONTINUOUS
100
AcDbLine
 10
115.2999999999999972
 20
-102.3999999999999915
 30
0
 11
115.2804909999999978
 21
-102.3980789999999956
 31
0
  0
LINE
  5
193
330
1C
100
AcDbEntity
  8
B.Cu
  6
CONTINUOUS
100
AcDbLine
 10
115.2804909999999978
 20
-102.3980789999999956
 30
0
 11
115.2444429999999898
 21
-102.3831469999999939
 31
0
  0
LINE
  5
194
330
1C
100
AcDbEntity
  8
B.Cu
  6
CONTINUOUS
100
AcDbLine
 10
115.2444429999999898
 20
-102.3831469999999939
 30
0
 11
115.2168530000000004
 21
-102.3555569999999904
 31
0
  0
LINE
  5
195
330
1C
100
AcDbEntity
  8
B.Cu
  6
CONTINUOUS
100
AcDbLine
 10
115.2168530000000004
 20
-102.3555569999999904
 30
0
 11
115.2019209999999987
 21
-102.3195089999999965
 31
0
  0
LINE
  5
196
330
1C
100
AcDbEntity
  8
B.Cu
  6
CONTINUOUS
100
AcDbLine
 10
115.2019209999999987
 20
-102.3195089999999965
 30
0
 11
115.2019209999999987
 21
-102.2804909999999978
 31
0
  0
LINE
  5
197
330
1C
100
AcDbEntity
  8
B.Cu
  6
CONTINUOUS
100
AcDbLine
 10
115.2019209999999987
 20
-102.2804909999999978
 30
0
 11
115.2168530000000004
 21
-102.2444429999999898
 31
0
  0
LINE
  5
198
330
1C
100
AcDbEntity
  8
B.Cu
  6
CONTINUOUS
100
AcDbLine
 10
115.2168530000000004
 20
-102.2444429999999898
 30
0
 11
115.2444429999999898
 21
-102.2168530000000004
 31
0
  0
LINE
  5
199
330
1C
100
AcDbEntity
  8
B.Cu
  6
CONTINUOUS
100
AcDbLine
 10
115.2444429999999898
 20
-102.2168530000000004
 30
0
 11
115.2804909999999978
 21
-102.2019209999999987
 31
0
  0
LINE
  5
19A
330
1C
100
AcDbEntity
  8
B.Cu
  6
CONTINUOUS
100
AcDbLine
 10
115.2804909999999978
 20
-102.2019209999999987
 30
0
 11
115.2999999999999972
 21
-102.1999999999999886
 31
0
  0
LINE
  5
19B
330
1C
100
AcDbEntity
  8
B.Cu
  6
CONTINUOUS
100
AcDbLine
 10
115.2999999999999972
 20
-102.1999999999999886
 30
0
 11
176.9000000000000057
 21
-102.1999999999999886
 31
0
  0
LINE
  5
19C
330
1C
100
AcDbEntity
  8
B.Cu
  6
CONTINUOUS
100
AcDbLine
 10
176.9000000000000057
 20
-102.1999999999999886
 30
0
 11
177.5499999999999829
 21
-102.1999999999999886
 31
0
  0
LINE
  5
19D
330
1C
100
AcDbEntity
  8
B.Cu
  6
CONTINUOUS
100
AcDbLine
 10
177.5499999999999829
 20
-102.1999999999999886
 30
0
 11
177.6999999999999886
 21
-102.1499999999999915
 31
0
  0
LINE
  5
19E
330
1C
100
AcDbEntity
  8
B.Cu
  6
CONTINUOUS
100
AcDbLine
 10
177.6999999999999886
 20
-102.1499999999999915
 30
0
 11
178.6999999999999886
 21
-102.1499999999999915
 31
0
  0
LINE
  5
19F
330
1C
100
AcDbEntity
  8
B.Cu
  6
CONTINUOUS
100
AcDbLine
 10
178.6999999999999886
 20
-102.1499999999999915
 30
0
 11
178.7999999999999829
 21
-102.25
 31
0
  0
LINE
  5
1A0
330
1C
100
AcDbEntity
  8
B.Cu
  6
CONTINUOUS
100
AcDbLine
 10
179.5
 20
-102.1499999999999915
 30
0
 11
178.7999999999999829
 21
-102.1499999999999915
 31
0
  0
LINE
  5
1A1
330
1C
100
AcDbEntity
  8
B.Cu
  6
CONTINUOUS
100
AcDbLine
 10
178.7999999999999829
 20
-102.1499999999999915
 30
0
 11
178.6999999999999886
 21
-102.0499999999999972
 31
0
  0
LINE
  5
1A2
330
1C
100
AcDbEntity
  8
B.Cu
  6
CONTINUOUS
100
AcDbLine
 10
178.6999999999999886
 20
-102.0499999999999972
 30
0
 11
177.6999999999999886
 21
-102.0499999999999972
 31
0
  0
LINE
  5
1A3
330
1C
100
AcDbEntity
  8
B.Cu
  6
CONTINUOUS
100
AcDbLine
 10
177.6999999999999886
 20
-102.0499999999999972
 30
0
 11
177.5499999999999829
 21
-102.0999999999999943
 31
0
  0
LINE
  5
1A4
330
1C
100
AcDbEntity
  8
B.Cu
  6
CONTINUOUS
100
AcDbLine
 10
177.5499999999999829
 20
-102.0999999999999943
 30
0
 11
176.7999999999999829
 21
-102.0999999999999943
 31
0
  0
LINE
  5
1A5
330
1C
100
AcDbEntity
  8
B.Cu
  6
CONTINUOUS
100
AcDbLine
 10
176.7999999999999829
 20
-102.0999999999999943
 30
0
 11
114.5999999999999943
 21
-102.0999999999999943
 31
0
  0
LINE
  5
1A6
330
1C
100
AcDbEntity
  8
B.Cu
  6
CONTINUOUS
100
AcDbLine
 10
114.5999999999999943
 20
-102.0999999999999943
 30
0
 11
114.580490999999995
 21
-102.0980789999999985
 31
0
  0
LINE
  5
1A7
330
1C
100
AcDbEntity
  8
B.Cu
  6
CONTINUOUS
100
AcDbLine
 10
114.580490999999995
 20
-102.0980789999999985
 30
0
 11
114.5444430000000011
 21
-102.0831469999999968
 31
0
  0
LINE
  5
1A8
330
1C
100
AcDbEntity
  8
B.Cu
  6
CONTINUOUS
100
AcDbLine
 10
114.5444430000000011
 20
-102.0831469999999968
 30
0
 11
114.5168529999999976
 21
-102.0555569999999932
 31
0
  0
LINE
  5
1A9
330
1C
100
AcDbEntity
  8
B.Cu
  6
CONTINUOUS
100
AcDbLine
 10
114.5168529999999976
 20
-102.0555569999999932
 30
0
 11
114.5019209999999958
 21
-102.0195089999999993
 31
0
  0
LINE
  5
1AA
330
1C
100
AcDbEntity
  8
B.Cu
  6
CONTINUOUS
100
AcDbLine
 10
114.5019209999999958
 20
-102.0195089999999993
 30
0
 11
114.5019209999999958
 21
-101.9804910000000007
 31
0
  0
LINE
  5
1AB
330
1C
100
AcDbEntity
  8
B.Cu
  6
CONTINUOUS
100
AcDbLine
 10
114.5019209999999958
 20
-101.9804910000000007
 30
0
 11
114.5168529999999976
 21
-101.9444429999999926
 31
0
  0
LINE
  5
1AC
330
1C
100
AcDbEntity
  8
B.Cu
  6
CONTINUOUS
100
AcDbLine
 10
114.5168529999999976
 20
-101.9444429999999926
 30
0
 11
114.5444430000000011
 21
-101.916852999999989
 31
0
  0
LINE
  5
1AD
330
1C
100
AcDbEntity
  8
B.Cu
  6
CONTINUOUS
100
AcDbLine
 10
114.5444430000000011
 20
-101.916852999999989
 30
0
 11
114.580490999999995
 21
-101.9019210000000015
 31
0
  0
LINE
  5
1AE
330
1C
100
AcDbEntity
  8
B.Cu
  6
CONTINUOUS
100
AcDbLine
 10
114.580490999999995
 20
-101.9019210000000015
 30
0
 11
114.5999999999999943
 21
-101.8999999999999915
 31
0
  0
LINE
  5
1AF
330
1C
100
AcDbEntity
  8
B.Cu
  6
CONTINUOUS
100
AcDbLine
 10
114.5999999999999943
 20
-101.8999999999999915
 30
0
 11
176.9000000000000057
 21
-101.8999999999999915
 31
0
  0
LINE
  5
1B0
330
1C
100
AcDbEntity
  8
B.Cu
  6
CONTINUOUS
100
AcDbLine
 10
176.9000000000000057
 20
-101.8999999999999915
 30
0
 11
177.5499999999999829
 21
-101.8999999999999915
 31
0
  0
LINE
  5
1B1
330
1C
100
AcDbEntity
  8
B.Cu
  6
CONTINUOUS
100
AcDbLine
 10
177.5499999999999829
 20
-101.8999999999999915
 30
0
 11
177.6999999999999886
 21
-101.9499999999999886
 31
0
  0
LINE
  5
1B2
330
1C
100
AcDbEntity
  8
B.Cu
  6
CONTINUOUS
100
AcDbLine
 10
177.6999999999999886
 20
-101.9499999999999886
 30
0
 11
178.6999999999999886
 21
-101.9499999999999886
 31
0
  0
LINE
  5
1B3
330
1C
100
AcDbEntity
  8
B.Cu
  6
CONTINUOUS
100
AcDbLine
 10
178.6999999999999886
 20
-101.9499999999999886
 30
0
 11
178.7999999999999829
 21
-101.8499999999999943
 31
0
  0
LINE
  5
1B4
330
1C
100
AcDbEntity
  8
B.Cu
  6
CONTINUOUS
100
AcDbLine
 10
178.7999999999999829
 20
-101.8499999999999943
 30
0
 11
179.5
 21
-101.8499999999999943
 31
0
  0
LINE
  5
1B5
330
1C
100
AcDbEntity
  8
B.Cu
  6
CONTINUOUS
100
AcDbLine
 10
179.5
 20
-101.8499999999999943
 30
0
 11
179.5
 21
-102.1499999999999915
 31
0
  0
LINE
  5
1B6
330
1C
100
AcDbEntity
  8
B.Cu
  6
CONTINUOUS
100
AcDbLine
 10
178.7999999999999829
 20
-101.6499999999999915
 30
0
 11
178.7999999999999829
 21
-101.75
 31
0
  0
LINE
  5
1B7
330
1C
100
AcDbEntity
  8
B.Cu
  6
CONTINUOUS
100
AcDbLine
 10
178.7999999999999829
 20
-101.75
 30
0
 11
178.6999999999999886
 21
-101.8499999999999943
 31
0
  0
LINE
  5
1B8
330
1C
100
AcDbEntity
  8
B.Cu
  6
CONTINUOUS
100
AcDbLine
 10
178.6999999999999886
 20
-101.8499999999999943
 30
0
 11
177.6999999999999886
 21
-101.8499999999999943
 31
0
  0
LINE
  5
1B9
330
1C
100
AcDbEntity
  8
B.Cu
  6
CONTINUOUS
100
AcDbLine
 10
177.6999999999999886
 20
-101.8499999999999943
 30
0
 11
177.5499999999999829
 21
-101.7999999999999972
 31
0
  0
LINE
  5
1BA
330
1C
100
AcDbEntity
  8
B.Cu
  6
CONTINUOUS
100
AcDbLine
 10
177.5499999999999829
 20
-101.7999999999999972
 30
0
 11
176.7999999999999829
 21
-101.7999999999999972
 31
0
  0
LINE
  5
1BB
330
1C
100
AcDbEntity
  8
B.Cu
  6
CONTINUOUS
100
AcDbLine
 10
176.7999999999999829
 20
-101.7999999999999972
 30
0
 11
115.2999999999999972
 21
-101.7999999999999972
 31
0
  0
LINE
  5
1BC
330
1C
100
AcDbEntity
  8
B.Cu
  6
CONTINUOUS
100
AcDbLine
 10
115.2999999999999972
 20
-101.7999999999999972
 30
0
 11
115.2804909999999978
 21
-101.7980790000000013
 31
0
  0
LINE
  5
1BD
330
1C
100
AcDbEntity
  8
B.Cu
  6
CONTINUOUS
100
AcDbLine
 10
115.2804909999999978
 20
-101.7980790000000013
 30
0
 11
115.2444429999999898
 21
-101.7831469999999996
 31
0
  0
LINE
  5
1BE
330
1C
100
AcDbEntity
  8
B.Cu
  6
CONTINUOUS
100
AcDbLine
 10
115.2444429999999898
 20
-101.7831469999999996
 30
0
 11
115.2168530000000004
 21
-101.755556999999996
 31
0
  0
LINE
  5
1BF
330
1C
100
AcDbEntity
  8
B.Cu
  6
CONTINUOUS
100
AcDbLine
 10
115.2168530000000004
 20
-101.755556999999996
 30
0
 11
115.2019209999999987
 21
-101.7195090000000022
 31
0
  0
LINE
  5
1C0
330
1C
100
AcDbEntity
  8
B.Cu
  6
CONTINUOUS
100
AcDbLine
 10
115.2019209999999987
 20
-101.7195090000000022
 30
0
 11
115.2019209999999987
 21
-101.6804909999999893
 31
0
  0
LINE
  5
1C1
330
1C
100
AcDbEntity
  8
B.Cu
  6
CONTINUOUS
100
AcDbLine
 10
115.2019209999999987
 20
-101.6804909999999893
 30
0
 11
115.2168530000000004
 21
-101.6444429999999954
 31
0
  0
LINE
  5
1C2
330
1C
100
AcDbEntity
  8
B.Cu
  6
CONTINUOUS
100
AcDbLine
 10
115.2168530000000004
 20
-101.6444429999999954
 30
0
 11
115.2444429999999898
 21
-101.6168529999999919
 31
0
  0
LINE
  5
1C3
330
1C
100
AcDbEntity
  8
B.Cu
  6
CONTINUOUS
100
AcDbLine
 10
115.2444429999999898
 20
-101.6168529999999919
 30
0
 11
115.2804909999999978
 21
-101.6019209999999902
 31
0
  0
LINE
  5
1C4
330
1C
100
AcDbEntity
  8
B.Cu
  6
CONTINUOUS
100
AcDbLine
 10
115.2804909999999978
 20
-101.6019209999999902
 30
0
 11
115.2999999999999972
 21
-101.5999999999999943
 31
0
  0
LINE
  5
1C5
330
1C
100
AcDbEntity
  8
B.Cu
  6
CONTINUOUS
100
AcDbLine
 10
115.2999999999999972
 20
-101.5999999999999943
 30
0
 11
176.9000000000000057
 21
-101.5999999999999943
 31
0
  0
LINE
  5
1C6
330
1C
100
AcDbEntity
  8
B.Cu
  6
CONTINUOUS
100
AcDbLine
 10
176.9000000000000057
 20
-101.5999999999999943
 30
0
 11
177.5499999999999829
 21
-101.5999999999999943
 31
0
  0
LINE
  5
1C7
330
1C
100
AcDbEntity
  8
B.Cu
  6
CONTINUOUS
100
AcDbLine
 10
177.5499999999999829
 20
-101.5999999999999943
 30
0
 11
177.6999999999999886
 21
-101.5499999999999972
 31
0
  0
LINE
  5
1C8
330
1C
100
AcDbEntity
  8
B.Cu
  6
CONTINUOUS
100
AcDbLine
 10
177.6999999999999886
 20
-101.5499999999999972
 30
0
 11
178.6999999999999886
 21
-101.5499999999999972
 31
0
  0
LINE
  5
1C9
330
1C
100
AcDbEntity
  8
B.Cu
  6
CONTINUOUS
100
AcDbLine
 10
178.6999999999999886
 20
-101.5499999999999972
 30
0
 11
178.7999999999999829
 21
-101.6499999999999915
 31
0
  0
LINE
  5
1CA
330
1C
100
AcDbEntity
  8
B.Cu
  6
CONTINUOUS
100
AcDbLine
 10
179.5
 20
-101.5499999999999972
 30
0
 11
178.7999999999999829
 21
-101.5499999999999972
 31
0
  0
LINE
  5
1CB
330
1C
100
AcDbEntity
  8
B.Cu
  6
CONTINUOUS
100
AcDbLine
 10
178.7999999999999829
 20
-101.5499999999999972
 30
0
 11
178.6999999999999886
 21
-101.4499999999999886
 31
0
  0
LINE
  5
1CC
330
1C
100
AcDbEntity
  8
B.Cu
  6
CONTINUOUS
100
AcDbLine
 10
178.6999999999999886
 20
-101.4499999999999886
 30
0
 11
177.6999999999999886
 21
-101.4499999999999886
 31
0
  0
LINE
  5
1CD
330
1C
100
AcDbEntity
  8
B.Cu
  6
CONTINUOUS
100
AcDbLine
 10
177.6999999999999886
 20
-101.4499999999999886
 30
0
 11
177.5499999999999829
 21
-101.5
 31
0
  0
LINE
  5
1CE
330
1C
100
AcDbEntity
  8
B.Cu
  6
CONTINUOUS
100
AcDbLine
 10
177.5499999999999829
 20
-101.5
 30
0
 11
176.7999999999999829
 21
-101.5
 31
0
  0
LINE
  5
1CF
330
1C
100
AcDbEntity
  8
B.Cu
  6
CONTINUOUS
100
AcDbLine
 10
176.7999999999999829
 20
-101.5
 30
0
 11
114.5999999999999943
 21
-101.5
 31
0
  0
LINE
  5
1D0
330
1C
100
AcDbEntity
  8
B.Cu
  6
CONTINUOUS
100
AcDbLine
 10
114.5999999999999943
 20
-101.5
 30
0
 11
114.580490999999995
 21
-101.4980789999999899
 31
0
  0
LINE
  5
1D1
330
1C
100
AcDbEntity
  8
B.Cu
  6
CONTINUOUS
100
AcDbLine
 10
114.580490999999995
 20
-101.4980789999999899
 30
0
 11
114.5444430000000011
 21
-101.4831470000000024
 31
0
  0
LINE
  5
1D2
330
1C
100
AcDbEntity
  8
B.Cu
  6
CONTINUOUS
100
AcDbLine
 10
114.5444430000000011
 20
-101.4831470000000024
 30
0
 11
114.5168529999999976
 21
-101.4555569999999989
 31
0
  0
LINE
  5
1D3
330
1C
100
AcDbEntity
  8
B.Cu
  6
CONTINUOUS
100
AcDbLine
 10
114.5168529999999976
 20
-101.4555569999999989
 30
0
 11
114.5019209999999958
 21
-101.4195089999999908
 31
0
  0
LINE
  5
1D4
330
1C
100
AcDbEntity
  8
B.Cu
  6
CONTINUOUS
100
AcDbLine
 10
114.5019209999999958
 20
-101.4195089999999908
 30
0
 11
114.5019209999999958
 21
-101.3804909999999921
 31
0
  0
LINE
  5
1D5
330
1C
100
AcDbEntity
  8
B.Cu
  6
CONTINUOUS
100
AcDbLine
 10
114.5019209999999958
 20
-101.3804909999999921
 30
0
 11
114.5168529999999976
 21
-101.3444429999999983
 31
0
  0
LINE
  5
1D6
330
1C
100
AcDbEntity
  8
B.Cu
  6
CONTINUOUS
100
AcDbLine
 10
114.5168529999999976
 20
-101.3444429999999983
 30
0
 11
114.5444430000000011
 21
-101.3168529999999947
 31
0
  0
LINE
  5
1D7
330
1C
100
AcDbEntity
  8
B.Cu
  6
CONTINUOUS
100
AcDbLine
 10
114.5444430000000011
 20
-101.3168529999999947
 30
0
 11
114.580490999999995
 21
-101.301920999999993
 31
0
  0
LINE
  5
1D8
330
1C
100
AcDbEntity
  8
B.Cu
  6
CONTINUOUS
100
AcDbLine
 10
114.580490999999995
 20
-101.301920999999993
 30
0
 11
114.5999999999999943
 21
-101.2999999999999972
 31
0
  0
LINE
  5
1D9
330
1C
100
AcDbEntity
  8
B.Cu
  6
CONTINUOUS
100
AcDbLine
 10
114.5999999999999943
 20
-101.2999999999999972
 30
0
 11
176.9000000000000057
 21
-101.2999999999999972
 31
0
  0
LINE
  5
1DA
330
1C
100
AcDbEntity
  8
B.Cu
  6
CONTINUOUS
100
AcDbLine
 10
176.9000000000000057
 20
-101.2999999999999972
 30
0
 11
177.5499999999999829
 21
-101.2999999999999972
 31
0
  0
LINE
  5
1DB
330
1C
100
AcDbEntity
  8
B.Cu
  6
CONTINUOUS
100
AcDbLine
 10
177.5499999999999829
 20
-101.2999999999999972
 30
0
 11
177.6999999999999886
 21
-101.3499999999999943
 31
0
  0
LINE
  5
1DC
330
1C
100
AcDbEntity
  8
B.Cu
  6
CONTINUOUS
100
AcDbLine
 10
177.6999999999999886
 20
-101.3499999999999943
 30
0
 11
178.6999999999999886
 21
-101.3499999999999943
 31
0
  0
LINE
  5
1DD
330
1C
100
AcDbEntity
  8
B.Cu
  6
CONTINUOUS
100
AcDbLine
 10
178.6999999999999886
 20
-101.3499999999999943
 30
0
 11
178.7999999999999829
 21
-101.25
 31
0
  0
LINE
  5
1DE
330
1C
100
AcDbEntity
  8
B.Cu
  6
CONTINUOUS
100
AcDbLine
 10
178.7999999999999829
 20
-101.25
 30
0
 11
179.5
 21
-101.25
 31
0
  0
LINE
  5
1DF
330
1C
100
AcDbEntity
  8
B.Cu
  6
CONTINUOUS
100
AcDbLine
 10
179.5
 20
-101.25
 30
0
 11
179.5
 21
-101.5499999999999972
 31
0
  0
LINE
  5
1E0
330
1C
100
AcDbEntity
  8
B.Cu
  6
CONTINUOUS
100
AcDbLine
 10
178.7999999999999829
 20
-101.0499999999999972
 30
0
 11
178.7999999999999829
 21
-101.1499999999999915
 31
0
  0
LINE
  5
1E1
330
1C
100
AcDbEntity
  8
B.Cu
  6
CONTINUOUS
100
AcDbLine
 10
178.7999999999999829
 20
-101.1499999999999915
 30
0
 11
178.6999999999999886
 21
-101.25
 31
0
  0
LINE
  5
1E2
330
1C
100
AcDbEntity
  8
B.Cu
  6
CONTINUOUS
100
AcDbLine
 10
178.6999999999999886
 20
-101.25
 30
0
 11
177.6999999999999886
 21
-101.25
 31
0
  0
LINE
  5
1E3
330
1C
100
AcDbEntity
  8
B.Cu
  6
CONTINUOUS
100
AcDbLine
 10
177.6999999999999886
 20
-101.25
 30
0
 11
177.5499999999999829
 21
-101.1999999999999886
 31
0
  0
LINE
  5
1E4
330
1C
100
AcDbEntity
  8
B.Cu
  6
CONTINUOUS
100
AcDbLine
 10
177.5499999999999829
 20
-101.1999999999999886
 30
0
 11
176.7999999999999829
 21
-101.1999999999999886
 31
0
  0
LINE
  5
1E5
330
1C
100
AcDbEntity
  8
B.Cu
  6
CONTINUOUS
100
AcDbLine
 10
176.7999999999999829
 20
-101.1999999999999886
 30
0
 11
115.2999999999999972
 21
-101.1999999999999886
 31
0
  0
LINE
  5
1E6
330
1C
100
AcDbEntity
  8
B.Cu
  6
CONTINUOUS
100
AcDbLine
 10
115.2999999999999972
 20
-101.1999999999999886
 30
0
 11
115.2804909999999978
 21
-101.1980789999999928
 31
0
  0
LINE
  5
1E7
330
1C
100
AcDbEntity
  8
B.Cu
  6
CONTINUOUS
100
AcDbLine
 10
115.2804909999999978
 20
-101.1980789999999928
 30
0
 11
115.2444429999999898
 21
-101.1831469999999911
 31
0
  0
LINE
  5
1E8
330
1C
100
AcDbEntity
  8
B.Cu
  6
CONTINUOUS
100
AcDbLine
 10
115.2444429999999898
 20
-101.1831469999999911
 30
0
 11
115.2168530000000004
 21
-101.1555570000000017
 31
0
  0
LINE
  5
1E9
330
1C
100
AcDbEntity
  8
B.Cu
  6
CONTINUOUS
100
AcDbLine
 10
115.2168530000000004
 20
-101.1555570000000017
 30
0
 11
115.2019209999999987
 21
-101.1195089999999936
 31
0
  0
LINE
  5
1EA
330
1C
100
AcDbEntity
  8
B.Cu
  6
CONTINUOUS
100
AcDbLine
 10
115.2019209999999987
 20
-101.1195089999999936
 30
0
 11
115.2019209999999987
 21
-101.080490999999995
 31
0
  0
LINE
  5
1EB
330
1C
100
AcDbEntity
  8
B.Cu
  6
CONTINUOUS
100
AcDbLine
 10
115.2019209999999987
 20
-101.080490999999995
 30
0
 11
115.2168530000000004
 21
-101.0444430000000011
 31
0
  0
LINE
  5
1EC
330
1C
100
AcDbEntity
  8
B.Cu
  6
CONTINUOUS
100
AcDbLine
 10
115.2168530000000004
 20
-101.0444430000000011
 30
0
 11
115.2444429999999898
 21
-101.0168529999999976
 31
0
  0
LINE
  5
1ED
330
1C
100
AcDbEntity
  8
B.Cu
  6
CONTINUOUS
100
AcDbLine
 10
115.2444429999999898
 20
-101.0168529999999976
 30
0
 11
115.2804909999999978
 21
-101.0019209999999958
 31
0
  0
LINE
  5
1EE
330
1C
100
AcDbEntity
  8
B.Cu
  6
CONTINUOUS
100
AcDbLine
 10
115.2804909999999978
 20
-101.0019209999999958
 30
0
 11
115.2999999999999972
 21
-101.
 31
0
  0
LINE
  5
1EF
330
1C
100
AcDbEntity
  8
B.Cu
  6
CONTINUOUS
100
AcDbLine
 10
115.2999999999999972
 20
-101.
 30
0
 11
176.9000000000000057
 21
-101.
 31
0
  0
LINE
  5
1F0
330
1C
100
AcDbEntity
  8
B.Cu
  6
CONTINUOUS
100
AcDbLine
 10
176.9000000000000057
 20
-101.
 30
0
 11
177.5499999999999829
 21
-101.
 31
0
  0
LINE
  5
1F1
330
1C
100
AcDbEntity
  8
B.Cu
  6
CONTINUOUS
100
AcDbLine
 10
177.5499999999999829
 20
-101.
 30
0
 11
177.6999999999999886
 21
-100.9499999999999886
 31
0
  0
LINE
  5
1F2
330
1C
100
AcDbEntity
  8
B.Cu
  6
CONTINUOUS
100
AcDbLine
 10
177.6999999999999886
 20
-100.9499999999999886
 30
0
 11
178.6999999999999886
 21
-100.9499999999999886
 31
0
  0
LINE
  5
1F3
330
1C
100
AcDbEntity
  8
B.Cu
  6
CONTINUOUS
100
AcDbLine
 10
178.6999999999999886
 20
-100.9499999999999886
 30
0
 11
178.7999999999999829
 21
-101.0499999999999972
 31
0
  0
LINE
  5
1F4
330
1C
100
AcDbEntity
  8
B.Cu
  6
CONTINUOUS
100
AcDbLine
 10
179.5
 20
-100.9499999999999886
 30
0
 11
178.7999999999999829
 21
-100.9499999999999886
 31
0
  0
LINE
  5
1F5
330
1C
100
AcDbEntity
  8
B.Cu
  6
CONTINUOUS
100
AcDbLine
 10
178.7999999999999829
 20
-100.9499999999999886
 30
0
 11
178.6999999999999886
 21
-100.8499999999999943
 31
0
  0
LINE
  5
1F6
330
1C
100
AcDbEntity
  8
B.Cu
  6
CONTINUOUS
100
AcDbLine
 10
178.6999999999999886
 20
-100.8499999999999943
 30
0
 11
177.6999999999999886
 21
-100.8499999999999943
 31
0
  0
LINE
  5
1F7
330
1C
100
AcDbEntity
  8
B.Cu
  6
CONTINUOUS
100
AcDbLine
 10
177.6999999999999886
 20
-100.8499999999999943
 30
0
 11
177.5499999999999829
 21
-100.8999999999999915
 31
0
  0
LINE
  5
1F8
330
1C
100
AcDbEntity
  8
B.Cu
  6
CONTINUOUS
100
AcDbLine
 10
177.5499999999999829
 20
-100.8999999999999915
 30
0
 11
176.7999999999999829
 21
-100.8999999999999915
 31
0
  0
LINE
  5
1F9
330
1C
100
AcDbEntity
  8
B.Cu
  6
CONTINUOUS
100
AcDbLine
 10
176.7999999999999829
 20
-100.8999999999999915
 30
0
 11
114.5999999999999943
 21
-100.8999999999999915
 31
0
  0
LINE
  5
1FA
330
1C
100
AcDbEntity
  8
B.Cu
  6
CONTINUOUS
100
AcDbLine
 10
114.5999999999999943
 20
-100.8999999999999915
 30
0
 11
114.580490999999995
 21
-100.8980789999999956
 31
0
  0
LINE
  5
1FB
330
1C
100
AcDbEntity
  8
B.Cu
  6
CONTINUOUS
100
AcDbLine
 10
114.580490999999995
 20
-100.8980789999999956
 30
0
 11
114.5444430000000011
 21
-100.8831469999999939
 31
0
  0
LINE
  5
1FC
330
1C
100
AcDbEntity
  8
B.Cu
  6
CONTINUOUS
100
AcDbLine
 10
114.5444430000000011
 20
-100.8831469999999939
 30
0
 11
114.5168529999999976
 21
-100.8555569999999904
 31
0
  0
LINE
  5
1FD
330
1C
100
AcDbEntity
  8
B.Cu
  6
CONTINUOUS
100
AcDbLine
 10
114.5168529999999976
 20
-100.8555569999999904
 30
0
 11
114.5019209999999958
 21
-100.8195089999999965
 31
0
  0
LINE
  5
1FE
330
1C
100
AcDbEntity
  8
B.Cu
  6
CONTINUOUS
100
AcDbLine
 10
114.5019209999999958
 20
-100.8195089999999965
 30
0
 11
114.5019209999999958
 21
-100.7804909999999978
 31
0
  0
LINE
  5
1FF
330
1C
100
AcDbEntity
  8
B.Cu
  6
CONTINUOUS
100
AcDbLine
 10
114.5019209999999958
 20
-100.7804909999999978
 30
0
 11
114.5168529999999976
 21
-100.7444429999999898
 31
0
  0
LINE
  5
200
330
1C
100
AcDbEntity
  8
B.Cu
  6
CONTINUOUS
100
AcDbLine
 10
114.5168529999999976
 20
-100.7444429999999898
 30
0
 11
114.5444430000000011
 21
-100.7168530000000004
 31
0
  0
LINE
  5
201
330
1C
100
AcDbEntity
  8
B.Cu
  6
CONTINUOUS
100
AcDbLine
 10
114.5444430000000011
 20
-100.7168530000000004
 30
0
 11
114.580490999999995
 21
-100.7019209999999987
 31
0
  0
LINE
  5
202
330
1C
100
AcDbEntity
  8
B.Cu
  6
CONTINUOUS
100
AcDbLine
 10
114.580490999999995
 20
-100.7019209999999987
 30
0
 11
114.5999999999999943
 21
-100.6999999999999886
 31
0
  0
LINE
  5
203
330
1C
100
AcDbEntity
  8
B.Cu
  6
CONTINUOUS
100
AcDbLine
 10
114.5999999999999943
 20
-100.6999999999999886
 30
0
 11
176.9000000000000057
 21
-100.6999999999999886
 31
0
  0
LINE
  5
204
330
1C
100
AcDbEntity
  8
B.Cu
  6
CONTINUOUS
100
AcDbLine
 10
176.9000000000000057
 20
-100.6999999999999886
 30
0
 11
177.5499999999999829
 21
-100.6999999999999886
 31
0
  0
LINE
  5
205
330
1C
100
AcDbEntity
  8
B.Cu
  6
CONTINUOUS
100
AcDbLine
 10
177.5499999999999829
 20
-100.6999999999999886
 30
0
 11
177.6999999999999886
 21
-100.75
 31
0
  0
LINE
  5
206
330
1C
100
AcDbEntity
  8
B.Cu
  6
CONTINUOUS
100
AcDbLine
 10
177.6999999999999886
 20
-100.75
 30
0
 11
178.6999999999999886
 21
-100.75
 31
0
  0
LINE
  5
207
330
1C
100
AcDbEntity
  8
B.Cu
  6
CONTINUOUS
100
AcDbLine
 10
178.6999999999999886
 20
-100.75
 30
0
 11
178.7999999999999829
 21
-100.6499999999999915
 31
0
  0
LINE
  5
208
330
1C
100
AcDbEntity
  8
B.Cu
  6
CONTINUOUS
100
AcDbLine
 10
178.7999999999999829
 20
-100.6499999999999915
 30
0
 11
179.5
 21
-100.6499999999999915
 31
0
  0
LINE
  5
209
330
1C
100
AcDbEntity
  8
B.Cu
  6
CONTINUOUS
100
AcDbLine
 10
179.5
 20
-100.6499999999999915
 30
0
 11
179.5
 21
-100.9499999999999886
 31
0
  0
LINE
  5
20A
330
1C
100
AcDbEntity
  8
B.Cu
  6
CONTINUOUS
100
AcDbLine
 10
178.7999999999999829
 20
-100.4499999999999886
 30
0
 11
178.7999999999999829
 21
-100.5499999999999972
 31
0
  0
LINE
  5
20B
330
1C
100
AcDbEntity
  8
B.Cu
  6
CONTINUOUS
100
AcDbLine
 10
178.7999999999999829
 20
-100.5499999999999972
 30
0
 11
178.6999999999999886
 21
-100.6499999999999915
 31
0
  0
LINE
  5
20C
330
1C
100
AcDbEntity
  8
B.Cu
  6
CONTINUOUS
100
AcDbLine
 10
178.6999999999999886
 20
-100.6499999999999915
 30
0
 11
177.6999999999999886
 21
-100.6499999999999915
 31
0
  0
LINE
  5
20D
330
1C
100
AcDbEntity
  8
B.Cu
  6
CONTINUOUS
100
AcDbLine
 10
177.6999999999999886
 20
-100.6499999999999915
 30
0
 11
177.5499999999999829
 21
-100.5999999999999943
 31
0
  0
LINE
  5
20E
330
1C
100
AcDbEntity
  8
B.Cu
  6
CONTINUOUS
100
AcDbLine
 10
177.5499999999999829
 20
-100.5999999999999943
 30
0
 11
176.7999999999999829
 21
-100.5999999999999943
 31
0
  0
LINE
  5
20F
330
1C
100
AcDbEntity
  8
B.Cu
  6
CONTINUOUS
100
AcDbLine
 10
176.7999999999999829
 20
-100.5999999999999943
 30
0
 11
115.2999999999999972
 21
-100.5999999999999943
 31
0
  0
LINE
  5
210
330
1C
100
AcDbEntity
  8
B.Cu
  6
CONTINUOUS
100
AcDbLine
 10
115.2999999999999972
 20
-100.5999999999999943
 30
0
 11
115.2804909999999978
 21
-100.5980789999999985
 31
0
  0
LINE
  5
211
330
1C
100
AcDbEntity
  8
B.Cu
  6
CONTINUOUS
100
AcDbLine
 10
115.2804909999999978
 20
-100.5980789999999985
 30
0
 11
115.2444429999999898
 21
-100.5831469999999968
 31
0
  0
LINE
  5
212
330
1C
100
AcDbEntity
  8
B.Cu
  6
CONTINUOUS
100
AcDbLine
 10
115.2444429999999898
 20
-100.5831469999999968
 30
0
 11
115.2168530000000004
 21
-100.5555569999999932
 31
0
  0
LINE
  5
213
330
1C
100
AcDbEntity
  8
B.Cu
  6
CONTINUOUS
100
AcDbLine
 10
115.2168530000000004
 20
-100.5555569999999932
 30
0
 11
115.2019209999999987
 21
-100.5195089999999993
 31
0
  0
LINE
  5
214
330
1C
100
AcDbEntity
  8
B.Cu
  6
CONTINUOUS
100
AcDbLine
 10
115.2019209999999987
 20
-100.5195089999999993
 30
0
 11
115.2019209999999987
 21
-100.4804910000000007
 31
0
  0
LINE
  5
215
330
1C
100
AcDbEntity
  8
B.Cu
  6
CONTINUOUS
100
AcDbLine
 10
115.2019209999999987
 20
-100.4804910000000007
 30
0
 11
115.2168530000000004
 21
-100.4444429999999926
 31
0
  0
LINE
  5
216
330
1C
100
AcDbEntity
  8
B.Cu
  6
CONTINUOUS
100
AcDbLine
 10
115.2168530000000004
 20
-100.4444429999999926
 30
0
 11
115.2444429999999898
 21
-100.416852999999989
 31
0
  0
LINE
  5
217
330
1C
100
AcDbEntity
  8
B.Cu
  6
CONTINUOUS
100
AcDbLine
 10
115.2444429999999898
 20
-100.416852999999989
 30
0
 11
115.2804909999999978
 21
-100.4019210000000015
 31
0
  0
LINE
  5
218
330
1C
100
AcDbEntity
  8
B.Cu
  6
CONTINUOUS
100
AcDbLine
 10
115.2804909999999978
 20
-100.4019210000000015
 30
0
 11
115.2999999999999972
 21
-100.3999999999999915
 31
0
  0
LINE
  5
219
330
1C
100
AcDbEntity
  8
B.Cu
  6
CONTINUOUS
100
AcDbLine
 10
115.2999999999999972
 20
-100.3999999999999915
 30
0
 11
176.9000000000000057
 21
-100.3999999999999915
 31
0
  0
LINE
  5
21A
330
1C
100
AcDbEntity
  8
B.Cu
  6
CONTINUOUS
100
AcDbLine
 10
176.9000000000000057
 20
-100.3999999999999915
 30
0
 11
177.5499999999999829
 21
-100.3999999999999915
 31
0
  0
LINE
  5
21B
330
1C
100
AcDbEntity
  8
B.Cu
  6
CONTINUOUS
100
AcDbLine
 10
177.5499999999999829
 20
-100.3999999999999915
 30
0
 11
177.6999999999999886
 21
-100.3499999999999943
 31
0
  0
LINE
  5
21C
330
1C
100
AcDbEntity
  8
B.Cu
  6
CONTINUOUS
100
AcDbLine
 10
177.6999999999999886
 20
-100.3499999999999943
 30
0
 11
178.6999999999999886
 21
-100.3499999999999943
 31
0
  0
LINE
  5
21D
330
1C
100
AcDbEntity
  8
B.Cu
  6
CONTINUOUS
100
AcDbLine
 10
178.6999999999999886
 20
-100.3499999999999943
 30
0
 11
178.7999999999999829
 21
-100.4499999999999886
 31
0
  0
LINE
  5
21E
330
1C
100
AcDbEntity
  8
B.Cu
  6
CONTINUOUS
100
AcDbLine
 10
179.5
 20
-100.3499999999999943
 30
0
 11
178.7999999999999829
 21
-100.3499999999999943
 31
0
  0
LINE
  5
21F
330
1C
100
AcDbEntity
  8
B.Cu
  6
CONTINUOUS
100
AcDbLine
 10
178.7999999999999829
 20
-100.3499999999999943
 30
0
 11
178.6999999999999886
 21
-100.25
 31
0
  0
LINE
  5
220
330
1C
100
AcDbEntity
  8
B.Cu
  6
CONTINUOUS
100
AcDbLine
 10
178.6999999999999886
 20
-100.25
 30
0
 11
177.6999999999999886
 21
-100.25
 31
0
  0
LINE
  5
221
330
1C
100
AcDbEntity
  8
B.Cu
  6
CONTINUOUS
100
AcDbLine
 10
177.6999999999999886
 20
-100.25
 30
0
 11
177.5499999999999829
 21
-100.2999999999999972
 31
0
  0
LINE
  5
222
330
1C
100
AcDbEntity
  8
B.Cu
  6
CONTINUOUS
100
AcDbLine
 10
177.5499999999999829
 20
-100.2999999999999972
 30
0
 11
176.7999999999999829
 21
-100.2999999999999972
 31
0
  0
LINE
  5
223
330
1C
100
AcDbEntity
  8
B.Cu
  6
CONTINUOUS
100
AcDbLine
 10
176.7999999999999829
 20
-100.2999999999999972
 30
0
 11
114.5999999999999943
 21
-100.2999999999999972
 31
0
  0
LINE
  5
224
330
1C
100
AcDbEntity
  8
B.Cu
  6
CONTINUOUS
100
AcDbLine
 10
114.5999999999999943
 20
-100.2999999999999972
 30
0
 11
114.580490999999995
 21
-100.2980790000000013
 31
0
  0
LINE
  5
225
330
1C
100
AcDbEntity
  8
B.Cu
  6
CONTINUOUS
100
AcDbLine
 10
114.580490999999995
 20
-100.2980790000000013
 30
0
 11
114.5444430000000011
 21
-100.2831469999999996
 31
0
  0
LINE
  5
226
330
1C
100
AcDbEntity
  8
B.Cu
  6
CONTINUOUS
100
AcDbLine
 10
114.5444430000000011
 20
-100.2831469999999996
 30
0
 11
114.5168529999999976
 21
-100.255556999999996
 31
0
  0
LINE
  5
227
330
1C
100
AcDbEntity
  8
B.Cu
  6
CONTINUOUS
100
AcDbLine
 10
114.5168529999999976
 20
-100.255556999999996
 30
0
 11
114.5019209999999958
 21
-100.2195090000000022
 31
0
  0
LINE
  5
228
330
1C
100
AcDbEntity
  8
B.Cu
  6
CONTINUOUS
100
AcDbLine
 10
114.5019209999999958
 20
-100.2195090000000022
 30
0
 11
114.5019209999999958
 21
-100.1804909999999893
 31
0
  0
LINE
  5
229
330
1C
100
AcDbEntity
  8
B.Cu
  6
CONTINUOUS
100
AcDbLine
 10
114.5019209999999958
 20
-100.1804909999999893
 30
0
 11
114.5168529999999976
 21
-100.1444429999999954
 31
0
  0
LINE
  5
22A
330
1C
100
AcDbEntity
  8
B.Cu
  6
CONTINUOUS
100
AcDbLine
 10
114.5168529999999976
 20
-100.1444429999999954
 30
0
 11
114.5444430000000011
 21
-100.1168529999999919
 31
0
  0
LINE
  5
22B
330
1C
100
AcDbEntity
  8
B.Cu
  6
CONTINUOUS
100
AcDbLine
 10
114.5444430000000011
 20
-100.1168529999999919
 30
0
 11
114.580490999999995
 21
-100.1019209999999902
 31
0
  0
LINE
  5
22C
330
1C
100
AcDbEntity
  8
B.Cu
  6
CONTINUOUS
100
AcDbLine
 10
114.580490999999995
 20
-100.1019209999999902
 30
0
 11
114.5999999999999943
 21
-100.0999999999999943
 31
0
  0
LINE
  5
22D
330
1C
100
AcDbEntity
  8
B.Cu
  6
CONTINUOUS
100
AcDbLine
 10
114.5999999999999943
 20
-100.0999999999999943
 30
0
 11
176.9000000000000057
 21
-100.0999999999999943
 31
0
  0
LINE
  5
22E
330
1C
100
AcDbEntity
  8
B.Cu
  6
CONTINUOUS
100
AcDbLine
 10
176.9000000000000057
 20
-100.0999999999999943
 30
0
 11
177.5499999999999829
 21
-100.0999999999999943
 31
0
  0
LINE
  5
22F
330
1C
100
AcDbEntity
  8
B.Cu
  6
CONTINUOUS
100
AcDbLine
 10
177.5499999999999829
 20
-100.0999999999999943
 30
0
 11
177.6999999999999886
 21
-100.1499999999999915
 31
0
  0
LINE
  5
230
330
1C
100
AcDbEntity
  8
B.Cu
  6
CONTINUOUS
100
AcDbLine
 10
177.6999999999999886
 20
-100.1499999999999915
 30
0
 11
178.6999999999999886
 21
-100.1499999999999915
 31
0
  0
LINE
  5
231
330
1C
100
AcDbEntity
  8
B.Cu
  6
CONTINUOUS
100
AcDbLine
 10
178.6999999999999886
 20
-100.1499999999999915
 30
0
 11
178.7999999999999829
 21
-100.0499999999999972
 31
0
  0
LINE
  5
232
330
1C
100
AcDbEntity
  8
B.Cu
  6
CONTINUOUS
100
AcDbLine
 10
178.7999999999999829
 20
-100.0499999999999972
 30
0
 11
179.5
 21
-100.0499999999999972
 31
0
  0
LINE
  5
233
330
1C
100
AcDbEntity
  8
B.Cu
  6
CONTINUOUS
100
AcDbLine
 10
179.5
 20
-100.0499999999999972
 30
0
 11
179.5
 21
-100.3499999999999943
 31
0
  0
LINE
  5
234
330
1C
100
AcDbEntity
  8
B.Cu
  6
CONTINUOUS
100
AcDbLine
 10
178.7999999999999829
 20
-99.8499999999999943
 30
0
 11
178.7999999999999829
 21
-99.9499999999999886
 31
0
  0
LINE
  5
235
330
1C
100
AcDbEntity
  8
B.Cu
  6
CONTINUOUS
100
AcDbLine
 10
178.7999999999999829
 20
-99.9499999999999886
 30
0
 11
178.6999999999999886
 21
-100.0499999999999972
 31
0
  0
LINE
  5
236
330
1C
100
AcDbEntity
  8
B.Cu
  6
CONTINUOUS
100
AcDbLine
 10
178.6999999999999886
 20
-100.0499999999999972
 30
0
 11
177.6999999999999886
 21
-100.0499999999999972
 31
0
  0
LINE
  5
237
330
1C
100
AcDbEntity
  8
B.Cu
  6
CONTINUOUS
100
AcDbLine
 10
177.6999999999999886
 20
-100.0499999999999972
 30
0
 11
177.5499999999999829
 21
-100.
 31
0
  0
LINE
  5
238
330
1C
100
AcDbEntity
  8
B.Cu
  6
CONTINUOUS
100
AcDbLine
 10
177.5499999999999829
 20
-100.
 30
0
 11
176.7999999999999829
 21
-100.
 31
0
  0
LINE
  5
239
330
1C
100
AcDbEntity
  8
B.Cu
  6
CONTINUOUS
100
AcDbLine
 10
176.7999999999999829
 20
-100.
 30
0
 11
115.2999999999999972
 21
-100.
 31
0
  0
LINE
  5
23A
330
1C
100
AcDbEntity
  8
B.Cu
  6
CONTINUOUS
100
AcDbLine
 10
115.2999999999999972
 20
-100.
 30
0
 11
115.2804909999999978
 21
-99.9980789999999899
 31
0
  0
LINE
  5
23B
330
1C
100
AcDbEntity
  8
B.Cu
  6
CONTINUOUS
100
AcDbLine
 10
115.2804909999999978
 20
-99.9980789999999899
 30
0
 11
115.2444429999999898
 21
-99.9831470000000024
 31
0
  0
LINE
  5
23C
330
1C
100
AcDbEntity
  8
B.Cu
  6
CONTINUOUS
100
AcDbLine
 10
115.2444429999999898
 20
-99.9831470000000024
 30
0
 11
115.2168530000000004
 21
-99.9555569999999989
 31
0
  0
LINE
  5
23D
330
1C
100
AcDbEntity
  8
B.Cu
  6
CONTINUOUS
100
AcDbLine
 10
115.2168530000000004
 20
-99.9555569999999989
 30
0
 11
115.2019209999999987
 21
-99.9195089999999908
 31
0
  0
LINE
  5
23E
330
1C
100
AcDbEntity
  8
B.Cu
  6
CONTINUOUS
100
AcDbLine
 10
115.2019209999999987
 20
-99.9195089999999908
 30
0
 11
115.2019209999999987
 21
-99.8804909999999921
 31
0
  0
LINE
  5
23F
330
1C
100
AcDbEntity
  8
B.Cu
  6
CONTINUOUS
100
AcDbLine
 10
115.2019209999999987
 20
-99.8804909999999921
 30
0
 11
115.2168530000000004
 21
-99.8444429999999983
 31
0
  0
LINE
  5
240
330
1C
100
AcDbEntity
  8
B.Cu
  6
CONTINUOUS
100
AcDbLine
 10
115.2168530000000004
 20
-99.8444429999999983
 30
0
 11
115.2444429999999898
 21
-99.8168529999999947
 31
0
  0
LINE
  5
241
330
1C
100
AcDbEntity
  8
B.Cu
  6
CONTINUOUS
100
AcDbLine
 10
115.2444429999999898
 20
-99.8168529999999947
 30
0
 11
115.2804909999999978
 21
-99.801920999999993
 31
0
  0
LINE
  5
242
330
1C
100
AcDbEntity
  8
B.Cu
  6
CONTINUOUS
100
AcDbLine
 10
115.2804909999999978
 20
-99.801920999999993
 30
0
 11
115.2999999999999972
 21
-99.7999999999999972
 31
0
  0
LINE
  5
243
330
1C
100
AcDbEntity
  8
B.Cu
  6
CONTINUOUS
100
AcDbLine
 10
115.2999999999999972
 20
-99.7999999999999972
 30
0
 11
176.9000000000000057
 21
-99.7999999999999972
 31
0
  0
LINE
  5
244
330
1C
100
AcDbEntity
  8
B.Cu
  6
CONTINUOUS
100
AcDbLine
 10
176.9000000000000057
 20
-99.7999999999999972
 30
0
 11
177.5499999999999829
 21
-99.7999999999999972
 31
0
  0
LINE
  5
245
330
1C
100
AcDbEntity
  8
B.Cu
  6
CONTINUOUS
100
AcDbLine
 10
177.5499999999999829
 20
-99.7999999999999972
 30
0
 11
177.6999999999999886
 21
-99.75
 31
0
  0
LINE
  5
246
330
1C
100
AcDbEntity
  8
B.Cu
  6
CONTINUOUS
100
AcDbLine
 10
177.6999999999999886
 20
-99.75
 30
0
 11
178.6999999999999886
 21
-99.75
 31
0
  0
LINE
  5
247
330
1C
100
AcDbEntity
  8
B.Cu
  6
CONTINUOUS
100
AcDbLine
 10
178.6999999999999886
 20
-99.75
 30
0
 11
178.7999999999999829
 21
-99.8499999999999943
 31
0
  0
LINE
  5
248
330
1C
100
AcDbEntity
  8
B.Cu
  6
CONTINUOUS
100
AcDbLine
 10
179.5
 20
-99.75
 30
0
 11
178.7999999999999829
 21
-99.75
 31
0
  0
LINE
  5
249
330
1C
100
AcDbEntity
  8
B.Cu
  6
CONTINUOUS
100
AcDbLine
 10
178.7999999999999829
 20
-99.75
 30
0
 11
178.6999999999999886
 21
-99.6499999999999915
 31
0
  0
LINE
  5
24A
330
1C
100
AcDbEntity
  8
B.Cu
  6
CONTINUOUS
100
AcDbLine
 10
178.6999999999999886
 20
-99.6499999999999915
 30
0
 11
177.6999999999999886
 21
-99.6499999999999915
 31
0
  0
LINE
  5
24B
330
1C
100
AcDbEntity
  8
B.Cu
  6
CONTINUOUS
100
AcDbLine
 10
177.6999999999999886
 20
-99.6499999999999915
 30
0
 11
177.5499999999999829
 21
-99.6999999999999886
 31
0
  0
LINE
  5
24C
330
1C
100
AcDbEntity
  8
B.Cu
  6
CONTINUOUS
100
AcDbLine
 10
177.5499999999999829
 20
-99.6999999999999886
 30
0
 11
176.7999999999999829
 21
-99.6999999999999886
 31
0
  0
LINE
  5
24D
330
1C
100
AcDbEntity
  8
B.Cu
  6
CONTINUOUS
100
AcDbLine
 10
176.7999999999999829
 20
-99.6999999999999886
 30
0
 11
114.5999999999999943
 21
-99.6999999999999886
 31
0
  0
LINE
  5
24E
330
1C
100
AcDbEntity
  8
B.Cu
  6
CONTINUOUS
100
AcDbLine
 10
114.5999999999999943
 20
-99.6999999999999886
 30
0
 11
114.580490999999995
 21
-99.6980789999999928
 31
0
  0
LINE
  5
24F
330
1C
100
AcDbEntity
  8
B.Cu
  6
CONTINUOUS
100
AcDbLine
 10
114.580490999999995
 20
-99.6980789999999928
 30
0
 11
114.5444430000000011
 21
-99.6831469999999911
 31
0
  0
LINE
  5
250
330
1C
100
AcDbEntity
  8
B.Cu
  6
CONTINUOUS
100
AcDbLine
 10
114.5444430000000011
 20
-99.6831469999999911
 30
0
 11
114.5168529999999976
 21
-99.6555570000000017
 31
0
  0
LINE
  5
251
330
1C
100
AcDbEntity
  8
B.Cu
  6
CONTINUOUS
100
AcDbLine
 10
114.5168529999999976
 20
-99.6555570000000017
 30
0
 11
114.5019209999999958
 21
-99.6195089999999936
 31
0
  0
LINE
  5
252
330
1C
100
AcDbEntity
  8
B.Cu
  6
CONTINUOUS
100
AcDbLine
 10
114.5019209999999958
 20
-99.6195089999999936
 30
0
 11
114.5019209999999958
 21
-99.580490999999995
 31
0
  0
LINE
  5
253
330
1C
100
AcDbEntity
  8
B.Cu
  6
CONTINUOUS
100
AcDbLine
 10
114.5019209999999958
 20
-99.580490999999995
 30
0
 11
114.5168529999999976
 21
-99.5444430000000011
 31
0
  0
LINE
  5
254
330
1C
100
AcDbEntity
  8
B.Cu
  6
CONTINUOUS
100
AcDbLine
 10
114.5168529999999976
 20
-99.5444430000000011
 30
0
 11
114.5444430000000011
 21
-99.5168529999999976
 31
0
  0
LINE
  5
255
330
1C
100
AcDbEntity
  8
B.Cu
  6
CONTINUOUS
100
AcDbLine
 10
114.5444430000000011
 20
-99.5168529999999976
 30
0
 11
114.580490999999995
 21
-99.5019209999999958
 31
0
  0
LINE
  5
256
330
1C
100
AcDbEntity
  8
B.Cu
  6
CONTINUOUS
100
AcDbLine
 10
114.580490999999995
 20
-99.5019209999999958
 30
0
 11
114.5999999999999943
 21
-99.5
 31
0
  0
LINE
  5
257
330
1C
100
AcDbEntity
  8
B.Cu
  6
CONTINUOUS
100
AcDbLine
 10
114.5999999999999943
 20
-99.5
 30
0
 11
176.9000000000000057
 21
-99.5
 31
0
  0
LINE
  5
258
330
1C
100
AcDbEntity
  8
B.Cu
  6
CONTINUOUS
100
AcDbLine
 10
176.9000000000000057
 20
-99.5
 30
0
 11
177.5499999999999829
 21
-99.5
 31
0
  0
LINE
  5
259
330
1C
100
AcDbEntity
  8
B.Cu
  6
CONTINUOUS
100
AcDbLine
 10
177.5499999999999829
 20
-99.5
 30
0
 11
177.6999999999999886
 21
-99.5499999999999972
 31
0
  0
LINE
  5
25A
330
1C
100
AcDbEntity
  8
B.Cu
  6
CONTINUOUS
100
AcDbLine
 10
177.6999999999999886
 20
-99.5499999999999972
 30
0
 11
178.6999999999999886
 21
-99.5499999999999972
 31
0
  0
LINE
  5
25B
330
1C
100
AcDbEntity
  8
B.Cu
  6
CONTINUOUS
100
AcDbLine
 10
178.6999999999999886
 20
-99.5499999999999972
 30
0
 11
178.7999999999999829
 21
-99.4499999999999886
 31
0
  0
LINE
  5
25C
330
1C
100
AcDbEntity
  8
B.Cu
  6
CONTINUOUS
100
AcDbLine
 10
178.7999999999999829
 20
-99.4499999999999886
 30
0
 11
179.5
 21
-99.4499999999999886
 31
0
  0
LINE
  5
25D
330
1C
100
AcDbEntity
  8
B.Cu
  6
CONTINUOUS
100
AcDbLine
 10
179.5
 20
-99.4499999999999886
 30
0
 11
179.5
 21
-99.75
 31
0
  0
LINE
  5
25E
330
1C
100
AcDbEntity
  8
B.Cu
  6
CONTINUOUS
100
AcDbLine
 10
178.7999999999999829
 20
-99.25
 30
0
 11
178.7999999999999829
 21
-99.3499999999999943
 31
0
  0
LINE
  5
25F
330
1C
100
AcDbEntity
  8
B.Cu
  6
CONTINUOUS
100
AcDbLine
 10
178.7999999999999829
 20
-99.3499999999999943
 30
0
 11
178.6999999999999886
 21
-99.4499999999999886
 31
0
  0
LINE
  5
260
330
1C
100
AcDbEntity
  8
B.Cu
  6
CONTINUOUS
100
AcDbLine
 10
178.6999999999999886
 20
-99.4499999999999886
 30
0
 11
177.6999999999999886
 21
-99.4499999999999886
 31
0
  0
LINE
  5
261
330
1C
100
AcDbEntity
  8
B.Cu
  6
CONTINUOUS
100
AcDbLine
 10
177.6999999999999886
 20
-99.4499999999999886
 30
0
 11
177.5499999999999829
 21
-99.3999999999999915
 31
0
  0
LINE
  5
262
330
1C
100
AcDbEntity
  8
B.Cu
  6
CONTINUOUS
100
AcDbLine
 10
177.5499999999999829
 20
-99.3999999999999915
 30
0
 11
176.7999999999999829
 21
-99.3999999999999915
 31
0
  0
LINE
  5
263
330
1C
100
AcDbEntity
  8
B.Cu
  6
CONTINUOUS
100
AcDbLine
 10
176.7999999999999829
 20
-99.3999999999999915
 30
0
 11
115.2999999999999972
 21
-99.3999999999999915
 31
0
  0
LINE
  5
264
330
1C
100
AcDbEntity
  8
B.Cu
  6
CONTINUOUS
100
AcDbLine
 10
115.2999999999999972
 20
-99.3999999999999915
 30
0
 11
115.2804909999999978
 21
-99.3980789999999956
 31
0
  0
LINE
  5
265
330
1C
100
AcDbEntity
  8
B.Cu
  6
CONTINUOUS
100
AcDbLine
 10
115.2804909999999978
 20
-99.3980789999999956
 30
0
 11
115.2444429999999898
 21
-99.3831469999999939
 31
0
  0
LINE
  5
266
330
1C
100
AcDbEntity
  8
B.Cu
  6
CONTINUOUS
100
AcDbLine
 10
115.2444429999999898
 20
-99.3831469999999939
 30
0
 11
115.2168530000000004
 21
-99.3555569999999904
 31
0
  0
LINE
  5
267
330
1C
100
AcDbEntity
  8
B.Cu
  6
CONTINUOUS
100
AcDbLine
 10
115.2168530000000004
 20
-99.3555569999999904
 30
0
 11
115.2019209999999987
 21
-99.3195089999999965
 31
0
  0
LINE
  5
268
330
1C
100
AcDbEntity
  8
B.Cu
  6
CONTINUOUS
100
AcDbLine
 10
115.2019209999999987
 20
-99.3195089999999965
 30
0
 11
115.2019209999999987
 21
-99.2804909999999978
 31
0
  0
LINE
  5
269
330
1C
100
AcDbEntity
  8
B.Cu
  6
CONTINUOUS
100
AcDbLine
 10
115.2019209999999987
 20
-99.2804909999999978
 30
0
 11
115.2168530000000004
 21
-99.2444429999999898
 31
0
  0
LINE
  5
26A
330
1C
100
AcDbEntity
  8
B.Cu
  6
CONTINUOUS
100
AcDbLine
 10
115.2168530000000004
 20
-99.2444429999999898
 30
0
 11
115.2444429999999898
 21
-99.2168530000000004
 31
0
  0
LINE
  5
26B
330
1C
100
AcDbEntity
  8
B.Cu
  6
CONTINUOUS
100
AcDbLine
 10
115.2444429999999898
 20
-99.2168530000000004
 30
0
 11
115.2804909999999978
 21
-99.2019209999999987
 31
0
  0
LINE
  5
26C
330
1C
100
AcDbEntity
  8
B.Cu
  6
CONTINUOUS
100
AcDbLine
 10
115.2804909999999978
 20
-99.2019209999999987
 30
0
 11
115.2999999999999972
 21
-99.1999999999999886
 31
0
  0
LINE
  5
26D
330
1C
100
AcDbEntity
  8
B.Cu
  6
CONTINUOUS
100
AcDbLine
 10
115.2999999999999972
 20
-99.1999999999999886
 30
0
 11
176.9000000000000057
 21
-99.1999999999999886
 31
0
  0
LINE
  5
26E
330
1C
100
AcDbEntity
  8
B.Cu
  6
CONTINUOUS
100
AcDbLine
 10
176.9000000000000057
 20
-99.1999999999999886
 30
0
 11
177.5499999999999829
 21
-99.1999999999999886
 31
0
  0
LINE
  5
26F
330
1C
100
AcDbEntity
  8
B.Cu
  6
CONTINUOUS
100
AcDbLine
 10
177.5499999999999829
 20
-99.1999999999999886
 30
0
 11
177.6999999999999886
 21
-99.1499999999999915
 31
0
  0
LINE
  5
270
330
1C
100
AcDbEntity
  8
B.Cu
  6
CONTINUOUS
100
AcDbLine
 10
177.6999999999999886
 20
-99.1499999999999915
 30
0
 11
178.6999999999999886
 21
-99.1499999999999915
 31
0
  0
LINE
  5
271
330
1C
100
AcDbEntity
  8
B.Cu
  6
CONTINUOUS
100
AcDbLine
 10
178.6999999999999886
 20
-99.1499999999999915
 30
0
 11
178.7999999999999829
 21
-99.25
 31
0
  0
LINE
  5
272
330
1C
100
AcDbEntity
  8
B.Cu
  6
CONTINUOUS
100
AcDbLine
 10
179.5
 20
-99.1499999999999915
 30
0
 11
178.7999999999999829
 21
-99.1499999999999915
 31
0
  0
LINE
  5
273
330
1C
100
AcDbEntity
  8
B.Cu
  6
CONTINUOUS
100
AcDbLine
 10
178.7999999999999829
 20
-99.1499999999999915
 30
0
 11
178.6999999999999886
 21
-99.0499999999999972
 31
0
  0
LINE
  5
274
330
1C
100
AcDbEntity
  8
B.Cu
  6
CONTINUOUS
100
AcDbLine
 10
178.6999999999999886
 20
-99.0499999999999972
 30
0
 11
177.6999999999999886
 21
-99.0499999999999972
 31
0
  0
LINE
  5
275
330
1C
100
AcDbEntity
  8
B.Cu
  6
CONTINUOUS
100
AcDbLine
 10
177.6999999999999886
 20
-99.0499999999999972
 30
0
 11
177.5499999999999829
 21
-99.0999999999999943
 31
0
  0
LINE
  5
276
330
1C
100
AcDbEntity
  8
B.Cu
  6
CONTINUOUS
100
AcDbLine
 10
177.5499999999999829
 20
-99.0999999999999943
 30
0
 11
176.7999999999999829
 21
-99.0999999999999943
 31
0
  0
LINE
  5
277
330
1C
100
AcDbEntity
  8
B.Cu
  6
CONTINUOUS
100
AcDbLine
 10
176.7999999999999829
 20
-99.0999999999999943
 30
0
 11
114.5999999999999943
 21
-99.0999999999999943
 31
0
  0
LINE
  5
278
330
1C
100
AcDbEntity
  8
B.Cu
  6
CONTINUOUS
100
AcDbLine
 10
114.5999999999999943
 20
-99.0999999999999943
 30
0
 11
114.580490999999995
 21
-99.0980789999999985
 31
0
  0
LINE
  5
279
330
1C
100
AcDbEntity
  8
B.Cu
  6
CONTINUOUS
100
AcDbLine
 10
114.580490999999995
 20
-99.0980789999999985
 30
0
 11
114.5444430000000011
 21
-99.0831469999999968
 31
0
  0
LINE
  5
27A
330
1C
100
AcDbEntity
  8
B.Cu
  6
CONTINUOUS
100
AcDbLine
 10
114.5444430000000011
 20
-99.0831469999999968
 30
0
 11
114.5168529999999976
 21
-99.0555569999999932
 31
0
  0
LINE
  5
27B
330
1C
100
AcDbEntity
  8
B.Cu
  6
CONTINUOUS
100
AcDbLine
 10
114.5168529999999976
 20
-99.0555569999999932
 30
0
 11
114.5019209999999958
 21
-99.0195089999999993
 31
0
  0
LINE
  5
27C
330
1C
100
AcDbEntity
  8
B.Cu
  6
CONTINUOUS
100
AcDbLine
 10
114.5019209999999958
 20
-99.0195089999999993
 30
0
 11
114.5019209999999958
 21
-98.9804910000000007
 31
0
  0
LINE
  5
27D
330
1C
100
AcDbEntity
  8
B.Cu
  6
CONTINUOUS
100
AcDbLine
 10
114.5019209999999958
 20
-98.9804910000000007
 30
0
 11
114.5168529999999976
 21
-98.9444429999999926
 31
0
  0
LINE
  5
27E
330
1C
100
AcDbEntity
  8
B.Cu
  6
CONTINUOUS
100
AcDbLine
 10
114.5168529999999976
 20
-98.9444429999999926
 30
0
 11
114.5444430000000011
 21
-98.916852999999989
 31
0
  0
LINE
  5
27F
330
1C
100
AcDbEntity
  8
B.Cu
  6
CONTINUOUS
100
AcDbLine
 10
114.5444430000000011
 20
-98.916852999999989
 30
0
 11
114.580490999999995
 21
-98.9019210000000015
 31
0
  0
LINE
  5
280
330
1C
100
AcDbEntity
  8
B.Cu
  6
CONTINUOUS
100
AcDbLine
 10
114.580490999999995
 20
-98.9019210000000015
 30
0
 11
114.5999999999999943
 21
-98.8999999999999915
 31
0
  0
LINE
  5
281
330
1C
100
AcDbEntity
  8
B.Cu
  6
CONTINUOUS
100
AcDbLine
 10
114.5999999999999943
 20
-98.8999999999999915
 30
0
 11
176.9000000000000057
 21
-98.8999999999999915
 31
0
  0
LINE
  5
282
330
1C
100
AcDbEntity
  8
B.Cu
  6
CONTINUOUS
100
AcDbLine
 10
176.9000000000000057
 20
-98.8999999999999915
 30
0
 11
177.5499999999999829
 21
-98.8999999999999915
 31
0
  0
LINE
  5
283
330
1C
100
AcDbEntity
  8
B.Cu
  6
CONTINUOUS
100
AcDbLine
 10
177.5499999999999829
 20
-98.8999999999999915
 30
0
 11
177.6999999999999886
 21
-98.9499999999999886
 31
0
  0
LINE
  5
284
330
1C
100
AcDbEntity
  8
B.Cu
  6
CONTINUOUS
100
AcDbLine
 10
177.6999999999999886
 20
-98.9499999999999886
 30
0
 11
178.6999999999999886
 21
-98.9499999999999886
 31
0
  0
LINE
  5
285
330
1C
100
AcDbEntity
  8
B.Cu
  6
CONTINUOUS
100
AcDbLine
 10
178.6999999999999886
 20
-98.9499999999999886
 30
0
 11
178.7999999999999829
 21
-98.8499999999999943
 31
0
  0
LINE
  5
286
330
1C
100
AcDbEntity
  8
B.Cu
  6
CONTINUOUS
100
AcDbLine
 10
178.7999999999999829
 20
-98.8499999999999943
 30
0
 11
179.5
 21
-98.8499999999999943
 31
0
  0
LINE
  5
287
330
1C
100
AcDbEntity
  8
B.Cu
  6
CONTINUOUS
100
AcDbLine
 10
179.5
 20
-98.8499999999999943
 30
0
 11
179.5
 21
-99.1499999999999915
 31
0
  0
LINE
  5
288
330
1C
100
AcDbEntity
  8
B.Cu
  6
CONTINUOUS
100
AcDbLine
 10
178.7999999999999829
 20
-98.6499999999999915
 30
0
 11
178.7999999999999829
 21
-98.75
 31
0
  0
LINE
  5
289
330
1C
100
AcDbEntity
  8
B.Cu
  6
CONTINUOUS
100
AcDbLine
 10
178.7999999999999829
 20
-98.75
 30
0
 11
178.6999999999999886
 21
-98.8499999999999943
 31
0
  0
LINE
  5
28A
330
1C
100
AcDbEntity
  8
B.Cu
  6
CONTINUOUS
100
AcDbLine
 10
178.6999999999999886
 20
-98.8499999999999943
 30
0
 11
177.6999999999999886
 21
-98.8499999999999943
 31
0
  0
LINE
  5
28B
330
1C
100
AcDbEntity
  8
B.Cu
  6
CONTINUOUS
100
AcDbLine
 10
177.6999999999999886
 20
-98.8499999999999943
 30
0
 11
177.5499999999999829
 21
-98.7999999999999972
 31
0
  0
LINE
  5
28C
330
1C
100
AcDbEntity
  8
B.Cu
  6
CONTINUOUS
100
AcDbLine
 10
177.5499999999999829
 20
-98.7999999999999972
 30
0
 11
176.7999999999999829
 21
-98.7999999999999972
 31
0
  0
LINE
  5
28D
330
1C
100
AcDbEntity
  8
B.Cu
  6
CONTINUOUS
100
AcDbLine
 10
176.7999999999999829
 20
-98.7999999999999972
 30
0
 11
115.2999999999999972
 21
-98.7999999999999972
 31
0
  0
LINE
  5
28E
330
1C
100
AcDbEntity
  8
B.Cu
  6
CONTINUOUS
100
AcDbLine
 10
115.2999999999999972
 20
-98.7999999999999972
 30
0
 11
115.2804909999999978
 21
-98.7980790000000013
 31
0
  0
LINE
  5
28F
330
1C
100
AcDbEntity
  8
B.Cu
  6
CONTINUOUS
100
AcDbLine
 10
115.2804909999999978
 20
-98.7980790000000013
 30
0
 11
115.2444429999999898
 21
-98.7831469999999996
 31
0
  0
LINE
  5
290
330
1C
100
AcDbEntity
  8
B.Cu
  6
CONTINUOUS
100
AcDbLine
 10
115.2444429999999898
 20
-98.7831469999999996
 30
0
 11
115.2168530000000004
 21
-98.755556999999996
 31
0
  0
LINE
  5
291
330
1C
100
AcDbEntity
  8
B.Cu
  6
CONTINUOUS
100
AcDbLine
 10
115.2168530000000004
 20
-98.755556999999996
 30
0
 11
115.2019209999999987
 21
-98.7195090000000022
 31
0
  0
LINE
  5
292
330
1C
100
AcDbEntity
  8
B.Cu
  6
CONTINUOUS
100
AcDbLine
 10
115.2019209999999987
 20
-98.7195090000000022
 30
0
 11
115.2019209999999987
 21
-98.6804909999999893
 31
0
  0
LINE
  5
293
330
1C
100
AcDbEntity
  8
B.Cu
  6
CONTINUOUS
100
AcDbLine
 10
115.2019209999999987
 20
-98.6804909999999893
 30
0
 11
115.2168530000000004
 21
-98.6444429999999954
 31
0
  0
LINE
  5
294
330
1C
100
AcDbEntity
  8
B.Cu
  6
CONTINUOUS
100
AcDbLine
 10
115.2168530000000004
 20
-98.6444429999999954
 30
0
 11
115.2444429999999898
 21
-98.6168529999999919
 31
0
  0
LINE
  5
295
330
1C
100
AcDbEntity
  8
B.Cu
  6
CONTINUOUS
100
AcDbLine
 10
115.2444429999999898
 20
-98.6168529999999919
 30
0
 11
115.2804909999999978
 21
-98.6019209999999902
 31
0
  0
LINE
  5
296
330
1C
100
AcDbEntity
  8
B.Cu
  6
CONTINUOUS
100
AcDbLine
 10
115.2804909999999978
 20
-98.6019209999999902
 30
0
 11
115.2999999999999972
 21
-98.5999999999999943
 31
0
  0
LINE
  5
297
330
1C
100
AcDbEntity
  8
B.Cu
  6
CONTINUOUS
100
AcDbLine
 10
115.2999999999999972
 20
-98.5999999999999943
 30
0
 11
176.9000000000000057
 21
-98.5999999999999943
 31
0
  0
LINE
  5
298
330
1C
100
AcDbEntity
  8
B.Cu
  6
CONTINUOUS
100
AcDbLine
 10
176.9000000000000057
 20
-98.5999999999999943
 30
0
 11
177.5499999999999829
 21
-98.5999999999999943
 31
0
  0
LINE
  5
299
330
1C
100
AcDbEntity
  8
B.Cu
  6
CONTINUOUS
100
AcDbLine
 10
177.5499999999999829
 20
-98.5999999999999943
 30
0
 11
177.6999999999999886
 21
-98.5499999999999972
 31
0
  0
LINE
  5
29A
330
1C
100
AcDbEntity
  8
B.Cu
  6
CONTINUOUS
100
AcDbLine
 10
177.6999999999999886
 20
-98.5499999999999972
 30
0
 11
178.6999999999999886
 21
-98.5499999999999972
 31
0
  0
LINE
  5
29B
330
1C
100
AcDbEntity
  8
B.Cu
  6
CONTINUOUS
100
AcDbLine
 10
178.6999999999999886
 20
-98.5499999999999972
 30
0
 11
178.7999999999999829
 21
-98.6499999999999915
 31
0
  0
LINE
  5
29C
330
1C
100
AcDbEntity
  8
B.Cu
  6
CONTINUOUS
100
AcDbLine
 10
179.5
 20
-98.5499999999999972
 30
0
 11
178.7999999999999829
 21
-98.5499999999999972
 31
0
  0
LINE
  5
29D
330
1C
100
AcDbEntity
  8
B.Cu
  6
CONTINUOUS
100
AcDbLine
 10
178.7999999999999829
 20
-98.5499999999999972
 30
0
 11
178.6999999999999886
 21
-98.4499999999999886
 31
0
  0
LINE
  5
29E
330
1C
100
AcDbEntity
  8
B.Cu
  6
CONTINUOUS
100
AcDbLine
 10
178.6999999999999886
 20
-98.4499999999999886
 30
0
 11
177.6999999999999886
 21
-98.4499999999999886
 31
0
  0
LINE
  5
29F
330
1C
100
AcDbEntity
  8
B.Cu
  6
CONTINUOUS
100
AcDbLine
 10
177.6999999999999886
 20
-98.4499999999999886
 30
0
 11
177.5499999999999829
 21
-98.5
 31
0
  0
LINE
  5
2A0
330
1C
100
AcDbEntity
  8
B.Cu
  6
CONTINUOUS
100
AcDbLine
 10
177.5499999999999829
 20
-98.5
 30
0
 11
176.7999999999999829
 21
-98.5
 31
0
  0
LINE
  5
2A1
330
1C
100
AcDbEntity
  8
B.Cu
  6
CONTINUOUS
100
AcDbLine
 10
176.7999999999999829
 20
-98.5
 30
0
 11
114.5999999999999943
 21
-98.5
 31
0
  0
LINE
  5
2A2
330
1C
100
AcDbEntity
  8
B.Cu
  6
CONTINUOUS
100
AcDbLine
 10
114.5999999999999943
 20
-98.5
 30
0
 11
114.580490999999995
 21
-98.4980789999999899
 31
0
  0
LINE
  5
2A3
330
1C
100
AcDbEntity
  8
B.Cu
  6
CONTINUOUS
100
AcDbLine
 10
114.580490999999995
 20
-98.4980789999999899
 30
0
 11
114.5444430000000011
 21
-98.4831470000000024
 31
0
  0
LINE
  5
2A4
330
1C
100
AcDbEntity
  8
B.Cu
  6
CONTINUOUS
100
AcDbLine
 10
114.5444430000000011
 20
-98.4831470000000024
 30
0
 11
114.5168529999999976
 21
-98.4555569999999989
 31
0
  0
LINE
  5
2A5
330
1C
100
AcDbEntity
  8
B.Cu
  6
CONTINUOUS
100
AcDbLine
 10
114.5168529999999976
 20
-98.4555569999999989
 30
0
 11
114.5019209999999958
 21
-98.4195089999999908
 31
0
  0
LINE
  5
2A6
330
1C
100
AcDbEntity
  8
B.Cu
  6
CONTINUOUS
100
AcDbLine
 10
114.5019209999999958
 20
-98.4195089999999908
 30
0
 11
114.5019209999999958
 21
-98.3804909999999921
 31
0
  0
LINE
  5
2A7
330
1C
100
AcDbEntity
  8
B.Cu
  6
CONTINUOUS
100
AcDbLine
 10
114.5019209999999958
 20
-98.3804909999999921
 30
0
 11
114.5168529999999976
 21
-98.3444429999999983
 31
0
  0
LINE
  5
2A8
330
1C
100
AcDbEntity
  8
B.Cu
  6
CONTINUOUS
100
AcDbLine
 10
114.5168529999999976
 20
-98.3444429999999983
 30
0
 11
114.5444430000000011
 21
-98.3168529999999947
 31
0
  0
LINE
  5
2A9
330
1C
100
AcDbEntity
  8
B.Cu
  6
CONTINUOUS
100
AcDbLine
 10
114.5444430000000011
 20
-98.3168529999999947
 30
0
 11
114.580490999999995
 21
-98.301920999999993
 31
0
  0
LINE
  5
2AA
330
1C
100
AcDbEntity
  8
B.Cu
  6
CONTINUOUS
100
AcDbLine
 10
114.580490999999995
 20
-98.301920999999993
 30
0
 11
114.5999999999999943
 21
-98.2999999999999972
 31
0
  0
LINE
  5
2AB
330
1C
100
AcDbEntity
  8
B.Cu
  6
CONTINUOUS
100
AcDbLine
 10
114.5999999999999943
 20
-98.2999999999999972
 30
0
 11
176.9000000000000057
 21
-98.2999999999999972
 31
0
  0
LINE
  5
2AC
330
1C
100
AcDbEntity
  8
B.Cu
  6
CONTINUOUS
100
AcDbLine
 10
176.9000000000000057
 20
-98.2999999999999972
 30
0
 11
177.5499999999999829
 21
-98.2999999999999972
 31
0
  0
LINE
  5
2AD
330
1C
100
AcDbEntity
  8
B.Cu
  6
CONTINUOUS
100
AcDbLine
 10
177.5499999999999829
 20
-98.2999999999999972
 30
0
 11
177.6999999999999886
 21
-98.3499999999999943
 31
0
  0
LINE
  5
2AE
330
1C
100
AcDbEntity
  8
B.Cu
  6
CONTINUOUS
100
AcDbLine
 10
177.6999999999999886
 20
-98.3499999999999943
 30
0
 11
178.6999999999999886
 21
-98.3499999999999943
 31
0
  0
LINE
  5
2AF
330
1C
100
AcDbEntity
  8
B.Cu
  6
CONTINUOUS
100
AcDbLine
 10
178.6999999999999886
 20
-98.3499999999999943
 30
0
 11
178.7999999999999829
 21
-98.25
 31
0
  0
LINE
  5
2B0
330
1C
100
AcDbEntity
  8
B.Cu
  6
CONTINUOUS
100
AcDbLine
 10
178.7999999999999829
 20
-98.25
 30
0
 11
179.5
 21
-98.25
 31
0
  0
LINE
  5
2B1
330
1C
100
AcDbEntity
  8
B.Cu
  6
CONTINUOUS
100
AcDbLine
 10
179.5
 20
-98.25
 30
0
 11
179.5
 21
-98.5499999999999972
 31
0
  0
LINE
  5
2B2
330
1C
100
AcDbEntity
  8
B.Cu
  6
CONTINUOUS
100
AcDbLine
 10
178.7999999999999829
 20
-98.0499999999999972
 30
0
 11
178.7999999999999829
 21
-98.1499999999999915
 31
0
  0
LINE
  5
2B3
330
1C
100
AcDbEntity
  8
B.Cu
  6
CONTINUOUS
100
AcDbLine
 10
178.7999999999999829
 20
-98.1499999999999915
 30
0
 11
178.6999999999999886
 21
-98.25
 31
0
  0
LINE
  5
2B4
330
1C
100
AcDbEntity
  8
B.Cu
  6
CONTINUOUS
100
AcDbLine
 10
178.6999999999999886
 20
-98.25
 30
0
 11
177.6999999999999886
 21
-98.25
 31
0
  0
LINE
  5
2B5
330
1C
100
AcDbEntity
  8
B.Cu
  6
CONTINUOUS
100
AcDbLine
 10
177.6999999999999886
 20
-98.25
 30
0
 11
177.5499999999999829
 21
-98.1999999999999886
 31
0
  0
LINE
  5
2B6
330
1C
100
AcDbEntity
  8
B.Cu
  6
CONTINUOUS
100
AcDbLine
 10
177.5499999999999829
 20
-98.1999999999999886
 30
0
 11
176.7999999999999829
 21
-98.1999999999999886
 31
0
  0
LINE
  5
2B7
330
1C
100
AcDbEntity
  8
B.Cu
  6
CONTINUOUS
100
AcDbLine
 10
176.7999999999999829
 20
-98.1999999999999886
 30
0
 11
115.2999999999999972
 21
-98.1999999999999886
 31
0
  0
LINE
  5
2B8
330
1C
100
AcDbEntity
  8
B.Cu
  6
CONTINUOUS
100
AcDbLine
 10
115.2999999999999972
 20
-98.1999999999999886
 30
0
 11
115.2804909999999978
 21
-98.1980789999999928
 31
0
  0
LINE
  5
2B9
330
1C
100
AcDbEntity
  8
B.Cu
  6
CONTINUOUS
100
AcDbLine
 10
115.2804909999999978
 20
-98.1980789999999928
 30
0
 11
115.2444429999999898
 21
-98.1831469999999911
 31
0
  0
LINE
  5
2BA
330
1C
100
AcDbEntity
  8
B.Cu
  6
CONTINUOUS
100
AcDbLine
 10
115.2444429999999898
 20
-98.1831469999999911
 30
0
 11
115.2168530000000004
 21
-98.1555570000000017
 31
0
  0
LINE
  5
2BB
330
1C
100
AcDbEntity
  8
B.Cu
  6
CONTINUOUS
100
AcDbLine
 10
115.2168530000000004
 20
-98.1555570000000017
 30
0
 11
115.2019209999999987
 21
-98.1195089999999936
 31
0
  0
LINE
  5
2BC
330
1C
100
AcDbEntity
  8
B.Cu
  6
CONTINUOUS
100
AcDbLine
 10
115.2019209999999987
 20
-98.1195089999999936
 30
0
 11
115.2019209999999987
 21
-98.080490999999995
 31
0
  0
LINE
  5
2BD
330
1C
100
AcDbEntity
  8
B.Cu
  6
CONTINUOUS
100
AcDbLine
 10
115.2019209999999987
 20
-98.080490999999995
 30
0
 11
115.2168530000000004
 21
-98.0444430000000011
 31
0
  0
LINE
  5
2BE
330
1C
100
AcDbEntity
  8
B.Cu
  6
CONTINUOUS
100
AcDbLine
 10
115.2168530000000004
 20
-98.0444430000000011
 30
0
 11
115.2444429999999898
 21
-98.0168529999999976
 31
0
  0
LINE
  5
2BF
330
1C
100
AcDbEntity
  8
B.Cu
  6
CONTINUOUS
100
AcDbLine
 10
115.2444429999999898
 20
-98.0168529999999976
 30
0
 11
115.2804909999999978
 21
-98.0019209999999958
 31
0
  0
LINE
  5
2C0
330
1C
100
AcDbEntity
  8
B.Cu
  6
CONTINUOUS
100
AcDbLine
 10
115.2804909999999978
 20
-98.0019209999999958
 30
0
 11
115.2999999999999972
 21
-98.
 31
0
  0
LINE
  5
2C1
330
1C
100
AcDbEntity
  8
B.Cu
  6
CONTINUOUS
100
AcDbLine
 10
115.2999999999999972
 20
-98.
 30
0
 11
176.9000000000000057
 21
-98.
 31
0
  0
LINE
  5
2C2
330
1C
100
AcDbEntity
  8
B.Cu
  6
CONTINUOUS
100
AcDbLine
 10
176.9000000000000057
 20
-98.
 30
0
 11
177.5499999999999829
 21
-98.
 31
0
  0
LINE
  5
2C3
330
1C
100
AcDbEntity
  8
B.Cu
  6
CONTINUOUS
100
AcDbLine
 10
177.5499999999999829
 20
-98.
 30
0
 11
177.6999999999999886
 21
-97.9499999999999886
 31
0
  0
LINE
  5
2C4
330
1C
100
AcDbEntity
  8
B.Cu
  6
CONTINUOUS
100
AcDbLine
 10
177.6999999999999886
 20
-97.9499999999999886
 30
0
 11
178.6999999999999886
 21
-97.9499999999999886
 31
0
  0
LINE
  5
2C5
330
1C
100
AcDbEntity
  8
B.Cu
  6
CONTINUOUS
100
AcDbLine
 10
178.6999999999999886
 20
-97.9499999999999886
 30
0
 11
178.7999999999999829
 21
-98.0499999999999972
 31
0
  0
LINE
  5
2C6
330
1C
100
AcDbEntity
  8
B.Cu
  6
CONTINUOUS
100
AcDbLine
 10
179.5
 20
-97.9499999999999886
 30
0
 11
178.7999999999999829
 21
-97.9499999999999886
 31
0
  0
LINE
  5
2C7
330
1C
100
AcDbEntity
  8
B.Cu
  6
CONTINUOUS
100
AcDbLine
 10
178.7999999999999829
 20
-97.9499999999999886
 30
0
 11
178.6999999999999886
 21
-97.8499999999999943
 31
0
  0
LINE
  5
2C8
330
1C
100
AcDbEntity
  8
B.Cu
  6
CONTINUOUS
100
AcDbLine
 10
178.6999999999999886
 20
-97.8499999999999943
 30
0
 11
177.6999999999999886
 21
-97.8499999999999943
 31
0
  0
LINE
  5
2C9
330
1C
100
AcDbEntity
  8
B.Cu
  6
CONTINUOUS
100
AcDbLine
 10
177.6999999999999886
 20
-97.8499999999999943
 30
0
 11
177.5499999999999829
 21
-97.8999999999999915
 31
0
  0
LINE
  5
2CA
330
1C
100
AcDbEntity
  8
B.Cu
  6
CONTINUOUS
100
AcDbLine
 10
177.5499999999999829
 20
-97.8999999999999915
 30
0
 11
176.7999999999999829
 21
-97.8999999999999915
 31
0
  0
LINE
  5
2CB
330
1C
100
AcDbEntity
  8
B.Cu
  6
CONTINUOUS
100
AcDbLine
 10
176.7999999999999829
 20
-97.8999999999999915
 30
0
 11
114.5999999999999943
 21
-97.8999999999999915
 31
0
  0
LINE
  5
2CC
330
1C
100
AcDbEntity
  8
B.Cu
  6
CONTINUOUS
100
AcDbLine
 10
114.5999999999999943
 20
-97.8999999999999915
 30
0
 11
114.580490999999995
 21
-97.8980789999999956
 31
0
  0
LINE
  5
2CD
330
1C
100
AcDbEntity
  8
B.Cu
  6
CONTINUOUS
100
AcDbLine
 10
114.580490999999995
 20
-97.8980789999999956
 30
0
 11
114.5444430000000011
 21
-97.8831469999999939
 31
0
  0
LINE
  5
2CE
330
1C
100
AcDbEntity
  8
B.Cu
  6
CONTINUOUS
100
AcDbLine
 10
114.5444430000000011
 20
-97.8831469999999939
 30
0
 11
114.5168529999999976
 21
-97.8555569999999904
 31
0
  0
LINE
  5
2CF
330
1C
100
AcDbEntity
  8
B.Cu
  6
CONTINUOUS
100
AcDbLine
 10
114.5168529999999976
 20
-97.8555569999999904
 30
0
 11
114.5019209999999958
 21
-97.8195089999999965
 31
0
  0
LINE
  5
2D0
330
1C
100
AcDbEntity
  8
B.Cu
  6
CONTINUOUS
100
AcDbLine
 10
114.5019209999999958
 20
-97.8195089999999965
 30
0
 11
114.5019209999999958
 21
-97.7804909999999978
 31
0
  0
LINE
  5
2D1
330
1C
100
AcDbEntity
  8
B.Cu
  6
CONTINUOUS
100
AcDbLine
 10
114.5019209999999958
 20
-97.7804909999999978
 30
0
 11
114.5168529999999976
 21
-97.7444429999999898
 31
0
  0
LINE
  5
2D2
330
1C
100
AcDbEntity
  8
B.Cu
  6
CONTINUOUS
100
AcDbLine
 10
114.5168529999999976
 20
-97.7444429999999898
 30
0
 11
114.5444430000000011
 21
-97.7168530000000004
 31
0
  0
LINE
  5
2D3
330
1C
100
AcDbEntity
  8
B.Cu
  6
CONTINUOUS
100
AcDbLine
 10
114.5444430000000011
 20
-97.7168530000000004
 30
0
 11
114.580490999999995
 21
-97.7019209999999987
 31
0
  0
LINE
  5
2D4
330
1C
100
AcDbEntity
  8
B.Cu
  6
CONTINUOUS
100
AcDbLine
 10
114.580490999999995
 20
-97.7019209999999987
 30
0
 11
114.5999999999999943
 21
-97.6999999999999886
 31
0
  0
LINE
  5
2D5
330
1C
100
AcDbEntity
  8
B.Cu
  6
CONTINUOUS
100
AcDbLine
 10
114.5999999999999943
 20
-97.6999999999999886
 30
0
 11
176.9000000000000057
 21
-97.6999999999999886
 31
0
  0
LINE
  5
2D6
330
1C
100
AcDbEntity
  8
B.Cu
  6
CONTINUOUS
100
AcDbLine
 10
176.9000000000000057
 20
-97.6999999999999886
 30
0
 11
177.5499999999999829
 21
-97.6999999999999886
 31
0
  0
LINE
  5
2D7
330
1C
100
AcDbEntity
  8
B.Cu
  6
CONTINUOUS
100
AcDbLine
 10
177.5499999999999829
 20
-97.6999999999999886
 30
0
 11
177.6999999999999886
 21
-97.75
 31
0
  0
LINE
  5
2D8
330
1C
100
AcDbEntity
  8
B.Cu
  6
CONTINUOUS
100
AcDbLine
 10
177.6999999999999886
 20
-97.75
 30
0
 11
178.6999999999999886
 21
-97.75
 31
0
  0
LINE
  5
2D9
330
1C
100
AcDbEntity
  8
B.Cu
  6
CONTINUOUS
100
AcDbLine
 10
178.6999999999999886
 20
-97.75
 30
0
 11
178.7999999999999829
 21
-97.6499999999999915
 31
0
  0
LINE
  5
2DA
330
1C
100
AcDbEntity
  8
B.Cu
  6
CONTINUOUS
100
AcDbLine
 10
178.7999999999999829
 20
-97.6499999999999915
 30
0
 11
179.5
 21
-97.6499999999999915
 31
0
  0
LINE
  5
2DB
330
1C
100
AcDbEntity
  8
B.Cu
  6
CONTINUOUS
100
AcDbLine
 10
179.5
 20
-97.6499999999999915
 30
0
 11
179.5
 21
-97.9499999999999886
 31
0
  0
LINE
  5
2DC
330
1C
100
AcDbEntity
  8
B.Cu
  6
CONTINUOUS
100
AcDbLine
 10
178.7999999999999829
 20
-97.4499999999999886
 30
0
 11
178.7999999999999829
 21
-97.5499999999999972
 31
0
  0
LINE
  5
2DD
330
1C
100
AcDbEntity
  8
B.Cu
  6
CONTINUOUS
100
AcDbLine
 10
178.7999999999999829
 20
-97.5499999999999972
 30
0
 11
178.6999999999999886
 21
-97.6499999999999915
 31
0
  0
LINE
  5
2DE
330
1C
100
AcDbEntity
  8
B.Cu
  6
CONTINUOUS
100
AcDbLine
 10
178.6999999999999886
 20
-97.6499999999999915
 30
0
 11
177.6999999999999886
 21
-97.6499999999999915
 31
0
  0
LINE
  5
2DF
330
1C
100
AcDbEntity
  8
B.Cu
  6
CONTINUOUS
100
AcDbLine
 10
177.6999999999999886
 20
-97.6499999999999915
 30
0
 11
177.5499999999999829
 21
-97.5999999999999943
 31
0
  0
LINE
  5
2E0
330
1C
100
AcDbEntity
  8
B.Cu
  6
CONTINUOUS
100
AcDbLine
 10
177.5499999999999829
 20
-97.5999999999999943
 30
0
 11
176.7999999999999829
 21
-97.5999999999999943
 31
0
  0
LINE
  5
2E1
330
1C
100
AcDbEntity
  8
B.Cu
  6
CONTINUOUS
100
AcDbLine
 10
176.7999999999999829
 20
-97.5999999999999943
 30
0
 11
115.2999999999999972
 21
-97.5999999999999943
 31
0
  0
LINE
  5
2E2
330
1C
100
AcDbEntity
  8
B.Cu
  6
CONTINUOUS
100
AcDbLine
 10
115.2999999999999972
 20
-97.5999999999999943
 30
0
 11
115.2804909999999978
 21
-97.5980789999999985
 31
0
  0
LINE
  5
2E3
330
1C
100
AcDbEntity
  8
B.Cu
  6
CONTINUOUS
100
AcDbLine
 10
115.2804909999999978
 20
-97.5980789999999985
 30
0
 11
115.2444429999999898
 21
-97.5831469999999968
 31
0
  0
LINE
  5
2E4
330
1C
100
AcDbEntity
  8
B.Cu
  6
CONTINUOUS
100
AcDbLine
 10
115.2444429999999898
 20
-97.5831469999999968
 30
0
 11
115.2168530000000004
 21
-97.5555569999999932
 31
0
  0
LINE
  5
2E5
330
1C
100
AcDbEntity
  8
B.Cu
  6
CONTINUOUS
100
AcDbLine
 10
115.2168530000000004
 20
-97.5555569999999932
 30
0
 11
115.2019209999999987
 21
-97.5195089999999993
 31
0
  0
LINE
  5
2E6
330
1C
100
AcDbEntity
  8
B.Cu
  6
CONTINUOUS
100
AcDbLine
 10
115.2019209999999987
 20
-97.5195089999999993
 30
0
 11
115.2019209999999987
 21
-97.4804910000000007
 31
0
  0
LINE
  5
2E7
330
1C
100
AcDbEntity
  8
B.Cu
  6
CONTINUOUS
100
AcDbLine
 10
115.2019209999999987
 20
-97.4804910000000007
 30
0
 11
115.2168530000000004
 21
-97.4444429999999926
 31
0
  0
LINE
  5
2E8
330
1C
100
AcDbEntity
  8
B.Cu
  6
CONTINUOUS
100
AcDbLine
 10
115.2168530000000004
 20
-97.4444429999999926
 30
0
 11
115.2444429999999898
 21
-97.416852999999989
 31
0
  0
LINE
  5
2E9
330
1C
100
AcDbEntity
  8
B.Cu
  6
CONTINUOUS
100
AcDbLine
 10
115.2444429999999898
 20
-97.416852999999989
 30
0
 11
115.2804909999999978
 21
-97.4019210000000015
 31
0
  0
LINE
  5
2EA
330
1C
100
AcDbEntity
  8
B.Cu
  6
CONTINUOUS
100
AcDbLine
 10
115.2804909999999978
 20
-97.4019210000000015
 30
0
 11
115.2999999999999972
 21
-97.3999999999999915
 31
0
  0
LINE
  5
2EB
330
1C
100
AcDbEntity
  8
B.Cu
  6
CONTINUOUS
100
AcDbLine
 10
115.2999999999999972
 20
-97.3999999999999915
 30
0
 11
176.9000000000000057
 21
-97.3999999999999915
 31
0
  0
LINE
  5
2EC
330
1C
100
AcDbEntity
  8
B.Cu
  6
CONTINUOUS
100
AcDbLine
 10
176.9000000000000057
 20
-97.3999999999999915
 30
0
 11
177.5499999999999829
 21
-97.3999999999999915
 31
0
  0
LINE
  5
2ED
330
1C
100
AcDbEntity
  8
B.Cu
  6
CONTINUOUS
100
AcDbLine
 10
177.5499999999999829
 20
-97.3999999999999915
 30
0
 11
177.6999999999999886
 21
-97.3499999999999943
 31
0
  0
LINE
  5
2EE
330
1C
100
AcDbEntity
  8
B.Cu
  6
CONTINUOUS
100
AcDbLine
 10
177.6999999999999886
 20
-97.3499999999999943
 30
0
 11
178.6999999999999886
 21
-97.3499999999999943
 31
0
  0
LINE
  5
2EF
330
1C
100
AcDbEntity
  8
B.Cu
  6
CONTINUOUS
100
AcDbLine
 10
178.6999999999999886
 20
-97.3499999999999943
 30
0
 11
178.7999999999999829
 21
-97.4499999999999886
 31
0
  0
LINE
  5
2F0
330
1C
100
AcDbEntity
  8
B.Cu
  6
CONTINUOUS
100
AcDbLine
 10
179.5
 20
-97.3499999999999943
 30
0
 11
178.7999999999999829
 21
-97.3499999999999943
 31
0
  0
LINE
  5
2F1
330
1C
100
AcDbEntity
  8
B.Cu
  6
CONTINUOUS
100
AcDbLine
 10
178.7999999999999829
 20
-97.3499999999999943
 30
0
 11
178.6999999999999886
 21
-97.25
 31
0
  0
LINE
  5
2F2
330
1C
100
AcDbEntity
  8
B.Cu
  6
CONTINUOUS
100
AcDbLine
 10
178.6999999999999886
 20
-97.25
 30
0
 11
177.6999999999999886
 21
-97.25
 31
0
  0
LINE
  5
2F3
330
1C
100
AcDbEntity
  8
B.Cu
  6
CONTINUOUS
100
AcDbLine
 10
177.6999999999999886
 20
-97.25
 30
0
 11
177.5499999999999829
 21
-97.2999999999999972
 31
0
  0
LINE
  5
2F4
330
1C
100
AcDbEntity
  8
B.Cu
  6
CONTINUOUS
100
AcDbLine
 10
177.5499999999999829
 20
-97.2999999999999972
 30
0
 11
176.7999999999999829
 21
-97.2999999999999972
 31
0
  0
LINE
  5
2F5
330
1C
100
AcDbEntity
  8
B.Cu
  6
CONTINUOUS
100
AcDbLine
 10
176.7999999999999829
 20
-97.2999999999999972
 30
0
 11
114.5999999999999943
 21
-97.2999999999999972
 31
0
  0
LINE
  5
2F6
330
1C
100
AcDbEntity
  8
B.Cu
  6
CONTINUOUS
100
AcDbLine
 10
114.5999999999999943
 20
-97.2999999999999972
 30
0
 11
114.580490999999995
 21
-97.2980790000000013
 31
0
  0
LINE
  5
2F7
330
1C
100
AcDbEntity
  8
B.Cu
  6
CONTINUOUS
100
AcDbLine
 10
114.580490999999995
 20
-97.2980790000000013
 30
0
 11
114.5444430000000011
 21
-97.2831469999999996
 31
0
  0
LINE
  5
2F8
330
1C
100
AcDbEntity
  8
B.Cu
  6
CONTINUOUS
100
AcDbLine
 10
114.5444430000000011
 20
-97.2831469999999996
 30
0
 11
114.5168529999999976
 21
-97.255556999999996
 31
0
  0
LINE
  5
2F9
330
1C
100
AcDbEntity
  8
B.Cu
  6
CONTINUOUS
100
AcDbLine
 10
114.5168529999999976
 20
-97.255556999999996
 30
0
 11
114.5019209999999958
 21
-97.2195090000000022
 31
0
  0
LINE
  5
2FA
330
1C
100
AcDbEntity
  8
B.Cu
  6
CONTINUOUS
100
AcDbLine
 10
114.5019209999999958
 20
-97.2195090000000022
 30
0
 11
114.5019209999999958
 21
-97.1804909999999893
 31
0
  0
LINE
  5
2FB
330
1C
100
AcDbEntity
  8
B.Cu
  6
CONTINUOUS
100
AcDbLine
 10
114.5019209999999958
 20
-97.1804909999999893
 30
0
 11
114.5168529999999976
 21
-97.1444429999999954
 31
0
  0
LINE
  5
2FC
330
1C
100
AcDbEntity
  8
B.Cu
  6
CONTINUOUS
100
AcDbLine
 10
114.5168529999999976
 20
-97.1444429999999954
 30
0
 11
114.5444430000000011
 21
-97.1168529999999919
 31
0
  0
LINE
  5
2FD
330
1C
100
AcDbEntity
  8
B.Cu
  6
CONTINUOUS
100
AcDbLine
 10
114.5444430000000011
 20
-97.1168529999999919
 30
0
 11
114.580490999999995
 21
-97.1019209999999902
 31
0
  0
LINE
  5
2FE
330
1C
100
AcDbEntity
  8
B.Cu
  6
CONTINUOUS
100
AcDbLine
 10
114.580490999999995
 20
-97.1019209999999902
 30
0
 11
114.5999999999999943
 21
-97.0999999999999943
 31
0
  0
LINE
  5
2FF
330
1C
100
AcDbEntity
  8
B.Cu
  6
CONTINUOUS
100
AcDbLine
 10
114.5999999999999943
 20
-97.0999999999999943
 30
0
 11
176.9000000000000057
 21
-97.0999999999999943
 31
0
  0
LINE
  5
300
330
1C
100
AcDbEntity
  8
B.Cu
  6
CONTINUOUS
100
AcDbLine
 10
176.9000000000000057
 20
-97.0999999999999943
 30
0
 11
177.5499999999999829
 21
-97.0999999999999943
 31
0
  0
LINE
  5
301
330
1C
100
AcDbEntity
  8
B.Cu
  6
CONTINUOUS
100
AcDbLine
 10
177.5499999999999829
 20
-97.0999999999999943
 30
0
 11
177.6999999999999886
 21
-97.1499999999999915
 31
0
  0
LINE
  5
302
330
1C
100
AcDbEntity
  8
B.Cu
  6
CONTINUOUS
100
AcDbLine
 10
177.6999999999999886
 20
-97.1499999999999915
 30
0
 11
178.6999999999999886
 21
-97.1499999999999915
 31
0
  0
LINE
  5
303
330
1C
100
AcDbEntity
  8
B.Cu
  6
CONTINUOUS
100
AcDbLine
 10
178.6999999999999886
 20
-97.1499999999999915
 30
0
 11
178.7999999999999829
 21
-97.0499999999999972
 31
0
  0
LINE
  5
304
330
1C
100
AcDbEntity
  8
B.Cu
  6
CONTINUOUS
100
AcDbLine
 10
178.7999999999999829
 20
-97.0499999999999972
 30
0
 11
179.5
 21
-97.0499999999999972
 31
0
  0
LINE
  5
305
330
1C
100
AcDbEntity
  8
B.Cu
  6
CONTINUOUS
100
AcDbLine
 10
179.5
 20
-97.0499999999999972
 30
0
 11
179.5
 21
-97.3499999999999943
 31
0
  0
LINE
  5
306
330
1C
100
AcDbEntity
  8
B.Cu
  6
CONTINUOUS
100
AcDbLine
 10
178.7999999999999829
 20
-96.8499999999999943
 30
0
 11
178.7999999999999829
 21
-96.9499999999999886
 31
0
  0
LINE
  5
307
330
1C
100
AcDbEntity
  8
B.Cu
  6
CONTINUOUS
100
AcDbLine
 10
178.7999999999999829
 20
-96.9499999999999886
 30
0
 11
178.6999999999999886
 21
-97.0499999999999972
 31
0
  0
LINE
  5
308
330
1C
100
AcDbEntity
  8
B.Cu
  6
CONTINUOUS
100
AcDbLine
 10
178.6999999999999886
 20
-97.0499999999999972
 30
0
 11
177.6999999999999886
 21
-97.0499999999999972
 31
0
  0
LINE
  5
309
330
1C
100
AcDbEntity
  8
B.Cu
  6
CONTINUOUS
100
AcDbLine
 10
177.6999999999999886
 20
-97.0499999999999972
 30
0
 11
177.5499999999999829
 21
-97.
 31
0
  0
LINE
  5
30A
330
1C
100
AcDbEntity
  8
B.Cu
  6
CONTINUOUS
100
AcDbLine
 10
177.5499999999999829
 20
-97.
 30
0
 11
176.7999999999999829
 21
-97.
 31
0
  0
LINE
  5
30B
330
1C
100
AcDbEntity
  8
B.Cu
  6
CONTINUOUS
100
AcDbLine
 10
176.7999999999999829
 20
-97.
 30
0
 11
115.3249999999999886
 21
-97.
 31
0
  0
LINE
  5
30C
330
1C
100
AcDbEntity
  8
B.Cu
  6
CONTINUOUS
100
AcDbLine
 10
115.3249999999999886
 20
-97.
 30
0
 11
115.3054909999999893
 21
-96.9980789999999899
 31
0
  0
LINE
  5
30D
330
1C
100
AcDbEntity
  8
B.Cu
  6
CONTINUOUS
100
AcDbLine
 10
115.3054909999999893
 20
-96.9980789999999899
 30
0
 11
115.2800000000000011
 21
-96.9875199999999893
 31
0
  0
LINE
  5
30E
330
1C
100
AcDbEntity
  8
B.Cu
  6
CONTINUOUS
100
AcDbLine
 10
115.2800000000000011
 20
-96.9875199999999893
 30
0
 11
115.269441999999998
 21
-96.9831470000000024
 31
0
  0
LINE
  5
30F
330
1C
100
AcDbEntity
  8
B.Cu
  6
CONTINUOUS
100
AcDbLine
 10
115.269441999999998
 20
-96.9831470000000024
 30
0
 11
115.254289
 21
-96.9707099999999969
 31
0
  0
LINE
  5
310
330
1C
100
AcDbEntity
  8
B.Cu
  6
CONTINUOUS
100
AcDbLine
 10
115.254289
 20
-96.9707099999999969
 30
0
 11
115.2292889999999943
 21
-96.9457109999999886
 31
0
  0
LINE
  5
311
330
1C
100
AcDbEntity
  8
B.Cu
  6
CONTINUOUS
100
AcDbLine
 10
115.2292889999999943
 20
-96.9457109999999886
 30
0
 11
115.2168530000000004
 21
-96.9305569999999932
 31
0
  0
LINE
  5
312
330
1C
100
AcDbEntity
  8
B.Cu
  6
CONTINUOUS
100
AcDbLine
 10
115.2168530000000004
 20
-96.9305569999999932
 30
0
 11
115.2019209999999987
 21
-96.8945089999999993
 31
0
  0
LINE
  5
313
330
1C
100
AcDbEntity
  8
B.Cu
  6
CONTINUOUS
100
AcDbLine
 10
115.2019209999999987
 20
-96.8945089999999993
 30
0
 11
115.2019209999999987
 21
-96.8554910000000007
 31
0
  0
LINE
  5
314
330
1C
100
AcDbEntity
  8
B.Cu
  6
CONTINUOUS
100
AcDbLine
 10
115.2019209999999987
 20
-96.8554910000000007
 30
0
 11
115.2168530000000004
 21
-96.8194429999999926
 31
0
  0
LINE
  5
315
330
1C
100
AcDbEntity
  8
B.Cu
  6
CONTINUOUS
100
AcDbLine
 10
115.2168530000000004
 20
-96.8194429999999926
 30
0
 11
115.2444429999999898
 21
-96.791852999999989
 31
0
  0
LINE
  5
316
330
1C
100
AcDbEntity
  8
B.Cu
  6
CONTINUOUS
100
AcDbLine
 10
115.2444429999999898
 20
-96.791852999999989
 30
0
 11
115.2804909999999978
 21
-96.7769210000000015
 31
0
  0
LINE
  5
317
330
1C
100
AcDbEntity
  8
B.Cu
  6
CONTINUOUS
100
AcDbLine
 10
115.2804909999999978
 20
-96.7769210000000015
 30
0
 11
115.3195089999999965
 21
-96.7769210000000015
 31
0
  0
LINE
  5
318
330
1C
100
AcDbEntity
  8
B.Cu
  6
CONTINUOUS
100
AcDbLine
 10
115.3195089999999965
 20
-96.7769210000000015
 30
0
 11
115.3555569999999904
 21
-96.791852999999989
 31
0
  0
LINE
  5
319
330
1C
100
AcDbEntity
  8
B.Cu
  6
CONTINUOUS
100
AcDbLine
 10
115.3555569999999904
 20
-96.791852999999989
 30
0
 11
115.3654849999999925
 21
-96.7999999999999972
 31
0
  0
LINE
  5
31A
330
1C
100
AcDbEntity
  8
B.Cu
  6
CONTINUOUS
100
AcDbLine
 10
115.3654849999999925
 20
-96.7999999999999972
 30
0
 11
176.9000000000000057
 21
-96.7999999999999972
 31
0
  0
LINE
  5
31B
330
1C
100
AcDbEntity
  8
B.Cu
  6
CONTINUOUS
100
AcDbLine
 10
176.9000000000000057
 20
-96.7999999999999972
 30
0
 11
177.5499999999999829
 21
-96.7999999999999972
 31
0
  0
LINE
  5
31C
330
1C
100
AcDbEntity
  8
B.Cu
  6
CONTINUOUS
100
AcDbLine
 10
177.5499999999999829
 20
-96.7999999999999972
 30
0
 11
177.6999999999999886
 21
-96.75
 31
0
  0
LINE
  5
31D
330
1C
100
AcDbEntity
  8
B.Cu
  6
CONTINUOUS
100
AcDbLine
 10
177.6999999999999886
 20
-96.75
 30
0
 11
178.6999999999999886
 21
-96.75
 31
0
  0
LINE
  5
31E
330
1C
100
AcDbEntity
  8
B.Cu
  6
CONTINUOUS
100
AcDbLine
 10
178.6999999999999886
 20
-96.75
 30
0
 11
178.7999999999999829
 21
-96.8499999999999943
 31
0
  0
LINE
  5
31F
330
1C
100
AcDbEntity
  8
B.Cu
  6
CONTINUOUS
100
AcDbLine
 10
179.5
 20
-96.75
 30
0
 11
178.7999999999999829
 21
-96.75
 31
0
  0
LINE
  5
320
330
1C
100
AcDbEntity
  8
B.Cu
  6
CONTINUOUS
100
AcDbLine
 10
178.7999999999999829
 20
-96.75
 30
0
 11
178.6999999999999886
 21
-96.6499999999999915
 31
0
  0
LINE
  5
321
330
1C
100
AcDbEntity
  8
B.Cu
  6
CONTINUOUS
100
AcDbLine
 10
178.6999999999999886
 20
-96.6499999999999915
 30
0
 11
177.6999999999999886
 21
-96.6499999999999915
 31
0
  0
LINE
  5
322
330
1C
100
AcDbEntity
  8
B.Cu
  6
CONTINUOUS
100
AcDbLine
 10
177.6999999999999886
 20
-96.6499999999999915
 30
0
 11
177.5499999999999829
 21
-96.6999999999999886
 31
0
  0
LINE
  5
323
330
1C
100
AcDbEntity
  8
B.Cu
  6
CONTINUOUS
100
AcDbLine
 10
177.5499999999999829
 20
-96.6999999999999886
 30
0
 11
176.7999999999999829
 21
-96.6999999999999886
 31
0
  0
LINE
  5
324
330
1C
100
AcDbEntity
  8
B.Cu
  6
CONTINUOUS
100
AcDbLine
 10
176.7999999999999829
 20
-96.6999999999999886
 30
0
 11
114.5999999999999943
 21
-96.6999999999999886
 31
0
  0
LINE
  5
325
330
1C
100
AcDbEntity
  8
B.Cu
  6
CONTINUOUS
100
AcDbLine
 10
114.5999999999999943
 20
-96.6999999999999886
 30
0
 11
114.580490999999995
 21
-96.6980789999999928
 31
0
  0
LINE
  5
326
330
1C
100
AcDbEntity
  8
B.Cu
  6
CONTINUOUS
100
AcDbLine
 10
114.580490999999995
 20
-96.6980789999999928
 30
0
 11
114.5444430000000011
 21
-96.6831469999999911
 31
0
  0
LINE
  5
327
330
1C
100
AcDbEntity
  8
B.Cu
  6
CONTINUOUS
100
AcDbLine
 10
114.5444430000000011
 20
-96.6831469999999911
 30
0
 11
114.5168529999999976
 21
-96.6555570000000017
 31
0
  0
LINE
  5
328
330
1C
100
AcDbEntity
  8
B.Cu
  6
CONTINUOUS
100
AcDbLine
 10
114.5168529999999976
 20
-96.6555570000000017
 30
0
 11
114.5019209999999958
 21
-96.6195089999999936
 31
0
  0
LINE
  5
329
330
1C
100
AcDbEntity
  8
B.Cu
  6
CONTINUOUS
100
AcDbLine
 10
114.5019209999999958
 20
-96.6195089999999936
 30
0
 11
114.5019209999999958
 21
-96.580490999999995
 31
0
  0
LINE
  5
32A
330
1C
100
AcDbEntity
  8
B.Cu
  6
CONTINUOUS
100
AcDbLine
 10
114.5019209999999958
 20
-96.580490999999995
 30
0
 11
114.5168529999999976
 21
-96.5444430000000011
 31
0
  0
LINE
  5
32B
330
1C
100
AcDbEntity
  8
B.Cu
  6
CONTINUOUS
100
AcDbLine
 10
114.5168529999999976
 20
-96.5444430000000011
 30
0
 11
114.5444430000000011
 21
-96.5168529999999976
 31
0
  0
LINE
  5
32C
330
1C
100
AcDbEntity
  8
B.Cu
  6
CONTINUOUS
100
AcDbLine
 10
114.5444430000000011
 20
-96.5168529999999976
 30
0
 11
114.580490999999995
 21
-96.5019209999999958
 31
0
  0
LINE
  5
32D
330
1C
100
AcDbEntity
  8
B.Cu
  6
CONTINUOUS
100
AcDbLine
 10
114.580490999999995
 20
-96.5019209999999958
 30
0
 11
114.5999999999999943
 21
-96.5
 31
0
  0
LINE
  5
32E
330
1C
100
AcDbEntity
  8
B.Cu
  6
CONTINUOUS
100
AcDbLine
 10
114.5999999999999943
 20
-96.5
 30
0
 11
176.9000000000000057
 21
-96.5
 31
0
  0
LINE
  5
32F
330
1C
100
AcDbEntity
  8
B.Cu
  6
CONTINUOUS
100
AcDbLine
 10
176.9000000000000057
 20
-96.5
 30
0
 11
177.5499999999999829
 21
-96.5
 31
0
  0
LINE
  5
330
330
1C
100
AcDbEntity
  8
B.Cu
  6
CONTINUOUS
100
AcDbLine
 10
177.5499999999999829
 20
-96.5
 30
0
 11
177.6999999999999886
 21
-96.5499999999999972
 31
0
  0
LINE
  5
331
330
1C
100
AcDbEntity
  8
B.Cu
  6
CONTINUOUS
100
AcDbLine
 10
177.6999999999999886
 20
-96.5499999999999972
 30
0
 11
178.6999999999999886
 21
-96.5499999999999972
 31
0
  0
LINE
  5
332
330
1C
100
AcDbEntity
  8
B.Cu
  6
CONTINUOUS
100
AcDbLine
 10
178.6999999999999886
 20
-96.5499999999999972
 30
0
 11
178.7999999999999829
 21
-96.4499999999999886
 31
0
  0
LINE
  5
333
330
1C
100
AcDbEntity
  8
B.Cu
  6
CONTINUOUS
100
AcDbLine
 10
178.7999999999999829
 20
-96.4499999999999886
 30
0
 11
179.5
 21
-96.4499999999999886
 31
0
  0
LINE
  5
334
330
1C
100
AcDbEntity
  8
B.Cu
  6
CONTINUOUS
100
AcDbLine
 10
179.5
 20
-96.4499999999999886
 30
0
 11
179.5
 21
-96.75
 31
0
  0
LINE
  5
335
330
1C
100
AcDbEntity
  8
B.Cu
  6
CONTINUOUS
100
AcDbLine
 10
178.7999999999999829
 20
-96.25
 30
0
 11
178.7999999999999829
 21
-96.3499999999999943
 31
0
  0
LINE
  5
336
330
1C
100
AcDbEntity
  8
B.Cu
  6
CONTINUOUS
100
AcDbLine
 10
178.7999999999999829
 20
-96.3499999999999943
 30
0
 11
178.6999999999999886
 21
-96.4499999999999886
 31
0
  0
LINE
  5
337
330
1C
100
AcDbEntity
  8
B.Cu
  6
CONTINUOUS
100
AcDbLine
 10
178.6999999999999886
 20
-96.4499999999999886
 30
0
 11
177.6999999999999886
 21
-96.4499999999999886
 31
0
  0
LINE
  5
338
330
1C
100
AcDbEntity
  8
B.Cu
  6
CONTINUOUS
100
AcDbLine
 10
177.6999999999999886
 20
-96.4499999999999886
 30
0
 11
177.5499999999999829
 21
-96.3999999999999915
 31
0
  0
LINE
  5
339
330
1C
100
AcDbEntity
  8
B.Cu
  6
CONTINUOUS
100
AcDbLine
 10
177.5499999999999829
 20
-96.3999999999999915
 30
0
 11
176.7999999999999829
 21
-96.3999999999999915
 31
0
  0
LINE
  5
33A
330
1C
100
AcDbEntity
  8
B.Cu
  6
CONTINUOUS
100
AcDbLine
 10
176.7999999999999829
 20
-96.3999999999999915
 30
0
 11
115.2999999999999972
 21
-96.3999999999999915
 31
0
  0
LINE
  5
33B
330
1C
100
AcDbEntity
  8
B.Cu
  6
CONTINUOUS
100
AcDbLine
 10
115.2999999999999972
 20
-96.3999999999999915
 30
0
 11
115.2804909999999978
 21
-96.3980789999999956
 31
0
  0
LINE
  5
33C
330
1C
100
AcDbEntity
  8
B.Cu
  6
CONTINUOUS
100
AcDbLine
 10
115.2804909999999978
 20
-96.3980789999999956
 30
0
 11
115.2444429999999898
 21
-96.3831469999999939
 31
0
  0
LINE
  5
33D
330
1C
100
AcDbEntity
  8
B.Cu
  6
CONTINUOUS
100
AcDbLine
 10
115.2444429999999898
 20
-96.3831469999999939
 30
0
 11
115.2168530000000004
 21
-96.3555569999999904
 31
0
  0
LINE
  5
33E
330
1C
100
AcDbEntity
  8
B.Cu
  6
CONTINUOUS
100
AcDbLine
 10
115.2168530000000004
 20
-96.3555569999999904
 30
0
 11
115.2019209999999987
 21
-96.3195089999999965
 31
0
  0
LINE
  5
33F
330
1C
100
AcDbEntity
  8
B.Cu
  6
CONTINUOUS
100
AcDbLine
 10
115.2019209999999987
 20
-96.3195089999999965
 30
0
 11
115.2019209999999987
 21
-96.2804909999999978
 31
0
  0
LINE
  5
340
330
1C
100
AcDbEntity
  8
B.Cu
  6
CONTINUOUS
100
AcDbLine
 10
115.2019209999999987
 20
-96.2804909999999978
 30
0
 11
115.2168530000000004
 21
-96.2444429999999898
 31
0
  0
LINE
  5
341
330
1C
100
AcDbEntity
  8
B.Cu
  6
CONTINUOUS
100
AcDbLine
 10
115.2168530000000004
 20
-96.2444429999999898
 30
0
 11
115.2444429999999898
 21
-96.2168530000000004
 31
0
  0
LINE
  5
342
330
1C
100
AcDbEntity
  8
B.Cu
  6
CONTINUOUS
100
AcDbLine
 10
115.2444429999999898
 20
-96.2168530000000004
 30
0
 11
115.2804909999999978
 21
-96.2019209999999987
 31
0
  0
LINE
  5
343
330
1C
100
AcDbEntity
  8
B.Cu
  6
CONTINUOUS
100
AcDbLine
 10
115.2804909999999978
 20
-96.2019209999999987
 30
0
 11
115.2999999999999972
 21
-96.1999999999999886
 31
0
  0
LINE
  5
344
330
1C
100
AcDbEntity
  8
B.Cu
  6
CONTINUOUS
100
AcDbLine
 10
115.2999999999999972
 20
-96.1999999999999886
 30
0
 11
176.9000000000000057
 21
-96.1999999999999886
 31
0
  0
LINE
  5
345
330
1C
100
AcDbEntity
  8
B.Cu
  6
CONTINUOUS
100
AcDbLine
 10
176.9000000000000057
 20
-96.1999999999999886
 30
0
 11
177.5499999999999829
 21
-96.1999999999999886
 31
0
  0
LINE
  5
346
330
1C
100
AcDbEntity
  8
B.Cu
  6
CONTINUOUS
100
AcDbLine
 10
177.5499999999999829
 20
-96.1999999999999886
 30
0
 11
177.6999999999999886
 21
-96.1499999999999915
 31
0
  0
LINE
  5
347
330
1C
100
AcDbEntity
  8
B.Cu
  6
CONTINUOUS
100
AcDbLine
 10
177.6999999999999886
 20
-96.1499999999999915
 30
0
 11
178.6999999999999886
 21
-96.1499999999999915
 31
0
  0
LINE
  5
348
330
1C
100
AcDbEntity
  8
B.Cu
  6
CONTINUOUS
100
AcDbLine
 10
178.6999999999999886
 20
-96.1499999999999915
 30
0
 11
178.7999999999999829
 21
-96.25
 31
0
  0
LINE
  5
349
330
1C
100
AcDbEntity
  8
B.Cu
  6
CONTINUOUS
100
AcDbLine
 10
176.9000000000000057
 20
-95.8499999999999943
 30
0
 11
179.5
 21
-95.8499999999999943
 31
0
  0
LINE
  5
34A
330
1C
100
AcDbEntity
  8
B.Cu
  6
CONTINUOUS
100
AcDbLine
 10
179.5
 20
-95.8499999999999943
 30
0
 11
179.5
 21
-96.1499999999999915
 31
0
  0
LINE
  5
34B
330
1C
100
AcDbEntity
  8
B.Cu
  6
CONTINUOUS
100
AcDbLine
 10
179.5
 20
-96.1499999999999915
 30
0
 11
178.7999999999999829
 21
-96.1499999999999915
 31
0
  0
LINE
  5
34C
330
1C
100
AcDbEntity
  8
B.Cu
  6
CONTINUOUS
100
AcDbLine
 10
178.7999999999999829
 20
-96.1499999999999915
 30
0
 11
178.6999999999999886
 21
-96.0499999999999972
 31
0
  0
LINE
  5
34D
330
1C
100
AcDbEntity
  8
B.Cu
  6
CONTINUOUS
100
AcDbLine
 10
178.6999999999999886
 20
-96.0499999999999972
 30
0
 11
177.6999999999999886
 21
-96.0499999999999972
 31
0
  0
LINE
  5
34E
330
1C
100
AcDbEntity
  8
B.Cu
  6
CONTINUOUS
100
AcDbLine
 10
177.6999999999999886
 20
-96.0499999999999972
 30
0
 11
177.5499999999999829
 21
-96.0999999999999943
 31
0
  0
LINE
  5
34F
330
1C
100
AcDbEntity
  8
B.Cu
  6
CONTINUOUS
100
AcDbLine
 10
177.5499999999999829
 20
-96.0999999999999943
 30
0
 11
176.7999999999999829
 21
-96.0999999999999943
 31
0
  0
LINE
  5
350
330
1C
100
AcDbEntity
  8
B.Cu
  6
CONTINUOUS
100
AcDbLine
 10
176.7999999999999829
 20
-96.0999999999999943
 30
0
 11
114.625
 21
-96.0999999999999943
 31
0
  0
LINE
  5
351
330
1C
100
AcDbEntity
  8
B.Cu
  6
CONTINUOUS
100
AcDbLine
 10
114.625
 20
-96.0999999999999943
 30
0
 11
114.6006139999999931
 21
-96.0975979999999907
 31
0
  0
LINE
  5
352
330
1C
100
AcDbEntity
  8
B.Cu
  6
CONTINUOUS
100
AcDbLine
 10
114.6006139999999931
 20
-96.0975979999999907
 30
0
 11
114.5756140000000016
 21
-96.0975979999999907
 31
0
  0
LINE
  5
353
330
1C
100
AcDbEntity
  8
B.Cu
  6
CONTINUOUS
100
AcDbLine
 10
114.5756140000000016
 20
-96.0975979999999907
 30
0
 11
114.5305539999999951
 21
-96.0789339999999896
 31
0
  0
LINE
  5
354
330
1C
100
AcDbEntity
  8
B.Cu
  6
CONTINUOUS
100
AcDbLine
 10
114.5305539999999951
 20
-96.0789339999999896
 30
0
 11
114.496065999999999
 21
-96.0444459999999935
 31
0
  0
LINE
  5
355
330
1C
100
AcDbEntity
  8
B.Cu
  6
CONTINUOUS
100
AcDbLine
 10
114.496065999999999
 20
-96.0444459999999935
 30
0
 11
114.4774019999999979
 21
-95.9993860000000012
 31
0
  0
LINE
  5
356
330
1C
100
AcDbEntity
  8
B.Cu
  6
CONTINUOUS
100
AcDbLine
 10
114.4774019999999979
 20
-95.9993860000000012
 30
0
 11
114.4774019999999979
 21
-95.9506140000000016
 31
0
  0
LINE
  5
357
330
1C
100
AcDbEntity
  8
B.Cu
  6
CONTINUOUS
100
AcDbLine
 10
114.4774019999999979
 20
-95.9506140000000016
 30
0
 11
114.496065999999999
 21
-95.9055539999999951
 31
0
  0
LINE
  5
358
330
1C
100
AcDbEntity
  8
B.Cu
  6
CONTINUOUS
100
AcDbLine
 10
114.496065999999999
 20
-95.9055539999999951
 30
0
 11
114.5305539999999951
 21
-95.871065999999999
 31
0
  0
LINE
  5
359
330
1C
100
AcDbEntity
  8
B.Cu
  6
CONTINUOUS
100
AcDbLine
 10
114.5305539999999951
 20
-95.871065999999999
 30
0
 11
114.5756140000000016
 21
-95.8524019999999979
 31
0
  0
LINE
  5
35A
330
1C
100
AcDbEntity
  8
B.Cu
  6
CONTINUOUS
100
AcDbLine
 10
114.5756140000000016
 20
-95.8524019999999979
 30
0
 11
114.6006139999999931
 21
-95.8524019999999979
 31
0
  0
LINE
  5
35B
330
1C
100
AcDbEntity
  8
B.Cu
  6
CONTINUOUS
100
AcDbLine
 10
114.6006139999999931
 20
-95.8524019999999979
 30
0
 11
114.625
 21
-95.8499999999999943
 31
0
  0
LINE
  5
35C
330
1C
100
AcDbEntity
  8
B.Cu
  6
CONTINUOUS
100
AcDbLine
 10
114.625
 20
-95.8499999999999943
 30
0
 11
176.9000000000000057
 21
-95.8499999999999943
 31
0
  0
CIRCLE
  5
35D
330
1C
100
AcDbEntity
  8
B.Cu
100
AcDbCircle
 10
114.5999999999999943
 20
-95.9749999999999943
 30
0
 40
0.05
  0
CIRCLE
  5
35E
330
1C
100
AcDbEntity
  8
B.Cu
100
AcDbCircle
 10
115.2999999999999972
 20
-96.2999999999999972
 30
0
 40
0.05
  0
CIRCLE
  5
35F
330
1C
100
AcDbEntity
  8
B.Cu
100
AcDbCircle
 10
114.5999999999999943
 20
-96.5999999999999943
 30
0
 40
0.05
  0
CIRCLE
  5
360
330
1C
100
AcDbEntity
  8
B.Cu
100
AcDbCircle
 10
115.2999999999999972
 20
-96.875
 30
0
 40
0.05
  0
CIRCLE
  5
361
330
1C
100
AcDbEntity
  8
B.Cu
100
AcDbCircle
 10
114.5999999999999943
 20
-97.1999999999999886
 30
0
 40
0.05
  0
CIRCLE
  5
362
330
1C
100
AcDbEntity
  8
B.Cu
100
AcDbCircle
 10
115.2999999999999972
 20
-97.5
 30
0
 40
0.05
  0
CIRCLE
  5
363
330
1C
100
AcDbEntity
  8
B.Cu
100
AcDbCircle
 10
114.5999999999999943
 20
-97.7999999999999972
 30
0
 40
0.05
  0
CIRCLE
  5
364
330
1C
100
AcDbEntity
  8
B.Cu
100
AcDbCircle
 10
115.2999999999999972
 20
-98.0999999999999943
 30
0
 40
0.05
  0
CIRCLE
  5
365
330
1C
100
AcDbEntity
  8
B.Cu
100
AcDbCircle
 10
114.5999999999999943
 20
-98.3999999999999915
 30
0
 40
0.05
  0
CIRCLE
  5
366
330
1C
100
AcDbEntity
  8
B.Cu
100
AcDbCircle
 10
115.2999999999999972
 20
-98.6999999999999886
 30
0
 40
0.05
  0
CIRCLE
  5
367
330
1C
100
AcDbEntity
  8
B.Cu
100
AcDbCircle
 10
114.5999999999999943
 20
-99.
 30
0
 40
0.05
  0
CIRCLE
  5
368
330
1C
100
AcDbEntity
  8
B.Cu
100
AcDbCircle
 10
115.2999999999999972
 20
-99.2999999999999972
 30
0
 40
0.05
  0
CIRCLE
  5
369
330
1C
100
AcDbEntity
  8
B.Cu
100
AcDbCircle
 10
114.5999999999999943
 20
-99.5999999999999943
 30
0
 40
0.05
  0
CIRCLE
  5
36A
330
1C
100
AcDbEntity
  8
B.Cu
100
AcDbCircle
 10
115.2999999999999972
 20
-99.8999999999999915
 30
0
 40
0.05
  0
CIRCLE
  5
36B
330
1C
100
AcDbEntity
  8
B.Cu
100
AcDbCircle
 10
114.5999999999999943
 20
-100.1999999999999886
 30
0
 40
0.05
  0
CIRCLE
  5
36C
330
1C
100
AcDbEntity
  8
B.Cu
100
AcDbCircle
 10
115.2999999999999972
 20
-100.5
 30
0
 40
0.05
  0
CIRCLE
  5
36D
330
1C
100
AcDbEntity
  8
B.Cu
100
AcDbCircle
 10
114.5999999999999943
 20
-100.7999999999999972
 30
0
 40
0.05
  0
CIRCLE
  5
36E
330
1C
100
AcDbEntity
  8
B.Cu
100
AcDbCircle
 10
115.2999999999999972
 20
-101.0999999999999943
 30
0
 40
0.05
  0
CIRCLE
  5
36F
330
1C
100
AcDbEntity
  8
B.Cu
100
AcDbCircle
 10
114.5999999999999943
 20
-101.3999999999999915
 30
0
 40
0.05
  0
CIRCLE
  5
370
330
1C
100
AcDbEntity
  8
B.Cu
100
AcDbCircle
 10
115.2999999999999972
 20
-101.6999999999999886
 30
0
 40
0.05
  0
CIRCLE
  5
371
330
1C
100
AcDbEntity
  8
B.Cu
100
AcDbCircle
 10
114.5999999999999943
 20
-102.
 30
0
 40
0.05
  0
CIRCLE
  5
372
330
1C
100
AcDbEntity
  8
B.Cu
100
AcDbCircle
 10
115.2999999999999972
 20
-102.2999999999999972
 30
0
 40
0.05
  0
CIRCLE
  5
373
330
1C
100
AcDbEntity
  8
B.Cu
100
AcDbCircle
 10
114.5999999999999943
 20
-102.5999999999999943
 30
0
 40
0.05
  0
CIRCLE
  5
374
330
1C
100
AcDbEntity
  8
B.Cu
100
AcDbCircle
 10
115.2999999999999972
 20
-102.8999999999999915
 30
0
 40
0.05
  0
CIRCLE
  5
375
330
1C
100
AcDbEntity
  8
B.Cu
100
AcDbCircle
 10
114.5999999999999943
 20
-103.1999999999999886
 30
0
 40
0.05
  0
CIRCLE
  5
376
330
1C
100
AcDbEntity
  8
B.Cu
100
AcDbCircle
 10
115.2999999999999972
 20
-103.5
 30
0
 40
0.05
  0
CIRCLE
  5
377
330
1C
100
AcDbEntity
  8
B.Cu
100
AcDbCircle
 10
114.5999999999999943
 20
-103.7999999999999972
 30
0
 40
0.05
  0
CIRCLE
  5
378
330
1C
100
AcDbEntity
  8
B.Cu
100
AcDbCircle
 10
115.2999999999999972
 20
-104.0999999999999943
 30
0
 40
0.05
  0
CIRCLE
  5
379
330
1C
100
AcDbEntity
  8
B.Cu
100
AcDbCircle
 10
114.5999999999999943
 20
-104.3999999999999915
 30
0
 40
0.05
  0
CIRCLE
  5
37A
330
1C
100
AcDbEntity
  8
B.Cu
100
AcDbCircle
 10
115.2999999999999972
 20
-104.6999999999999886
 30
0
 40
0.05
  0
CIRCLE
  5
37B
330
1C
100
AcDbEntity
  8
B.Cu
100
AcDbCircle
 10
114.5999999999999943
 20
-105.
 30
0
 40
0.05
  0
CIRCLE
  5
37C
330
1C
100
AcDbEntity
  8
B.Cu
100
AcDbCircle
 10
115.2999999999999972
 20
-105.2999999999999972
 30
0
 40
0.05
  0
CIRCLE
  5
37D
330
1C
100
AcDbEntity
  8
B.Cu
100
AcDbCircle
 10
114.5999999999999943
 20
-105.5999999999999943
 30
0
 40
0.05
  0
CIRCLE
  5
37E
330
1C
100
AcDbEntity
  8
B.Cu
100
AcDbCircle
 10
115.2999999999999972
 20
-105.8999999999999915
 30
0
 40
0.05
  0
CIRCLE
  5
37F
330
1C
100
AcDbEntity
  8
B.Cu
100
AcDbCircle
 10
114.5999999999999943
 20
-106.1999999999999886
 30
0
 40
0.05
  0
CIRCLE
  5
380
330
1C
100
AcDbEntity
  8
B.Cu
100
AcDbCircle
 10
115.2999999999999972
 20
-106.5
 30
0
 40
0.05
  0
CIRCLE
  5
381
330
1C
100
AcDbEntity
  8
B.Cu
100
AcDbCircle
 10
114.5999999999999943
 20
-106.7999999999999972
 30
0
 40
0.05
  0
CIRCLE
  5
382
330
1C
100
AcDbEntity
  8
B.Cu
100
AcDbCircle
 10
115.2999999999999972
 20
-107.0999999999999943
 30
0
 40
0.05
  0
CIRCLE
  5
383
330
1C
100
AcDbEntity
  8
B.Cu
100
AcDbCircle
 10
114.5999999999999943
 20
-107.4249999999999972
 30
0
 40
0.05
  0
CIRCLE
  5
384
330
1C
100
AcDbEntity
  8
B.Cu
100
AcDbCircle
 10
114.5999999999999943
 20
-95.9749999999999943
 30
0
 40
0.05
  0
CIRCLE
  5
385
330
1C
100
AcDbEntity
  8
B.Cu
100
AcDbCircle
 10
115.2999999999999972
 20
-96.2999999999999972
 30
0
 40
0.05
  0
CIRCLE
  5
386
330
1C
100
AcDbEntity
  8
B.Cu
100
AcDbCircle
 10
114.5999999999999943
 20
-96.5999999999999943
 30
0
 40
0.05
  0
CIRCLE
  5
387
330
1C
100
AcDbEntity
  8
B.Cu
100
AcDbCircle
 10
115.2999999999999972
 20
-96.875
 30
0
 40
0.05
  0
CIRCLE
  5
388
330
1C
100
AcDbEntity
  8
B.Cu
100
AcDbCircle
 10
114.5999999999999943
 20
-97.1999999999999886
 30
0
 40
0.05
  0
CIRCLE
  5
389
330
1C
100
AcDbEntity
  8
B.Cu
100
AcDbCircle
 10
115.2999999999999972
 20
-97.5
 30
0
 40
0.05
  0
CIRCLE
  5
38A
330
1C
100
AcDbEntity
  8
B.Cu
100
AcDbCircle
 10
114.5999999999999943
 20
-97.7999999999999972
 30
0
 40
0.05
  0
CIRCLE
  5
38B
330
1C
100
AcDbEntity
  8
B.Cu
100
AcDbCircle
 10
115.2999999999999972
 20
-98.0999999999999943
 30
0
 40
0.05
  0
CIRCLE
  5
38C
330
1C
100
AcDbEntity
  8
B.Cu
100
AcDbCircle
 10
114.5999999999999943
 20
-98.3999999999999915
 30
0
 40
0.05
  0
CIRCLE
  5
38D
330
1C
100
AcDbEntity
  8
B.Cu
100
AcDbCircle
 10
115.2999999999999972
 20
-98.6999999999999886
 30
0
 40
0.05
  0
CIRCLE
  5
38E
330
1C
100
AcDbEntity
  8
B.Cu
100
AcDbCircle
 10
114.5999999999999943
 20
-99.
 30
0
 40
0.05
  0
CIRCLE
  5
38F
330
1C
100
AcDbEntity
  8
B.Cu
100
AcDbCircle
 10
115.2999999999999972
 20
-99.2999999999999972
 30
0
 40
0.05
  0
CIRCLE
  5
390
330
1C
100
AcDbEntity
  8
B.Cu
100
AcDbCircle
 10
114.5999999999999943
 20
-99.5999999999999943
 30
0
 40
0.05
  0
CIRCLE
  5
391
330
1C
100
AcDbEntity
  8
B.Cu
100
AcDbCircle
 10
115.2999999999999972
 20
-99.8999999999999915
 30
0
 40
0.05
  0
CIRCLE
  5
392
330
1C
100
AcDbEntity
  8
B.Cu
100
AcDbCircle
 10
114.5999999999999943
 20
-100.1999999999999886
 30
0
 40
0.05
  0
CIRCLE
  5
393
330
1C
100
AcDbEntity
  8
B.Cu
100
AcDbCircle
 10
115.2999999999999972
 20
-100.5
 30
0
 40
0.05
  0
CIRCLE
  5
394
330
1C
100
AcDbEntity
  8
B.Cu
100
AcDbCircle
 10
114.5999999999999943
 20
-100.7999999999999972
 30
0
 40
0.05
  0
CIRCLE
  5
395
330
1C
100
AcDbEntity
  8
B.Cu
100
AcDbCircle
 10
115.2999999999999972
 20
-101.0999999999999943
 30
0
 40
0.05
  0
CIRCLE
  5
396
330
1C
100
AcDbEntity
  8
B.Cu
100
AcDbCircle
 10
114.5999999999999943
 20
-101.3999999999999915
 30
0
 40
0.05
  0
CIRCLE
  5
397
330
1C
100
AcDbEntity
  8
B.Cu
100
AcDbCircle
 10
115.2999999999999972
 20
-101.6999999999999886
 30
0
 40
0.05
  0
CIRCLE
  5
398
330
1C
100
AcDbEntity
  8
B.Cu
100
AcDbCircle
 10
114.5999999999999943
 20
-102.
 30
0
 40
0.05
  0
CIRCLE
  5
399
330
1C
100
AcDbEntity
  8
B.Cu
100
AcDbCircle
 10
115.2999999999999972
 20
-102.2999999999999972
 30
0
 40
0.05
  0
CIRCLE
  5
39A
330
1C
100
AcDbEntity
  8
B.Cu
100
AcDbCircle
 10
114.5999999999999943
 20
-102.5999999999999943
 30
0
 40
0.05
  0
CIRCLE
  5
39B
330
1C
100
AcDbEntity
  8
B.Cu
100
AcDbCircle
 10
115.2999999999999972
 20
-102.8999999999999915
 30
0
 40
0.05
  0
CIRCLE
  5
39C
330
1C
100
AcDbEntity
  8
B.Cu
100
AcDbCircle
 10
114.5999999999999943
 20
-103.1999999999999886
 30
0
 40
0.05
  0
CIRCLE
  5
39D
330
1C
100
AcDbEntity
  8
B.Cu
100
AcDbCircle
 10
115.2999999999999972
 20
-103.5
 30
0
 40
0.05
  0
CIRCLE
  5
39E
330
1C
100
AcDbEntity
  8
B.Cu
100
AcDbCircle
 10
114.5999999999999943
 20
-103.7999999999999972
 30
0
 40
0.05
  0
CIRCLE
  5
39F
330
1C
100
AcDbEntity
  8
B.Cu
100
AcDbCircle
 10
115.2999999999999972
 20
-104.0999999999999943
 30
0
 40
0.05
  0
CIRCLE
  5
3A0
330
1C
100
AcDbEntity
  8
B.Cu
100
AcDbCircle
 10
114.5999999999999943
 20
-104.3999999999999915
 30
0
 40
0.05
  0
CIRCLE
  5
3A1
330
1C
100
AcDbEntity
  8
B.Cu
100
AcDbCircle
 10
115.2999999999999972
 20
-104.6999999999999886
 30
0
 40
0.05
  0
CIRCLE
  5
3A2
330
1C
100
AcDbEntity
  8
B.Cu
100
AcDbCircle
 10
114.5999999999999943
 20
-105.
 30
0
 40
0.05
  0
CIRCLE
  5
3A3
330
1C
100
AcDbEntity
  8
B.Cu
100
AcDbCircle
 10
115.2999999999999972
 20
-105.2999999999999972
 30
0
 40
0.05
  0
CIRCLE
  5
3A4
330
1C
100
AcDbEntity
  8
B.Cu
100
AcDbCircle
 10
114.5999999999999943
 20
-105.5999999999999943
 30
0
 40
0.05
  0
CIRCLE
  5
3A5
330
1C
100
AcDbEntity
  8
B.Cu
100
AcDbCircle
 10
115.2999999999999972
 20
-105.8999999999999915
 30
0
 40
0.05
  0
CIRCLE
  5
3A6
330
1C
100
AcDbEntity
  8
B.Cu
100
AcDbCircle
 10
114.5999999999999943
 20
-106.1999999999999886
 30
0
 40
0.05
  0
CIRCLE
  5
3A7
330
1C
100
AcDbEntity
  8
B.Cu
100
AcDbCircle
 10
115.2999999999999972
 20
-106.5
 30
0
 40
0.05
  0
CIRCLE
  5
3A8
330
1C
100
AcDbEntity
  8
B.Cu
100
AcDbCircle
 10
114.5999999999999943
 20
-106.7999999999999972
 30
0
 40
0.05
  0
CIRCLE
  5
3A9
330
1C
100
AcDbEntity
  8
B.Cu
100
AcDbCircle
 10
115.2999999999999972
 20
-107.0999999999999943
 30
0
 40
0.05
  0
CIRCLE
  5
3AA
330
1C
100
AcDbEntity
  8
B.Cu
100
AcDbCircle
 10
114.5999999999999943
 20
-107.4249999999999972
 30
0
 40
0.05
  0
LINE
  5
3AB
330
1C
100
AcDbEntity
  8
Edge.Cuts
  6
CONTINUOUS
100
AcDbLine
 10
172.7012279999999862
 20
-94.6752439999999922
 30
0
 11
172.7017720000000054
 21
-94.6750629999999944
 31
0
  0
LINE
  5
3AC
330
1C
100
AcDbEntity
  8
Edge.Cuts
  6
CONTINUOUS
100
AcDbLine
 10
172.7017720000000054
 20
-94.6750629999999944
 30
0
 11
172.7056359999999984
 21
-94.6761209999999949
 31
0
  0
LINE
  5
3AD
330
1C
100
AcDbEntity
  8
Edge.Cuts
  6
CONTINUOUS
100
AcDbLine
 10
172.7056359999999984
 20
-94.6761209999999949
 30
0
 11
172.7095669999999927
 21
-94.6769029999999958
 31
0
  0
LINE
  5
3AE
330
1C
100
AcDbEntity
  8
Edge.Cuts
  6
CONTINUOUS
100
AcDbLine
 10
172.7095669999999927
 20
-94.6769029999999958
 30
0
 11
172.7099719999999934
 21
-94.6773079999999965
 31
0
  0
LINE
  5
3AF
330
1C
100
AcDbEntity
  8
Edge.Cuts
  6
CONTINUOUS
100
AcDbLine
 10
172.7099719999999934
 20
-94.6773079999999965
 30
0
 11
172.7111799999999846
 21
-94.6776389999999992
 31
0
  0
LINE
  5
3B0
330
1C
100
AcDbEntity
  8
Edge.Cuts
  6
CONTINUOUS
100
AcDbLine
 10
172.7111799999999846
 20
-94.6776389999999992
 30
0
 11
174.7059019999999805
 21
-95.6749999999999972
 31
0
  0
LINE
  5
3B1
330
1C
100
AcDbEntity
  8
Edge.Cuts
  6
CONTINUOUS
100
AcDbLine
 10
174.7059019999999805
 20
-95.6749999999999972
 30
0
 11
176.5999999999999943
 21
-95.6749999999999972
 31
0
  0
LINE
  5
3B2
330
1C
100
AcDbEntity
  8
Edge.Cuts
  6
CONTINUOUS
100
AcDbLine
 10
176.5999999999999943
 20
-95.6749999999999972
 30
0
 11
179.5999999999999943
 21
-95.6749999999999972
 31
0
  0
LINE
  5
3B3
330
1C
100
AcDbEntity
  8
Edge.Cuts
  6
CONTINUOUS
100
AcDbLine
 10
179.5999999999999943
 20
-95.6749999999999972
 30
0
 11
179.6001119999999958
 21
-95.6750219999999985
 31
0
  0
LINE
  5
3B4
330
1C
100
AcDbEntity
  8
Edge.Cuts
  6
CONTINUOUS
100
AcDbLine
 10
179.6001119999999958
 20
-95.6750219999999985
 30
0
 11
179.6001799999999946
 21
-95.6750009999999946
 31
0
  0
LINE
  5
3B5
330
1C
100
AcDbEntity
  8
Edge.Cuts
  6
CONTINUOUS
100
AcDbLine
 10
179.6001799999999946
 20
-95.6750009999999946
 30
0
 11
179.6694579999999917
 21
-95.6863829999999922
 31
0
  0
LINE
  5
3B6
330
1C
100
AcDbEntity
  8
Edge.Cuts
  6
CONTINUOUS
100
AcDbLine
 10
179.6694579999999917
 20
-95.6863829999999922
 30
0
 11
179.7319200000000023
 21
-95.718435999999997
 31
0
  0
LINE
  5
3B7
330
1C
100
AcDbEntity
  8
Edge.Cuts
  6
CONTINUOUS
100
AcDbLine
 10
179.7319200000000023
 20
-95.718435999999997
 30
0
 11
179.781564000000003
 21
-95.7680799999999977
 31
0
  0
LINE
  5
3B8
330
1C
100
AcDbEntity
  8
Edge.Cuts
  6
CONTINUOUS
100
AcDbLine
 10
179.781564000000003
 20
-95.7680799999999977
 30
0
 11
179.8136169999999936
 21
-95.8305419999999941
 31
0
  0
LINE
  5
3B9
330
1C
100
AcDbEntity
  8
Edge.Cuts
  6
CONTINUOUS
100
AcDbLine
 10
179.8136169999999936
 20
-95.8305419999999941
 30
0
 11
179.8249989999999912
 21
-95.8998199999999912
 31
0
  0
LINE
  5
3BA
330
1C
100
AcDbEntity
  8
Edge.Cuts
  6
CONTINUOUS
100
AcDbLine
 10
179.8249989999999912
 20
-95.8998199999999912
 30
0
 11
179.8249769999999899
 21
-95.8998869999999926
 31
0
  0
LINE
  5
3BB
330
1C
100
AcDbEntity
  8
Edge.Cuts
  6
CONTINUOUS
100
AcDbLine
 10
179.8249769999999899
 20
-95.8998869999999926
 30
0
 11
179.8249999999999886
 21
-95.8999999999999915
 31
0
  0
LINE
  5
3BC
330
1C
100
AcDbEntity
  8
Edge.Cuts
  6
CONTINUOUS
100
AcDbLine
 10
179.8249999999999886
 20
-95.8999999999999915
 30
0
 11
179.8249999999999886
 21
-107.5
 31
0
  0
LINE
  5
3BD
330
1C
100
AcDbEntity
  8
Edge.Cuts
  6
CONTINUOUS
100
AcDbLine
 10
179.8249999999999886
 20
-107.5
 30
0
 11
179.8249769999999899
 21
-107.5001120000000014
 31
0
  0
LINE
  5
3BE
330
1C
100
AcDbEntity
  8
Edge.Cuts
  6
CONTINUOUS
100
AcDbLine
 10
179.8249769999999899
 20
-107.5001120000000014
 30
0
 11
179.8249989999999912
 21
-107.5001800000000003
 31
0
  0
LINE
  5
3BF
330
1C
100
AcDbEntity
  8
Edge.Cuts
  6
CONTINUOUS
100
AcDbLine
 10
179.8249989999999912
 20
-107.5001800000000003
 30
0
 11
179.8136169999999936
 21
-107.5694579999999974
 31
0
  0
LINE
  5
3C0
330
1C
100
AcDbEntity
  8
Edge.Cuts
  6
CONTINUOUS
100
AcDbLine
 10
179.8136169999999936
 20
-107.5694579999999974
 30
0
 11
179.781564000000003
 21
-107.6319199999999938
 31
0
  0
LINE
  5
3C1
330
1C
100
AcDbEntity
  8
Edge.Cuts
  6
CONTINUOUS
100
AcDbLine
 10
179.781564000000003
 20
-107.6319199999999938
 30
0
 11
179.7319200000000023
 21
-107.6815639999999945
 31
0
  0
LINE
  5
3C2
330
1C
100
AcDbEntity
  8
Edge.Cuts
  6
CONTINUOUS
100
AcDbLine
 10
179.7319200000000023
 20
-107.6815639999999945
 30
0
 11
179.6694579999999917
 21
-107.7136169999999993
 31
0
  0
LINE
  5
3C3
330
1C
100
AcDbEntity
  8
Edge.Cuts
  6
CONTINUOUS
100
AcDbLine
 10
179.6694579999999917
 20
-107.7136169999999993
 30
0
 11
179.6001799999999946
 21
-107.7249989999999968
 31
0
  0
LINE
  5
3C4
330
1C
100
AcDbEntity
  8
Edge.Cuts
  6
CONTINUOUS
100
AcDbLine
 10
179.6001799999999946
 20
-107.7249989999999968
 30
0
 11
179.6001119999999958
 21
-107.7249769999999955
 31
0
  0
LINE
  5
3C5
330
1C
100
AcDbEntity
  8
Edge.Cuts
  6
CONTINUOUS
100
AcDbLine
 10
179.6001119999999958
 20
-107.7249769999999955
 30
0
 11
179.5999999999999943
 21
-107.7249999999999943
 31
0
  0
LINE
  5
3C6
330
1C
100
AcDbEntity
  8
Edge.Cuts
  6
CONTINUOUS
100
AcDbLine
 10
179.5999999999999943
 20
-107.7249999999999943
 30
0
 11
176.5999999999999943
 21
-107.7249999999999943
 31
0
  0
LINE
  5
3C7
330
1C
100
AcDbEntity
  8
Edge.Cuts
  6
CONTINUOUS
100
AcDbLine
 10
176.5999999999999943
 20
-107.7249999999999943
 30
0
 11
174.7059019999999805
 21
-107.7249999999999943
 31
0
  0
LINE
  5
3C8
330
1C
100
AcDbEntity
  8
Edge.Cuts
  6
CONTINUOUS
100
AcDbLine
 10
174.7059019999999805
 20
-107.7249999999999943
 30
0
 11
172.7111799999999846
 21
-108.7223609999999923
 31
0
  0
LINE
  5
3C9
330
1C
100
AcDbEntity
  8
Edge.Cuts
  6
CONTINUOUS
100
AcDbLine
 10
172.7111799999999846
 20
-108.7223609999999923
 30
0
 11
172.7099719999999934
 21
-108.7226909999999975
 31
0
  0
LINE
  5
3CA
330
1C
100
AcDbEntity
  8
Edge.Cuts
  6
CONTINUOUS
100
AcDbLine
 10
172.7099719999999934
 20
-108.7226909999999975
 30
0
 11
172.7095669999999927
 21
-108.7230969999999957
 31
0
  0
LINE
  5
3CB
330
1C
100
AcDbEntity
  8
Edge.Cuts
  6
CONTINUOUS
100
AcDbLine
 10
172.7095669999999927
 20
-108.7230969999999957
 30
0
 11
172.7056359999999984
 21
-108.7238779999999991
 31
0
  0
LINE
  5
3CC
330
1C
100
AcDbEntity
  8
Edge.Cuts
  6
CONTINUOUS
100
AcDbLine
 10
172.7056359999999984
 20
-108.7238779999999991
 30
0
 11
172.7017720000000054
 21
-108.7249369999999971
 31
0
  0
LINE
  5
3CD
330
1C
100
AcDbEntity
  8
Edge.Cuts
  6
CONTINUOUS
100
AcDbLine
 10
172.7017720000000054
 20
-108.7249369999999971
 30
0
 11
172.7012279999999862
 21
-108.7247550000000018
 31
0
  0
LINE
  5
3CE
330
1C
100
AcDbEntity
  8
Edge.Cuts
  6
CONTINUOUS
100
AcDbLine
 10
172.7012279999999862
 20
-108.7247550000000018
 30
0
 11
172.6999999999999886
 21
-108.7249999999999943
 31
0
  0
LINE
  5
3CF
330
1C
100
AcDbEntity
  8
Edge.Cuts
  6
CONTINUOUS
100
AcDbLine
 10
172.6999999999999886
 20
-108.7249999999999943
 30
0
 11
104.6999999999999886
 21
-108.7249999999999943
 31
0
  0
LINE
  5
3D0
330
1C
100
AcDbEntity
  8
Edge.Cuts
  6
CONTINUOUS
100
AcDbLine
 10
104.6999999999999886
 20
-108.7249999999999943
 30
0
 11
104.6904329999999987
 21
-108.7230969999999957
 31
0
  0
LINE
  5
3D1
330
1C
100
AcDbEntity
  8
Edge.Cuts
  6
CONTINUOUS
100
AcDbLine
 10
104.6904329999999987
 20
-108.7230969999999957
 30
0
 11
104.6769029999999958
 21
-108.7095669999999927
 31
0
  0
LINE
  5
3D2
330
1C
100
AcDbEntity
  8
Edge.Cuts
  6
CONTINUOUS
100
AcDbLine
 10
104.6769029999999958
 20
-108.7095669999999927
 30
0
 11
104.6749999999999972
 21
-108.6999999999999886
 31
0
  0
LINE
  5
3D3
330
1C
100
AcDbEntity
  8
Edge.Cuts
  6
CONTINUOUS
100
AcDbLine
 10
104.6749999999999972
 20
-108.6999999999999886
 30
0
 11
104.6749999999999972
 21
-94.6999999999999886
 31
0
  0
LINE
  5
3D4
330
1C
100
AcDbEntity
  8
Edge.Cuts
  6
CONTINUOUS
100
AcDbLine
 10
104.6749999999999972
 20
-94.6999999999999886
 30
0
 11
104.6769029999999958
 21
-94.6904329999999987
 31
0
  0
LINE
  5
3D5
330
1C
100
AcDbEntity
  8
Edge.Cuts
  6
CONTINUOUS
100
AcDbLine
 10
104.6769029999999958
 20
-94.6904329999999987
 30
0
 11
104.6904329999999987
 21
-94.6769029999999958
 31
0
  0
LINE
  5
3D6
330
1C
100
AcDbEntity
  8
Edge.Cuts
  6
CONTINUOUS
100
AcDbLine
 10
104.6904329999999987
 20
-94.6769029999999958
 30
0
 11
104.6999999999999886
 21
-94.6749999999999972
 31
0
  0
LINE
  5
3D7
330
1C
100
AcDbEntity
  8
Edge.Cuts
  6
CONTINUOUS
100
AcDbLine
 10
104.6999999999999886
 20
-94.6749999999999972
 30
0
 11
172.6999999999999886
 21
-94.6749999999999972
 31
0
  0
LINE
  5
3D8
330
1C
100
AcDbEntity
  8
Edge.Cuts
  6
CONTINUOUS
100
AcDbLine
 10
172.6999999999999886
 20
-94.6749999999999972
 30
0
 11
172.7012279999999862
 21
-94.6752439999999922
 31
0
  0
LINE
  5
3D9
330
1C
100
AcDbEntity
  8
Edge.Cuts
  6
CONTINUOUS
100
AcDbLine
 10
104.7249999999999943
 20
-94.7249999999999943
 30
0
 11
104.7249999999999943
 21
-108.6749999999999972
 31
0
  0
LINE
  5
3DA
330
1C
100
AcDbEntity
  8
Edge.Cuts
  6
CONTINUOUS
100
AcDbLine
 10
104.7249999999999943
 20
-108.6749999999999972
 30
0
 11
172.6940979999999968
 21
-108.6749999999999972
 31
0
  0
LINE
  5
3DB
330
1C
100
AcDbEntity
  8
Edge.Cuts
  6
CONTINUOUS
100
AcDbLine
 10
172.6940979999999968
 20
-108.6749999999999972
 30
0
 11
174.6888199999999927
 21
-107.6776389999999992
 31
0
  0
LINE
  5
3DC
330
1C
100
AcDbEntity
  8
Edge.Cuts
  6
CONTINUOUS
100
AcDbLine
 10
174.6888199999999927
 20
-107.6776389999999992
 30
0
 11
174.6900269999999864
 21
-107.6773079999999965
 31
0
  0
LINE
  5
3DD
330
1C
100
AcDbEntity
  8
Edge.Cuts
  6
CONTINUOUS
100
AcDbLine
 10
174.6900269999999864
 20
-107.6773079999999965
 30
0
 11
174.6904329999999845
 21
-107.6769029999999958
 31
0
  0
LINE
  5
3DE
330
1C
100
AcDbEntity
  8
Edge.Cuts
  6
CONTINUOUS
100
AcDbLine
 10
174.6904329999999845
 20
-107.6769029999999958
 30
0
 11
174.6943629999999814
 21
-107.6761209999999949
 31
0
  0
LINE
  5
3DF
330
1C
100
AcDbEntity
  8
Edge.Cuts
  6
CONTINUOUS
100
AcDbLine
 10
174.6943629999999814
 20
-107.6761209999999949
 30
0
 11
174.6982280000000003
 21
-107.6750629999999944
 31
0
  0
LINE
  5
3E0
330
1C
100
AcDbEntity
  8
Edge.Cuts
  6
CONTINUOUS
100
AcDbLine
 10
174.6982280000000003
 20
-107.6750629999999944
 30
0
 11
174.6987709999999936
 21
-107.6752439999999922
 31
0
  0
LINE
  5
3E1
330
1C
100
AcDbEntity
  8
Edge.Cuts
  6
CONTINUOUS
100
AcDbLine
 10
174.6987709999999936
 20
-107.6752439999999922
 30
0
 11
174.6999999999999886
 21
-107.6749999999999972
 31
0
  0
LINE
  5
3E2
330
1C
100
AcDbEntity
  8
Edge.Cuts
  6
CONTINUOUS
100
AcDbLine
 10
174.6999999999999886
 20
-107.6749999999999972
 30
0
 11
176.5999999999999943
 21
-107.6749999999999972
 31
0
  0
LINE
  5
3E3
330
1C
100
AcDbEntity
  8
Edge.Cuts
  6
CONTINUOUS
100
AcDbLine
 10
176.5999999999999943
 20
-107.6749999999999972
 30
0
 11
179.5999999999999943
 21
-107.6749999999999972
 31
0
  0
LINE
  5
3E4
330
1C
100
AcDbEntity
  8
Edge.Cuts
  6
CONTINUOUS
100
AcDbLine
 10
179.5999999999999943
 20
-107.6749999999999972
 30
0
 11
179.6346010000000035
 21
-107.6748130000000003
 31
0
  0
LINE
  5
3E5
330
1C
100
AcDbEntity
  8
Edge.Cuts
  6
CONTINUOUS
100
AcDbLine
 10
179.6346010000000035
 20
-107.6748130000000003
 30
0
 11
179.6987729999999885
 21
-107.6479609999999951
 31
0
  0
LINE
  5
3E6
330
1C
100
AcDbEntity
  8
Edge.Cuts
  6
CONTINUOUS
100
AcDbLine
 10
179.6987729999999885
 20
-107.6479609999999951
 30
0
 11
179.7479610000000037
 21
-107.5987729999999942
 31
0
  0
LINE
  5
3E7
330
1C
100
AcDbEntity
  8
Edge.Cuts
  6
CONTINUOUS
100
AcDbLine
 10
179.7479610000000037
 20
-107.5987729999999942
 30
0
 11
179.7748129999999946
 21
-107.534600999999995
 31
0
  0
LINE
  5
3E8
330
1C
100
AcDbEntity
  8
Edge.Cuts
  6
CONTINUOUS
100
AcDbLine
 10
179.7748129999999946
 20
-107.534600999999995
 30
0
 11
179.7750000000000057
 21
-107.5
 31
0
  0
LINE
  5
3E9
330
1C
100
AcDbEntity
  8
Edge.Cuts
  6
CONTINUOUS
100
AcDbLine
 10
179.7750000000000057
 20
-107.5
 30
0
 11
179.7750000000000057
 21
-95.8999999999999915
 31
0
  0
LINE
  5
3EA
330
1C
100
AcDbEntity
  8
Edge.Cuts
  6
CONTINUOUS
100
AcDbLine
 10
179.7750000000000057
 20
-95.8999999999999915
 30
0
 11
179.7750000000000057
 21
-95.899998999999994
 31
0
  0
LINE
  5
3EB
330
1C
100
AcDbEntity
  8
Edge.Cuts
  6
CONTINUOUS
100
AcDbLine
 10
179.7750000000000057
 20
-95.899998999999994
 30
0
 11
179.7748129999999946
 21
-95.8653989999999965
 31
0
  0
LINE
  5
3EC
330
1C
100
AcDbEntity
  8
Edge.Cuts
  6
CONTINUOUS
100
AcDbLine
 10
179.7748129999999946
 20
-95.8653989999999965
 30
0
 11
179.7479610000000037
 21
-95.8012269999999972
 31
0
  0
LINE
  5
3ED
330
1C
100
AcDbEntity
  8
Edge.Cuts
  6
CONTINUOUS
100
AcDbLine
 10
179.7479610000000037
 20
-95.8012269999999972
 30
0
 11
179.6987729999999885
 21
-95.7520389999999963
 31
0
  0
LINE
  5
3EE
330
1C
100
AcDbEntity
  8
Edge.Cuts
  6
CONTINUOUS
100
AcDbLine
 10
179.6987729999999885
 20
-95.7520389999999963
 30
0
 11
179.6346010000000035
 21
-95.7251869999999911
 31
0
  0
LINE
  5
3EF
330
1C
100
AcDbEntity
  8
Edge.Cuts
  6
CONTINUOUS
100
AcDbLine
 10
179.6346010000000035
 20
-95.7251869999999911
 30
0
 11
179.5999999999999943
 21
-95.7249989999999968
 31
0
  0
LINE
  5
3F0
330
1C
100
AcDbEntity
  8
Edge.Cuts
  6
CONTINUOUS
100
AcDbLine
 10
179.5999999999999943
 20
-95.7249989999999968
 30
0
 11
179.5999999999999943
 21
-95.7249999999999943
 31
0
  0
LINE
  5
3F1
330
1C
100
AcDbEntity
  8
Edge.Cuts
  6
CONTINUOUS
100
AcDbLine
 10
179.5999999999999943
 20
-95.7249999999999943
 30
0
 11
176.5999999999999943
 21
-95.7249999999999943
 31
0
  0
LINE
  5
3F2
330
1C
100
AcDbEntity
  8
Edge.Cuts
  6
CONTINUOUS
100
AcDbLine
 10
176.5999999999999943
 20
-95.7249999999999943
 30
0
 11
174.6999999999999886
 21
-95.7249999999999943
 31
0
  0
LINE
  5
3F3
330
1C
100
AcDbEntity
  8
Edge.Cuts
  6
CONTINUOUS
100
AcDbLine
 10
174.6999999999999886
 20
-95.7249999999999943
 30
0
 11
174.6987709999999936
 21
-95.7247550000000018
 31
0
  0
LINE
  5
3F4
330
1C
100
AcDbEntity
  8
Edge.Cuts
  6
CONTINUOUS
100
AcDbLine
 10
174.6987709999999936
 20
-95.7247550000000018
 30
0
 11
174.6982280000000003
 21
-95.7249369999999971
 31
0
  0
LINE
  5
3F5
330
1C
100
AcDbEntity
  8
Edge.Cuts
  6
CONTINUOUS
100
AcDbLine
 10
174.6982280000000003
 20
-95.7249369999999971
 30
0
 11
174.6943629999999814
 21
-95.7238779999999991
 31
0
  0
LINE
  5
3F6
330
1C
100
AcDbEntity
  8
Edge.Cuts
  6
CONTINUOUS
100
AcDbLine
 10
174.6943629999999814
 20
-95.7238779999999991
 30
0
 11
174.6904329999999845
 21
-95.7230969999999957
 31
0
  0
LINE
  5
3F7
330
1C
100
AcDbEntity
  8
Edge.Cuts
  6
CONTINUOUS
100
AcDbLine
 10
174.6904329999999845
 20
-95.7230969999999957
 30
0
 11
174.6900269999999864
 21
-95.7226909999999975
 31
0
  0
LINE
  5
3F8
330
1C
100
AcDbEntity
  8
Edge.Cuts
  6
CONTINUOUS
100
AcDbLine
 10
174.6900269999999864
 20
-95.7226909999999975
 30
0
 11
174.6888199999999927
 21
-95.7223609999999923
 31
0
  0
LINE
  5
3F9
330
1C
100
AcDbEntity
  8
Edge.Cuts
  6
CONTINUOUS
100
AcDbLine
 10
174.6888199999999927
 20
-95.7223609999999923
 30
0
 11
172.6940979999999968
 21
-94.7249999999999943
 31
0
  0
LINE
  5
3FA
330
1C
100
AcDbEntity
  8
Edge.Cuts
  6
CONTINUOUS
100
AcDbLine
 10
172.6940979999999968
 20
-94.7249999999999943
 30
0
 11
104.7249999999999943
 21
-94.7249999999999943
 31
0
  0
LINE
  5
3FB
330
1C
100
AcDbEntity
  8
B.Mask
  6
CONTINUOUS
100
AcDbLine
 10
179.8019129999999848
 20
-95.6953809999999976
 30
0
 11
179.8046190000000024
 21
-95.698087000000001
 31
0
  0
LINE
  5
3FC
330
1C
100
AcDbEntity
  8
B.Mask
  6
CONTINUOUS
100
AcDbLine
 10
179.8046190000000024
 20
-95.698087000000001
 30
0
 11
179.8049999999999784
 21
-95.6999999999999886
 31
0
  0
LINE
  5
3FD
330
1C
100
AcDbEntity
  8
B.Mask
  6
CONTINUOUS
100
AcDbLine
 10
179.8049999999999784
 20
-95.6999999999999886
 30
0
 11
179.8049999999999784
 21
-107.6999999999999886
 31
0
  0
LINE
  5
3FE
330
1C
100
AcDbEntity
  8
B.Mask
  6
CONTINUOUS
100
AcDbLine
 10
179.8049999999999784
 20
-107.6999999999999886
 30
0
 11
179.8046190000000024
 21
-107.7019129999999905
 31
0
  0
LINE
  5
3FF
330
1C
100
AcDbEntity
  8
B.Mask
  6
CONTINUOUS
100
AcDbLine
 10
179.8046190000000024
 20
-107.7019129999999905
 30
0
 11
179.8019129999999848
 21
-107.7046189999999939
 31
0
  0
LINE
  5
400
330
1C
100
AcDbEntity
  8
B.Mask
  6
CONTINUOUS
100
AcDbLine
 10
179.8019129999999848
 20
-107.7046189999999939
 30
0
 11
179.7999999999999829
 21
-107.7049999999999983
 31
0
  0
LINE
  5
401
330
1C
100
AcDbEntity
  8
B.Mask
  6
CONTINUOUS
100
AcDbLine
 10
179.7999999999999829
 20
-107.7049999999999983
 30
0
 11
177.2999999999999829
 21
-107.7049999999999983
 31
0
  0
LINE
  5
402
330
1C
100
AcDbEntity
  8
B.Mask
  6
CONTINUOUS
100
AcDbLine
 10
177.2999999999999829
 20
-107.7049999999999983
 30
0
 11
177.2980869999999811
 21
-107.7046189999999939
 31
0
  0
LINE
  5
403
330
1C
100
AcDbEntity
  8
B.Mask
  6
CONTINUOUS
100
AcDbLine
 10
177.2980869999999811
 20
-107.7046189999999939
 30
0
 11
177.2953809999999919
 21
-107.7019129999999905
 31
0
  0
LINE
  5
404
330
1C
100
AcDbEntity
  8
B.Mask
  6
CONTINUOUS
100
AcDbLine
 10
177.2953809999999919
 20
-107.7019129999999905
 30
0
 11
177.2949999999999875
 21
-107.6999999999999886
 31
0
  0
LINE
  5
405
330
1C
100
AcDbEntity
  8
B.Mask
  6
CONTINUOUS
100
AcDbLine
 10
177.2949999999999875
 20
-107.6999999999999886
 30
0
 11
177.2949999999999875
 21
-95.6999999999999886
 31
0
  0
LINE
  5
406
330
1C
100
AcDbEntity
  8
B.Mask
  6
CONTINUOUS
100
AcDbLine
 10
177.2949999999999875
 20
-95.6999999999999886
 30
0
 11
177.2953809999999919
 21
-95.698087000000001
 31
0
  0
LINE
  5
407
330
1C
100
AcDbEntity
  8
B.Mask
  6
CONTINUOUS
100
AcDbLine
 10
177.2953809999999919
 20
-95.698087000000001
 30
0
 11
177.2980869999999811
 21
-95.6953809999999976
 31
0
  0
LINE
  5
408
330
1C
100
AcDbEntity
  8
B.Mask
  6
CONTINUOUS
100
AcDbLine
 10
177.2980869999999811
 20
-95.6953809999999976
 30
0
 11
177.2999999999999829
 21
-95.6949999999999932
 31
0
  0
LINE
  5
409
330
1C
100
AcDbEntity
  8
B.Mask
  6
CONTINUOUS
100
AcDbLine
 10
177.2999999999999829
 20
-95.6949999999999932
 30
0
 11
179.7999999999999829
 21
-95.6949999999999932
 31
0
  0
LINE
  5
40A
330
1C
100
AcDbEntity
  8
B.Mask
  6
CONTINUOUS
100
AcDbLine
 10
179.7999999999999829
 20
-95.6949999999999932
 30
0
 11
179.8019129999999848
 21
-95.6953809999999976
 31
0
  0
LINE
  5
40B
330
1C
100
AcDbEntity
  8
B.Mask
  6
CONTINUOUS
100
AcDbLine
 10
177.3049999999999784
 20
-95.7049999999999983
 30
0
 11
177.3049999999999784
 21
-107.6949999999999932
 31
0
  0
LINE
  5
40C
330
1C
100
AcDbEntity
  8
B.Mask
  6
CONTINUOUS
100
AcDbLine
 10
177.3049999999999784
 20
-107.6949999999999932
 30
0
 11
179.7949999999999875
 21
-107.6949999999999932
 31
0
  0
LINE
  5
40D
330
1C
100
AcDbEntity
  8
B.Mask
  6
CONTINUOUS
100
AcDbLine
 10
179.7949999999999875
 20
-107.6949999999999932
 30
0
 11
179.7949999999999875
 21
-95.7049999999999983
 31
0
  0
LINE
  5
40E
330
1C
100
AcDbEntity
  8
B.Mask
  6
CONTINUOUS
100
AcDbLine
 10
179.7949999999999875
 20
-95.7049999999999983
 30
0
 11
177.3049999999999784
 21
-95.7049999999999983
 31
0
  0
ENDSEC
  0
SECTION
  2
OBJECTS
  0
DICTIONARY
  5
22
330
0
100
AcDbDictionary
281
1
  3
ACAD_GROUP
350
40F
  3
ACAD_LAYOUT
350
23
  3
ACAD_PLOTSTYLENAME
350
11
  0
DICTIONARY
  5
40F
330
22
100
AcDbDictionary
281
1
  0
ACDBDICTIONARYWDFLT
  5
11
330
22
100
AcDbDictionary
281
1
  3
Normal
350
10
100
AcDbDictionaryWithDefault
340
10
  0
ACDBPLACEHOLDER
  5
10
330
11
  0
DICTIONARY
  5
23
330
22
100
AcDbDictionary
281
1
  3
Model
350
1F
  3
Layout1
350
20
  3
Layout2
350
21
  0
LAYOUT
  5
1F
330
23
100
AcDbPlotSettings
  1

  2
none_device
  4
A3
  6

 40
0.0
 41
0.0
 42
0.0
 43
0.0
 44
420.0
 45
297.0
 46
0.0
 47
0.0
 48
0.0
 49
0.0
140
0.0
141
0.0
142
1.0
143
1.0
 70
1024
 72
1
 73
0
 74
5
  7

 75
16
 76
0
 77
2
 78
300
147
1.0
148
0.0
149
0.0
100
AcDbLayout
  1
Model
 70
1
 71
0
 10
0.0
 20
0.0
 11
420.0
 21
297.0
 12
0.0
 22
0.0
 32
0.0
 14
1e+20
 24
1e+20
 34
1e+20
 15
-1e+20
 25
-1e+20
 35
-1e+20
146
0.0
 13
0.0
 23
0.0
 33
0.0
 16
1.0
 26
0.0
 36
0.0
 17
0.0
 27
1.0
 37
0.0
 76
0
330
1C
  0
LAYOUT
  5
20
330
23
100
AcDbPlotSettings
  1

  2
none_device
  4
A3
  6

 40
0.0
 41
0.0
 42
0.0
 43
0.0
 44
420.0
 45
297.0
 46
0.0
 47
0.0
 48
0.0
 49
0.0
140
0.0
141
0.0
142
1.0
143
1.0
 70
0
 72
1
 73
0
 74
5
  7

 75
16
 76
0
 77
2
 78
300
147
1.0
148
0.0
149
0.0
100
AcDbLayout
  1
Layout1
 70
1
 71
1
 10
0.0
 20
0.0
 11
420.0
 21
297.0
 12
0.0
 22
0.0
 32
0.0
 14
1e+20
 24
1e+20
 34
1e+20
 15
-1e+20
 25
-1e+20
 35
-1e+20
146
0.0
 13
0.0
 23
0.0
 33
0.0
 16
1.0
 26
0.0
 36
0.0
 17
0.0
 27
1.0
 37
0.0
 76
0
330
1D
  0
LAYOUT
  5
21
330
23
100
AcDbPlotSettings
  1

  2
none_device
  4
A3
  6

 40
0.0
 41
0.0
 42
0.0
 43
0.0
 44
420.0
 45
297.0
 46
0.0
 47
0.0
 48
0.0
 49
0.0
140
0.0
141
0.0
142
1.0
143
1.0
 70
0
 72
1
 73
0
 74
5
  7

 75
16
 76
0
 77
2
 78
300
147
1.0
148
0.0
149
0.0
100
AcDbLayout
  1
Layout2
 70
1
 71
2
 10
0.0
 20
0.0
 11
420.0
 21
297.0
 12
0.0
 22
0.0
 32
0.0
 14
1e+20
 24
1e+20
 34
1e+20
 15
-1e+20
 25
-1e+20
 35
-1e+20
146
0.0
 13
0.0
 23
0.0
 33
0.0
 16
1.0
 26
0.0
 36
0.0
 17
0.0
 27
1.0
 37
0.0
 76
0
330
1E
  0
ENDSEC
  0
EOF
