%TF.GenerationSoftware,KiCad,Pcbnew,10.0.5*%
%TF.CreationDate,2026-07-28T17:41:11-05:00*%
%TF.ProjectId,PelletPirate_V4,50656c6c-6574-4506-9972-6174655f5634,rev?*%
%TF.SameCoordinates,Original*%
%TF.FileFunction,Paste,Bot*%
%TF.FilePolarity,Positive*%
%FSLAX46Y46*%
G04 Gerber Fmt 4.6, Leading zero omitted, Abs format (unit mm)*
G04 Created by KiCad (PCBNEW 10.0.5) date 2026-07-28 17:41:11*
%MOMM*%
%LPD*%
G01*
G04 APERTURE LIST*
G04 Aperture macros list*
%AMRoundRect*
0 Rectangle with rounded corners*
0 $1 Rounding radius*
0 $2 $3 $4 $5 $6 $7 $8 $9 X,Y pos of 4 corners*
0 Add a 4 corners polygon primitive as box body*
4,1,4,$2,$3,$4,$5,$6,$7,$8,$9,$2,$3,0*
0 Add four circle primitives for the rounded corners*
1,1,$1+$1,$2,$3*
1,1,$1+$1,$4,$5*
1,1,$1+$1,$6,$7*
1,1,$1+$1,$8,$9*
0 Add four rect primitives between the rounded corners*
20,1,$1+$1,$2,$3,$4,$5,0*
20,1,$1+$1,$4,$5,$6,$7,0*
20,1,$1+$1,$6,$7,$8,$9,0*
20,1,$1+$1,$8,$9,$2,$3,0*%
G04 Aperture macros list end*
%ADD10C,0.203200*%
%ADD11C,0.010000*%
%ADD12RoundRect,0.250000X0.262500X0.450000X-0.262500X0.450000X-0.262500X-0.450000X0.262500X-0.450000X0*%
%ADD13R,0.970000X0.650000*%
%ADD14RoundRect,0.250000X-0.625000X0.312500X-0.625000X-0.312500X0.625000X-0.312500X0.625000X0.312500X0*%
%ADD15RoundRect,0.072500X0.532500X0.217500X-0.532500X0.217500X-0.532500X-0.217500X0.532500X-0.217500X0*%
%ADD16RoundRect,0.250000X-0.650000X0.325000X-0.650000X-0.325000X0.650000X-0.325000X0.650000X0.325000X0*%
%ADD17RoundRect,0.250000X-0.475000X0.250000X-0.475000X-0.250000X0.475000X-0.250000X0.475000X0.250000X0*%
%ADD18RoundRect,0.200000X0.200000X0.275000X-0.200000X0.275000X-0.200000X-0.275000X0.200000X-0.275000X0*%
%ADD19RoundRect,0.135000X-0.185000X0.135000X-0.185000X-0.135000X0.185000X-0.135000X0.185000X0.135000X0*%
%ADD20RoundRect,0.140000X-0.140000X-0.170000X0.140000X-0.170000X0.140000X0.170000X-0.140000X0.170000X0*%
%ADD21RoundRect,0.073750X0.551250X0.221250X-0.551250X0.221250X-0.551250X-0.221250X0.551250X-0.221250X0*%
%ADD22RoundRect,0.135000X0.135000X0.185000X-0.135000X0.185000X-0.135000X-0.185000X0.135000X-0.185000X0*%
%ADD23RoundRect,0.135000X-0.135000X-0.185000X0.135000X-0.185000X0.135000X0.185000X-0.135000X0.185000X0*%
%ADD24RoundRect,0.140000X-0.170000X0.140000X-0.170000X-0.140000X0.170000X-0.140000X0.170000X0.140000X0*%
%ADD25RoundRect,0.250000X0.650000X-0.325000X0.650000X0.325000X-0.650000X0.325000X-0.650000X-0.325000X0*%
G04 APERTURE END LIST*
D10*
%TO.C,L3*%
X149000000Y-66650000D02*
X153400000Y-66650000D01*
X153400000Y-65350000D01*
X152800000Y-65350000D01*
X152729000Y-65426000D01*
X152642000Y-65511000D01*
X152550000Y-65591000D01*
X152453000Y-65665000D01*
X152353000Y-65733000D01*
X152248000Y-65796000D01*
X152141000Y-65853000D01*
X152030000Y-65903000D01*
X151916000Y-65947000D01*
X151801000Y-65985000D01*
X151683000Y-66016000D01*
X151563000Y-66040000D01*
X151443000Y-66057000D01*
X151322000Y-66068000D01*
X151200000Y-66071000D01*
X151078000Y-66068000D01*
X150957000Y-66057000D01*
X150837000Y-66040000D01*
X150717000Y-66016000D01*
X150599000Y-65985000D01*
X150484000Y-65947000D01*
X150370000Y-65903000D01*
X150259000Y-65853000D01*
X150152000Y-65796000D01*
X150047000Y-65733000D01*
X149947000Y-65665000D01*
X149850000Y-65591000D01*
X149758000Y-65511000D01*
X149671000Y-65426000D01*
X149600000Y-65350000D01*
X149000000Y-65350000D01*
X149000000Y-66650000D01*
G36*
X149671000Y-65426000D02*
G01*
X149758000Y-65511000D01*
X149850000Y-65591000D01*
X149947000Y-65665000D01*
X150047000Y-65733000D01*
X150152000Y-65796000D01*
X150259000Y-65853000D01*
X150370000Y-65903000D01*
X150484000Y-65947000D01*
X150599000Y-65985000D01*
X150717000Y-66016000D01*
X150837000Y-66040000D01*
X150957000Y-66057000D01*
X151078000Y-66068000D01*
X151200000Y-66071000D01*
X151322000Y-66068000D01*
X151443000Y-66057000D01*
X151563000Y-66040000D01*
X151683000Y-66016000D01*
X151801000Y-65985000D01*
X151916000Y-65947000D01*
X152030000Y-65903000D01*
X152141000Y-65853000D01*
X152248000Y-65796000D01*
X152353000Y-65733000D01*
X152453000Y-65665000D01*
X152550000Y-65591000D01*
X152642000Y-65511000D01*
X152729000Y-65426000D01*
X152800000Y-65350000D01*
X153400000Y-65350000D01*
X153400000Y-66650000D01*
X149000000Y-66650000D01*
X149000000Y-65350000D01*
X149600000Y-65350000D01*
X149671000Y-65426000D01*
G37*
X153400000Y-61250000D02*
X149000000Y-61250000D01*
X149000000Y-62550000D01*
X149600000Y-62550000D01*
X149671000Y-62474000D01*
X149758000Y-62389000D01*
X149850000Y-62309000D01*
X149947000Y-62235000D01*
X150047000Y-62167000D01*
X150152000Y-62104000D01*
X150259000Y-62047000D01*
X150370000Y-61997000D01*
X150484000Y-61953000D01*
X150599000Y-61915000D01*
X150717000Y-61884000D01*
X150837000Y-61860000D01*
X150957000Y-61843000D01*
X151078000Y-61832000D01*
X151200000Y-61829000D01*
X151322000Y-61832000D01*
X151443000Y-61843000D01*
X151563000Y-61860000D01*
X151683000Y-61884000D01*
X151801000Y-61915000D01*
X151916000Y-61953000D01*
X152030000Y-61997000D01*
X152141000Y-62047000D01*
X152248000Y-62104000D01*
X152353000Y-62167000D01*
X152453000Y-62235000D01*
X152550000Y-62309000D01*
X152642000Y-62389000D01*
X152729000Y-62474000D01*
X152800000Y-62550000D01*
X153400000Y-62550000D01*
X153400000Y-61250000D01*
G36*
X153400000Y-62550000D02*
G01*
X152800000Y-62550000D01*
X152729000Y-62474000D01*
X152642000Y-62389000D01*
X152550000Y-62309000D01*
X152453000Y-62235000D01*
X152353000Y-62167000D01*
X152248000Y-62104000D01*
X152141000Y-62047000D01*
X152030000Y-61997000D01*
X151916000Y-61953000D01*
X151801000Y-61915000D01*
X151683000Y-61884000D01*
X151563000Y-61860000D01*
X151443000Y-61843000D01*
X151322000Y-61832000D01*
X151200000Y-61829000D01*
X151078000Y-61832000D01*
X150957000Y-61843000D01*
X150837000Y-61860000D01*
X150717000Y-61884000D01*
X150599000Y-61915000D01*
X150484000Y-61953000D01*
X150370000Y-61997000D01*
X150259000Y-62047000D01*
X150152000Y-62104000D01*
X150047000Y-62167000D01*
X149947000Y-62235000D01*
X149850000Y-62309000D01*
X149758000Y-62389000D01*
X149671000Y-62474000D01*
X149600000Y-62550000D01*
X149000000Y-62550000D01*
X149000000Y-61250000D01*
X153400000Y-61250000D01*
X153400000Y-62550000D01*
G37*
D11*
%TO.C,FPC1*%
X131600000Y-143225000D02*
X131900000Y-143225000D01*
X131900000Y-142525000D01*
X131600000Y-142525000D01*
X131600000Y-143225000D01*
G36*
X131900000Y-143225000D02*
G01*
X131600000Y-143225000D01*
X131600000Y-142525000D01*
X131900000Y-142525000D01*
X131900000Y-143225000D01*
G37*
X132385000Y-142975000D02*
X132615000Y-142975000D01*
X132615000Y-142325000D01*
X132385000Y-142325000D01*
X132385000Y-142975000D01*
G36*
X132615000Y-142975000D02*
G01*
X132385000Y-142975000D01*
X132385000Y-142325000D01*
X132615000Y-142325000D01*
X132615000Y-142975000D01*
G37*
X132685000Y-145925000D02*
X132915000Y-145925000D01*
X132915000Y-145375000D01*
X132685000Y-145375000D01*
X132685000Y-145925000D01*
G36*
X132915000Y-145925000D02*
G01*
X132685000Y-145925000D01*
X132685000Y-145375000D01*
X132915000Y-145375000D01*
X132915000Y-145925000D01*
G37*
X132985000Y-142975000D02*
X133215000Y-142975000D01*
X133215000Y-142325000D01*
X132985000Y-142325000D01*
X132985000Y-142975000D01*
G36*
X133215000Y-142975000D02*
G01*
X132985000Y-142975000D01*
X132985000Y-142325000D01*
X133215000Y-142325000D01*
X133215000Y-142975000D01*
G37*
X133285000Y-145925000D02*
X133515000Y-145925000D01*
X133515000Y-145375000D01*
X133285000Y-145375000D01*
X133285000Y-145925000D01*
G36*
X133515000Y-145925000D02*
G01*
X133285000Y-145925000D01*
X133285000Y-145375000D01*
X133515000Y-145375000D01*
X133515000Y-145925000D01*
G37*
X133585000Y-142975000D02*
X133815000Y-142975000D01*
X133815000Y-142325000D01*
X133585000Y-142325000D01*
X133585000Y-142975000D01*
G36*
X133815000Y-142975000D02*
G01*
X133585000Y-142975000D01*
X133585000Y-142325000D01*
X133815000Y-142325000D01*
X133815000Y-142975000D01*
G37*
X133885000Y-145925000D02*
X134115000Y-145925000D01*
X134115000Y-145375000D01*
X133885000Y-145375000D01*
X133885000Y-145925000D01*
G36*
X134115000Y-145925000D02*
G01*
X133885000Y-145925000D01*
X133885000Y-145375000D01*
X134115000Y-145375000D01*
X134115000Y-145925000D01*
G37*
X134185000Y-142975000D02*
X134415000Y-142975000D01*
X134415000Y-142325000D01*
X134185000Y-142325000D01*
X134185000Y-142975000D01*
G36*
X134415000Y-142975000D02*
G01*
X134185000Y-142975000D01*
X134185000Y-142325000D01*
X134415000Y-142325000D01*
X134415000Y-142975000D01*
G37*
X134485000Y-145925000D02*
X134715000Y-145925000D01*
X134715000Y-145375000D01*
X134485000Y-145375000D01*
X134485000Y-145925000D01*
G36*
X134715000Y-145925000D02*
G01*
X134485000Y-145925000D01*
X134485000Y-145375000D01*
X134715000Y-145375000D01*
X134715000Y-145925000D01*
G37*
X134785000Y-142975000D02*
X135015000Y-142975000D01*
X135015000Y-142325000D01*
X134785000Y-142325000D01*
X134785000Y-142975000D01*
G36*
X135015000Y-142975000D02*
G01*
X134785000Y-142975000D01*
X134785000Y-142325000D01*
X135015000Y-142325000D01*
X135015000Y-142975000D01*
G37*
X135085000Y-145925000D02*
X135315000Y-145925000D01*
X135315000Y-145375000D01*
X135085000Y-145375000D01*
X135085000Y-145925000D01*
G36*
X135315000Y-145925000D02*
G01*
X135085000Y-145925000D01*
X135085000Y-145375000D01*
X135315000Y-145375000D01*
X135315000Y-145925000D01*
G37*
X135385000Y-142975000D02*
X135615000Y-142975000D01*
X135615000Y-142325000D01*
X135385000Y-142325000D01*
X135385000Y-142975000D01*
G36*
X135615000Y-142975000D02*
G01*
X135385000Y-142975000D01*
X135385000Y-142325000D01*
X135615000Y-142325000D01*
X135615000Y-142975000D01*
G37*
X135685000Y-145925000D02*
X135915000Y-145925000D01*
X135915000Y-145375000D01*
X135685000Y-145375000D01*
X135685000Y-145925000D01*
G36*
X135915000Y-145925000D02*
G01*
X135685000Y-145925000D01*
X135685000Y-145375000D01*
X135915000Y-145375000D01*
X135915000Y-145925000D01*
G37*
X135985000Y-142975000D02*
X136215000Y-142975000D01*
X136215000Y-142325000D01*
X135985000Y-142325000D01*
X135985000Y-142975000D01*
G36*
X136215000Y-142975000D02*
G01*
X135985000Y-142975000D01*
X135985000Y-142325000D01*
X136215000Y-142325000D01*
X136215000Y-142975000D01*
G37*
X136285000Y-145925000D02*
X136515000Y-145925000D01*
X136515000Y-145375000D01*
X136285000Y-145375000D01*
X136285000Y-145925000D01*
G36*
X136515000Y-145925000D02*
G01*
X136285000Y-145925000D01*
X136285000Y-145375000D01*
X136515000Y-145375000D01*
X136515000Y-145925000D01*
G37*
X136585000Y-142975000D02*
X136815000Y-142975000D01*
X136815000Y-142325000D01*
X136585000Y-142325000D01*
X136585000Y-142975000D01*
G36*
X136815000Y-142975000D02*
G01*
X136585000Y-142975000D01*
X136585000Y-142325000D01*
X136815000Y-142325000D01*
X136815000Y-142975000D01*
G37*
X136885000Y-145925000D02*
X137115000Y-145925000D01*
X137115000Y-145375000D01*
X136885000Y-145375000D01*
X136885000Y-145925000D01*
G36*
X137115000Y-145925000D02*
G01*
X136885000Y-145925000D01*
X136885000Y-145375000D01*
X137115000Y-145375000D01*
X137115000Y-145925000D01*
G37*
X137185000Y-142975000D02*
X137415000Y-142975000D01*
X137415000Y-142325000D01*
X137185000Y-142325000D01*
X137185000Y-142975000D01*
G36*
X137415000Y-142975000D02*
G01*
X137185000Y-142975000D01*
X137185000Y-142325000D01*
X137415000Y-142325000D01*
X137415000Y-142975000D01*
G37*
X137485000Y-145925000D02*
X137715000Y-145925000D01*
X137715000Y-145375000D01*
X137485000Y-145375000D01*
X137485000Y-145925000D01*
G36*
X137715000Y-145925000D02*
G01*
X137485000Y-145925000D01*
X137485000Y-145375000D01*
X137715000Y-145375000D01*
X137715000Y-145925000D01*
G37*
X137785000Y-142975000D02*
X138015000Y-142975000D01*
X138015000Y-142325000D01*
X137785000Y-142325000D01*
X137785000Y-142975000D01*
G36*
X138015000Y-142975000D02*
G01*
X137785000Y-142975000D01*
X137785000Y-142325000D01*
X138015000Y-142325000D01*
X138015000Y-142975000D01*
G37*
X138085000Y-145925000D02*
X138315000Y-145925000D01*
X138315000Y-145375000D01*
X138085000Y-145375000D01*
X138085000Y-145925000D01*
G36*
X138315000Y-145925000D02*
G01*
X138085000Y-145925000D01*
X138085000Y-145375000D01*
X138315000Y-145375000D01*
X138315000Y-145925000D01*
G37*
X138385000Y-142975000D02*
X138615000Y-142975000D01*
X138615000Y-142325000D01*
X138385000Y-142325000D01*
X138385000Y-142975000D01*
G36*
X138615000Y-142975000D02*
G01*
X138385000Y-142975000D01*
X138385000Y-142325000D01*
X138615000Y-142325000D01*
X138615000Y-142975000D01*
G37*
X138685000Y-145925000D02*
X138915000Y-145925000D01*
X138915000Y-145375000D01*
X138685000Y-145375000D01*
X138685000Y-145925000D01*
G36*
X138915000Y-145925000D02*
G01*
X138685000Y-145925000D01*
X138685000Y-145375000D01*
X138915000Y-145375000D01*
X138915000Y-145925000D01*
G37*
X138985000Y-142975000D02*
X139215000Y-142975000D01*
X139215000Y-142325000D01*
X138985000Y-142325000D01*
X138985000Y-142975000D01*
G36*
X139215000Y-142975000D02*
G01*
X138985000Y-142975000D01*
X138985000Y-142325000D01*
X139215000Y-142325000D01*
X139215000Y-142975000D01*
G37*
X139285000Y-145925000D02*
X139515000Y-145925000D01*
X139515000Y-145375000D01*
X139285000Y-145375000D01*
X139285000Y-145925000D01*
G36*
X139515000Y-145925000D02*
G01*
X139285000Y-145925000D01*
X139285000Y-145375000D01*
X139515000Y-145375000D01*
X139515000Y-145925000D01*
G37*
X139585000Y-142975000D02*
X139815000Y-142975000D01*
X139815000Y-142325000D01*
X139585000Y-142325000D01*
X139585000Y-142975000D01*
G36*
X139815000Y-142975000D02*
G01*
X139585000Y-142975000D01*
X139585000Y-142325000D01*
X139815000Y-142325000D01*
X139815000Y-142975000D01*
G37*
X139885000Y-145925000D02*
X140115000Y-145925000D01*
X140115000Y-145375000D01*
X139885000Y-145375000D01*
X139885000Y-145925000D01*
G36*
X140115000Y-145925000D02*
G01*
X139885000Y-145925000D01*
X139885000Y-145375000D01*
X140115000Y-145375000D01*
X140115000Y-145925000D01*
G37*
X140185000Y-142975000D02*
X140415000Y-142975000D01*
X140415000Y-142325000D01*
X140185000Y-142325000D01*
X140185000Y-142975000D01*
G36*
X140415000Y-142975000D02*
G01*
X140185000Y-142975000D01*
X140185000Y-142325000D01*
X140415000Y-142325000D01*
X140415000Y-142975000D01*
G37*
X140485000Y-145925000D02*
X140715000Y-145925000D01*
X140715000Y-145375000D01*
X140485000Y-145375000D01*
X140485000Y-145925000D01*
G36*
X140715000Y-145925000D02*
G01*
X140485000Y-145925000D01*
X140485000Y-145375000D01*
X140715000Y-145375000D01*
X140715000Y-145925000D01*
G37*
X140785000Y-142975000D02*
X141015000Y-142975000D01*
X141015000Y-142325000D01*
X140785000Y-142325000D01*
X140785000Y-142975000D01*
G36*
X141015000Y-142975000D02*
G01*
X140785000Y-142975000D01*
X140785000Y-142325000D01*
X141015000Y-142325000D01*
X141015000Y-142975000D01*
G37*
X141085000Y-145925000D02*
X141315000Y-145925000D01*
X141315000Y-145375000D01*
X141085000Y-145375000D01*
X141085000Y-145925000D01*
G36*
X141315000Y-145925000D02*
G01*
X141085000Y-145925000D01*
X141085000Y-145375000D01*
X141315000Y-145375000D01*
X141315000Y-145925000D01*
G37*
X141385000Y-142975000D02*
X141615000Y-142975000D01*
X141615000Y-142325000D01*
X141385000Y-142325000D01*
X141385000Y-142975000D01*
G36*
X141615000Y-142975000D02*
G01*
X141385000Y-142975000D01*
X141385000Y-142325000D01*
X141615000Y-142325000D01*
X141615000Y-142975000D01*
G37*
X141685000Y-145925000D02*
X141915000Y-145925000D01*
X141915000Y-145375000D01*
X141685000Y-145375000D01*
X141685000Y-145925000D01*
G36*
X141915000Y-145925000D02*
G01*
X141685000Y-145925000D01*
X141685000Y-145375000D01*
X141915000Y-145375000D01*
X141915000Y-145925000D01*
G37*
X141985000Y-142975000D02*
X142215000Y-142975000D01*
X142215000Y-142325000D01*
X141985000Y-142325000D01*
X141985000Y-142975000D01*
G36*
X142215000Y-142975000D02*
G01*
X141985000Y-142975000D01*
X141985000Y-142325000D01*
X142215000Y-142325000D01*
X142215000Y-142975000D01*
G37*
X142285000Y-145925000D02*
X142515000Y-145925000D01*
X142515000Y-145375000D01*
X142285000Y-145375000D01*
X142285000Y-145925000D01*
G36*
X142515000Y-145925000D02*
G01*
X142285000Y-145925000D01*
X142285000Y-145375000D01*
X142515000Y-145375000D01*
X142515000Y-145925000D01*
G37*
X142585000Y-142975000D02*
X142815000Y-142975000D01*
X142815000Y-142325000D01*
X142585000Y-142325000D01*
X142585000Y-142975000D01*
G36*
X142815000Y-142975000D02*
G01*
X142585000Y-142975000D01*
X142585000Y-142325000D01*
X142815000Y-142325000D01*
X142815000Y-142975000D01*
G37*
X142885000Y-145925000D02*
X143115000Y-145925000D01*
X143115000Y-145375000D01*
X142885000Y-145375000D01*
X142885000Y-145925000D01*
G36*
X143115000Y-145925000D02*
G01*
X142885000Y-145925000D01*
X142885000Y-145375000D01*
X143115000Y-145375000D01*
X143115000Y-145925000D01*
G37*
X143185000Y-142975000D02*
X143415000Y-142975000D01*
X143415000Y-142325000D01*
X143185000Y-142325000D01*
X143185000Y-142975000D01*
G36*
X143415000Y-142975000D02*
G01*
X143185000Y-142975000D01*
X143185000Y-142325000D01*
X143415000Y-142325000D01*
X143415000Y-142975000D01*
G37*
X143485000Y-145925000D02*
X143715000Y-145925000D01*
X143715000Y-145375000D01*
X143485000Y-145375000D01*
X143485000Y-145925000D01*
G36*
X143715000Y-145925000D02*
G01*
X143485000Y-145925000D01*
X143485000Y-145375000D01*
X143715000Y-145375000D01*
X143715000Y-145925000D01*
G37*
X143785000Y-142975000D02*
X144015000Y-142975000D01*
X144015000Y-142325000D01*
X143785000Y-142325000D01*
X143785000Y-142975000D01*
G36*
X144015000Y-142975000D02*
G01*
X143785000Y-142975000D01*
X143785000Y-142325000D01*
X144015000Y-142325000D01*
X144015000Y-142975000D01*
G37*
X144500000Y-143225000D02*
X144800000Y-143225000D01*
X144800000Y-142525000D01*
X144500000Y-142525000D01*
X144500000Y-143225000D01*
G36*
X144800000Y-143225000D02*
G01*
X144500000Y-143225000D01*
X144500000Y-142525000D01*
X144800000Y-142525000D01*
X144800000Y-143225000D01*
G37*
%TO.C,L2*%
X169250000Y-56300000D02*
X169250000Y-53300000D01*
X167750000Y-53300000D01*
X167750000Y-54050000D01*
X166250000Y-54050000D01*
X166250000Y-55550000D01*
X167750000Y-55550000D01*
X167750000Y-56300000D01*
X169250000Y-56300000D01*
G36*
X169250000Y-56300000D02*
G01*
X167750000Y-56300000D01*
X167750000Y-55550000D01*
X166250000Y-55550000D01*
X166250000Y-54050000D01*
X167750000Y-54050000D01*
X167750000Y-53300000D01*
X169250000Y-53300000D01*
X169250000Y-56300000D01*
G37*
X170750000Y-53300000D02*
X170750000Y-56300000D01*
X172250000Y-56300000D01*
X172250000Y-55550000D01*
X173750000Y-55550000D01*
X173750000Y-54050000D01*
X172250000Y-54050000D01*
X172250000Y-53300000D01*
X170750000Y-53300000D01*
G36*
X172250000Y-54050000D02*
G01*
X173750000Y-54050000D01*
X173750000Y-55550000D01*
X172250000Y-55550000D01*
X172250000Y-56300000D01*
X170750000Y-56300000D01*
X170750000Y-53300000D01*
X172250000Y-53300000D01*
X172250000Y-54050000D01*
G37*
%TD*%
D12*
%TO.C,R19*%
X164370000Y-54800000D03*
X162545000Y-54800000D03*
%TD*%
D13*
%TO.C,D2*%
X147177500Y-59587500D03*
X143697500Y-59587500D03*
%TD*%
D14*
%TO.C,R17*%
X135637500Y-55262500D03*
X135637500Y-58187500D03*
%TD*%
D15*
%TO.C,PS3*%
X142800000Y-55950000D03*
X142800000Y-56900000D03*
X142800000Y-57850000D03*
X140290000Y-57850000D03*
X140290000Y-56900000D03*
X140290000Y-55950000D03*
%TD*%
D16*
%TO.C,C8*%
X148937500Y-54787500D03*
X148937500Y-57737500D03*
%TD*%
D17*
%TO.C,C11*%
X175690000Y-60420000D03*
X175690000Y-62320000D03*
%TD*%
%TO.C,C14*%
X167495000Y-58987500D03*
X167495000Y-60887500D03*
%TD*%
D18*
%TO.C,R15*%
X172325000Y-57500000D03*
X170675000Y-57500000D03*
%TD*%
D19*
%TO.C,R16*%
X144937500Y-56402500D03*
X144937500Y-57422500D03*
%TD*%
D20*
%TO.C,C41*%
X175600000Y-89000000D03*
X176560000Y-89000000D03*
%TD*%
D21*
%TO.C,PS2*%
X173205000Y-59050000D03*
X173205000Y-60000000D03*
X173205000Y-60950000D03*
X170695000Y-60950000D03*
X170695000Y-60000000D03*
X170695000Y-59050000D03*
%TD*%
D22*
%TO.C,R18*%
X174620000Y-89000000D03*
X173600000Y-89000000D03*
%TD*%
D16*
%TO.C,C18*%
X158332500Y-56950000D03*
X158332500Y-59900000D03*
%TD*%
%TO.C,C20*%
X152907500Y-55075000D03*
X152907500Y-58025000D03*
%TD*%
D17*
%TO.C,C16*%
X143837500Y-61837500D03*
X143837500Y-63737500D03*
%TD*%
D23*
%TO.C,R40*%
X177600000Y-89000000D03*
X178620000Y-89000000D03*
%TD*%
D19*
%TO.C,R20*%
X165300000Y-59390000D03*
X165300000Y-60410000D03*
%TD*%
D24*
%TO.C,C9*%
X146737500Y-56320000D03*
X146737500Y-57280000D03*
%TD*%
D25*
%TO.C,C10*%
X177900000Y-63345000D03*
X177900000Y-60395000D03*
%TD*%
D16*
%TO.C,C19*%
X155600000Y-56887500D03*
X155600000Y-59837500D03*
%TD*%
D17*
%TO.C,C36*%
X138037500Y-56387500D03*
X138037500Y-58287500D03*
%TD*%
M02*
