%TF.GenerationSoftware,KiCad,Pcbnew,10.0.5*%
%TF.CreationDate,2026-07-28T17:41:11-05:00*%
%TF.ProjectId,PelletPirate_V4,50656c6c-6574-4506-9972-6174655f5634,rev?*%
%TF.SameCoordinates,Original*%
%TF.FileFunction,Paste,Top*%
%TF.FilePolarity,Positive*%
%FSLAX46Y46*%
G04 Gerber Fmt 4.6, Leading zero omitted, Abs format (unit mm)*
G04 Created by KiCad (PCBNEW 10.0.5) date 2026-07-28 17:41:11*
%MOMM*%
%LPD*%
G01*
G04 APERTURE LIST*
G04 Aperture macros list*
%AMRoundRect*
0 Rectangle with rounded corners*
0 $1 Rounding radius*
0 $2 $3 $4 $5 $6 $7 $8 $9 X,Y pos of 4 corners*
0 Add a 4 corners polygon primitive as box body*
4,1,4,$2,$3,$4,$5,$6,$7,$8,$9,$2,$3,0*
0 Add four circle primitives for the rounded corners*
1,1,$1+$1,$2,$3*
1,1,$1+$1,$4,$5*
1,1,$1+$1,$6,$7*
1,1,$1+$1,$8,$9*
0 Add four rect primitives between the rounded corners*
20,1,$1+$1,$2,$3,$4,$5,0*
20,1,$1+$1,$4,$5,$6,$7,0*
20,1,$1+$1,$6,$7,$8,$9,0*
20,1,$1+$1,$8,$9,$2,$3,0*%
G04 Aperture macros list end*
%ADD10RoundRect,0.135000X0.135000X0.185000X-0.135000X0.185000X-0.135000X-0.185000X0.135000X-0.185000X0*%
%ADD11R,0.800000X2.700000*%
%ADD12RoundRect,0.140000X0.170000X-0.140000X0.170000X0.140000X-0.170000X0.140000X-0.170000X-0.140000X0*%
%ADD13RoundRect,0.140000X-0.170000X0.140000X-0.170000X-0.140000X0.170000X-0.140000X0.170000X0.140000X0*%
%ADD14RoundRect,0.250000X0.312500X0.625000X-0.312500X0.625000X-0.312500X-0.625000X0.312500X-0.625000X0*%
%ADD15RoundRect,0.135000X-0.185000X0.135000X-0.185000X-0.135000X0.185000X-0.135000X0.185000X0.135000X0*%
%ADD16RoundRect,0.135000X-0.135000X-0.185000X0.135000X-0.185000X0.135000X0.185000X-0.135000X0.185000X0*%
%ADD17RoundRect,0.250000X0.625000X-0.312500X0.625000X0.312500X-0.625000X0.312500X-0.625000X-0.312500X0*%
%ADD18RoundRect,0.140000X-0.140000X-0.170000X0.140000X-0.170000X0.140000X0.170000X-0.140000X0.170000X0*%
%ADD19RoundRect,0.250000X-0.405000X0.405000X-0.405000X-0.405000X0.405000X-0.405000X0.405000X0.405000X0*%
%ADD20RoundRect,0.075000X-0.075000X0.337500X-0.075000X-0.337500X0.075000X-0.337500X0.075000X0.337500X0*%
%ADD21RoundRect,0.075000X-0.337500X0.075000X-0.337500X-0.075000X0.337500X-0.075000X0.337500X0.075000X0*%
%ADD22R,0.900000X1.000000*%
%ADD23R,1.700000X0.550000*%
%ADD24RoundRect,0.250000X0.450000X-0.262500X0.450000X0.262500X-0.450000X0.262500X-0.450000X-0.262500X0*%
%ADD25RoundRect,0.250000X0.250000X0.475000X-0.250000X0.475000X-0.250000X-0.475000X0.250000X-0.475000X0*%
%ADD26RoundRect,0.140000X0.140000X0.170000X-0.140000X0.170000X-0.140000X-0.170000X0.140000X-0.170000X0*%
%ADD27RoundRect,0.250000X-0.625000X0.312500X-0.625000X-0.312500X0.625000X-0.312500X0.625000X0.312500X0*%
%ADD28R,0.900000X0.900000*%
%ADD29R,1.500000X0.900000*%
%ADD30R,0.900000X1.500000*%
%ADD31R,1.150000X0.600000*%
%ADD32R,1.150000X0.300000*%
%ADD33RoundRect,0.073750X0.531250X0.221250X-0.531250X0.221250X-0.531250X-0.221250X0.531250X-0.221250X0*%
%ADD34RoundRect,0.250000X0.325000X0.650000X-0.325000X0.650000X-0.325000X-0.650000X0.325000X-0.650000X0*%
%ADD35RoundRect,0.250000X0.405000X0.405000X-0.405000X0.405000X-0.405000X-0.405000X0.405000X-0.405000X0*%
%ADD36RoundRect,0.075000X0.337500X0.075000X-0.337500X0.075000X-0.337500X-0.075000X0.337500X-0.075000X0*%
%ADD37RoundRect,0.075000X0.075000X0.337500X-0.075000X0.337500X-0.075000X-0.337500X0.075000X-0.337500X0*%
%ADD38R,1.000000X0.900000*%
%ADD39R,0.550000X1.700000*%
%ADD40RoundRect,0.218750X-0.218750X-0.256250X0.218750X-0.256250X0.218750X0.256250X-0.218750X0.256250X0*%
%ADD41RoundRect,0.250000X-0.450000X0.262500X-0.450000X-0.262500X0.450000X-0.262500X0.450000X0.262500X0*%
%ADD42RoundRect,0.243800X-0.846200X-0.816200X0.846200X-0.816200X0.846200X0.816200X-0.846200X0.816200X0*%
%ADD43RoundRect,0.200000X-0.200000X-0.275000X0.200000X-0.275000X0.200000X0.275000X-0.200000X0.275000X0*%
%ADD44RoundRect,0.200000X0.275000X-0.200000X0.275000X0.200000X-0.275000X0.200000X-0.275000X-0.200000X0*%
%ADD45RoundRect,0.200000X0.200000X0.275000X-0.200000X0.275000X-0.200000X-0.275000X0.200000X-0.275000X0*%
G04 APERTURE END LIST*
D10*
%TO.C,R35*%
X146000000Y-90985000D03*
X144980000Y-90985000D03*
%TD*%
D11*
%TO.C,L1*%
X129800000Y-119700000D03*
X127600000Y-119700000D03*
%TD*%
D12*
%TO.C,C29*%
X126040000Y-83190000D03*
X126040000Y-82230000D03*
%TD*%
D13*
%TO.C,C32*%
X170700000Y-78440000D03*
X170700000Y-79400000D03*
%TD*%
D14*
%TO.C,R25*%
X127125000Y-87200000D03*
X124200000Y-87200000D03*
%TD*%
D15*
%TO.C,R32*%
X139000000Y-78500000D03*
X139000000Y-79520000D03*
%TD*%
D16*
%TO.C,R43*%
X177990000Y-121200000D03*
X179010000Y-121200000D03*
%TD*%
D17*
%TO.C,R21*%
X170600000Y-71200000D03*
X170600000Y-68275000D03*
%TD*%
D15*
%TO.C,R33*%
X140000000Y-81300000D03*
X140000000Y-82320000D03*
%TD*%
D13*
%TO.C,C24*%
X133340000Y-80232500D03*
X133340000Y-81192500D03*
%TD*%
D18*
%TO.C,C21*%
X165312500Y-73137500D03*
X166272500Y-73137500D03*
%TD*%
D19*
%TO.C,MAX3*%
X127090000Y-71590000D03*
X125470000Y-71590000D03*
X127090000Y-73210000D03*
X125470000Y-73210000D03*
D20*
X127580000Y-69962500D03*
X126930000Y-69962500D03*
X126280000Y-69962500D03*
X125630000Y-69962500D03*
X124980000Y-69962500D03*
D21*
X123842500Y-71100000D03*
X123842500Y-71750000D03*
X123842500Y-72400000D03*
X123842500Y-73050000D03*
X123842500Y-73700000D03*
D20*
X124980000Y-74837500D03*
X125630000Y-74837500D03*
X126280000Y-74837500D03*
X126930000Y-74837500D03*
X127580000Y-74837500D03*
D21*
X128717500Y-73700000D03*
X128717500Y-73050000D03*
X128717500Y-72400000D03*
X128717500Y-71750000D03*
X128717500Y-71100000D03*
%TD*%
D12*
%TO.C,C22*%
X170700000Y-81460000D03*
X170700000Y-80500000D03*
%TD*%
%TO.C,C23*%
X129950000Y-72722500D03*
X129950000Y-71762500D03*
%TD*%
D14*
%TO.C,R26*%
X155955250Y-136000000D03*
X153030250Y-136000000D03*
%TD*%
D22*
%TO.C,S2*%
X167412500Y-88000000D03*
X167412500Y-86400000D03*
X163312500Y-86400000D03*
X163312500Y-88000000D03*
D23*
X165362500Y-88625000D03*
%TD*%
D14*
%TO.C,R22*%
X167062500Y-76712500D03*
X164137500Y-76712500D03*
%TD*%
D24*
%TO.C,R5*%
X167055250Y-131912500D03*
X167055250Y-130087500D03*
%TD*%
D25*
%TO.C,C37*%
X139220000Y-69700000D03*
X137320000Y-69700000D03*
%TD*%
D26*
%TO.C,C42*%
X176270000Y-120800000D03*
X175310000Y-120800000D03*
%TD*%
D15*
%TO.C,R34*%
X140000000Y-83190000D03*
X140000000Y-84210000D03*
%TD*%
D14*
%TO.C,R24*%
X132125000Y-78100000D03*
X129200000Y-78100000D03*
%TD*%
D26*
%TO.C,C17*%
X138100000Y-71200000D03*
X137140000Y-71200000D03*
%TD*%
D10*
%TO.C,R30*%
X141520000Y-74400000D03*
X140500000Y-74400000D03*
%TD*%
D27*
%TO.C,R42*%
X178400000Y-115037500D03*
X178400000Y-117962500D03*
%TD*%
D24*
%TO.C,R8*%
X165055250Y-132912500D03*
X165055250Y-131087500D03*
%TD*%
D19*
%TO.C,MAX4*%
X130500000Y-81800000D03*
X128880000Y-81800000D03*
X130500000Y-83420000D03*
X128880000Y-83420000D03*
D20*
X130990000Y-80172500D03*
X130340000Y-80172500D03*
X129690000Y-80172500D03*
X129040000Y-80172500D03*
X128390000Y-80172500D03*
D21*
X127252500Y-81310000D03*
X127252500Y-81960000D03*
X127252500Y-82610000D03*
X127252500Y-83260000D03*
X127252500Y-83910000D03*
D20*
X128390000Y-85047500D03*
X129040000Y-85047500D03*
X129690000Y-85047500D03*
X130340000Y-85047500D03*
X130990000Y-85047500D03*
D21*
X132127500Y-83910000D03*
X132127500Y-83260000D03*
X132127500Y-82610000D03*
X132127500Y-81960000D03*
X132127500Y-81310000D03*
%TD*%
D10*
%TO.C,R36*%
X158700000Y-90800000D03*
X157680000Y-90800000D03*
%TD*%
%TO.C,R31*%
X167272500Y-90000000D03*
X166252500Y-90000000D03*
%TD*%
D24*
%TO.C,R4*%
X155600000Y-131912500D03*
X155600000Y-130087500D03*
%TD*%
D18*
%TO.C,C26*%
X165712500Y-65837500D03*
X166672500Y-65837500D03*
%TD*%
%TO.C,C40*%
X163212500Y-89900000D03*
X164172500Y-89900000D03*
%TD*%
D28*
%TO.C,ESP1*%
X149405606Y-80645000D03*
X149410000Y-77845000D03*
X149410000Y-79245000D03*
X150805606Y-80645000D03*
X150810000Y-77845000D03*
X150810000Y-79245000D03*
X152205606Y-80645000D03*
X152210000Y-77845000D03*
X152210000Y-79245000D03*
D29*
X143560000Y-71525000D03*
X143560000Y-72795000D03*
X143560000Y-74065000D03*
X143560000Y-75335000D03*
X143560000Y-76605000D03*
X143560000Y-77875000D03*
X143560000Y-79145000D03*
X143560000Y-80415000D03*
X143560000Y-81685000D03*
X143560000Y-82955000D03*
X143560000Y-84225000D03*
X143560000Y-85495000D03*
X143560000Y-86765000D03*
X143560000Y-88035000D03*
D30*
X145325000Y-89285000D03*
X146595000Y-89285000D03*
X147865000Y-89285000D03*
X149135000Y-89285000D03*
X150405000Y-89285000D03*
X151675000Y-89285000D03*
X152945000Y-89285000D03*
X154215000Y-89285000D03*
X155485000Y-89285000D03*
X156755000Y-89285000D03*
X158025000Y-89285000D03*
X159295000Y-89285000D03*
D29*
X161060000Y-88035000D03*
X161060000Y-86765000D03*
X161060000Y-85495000D03*
X161060000Y-84225000D03*
X161060000Y-82955000D03*
X161060000Y-81685000D03*
X161060000Y-80415000D03*
X161060000Y-79145000D03*
X161060000Y-77875000D03*
X161060000Y-76605000D03*
X161060000Y-75335000D03*
X161060000Y-74065000D03*
X161060000Y-72795000D03*
X161060000Y-71525000D03*
%TD*%
D12*
%TO.C,C28*%
X122650000Y-73100000D03*
X122650000Y-72140000D03*
%TD*%
D14*
%TO.C,R23*%
X127230000Y-67912500D03*
X124305000Y-67912500D03*
%TD*%
D31*
%TO.C,J8*%
X177545000Y-83350000D03*
X177545000Y-82550000D03*
D32*
X177545000Y-81400000D03*
X177545000Y-80400000D03*
X177545000Y-79900000D03*
X177545000Y-78900000D03*
D31*
X177545000Y-76950000D03*
X177545000Y-77750000D03*
D32*
X177545000Y-78400000D03*
X177545000Y-79400000D03*
X177545000Y-80900000D03*
X177545000Y-81900000D03*
%TD*%
D26*
%TO.C,C31*%
X168272500Y-73137500D03*
X167312500Y-73137500D03*
%TD*%
D18*
%TO.C,C39*%
X134700000Y-72300000D03*
X135660000Y-72300000D03*
%TD*%
D33*
%TO.C,U1*%
X182770000Y-73625000D03*
X182770000Y-72675000D03*
X182770000Y-71725000D03*
X180260000Y-71725000D03*
X180260000Y-72675000D03*
X180260000Y-73625000D03*
%TD*%
D34*
%TO.C,C38*%
X139840000Y-66780000D03*
X136890000Y-66780000D03*
%TD*%
D35*
%TO.C,MAX1*%
X166622500Y-70310000D03*
X166622500Y-68690000D03*
X165002500Y-70310000D03*
X165002500Y-68690000D03*
D36*
X168250000Y-70800000D03*
X168250000Y-70150000D03*
X168250000Y-69500000D03*
X168250000Y-68850000D03*
X168250000Y-68200000D03*
D37*
X167112500Y-67062500D03*
X166462500Y-67062500D03*
X165812500Y-67062500D03*
X165162500Y-67062500D03*
X164512500Y-67062500D03*
D36*
X163375000Y-68200000D03*
X163375000Y-68850000D03*
X163375000Y-69500000D03*
X163375000Y-70150000D03*
X163375000Y-70800000D03*
D37*
X164512500Y-71937500D03*
X165162500Y-71937500D03*
X165812500Y-71937500D03*
X166462500Y-71937500D03*
X167112500Y-71937500D03*
%TD*%
D19*
%TO.C,MAX2*%
X167810000Y-80290000D03*
X166190000Y-80290000D03*
X167810000Y-81910000D03*
X166190000Y-81910000D03*
D20*
X168300000Y-78662500D03*
X167650000Y-78662500D03*
X167000000Y-78662500D03*
X166350000Y-78662500D03*
X165700000Y-78662500D03*
D21*
X164562500Y-79800000D03*
X164562500Y-80450000D03*
X164562500Y-81100000D03*
X164562500Y-81750000D03*
X164562500Y-82400000D03*
D20*
X165700000Y-83537500D03*
X166350000Y-83537500D03*
X167000000Y-83537500D03*
X167650000Y-83537500D03*
X168300000Y-83537500D03*
D21*
X169437500Y-82400000D03*
X169437500Y-81750000D03*
X169437500Y-81100000D03*
X169437500Y-80450000D03*
X169437500Y-79800000D03*
%TD*%
D38*
%TO.C,S1*%
X137300000Y-76800000D03*
X138900000Y-76800000D03*
X138900000Y-72700000D03*
X137300000Y-72700000D03*
D39*
X136675000Y-74750000D03*
%TD*%
D13*
%TO.C,C35*%
X129990000Y-88900000D03*
X129990000Y-89860000D03*
%TD*%
D40*
%TO.C,LED1*%
X143125000Y-69200000D03*
X144700000Y-69200000D03*
%TD*%
D12*
%TO.C,C34*%
X133340000Y-83272500D03*
X133340000Y-82312500D03*
%TD*%
D14*
%TO.C,R27*%
X168017750Y-136000000D03*
X165092750Y-136000000D03*
%TD*%
D41*
%TO.C,R6*%
X179255250Y-129687500D03*
X179255250Y-131512500D03*
%TD*%
D42*
%TO.C,D1*%
X176700000Y-67900000D03*
X181130000Y-67900000D03*
%TD*%
D19*
%TO.C,MAX5*%
X127100000Y-91090000D03*
X125480000Y-91090000D03*
X127100000Y-92710000D03*
X125480000Y-92710000D03*
D20*
X127590000Y-89462500D03*
X126940000Y-89462500D03*
X126290000Y-89462500D03*
X125640000Y-89462500D03*
X124990000Y-89462500D03*
D21*
X123852500Y-90600000D03*
X123852500Y-91250000D03*
X123852500Y-91900000D03*
X123852500Y-92550000D03*
X123852500Y-93200000D03*
D20*
X124990000Y-94337500D03*
X125640000Y-94337500D03*
X126290000Y-94337500D03*
X126940000Y-94337500D03*
X127590000Y-94337500D03*
D21*
X128727500Y-93200000D03*
X128727500Y-92550000D03*
X128727500Y-91900000D03*
X128727500Y-91250000D03*
X128727500Y-90600000D03*
%TD*%
D43*
%TO.C,R37*%
X179570000Y-86025000D03*
X181220000Y-86025000D03*
%TD*%
D12*
%TO.C,C25*%
X129990000Y-91820000D03*
X129990000Y-90860000D03*
%TD*%
D13*
%TO.C,C33*%
X129950000Y-69762500D03*
X129950000Y-70722500D03*
%TD*%
D14*
%TO.C,R28*%
X180017750Y-136000000D03*
X177092750Y-136000000D03*
%TD*%
D12*
%TO.C,C30*%
X122590000Y-92580000D03*
X122590000Y-91620000D03*
%TD*%
D13*
%TO.C,C27*%
X163300000Y-80800000D03*
X163300000Y-81760000D03*
%TD*%
D41*
%TO.C,R9*%
X177055250Y-131087500D03*
X177055250Y-132912500D03*
%TD*%
D44*
%TO.C,R38*%
X175970000Y-78350000D03*
X175970000Y-76700000D03*
%TD*%
D45*
%TO.C,R39*%
X148000000Y-69210000D03*
X146350000Y-69210000D03*
%TD*%
D27*
%TO.C,R41*%
X176000000Y-113100000D03*
X176000000Y-116025000D03*
%TD*%
D24*
%TO.C,R7*%
X153055250Y-132912500D03*
X153055250Y-131087500D03*
%TD*%
M02*
