%TF.GenerationSoftware,KiCad,Pcbnew,10.0.5*%
%TF.CreationDate,2026-07-28T17:41:11-05:00*%
%TF.ProjectId,PelletPirate_V4,50656c6c-6574-4506-9972-6174655f5634,rev?*%
%TF.SameCoordinates,Original*%
%TF.FileFunction,Soldermask,Bot*%
%TF.FilePolarity,Negative*%
%FSLAX46Y46*%
G04 Gerber Fmt 4.6, Leading zero omitted, Abs format (unit mm)*
G04 Created by KiCad (PCBNEW 10.0.5) date 2026-07-28 17:41:11*
%MOMM*%
%LPD*%
G01*
G04 APERTURE LIST*
G04 Aperture macros list*
%AMRoundRect*
0 Rectangle with rounded corners*
0 $1 Rounding radius*
0 $2 $3 $4 $5 $6 $7 $8 $9 X,Y pos of 4 corners*
0 Add a 4 corners polygon primitive as box body*
4,1,4,$2,$3,$4,$5,$6,$7,$8,$9,$2,$3,0*
0 Add four circle primitives for the rounded corners*
1,1,$1+$1,$2,$3*
1,1,$1+$1,$4,$5*
1,1,$1+$1,$6,$7*
1,1,$1+$1,$8,$9*
0 Add four rect primitives between the rounded corners*
20,1,$1+$1,$2,$3,$4,$5,0*
20,1,$1+$1,$4,$5,$6,$7,0*
20,1,$1+$1,$6,$7,$8,$9,0*
20,1,$1+$1,$8,$9,$2,$3,0*%
G04 Aperture macros list end*
%ADD10C,0.010000*%
%ADD11C,0.203200*%
%ADD12RoundRect,0.250000X-1.325000X-1.325000X1.325000X-1.325000X1.325000X1.325000X-1.325000X1.325000X0*%
%ADD13C,1.270000*%
%ADD14RoundRect,0.250001X-0.499999X-0.759999X0.499999X-0.759999X0.499999X0.759999X-0.499999X0.759999X0*%
%ADD15O,1.500000X2.020000*%
%ADD16RoundRect,0.250000X-0.750000X-0.750000X0.750000X-0.750000X0.750000X0.750000X-0.750000X0.750000X0*%
%ADD17C,2.000000*%
%ADD18C,3.200000*%
%ADD19RoundRect,0.102000X1.500000X1.500000X-1.500000X1.500000X-1.500000X-1.500000X1.500000X-1.500000X0*%
%ADD20RoundRect,0.250000X-0.550000X0.550000X-0.550000X-0.550000X0.550000X-0.550000X0.550000X0.550000X0*%
%ADD21C,1.600000*%
%ADD22C,0.650000*%
%ADD23O,2.304000X1.204000*%
%ADD24O,2.004000X1.204000*%
%ADD25R,1.700000X1.700000*%
%ADD26C,1.700000*%
%ADD27R,1.905000X2.000000*%
%ADD28O,1.905000X2.000000*%
%ADD29C,1.800000*%
%ADD30RoundRect,0.250000X0.750000X0.750000X-0.750000X0.750000X-0.750000X-0.750000X0.750000X-0.750000X0*%
%ADD31C,2.540000*%
%ADD32RoundRect,0.250000X0.262500X0.450000X-0.262500X0.450000X-0.262500X-0.450000X0.262500X-0.450000X0*%
%ADD33RoundRect,0.102000X-0.485000X-0.325000X0.485000X-0.325000X0.485000X0.325000X-0.485000X0.325000X0*%
%ADD34RoundRect,0.225000X-0.475000X0.225000X-0.475000X-0.225000X0.475000X-0.225000X0.475000X0.225000X0*%
%ADD35O,1.400000X0.900000*%
%ADD36RoundRect,0.250000X-0.625000X0.312500X-0.625000X-0.312500X0.625000X-0.312500X0.625000X0.312500X0*%
%ADD37RoundRect,0.174500X0.532500X0.217500X-0.532500X0.217500X-0.532500X-0.217500X0.532500X-0.217500X0*%
%ADD38RoundRect,0.250000X-0.650000X0.325000X-0.650000X-0.325000X0.650000X-0.325000X0.650000X0.325000X0*%
%ADD39RoundRect,0.102000X-0.150000X-0.400000X0.150000X-0.400000X0.150000X0.400000X-0.150000X0.400000X0*%
%ADD40RoundRect,0.102000X-0.150000X-0.325000X0.150000X-0.325000X0.150000X0.325000X-0.150000X0.325000X0*%
%ADD41RoundRect,0.102000X-0.200000X-0.475000X0.200000X-0.475000X0.200000X0.475000X-0.200000X0.475000X0*%
%ADD42C,1.200000*%
%ADD43O,2.820000X1.512000*%
%ADD44O,1.512000X2.820000*%
%ADD45RoundRect,0.250000X-0.475000X0.250000X-0.475000X-0.250000X0.475000X-0.250000X0.475000X0.250000X0*%
%ADD46RoundRect,0.200000X0.200000X0.275000X-0.200000X0.275000X-0.200000X-0.275000X0.200000X-0.275000X0*%
%ADD47RoundRect,0.135000X-0.185000X0.135000X-0.185000X-0.135000X0.185000X-0.135000X0.185000X0.135000X0*%
%ADD48RoundRect,0.102000X-0.624000X-0.624000X0.624000X-0.624000X0.624000X0.624000X-0.624000X0.624000X0*%
%ADD49C,1.452000*%
%ADD50RoundRect,0.140000X-0.140000X-0.170000X0.140000X-0.170000X0.140000X0.170000X-0.140000X0.170000X0*%
%ADD51RoundRect,0.175750X0.551250X0.221250X-0.551250X0.221250X-0.551250X-0.221250X0.551250X-0.221250X0*%
%ADD52RoundRect,0.135000X0.135000X0.185000X-0.135000X0.185000X-0.135000X-0.185000X0.135000X-0.185000X0*%
%ADD53RoundRect,0.135000X-0.135000X-0.185000X0.135000X-0.185000X0.135000X0.185000X-0.135000X0.185000X0*%
%ADD54RoundRect,0.140000X-0.170000X0.140000X-0.170000X-0.140000X0.170000X-0.140000X0.170000X0.140000X0*%
%ADD55RoundRect,0.250000X0.650000X-0.325000X0.650000X0.325000X-0.650000X0.325000X-0.650000X-0.325000X0*%
%ADD56RoundRect,0.250000X0.550000X0.550000X-0.550000X0.550000X-0.550000X-0.550000X0.550000X-0.550000X0*%
G04 APERTURE END LIST*
D10*
%TO.C,PS1*%
X135262500Y-105150000D02*
X136462500Y-105150000D01*
X136462500Y-109080000D01*
X135262500Y-109080000D01*
X135262500Y-105150000D01*
G36*
X136462500Y-109080000D02*
G01*
X135262500Y-109080000D01*
X135262500Y-105150000D01*
X136462500Y-105150000D01*
X136462500Y-109080000D01*
G37*
X139762500Y-109050000D02*
X138562500Y-109050000D01*
X138562500Y-105120000D01*
X139762500Y-105120000D01*
X139762500Y-109050000D01*
G36*
X139762500Y-109050000D02*
G01*
X138562500Y-109050000D01*
X138562500Y-105120000D01*
X139762500Y-105120000D01*
X139762500Y-109050000D01*
G37*
D11*
%TO.C,L3*%
X148750000Y-66800000D02*
X153650000Y-66800000D01*
X153650000Y-65150000D01*
X152700000Y-65150000D01*
X152633000Y-65233000D01*
X152555000Y-65319000D01*
X152472000Y-65400000D01*
X152383000Y-65475000D01*
X152291000Y-65546000D01*
X152194000Y-65610000D01*
X152093000Y-65668000D01*
X151989000Y-65720000D01*
X151882000Y-65765000D01*
X151772000Y-65804000D01*
X151660000Y-65836000D01*
X151547000Y-65861000D01*
X151432000Y-65879000D01*
X151316000Y-65889000D01*
X151200000Y-65893000D01*
X151084000Y-65889000D01*
X150968000Y-65879000D01*
X150853000Y-65861000D01*
X150740000Y-65836000D01*
X150628000Y-65804000D01*
X150518000Y-65765000D01*
X150411000Y-65720000D01*
X150307000Y-65668000D01*
X150206000Y-65610000D01*
X150109000Y-65546000D01*
X150017000Y-65475000D01*
X149928000Y-65400000D01*
X149845000Y-65319000D01*
X149767000Y-65233000D01*
X149700000Y-65150000D01*
X148750000Y-65150000D01*
X148750000Y-66800000D01*
G36*
X149767000Y-65233000D02*
G01*
X149845000Y-65319000D01*
X149928000Y-65400000D01*
X150017000Y-65475000D01*
X150109000Y-65546000D01*
X150206000Y-65610000D01*
X150307000Y-65668000D01*
X150411000Y-65720000D01*
X150518000Y-65765000D01*
X150628000Y-65804000D01*
X150740000Y-65836000D01*
X150853000Y-65861000D01*
X150968000Y-65879000D01*
X151084000Y-65889000D01*
X151200000Y-65893000D01*
X151316000Y-65889000D01*
X151432000Y-65879000D01*
X151547000Y-65861000D01*
X151660000Y-65836000D01*
X151772000Y-65804000D01*
X151882000Y-65765000D01*
X151989000Y-65720000D01*
X152093000Y-65668000D01*
X152194000Y-65610000D01*
X152291000Y-65546000D01*
X152383000Y-65475000D01*
X152472000Y-65400000D01*
X152555000Y-65319000D01*
X152633000Y-65233000D01*
X152700000Y-65150000D01*
X153650000Y-65150000D01*
X153650000Y-66800000D01*
X148750000Y-66800000D01*
X148750000Y-65150000D01*
X149700000Y-65150000D01*
X149767000Y-65233000D01*
G37*
X153650000Y-61100000D02*
X148750000Y-61100000D01*
X148750000Y-62750000D01*
X149700000Y-62750000D01*
X149767000Y-62667000D01*
X149845000Y-62581000D01*
X149928000Y-62500000D01*
X150017000Y-62425000D01*
X150109000Y-62354000D01*
X150206000Y-62290000D01*
X150307000Y-62232000D01*
X150411000Y-62180000D01*
X150518000Y-62135000D01*
X150628000Y-62096000D01*
X150740000Y-62064000D01*
X150853000Y-62039000D01*
X150968000Y-62021000D01*
X151084000Y-62011000D01*
X151200000Y-62007000D01*
X151316000Y-62011000D01*
X151432000Y-62021000D01*
X151547000Y-62039000D01*
X151660000Y-62064000D01*
X151772000Y-62096000D01*
X151882000Y-62135000D01*
X151989000Y-62180000D01*
X152093000Y-62232000D01*
X152194000Y-62290000D01*
X152291000Y-62354000D01*
X152383000Y-62425000D01*
X152472000Y-62500000D01*
X152555000Y-62581000D01*
X152633000Y-62667000D01*
X152700000Y-62750000D01*
X153650000Y-62750000D01*
X153650000Y-61100000D01*
G36*
X153650000Y-62750000D02*
G01*
X152700000Y-62750000D01*
X152633000Y-62667000D01*
X152555000Y-62581000D01*
X152472000Y-62500000D01*
X152383000Y-62425000D01*
X152291000Y-62354000D01*
X152194000Y-62290000D01*
X152093000Y-62232000D01*
X151989000Y-62180000D01*
X151882000Y-62135000D01*
X151772000Y-62096000D01*
X151660000Y-62064000D01*
X151547000Y-62039000D01*
X151432000Y-62021000D01*
X151316000Y-62011000D01*
X151200000Y-62007000D01*
X151084000Y-62011000D01*
X150968000Y-62021000D01*
X150853000Y-62039000D01*
X150740000Y-62064000D01*
X150628000Y-62096000D01*
X150518000Y-62135000D01*
X150411000Y-62180000D01*
X150307000Y-62232000D01*
X150206000Y-62290000D01*
X150109000Y-62354000D01*
X150017000Y-62425000D01*
X149928000Y-62500000D01*
X149845000Y-62581000D01*
X149767000Y-62667000D01*
X149700000Y-62750000D01*
X148750000Y-62750000D01*
X148750000Y-61100000D01*
X153650000Y-61100000D01*
X153650000Y-62750000D01*
G37*
D10*
%TO.C,L2*%
X169350000Y-56400000D02*
X169350000Y-53200000D01*
X167650000Y-53200000D01*
X167650000Y-53950000D01*
X166150000Y-53950000D01*
X166150000Y-55650000D01*
X167650000Y-55650000D01*
X167650000Y-56400000D01*
X169350000Y-56400000D01*
G36*
X169350000Y-56400000D02*
G01*
X167650000Y-56400000D01*
X167650000Y-55650000D01*
X166150000Y-55650000D01*
X166150000Y-53950000D01*
X167650000Y-53950000D01*
X167650000Y-53200000D01*
X169350000Y-53200000D01*
X169350000Y-56400000D01*
G37*
X170650000Y-53200000D02*
X170650000Y-56400000D01*
X172350000Y-56400000D01*
X172350000Y-55650000D01*
X173850000Y-55650000D01*
X173850000Y-53950000D01*
X172350000Y-53950000D01*
X172350000Y-53200000D01*
X170650000Y-53200000D01*
G36*
X172350000Y-53950000D02*
G01*
X173850000Y-53950000D01*
X173850000Y-55650000D01*
X172350000Y-55650000D01*
X172350000Y-56400000D01*
X170650000Y-56400000D01*
X170650000Y-53200000D01*
X172350000Y-53200000D01*
X172350000Y-53950000D01*
G37*
%TD*%
D12*
%TO.C,WirePad3*%
X154500000Y-120000000D03*
%TD*%
%TO.C,WirePad4*%
X163100000Y-120000000D03*
%TD*%
D13*
%TO.C,J9*%
X171955000Y-89335000D03*
X180955000Y-89335000D03*
D14*
X174955000Y-91295000D03*
D15*
X177955000Y-91295000D03*
%TD*%
D16*
%TO.C,C13*%
X133232323Y-116000000D03*
D17*
X138232323Y-116000000D03*
%TD*%
%TO.C,C4*%
X181400000Y-112100000D03*
X181400000Y-102100000D03*
%TD*%
D12*
%TO.C,WirePad2*%
X181600000Y-98000000D03*
%TD*%
%TO.C,Earth1*%
X136900000Y-96100000D03*
%TD*%
D17*
%TO.C,C5*%
X161100000Y-93700000D03*
X153600000Y-96700000D03*
%TD*%
%TO.C,C6*%
X149250000Y-93800000D03*
X141750000Y-96800000D03*
%TD*%
D18*
%TO.C,MH2*%
X181800000Y-43200000D03*
%TD*%
%TO.C,MH4*%
X123200000Y-146800000D03*
%TD*%
D19*
%TO.C,PS1*%
X153512500Y-107100000D03*
X149512500Y-107100000D03*
X145512500Y-107100000D03*
X141512500Y-107100000D03*
X133512500Y-107100000D03*
X129512500Y-107100000D03*
%TD*%
D12*
%TO.C,WirePad1*%
X168100000Y-96400000D03*
%TD*%
D20*
%TO.C,C15*%
X132900000Y-124100000D03*
D21*
X132900000Y-127600000D03*
%TD*%
D22*
%TO.C,J8*%
X178620000Y-83040000D03*
X178620000Y-77260000D03*
D23*
X178120000Y-84470000D03*
X178120000Y-75830000D03*
D24*
X182300000Y-84470000D03*
X182300000Y-75830000D03*
%TD*%
D25*
%TO.C,J7*%
X180900000Y-56295000D03*
D26*
X180900000Y-58835000D03*
X180900000Y-61375000D03*
X180900000Y-63915000D03*
%TD*%
D18*
%TO.C,MH3*%
X181800000Y-146800000D03*
%TD*%
D27*
%TO.C,T2*%
X164655250Y-126000000D03*
D28*
X167195250Y-126000000D03*
X169735250Y-126000000D03*
%TD*%
D29*
%TO.C,MOV1*%
X172300000Y-99500000D03*
X176080000Y-107000000D03*
%TD*%
D27*
%TO.C,T1*%
X152505250Y-126000000D03*
D28*
X155045250Y-126000000D03*
X157585250Y-126000000D03*
%TD*%
D27*
%TO.C,T3*%
X176805250Y-126000000D03*
D28*
X179345250Y-126000000D03*
X181885250Y-126000000D03*
%TD*%
D17*
%TO.C,C12*%
X146250000Y-123800000D03*
X138750000Y-126800000D03*
%TD*%
D30*
%TO.C,C7*%
X149100000Y-116000000D03*
D17*
X144100000Y-116000000D03*
%TD*%
D31*
%TO.C,LF1*%
X157700000Y-114300000D03*
X167700000Y-114300000D03*
X167700000Y-101300000D03*
X157700000Y-101300000D03*
%TD*%
D12*
%TO.C,WirePad5*%
X168400000Y-120000000D03*
%TD*%
D18*
%TO.C,MH1*%
X123200000Y-43200000D03*
%TD*%
D32*
%TO.C,R19*%
X164370000Y-54800000D03*
X162545000Y-54800000D03*
%TD*%
D33*
%TO.C,D2*%
X147177500Y-59587500D03*
X143697500Y-59587500D03*
%TD*%
D34*
%TO.C,J6*%
X136700000Y-79650000D03*
D35*
X136700000Y-80900000D03*
X136700000Y-82150000D03*
X136700000Y-83400000D03*
%TD*%
D36*
%TO.C,R17*%
X135637500Y-55262500D03*
X135637500Y-58187500D03*
%TD*%
D37*
%TO.C,PS3*%
X142800000Y-55950000D03*
X142800000Y-56900000D03*
X142800000Y-57850000D03*
X140290000Y-57850000D03*
X140290000Y-56900000D03*
X140290000Y-55950000D03*
%TD*%
D38*
%TO.C,C8*%
X148937500Y-54787500D03*
X148937500Y-57737500D03*
%TD*%
D39*
%TO.C,FPC1*%
X132500000Y-142725000D03*
D40*
X132800000Y-145600000D03*
D39*
X133100000Y-142725000D03*
D40*
X133400000Y-145600000D03*
D39*
X133700000Y-142725000D03*
D40*
X134000000Y-145600000D03*
D39*
X134300000Y-142725000D03*
D40*
X134600000Y-145600000D03*
D39*
X134900000Y-142725000D03*
D40*
X135200000Y-145600000D03*
D39*
X135500000Y-142725000D03*
D40*
X135800000Y-145600000D03*
D39*
X136100000Y-142725000D03*
D40*
X136400000Y-145600000D03*
D39*
X136700000Y-142725000D03*
D40*
X137000000Y-145600000D03*
D39*
X137300000Y-142725000D03*
D40*
X137600000Y-145600000D03*
D39*
X137900000Y-142725000D03*
D40*
X138200000Y-145600000D03*
D39*
X138500000Y-142725000D03*
D40*
X138800000Y-145600000D03*
D39*
X139100000Y-142725000D03*
D40*
X139400000Y-145600000D03*
D39*
X139700000Y-142725000D03*
D40*
X140000000Y-145600000D03*
D39*
X140300000Y-142725000D03*
D40*
X140600000Y-145600000D03*
D39*
X140900000Y-142725000D03*
D40*
X141200000Y-145600000D03*
D39*
X141500000Y-142725000D03*
D40*
X141800000Y-145600000D03*
D39*
X142100000Y-142725000D03*
D40*
X142400000Y-145600000D03*
D39*
X142700000Y-142725000D03*
D40*
X143000000Y-145600000D03*
D39*
X143300000Y-142725000D03*
D40*
X143600000Y-145600000D03*
D39*
X143900000Y-142725000D03*
D41*
X131800000Y-143000000D03*
X144600000Y-143000000D03*
%TD*%
D42*
%TO.C,J2*%
X163600000Y-42100000D03*
X153600000Y-42100000D03*
X163600000Y-44600000D03*
X153600000Y-44600000D03*
X158600000Y-49600000D03*
D43*
X158600000Y-44600000D03*
D44*
X163600000Y-49600000D03*
X153600000Y-49600000D03*
%TD*%
D45*
%TO.C,C11*%
X175690000Y-60420000D03*
X175690000Y-62320000D03*
%TD*%
%TO.C,C14*%
X167495000Y-58987500D03*
X167495000Y-60887500D03*
%TD*%
D46*
%TO.C,R15*%
X172325000Y-57500000D03*
X170675000Y-57500000D03*
%TD*%
D42*
%TO.C,J1*%
X176200000Y-42100000D03*
X166200000Y-42100000D03*
X176200000Y-44600000D03*
X166200000Y-44600000D03*
X171200000Y-49600000D03*
D43*
X171200000Y-44600000D03*
D44*
X176200000Y-49600000D03*
X166200000Y-49600000D03*
%TD*%
D47*
%TO.C,R16*%
X144937500Y-56402500D03*
X144937500Y-57422500D03*
%TD*%
D17*
%TO.C,FID2*%
X123000000Y-48000000D03*
%TD*%
D48*
%TO.C,MOC1*%
X150845250Y-135540000D03*
D49*
X150845250Y-133000000D03*
X150845250Y-130460000D03*
X158465250Y-130460000D03*
X158465250Y-133000000D03*
X158465250Y-135540000D03*
%TD*%
D42*
%TO.C,J5*%
X122100000Y-54000000D03*
X122100000Y-64000000D03*
X124600000Y-54000000D03*
X124600000Y-64000000D03*
X129600000Y-59000000D03*
D44*
X124600000Y-59000000D03*
D43*
X129600000Y-54000000D03*
X129600000Y-64000000D03*
%TD*%
D50*
%TO.C,C41*%
X175600000Y-89000000D03*
X176560000Y-89000000D03*
%TD*%
D42*
%TO.C,J3*%
X151000000Y-42100000D03*
X141000000Y-42100000D03*
X151000000Y-44600000D03*
X141000000Y-44600000D03*
X146000000Y-49600000D03*
D43*
X146000000Y-44600000D03*
D44*
X151000000Y-49600000D03*
X141000000Y-49600000D03*
%TD*%
D51*
%TO.C,PS2*%
X173205000Y-59050000D03*
X173205000Y-60000000D03*
X173205000Y-60950000D03*
X170695000Y-60950000D03*
X170695000Y-60000000D03*
X170695000Y-59050000D03*
%TD*%
D52*
%TO.C,R18*%
X174620000Y-89000000D03*
X173600000Y-89000000D03*
%TD*%
D38*
%TO.C,C18*%
X158332500Y-56950000D03*
X158332500Y-59900000D03*
%TD*%
D17*
%TO.C,FID6*%
X128000000Y-135000000D03*
%TD*%
D38*
%TO.C,C20*%
X152907500Y-55075000D03*
X152907500Y-58025000D03*
%TD*%
D45*
%TO.C,C16*%
X143837500Y-61837500D03*
X143837500Y-63737500D03*
%TD*%
D42*
%TO.C,J4*%
X138400000Y-42100000D03*
X128400000Y-42100000D03*
X138400000Y-44600000D03*
X128400000Y-44600000D03*
X133400000Y-49600000D03*
D43*
X133400000Y-44600000D03*
D44*
X138400000Y-49600000D03*
X128400000Y-49600000D03*
%TD*%
D53*
%TO.C,R40*%
X177600000Y-89000000D03*
X178620000Y-89000000D03*
%TD*%
D47*
%TO.C,R20*%
X165300000Y-59390000D03*
X165300000Y-60410000D03*
%TD*%
D54*
%TO.C,C9*%
X146737500Y-56320000D03*
X146737500Y-57280000D03*
%TD*%
D48*
%TO.C,MOC2*%
X162845250Y-135540000D03*
D49*
X162845250Y-133000000D03*
X162845250Y-130460000D03*
X170465250Y-130460000D03*
X170465250Y-133000000D03*
X170465250Y-135540000D03*
%TD*%
D55*
%TO.C,C10*%
X177900000Y-63345000D03*
X177900000Y-60395000D03*
%TD*%
D56*
%TO.C,U3*%
X181030000Y-115600000D03*
D21*
X181030000Y-118140000D03*
X181030000Y-120680000D03*
X173410000Y-120680000D03*
X173410000Y-118140000D03*
X173410000Y-115600000D03*
%TD*%
D17*
%TO.C,FID4*%
X182000000Y-48000000D03*
%TD*%
D48*
%TO.C,MOC3*%
X174845250Y-135540000D03*
D49*
X174845250Y-133000000D03*
X174845250Y-130460000D03*
X182465250Y-130460000D03*
X182465250Y-133000000D03*
X182465250Y-135540000D03*
%TD*%
D38*
%TO.C,C19*%
X155600000Y-56887500D03*
X155600000Y-59837500D03*
%TD*%
D45*
%TO.C,C36*%
X138037500Y-56387500D03*
X138037500Y-58287500D03*
%TD*%
M02*
