M48
; DRILL file KiCad 10.0.5 date 2026-07-28T17:41:11
; FORMAT={-:-/ absolute / metric / decimal}
; #@! TF.CreationDate,2026-07-28T17:41:11-05:00
; #@! TF.GenerationSoftware,Kicad,Pcbnew,10.0.5
; #@! TF.FileFunction,MixedPlating,1,2
FMAT,2
METRIC
; #@! TA.AperFunction,Plated,PTH,ViaDrill
T1C0.300
; #@! TA.AperFunction,Plated,PTH,ComponentDrill
T2C0.300
; #@! TA.AperFunction,Plated,PTH,ViaDrill
T3C0.350
; #@! TA.AperFunction,Plated,PTH,ViaDrill
T4C0.400
; #@! TA.AperFunction,Plated,PTH,ComponentDrill
T5C0.600
; #@! TA.AperFunction,Plated,PTH,ComponentDrill
T6C0.740
; #@! TA.AperFunction,Plated,PTH,ComponentDrill
T7C0.800
; #@! TA.AperFunction,Plated,PTH,ComponentDrill
T8C1.000
; #@! TA.AperFunction,Plated,PTH,ComponentDrill
T9C1.020
; #@! TA.AperFunction,Plated,PTH,ComponentDrill
T10C1.100
; #@! TA.AperFunction,Plated,PTH,ComponentDrill
T11C1.400
; #@! TA.AperFunction,Plated,PTH,ComponentDrill
T12C2.150
; #@! TA.AperFunction,NonPlated,NPTH,ComponentDrill
T13C0.650
; #@! TA.AperFunction,NonPlated,NPTH,ComponentDrill
T14C1.200
; #@! TA.AperFunction,NonPlated,NPTH,ComponentDrill
T15C1.270
; #@! TA.AperFunction,NonPlated,NPTH,ComponentDrill
T16C3.200
%
G90
G05
T1
X121.9Y-94.8
X121.95Y-86.7
X121.97Y-66.175
X122.625Y-89.6
X122.8Y-87.2
X123.125Y-81.67
X123.8Y-94.3
X124.017Y-99.117
X124.8Y-95.4
X124.867Y-98.267
X124.9Y-96.8
X124.975Y-84.13
X125.0Y-76.6
X125.696Y-81.302
X125.8Y-95.5
X125.9Y-76.1
X126.5Y-77.3
X126.971Y-95.188
X127.141Y-96.841
X127.5Y-77.1
X128.4Y-85.7
X129.95Y-69.763
X129.95Y-72.722
X130.0Y-86.6
X130.39Y-85.9
X131.025Y-71.3
X131.6Y-85.9
X132.1Y-75.7
X132.2Y-51.2
X132.404Y-87.155
X132.681Y-66.481
X133.025Y-74.8
X133.025Y-86.515
X133.325Y-63.8
X133.5Y-98.2
X133.975Y-76.9
X135.2Y-79.7
X135.7Y-59.8
X135.8Y-76.6
X135.8Y-85.4
X135.879Y-88.707
X136.4Y-88.1
X136.6Y-84.6
X136.89Y-66.78
X137.143Y-87.443
X137.4Y-86.1
X137.5Y-74.7
X138.3Y-141.5
X138.3Y-146.5
X138.9Y-74.3
X138.9Y-75.7
X141.6Y-53.7
X141.695Y-59.595
X141.8Y-69.2
X142.1Y-63.0
X142.1Y-67.2
X142.2Y-75.98
X142.2Y-90.5
X143.9Y-64.8
X143.9Y-66.8
X144.1Y-89.7
X145.1Y-81.2
X145.2Y-83.0
X145.6Y-71.6
X145.7Y-58.0
X145.7Y-61.2
X145.85Y-143.3
X146.6Y-87.8
X147.0Y-68.0
X148.042Y-74.042
X148.5Y-85.9
X148.6Y-88.1
X150.0Y-75.9
X150.7Y-73.5
X152.7Y-68.0
X153.0Y-129.5
X153.4Y-84.725
X153.5Y-82.5
X154.2Y-91.1
X154.7Y-79.4
X154.776Y-85.124
X155.4Y-80.4
X155.746Y-68.625
X155.9Y-84.1
X156.0Y-81.7
X156.331Y-67.475
X157.0Y-62.0
X157.68Y-90.8
X157.9Y-81.7
X158.1Y-88.152
X158.6Y-80.4
X158.7Y-76.6
X160.2Y-65.4
X160.8Y-66.8
X161.7Y-65.4
X162.1Y-131.5
X162.4Y-80.8
X162.52Y-81.641
X162.7Y-84.1
X163.0Y-78.4
X163.266Y-84.725
X163.864Y-85.325
X164.127Y-63.922
X165.0Y-61.4
X165.0Y-87.5
X165.2Y-129.4
X167.5Y-62.1
X167.502Y-65.9
X167.6Y-84.7
X169.1Y-73.1
X169.1Y-74.447
X170.8Y-75.0
X171.3Y-83.5
X172.417Y-94.482
X173.8Y-57.9
X174.4Y-83.1
X175.6Y-89.0
X176.4Y-71.9
X176.41Y-121.7
X177.1Y-129.5
X179.0Y-74.8
X180.1Y-91.3
X180.5Y-76.5
X180.8Y-80.0
X181.22Y-86.025
X183.4Y-65.7
X184.1Y-71.8
T2
X149.41Y-78.545
X149.41Y-79.945
X150.11Y-77.845
X150.11Y-79.245
X150.11Y-80.645
X150.81Y-78.545
X150.81Y-79.945
X151.51Y-77.845
X151.51Y-79.245
X151.51Y-80.645
X152.21Y-78.545
X152.21Y-79.945
T3
X130.85Y-89.9
X134.5Y-88.9
X138.8Y-82.3
X138.8Y-84.2
X139.0Y-80.5
X140.7Y-75.3
X141.6Y-77.7
X151.0Y-55.2
X171.1Y-85.7
X172.353Y-112.09
X178.11Y-120.3
T4
X122.6Y-97.5
X127.6Y-95.9
X131.987Y-92.387
X134.47Y-78.5
X134.877Y-75.823
X139.4Y-90.7
X148.7Y-53.4
X161.9Y-61.6
X167.3Y-134.0
X174.0Y-63.6
X176.0Y-56.9
X177.4Y-65.2
X179.6Y-133.1
T5
X136.7Y-79.65
X136.7Y-80.9
X136.7Y-82.15
X136.7Y-83.4
T6
X150.845Y-130.46
X150.845Y-133.0
X150.845Y-135.54
X158.465Y-130.46
X158.465Y-133.0
X158.465Y-135.54
X162.845Y-130.46
X162.845Y-133.0
X162.845Y-135.54
X170.465Y-130.46
X170.465Y-133.0
X170.465Y-135.54
X174.845Y-130.46
X174.845Y-133.0
X174.845Y-135.54
X182.465Y-130.46
X182.465Y-133.0
X182.465Y-135.54
T7
X132.9Y-124.1
X132.9Y-127.6
X173.41Y-115.6
X173.41Y-118.14
X173.41Y-120.68
X181.03Y-115.6
X181.03Y-118.14
X181.03Y-120.68
T8
X133.232Y-116.0
X138.232Y-116.0
X138.75Y-126.8
X141.75Y-96.8
X144.1Y-116.0
X146.25Y-123.8
X149.1Y-116.0
X149.25Y-93.8
X153.6Y-96.7
X157.7Y-101.3
X157.7Y-114.3
X161.1Y-93.7
X167.7Y-101.3
X167.7Y-114.3
X172.3Y-99.5
X176.08Y-107.0
X180.9Y-56.295
X180.9Y-58.835
X180.9Y-61.375
X180.9Y-63.915
X181.4Y-102.1
X181.4Y-112.1
T9
X174.955Y-91.295
X177.955Y-91.295
T10
X152.505Y-126.0
X155.045Y-126.0
X157.585Y-126.0
X164.655Y-126.0
X167.195Y-126.0
X169.735Y-126.0
X176.805Y-126.0
X179.345Y-126.0
X181.885Y-126.0
T12
X136.9Y-96.1
X154.5Y-120.0
X163.1Y-120.0
X168.1Y-96.4
X168.4Y-120.0
X181.6Y-98.0
T13
X178.62Y-77.26
X178.62Y-83.04
T14
X122.1Y-54.0
X122.1Y-64.0
X124.6Y-54.0
X124.6Y-64.0
X128.4Y-42.1
X128.4Y-44.6
X129.6Y-59.0
X133.4Y-49.6
X138.4Y-42.1
X138.4Y-44.6
X141.0Y-42.1
X141.0Y-44.6
X146.0Y-49.6
X151.0Y-42.1
X151.0Y-44.6
X153.6Y-42.1
X153.6Y-44.6
X158.6Y-49.6
X163.6Y-42.1
X163.6Y-44.6
X166.2Y-42.1
X166.2Y-44.6
X171.2Y-49.6
X176.2Y-42.1
X176.2Y-44.6
T15
X171.955Y-89.335
X180.955Y-89.335
T16
X123.2Y-43.2
X123.2Y-146.8
X181.8Y-43.2
X181.8Y-146.8
T5
X177.57Y-75.83G85X178.67Y-75.83
G05
X177.57Y-84.47G85X178.67Y-84.47
G05
X181.9Y-75.83G85X182.7Y-75.83
G05
X181.9Y-84.47G85X182.7Y-84.47
G05
T7
X124.6Y-58.65G85X124.6Y-59.35
G05
X128.4Y-49.25G85X128.4Y-49.95
G05
X129.25Y-54.0G85X129.95Y-54.0
G05
X129.25Y-64.0G85X129.95Y-64.0
G05
X133.75Y-44.6G85X133.05Y-44.6
G05
X138.4Y-49.25G85X138.4Y-49.95
G05
X141.0Y-49.25G85X141.0Y-49.95
G05
X146.35Y-44.6G85X145.65Y-44.6
G05
X151.0Y-49.25G85X151.0Y-49.95
G05
X153.6Y-49.25G85X153.6Y-49.95
G05
X158.95Y-44.6G85X158.25Y-44.6
G05
X163.6Y-49.25G85X163.6Y-49.95
G05
X166.2Y-49.25G85X166.2Y-49.95
G05
X171.55Y-44.6G85X170.85Y-44.6
G05
X176.2Y-49.25G85X176.2Y-49.95
G05
T11
X129.812Y-107.1G85X129.213Y-107.1
G05
X133.812Y-107.1G85X133.213Y-107.1
G05
X141.812Y-107.1G85X141.213Y-107.1
G05
X145.812Y-107.1G85X145.213Y-107.1
G05
X149.812Y-107.1G85X149.213Y-107.1
G05
X153.812Y-107.1G85X153.213Y-107.1
G05
M30
