%TF.GenerationSoftware,KiCad,Pcbnew,10.0.5*%
%TF.CreationDate,2026-07-28T17:41:11-05:00*%
%TF.ProjectId,PelletPirate_V4,50656c6c-6574-4506-9972-6174655f5634,rev?*%
%TF.SameCoordinates,Original*%
%TF.FileFunction,Legend,Bot*%
%TF.FilePolarity,Positive*%
%FSLAX46Y46*%
G04 Gerber Fmt 4.6, Leading zero omitted, Abs format (unit mm)*
G04 Created by KiCad (PCBNEW 10.0.5) date 2026-07-28 17:41:11*
%MOMM*%
%LPD*%
G01*
G04 APERTURE LIST*
%ADD10C,0.150000*%
%ADD11C,0.160000*%
%ADD12C,0.203200*%
%ADD13C,0.120000*%
%ADD14C,0.127000*%
%ADD15C,0.200000*%
G04 APERTURE END LIST*
D10*
X160794285Y-91162295D02*
X161060952Y-90781342D01*
X161251428Y-91162295D02*
X161251428Y-90362295D01*
X161251428Y-90362295D02*
X160946666Y-90362295D01*
X160946666Y-90362295D02*
X160870476Y-90400390D01*
X160870476Y-90400390D02*
X160832381Y-90438485D01*
X160832381Y-90438485D02*
X160794285Y-90514676D01*
X160794285Y-90514676D02*
X160794285Y-90628961D01*
X160794285Y-90628961D02*
X160832381Y-90705152D01*
X160832381Y-90705152D02*
X160870476Y-90743247D01*
X160870476Y-90743247D02*
X160946666Y-90781342D01*
X160946666Y-90781342D02*
X161251428Y-90781342D01*
X160527619Y-90362295D02*
X160032381Y-90362295D01*
X160032381Y-90362295D02*
X160299047Y-90667057D01*
X160299047Y-90667057D02*
X160184762Y-90667057D01*
X160184762Y-90667057D02*
X160108571Y-90705152D01*
X160108571Y-90705152D02*
X160070476Y-90743247D01*
X160070476Y-90743247D02*
X160032381Y-90819438D01*
X160032381Y-90819438D02*
X160032381Y-91009914D01*
X160032381Y-91009914D02*
X160070476Y-91086104D01*
X160070476Y-91086104D02*
X160108571Y-91124200D01*
X160108571Y-91124200D02*
X160184762Y-91162295D01*
X160184762Y-91162295D02*
X160413333Y-91162295D01*
X160413333Y-91162295D02*
X160489524Y-91124200D01*
X160489524Y-91124200D02*
X160527619Y-91086104D01*
X159346666Y-90362295D02*
X159499047Y-90362295D01*
X159499047Y-90362295D02*
X159575238Y-90400390D01*
X159575238Y-90400390D02*
X159613333Y-90438485D01*
X159613333Y-90438485D02*
X159689523Y-90552771D01*
X159689523Y-90552771D02*
X159727619Y-90705152D01*
X159727619Y-90705152D02*
X159727619Y-91009914D01*
X159727619Y-91009914D02*
X159689523Y-91086104D01*
X159689523Y-91086104D02*
X159651428Y-91124200D01*
X159651428Y-91124200D02*
X159575238Y-91162295D01*
X159575238Y-91162295D02*
X159422857Y-91162295D01*
X159422857Y-91162295D02*
X159346666Y-91124200D01*
X159346666Y-91124200D02*
X159308571Y-91086104D01*
X159308571Y-91086104D02*
X159270476Y-91009914D01*
X159270476Y-91009914D02*
X159270476Y-90819438D01*
X159270476Y-90819438D02*
X159308571Y-90743247D01*
X159308571Y-90743247D02*
X159346666Y-90705152D01*
X159346666Y-90705152D02*
X159422857Y-90667057D01*
X159422857Y-90667057D02*
X159575238Y-90667057D01*
X159575238Y-90667057D02*
X159651428Y-90705152D01*
X159651428Y-90705152D02*
X159689523Y-90743247D01*
X159689523Y-90743247D02*
X159727619Y-90819438D01*
X151206333Y-68249295D02*
X151587285Y-68249295D01*
X151587285Y-68249295D02*
X151587285Y-67449295D01*
X151015857Y-67449295D02*
X150520619Y-67449295D01*
X150520619Y-67449295D02*
X150787285Y-67754057D01*
X150787285Y-67754057D02*
X150673000Y-67754057D01*
X150673000Y-67754057D02*
X150596809Y-67792152D01*
X150596809Y-67792152D02*
X150558714Y-67830247D01*
X150558714Y-67830247D02*
X150520619Y-67906438D01*
X150520619Y-67906438D02*
X150520619Y-68096914D01*
X150520619Y-68096914D02*
X150558714Y-68173104D01*
X150558714Y-68173104D02*
X150596809Y-68211200D01*
X150596809Y-68211200D02*
X150673000Y-68249295D01*
X150673000Y-68249295D02*
X150901571Y-68249295D01*
X150901571Y-68249295D02*
X150977762Y-68211200D01*
X150977762Y-68211200D02*
X151015857Y-68173104D01*
X163971785Y-53512295D02*
X164238452Y-53131342D01*
X164428928Y-53512295D02*
X164428928Y-52712295D01*
X164428928Y-52712295D02*
X164124166Y-52712295D01*
X164124166Y-52712295D02*
X164047976Y-52750390D01*
X164047976Y-52750390D02*
X164009881Y-52788485D01*
X164009881Y-52788485D02*
X163971785Y-52864676D01*
X163971785Y-52864676D02*
X163971785Y-52978961D01*
X163971785Y-52978961D02*
X164009881Y-53055152D01*
X164009881Y-53055152D02*
X164047976Y-53093247D01*
X164047976Y-53093247D02*
X164124166Y-53131342D01*
X164124166Y-53131342D02*
X164428928Y-53131342D01*
X163209881Y-53512295D02*
X163667024Y-53512295D01*
X163438452Y-53512295D02*
X163438452Y-52712295D01*
X163438452Y-52712295D02*
X163514643Y-52826580D01*
X163514643Y-52826580D02*
X163590833Y-52902771D01*
X163590833Y-52902771D02*
X163667024Y-52940866D01*
X162828928Y-53512295D02*
X162676547Y-53512295D01*
X162676547Y-53512295D02*
X162600357Y-53474200D01*
X162600357Y-53474200D02*
X162562261Y-53436104D01*
X162562261Y-53436104D02*
X162486071Y-53321819D01*
X162486071Y-53321819D02*
X162447976Y-53169438D01*
X162447976Y-53169438D02*
X162447976Y-52864676D01*
X162447976Y-52864676D02*
X162486071Y-52788485D01*
X162486071Y-52788485D02*
X162524166Y-52750390D01*
X162524166Y-52750390D02*
X162600357Y-52712295D01*
X162600357Y-52712295D02*
X162752738Y-52712295D01*
X162752738Y-52712295D02*
X162828928Y-52750390D01*
X162828928Y-52750390D02*
X162867023Y-52788485D01*
X162867023Y-52788485D02*
X162905119Y-52864676D01*
X162905119Y-52864676D02*
X162905119Y-53055152D01*
X162905119Y-53055152D02*
X162867023Y-53131342D01*
X162867023Y-53131342D02*
X162828928Y-53169438D01*
X162828928Y-53169438D02*
X162752738Y-53207533D01*
X162752738Y-53207533D02*
X162600357Y-53207533D01*
X162600357Y-53207533D02*
X162524166Y-53169438D01*
X162524166Y-53169438D02*
X162486071Y-53131342D01*
X162486071Y-53131342D02*
X162447976Y-53055152D01*
X148760276Y-59096257D02*
X147959237Y-59096257D01*
X147959237Y-59096257D02*
X147959237Y-59286981D01*
X147959237Y-59286981D02*
X147997382Y-59401415D01*
X147997382Y-59401415D02*
X148073671Y-59477704D01*
X148073671Y-59477704D02*
X148149961Y-59515849D01*
X148149961Y-59515849D02*
X148302540Y-59553994D01*
X148302540Y-59553994D02*
X148416974Y-59553994D01*
X148416974Y-59553994D02*
X148569553Y-59515849D01*
X148569553Y-59515849D02*
X148645842Y-59477704D01*
X148645842Y-59477704D02*
X148722132Y-59401415D01*
X148722132Y-59401415D02*
X148760276Y-59286981D01*
X148760276Y-59286981D02*
X148760276Y-59096257D01*
X148035527Y-59859151D02*
X147997382Y-59897296D01*
X147997382Y-59897296D02*
X147959237Y-59973586D01*
X147959237Y-59973586D02*
X147959237Y-60164309D01*
X147959237Y-60164309D02*
X147997382Y-60240599D01*
X147997382Y-60240599D02*
X148035527Y-60278743D01*
X148035527Y-60278743D02*
X148111816Y-60316888D01*
X148111816Y-60316888D02*
X148188106Y-60316888D01*
X148188106Y-60316888D02*
X148302540Y-60278743D01*
X148302540Y-60278743D02*
X148760276Y-59821007D01*
X148760276Y-59821007D02*
X148760276Y-60316888D01*
X135266666Y-76612295D02*
X135266666Y-77183723D01*
X135266666Y-77183723D02*
X135304761Y-77298009D01*
X135304761Y-77298009D02*
X135380952Y-77374200D01*
X135380952Y-77374200D02*
X135495237Y-77412295D01*
X135495237Y-77412295D02*
X135571428Y-77412295D01*
X134542856Y-76612295D02*
X134695237Y-76612295D01*
X134695237Y-76612295D02*
X134771428Y-76650390D01*
X134771428Y-76650390D02*
X134809523Y-76688485D01*
X134809523Y-76688485D02*
X134885713Y-76802771D01*
X134885713Y-76802771D02*
X134923809Y-76955152D01*
X134923809Y-76955152D02*
X134923809Y-77259914D01*
X134923809Y-77259914D02*
X134885713Y-77336104D01*
X134885713Y-77336104D02*
X134847618Y-77374200D01*
X134847618Y-77374200D02*
X134771428Y-77412295D01*
X134771428Y-77412295D02*
X134619047Y-77412295D01*
X134619047Y-77412295D02*
X134542856Y-77374200D01*
X134542856Y-77374200D02*
X134504761Y-77336104D01*
X134504761Y-77336104D02*
X134466666Y-77259914D01*
X134466666Y-77259914D02*
X134466666Y-77069438D01*
X134466666Y-77069438D02*
X134504761Y-76993247D01*
X134504761Y-76993247D02*
X134542856Y-76955152D01*
X134542856Y-76955152D02*
X134619047Y-76917057D01*
X134619047Y-76917057D02*
X134771428Y-76917057D01*
X134771428Y-76917057D02*
X134847618Y-76955152D01*
X134847618Y-76955152D02*
X134885713Y-76993247D01*
X134885713Y-76993247D02*
X134923809Y-77069438D01*
X135789285Y-60087295D02*
X136055952Y-59706342D01*
X136246428Y-60087295D02*
X136246428Y-59287295D01*
X136246428Y-59287295D02*
X135941666Y-59287295D01*
X135941666Y-59287295D02*
X135865476Y-59325390D01*
X135865476Y-59325390D02*
X135827381Y-59363485D01*
X135827381Y-59363485D02*
X135789285Y-59439676D01*
X135789285Y-59439676D02*
X135789285Y-59553961D01*
X135789285Y-59553961D02*
X135827381Y-59630152D01*
X135827381Y-59630152D02*
X135865476Y-59668247D01*
X135865476Y-59668247D02*
X135941666Y-59706342D01*
X135941666Y-59706342D02*
X136246428Y-59706342D01*
X135027381Y-60087295D02*
X135484524Y-60087295D01*
X135255952Y-60087295D02*
X135255952Y-59287295D01*
X135255952Y-59287295D02*
X135332143Y-59401580D01*
X135332143Y-59401580D02*
X135408333Y-59477771D01*
X135408333Y-59477771D02*
X135484524Y-59515866D01*
X134760714Y-59287295D02*
X134227380Y-59287295D01*
X134227380Y-59287295D02*
X134570238Y-60087295D01*
D11*
X142808928Y-54961775D02*
X142808928Y-54161775D01*
X142808928Y-54161775D02*
X142504166Y-54161775D01*
X142504166Y-54161775D02*
X142427976Y-54199870D01*
X142427976Y-54199870D02*
X142389881Y-54237965D01*
X142389881Y-54237965D02*
X142351785Y-54314156D01*
X142351785Y-54314156D02*
X142351785Y-54428441D01*
X142351785Y-54428441D02*
X142389881Y-54504632D01*
X142389881Y-54504632D02*
X142427976Y-54542727D01*
X142427976Y-54542727D02*
X142504166Y-54580822D01*
X142504166Y-54580822D02*
X142808928Y-54580822D01*
X142047024Y-54923680D02*
X141932738Y-54961775D01*
X141932738Y-54961775D02*
X141742262Y-54961775D01*
X141742262Y-54961775D02*
X141666071Y-54923680D01*
X141666071Y-54923680D02*
X141627976Y-54885584D01*
X141627976Y-54885584D02*
X141589881Y-54809394D01*
X141589881Y-54809394D02*
X141589881Y-54733203D01*
X141589881Y-54733203D02*
X141627976Y-54657013D01*
X141627976Y-54657013D02*
X141666071Y-54618918D01*
X141666071Y-54618918D02*
X141742262Y-54580822D01*
X141742262Y-54580822D02*
X141894643Y-54542727D01*
X141894643Y-54542727D02*
X141970833Y-54504632D01*
X141970833Y-54504632D02*
X142008928Y-54466537D01*
X142008928Y-54466537D02*
X142047024Y-54390346D01*
X142047024Y-54390346D02*
X142047024Y-54314156D01*
X142047024Y-54314156D02*
X142008928Y-54237965D01*
X142008928Y-54237965D02*
X141970833Y-54199870D01*
X141970833Y-54199870D02*
X141894643Y-54161775D01*
X141894643Y-54161775D02*
X141704166Y-54161775D01*
X141704166Y-54161775D02*
X141589881Y-54199870D01*
X141323214Y-54161775D02*
X140827976Y-54161775D01*
X140827976Y-54161775D02*
X141094642Y-54466537D01*
X141094642Y-54466537D02*
X140980357Y-54466537D01*
X140980357Y-54466537D02*
X140904166Y-54504632D01*
X140904166Y-54504632D02*
X140866071Y-54542727D01*
X140866071Y-54542727D02*
X140827976Y-54618918D01*
X140827976Y-54618918D02*
X140827976Y-54809394D01*
X140827976Y-54809394D02*
X140866071Y-54885584D01*
X140866071Y-54885584D02*
X140904166Y-54923680D01*
X140904166Y-54923680D02*
X140980357Y-54961775D01*
X140980357Y-54961775D02*
X141208928Y-54961775D01*
X141208928Y-54961775D02*
X141285119Y-54923680D01*
X141285119Y-54923680D02*
X141323214Y-54885584D01*
D10*
X150970832Y-56273604D02*
X151008928Y-56311700D01*
X151008928Y-56311700D02*
X151123213Y-56349795D01*
X151123213Y-56349795D02*
X151199404Y-56349795D01*
X151199404Y-56349795D02*
X151313690Y-56311700D01*
X151313690Y-56311700D02*
X151389880Y-56235509D01*
X151389880Y-56235509D02*
X151427975Y-56159319D01*
X151427975Y-56159319D02*
X151466071Y-56006938D01*
X151466071Y-56006938D02*
X151466071Y-55892652D01*
X151466071Y-55892652D02*
X151427975Y-55740271D01*
X151427975Y-55740271D02*
X151389880Y-55664080D01*
X151389880Y-55664080D02*
X151313690Y-55587890D01*
X151313690Y-55587890D02*
X151199404Y-55549795D01*
X151199404Y-55549795D02*
X151123213Y-55549795D01*
X151123213Y-55549795D02*
X151008928Y-55587890D01*
X151008928Y-55587890D02*
X150970832Y-55625985D01*
X150513690Y-55892652D02*
X150589880Y-55854557D01*
X150589880Y-55854557D02*
X150627975Y-55816461D01*
X150627975Y-55816461D02*
X150666071Y-55740271D01*
X150666071Y-55740271D02*
X150666071Y-55702176D01*
X150666071Y-55702176D02*
X150627975Y-55625985D01*
X150627975Y-55625985D02*
X150589880Y-55587890D01*
X150589880Y-55587890D02*
X150513690Y-55549795D01*
X150513690Y-55549795D02*
X150361309Y-55549795D01*
X150361309Y-55549795D02*
X150285118Y-55587890D01*
X150285118Y-55587890D02*
X150247023Y-55625985D01*
X150247023Y-55625985D02*
X150208928Y-55702176D01*
X150208928Y-55702176D02*
X150208928Y-55740271D01*
X150208928Y-55740271D02*
X150247023Y-55816461D01*
X150247023Y-55816461D02*
X150285118Y-55854557D01*
X150285118Y-55854557D02*
X150361309Y-55892652D01*
X150361309Y-55892652D02*
X150513690Y-55892652D01*
X150513690Y-55892652D02*
X150589880Y-55930747D01*
X150589880Y-55930747D02*
X150627975Y-55968842D01*
X150627975Y-55968842D02*
X150666071Y-56045033D01*
X150666071Y-56045033D02*
X150666071Y-56197414D01*
X150666071Y-56197414D02*
X150627975Y-56273604D01*
X150627975Y-56273604D02*
X150589880Y-56311700D01*
X150589880Y-56311700D02*
X150513690Y-56349795D01*
X150513690Y-56349795D02*
X150361309Y-56349795D01*
X150361309Y-56349795D02*
X150285118Y-56311700D01*
X150285118Y-56311700D02*
X150247023Y-56273604D01*
X150247023Y-56273604D02*
X150208928Y-56197414D01*
X150208928Y-56197414D02*
X150208928Y-56045033D01*
X150208928Y-56045033D02*
X150247023Y-55968842D01*
X150247023Y-55968842D02*
X150285118Y-55930747D01*
X150285118Y-55930747D02*
X150361309Y-55892652D01*
X143633333Y-141031009D02*
X143966666Y-141031009D01*
X143966666Y-141554819D02*
X143966666Y-140554819D01*
X143966666Y-140554819D02*
X143490476Y-140554819D01*
X143109523Y-141554819D02*
X143109523Y-140554819D01*
X143109523Y-140554819D02*
X142728571Y-140554819D01*
X142728571Y-140554819D02*
X142633333Y-140602438D01*
X142633333Y-140602438D02*
X142585714Y-140650057D01*
X142585714Y-140650057D02*
X142538095Y-140745295D01*
X142538095Y-140745295D02*
X142538095Y-140888152D01*
X142538095Y-140888152D02*
X142585714Y-140983390D01*
X142585714Y-140983390D02*
X142633333Y-141031009D01*
X142633333Y-141031009D02*
X142728571Y-141078628D01*
X142728571Y-141078628D02*
X143109523Y-141078628D01*
X141538095Y-141459580D02*
X141585714Y-141507200D01*
X141585714Y-141507200D02*
X141728571Y-141554819D01*
X141728571Y-141554819D02*
X141823809Y-141554819D01*
X141823809Y-141554819D02*
X141966666Y-141507200D01*
X141966666Y-141507200D02*
X142061904Y-141411961D01*
X142061904Y-141411961D02*
X142109523Y-141316723D01*
X142109523Y-141316723D02*
X142157142Y-141126247D01*
X142157142Y-141126247D02*
X142157142Y-140983390D01*
X142157142Y-140983390D02*
X142109523Y-140792914D01*
X142109523Y-140792914D02*
X142061904Y-140697676D01*
X142061904Y-140697676D02*
X141966666Y-140602438D01*
X141966666Y-140602438D02*
X141823809Y-140554819D01*
X141823809Y-140554819D02*
X141728571Y-140554819D01*
X141728571Y-140554819D02*
X141585714Y-140602438D01*
X141585714Y-140602438D02*
X141538095Y-140650057D01*
X140585714Y-141554819D02*
X141157142Y-141554819D01*
X140871428Y-141554819D02*
X140871428Y-140554819D01*
X140871428Y-140554819D02*
X140966666Y-140697676D01*
X140966666Y-140697676D02*
X141061904Y-140792914D01*
X141061904Y-140792914D02*
X141157142Y-140840533D01*
X153933354Y-52454786D02*
X153933354Y-53169116D01*
X153933354Y-53169116D02*
X153980976Y-53311982D01*
X153980976Y-53311982D02*
X154076220Y-53407227D01*
X154076220Y-53407227D02*
X154219086Y-53454849D01*
X154219086Y-53454849D02*
X154314330Y-53454849D01*
X153504755Y-52550030D02*
X153457133Y-52502408D01*
X153457133Y-52502408D02*
X153361889Y-52454786D01*
X153361889Y-52454786D02*
X153123779Y-52454786D01*
X153123779Y-52454786D02*
X153028535Y-52502408D01*
X153028535Y-52502408D02*
X152980913Y-52550030D01*
X152980913Y-52550030D02*
X152933291Y-52645274D01*
X152933291Y-52645274D02*
X152933291Y-52740518D01*
X152933291Y-52740518D02*
X152980913Y-52883384D01*
X152980913Y-52883384D02*
X153552377Y-53454849D01*
X153552377Y-53454849D02*
X152933291Y-53454849D01*
X176009285Y-63916104D02*
X176047381Y-63954200D01*
X176047381Y-63954200D02*
X176161666Y-63992295D01*
X176161666Y-63992295D02*
X176237857Y-63992295D01*
X176237857Y-63992295D02*
X176352143Y-63954200D01*
X176352143Y-63954200D02*
X176428333Y-63878009D01*
X176428333Y-63878009D02*
X176466428Y-63801819D01*
X176466428Y-63801819D02*
X176504524Y-63649438D01*
X176504524Y-63649438D02*
X176504524Y-63535152D01*
X176504524Y-63535152D02*
X176466428Y-63382771D01*
X176466428Y-63382771D02*
X176428333Y-63306580D01*
X176428333Y-63306580D02*
X176352143Y-63230390D01*
X176352143Y-63230390D02*
X176237857Y-63192295D01*
X176237857Y-63192295D02*
X176161666Y-63192295D01*
X176161666Y-63192295D02*
X176047381Y-63230390D01*
X176047381Y-63230390D02*
X176009285Y-63268485D01*
X175247381Y-63992295D02*
X175704524Y-63992295D01*
X175475952Y-63992295D02*
X175475952Y-63192295D01*
X175475952Y-63192295D02*
X175552143Y-63306580D01*
X175552143Y-63306580D02*
X175628333Y-63382771D01*
X175628333Y-63382771D02*
X175704524Y-63420866D01*
X174485476Y-63992295D02*
X174942619Y-63992295D01*
X174714047Y-63992295D02*
X174714047Y-63192295D01*
X174714047Y-63192295D02*
X174790238Y-63306580D01*
X174790238Y-63306580D02*
X174866428Y-63382771D01*
X174866428Y-63382771D02*
X174942619Y-63420866D01*
X167614285Y-57986104D02*
X167652381Y-58024200D01*
X167652381Y-58024200D02*
X167766666Y-58062295D01*
X167766666Y-58062295D02*
X167842857Y-58062295D01*
X167842857Y-58062295D02*
X167957143Y-58024200D01*
X167957143Y-58024200D02*
X168033333Y-57948009D01*
X168033333Y-57948009D02*
X168071428Y-57871819D01*
X168071428Y-57871819D02*
X168109524Y-57719438D01*
X168109524Y-57719438D02*
X168109524Y-57605152D01*
X168109524Y-57605152D02*
X168071428Y-57452771D01*
X168071428Y-57452771D02*
X168033333Y-57376580D01*
X168033333Y-57376580D02*
X167957143Y-57300390D01*
X167957143Y-57300390D02*
X167842857Y-57262295D01*
X167842857Y-57262295D02*
X167766666Y-57262295D01*
X167766666Y-57262295D02*
X167652381Y-57300390D01*
X167652381Y-57300390D02*
X167614285Y-57338485D01*
X166852381Y-58062295D02*
X167309524Y-58062295D01*
X167080952Y-58062295D02*
X167080952Y-57262295D01*
X167080952Y-57262295D02*
X167157143Y-57376580D01*
X167157143Y-57376580D02*
X167233333Y-57452771D01*
X167233333Y-57452771D02*
X167309524Y-57490866D01*
X166166666Y-57528961D02*
X166166666Y-58062295D01*
X166357142Y-57224200D02*
X166547619Y-57795628D01*
X166547619Y-57795628D02*
X166052380Y-57795628D01*
X169899795Y-57285714D02*
X169518842Y-57019047D01*
X169899795Y-56828571D02*
X169099795Y-56828571D01*
X169099795Y-56828571D02*
X169099795Y-57133333D01*
X169099795Y-57133333D02*
X169137890Y-57209523D01*
X169137890Y-57209523D02*
X169175985Y-57247618D01*
X169175985Y-57247618D02*
X169252176Y-57285714D01*
X169252176Y-57285714D02*
X169366461Y-57285714D01*
X169366461Y-57285714D02*
X169442652Y-57247618D01*
X169442652Y-57247618D02*
X169480747Y-57209523D01*
X169480747Y-57209523D02*
X169518842Y-57133333D01*
X169518842Y-57133333D02*
X169518842Y-56828571D01*
X169899795Y-58047618D02*
X169899795Y-57590475D01*
X169899795Y-57819047D02*
X169099795Y-57819047D01*
X169099795Y-57819047D02*
X169214080Y-57742856D01*
X169214080Y-57742856D02*
X169290271Y-57666666D01*
X169290271Y-57666666D02*
X169328366Y-57590475D01*
X169099795Y-58771428D02*
X169099795Y-58390476D01*
X169099795Y-58390476D02*
X169480747Y-58352380D01*
X169480747Y-58352380D02*
X169442652Y-58390476D01*
X169442652Y-58390476D02*
X169404557Y-58466666D01*
X169404557Y-58466666D02*
X169404557Y-58657142D01*
X169404557Y-58657142D02*
X169442652Y-58733333D01*
X169442652Y-58733333D02*
X169480747Y-58771428D01*
X169480747Y-58771428D02*
X169556938Y-58809523D01*
X169556938Y-58809523D02*
X169747414Y-58809523D01*
X169747414Y-58809523D02*
X169823604Y-58771428D01*
X169823604Y-58771428D02*
X169861700Y-58733333D01*
X169861700Y-58733333D02*
X169899795Y-58657142D01*
X169899795Y-58657142D02*
X169899795Y-58466666D01*
X169899795Y-58466666D02*
X169861700Y-58390476D01*
X169861700Y-58390476D02*
X169823604Y-58352380D01*
X178633354Y-50154786D02*
X178633354Y-50869116D01*
X178633354Y-50869116D02*
X178680976Y-51011982D01*
X178680976Y-51011982D02*
X178776220Y-51107227D01*
X178776220Y-51107227D02*
X178919086Y-51154849D01*
X178919086Y-51154849D02*
X179014330Y-51154849D01*
X177633291Y-51154849D02*
X178204755Y-51154849D01*
X177919023Y-51154849D02*
X177919023Y-50154786D01*
X177919023Y-50154786D02*
X178014267Y-50297652D01*
X178014267Y-50297652D02*
X178109511Y-50392896D01*
X178109511Y-50392896D02*
X178204755Y-50440518D01*
X145351785Y-55549795D02*
X145618452Y-55168842D01*
X145808928Y-55549795D02*
X145808928Y-54749795D01*
X145808928Y-54749795D02*
X145504166Y-54749795D01*
X145504166Y-54749795D02*
X145427976Y-54787890D01*
X145427976Y-54787890D02*
X145389881Y-54825985D01*
X145389881Y-54825985D02*
X145351785Y-54902176D01*
X145351785Y-54902176D02*
X145351785Y-55016461D01*
X145351785Y-55016461D02*
X145389881Y-55092652D01*
X145389881Y-55092652D02*
X145427976Y-55130747D01*
X145427976Y-55130747D02*
X145504166Y-55168842D01*
X145504166Y-55168842D02*
X145808928Y-55168842D01*
X144589881Y-55549795D02*
X145047024Y-55549795D01*
X144818452Y-55549795D02*
X144818452Y-54749795D01*
X144818452Y-54749795D02*
X144894643Y-54864080D01*
X144894643Y-54864080D02*
X144970833Y-54940271D01*
X144970833Y-54940271D02*
X145047024Y-54978366D01*
X143904166Y-54749795D02*
X144056547Y-54749795D01*
X144056547Y-54749795D02*
X144132738Y-54787890D01*
X144132738Y-54787890D02*
X144170833Y-54825985D01*
X144170833Y-54825985D02*
X144247023Y-54940271D01*
X144247023Y-54940271D02*
X144285119Y-55092652D01*
X144285119Y-55092652D02*
X144285119Y-55397414D01*
X144285119Y-55397414D02*
X144247023Y-55473604D01*
X144247023Y-55473604D02*
X144208928Y-55511700D01*
X144208928Y-55511700D02*
X144132738Y-55549795D01*
X144132738Y-55549795D02*
X143980357Y-55549795D01*
X143980357Y-55549795D02*
X143904166Y-55511700D01*
X143904166Y-55511700D02*
X143866071Y-55473604D01*
X143866071Y-55473604D02*
X143827976Y-55397414D01*
X143827976Y-55397414D02*
X143827976Y-55206938D01*
X143827976Y-55206938D02*
X143866071Y-55130747D01*
X143866071Y-55130747D02*
X143904166Y-55092652D01*
X143904166Y-55092652D02*
X143980357Y-55054557D01*
X143980357Y-55054557D02*
X144132738Y-55054557D01*
X144132738Y-55054557D02*
X144208928Y-55092652D01*
X144208928Y-55092652D02*
X144247023Y-55130747D01*
X144247023Y-55130747D02*
X144285119Y-55206938D01*
X124071428Y-49931009D02*
X124404761Y-49931009D01*
X124404761Y-50454819D02*
X124404761Y-49454819D01*
X124404761Y-49454819D02*
X123928571Y-49454819D01*
X123547618Y-50454819D02*
X123547618Y-49454819D01*
X123071428Y-50454819D02*
X123071428Y-49454819D01*
X123071428Y-49454819D02*
X122833333Y-49454819D01*
X122833333Y-49454819D02*
X122690476Y-49502438D01*
X122690476Y-49502438D02*
X122595238Y-49597676D01*
X122595238Y-49597676D02*
X122547619Y-49692914D01*
X122547619Y-49692914D02*
X122500000Y-49883390D01*
X122500000Y-49883390D02*
X122500000Y-50026247D01*
X122500000Y-50026247D02*
X122547619Y-50216723D01*
X122547619Y-50216723D02*
X122595238Y-50311961D01*
X122595238Y-50311961D02*
X122690476Y-50407200D01*
X122690476Y-50407200D02*
X122833333Y-50454819D01*
X122833333Y-50454819D02*
X123071428Y-50454819D01*
X122119047Y-49550057D02*
X122071428Y-49502438D01*
X122071428Y-49502438D02*
X121976190Y-49454819D01*
X121976190Y-49454819D02*
X121738095Y-49454819D01*
X121738095Y-49454819D02*
X121642857Y-49502438D01*
X121642857Y-49502438D02*
X121595238Y-49550057D01*
X121595238Y-49550057D02*
X121547619Y-49645295D01*
X121547619Y-49645295D02*
X121547619Y-49740533D01*
X121547619Y-49740533D02*
X121595238Y-49883390D01*
X121595238Y-49883390D02*
X122166666Y-50454819D01*
X122166666Y-50454819D02*
X121547619Y-50454819D01*
X159421916Y-128362295D02*
X159421916Y-127562295D01*
X159421916Y-127562295D02*
X159155250Y-128133723D01*
X159155250Y-128133723D02*
X158888583Y-127562295D01*
X158888583Y-127562295D02*
X158888583Y-128362295D01*
X158355249Y-127562295D02*
X158202868Y-127562295D01*
X158202868Y-127562295D02*
X158126678Y-127600390D01*
X158126678Y-127600390D02*
X158050487Y-127676580D01*
X158050487Y-127676580D02*
X158012392Y-127828961D01*
X158012392Y-127828961D02*
X158012392Y-128095628D01*
X158012392Y-128095628D02*
X158050487Y-128248009D01*
X158050487Y-128248009D02*
X158126678Y-128324200D01*
X158126678Y-128324200D02*
X158202868Y-128362295D01*
X158202868Y-128362295D02*
X158355249Y-128362295D01*
X158355249Y-128362295D02*
X158431440Y-128324200D01*
X158431440Y-128324200D02*
X158507630Y-128248009D01*
X158507630Y-128248009D02*
X158545726Y-128095628D01*
X158545726Y-128095628D02*
X158545726Y-127828961D01*
X158545726Y-127828961D02*
X158507630Y-127676580D01*
X158507630Y-127676580D02*
X158431440Y-127600390D01*
X158431440Y-127600390D02*
X158355249Y-127562295D01*
X157212392Y-128286104D02*
X157250488Y-128324200D01*
X157250488Y-128324200D02*
X157364773Y-128362295D01*
X157364773Y-128362295D02*
X157440964Y-128362295D01*
X157440964Y-128362295D02*
X157555250Y-128324200D01*
X157555250Y-128324200D02*
X157631440Y-128248009D01*
X157631440Y-128248009D02*
X157669535Y-128171819D01*
X157669535Y-128171819D02*
X157707631Y-128019438D01*
X157707631Y-128019438D02*
X157707631Y-127905152D01*
X157707631Y-127905152D02*
X157669535Y-127752771D01*
X157669535Y-127752771D02*
X157631440Y-127676580D01*
X157631440Y-127676580D02*
X157555250Y-127600390D01*
X157555250Y-127600390D02*
X157440964Y-127562295D01*
X157440964Y-127562295D02*
X157364773Y-127562295D01*
X157364773Y-127562295D02*
X157250488Y-127600390D01*
X157250488Y-127600390D02*
X157212392Y-127638485D01*
X156450488Y-128362295D02*
X156907631Y-128362295D01*
X156679059Y-128362295D02*
X156679059Y-127562295D01*
X156679059Y-127562295D02*
X156755250Y-127676580D01*
X156755250Y-127676580D02*
X156831440Y-127752771D01*
X156831440Y-127752771D02*
X156907631Y-127790866D01*
X120754786Y-51666645D02*
X121469116Y-51666645D01*
X121469116Y-51666645D02*
X121611982Y-51619023D01*
X121611982Y-51619023D02*
X121707227Y-51523779D01*
X121707227Y-51523779D02*
X121754849Y-51380913D01*
X121754849Y-51380913D02*
X121754849Y-51285669D01*
X120754786Y-52619086D02*
X120754786Y-52142866D01*
X120754786Y-52142866D02*
X121231006Y-52095244D01*
X121231006Y-52095244D02*
X121183384Y-52142866D01*
X121183384Y-52142866D02*
X121135762Y-52238110D01*
X121135762Y-52238110D02*
X121135762Y-52476220D01*
X121135762Y-52476220D02*
X121183384Y-52571464D01*
X121183384Y-52571464D02*
X121231006Y-52619086D01*
X121231006Y-52619086D02*
X121326250Y-52666708D01*
X121326250Y-52666708D02*
X121564360Y-52666708D01*
X121564360Y-52666708D02*
X121659604Y-52619086D01*
X121659604Y-52619086D02*
X121707227Y-52571464D01*
X121707227Y-52571464D02*
X121754849Y-52476220D01*
X121754849Y-52476220D02*
X121754849Y-52238110D01*
X121754849Y-52238110D02*
X121707227Y-52142866D01*
X121707227Y-52142866D02*
X121659604Y-52095244D01*
X176714285Y-88086104D02*
X176752381Y-88124200D01*
X176752381Y-88124200D02*
X176866666Y-88162295D01*
X176866666Y-88162295D02*
X176942857Y-88162295D01*
X176942857Y-88162295D02*
X177057143Y-88124200D01*
X177057143Y-88124200D02*
X177133333Y-88048009D01*
X177133333Y-88048009D02*
X177171428Y-87971819D01*
X177171428Y-87971819D02*
X177209524Y-87819438D01*
X177209524Y-87819438D02*
X177209524Y-87705152D01*
X177209524Y-87705152D02*
X177171428Y-87552771D01*
X177171428Y-87552771D02*
X177133333Y-87476580D01*
X177133333Y-87476580D02*
X177057143Y-87400390D01*
X177057143Y-87400390D02*
X176942857Y-87362295D01*
X176942857Y-87362295D02*
X176866666Y-87362295D01*
X176866666Y-87362295D02*
X176752381Y-87400390D01*
X176752381Y-87400390D02*
X176714285Y-87438485D01*
X176028571Y-87628961D02*
X176028571Y-88162295D01*
X176219047Y-87324200D02*
X176409524Y-87895628D01*
X176409524Y-87895628D02*
X175914285Y-87895628D01*
X175190476Y-88162295D02*
X175647619Y-88162295D01*
X175419047Y-88162295D02*
X175419047Y-87362295D01*
X175419047Y-87362295D02*
X175495238Y-87476580D01*
X175495238Y-87476580D02*
X175571428Y-87552771D01*
X175571428Y-87552771D02*
X175647619Y-87590866D01*
X150633354Y-52454786D02*
X150633354Y-53169116D01*
X150633354Y-53169116D02*
X150680976Y-53311982D01*
X150680976Y-53311982D02*
X150776220Y-53407227D01*
X150776220Y-53407227D02*
X150919086Y-53454849D01*
X150919086Y-53454849D02*
X151014330Y-53454849D01*
X150252377Y-52454786D02*
X149633291Y-52454786D01*
X149633291Y-52454786D02*
X149966645Y-52835762D01*
X149966645Y-52835762D02*
X149823779Y-52835762D01*
X149823779Y-52835762D02*
X149728535Y-52883384D01*
X149728535Y-52883384D02*
X149680913Y-52931006D01*
X149680913Y-52931006D02*
X149633291Y-53026250D01*
X149633291Y-53026250D02*
X149633291Y-53264360D01*
X149633291Y-53264360D02*
X149680913Y-53359604D01*
X149680913Y-53359604D02*
X149728535Y-53407227D01*
X149728535Y-53407227D02*
X149823779Y-53454849D01*
X149823779Y-53454849D02*
X150109511Y-53454849D01*
X150109511Y-53454849D02*
X150204755Y-53407227D01*
X150204755Y-53407227D02*
X150252377Y-53359604D01*
X173721428Y-62762295D02*
X173721428Y-61962295D01*
X173721428Y-61962295D02*
X173416666Y-61962295D01*
X173416666Y-61962295D02*
X173340476Y-62000390D01*
X173340476Y-62000390D02*
X173302381Y-62038485D01*
X173302381Y-62038485D02*
X173264285Y-62114676D01*
X173264285Y-62114676D02*
X173264285Y-62228961D01*
X173264285Y-62228961D02*
X173302381Y-62305152D01*
X173302381Y-62305152D02*
X173340476Y-62343247D01*
X173340476Y-62343247D02*
X173416666Y-62381342D01*
X173416666Y-62381342D02*
X173721428Y-62381342D01*
X172959524Y-62724200D02*
X172845238Y-62762295D01*
X172845238Y-62762295D02*
X172654762Y-62762295D01*
X172654762Y-62762295D02*
X172578571Y-62724200D01*
X172578571Y-62724200D02*
X172540476Y-62686104D01*
X172540476Y-62686104D02*
X172502381Y-62609914D01*
X172502381Y-62609914D02*
X172502381Y-62533723D01*
X172502381Y-62533723D02*
X172540476Y-62457533D01*
X172540476Y-62457533D02*
X172578571Y-62419438D01*
X172578571Y-62419438D02*
X172654762Y-62381342D01*
X172654762Y-62381342D02*
X172807143Y-62343247D01*
X172807143Y-62343247D02*
X172883333Y-62305152D01*
X172883333Y-62305152D02*
X172921428Y-62267057D01*
X172921428Y-62267057D02*
X172959524Y-62190866D01*
X172959524Y-62190866D02*
X172959524Y-62114676D01*
X172959524Y-62114676D02*
X172921428Y-62038485D01*
X172921428Y-62038485D02*
X172883333Y-62000390D01*
X172883333Y-62000390D02*
X172807143Y-61962295D01*
X172807143Y-61962295D02*
X172616666Y-61962295D01*
X172616666Y-61962295D02*
X172502381Y-62000390D01*
X172197619Y-62038485D02*
X172159523Y-62000390D01*
X172159523Y-62000390D02*
X172083333Y-61962295D01*
X172083333Y-61962295D02*
X171892857Y-61962295D01*
X171892857Y-61962295D02*
X171816666Y-62000390D01*
X171816666Y-62000390D02*
X171778571Y-62038485D01*
X171778571Y-62038485D02*
X171740476Y-62114676D01*
X171740476Y-62114676D02*
X171740476Y-62190866D01*
X171740476Y-62190866D02*
X171778571Y-62305152D01*
X171778571Y-62305152D02*
X172235714Y-62762295D01*
X172235714Y-62762295D02*
X171740476Y-62762295D01*
X174214285Y-88162295D02*
X174480952Y-87781342D01*
X174671428Y-88162295D02*
X174671428Y-87362295D01*
X174671428Y-87362295D02*
X174366666Y-87362295D01*
X174366666Y-87362295D02*
X174290476Y-87400390D01*
X174290476Y-87400390D02*
X174252381Y-87438485D01*
X174252381Y-87438485D02*
X174214285Y-87514676D01*
X174214285Y-87514676D02*
X174214285Y-87628961D01*
X174214285Y-87628961D02*
X174252381Y-87705152D01*
X174252381Y-87705152D02*
X174290476Y-87743247D01*
X174290476Y-87743247D02*
X174366666Y-87781342D01*
X174366666Y-87781342D02*
X174671428Y-87781342D01*
X173452381Y-88162295D02*
X173909524Y-88162295D01*
X173680952Y-88162295D02*
X173680952Y-87362295D01*
X173680952Y-87362295D02*
X173757143Y-87476580D01*
X173757143Y-87476580D02*
X173833333Y-87552771D01*
X173833333Y-87552771D02*
X173909524Y-87590866D01*
X172995238Y-87705152D02*
X173071428Y-87667057D01*
X173071428Y-87667057D02*
X173109523Y-87628961D01*
X173109523Y-87628961D02*
X173147619Y-87552771D01*
X173147619Y-87552771D02*
X173147619Y-87514676D01*
X173147619Y-87514676D02*
X173109523Y-87438485D01*
X173109523Y-87438485D02*
X173071428Y-87400390D01*
X173071428Y-87400390D02*
X172995238Y-87362295D01*
X172995238Y-87362295D02*
X172842857Y-87362295D01*
X172842857Y-87362295D02*
X172766666Y-87400390D01*
X172766666Y-87400390D02*
X172728571Y-87438485D01*
X172728571Y-87438485D02*
X172690476Y-87514676D01*
X172690476Y-87514676D02*
X172690476Y-87552771D01*
X172690476Y-87552771D02*
X172728571Y-87628961D01*
X172728571Y-87628961D02*
X172766666Y-87667057D01*
X172766666Y-87667057D02*
X172842857Y-87705152D01*
X172842857Y-87705152D02*
X172995238Y-87705152D01*
X172995238Y-87705152D02*
X173071428Y-87743247D01*
X173071428Y-87743247D02*
X173109523Y-87781342D01*
X173109523Y-87781342D02*
X173147619Y-87857533D01*
X173147619Y-87857533D02*
X173147619Y-88009914D01*
X173147619Y-88009914D02*
X173109523Y-88086104D01*
X173109523Y-88086104D02*
X173071428Y-88124200D01*
X173071428Y-88124200D02*
X172995238Y-88162295D01*
X172995238Y-88162295D02*
X172842857Y-88162295D01*
X172842857Y-88162295D02*
X172766666Y-88124200D01*
X172766666Y-88124200D02*
X172728571Y-88086104D01*
X172728571Y-88086104D02*
X172690476Y-88009914D01*
X172690476Y-88009914D02*
X172690476Y-87857533D01*
X172690476Y-87857533D02*
X172728571Y-87781342D01*
X172728571Y-87781342D02*
X172766666Y-87743247D01*
X172766666Y-87743247D02*
X172842857Y-87705152D01*
X159041785Y-55948604D02*
X159079881Y-55986700D01*
X159079881Y-55986700D02*
X159194166Y-56024795D01*
X159194166Y-56024795D02*
X159270357Y-56024795D01*
X159270357Y-56024795D02*
X159384643Y-55986700D01*
X159384643Y-55986700D02*
X159460833Y-55910509D01*
X159460833Y-55910509D02*
X159498928Y-55834319D01*
X159498928Y-55834319D02*
X159537024Y-55681938D01*
X159537024Y-55681938D02*
X159537024Y-55567652D01*
X159537024Y-55567652D02*
X159498928Y-55415271D01*
X159498928Y-55415271D02*
X159460833Y-55339080D01*
X159460833Y-55339080D02*
X159384643Y-55262890D01*
X159384643Y-55262890D02*
X159270357Y-55224795D01*
X159270357Y-55224795D02*
X159194166Y-55224795D01*
X159194166Y-55224795D02*
X159079881Y-55262890D01*
X159079881Y-55262890D02*
X159041785Y-55300985D01*
X158279881Y-56024795D02*
X158737024Y-56024795D01*
X158508452Y-56024795D02*
X158508452Y-55224795D01*
X158508452Y-55224795D02*
X158584643Y-55339080D01*
X158584643Y-55339080D02*
X158660833Y-55415271D01*
X158660833Y-55415271D02*
X158737024Y-55453366D01*
X157822738Y-55567652D02*
X157898928Y-55529557D01*
X157898928Y-55529557D02*
X157937023Y-55491461D01*
X157937023Y-55491461D02*
X157975119Y-55415271D01*
X157975119Y-55415271D02*
X157975119Y-55377176D01*
X157975119Y-55377176D02*
X157937023Y-55300985D01*
X157937023Y-55300985D02*
X157898928Y-55262890D01*
X157898928Y-55262890D02*
X157822738Y-55224795D01*
X157822738Y-55224795D02*
X157670357Y-55224795D01*
X157670357Y-55224795D02*
X157594166Y-55262890D01*
X157594166Y-55262890D02*
X157556071Y-55300985D01*
X157556071Y-55300985D02*
X157517976Y-55377176D01*
X157517976Y-55377176D02*
X157517976Y-55415271D01*
X157517976Y-55415271D02*
X157556071Y-55491461D01*
X157556071Y-55491461D02*
X157594166Y-55529557D01*
X157594166Y-55529557D02*
X157670357Y-55567652D01*
X157670357Y-55567652D02*
X157822738Y-55567652D01*
X157822738Y-55567652D02*
X157898928Y-55605747D01*
X157898928Y-55605747D02*
X157937023Y-55643842D01*
X157937023Y-55643842D02*
X157975119Y-55720033D01*
X157975119Y-55720033D02*
X157975119Y-55872414D01*
X157975119Y-55872414D02*
X157937023Y-55948604D01*
X157937023Y-55948604D02*
X157898928Y-55986700D01*
X157898928Y-55986700D02*
X157822738Y-56024795D01*
X157822738Y-56024795D02*
X157670357Y-56024795D01*
X157670357Y-56024795D02*
X157594166Y-55986700D01*
X157594166Y-55986700D02*
X157556071Y-55948604D01*
X157556071Y-55948604D02*
X157517976Y-55872414D01*
X157517976Y-55872414D02*
X157517976Y-55720033D01*
X157517976Y-55720033D02*
X157556071Y-55643842D01*
X157556071Y-55643842D02*
X157594166Y-55605747D01*
X157594166Y-55605747D02*
X157670357Y-55567652D01*
X129071428Y-132981009D02*
X129404761Y-132981009D01*
X129404761Y-133504819D02*
X129404761Y-132504819D01*
X129404761Y-132504819D02*
X128928571Y-132504819D01*
X128547618Y-133504819D02*
X128547618Y-132504819D01*
X128071428Y-133504819D02*
X128071428Y-132504819D01*
X128071428Y-132504819D02*
X127833333Y-132504819D01*
X127833333Y-132504819D02*
X127690476Y-132552438D01*
X127690476Y-132552438D02*
X127595238Y-132647676D01*
X127595238Y-132647676D02*
X127547619Y-132742914D01*
X127547619Y-132742914D02*
X127500000Y-132933390D01*
X127500000Y-132933390D02*
X127500000Y-133076247D01*
X127500000Y-133076247D02*
X127547619Y-133266723D01*
X127547619Y-133266723D02*
X127595238Y-133361961D01*
X127595238Y-133361961D02*
X127690476Y-133457200D01*
X127690476Y-133457200D02*
X127833333Y-133504819D01*
X127833333Y-133504819D02*
X128071428Y-133504819D01*
X126642857Y-132504819D02*
X126833333Y-132504819D01*
X126833333Y-132504819D02*
X126928571Y-132552438D01*
X126928571Y-132552438D02*
X126976190Y-132600057D01*
X126976190Y-132600057D02*
X127071428Y-132742914D01*
X127071428Y-132742914D02*
X127119047Y-132933390D01*
X127119047Y-132933390D02*
X127119047Y-133314342D01*
X127119047Y-133314342D02*
X127071428Y-133409580D01*
X127071428Y-133409580D02*
X127023809Y-133457200D01*
X127023809Y-133457200D02*
X126928571Y-133504819D01*
X126928571Y-133504819D02*
X126738095Y-133504819D01*
X126738095Y-133504819D02*
X126642857Y-133457200D01*
X126642857Y-133457200D02*
X126595238Y-133409580D01*
X126595238Y-133409580D02*
X126547619Y-133314342D01*
X126547619Y-133314342D02*
X126547619Y-133076247D01*
X126547619Y-133076247D02*
X126595238Y-132981009D01*
X126595238Y-132981009D02*
X126642857Y-132933390D01*
X126642857Y-132933390D02*
X126738095Y-132885771D01*
X126738095Y-132885771D02*
X126928571Y-132885771D01*
X126928571Y-132885771D02*
X127023809Y-132933390D01*
X127023809Y-132933390D02*
X127071428Y-132981009D01*
X127071428Y-132981009D02*
X127119047Y-133076247D01*
X165373333Y-56792295D02*
X165754285Y-56792295D01*
X165754285Y-56792295D02*
X165754285Y-55992295D01*
X165144762Y-56068485D02*
X165106666Y-56030390D01*
X165106666Y-56030390D02*
X165030476Y-55992295D01*
X165030476Y-55992295D02*
X164840000Y-55992295D01*
X164840000Y-55992295D02*
X164763809Y-56030390D01*
X164763809Y-56030390D02*
X164725714Y-56068485D01*
X164725714Y-56068485D02*
X164687619Y-56144676D01*
X164687619Y-56144676D02*
X164687619Y-56220866D01*
X164687619Y-56220866D02*
X164725714Y-56335152D01*
X164725714Y-56335152D02*
X165182857Y-56792295D01*
X165182857Y-56792295D02*
X164687619Y-56792295D01*
X153421785Y-59673604D02*
X153459881Y-59711700D01*
X153459881Y-59711700D02*
X153574166Y-59749795D01*
X153574166Y-59749795D02*
X153650357Y-59749795D01*
X153650357Y-59749795D02*
X153764643Y-59711700D01*
X153764643Y-59711700D02*
X153840833Y-59635509D01*
X153840833Y-59635509D02*
X153878928Y-59559319D01*
X153878928Y-59559319D02*
X153917024Y-59406938D01*
X153917024Y-59406938D02*
X153917024Y-59292652D01*
X153917024Y-59292652D02*
X153878928Y-59140271D01*
X153878928Y-59140271D02*
X153840833Y-59064080D01*
X153840833Y-59064080D02*
X153764643Y-58987890D01*
X153764643Y-58987890D02*
X153650357Y-58949795D01*
X153650357Y-58949795D02*
X153574166Y-58949795D01*
X153574166Y-58949795D02*
X153459881Y-58987890D01*
X153459881Y-58987890D02*
X153421785Y-59025985D01*
X153117024Y-59025985D02*
X153078928Y-58987890D01*
X153078928Y-58987890D02*
X153002738Y-58949795D01*
X153002738Y-58949795D02*
X152812262Y-58949795D01*
X152812262Y-58949795D02*
X152736071Y-58987890D01*
X152736071Y-58987890D02*
X152697976Y-59025985D01*
X152697976Y-59025985D02*
X152659881Y-59102176D01*
X152659881Y-59102176D02*
X152659881Y-59178366D01*
X152659881Y-59178366D02*
X152697976Y-59292652D01*
X152697976Y-59292652D02*
X153155119Y-59749795D01*
X153155119Y-59749795D02*
X152659881Y-59749795D01*
X152164642Y-58949795D02*
X152088452Y-58949795D01*
X152088452Y-58949795D02*
X152012261Y-58987890D01*
X152012261Y-58987890D02*
X151974166Y-59025985D01*
X151974166Y-59025985D02*
X151936071Y-59102176D01*
X151936071Y-59102176D02*
X151897976Y-59254557D01*
X151897976Y-59254557D02*
X151897976Y-59445033D01*
X151897976Y-59445033D02*
X151936071Y-59597414D01*
X151936071Y-59597414D02*
X151974166Y-59673604D01*
X151974166Y-59673604D02*
X152012261Y-59711700D01*
X152012261Y-59711700D02*
X152088452Y-59749795D01*
X152088452Y-59749795D02*
X152164642Y-59749795D01*
X152164642Y-59749795D02*
X152240833Y-59711700D01*
X152240833Y-59711700D02*
X152278928Y-59673604D01*
X152278928Y-59673604D02*
X152317023Y-59597414D01*
X152317023Y-59597414D02*
X152355119Y-59445033D01*
X152355119Y-59445033D02*
X152355119Y-59254557D01*
X152355119Y-59254557D02*
X152317023Y-59102176D01*
X152317023Y-59102176D02*
X152278928Y-59025985D01*
X152278928Y-59025985D02*
X152240833Y-58987890D01*
X152240833Y-58987890D02*
X152164642Y-58949795D01*
X142443604Y-62273214D02*
X142481700Y-62235118D01*
X142481700Y-62235118D02*
X142519795Y-62120833D01*
X142519795Y-62120833D02*
X142519795Y-62044642D01*
X142519795Y-62044642D02*
X142481700Y-61930356D01*
X142481700Y-61930356D02*
X142405509Y-61854166D01*
X142405509Y-61854166D02*
X142329319Y-61816071D01*
X142329319Y-61816071D02*
X142176938Y-61777975D01*
X142176938Y-61777975D02*
X142062652Y-61777975D01*
X142062652Y-61777975D02*
X141910271Y-61816071D01*
X141910271Y-61816071D02*
X141834080Y-61854166D01*
X141834080Y-61854166D02*
X141757890Y-61930356D01*
X141757890Y-61930356D02*
X141719795Y-62044642D01*
X141719795Y-62044642D02*
X141719795Y-62120833D01*
X141719795Y-62120833D02*
X141757890Y-62235118D01*
X141757890Y-62235118D02*
X141795985Y-62273214D01*
X142519795Y-63035118D02*
X142519795Y-62577975D01*
X142519795Y-62806547D02*
X141719795Y-62806547D01*
X141719795Y-62806547D02*
X141834080Y-62730356D01*
X141834080Y-62730356D02*
X141910271Y-62654166D01*
X141910271Y-62654166D02*
X141948366Y-62577975D01*
X141719795Y-63720833D02*
X141719795Y-63568452D01*
X141719795Y-63568452D02*
X141757890Y-63492261D01*
X141757890Y-63492261D02*
X141795985Y-63454166D01*
X141795985Y-63454166D02*
X141910271Y-63377976D01*
X141910271Y-63377976D02*
X142062652Y-63339880D01*
X142062652Y-63339880D02*
X142367414Y-63339880D01*
X142367414Y-63339880D02*
X142443604Y-63377976D01*
X142443604Y-63377976D02*
X142481700Y-63416071D01*
X142481700Y-63416071D02*
X142519795Y-63492261D01*
X142519795Y-63492261D02*
X142519795Y-63644642D01*
X142519795Y-63644642D02*
X142481700Y-63720833D01*
X142481700Y-63720833D02*
X142443604Y-63758928D01*
X142443604Y-63758928D02*
X142367414Y-63797023D01*
X142367414Y-63797023D02*
X142176938Y-63797023D01*
X142176938Y-63797023D02*
X142100747Y-63758928D01*
X142100747Y-63758928D02*
X142062652Y-63720833D01*
X142062652Y-63720833D02*
X142024557Y-63644642D01*
X142024557Y-63644642D02*
X142024557Y-63492261D01*
X142024557Y-63492261D02*
X142062652Y-63416071D01*
X142062652Y-63416071D02*
X142100747Y-63377976D01*
X142100747Y-63377976D02*
X142176938Y-63339880D01*
X139133354Y-52554786D02*
X139133354Y-53269116D01*
X139133354Y-53269116D02*
X139180976Y-53411982D01*
X139180976Y-53411982D02*
X139276220Y-53507227D01*
X139276220Y-53507227D02*
X139419086Y-53554849D01*
X139419086Y-53554849D02*
X139514330Y-53554849D01*
X138228535Y-52888140D02*
X138228535Y-53554849D01*
X138466645Y-52507164D02*
X138704755Y-53221494D01*
X138704755Y-53221494D02*
X138085669Y-53221494D01*
X179314285Y-88162295D02*
X179580952Y-87781342D01*
X179771428Y-88162295D02*
X179771428Y-87362295D01*
X179771428Y-87362295D02*
X179466666Y-87362295D01*
X179466666Y-87362295D02*
X179390476Y-87400390D01*
X179390476Y-87400390D02*
X179352381Y-87438485D01*
X179352381Y-87438485D02*
X179314285Y-87514676D01*
X179314285Y-87514676D02*
X179314285Y-87628961D01*
X179314285Y-87628961D02*
X179352381Y-87705152D01*
X179352381Y-87705152D02*
X179390476Y-87743247D01*
X179390476Y-87743247D02*
X179466666Y-87781342D01*
X179466666Y-87781342D02*
X179771428Y-87781342D01*
X178628571Y-87628961D02*
X178628571Y-88162295D01*
X178819047Y-87324200D02*
X179009524Y-87895628D01*
X179009524Y-87895628D02*
X178514285Y-87895628D01*
X178057142Y-87362295D02*
X177980952Y-87362295D01*
X177980952Y-87362295D02*
X177904761Y-87400390D01*
X177904761Y-87400390D02*
X177866666Y-87438485D01*
X177866666Y-87438485D02*
X177828571Y-87514676D01*
X177828571Y-87514676D02*
X177790476Y-87667057D01*
X177790476Y-87667057D02*
X177790476Y-87857533D01*
X177790476Y-87857533D02*
X177828571Y-88009914D01*
X177828571Y-88009914D02*
X177866666Y-88086104D01*
X177866666Y-88086104D02*
X177904761Y-88124200D01*
X177904761Y-88124200D02*
X177980952Y-88162295D01*
X177980952Y-88162295D02*
X178057142Y-88162295D01*
X178057142Y-88162295D02*
X178133333Y-88124200D01*
X178133333Y-88124200D02*
X178171428Y-88086104D01*
X178171428Y-88086104D02*
X178209523Y-88009914D01*
X178209523Y-88009914D02*
X178247619Y-87857533D01*
X178247619Y-87857533D02*
X178247619Y-87667057D01*
X178247619Y-87667057D02*
X178209523Y-87514676D01*
X178209523Y-87514676D02*
X178171428Y-87438485D01*
X178171428Y-87438485D02*
X178133333Y-87400390D01*
X178133333Y-87400390D02*
X178057142Y-87362295D01*
X165434285Y-61762295D02*
X165700952Y-61381342D01*
X165891428Y-61762295D02*
X165891428Y-60962295D01*
X165891428Y-60962295D02*
X165586666Y-60962295D01*
X165586666Y-60962295D02*
X165510476Y-61000390D01*
X165510476Y-61000390D02*
X165472381Y-61038485D01*
X165472381Y-61038485D02*
X165434285Y-61114676D01*
X165434285Y-61114676D02*
X165434285Y-61228961D01*
X165434285Y-61228961D02*
X165472381Y-61305152D01*
X165472381Y-61305152D02*
X165510476Y-61343247D01*
X165510476Y-61343247D02*
X165586666Y-61381342D01*
X165586666Y-61381342D02*
X165891428Y-61381342D01*
X165129524Y-61038485D02*
X165091428Y-61000390D01*
X165091428Y-61000390D02*
X165015238Y-60962295D01*
X165015238Y-60962295D02*
X164824762Y-60962295D01*
X164824762Y-60962295D02*
X164748571Y-61000390D01*
X164748571Y-61000390D02*
X164710476Y-61038485D01*
X164710476Y-61038485D02*
X164672381Y-61114676D01*
X164672381Y-61114676D02*
X164672381Y-61190866D01*
X164672381Y-61190866D02*
X164710476Y-61305152D01*
X164710476Y-61305152D02*
X165167619Y-61762295D01*
X165167619Y-61762295D02*
X164672381Y-61762295D01*
X164177142Y-60962295D02*
X164100952Y-60962295D01*
X164100952Y-60962295D02*
X164024761Y-61000390D01*
X164024761Y-61000390D02*
X163986666Y-61038485D01*
X163986666Y-61038485D02*
X163948571Y-61114676D01*
X163948571Y-61114676D02*
X163910476Y-61267057D01*
X163910476Y-61267057D02*
X163910476Y-61457533D01*
X163910476Y-61457533D02*
X163948571Y-61609914D01*
X163948571Y-61609914D02*
X163986666Y-61686104D01*
X163986666Y-61686104D02*
X164024761Y-61724200D01*
X164024761Y-61724200D02*
X164100952Y-61762295D01*
X164100952Y-61762295D02*
X164177142Y-61762295D01*
X164177142Y-61762295D02*
X164253333Y-61724200D01*
X164253333Y-61724200D02*
X164291428Y-61686104D01*
X164291428Y-61686104D02*
X164329523Y-61609914D01*
X164329523Y-61609914D02*
X164367619Y-61457533D01*
X164367619Y-61457533D02*
X164367619Y-61267057D01*
X164367619Y-61267057D02*
X164329523Y-61114676D01*
X164329523Y-61114676D02*
X164291428Y-61038485D01*
X164291428Y-61038485D02*
X164253333Y-61000390D01*
X164253333Y-61000390D02*
X164177142Y-60962295D01*
X146870832Y-55673604D02*
X146908928Y-55711700D01*
X146908928Y-55711700D02*
X147023213Y-55749795D01*
X147023213Y-55749795D02*
X147099404Y-55749795D01*
X147099404Y-55749795D02*
X147213690Y-55711700D01*
X147213690Y-55711700D02*
X147289880Y-55635509D01*
X147289880Y-55635509D02*
X147327975Y-55559319D01*
X147327975Y-55559319D02*
X147366071Y-55406938D01*
X147366071Y-55406938D02*
X147366071Y-55292652D01*
X147366071Y-55292652D02*
X147327975Y-55140271D01*
X147327975Y-55140271D02*
X147289880Y-55064080D01*
X147289880Y-55064080D02*
X147213690Y-54987890D01*
X147213690Y-54987890D02*
X147099404Y-54949795D01*
X147099404Y-54949795D02*
X147023213Y-54949795D01*
X147023213Y-54949795D02*
X146908928Y-54987890D01*
X146908928Y-54987890D02*
X146870832Y-55025985D01*
X146489880Y-55749795D02*
X146337499Y-55749795D01*
X146337499Y-55749795D02*
X146261309Y-55711700D01*
X146261309Y-55711700D02*
X146223213Y-55673604D01*
X146223213Y-55673604D02*
X146147023Y-55559319D01*
X146147023Y-55559319D02*
X146108928Y-55406938D01*
X146108928Y-55406938D02*
X146108928Y-55102176D01*
X146108928Y-55102176D02*
X146147023Y-55025985D01*
X146147023Y-55025985D02*
X146185118Y-54987890D01*
X146185118Y-54987890D02*
X146261309Y-54949795D01*
X146261309Y-54949795D02*
X146413690Y-54949795D01*
X146413690Y-54949795D02*
X146489880Y-54987890D01*
X146489880Y-54987890D02*
X146527975Y-55025985D01*
X146527975Y-55025985D02*
X146566071Y-55102176D01*
X146566071Y-55102176D02*
X146566071Y-55292652D01*
X146566071Y-55292652D02*
X146527975Y-55368842D01*
X146527975Y-55368842D02*
X146489880Y-55406938D01*
X146489880Y-55406938D02*
X146413690Y-55445033D01*
X146413690Y-55445033D02*
X146261309Y-55445033D01*
X146261309Y-55445033D02*
X146185118Y-55406938D01*
X146185118Y-55406938D02*
X146147023Y-55368842D01*
X146147023Y-55368842D02*
X146108928Y-55292652D01*
X171221916Y-128362295D02*
X171221916Y-127562295D01*
X171221916Y-127562295D02*
X170955250Y-128133723D01*
X170955250Y-128133723D02*
X170688583Y-127562295D01*
X170688583Y-127562295D02*
X170688583Y-128362295D01*
X170155249Y-127562295D02*
X170002868Y-127562295D01*
X170002868Y-127562295D02*
X169926678Y-127600390D01*
X169926678Y-127600390D02*
X169850487Y-127676580D01*
X169850487Y-127676580D02*
X169812392Y-127828961D01*
X169812392Y-127828961D02*
X169812392Y-128095628D01*
X169812392Y-128095628D02*
X169850487Y-128248009D01*
X169850487Y-128248009D02*
X169926678Y-128324200D01*
X169926678Y-128324200D02*
X170002868Y-128362295D01*
X170002868Y-128362295D02*
X170155249Y-128362295D01*
X170155249Y-128362295D02*
X170231440Y-128324200D01*
X170231440Y-128324200D02*
X170307630Y-128248009D01*
X170307630Y-128248009D02*
X170345726Y-128095628D01*
X170345726Y-128095628D02*
X170345726Y-127828961D01*
X170345726Y-127828961D02*
X170307630Y-127676580D01*
X170307630Y-127676580D02*
X170231440Y-127600390D01*
X170231440Y-127600390D02*
X170155249Y-127562295D01*
X169012392Y-128286104D02*
X169050488Y-128324200D01*
X169050488Y-128324200D02*
X169164773Y-128362295D01*
X169164773Y-128362295D02*
X169240964Y-128362295D01*
X169240964Y-128362295D02*
X169355250Y-128324200D01*
X169355250Y-128324200D02*
X169431440Y-128248009D01*
X169431440Y-128248009D02*
X169469535Y-128171819D01*
X169469535Y-128171819D02*
X169507631Y-128019438D01*
X169507631Y-128019438D02*
X169507631Y-127905152D01*
X169507631Y-127905152D02*
X169469535Y-127752771D01*
X169469535Y-127752771D02*
X169431440Y-127676580D01*
X169431440Y-127676580D02*
X169355250Y-127600390D01*
X169355250Y-127600390D02*
X169240964Y-127562295D01*
X169240964Y-127562295D02*
X169164773Y-127562295D01*
X169164773Y-127562295D02*
X169050488Y-127600390D01*
X169050488Y-127600390D02*
X169012392Y-127638485D01*
X168707631Y-127638485D02*
X168669535Y-127600390D01*
X168669535Y-127600390D02*
X168593345Y-127562295D01*
X168593345Y-127562295D02*
X168402869Y-127562295D01*
X168402869Y-127562295D02*
X168326678Y-127600390D01*
X168326678Y-127600390D02*
X168288583Y-127638485D01*
X168288583Y-127638485D02*
X168250488Y-127714676D01*
X168250488Y-127714676D02*
X168250488Y-127790866D01*
X168250488Y-127790866D02*
X168288583Y-127905152D01*
X168288583Y-127905152D02*
X168745726Y-128362295D01*
X168745726Y-128362295D02*
X168250488Y-128362295D01*
X178414285Y-65051104D02*
X178452381Y-65089200D01*
X178452381Y-65089200D02*
X178566666Y-65127295D01*
X178566666Y-65127295D02*
X178642857Y-65127295D01*
X178642857Y-65127295D02*
X178757143Y-65089200D01*
X178757143Y-65089200D02*
X178833333Y-65013009D01*
X178833333Y-65013009D02*
X178871428Y-64936819D01*
X178871428Y-64936819D02*
X178909524Y-64784438D01*
X178909524Y-64784438D02*
X178909524Y-64670152D01*
X178909524Y-64670152D02*
X178871428Y-64517771D01*
X178871428Y-64517771D02*
X178833333Y-64441580D01*
X178833333Y-64441580D02*
X178757143Y-64365390D01*
X178757143Y-64365390D02*
X178642857Y-64327295D01*
X178642857Y-64327295D02*
X178566666Y-64327295D01*
X178566666Y-64327295D02*
X178452381Y-64365390D01*
X178452381Y-64365390D02*
X178414285Y-64403485D01*
X177652381Y-65127295D02*
X178109524Y-65127295D01*
X177880952Y-65127295D02*
X177880952Y-64327295D01*
X177880952Y-64327295D02*
X177957143Y-64441580D01*
X177957143Y-64441580D02*
X178033333Y-64517771D01*
X178033333Y-64517771D02*
X178109524Y-64555866D01*
X177157142Y-64327295D02*
X177080952Y-64327295D01*
X177080952Y-64327295D02*
X177004761Y-64365390D01*
X177004761Y-64365390D02*
X176966666Y-64403485D01*
X176966666Y-64403485D02*
X176928571Y-64479676D01*
X176928571Y-64479676D02*
X176890476Y-64632057D01*
X176890476Y-64632057D02*
X176890476Y-64822533D01*
X176890476Y-64822533D02*
X176928571Y-64974914D01*
X176928571Y-64974914D02*
X176966666Y-65051104D01*
X176966666Y-65051104D02*
X177004761Y-65089200D01*
X177004761Y-65089200D02*
X177080952Y-65127295D01*
X177080952Y-65127295D02*
X177157142Y-65127295D01*
X177157142Y-65127295D02*
X177233333Y-65089200D01*
X177233333Y-65089200D02*
X177271428Y-65051104D01*
X177271428Y-65051104D02*
X177309523Y-64974914D01*
X177309523Y-64974914D02*
X177347619Y-64822533D01*
X177347619Y-64822533D02*
X177347619Y-64632057D01*
X177347619Y-64632057D02*
X177309523Y-64479676D01*
X177309523Y-64479676D02*
X177271428Y-64403485D01*
X177271428Y-64403485D02*
X177233333Y-64365390D01*
X177233333Y-64365390D02*
X177157142Y-64327295D01*
X183871904Y-114754819D02*
X183871904Y-115564342D01*
X183871904Y-115564342D02*
X183824285Y-115659580D01*
X183824285Y-115659580D02*
X183776666Y-115707200D01*
X183776666Y-115707200D02*
X183681428Y-115754819D01*
X183681428Y-115754819D02*
X183490952Y-115754819D01*
X183490952Y-115754819D02*
X183395714Y-115707200D01*
X183395714Y-115707200D02*
X183348095Y-115659580D01*
X183348095Y-115659580D02*
X183300476Y-115564342D01*
X183300476Y-115564342D02*
X183300476Y-114754819D01*
X182919523Y-114754819D02*
X182300476Y-114754819D01*
X182300476Y-114754819D02*
X182633809Y-115135771D01*
X182633809Y-115135771D02*
X182490952Y-115135771D01*
X182490952Y-115135771D02*
X182395714Y-115183390D01*
X182395714Y-115183390D02*
X182348095Y-115231009D01*
X182348095Y-115231009D02*
X182300476Y-115326247D01*
X182300476Y-115326247D02*
X182300476Y-115564342D01*
X182300476Y-115564342D02*
X182348095Y-115659580D01*
X182348095Y-115659580D02*
X182395714Y-115707200D01*
X182395714Y-115707200D02*
X182490952Y-115754819D01*
X182490952Y-115754819D02*
X182776666Y-115754819D01*
X182776666Y-115754819D02*
X182871904Y-115707200D01*
X182871904Y-115707200D02*
X182919523Y-115659580D01*
X183071428Y-50031009D02*
X183404761Y-50031009D01*
X183404761Y-50554819D02*
X183404761Y-49554819D01*
X183404761Y-49554819D02*
X182928571Y-49554819D01*
X182547618Y-50554819D02*
X182547618Y-49554819D01*
X182071428Y-50554819D02*
X182071428Y-49554819D01*
X182071428Y-49554819D02*
X181833333Y-49554819D01*
X181833333Y-49554819D02*
X181690476Y-49602438D01*
X181690476Y-49602438D02*
X181595238Y-49697676D01*
X181595238Y-49697676D02*
X181547619Y-49792914D01*
X181547619Y-49792914D02*
X181500000Y-49983390D01*
X181500000Y-49983390D02*
X181500000Y-50126247D01*
X181500000Y-50126247D02*
X181547619Y-50316723D01*
X181547619Y-50316723D02*
X181595238Y-50411961D01*
X181595238Y-50411961D02*
X181690476Y-50507200D01*
X181690476Y-50507200D02*
X181833333Y-50554819D01*
X181833333Y-50554819D02*
X182071428Y-50554819D01*
X180642857Y-49888152D02*
X180642857Y-50554819D01*
X180880952Y-49507200D02*
X181119047Y-50221485D01*
X181119047Y-50221485D02*
X180500000Y-50221485D01*
X183421916Y-128362295D02*
X183421916Y-127562295D01*
X183421916Y-127562295D02*
X183155250Y-128133723D01*
X183155250Y-128133723D02*
X182888583Y-127562295D01*
X182888583Y-127562295D02*
X182888583Y-128362295D01*
X182355249Y-127562295D02*
X182202868Y-127562295D01*
X182202868Y-127562295D02*
X182126678Y-127600390D01*
X182126678Y-127600390D02*
X182050487Y-127676580D01*
X182050487Y-127676580D02*
X182012392Y-127828961D01*
X182012392Y-127828961D02*
X182012392Y-128095628D01*
X182012392Y-128095628D02*
X182050487Y-128248009D01*
X182050487Y-128248009D02*
X182126678Y-128324200D01*
X182126678Y-128324200D02*
X182202868Y-128362295D01*
X182202868Y-128362295D02*
X182355249Y-128362295D01*
X182355249Y-128362295D02*
X182431440Y-128324200D01*
X182431440Y-128324200D02*
X182507630Y-128248009D01*
X182507630Y-128248009D02*
X182545726Y-128095628D01*
X182545726Y-128095628D02*
X182545726Y-127828961D01*
X182545726Y-127828961D02*
X182507630Y-127676580D01*
X182507630Y-127676580D02*
X182431440Y-127600390D01*
X182431440Y-127600390D02*
X182355249Y-127562295D01*
X181212392Y-128286104D02*
X181250488Y-128324200D01*
X181250488Y-128324200D02*
X181364773Y-128362295D01*
X181364773Y-128362295D02*
X181440964Y-128362295D01*
X181440964Y-128362295D02*
X181555250Y-128324200D01*
X181555250Y-128324200D02*
X181631440Y-128248009D01*
X181631440Y-128248009D02*
X181669535Y-128171819D01*
X181669535Y-128171819D02*
X181707631Y-128019438D01*
X181707631Y-128019438D02*
X181707631Y-127905152D01*
X181707631Y-127905152D02*
X181669535Y-127752771D01*
X181669535Y-127752771D02*
X181631440Y-127676580D01*
X181631440Y-127676580D02*
X181555250Y-127600390D01*
X181555250Y-127600390D02*
X181440964Y-127562295D01*
X181440964Y-127562295D02*
X181364773Y-127562295D01*
X181364773Y-127562295D02*
X181250488Y-127600390D01*
X181250488Y-127600390D02*
X181212392Y-127638485D01*
X180945726Y-127562295D02*
X180450488Y-127562295D01*
X180450488Y-127562295D02*
X180717154Y-127867057D01*
X180717154Y-127867057D02*
X180602869Y-127867057D01*
X180602869Y-127867057D02*
X180526678Y-127905152D01*
X180526678Y-127905152D02*
X180488583Y-127943247D01*
X180488583Y-127943247D02*
X180450488Y-128019438D01*
X180450488Y-128019438D02*
X180450488Y-128209914D01*
X180450488Y-128209914D02*
X180488583Y-128286104D01*
X180488583Y-128286104D02*
X180526678Y-128324200D01*
X180526678Y-128324200D02*
X180602869Y-128362295D01*
X180602869Y-128362295D02*
X180831440Y-128362295D01*
X180831440Y-128362295D02*
X180907631Y-128324200D01*
X180907631Y-128324200D02*
X180945726Y-128286104D01*
X156009285Y-55823604D02*
X156047381Y-55861700D01*
X156047381Y-55861700D02*
X156161666Y-55899795D01*
X156161666Y-55899795D02*
X156237857Y-55899795D01*
X156237857Y-55899795D02*
X156352143Y-55861700D01*
X156352143Y-55861700D02*
X156428333Y-55785509D01*
X156428333Y-55785509D02*
X156466428Y-55709319D01*
X156466428Y-55709319D02*
X156504524Y-55556938D01*
X156504524Y-55556938D02*
X156504524Y-55442652D01*
X156504524Y-55442652D02*
X156466428Y-55290271D01*
X156466428Y-55290271D02*
X156428333Y-55214080D01*
X156428333Y-55214080D02*
X156352143Y-55137890D01*
X156352143Y-55137890D02*
X156237857Y-55099795D01*
X156237857Y-55099795D02*
X156161666Y-55099795D01*
X156161666Y-55099795D02*
X156047381Y-55137890D01*
X156047381Y-55137890D02*
X156009285Y-55175985D01*
X155247381Y-55899795D02*
X155704524Y-55899795D01*
X155475952Y-55899795D02*
X155475952Y-55099795D01*
X155475952Y-55099795D02*
X155552143Y-55214080D01*
X155552143Y-55214080D02*
X155628333Y-55290271D01*
X155628333Y-55290271D02*
X155704524Y-55328366D01*
X154866428Y-55899795D02*
X154714047Y-55899795D01*
X154714047Y-55899795D02*
X154637857Y-55861700D01*
X154637857Y-55861700D02*
X154599761Y-55823604D01*
X154599761Y-55823604D02*
X154523571Y-55709319D01*
X154523571Y-55709319D02*
X154485476Y-55556938D01*
X154485476Y-55556938D02*
X154485476Y-55252176D01*
X154485476Y-55252176D02*
X154523571Y-55175985D01*
X154523571Y-55175985D02*
X154561666Y-55137890D01*
X154561666Y-55137890D02*
X154637857Y-55099795D01*
X154637857Y-55099795D02*
X154790238Y-55099795D01*
X154790238Y-55099795D02*
X154866428Y-55137890D01*
X154866428Y-55137890D02*
X154904523Y-55175985D01*
X154904523Y-55175985D02*
X154942619Y-55252176D01*
X154942619Y-55252176D02*
X154942619Y-55442652D01*
X154942619Y-55442652D02*
X154904523Y-55518842D01*
X154904523Y-55518842D02*
X154866428Y-55556938D01*
X154866428Y-55556938D02*
X154790238Y-55595033D01*
X154790238Y-55595033D02*
X154637857Y-55595033D01*
X154637857Y-55595033D02*
X154561666Y-55556938D01*
X154561666Y-55556938D02*
X154523571Y-55518842D01*
X154523571Y-55518842D02*
X154485476Y-55442652D01*
X138651785Y-55448604D02*
X138689881Y-55486700D01*
X138689881Y-55486700D02*
X138804166Y-55524795D01*
X138804166Y-55524795D02*
X138880357Y-55524795D01*
X138880357Y-55524795D02*
X138994643Y-55486700D01*
X138994643Y-55486700D02*
X139070833Y-55410509D01*
X139070833Y-55410509D02*
X139108928Y-55334319D01*
X139108928Y-55334319D02*
X139147024Y-55181938D01*
X139147024Y-55181938D02*
X139147024Y-55067652D01*
X139147024Y-55067652D02*
X139108928Y-54915271D01*
X139108928Y-54915271D02*
X139070833Y-54839080D01*
X139070833Y-54839080D02*
X138994643Y-54762890D01*
X138994643Y-54762890D02*
X138880357Y-54724795D01*
X138880357Y-54724795D02*
X138804166Y-54724795D01*
X138804166Y-54724795D02*
X138689881Y-54762890D01*
X138689881Y-54762890D02*
X138651785Y-54800985D01*
X138385119Y-54724795D02*
X137889881Y-54724795D01*
X137889881Y-54724795D02*
X138156547Y-55029557D01*
X138156547Y-55029557D02*
X138042262Y-55029557D01*
X138042262Y-55029557D02*
X137966071Y-55067652D01*
X137966071Y-55067652D02*
X137927976Y-55105747D01*
X137927976Y-55105747D02*
X137889881Y-55181938D01*
X137889881Y-55181938D02*
X137889881Y-55372414D01*
X137889881Y-55372414D02*
X137927976Y-55448604D01*
X137927976Y-55448604D02*
X137966071Y-55486700D01*
X137966071Y-55486700D02*
X138042262Y-55524795D01*
X138042262Y-55524795D02*
X138270833Y-55524795D01*
X138270833Y-55524795D02*
X138347024Y-55486700D01*
X138347024Y-55486700D02*
X138385119Y-55448604D01*
X137204166Y-54724795D02*
X137356547Y-54724795D01*
X137356547Y-54724795D02*
X137432738Y-54762890D01*
X137432738Y-54762890D02*
X137470833Y-54800985D01*
X137470833Y-54800985D02*
X137547023Y-54915271D01*
X137547023Y-54915271D02*
X137585119Y-55067652D01*
X137585119Y-55067652D02*
X137585119Y-55372414D01*
X137585119Y-55372414D02*
X137547023Y-55448604D01*
X137547023Y-55448604D02*
X137508928Y-55486700D01*
X137508928Y-55486700D02*
X137432738Y-55524795D01*
X137432738Y-55524795D02*
X137280357Y-55524795D01*
X137280357Y-55524795D02*
X137204166Y-55486700D01*
X137204166Y-55486700D02*
X137166071Y-55448604D01*
X137166071Y-55448604D02*
X137127976Y-55372414D01*
X137127976Y-55372414D02*
X137127976Y-55181938D01*
X137127976Y-55181938D02*
X137166071Y-55105747D01*
X137166071Y-55105747D02*
X137204166Y-55067652D01*
X137204166Y-55067652D02*
X137280357Y-55029557D01*
X137280357Y-55029557D02*
X137432738Y-55029557D01*
X137432738Y-55029557D02*
X137508928Y-55067652D01*
X137508928Y-55067652D02*
X137547023Y-55105747D01*
X137547023Y-55105747D02*
X137585119Y-55181938D01*
%TO.C,L3*%
D12*
X148500000Y-60850000D02*
X148500000Y-67050000D01*
X148500000Y-67050000D02*
X153900000Y-67050000D01*
X153900000Y-60850000D02*
X148500000Y-60850000D01*
X153900000Y-67050000D02*
X153900000Y-60850000D01*
%TO.C,R19*%
D13*
X163684564Y-54065000D02*
X163230436Y-54065000D01*
X163684564Y-55535000D02*
X163230436Y-55535000D01*
%TO.C,D2*%
D14*
X143151500Y-58709500D02*
X147723500Y-58709500D01*
D12*
X144607500Y-59587500D02*
X145980500Y-58987500D01*
X145980500Y-58987500D02*
X145980500Y-60187500D01*
X145980500Y-60187500D02*
X144607500Y-59587500D01*
D14*
X147723500Y-60565500D02*
X143151500Y-60565500D01*
%TO.C,J6*%
D13*
X134550000Y-79900000D02*
X134550000Y-80650000D01*
X134550000Y-80650000D02*
X134850000Y-80650000D01*
X134550000Y-82400000D02*
X134550000Y-83150000D01*
X134550000Y-83150000D02*
X134850000Y-83150000D01*
X134850000Y-78400000D02*
X134850000Y-78700000D01*
X134850000Y-78700000D02*
X134400000Y-78700000D01*
X134850000Y-78700000D02*
X134850000Y-79900000D01*
X134850000Y-79900000D02*
X134550000Y-79900000D01*
X134850000Y-80650000D02*
X134850000Y-82400000D01*
X134850000Y-82400000D02*
X134550000Y-82400000D01*
X134850000Y-83150000D02*
X134850000Y-84350000D01*
X134850000Y-84350000D02*
X134400000Y-84350000D01*
X134850000Y-84650000D02*
X134850000Y-84350000D01*
X135950000Y-78100000D02*
X135950000Y-78400000D01*
X135950000Y-78400000D02*
X134850000Y-78400000D01*
X135950000Y-84650000D02*
X134850000Y-84650000D01*
X135950000Y-84950000D02*
X135950000Y-84650000D01*
X136400000Y-77790000D02*
X138310000Y-77790000D01*
X136700000Y-78100000D02*
X136700000Y-78400000D01*
X136700000Y-78400000D02*
X137700000Y-78400000D01*
X136700000Y-84650000D02*
X136700000Y-84950000D01*
X137700000Y-78400000D02*
X137700000Y-84650000D01*
X137700000Y-84650000D02*
X136700000Y-84650000D01*
X138310000Y-77790000D02*
X138310000Y-79700000D01*
X134400000Y-78100000D02*
X138000000Y-78100000D01*
X138000000Y-84950000D01*
X134400000Y-84950000D01*
X134400000Y-78100000D01*
%TO.C,R17*%
X134727500Y-55997936D02*
X134727500Y-57452064D01*
X136547500Y-55997936D02*
X136547500Y-57452064D01*
%TO.C,PS3*%
D14*
X140745000Y-55340000D02*
X142345000Y-55340000D01*
X142345000Y-58460000D02*
X140745000Y-58460000D01*
D15*
X144145000Y-55950000D02*
G75*
G02*
X143945000Y-55950000I-100000J0D01*
G01*
X143945000Y-55950000D02*
G75*
G02*
X144145000Y-55950000I100000J0D01*
G01*
%TO.C,C8*%
D13*
X148027500Y-55551248D02*
X148027500Y-56973752D01*
X149847500Y-55551248D02*
X149847500Y-56973752D01*
%TO.C,FPC1*%
D14*
X131600000Y-143925000D02*
X131600000Y-145475000D01*
X131600000Y-145475000D02*
X132200000Y-145475000D01*
X144800000Y-143925000D02*
X144800000Y-145475000D01*
X144800000Y-145475000D02*
X144200000Y-145475000D01*
D15*
X132550000Y-141825000D02*
G75*
G02*
X132350000Y-141825000I-100000J0D01*
G01*
X132350000Y-141825000D02*
G75*
G02*
X132550000Y-141825000I100000J0D01*
G01*
%TO.C,J2*%
D14*
X152600000Y-41100000D02*
X154100000Y-41100000D01*
X152600000Y-52100000D02*
X152600000Y-41100000D01*
X152600000Y-52100000D02*
X164600000Y-52100000D01*
X154100000Y-41100000D02*
X154100000Y-40100000D01*
X163050000Y-40100000D02*
X163050000Y-41100000D01*
X163050000Y-41100000D02*
X164550000Y-41100000D01*
X164600000Y-52100000D02*
X164600000Y-41100000D01*
%TO.C,C11*%
D13*
X174955000Y-61108748D02*
X174955000Y-61631252D01*
X176425000Y-61108748D02*
X176425000Y-61631252D01*
%TO.C,C14*%
X166760000Y-59676248D02*
X166760000Y-60198752D01*
X168230000Y-59676248D02*
X168230000Y-60198752D01*
%TO.C,R15*%
X171737258Y-56977500D02*
X171262742Y-56977500D01*
X171737258Y-58022500D02*
X171262742Y-58022500D01*
%TO.C,J1*%
D14*
X165200000Y-41100000D02*
X166700000Y-41100000D01*
X165200000Y-52100000D02*
X165200000Y-41100000D01*
X165200000Y-52100000D02*
X177200000Y-52100000D01*
X166700000Y-41100000D02*
X166700000Y-40100000D01*
X175650000Y-40100000D02*
X175650000Y-41100000D01*
X175650000Y-41100000D02*
X177150000Y-41100000D01*
X177200000Y-52100000D02*
X177200000Y-41100000D01*
%TO.C,R16*%
D13*
X144557500Y-56758859D02*
X144557500Y-57066141D01*
X145317500Y-56758859D02*
X145317500Y-57066141D01*
%TO.C,MOC1*%
D14*
X151480250Y-128745000D02*
X157830250Y-128745000D01*
X151480250Y-128750000D02*
X151480250Y-129300000D01*
X151480250Y-137250000D02*
X151480250Y-136700000D01*
X157830250Y-128750000D02*
X157830250Y-129300000D01*
X157830250Y-137250000D02*
X157830250Y-136700000D01*
X157830250Y-137255000D02*
X151480250Y-137255000D01*
D15*
X149321250Y-135540000D02*
G75*
G02*
X149121250Y-135540000I-100000J0D01*
G01*
X149121250Y-135540000D02*
G75*
G02*
X149321250Y-135540000I100000J0D01*
G01*
%TO.C,J5*%
D14*
X120100000Y-54550000D02*
X121100000Y-54550000D01*
X121100000Y-54550000D02*
X121100000Y-53050000D01*
X121100000Y-63500000D02*
X120100000Y-63500000D01*
X121100000Y-65000000D02*
X121100000Y-63500000D01*
X132100000Y-53000000D02*
X121100000Y-53000000D01*
X132100000Y-65000000D02*
X121100000Y-65000000D01*
X132100000Y-65000000D02*
X132100000Y-53000000D01*
%TO.C,C41*%
D13*
X175972164Y-88640000D02*
X176187836Y-88640000D01*
X175972164Y-89360000D02*
X176187836Y-89360000D01*
%TO.C,J3*%
D14*
X140000000Y-41100000D02*
X141500000Y-41100000D01*
X140000000Y-52100000D02*
X140000000Y-41100000D01*
X140000000Y-52100000D02*
X152000000Y-52100000D01*
X141500000Y-41100000D02*
X141500000Y-40100000D01*
X150450000Y-40100000D02*
X150450000Y-41100000D01*
X150450000Y-41100000D02*
X151950000Y-41100000D01*
X152000000Y-52100000D02*
X152000000Y-41100000D01*
%TO.C,PS2*%
X172750000Y-58435000D02*
X171150000Y-58435000D01*
X172750000Y-61565000D02*
X171150000Y-61565000D01*
D15*
X174450000Y-58800000D02*
G75*
G02*
X174250000Y-58800000I-100000J0D01*
G01*
X174250000Y-58800000D02*
G75*
G02*
X174450000Y-58800000I100000J0D01*
G01*
%TO.C,R18*%
D13*
X174263641Y-88620000D02*
X173956359Y-88620000D01*
X174263641Y-89380000D02*
X173956359Y-89380000D01*
%TO.C,C18*%
X157422500Y-57713748D02*
X157422500Y-59136252D01*
X159242500Y-57713748D02*
X159242500Y-59136252D01*
%TO.C,C20*%
X151997500Y-55838748D02*
X151997500Y-57261252D01*
X153817500Y-55838748D02*
X153817500Y-57261252D01*
%TO.C,C16*%
X143102500Y-62526248D02*
X143102500Y-63048752D01*
X144572500Y-62526248D02*
X144572500Y-63048752D01*
%TO.C,J4*%
D14*
X127400000Y-41100000D02*
X128900000Y-41100000D01*
X127400000Y-52100000D02*
X127400000Y-41100000D01*
X127400000Y-52100000D02*
X139400000Y-52100000D01*
X128900000Y-41100000D02*
X128900000Y-40100000D01*
X137850000Y-40100000D02*
X137850000Y-41100000D01*
X137850000Y-41100000D02*
X139350000Y-41100000D01*
X139400000Y-52100000D02*
X139400000Y-41100000D01*
%TO.C,R40*%
D13*
X177956359Y-88620000D02*
X178263641Y-88620000D01*
X177956359Y-89380000D02*
X178263641Y-89380000D01*
%TO.C,R20*%
X164920000Y-59746359D02*
X164920000Y-60053641D01*
X165680000Y-59746359D02*
X165680000Y-60053641D01*
%TO.C,C9*%
X146377500Y-56692164D02*
X146377500Y-56907836D01*
X147097500Y-56692164D02*
X147097500Y-56907836D01*
%TO.C,MOC2*%
D14*
X163480250Y-128745000D02*
X169830250Y-128745000D01*
X163480250Y-128750000D02*
X163480250Y-129300000D01*
X163480250Y-137250000D02*
X163480250Y-136700000D01*
X169830250Y-128750000D02*
X169830250Y-129300000D01*
X169830250Y-137250000D02*
X169830250Y-136700000D01*
X169830250Y-137255000D02*
X163480250Y-137255000D01*
D15*
X161321250Y-135540000D02*
G75*
G02*
X161121250Y-135540000I-100000J0D01*
G01*
X161121250Y-135540000D02*
G75*
G02*
X161321250Y-135540000I100000J0D01*
G01*
%TO.C,C10*%
D13*
X176990000Y-62581252D02*
X176990000Y-61158748D01*
X178810000Y-62581252D02*
X178810000Y-61158748D01*
%TO.C,U3*%
X174570000Y-114270000D02*
X176220000Y-114270000D01*
X174570000Y-122010000D02*
X174570000Y-114270000D01*
X178220000Y-114270000D02*
X179870000Y-114270000D01*
X179870000Y-114270000D02*
X179870000Y-122010000D01*
X179870000Y-122010000D02*
X174570000Y-122010000D01*
X178220000Y-114270000D02*
G75*
G02*
X176220000Y-114270000I-1000000J0D01*
G01*
%TO.C,MOC3*%
D14*
X175480250Y-128745000D02*
X181830250Y-128745000D01*
X175480250Y-128750000D02*
X175480250Y-129300000D01*
X175480250Y-137250000D02*
X175480250Y-136700000D01*
X181830250Y-128750000D02*
X181830250Y-129300000D01*
X181830250Y-137250000D02*
X181830250Y-136700000D01*
X181830250Y-137255000D02*
X175480250Y-137255000D01*
D15*
X173321250Y-135540000D02*
G75*
G02*
X173121250Y-135540000I-100000J0D01*
G01*
X173121250Y-135540000D02*
G75*
G02*
X173321250Y-135540000I100000J0D01*
G01*
%TO.C,C19*%
D13*
X154690000Y-57651248D02*
X154690000Y-59073752D01*
X156510000Y-57651248D02*
X156510000Y-59073752D01*
%TO.C,C36*%
X137302500Y-57076248D02*
X137302500Y-57598752D01*
X138772500Y-57076248D02*
X138772500Y-57598752D01*
%TD*%
M02*
